<svg width="24" height="25" viewBox="0 0 24 25" fill="none" xmlns="http://www.w3.org/2000/svg">
<path fill-rule="evenodd" clip-rule="evenodd" d="M12.5 4.19995C15.7702 4.19995 18 6.09313 18 8.83631V20.8136C18 21.027 17.8241 21.2 17.6071 21.2L16.0438 21.1999C16.0411 21.1999 16.0384 21.2 16.0357 21.2L16.0279 21.1992L13.6867 21.1999C13.684 21.1999 13.6813 21.2 13.6786 21.2L13.6707 21.1992L7.39286 21.2C7.2 21.2 7.03959 21.0633 7.00633 20.883L7 20.8136L7.00255 8.79235C7 6.09313 9.22984 4.19995 12.5 4.19995ZM12.5 4.97268C12.2258 4.97268 11.9638 4.98423 11.714 5.00737L11.7143 17.3363C11.7143 17.5497 11.5384 17.7227 11.3214 17.7227C11.1286 17.7227 10.9682 17.586 10.9349 17.4058L10.9286 17.3363L10.9282 5.12697C10.6476 5.18843 10.3859 5.26828 10.1431 5.36661L10.1429 8.44995C10.1429 8.66333 9.96697 8.83631 9.75 8.83631C9.55714 8.83631 9.39674 8.69964 9.36347 8.5194L9.35714 8.44995L9.35671 5.79539C8.46648 6.43363 7.94913 7.44509 7.78571 8.83631L7.78493 20.4265L9.35714 20.4257V18.109C9.35714 17.8957 9.53303 17.7227 9.75 17.7227C9.94286 17.7227 10.1033 17.8594 10.1365 18.0396L10.1429 18.109V20.4257H13.2857V12.3136C13.2857 12.1002 13.4616 11.9272 13.6786 11.9272C13.8714 11.9272 14.0318 12.0639 14.0651 12.2441L14.0714 12.3136V20.4257H15.6429V17.7227C15.6429 17.5093 15.8187 17.3363 16.0357 17.3363C16.2286 17.3363 16.389 17.473 16.4222 17.6532L16.4286 17.7227V20.4257L17.2143 20.4265L17.2168 8.88028C17.0521 7.46571 16.5343 6.44343 15.644 5.80011L15.6429 14.6318C15.6429 14.8452 15.467 15.0181 15.25 15.0181C15.0571 15.0181 14.8967 14.8815 14.8635 14.7012L14.8571 14.6318L14.858 5.36845C14.6151 5.2695 14.3533 5.18923 14.0726 5.1275L14.0714 7.29086C14.0714 7.50424 13.8955 7.67722 13.6786 7.67722C13.4857 7.67722 13.3253 7.54055 13.292 7.36031L13.2857 7.29086L13.2866 5.00746C13.1038 4.99049 12.9146 4.97975 12.7188 4.97519L12.5 4.97268ZM9.68553 12.1783L9.8033 12.184C10.0193 12.2044 10.1775 12.3931 10.1568 12.6056C10.1383 12.7944 9.98464 12.9383 9.79903 12.9536L9.72813 12.9532C9.55269 12.9366 9.38287 13.0193 9.28992 13.1666C9.19697 13.3138 9.19697 13.5002 9.28992 13.6474C9.36959 13.7737 9.50574 13.8525 9.65349 13.8619L9.72813 13.8608C9.9441 13.8404 10.136 13.996 10.1568 14.2084C10.1775 14.4208 10.0193 14.6096 9.8033 14.63C9.33052 14.6747 8.87286 14.4518 8.62236 14.055C8.37187 13.6581 8.37187 13.1559 8.62236 12.759C8.85198 12.3952 9.25568 12.1777 9.68553 12.1783Z" fill="#4A4950"/>
</svg>
