<svg width="24" height="24" viewBox="0 0 24 24" fill="none" xmlns="http://www.w3.org/2000/svg">
<path d="M2.8 10.5373C1.84 10.5373 1.11 11.1241 0.68 11.7716C0.24 12.4393 0 13.2891 0 14.1693C0 15.0495 0.24 15.9095 0.68 16.5671C1.12 17.2247 1.84 17.8014 2.8 17.8014C3.76 17.8014 4.49 17.2146 4.92 16.5671C5.36 15.8994 5.6 15.0495 5.6 14.1693C5.6 13.2891 5.36 12.4292 4.92 11.7716C4.48 11.114 3.76 10.5373 2.8 10.5373ZM3.04 15.3227C2.91 15.5149 2.82 15.5453 2.8 15.5554C2.78 15.5554 2.68 15.5149 2.56 15.3227C2.4 15.0799 2.26 14.6752 2.26 14.1693C2.26 13.6635 2.4 13.2689 2.56 13.016C2.69 12.8237 2.78 12.7934 2.8 12.7833C2.82 12.7833 2.92 12.8237 3.04 13.016C3.2 13.2588 3.34 13.6635 3.34 14.1693C3.34 14.6752 3.2 15.0698 3.04 15.3227Z" fill="#7B7986"/>
<path d="M7.82 10.2843C8.78 10.2843 9.51 9.69755 9.94 9.05005C10.38 8.38232 10.62 7.53248 10.62 6.65229C10.62 5.7721 10.38 4.91214 9.94 4.25453C9.5 3.59691 8.78 3.02023 7.82 3.02023C6.86 3.02023 6.13 3.60703 5.7 4.25453C5.26 4.92226 5.02 5.7721 5.02 6.65229C5.02 7.53248 5.26 8.39244 5.7 9.05005C6.14 9.70767 6.86 10.2843 7.82 10.2843ZM7.58 5.49894C7.71 5.30671 7.8 5.27636 7.82 5.26624C7.84 5.26624 7.94 5.30671 8.06 5.49894C8.22 5.74175 8.36 6.14643 8.36 6.65229C8.36 7.15815 8.22 7.55272 8.06 7.80564C7.93 7.99787 7.84 8.02822 7.82 8.03834C7.8 8.03834 7.7 7.99787 7.58 7.80564C7.42 7.56283 7.28 7.15815 7.28 6.65229C7.28 6.14643 7.42 5.75186 7.58 5.49894Z" fill="#7B7986"/>
<path d="M12 10.5373C9.87 10.5373 8.31 11.6805 7.32 13.0767C6.35 14.4425 5.86 16.1422 5.86 17.5282C5.86 19.2178 6.88 20.3711 8.08 21.049C9.26 21.7167 10.71 22 12.01 22C13.31 22 14.77 21.7167 15.94 21.049C17.14 20.3711 18.16 19.2077 18.16 17.5282C18.16 16.1422 17.67 14.4425 16.7 13.0767C15.71 11.6805 14.14 10.5373 12.02 10.5373H12ZM12 19.7439C10.99 19.7439 9.94 19.5112 9.18 19.0863C8.45 18.6715 8.11 18.1555 8.11 17.5282C8.11 16.6076 8.46 15.3733 9.16 14.3919C9.84 13.4308 10.78 12.8035 12 12.8035C13.22 12.8035 14.16 13.4308 14.84 14.3919C15.54 15.3733 15.89 16.6076 15.89 17.5282C15.89 18.1555 15.55 18.6715 14.82 19.0863C14.06 19.5112 13.01 19.7439 12 19.7439Z" fill="#7B7986"/>
<path d="M23.32 11.7716C22.88 11.114 22.16 10.5373 21.2 10.5373C20.24 10.5373 19.51 11.1241 19.08 11.7716C18.64 12.4393 18.4 13.2891 18.4 14.1693C18.4 15.0495 18.64 15.9095 19.08 16.5671C19.52 17.2247 20.24 17.8014 21.2 17.8014C22.16 17.8014 22.89 17.2146 23.32 16.5671C23.76 15.8994 24 15.0495 24 14.1693C24 13.2891 23.76 12.4292 23.32 11.7716ZM21.44 15.3227C21.31 15.5149 21.22 15.5453 21.2 15.5554C21.18 15.5554 21.08 15.5149 20.96 15.3227C20.8 15.0799 20.66 14.6752 20.66 14.1693C20.66 13.6635 20.8 13.2689 20.96 13.016C21.09 12.8237 21.18 12.7934 21.2 12.7833C21.22 12.7833 21.32 12.8237 21.44 13.016C21.6 13.2588 21.74 13.6635 21.74 14.1693C21.74 14.6752 21.6 15.0698 21.44 15.3227Z" fill="#7B7986"/>
<path d="M18.3 4.23429C17.86 3.57668 17.14 3 16.18 3C15.22 3 14.49 3.58679 14.06 4.23429C13.62 4.90202 13.38 5.75186 13.38 6.63206C13.38 7.51225 13.62 8.3722 14.06 9.02982C14.5 9.68743 15.22 10.2641 16.18 10.2641C17.14 10.2641 17.87 9.67732 18.3 9.02982C18.74 8.36209 18.98 7.51225 18.98 6.63206C18.98 5.75186 18.74 4.89191 18.3 4.23429ZM16.42 7.78541C16.29 7.97764 16.2 8.00799 16.18 8.0181C16.16 8.0181 16.06 7.97764 15.94 7.78541C15.78 7.5426 15.64 7.13791 15.64 6.63206C15.64 6.1262 15.78 5.73163 15.94 5.4787C16.07 5.28647 16.16 5.25612 16.18 5.24601C16.2 5.24601 16.3 5.28647 16.42 5.4787C16.58 5.72151 16.72 6.1262 16.72 6.63206C16.72 7.13791 16.58 7.53248 16.42 7.78541Z" fill="#7B7986"/>
</svg>
