<svg width="24" height="25" viewBox="0 0 24 25" fill="none" xmlns="http://www.w3.org/2000/svg">
<path fill-rule="evenodd" clip-rule="evenodd" d="M17.9997 17.5603L17.9999 17.5674L18 17.575L17.997 17.6147L17.9977 17.6095C17.9965 17.6282 17.9944 17.6411 17.9917 17.6539C17.9892 17.6653 17.9862 17.6768 17.9826 17.6882L17.9717 17.7182C17.9675 17.7284 17.9627 17.7387 17.9574 17.7488C17.9525 17.758 17.9475 17.7667 17.9421 17.7752C17.9394 17.7795 17.9366 17.7839 17.9336 17.7882L17.9238 17.8016C17.9161 17.8118 17.9078 17.8216 17.8991 17.8309L15.631 20.099L15.6166 20.1118L15.6083 20.1182L15.6402 20.0901L15.6045 20.1205L15.5751 20.1422C15.5668 20.1474 15.558 20.1525 15.5491 20.1572C15.5387 20.1626 15.5284 20.1674 15.5179 20.1717C15.5085 20.1756 15.4986 20.1793 15.4884 20.1825C15.4769 20.1861 15.4654 20.1892 15.4537 20.1916C15.4457 20.1934 15.4374 20.1949 15.4291 20.1961C15.4162 20.1979 15.4033 20.1991 15.3904 20.1996C15.3853 20.1998 15.3802 20.2 15.375 20.2L15.3307 20.1962H15.3292L15.3407 20.1984L15.3563 20.1992L15.3349 20.1978L15.3278 20.1962L15.2868 20.2H6.375C6.19091 20.2 6.03779 20.0736 6.00604 19.907L6 19.8428V5.55709C6 5.38177 6.13266 5.23595 6.30759 5.20571L6.375 5.19995H17.625C17.8091 5.19995 17.9622 5.32629 17.994 5.4929L18 5.55709V17.4998L17.997 17.5307L17.9997 17.5603ZM17.2493 5.91352H6.74925V19.485L15 19.4852V17.575C15 17.3678 15.1679 17.2 15.375 17.2H17.25L17.2493 5.91352ZM16.719 17.95H15.75V18.919L16.719 17.95ZM12.375 9.69995C12.5821 9.69995 12.75 9.86784 12.75 10.075C12.75 10.259 12.6173 10.4122 12.4424 10.4439L12.375 10.45H8.625C8.41789 10.45 8.25 10.2821 8.25 10.075C8.25 9.89086 8.38266 9.73774 8.55759 9.70599L8.625 9.69995H12.375ZM15.375 8.19995C15.5821 8.19995 15.75 8.36784 15.75 8.57495C15.75 8.75905 15.6173 8.91216 15.4424 8.94391L15.375 8.94995H8.625C8.41789 8.94995 8.25 8.78206 8.25 8.57495C8.25 8.39086 8.38266 8.23774 8.55759 8.20599L8.625 8.19995H15.375Z" fill="#4A4950"/>
</svg>
