<svg width="300" height="100" viewBox="0 0 300 100" fill="none" xmlns="http://www.w3.org/2000/svg">
  <path d="M29.5684 48.8572L29.5684 21.2814C29.5684 14.2287 36.6875 9.40303 43.2387 12.0151L82.1891 27.5451L70.1421 32.4243L41.2093 21.5215C39.5783 20.9069 37.836 22.1123 37.836 23.8553L37.836 45.5087L29.5684 48.8572Z" fill="#F4BF48"/>
  <path d="M86.3801 35.1212C86.3801 37.1536 85.147 38.9827 83.263 39.745L68.8112 45.592V45.6143L26.7506 63.71L24.5331 64.5654L57.1702 76.8641C58.8012 77.4787 60.5436 76.2733 60.5436 74.5303V52.938L68.8112 49.5895V77.1183C68.8112 84.1673 61.6991 88.9927 55.1491 86.3879L15.1447 70.4789C13.2461 69.7239 12 67.8873 12 65.8441L12 63.265C12 61.2326 13.2331 59.4035 15.1172 58.6412L85.69 30.0659C86.1326 30.8171 86.3801 31.6868 86.3801 32.5975V35.1212Z" fill="#FD398A"/>
  <path d="M265.837 26.7487V46.0255L283.144 35.8222C283.346 35.703 283.607 35.7485 283.74 35.9424C284.156 36.5523 284.44 37.2587 284.553 38.0201L284.926 40.5196C285.226 42.5325 284.275 44.5262 282.521 45.5593L266.762 54.9585C266.188 55.3004 265.837 55.9187 265.837 56.5862V68.043C265.837 69.0404 265.029 69.849 264.031 69.849H258.373C257.376 69.849 256.567 69.0404 256.567 68.043V26.7487C256.567 25.7513 257.376 24.9427 258.373 24.9427H264.031C265.029 24.9427 265.837 25.7513 265.837 26.7487Z" fill="#080632"/>
  <path d="M104.352 58.6287C104.191 57.6207 105.021 56.7697 106.042 56.7697H111.679C112.568 56.7697 113.297 57.4338 113.647 58.2512C114.906 61.1913 118.409 62.8966 122.906 62.8966C128.017 62.8966 131.509 60.4205 131.509 57.0554C131.509 54.0395 129.35 52.3253 123.604 51.1507L118.779 50.1983C109.636 48.3888 105.16 44.0079 105.16 37.1825C105.16 28.8016 112.461 23.2461 122.652 23.2461C132.552 23.2461 139.053 28.0305 140.095 35.4108C140.236 36.4116 139.409 37.246 138.398 37.246H132.856C131.916 37.246 131.163 36.5079 130.854 35.6193C129.839 32.6982 126.764 30.9921 122.652 30.9921C117.922 30.9921 114.747 33.2143 114.747 36.5793C114.747 39.4047 116.969 41.1507 122.366 42.2301L127.223 43.2142C136.906 45.1507 141.128 49.0555 141.128 56.0078C141.128 64.9601 134.112 70.6426 122.652 70.6426C112.539 70.6426 105.556 66.1505 104.352 58.6287Z" fill="#080632"/>
  <path fill-rule="evenodd" clip-rule="evenodd" d="M158.172 41.6862C160.025 37.726 163.788 35.2778 168.681 35.2778C177.315 35.2778 182.617 41.8491 182.617 52.8332C182.617 63.7855 177.347 70.3886 168.839 70.3886C163.916 70.3886 160.122 68.004 158.3 64.2017C158.28 64.161 158.239 64.1347 158.194 64.1347C158.13 64.1347 158.077 64.1869 158.077 64.2513V77.348C158.077 78.3455 157.269 79.154 156.271 79.154H150.614C149.616 79.154 148.808 78.3455 148.808 77.348V37.6234C148.808 36.626 149.616 35.8174 150.614 35.8174H156.144C157.142 35.8174 157.95 36.626 157.95 37.6234V41.6378C157.95 41.7019 158.002 41.7539 158.067 41.7539C158.112 41.7539 158.153 41.7273 158.172 41.6862ZM158.046 52.8332C158.046 58.9919 161.03 62.9284 165.569 62.9284C170.204 62.9284 173.125 59.0236 173.125 52.8332C173.125 46.6745 170.204 42.7063 165.569 42.7063C161.03 42.7063 158.046 46.738 158.046 52.8332Z" fill="#080632"/>
  <path fill-rule="evenodd" clip-rule="evenodd" d="M200.106 70.3886C204.335 70.3886 208.533 68.2865 210.454 64.7061C210.474 64.6672 210.515 64.6427 210.559 64.6427C210.625 64.6427 210.678 64.6958 210.678 64.7614V68.043C210.678 69.0404 211.486 69.849 212.484 69.849H217.824C218.822 69.849 219.63 69.0404 219.63 68.043V46.4523C219.63 39.5952 213.948 35.0873 205.217 35.0873C197.088 35.0873 191.72 38.7782 190.487 44.3446C190.264 45.355 191.103 46.2301 192.137 46.2301H197.196C198.071 46.2301 198.785 45.5763 199.195 44.8023C200.1 43.0942 202.05 42.0079 204.805 42.0079C208.297 42.0079 210.519 43.8491 210.519 47.0237V47.5755C210.519 48.5315 209.774 49.3218 208.82 49.3784L201.948 49.7856C193.472 50.2935 188.71 53.8808 188.71 60.0713C188.71 66.1982 193.63 70.3886 200.106 70.3886ZM203.154 63.6903C200.011 63.6903 197.916 62.103 197.916 59.5633C197.916 57.1506 199.884 55.5951 203.344 55.3411L209.56 54.9561C210.08 54.9239 210.519 55.3367 210.519 55.8573V57.3729C210.519 61.0554 207.186 63.6903 203.154 63.6903Z" fill="#080632"/>
  <path d="M230.037 69.849C229.039 69.849 228.231 69.0404 228.231 68.043V37.6234C228.231 36.626 229.039 35.8174 230.037 35.8174H235.377C236.374 35.8174 237.183 36.626 237.183 37.6234V41.8361C237.183 41.8959 237.231 41.9444 237.291 41.9444C237.34 41.9444 237.383 41.9114 237.396 41.8647C238.615 37.598 241.493 35.2778 245.469 35.2778C245.943 35.2778 246.386 35.3084 246.788 35.3589C247.58 35.4583 248.104 36.1731 248.104 36.9707V41.0767C248.104 42.3654 246.743 43.3432 245.456 43.2672C245.221 43.2533 244.981 43.246 244.738 43.246C240.167 43.246 237.5 46.0396 237.5 50.8332V68.043C237.5 69.0404 236.692 69.849 235.694 69.849H230.037Z" fill="#080632"/>
  <path d="M270.306 58.9278C269.989 58.4772 270.121 57.8521 270.594 57.5691L277.258 53.5803L286.67 67.0063C287.509 68.2032 286.653 69.8489 285.191 69.8489H278.933C278.345 69.8489 277.795 69.5631 277.456 69.0827L270.306 58.9278Z" fill="#080632"/>
</svg>
