<svg width="24" height="24" viewBox="0 0 24 24" fill="none" xmlns="http://www.w3.org/2000/svg">
<path d="M17.6625 4.75005V4.70839C17.6625 3.32506 16.5517 2.20006 15.186 2.20006H8.48874C7.11474 2.19172 6.00402 3.31672 6.00402 4.70005V4.74172H17.6542L17.6625 4.75005Z" fill="#7B7986"/>
<path d="M6 7.29171C6 7.81671 6.24683 8.28338 6.49365 8.63338C6.74048 8.99171 7.06958 9.34171 7.34932 9.65004C7.39046 9.69171 7.43159 9.73337 7.47273 9.77504C7.71956 10.0417 7.93347 10.2584 8.0898 10.4667C8.25435 10.6834 8.28726 10.775 8.28726 10.775V18.95C8.28726 20.7417 9.72708 22.2 11.496 22.2H12.1624C13.9314 22.2 15.3712 20.7417 15.3712 18.95V10.775C15.3712 10.775 15.4041 10.6834 15.5686 10.475C15.7332 10.2667 15.9389 10.0417 16.1939 9.78337C16.2351 9.74171 16.2762 9.70004 16.3173 9.65837C16.6053 9.35837 16.9262 9.00838 17.173 8.64171C17.4116 8.29171 17.6667 7.82505 17.6667 7.30005V6.26672H6V7.30005V7.29171ZM10.953 14C11.1669 13.7834 11.4384 13.6667 11.7511 13.6667C12.0637 13.6667 12.327 13.775 12.5491 14C12.763 14.2167 12.8782 14.4917 12.8782 14.8084C12.8782 15.125 12.7713 15.3917 12.5491 15.6167C12.3352 15.8334 12.0637 15.95 11.7511 15.95C11.4384 15.95 11.1751 15.8417 10.953 15.6167C10.7391 15.4 10.6239 15.125 10.6239 14.8084C10.6239 14.4917 10.7308 14.225 10.953 14Z" fill="#7B7986"/>
</svg>
