<svg width="24" height="25" viewBox="0 0 24 25" fill="none" xmlns="http://www.w3.org/2000/svg">
<path fill-rule="evenodd" clip-rule="evenodd" d="M17.9145 5.19995C18.5027 5.19995 19 5.69724 19 6.28616V11.8724C19 12.1347 18.8714 12.4317 18.6719 12.6305L11.4302 19.8711C11.2565 20.0766 10.972 20.2 10.6727 20.2C10.4104 20.2 10.1134 20.0714 9.91458 19.8711L4.32883 14.2857C4.11158 14.1002 4 13.8445 4 13.5275C4 13.266 4.12858 12.9689 4.32883 12.7701L11.5706 5.52803C11.756 5.31079 12.011 5.19995 12.328 5.19995H17.9145ZM17.9145 6.01276H12.328C12.2208 6.01276 12.1817 6.04084 12.1543 6.08222L4.89783 13.3399C4.83206 13.3857 4.81211 13.433 4.81211 13.5275C4.81211 13.6339 4.84019 13.6746 4.88157 13.7019L10.4562 19.3022C10.5057 19.3509 10.5789 19.3798 10.6572 19.3798C10.737 19.3798 10.8102 19.3509 10.8612 19.3022L18.1022 12.0608C18.1679 12.015 18.1886 11.9677 18.1886 11.8724V6.28616C18.1886 6.14059 18.0601 6.01276 17.9145 6.01276ZM9.87334 10.0178C9.98049 10.0178 10.0817 10.0607 10.1593 10.139L14.061 14.0412C14.1401 14.1188 14.1837 14.22 14.1837 14.3257C14.1837 14.4321 14.1401 14.5333 14.061 14.6109C13.9723 14.6996 13.8519 14.7314 13.7765 14.7314C13.6945 14.7314 13.5748 14.6944 13.4913 14.6117L9.59032 10.7095C9.51052 10.6311 9.4684 10.5292 9.46913 10.4235C9.46913 10.3178 9.51126 10.2166 9.59032 10.139C9.66644 10.0614 9.76767 10.0186 9.87334 10.0178ZM10.9385 8.92394C11.045 8.92394 11.1462 8.9668 11.2238 9.04586L15.1254 12.9473C15.203 13.0242 15.2466 13.1254 15.2466 13.2311C15.2474 13.3375 15.2045 13.4395 15.1254 13.517C15.0419 13.6005 14.9222 13.6382 14.841 13.6382C14.7582 13.6382 14.6385 13.6005 14.5557 13.517L10.654 9.61631C10.5742 9.53724 10.5321 9.43601 10.5328 9.32961C10.5328 9.22468 10.575 9.12345 10.654 9.04512C10.7316 8.9668 10.8329 8.92394 10.9385 8.92394ZM14.6151 7.80345C15.0983 7.31946 15.9097 7.31946 16.4233 7.80197C16.6664 8.07833 16.7831 8.37389 16.7831 8.7101C16.7831 9.06404 16.656 9.38621 16.4255 9.61601C16.1624 9.84729 15.8417 9.97365 15.5203 9.97365C15.1611 9.97365 14.8478 9.85025 14.6151 9.61601C14.383 9.35222 14.2567 9.03153 14.2567 8.7101C14.2567 8.35542 14.3838 8.03325 14.6151 7.80345ZM15.4907 8.25936C15.4131 8.25936 15.2919 8.29704 15.184 8.40419C15.0909 8.47586 15.0392 8.58596 15.0392 8.7101C15.0392 8.82241 15.0828 8.91404 15.184 9.01601C15.3703 9.17783 15.6585 9.18005 15.8232 9.01897C15.9053 8.90813 15.9422 8.81429 15.9422 8.7101C15.9422 8.59778 15.8986 8.50616 15.7966 8.40419C15.7242 8.30887 15.5853 8.25936 15.4907 8.25936Z" fill="#4A4950"/>
</svg>
