<svg width="24" height="24" viewBox="0 0 24 24" fill="none" xmlns="http://www.w3.org/2000/svg">
<path fill-rule="evenodd" clip-rule="evenodd" d="M10.25 19.8118C10.25 20.0261 10.0821 20.2 9.875 20.2C9.69091 20.2 9.53779 20.0626 9.50604 19.8815L9.5 19.8118V18.7H8.97431C7.65491 18.7 6.57671 17.7773 6.50392 16.6147L6.5 16.4892V14.9492L5.3882 14.95C5.1738 14.95 5 14.7821 5 14.575C5 14.3909 5.13733 14.2377 5.31842 14.206L5.3882 14.2L6.5 14.1992V12.6992L5.3882 12.7C5.1738 12.7 5 12.5321 5 12.325C5 12.1409 5.13733 11.9877 5.31842 11.956L5.3882 11.95L6.5 11.9492V10.4492L5.3882 10.45C5.1738 10.45 5 10.2821 5 10.075C5 9.89086 5.13733 9.73774 5.31842 9.70599L5.3882 9.69995L6.5 9.6992V8.91066C6.5 7.73182 7.5327 6.76849 8.8339 6.70345L8.97431 6.69995H9.5V5.58815C9.5 5.37375 9.66789 5.19995 9.875 5.19995C10.0591 5.19995 10.2122 5.33728 10.244 5.51837L10.25 5.58815V6.69995H11.75V5.58815C11.75 5.37375 11.9179 5.19995 12.125 5.19995C12.3091 5.19995 12.4622 5.33728 12.494 5.51837L12.5 5.58815V6.69995H14V5.58815C14 5.37375 14.1679 5.19995 14.375 5.19995C14.5591 5.19995 14.7122 5.33728 14.744 5.51837L14.75 5.58815V6.69995H16.0257C17.3451 6.69995 18.4233 7.62264 18.4961 8.78521L18.5 8.91066V9.69995H19.611C19.8258 9.69995 20 9.86784 20 10.075C20 10.259 19.8624 10.4122 19.6809 10.4439L19.611 10.45H18.5V11.95H19.611C19.8258 11.95 20 12.1178 20 12.325C20 12.509 19.8624 12.6622 19.6809 12.6939L19.611 12.7H18.5V14.2H19.611C19.8258 14.2 20 14.3678 20 14.575C20 14.759 19.8624 14.9122 19.6809 14.9439L19.611 14.95H18.5V16.4892C18.5 17.6681 17.4673 18.6314 16.1661 18.6965L16.0257 18.7H14.75V19.8118C14.75 20.0261 14.5821 20.2 14.375 20.2C14.1909 20.2 14.0378 20.0626 14.006 19.8815L14 19.8118V18.7H12.5V19.8118C12.5 20.0261 12.3321 20.2 12.125 20.2C11.9409 20.2 11.7878 20.0626 11.756 19.8815L11.75 19.8118V18.7H10.25V19.8118ZM9.5 7.4492L8.94689 7.44995C8.00972 7.44995 7.25 8.11794 7.25 8.94195V9.6992L8.3618 9.69995C8.5762 9.69995 8.75 9.86784 8.75 10.075C8.75 10.259 8.61267 10.4122 8.43158 10.4439L8.3618 10.45L7.25 10.4492V11.9492L8.3618 11.95C8.5762 11.95 8.75 12.1178 8.75 12.325C8.75 12.509 8.61267 12.6622 8.43158 12.6939L8.3618 12.7L7.25 12.6992V14.1992L8.3618 14.2C8.5762 14.2 8.75 14.3678 8.75 14.575C8.75 14.759 8.61267 14.9122 8.43158 14.9439L8.3618 14.95L7.25 14.9492V16.458C7.25 17.2461 7.9451 17.8916 8.8257 17.9462L8.94689 17.95L9.5 17.9492V16.8382C9.5 16.6238 9.66789 16.45 9.875 16.45C10.0591 16.45 10.2122 16.5873 10.244 16.7684L10.25 16.8382V17.9492H11.75V16.8382C11.75 16.6238 11.9179 16.45 12.125 16.45C12.3091 16.45 12.4622 16.5873 12.494 16.7684L12.5 16.8382V17.9492H14V16.8382C14 16.6238 14.1679 16.45 14.375 16.45C14.5591 16.45 14.7122 16.5873 14.744 16.7684L14.75 16.8382V17.9492L16.0531 17.95C16.9495 17.95 17.6836 17.3388 17.7457 16.5645L17.75 16.458V14.95H16.639C16.4242 14.95 16.25 14.7821 16.25 14.575C16.25 14.3909 16.3876 14.2377 16.5691 14.206L16.639 14.2H17.75V12.7H16.639C16.4242 12.7 16.25 12.5321 16.25 12.325C16.25 12.1409 16.3876 11.9877 16.5691 11.956L16.639 11.95H17.75V10.45H16.639C16.4242 10.45 16.25 10.2821 16.25 10.075C16.25 9.89086 16.3876 9.73774 16.5691 9.70599L16.639 9.69995H17.75V8.94195C17.75 8.15377 17.0549 7.50833 16.1743 7.4537L16.0531 7.44995L14.75 7.4492V8.56175C14.75 8.77615 14.5821 8.94995 14.375 8.94995C14.1909 8.94995 14.0378 8.81263 14.006 8.63153L14 8.56175V7.4492H12.5V8.56175C12.5 8.77615 12.3321 8.94995 12.125 8.94995C11.9409 8.94995 11.7878 8.81263 11.756 8.63153L11.75 8.56175V7.4492H10.25V8.56175C10.25 8.77615 10.0821 8.94995 9.875 8.94995C9.69091 8.94995 9.53779 8.81263 9.50604 8.63153L9.5 8.56175V7.4492Z" fill="#4A4950"/>
</svg>
