<svg viewBox="0 0 24 24" xmlns="http://www.w3.org/2000/svg" data-title="Accessories" fill="currentColor" stroke="none">
  <path fill-rule="evenodd" d="m8.11,5c.39,0,.72.3.76.69v.09s0,3.11,0,3.11h.56c.92,0,1.68.74,1.74,1.67v.12s0,5.74,0,5.74c0,.92-.67,1.68-1.54,1.78v.4c0,.21-.17.39-.38.39-.19,0-.35-.14-.38-.32v-.07s0-.39,0-.39h-3.07v.39c0,.21-.17.39-.38.39-.19,0-.35-.14-.38-.32v-.07s0-.4,0-.4c-.82-.1-1.47-.79-1.53-1.65v-.13s0-5.74,0-5.74c0-.95.72-1.73,1.63-1.79h.12s.56,0,.56,0v-3.11c0-.4.3-.73.68-.77h.09s1.54,0,1.54,0Zm1.28,4.67h-4.1c-.53,0-.97.42-1.02.96v.1s0,5.66,0,5.66c0,.55.41,1,.93,1.06h.1s4.1,0,4.1,0c.53,0,.97-.42,1.02-.96v-.1s0-5.66,0-5.66c0-.59-.46-1.06-1.02-1.06Zm-.9,3.11c.6,0,1.09.46,1.15,1.05v.11s0,1.56,0,1.56c0,.61-.46,1.1-1.04,1.16h-.11s-2.3,0-2.3,0c-.6,0-1.09-.46-1.15-1.05v-.11s0-1.56,0-1.56c0-.61.46-1.1,1.04-1.16h.11s2.3,0,2.3,0Zm8.07,0c.46,0,.86.27,1.04.67l2.42-.57c.13-.03.27.01.36.11.09.1.13.24.1.37l-.31,1.16.28,1.35c.03.12,0,.24-.08.33-.07.09-.18.15-.3.15h.03s-.08,0-.12,0l-2.45-.78s-.09-.04-.12-.06c-.21.24-.52.4-.86.4s-.64-.15-.86-.38h-.03s-2.45.79-2.45.79c-.04.02-.07.03-.12.04-.12,0-.23-.05-.3-.15-.07-.09-.1-.21-.08-.33l.29-1.35-.29-1.26c-.03-.13,0-.27.1-.36.09-.09.23-.13.36-.1l2.38.56c.2-.34.57-.57.99-.57Zm-8.07.78h-2.3c-.19,0-.35.14-.38.32v.07s0,1.56,0,1.56c0,.19.14.35.32.38h.07s2.3,0,2.3,0c.19,0,.35-.14.38-.32v-.07s0-1.56,0-1.56c0-.21-.17-.39-.38-.39Zm11.09.24l-1.87.44v.48s0,.05,0,.08c.02,0,.05,0,.07.02l1.81.6-.18-.78c-.02-.06-.02-.13,0-.19l.18-.65Zm-5.96-.06l.17.74c.02.06.02.12,0,.17l-.16.73,1.78-.59v-.06s0-.59,0-.59l-1.79-.4Zm2.94-.18c-.19,0-.35.14-.38.32v.07s0,.78,0,.78c0,.21.17.39.38.39.19,0,.35-.14.38-.32v-.07s0-.78,0-.78c0-.21-.17-.39-.38-.39Zm0-8.56c.42,0,.77.35.77.78,0,.03,0,.06,0,.09,1.32.3,2.31,1.36,2.31,2.64,0,.15-.01.3-.04.44.47.15.81.59.81,1.11,0,.61-.46,1.1-1.04,1.16h-.11s-5.38,0-5.38,0c-.64,0-1.15-.52-1.15-1.17,0-.52.34-.97.81-1.11-.03-.14-.04-.29-.04-.44,0-1.28.99-2.34,2.31-2.64v-.08c0-.43.34-.78.76-.78Zm2.69,4.67h-5.38c-.21,0-.38.17-.38.39,0,.19.14.35.32.38h.07s5.38,0,5.38,0c.21,0,.38-.17.38-.39s-.17-.39-.38-.39Zm-2.69-3.11c-1.29,0-2.31.89-2.31,1.94,0,.13.02.26.05.39h4.52c.03-.13.05-.26.05-.39,0-1.06-1.02-1.94-2.3-1.94Zm-8.45-.78h-1.54v3.11h1.54v-3.11Z"/>
</svg>
