<svg viewBox="0 0 24 24" xmlns="http://www.w3.org/2000/svg" data-title="AddImageFill" fill="currentColor" stroke="none">
  <path d="M6.49726 12.4898C6.07299 12.4898 5.64872 12.1543 5.64872 11.6511V8.96734H2.84854C2.42427 8.96734 2 8.54801 2 8.12867C2 7.70934 2.33942 7.29 2.84854 7.29H5.64872V4.43852C5.64872 4.01919 5.98814 3.59985 6.49726 3.59985C6.92153 3.59985 7.3458 3.93532 7.3458 4.43852V7.29H10.146C10.5703 7.29 10.9945 7.70934 10.9945 8.12867C10.9945 8.54801 10.6551 8.96734 10.146 8.96734H7.3458V11.6511C7.3458 12.0704 7.00639 12.4898 6.49726 12.4898Z"/>
  <path fill-rule="evenodd" clip-rule="evenodd" d="M19.955 10.4853C20.4557 10.4853 21.0242 10.7118 21.3975 11.0808V11.0892C21.7539 11.433 22 11.9195 22 12.5149V19.9036C22 20.4068 21.7709 20.9687 21.3975 21.3377C21.0496 21.69 20.5575 21.9332 19.955 21.9332H6.23412C5.73348 21.9332 5.16496 21.7067 4.7916 21.3377C4.43521 20.9855 4.18914 20.4991 4.18914 19.9036V12.1711C4.43521 13.3033 5.4874 13.9994 6.50565 13.9994C7.95666 13.9994 8.88157 12.8085 8.88157 11.6511V10.477H10.1544C11.6054 10.477 12.5303 9.28604 12.5303 8.12868C12.5303 8.10352 12.5218 8.04481 12.5218 8.04481H15.5256C15.7802 8.04481 16.0178 8.16222 16.1705 8.36351L17.8167 10.4853H19.955ZM9.40766 15.5257C9.40766 17.5637 11.0963 19.132 13.0564 19.132C15.0165 19.132 16.7051 17.5637 16.7051 15.5257C16.7051 13.5884 15.1183 11.9195 13.0564 11.9195C11.0963 11.9195 9.40766 13.4878 9.40766 15.5257Z"/>
</svg>
