<svg viewBox="0 0 24 24" xmlns="http://www.w3.org/2000/svg" data-title="AddImageOutline" fill="currentColor" stroke="none">
  <path fill-rule="evenodd" clip-rule="evenodd" d="M12.0211 8.16858C12.0211 7.61629 12.4655 7.16858 13.0138 7.16858H15.1045C15.4137 7.16858 15.7052 7.31371 15.8931 7.56113L17.5627 9.7605H19.7208C20.2838 9.7605 20.9155 10.0162 21.3309 10.4346C21.7236 10.8302 22 11.3823 22 12.0565V19.9085C22 20.4756 21.7462 21.112 21.3309 21.5304C20.9381 21.926 20.39 22.2045 19.7208 22.2045H5.41789C4.8549 22.2045 4.22313 21.9488 3.80782 21.5304C3.41507 21.1347 3.13868 20.5826 3.13868 19.9085V13.7721C3.13868 13.2199 3.58313 12.7721 4.13138 12.7721C4.67964 12.7721 5.12408 13.2199 5.12408 13.7721V19.9085C5.12408 19.9622 5.13402 19.9972 5.14491 20.0222C5.15655 20.0491 5.17653 20.0807 5.21171 20.1162C5.21163 20.1161 5.21165 20.1161 5.21171 20.1162C5.21257 20.117 5.22115 20.1249 5.2396 20.1368C5.25937 20.1495 5.28462 20.163 5.31342 20.175C5.34224 20.1869 5.36918 20.1951 5.39109 20.1999C5.40913 20.2038 5.41865 20.2044 5.41923 20.2044H19.7208C19.7741 20.2044 19.8088 20.1944 19.8337 20.1835C19.8603 20.1717 19.8918 20.1516 19.927 20.1162C19.9269 20.1163 19.9269 20.1162 19.927 20.1162C19.9278 20.1153 19.9356 20.1067 19.9474 20.0881C19.9601 20.0682 19.9735 20.0427 19.9853 20.0137C19.9972 19.9847 20.0053 19.9575 20.0101 19.9355C20.014 19.9173 20.0145 19.9078 20.0146 19.9071V12.0565C20.0146 12.0027 20.0047 11.9678 19.9938 11.9427C19.9821 11.9159 19.9622 11.8842 19.927 11.8488C19.927 11.8488 19.9271 11.8489 19.927 11.8488C19.9261 11.848 19.9176 11.84 19.8991 11.8282C19.8793 11.8154 19.8541 11.8019 19.8253 11.79C19.7964 11.778 19.7695 11.7699 19.7476 11.7651C19.7299 11.7612 19.7204 11.7606 19.7195 11.7605C19.7195 11.7605 19.7195 11.7605 19.7195 11.7605L17.0721 11.7605C16.7629 11.7605 16.4714 11.6154 16.2835 11.368L14.6139 9.16858H13.0138C12.4655 9.16858 12.0211 8.72086 12.0211 8.16858Z"/>
  <path fill-rule="evenodd" clip-rule="evenodd" d="M8.58731 15.2583C8.58731 13.0122 10.4106 11.2852 12.5314 11.2852 14.761 11.2852 16.4755 13.1218 16.4755 15.2583 16.4755 17.5043 14.6522 19.2314 12.5314 19.2314 10.4106 19.2314 8.58731 17.5043 8.58731 15.2583ZM12.5314 13.2852C11.4738 13.2852 10.5727 14.15 10.5727 15.2583 10.5727 16.3665 11.4738 17.2314 12.5314 17.2314 13.589 17.2314 14.4901 16.3665 14.4901 15.2583 14.4901 14.1929 13.6315 13.2852 12.5314 13.2852ZM5.55718 10.5999C5.55718 11.0999 5.9708 11.4332 6.38443 11.4332 6.88078 11.4332 7.21168 11.0165 7.21168 10.5999V7.93319H9.94161C10.438 7.93319 10.7689 7.51652 10.7689 7.09985 10.7689 6.68319 10.3552 6.26652 9.94161 6.26652H7.21168V3.43319C7.21168 2.93319 6.79805 2.59985 6.38443 2.59985 5.88808 2.59985 5.55718 3.01652 5.55718 3.43319V6.26652H2.82725C2.3309 6.26652 2 6.68319 2 7.09986 2 7.51652 2.41363 7.93319 2.82725 7.93319H5.55718V10.5999Z"/>
</svg>
