<svg viewBox="0 0 24 24" xmlns="http://www.w3.org/2000/svg" data-title="AirConditioning" fill="currentColor" stroke="none">
  <path fill-rule="evenodd" d="m13.71,12.96l-1.7.96-1.7-.96v-1.93l1.7-.96,1.7.96v1.93Zm.73-1.94l1.11-.63,2.99.78s.06.01.09.01c.16,0,.31-.11.35-.26.05-.19-.06-.39-.26-.44l-2.28-.6,2.05-1.16c.17-.1.23-.32.13-.49-.1-.17-.32-.23-.5-.13l-2.08,1.17.61-2.24c.05-.19-.06-.39-.26-.44-.19-.05-.39.06-.45.25l-.8,2.92-1.1.62-1.69-.95v-1.24l2.19-2.14c.14-.14.14-.37,0-.51-.14-.14-.37-.14-.52,0l-1.67,1.64v-2.35c0-.2-.16-.36-.36-.36s-.36.16-.36.36v2.31l-1.67-1.64c-.14-.14-.37-.14-.52,0-.14.14-.14.36,0,.51l2.19,2.14v1.28l-1.69.96-1.11-.63-.8-2.92c-.05-.19-.25-.3-.45-.25-.19.05-.31.25-.26.44l.61,2.24-2.07-1.17c-.17-.1-.4-.04-.5.13-.1.17-.04.39.13.49l2.05,1.16-2.28.6c-.19.05-.31.25-.26.44.04.16.19.26.35.26.03,0,.06,0,.09-.01l2.99-.78,1.13.64v1.91l-1.12.63-2.99-.78c-.19-.05-.39.06-.45.25-.05.19.06.39.26.44l2.28.6-2.08,1.17c-.17.1-.23.32-.13.49.07.11.19.18.32.18.06,0,.12-.02.18-.05l2.05-1.16-.61,2.23c-.05.19.06.39.26.44.03,0,.06.01.09.01.16,0,.31-.1.35-.27l.8-2.92,1.13-.64,1.72.97v1.28l-2.19,2.14c-.14.14-.14.37,0,.51.07.07.16.1.26.1s.19-.03.26-.1l1.67-1.64v2.31c0,.2.16.36.36.36s.36-.16.36-.36v-2.35l1.67,1.64c.14.14.37.14.52,0,.14-.14.14-.37,0-.51l-2.19-2.14v-1.24l1.71-.97,1.12.63.8,2.92c.04.16.19.27.35.27.03,0,.06,0,.09-.01.19-.05.31-.25.26-.44l-.61-2.23,2.04,1.16c.06.03.12.05.18.05.13,0,.25-.06.32-.18.1-.17.04-.39-.13-.49l-2.07-1.17,2.28-.6c.19-.05.31-.25.26-.44-.05-.19-.25-.3-.45-.25l-2.99.78-1.1-.62v-1.94Z"/>
</svg>
