<svg viewBox="0 0 24 24" xmlns="http://www.w3.org/2000/svg" data-title="AlarmOnOutline" fill="currentColor" stroke="none">
  <path d="M7.12566 2.6074C7.4567 3.05283 7.36111 3.68018 6.91216 4.00863C6.00104 4.67519 5.25621 5.55485 4.7413 6.57661C4.36241 7.32846 4.11631 8.14084 4.01249 8.97643C3.94424 9.52571 3.44013 9.91609 2.88652 9.84838C2.33291 9.78067 1.93945 9.2805 2.00769 8.73123C2.13945 7.67078 2.45196 6.63802 2.93459 5.68032C3.59046 4.37885 4.54222 3.25236 5.71337 2.39556C6.16232 2.06712 6.79463 2.16196 7.12566 2.6074Z"/>
  <path fill-rule="evenodd" clip-rule="evenodd" d="M14.0534 4.36182C15.1044 4.69431 16.0706 5.27436 16.8642 6.06531C18.1664 7.36316 18.8971 9.12247 18.8971 10.956C18.8971 13.7377 19.3713 15.273 19.8604 16.1646C20.2522 16.8789 20.4423 17.7533 20.1184 18.5381C19.7582 19.4109 18.9126 19.8331 17.966 19.8331H15.0317L15.0305 19.8378C14.853 20.5142 14.4543 21.1131 13.8969 21.5406C13.3395 21.968 12.655 22.2 11.9505 22.2C11.246 22.2 10.5614 21.968 10.004 21.5406C9.44664 21.1131 9.04796 20.5142 8.87047 19.8378L8.86925 19.8331H5.93461C4.98925 19.8331 4.14314 19.4124 3.78334 18.5388C3.46016 17.7542 3.65159 16.8806 4.04267 16.1676C4.53095 15.2772 5.00452 13.7418 5.00452 10.956C5.00452 9.12247 5.73525 7.36316 7.03742 6.06531C7.83094 5.27442 8.79709 4.6944 9.84797 4.3619C9.88885 3.24462 10.8146 2.35133 11.9507 2.35133C13.0867 2.35133 14.0125 3.24458 14.0534 4.36182ZM11.9508 6.04142C13.2559 6.04142 14.5084 6.55809 15.4326 7.47925C16.357 8.40056 16.8772 9.65108 16.8772 10.956C16.8772 13.9507 17.3859 15.8462 18.0862 17.1227C18.3102 17.5311 18.2607 17.7504 18.2491 17.7786L18.245 17.7813C18.2283 17.791 18.1504 17.8289 17.966 17.8289H5.93461C5.74984 17.8289 5.67203 17.7909 5.65578 17.7816L5.65293 17.78C5.64133 17.7503 5.59412 17.5318 5.81697 17.1255C6.51673 15.8496 7.02449 13.9537 7.02449 10.956C7.02449 9.65108 7.54462 8.40056 8.469 7.47925C9.39322 6.55809 10.6458 6.04142 11.9508 6.04142Z"/>
  <path d="M18.2866 2.39556C17.8377 2.06712 17.2054 2.16196 16.8743 2.6074C16.5433 3.05283 16.6389 3.68018 17.0878 4.00863C17.999 4.67519 18.7438 5.55485 19.2587 6.57661C19.6376 7.32846 19.8837 8.14084 19.9875 8.97643C20.0558 9.52571 20.5599 9.91609 21.1135 9.84838C21.6671 9.78067 22.0606 9.2805 21.9923 8.73123C21.8605 7.67078 21.548 6.63802 21.0654 5.68032C20.4095 4.37885 19.4578 3.25236 18.2866 2.39556Z"/>
</svg>
