<svg viewBox="0 0 24 24" xmlns="http://www.w3.org/2000/svg" data-title="AlarmOffFill" fill="currentColor" stroke="none">
  <path d="M15.0185 4.61571C14.7021 4.46179 14.3745 4.33148 14.0383 4.22592C13.9968 3.10009 13.0566 2.19995 11.9029 2.19995C10.7493 2.19995 9.80919 3.09999 9.76761 4.22572C8.70027 4.56074 7.719 5.14524 6.91308 5.94226C5.59072 7.25001 4.84866 9.02273 4.84866 10.8702C4.84866 12.6804 4.64856 13.9679 4.37308 14.8945C4.29386 15.161 4.33136 15.4339 4.4561 15.66L15.3518 4.87396C15.3518 4.87396 15.1509 4.68015 15.0185 4.61571Z"/>
  <path fill-rule="evenodd" clip-rule="evenodd" d="M18.1 7.54049L21.6996 3.99679C22.1001 3.60247 22.1001 2.96315 21.6996 2.56882C21.2991 2.1745 20.6497 2.1745 20.2491 2.56882L2.3004 20.239C1.89987 20.6333 1.89987 21.2726 2.3004 21.6669C2.70094 22.0612 3.35034 22.0612 3.75088 21.6669L5.63198 19.815H8.77371L8.77495 19.8198C8.9552 20.5013 9.36006 21.1048 9.92607 21.5355C10.4921 21.9663 11.1873 22.2 11.9027 22.2C12.6181 22.2 13.3133 21.9663 13.8793 21.5355C14.4453 21.1048 14.8502 20.5013 15.0304 19.8198L15.0317 19.815H18.011C18.9723 19.815 19.831 19.3896 20.1968 18.5102C20.5257 17.7194 20.3327 16.8383 19.9348 16.1186C19.4381 15.2202 18.9566 13.6731 18.9566 10.8702C18.9566 9.69672 18.6572 8.55352 18.1 7.54049Z"/>
</svg>
