<svg viewBox="0 0 24 24" xmlns="http://www.w3.org/2000/svg" data-title="AlarmOffOutline" fill="currentColor" stroke="none">
  <path d="M15.0185 4.61571C14.7021 4.46179 14.3745 4.33148 14.0383 4.22592C13.9968 3.10009 13.0566 2.19995 11.9029 2.19995C10.7493 2.19995 9.80919 3.09999 9.76761 4.22572C8.70027 4.56074 7.719 5.14524 6.91308 5.94226C5.59072 7.25001 4.84866 9.02273 4.84866 10.8702C4.84866 12.6804 4.64856 13.9679 4.37308 14.8945C4.21397 15.4297 4.5257 15.9906 5.06934 16.1472C5.61298 16.3039 6.18267 15.997 6.34178 15.4618C6.68498 14.3073 6.89994 12.821 6.89994 10.8702C6.89994 9.55538 7.42813 8.29531 8.36684 7.36698C9.30539 6.4388 10.5773 5.91819 11.9026 5.91819C12.675 5.91819 13.429 6.09495 14.1096 6.42611C14.6174 6.67319 15.2325 6.46822 15.4835 5.96829C15.7345 5.46836 15.5263 4.86279 15.0185 4.61571Z"/>
  <path fill-rule="evenodd" clip-rule="evenodd" d="M18.1 7.54049L21.6996 3.99679C22.1001 3.60247 22.1001 2.96315 21.6996 2.56882C21.2991 2.1745 20.6497 2.1745 20.2491 2.56882L2.3004 20.239C1.89987 20.6333 1.89987 21.2726 2.3004 21.6669C2.70094 22.0612 3.35034 22.0612 3.75088 21.6669L5.63198 19.815H8.77371L8.77495 19.8198C8.9552 20.5013 9.36006 21.1048 9.92607 21.5355C10.4921 21.9663 11.1873 22.2 11.9027 22.2C12.6181 22.2 13.3133 21.9663 13.8793 21.5355C14.4453 21.1048 14.8502 20.5013 15.0304 19.8198L15.0317 19.815H18.011C18.9723 19.815 19.831 19.3896 20.1968 18.5102C20.5257 17.7194 20.3327 16.8383 19.9348 16.1186C19.4381 15.2202 18.9566 13.6731 18.9566 10.8702C18.9566 9.69672 18.6572 8.55352 18.1 7.54049ZM16.5584 9.0582L7.68326 17.7956H18.011C18.1983 17.7956 18.2774 17.7573 18.2943 17.7476L18.2985 17.7454C18.3104 17.717 18.3606 17.4955 18.1331 17.084C17.422 15.7977 16.9053 13.8878 16.9053 10.8702C16.9053 10.2439 16.7855 9.62985 16.5584 9.0582Z"/>
</svg>
