<svg viewBox="0 0 24 24" xmlns="http://www.w3.org/2000/svg" data-title="Arrival" fill="currentColor" stroke="none">
  <path fill-rule="evenodd" clip-rule="evenodd" d="M12.5 5.19995C16.6421 5.19995 20 8.55782 20 12.7C20 16.8421 16.6421 20.2 12.5 20.2C8.35786 20.2 5 16.8421 5 12.7C5 8.55782 8.35786 5.19995 12.5 5.19995ZM12.5 5.89698C8.74282 5.89698 5.69703 8.94277 5.69703 12.7C5.69703 16.4571 8.74282 19.5029 12.5 19.5029C16.2572 19.5029 19.303 16.4571 19.303 12.7C19.303 8.94277 16.2572 5.89698 12.5 5.89698ZM12.5 6.69995C15.8137 6.69995 18.5 9.38624 18.5 12.7C18.5 16.0137 15.8137 18.7 12.5 18.7C9.18629 18.7 6.5 16.0137 6.5 12.7C6.5 9.38624 9.18629 6.69995 12.5 6.69995ZM12.5 7.40171C9.57386 7.40171 7.20175 9.77381 7.20175 12.7C7.20175 15.6261 9.57386 17.9982 12.5 17.9982C15.4261 17.9982 17.7982 15.6261 17.7982 12.7C17.7982 9.77381 15.4261 7.40171 12.5 7.40171ZM15.1725 11.95C15.3534 11.95 15.5 12.0934 15.5 12.2705C15.5 12.4278 15.3841 12.5587 15.2314 12.5858L15.1725 12.591H13.155V16.1294C13.155 16.2868 13.0392 16.4176 12.8864 16.4448L12.8275 16.45C12.6667 16.45 12.533 16.3366 12.5053 16.1871L12.5 16.1294V12.2705C12.5 12.1131 12.6159 11.9823 12.7686 11.9551L12.8275 11.95H15.1725Z"/>
</svg>
