<svg viewBox="0 0 24 24" xmlns="http://www.w3.org/2000/svg" data-title="AttachFile" fill="currentColor" stroke="none">
  <path fill-rule="evenodd" clip-rule="evenodd" d="M7.31893 2.92492C8.16343 2.08822 9.30881 1.61816 10.5031 1.61816H13.9969C15.1912 1.61816 16.3366 2.08822 17.1811 2.92492C18.0256 3.76162 18.5 4.89643 18.5 6.0797V17.8489C18.5 18.4012 18.0481 18.8489 17.4907 18.8489C16.9333 18.8489 16.4814 18.4012 16.4814 17.8489V6.0797C16.4814 5.42686 16.2196 4.80076 15.7537 4.33913C15.2878 3.8775 14.6558 3.61816 13.9969 3.61816H10.5031C9.84418 3.61816 9.21225 3.8775 8.74632 4.33913C8.28039 4.80076 8.01863 5.42686 8.01863 6.0797V17.8489C8.01863 18.3182 8.20677 18.7682 8.54166 19.1C8.87654 19.4318 9.33075 19.6182 9.80435 19.6182H11.2019C11.6755 19.6182 12.1297 19.4318 12.4646 19.1C12.7994 18.7682 12.9876 18.3182 12.9876 17.8489V7.46432C12.9876 7.36231 12.9467 7.26448 12.8739 7.19235C12.8011 7.12022 12.7023 7.0797 12.5994 7.0797H11.9006C11.7977 7.0797 11.6989 7.12022 11.6261 7.19235C11.5533 7.26448 11.5124 7.36231 11.5124 7.46432V15.0797C11.5124 15.632 11.0605 16.0797 10.5031 16.0797C9.94568 16.0797 9.49379 15.632 9.49379 15.0797V7.46432C9.49379 6.83188 9.74737 6.22534 10.1987 5.77814C10.6501 5.33094 11.2623 5.0797 11.9006 5.0797H12.5994C13.2377 5.0797 13.8499 5.33094 14.3013 5.77814C14.7526 6.22534 15.0062 6.83188 15.0062 7.46432V17.8489C15.0062 18.8486 14.6054 19.8073 13.8919 20.5142C13.1785 21.221 12.2108 21.6182 11.2019 21.6182H9.80435C8.79537 21.6182 7.82772 21.221 7.11427 20.5142C6.40081 19.8073 6 18.8486 6 17.8489V6.0797C6 4.89643 6.47443 3.76162 7.31893 2.92492Z"/>
</svg>
