<svg viewBox="0 0 24 24" xmlns="http://www.w3.org/2000/svg" data-title="Attic" fill="currentColor" stroke="none">
  <path fill-rule="evenodd" d="m11.79,4.57c.13-.1.32-.1.45,0l2.94,2.16v-.42c0-.21.17-.38.38-.38h2.07c.21,0,.38.17.38.38v2.5l1.33.98c.17.12.2.36.08.53-.07.1-.19.15-.31.15-.08,0-.15-.03-.22-.07v8.36h.22c.21,0,.38.17.38.38s-.17.38-.38.38H4.88c-.21,0-.38-.17-.38-.38s.17-.38.38-.38h.22v-8.34c-.17.09-.37.05-.49-.1-.13-.17-.09-.4.08-.53l7.1-5.21Zm1.3,9.43h-2.17v4.75h2.17v-4.75Zm5.05-2.44H5.86v7.19h4.29v-5.12c0-.21.17-.38.38-.38h2.93c.21,0,.38.17.38.38v5.12h4.29v-7.19Zm-1.09,1.69c.21,0,.38.17.38.38v3.14c.17.03.31.18.31.36,0,.21-.17.38-.38.38h-2.68c-.21,0-.38-.17-.38-.38,0-.18.13-.33.31-.36v-3.14c0-.21.17-.38.38-.38h2.07Zm-7.97,0c.21,0,.38.17.38.38v3.14c.17.03.31.18.31.36,0,.21-.17.38-.38.38h-2.68c-.21,0-.38-.17-.38-.38,0-.18.13-.33.31-.36v-3.14c0-.21.17-.38.38-.38h2.07Zm7.59.75h-1.3v2.75h1.3v-2.75Zm-7.97,0h-1.3v2.75h1.3v-2.75Zm3.32-8.66l-6.16,4.52v.95h12.28v-.97l-6.12-4.5Zm-.02,1.63c1.01,0,1.83.81,1.83,1.8v.38h-3.66v-.38c0-.99.82-1.8,1.83-1.8Zm0,.75c-.46,0-.85.28-1,.68h2c-.15-.4-.54-.68-1-.68Zm5.25-1.04h-1.3v.61l1.3.96v-1.56Z"/>
</svg>
