<svg viewBox="0 0 24 24" xmlns="http://www.w3.org/2000/svg" data-title="AvatarFill" fill="currentColor" stroke="none">
  <path d="M22 12.001c0 5.523-4.477 10-10 10s-10-4.477-10-10 4.477-10 10-10 10 4.477 10 10Z"/>
  <path d="M16.186 14.832c-2.713-.135-7.93-.05-9.746-.013a3.89 3.89 0 0 0-2.203.723c-.404.292-.79.692-1.025 1.234A9.996 9.996 0 0 0 12 22a9.966 9.966 0 0 0 3.861-.773 11.27 11.27 0 0 0 2.326-1.411c.256-1.289.716-4.85-2-4.985Z"/>
  <path d="m9.527 12.555-.023 3.563a2.06 2.06 0 0 0 .177.849l.023.05a2.058 2.058 0 0 0 3.238.708 3.398 3.398 0 0 0 1.123-2.099l.156-1.163-4.694-1.908Z"/>
  <path d="M13.845 16.454c.072-.147.143-.383.221-.827l.156-1.163-4.695-1.91 1.626 2.227c.34.472.763.878 1.248 1.2.43.28.949.516 1.444.473Z"/>
  <path d="M16.846 10.216c-.18 2.497-1.041 6.966-4.497 5.155 0 0-1.227-.52-2.27-1.91a7.988 7.988 0 0 1-.875-1.605L8.77 10.5c-.611-1.662-.329-3.542.801-4.907.634-.765 1.933-1.37 3.233-1.36 2.283.017 3.119 1.036 3.61 2.395.32.88.5 2.655.431 3.588Z"/>
  <path d="M10.201 11.649c-.145-.529-.996.207-.996.207.093.24.2.473.322.699l-.001.31a.992.992 0 0 0 .675-1.216Z"/>
  <path d="M10.332 3.142C7.51 3.926 5.86 6.867 6.65 9.709a5.359 5.359 0 0 0 2.907 3.428l.003-1.07.45-.9s3.854-1.46 5.323-4.933c0 0 .539 1.515 1.183 2.764.123.25.247.492.37.71a5.34 5.34 0 0 0-.01-2.84c-.79-2.842-3.72-4.51-6.544-3.727Z"/>
  <path d="M10.762 11.58a.992.992 0 1 1-1.985 0 .992.992 0 0 1 1.985 0Z"/>
</svg>
