<svg viewBox="0 0 24 24" xmlns="http://www.w3.org/2000/svg" data-title="Axles" fill="currentColor" stroke="none">
  <path d="m18,14.74c0-.25-.14-.4-.37-.4h-1.74c-.23,0-.37.15-.37.4v1.55h-1.72c-.08-.4-.24-.76-.51-1.04-.26-.29-.58-.47-.95-.55v-4.91h.22c.12,0,.21-.04.28-.11.06-.07.1-.18.1-.31v-.54h.55c.21,0,.35-.16.35-.38v-.76h1.69v1.55c0,.25.14.4.37.4h1.74c.23,0,.37-.15.37-.4v-3.86c0-.24-.14-.4-.37-.4h-1.75c-.23,0-.36.15-.36.4v1.55h-1.69v-.74c0-.24-.14-.39-.36-.39h-2.95c-.22,0-.36.15-.36.39v.74h-1.69v-1.55c0-.26-.14-.41-.37-.41h-1.74c-.23,0-.37.15-.37.4v3.86c0,.25.14.4.37.4h1.74c.23,0,.37-.15.37-.4v-1.55h1.69v.1c0,.18,0,.35,0,.53,0,.13,0,.29.1.4.1.11.25.12.37.11.12,0,.25,0,.38,0h.05v.55c0,.24.14.4.37.4h.23v4.91c-.37.08-.69.27-.95.55-.26.29-.43.64-.51,1.04h-1.72v-1.55c0-.25-.14-.4-.37-.4h-1.73c-.24,0-.38.15-.38.41v3.85c0,.25.14.4.37.4h1.73c.24,0,.38-.15.38-.42v-1.54h1.72c.16.9.84,1.56,1.68,1.63.45.03.86-.1,1.22-.39.38-.31.61-.72.71-1.23h1.72v1.55c0,.25.14.4.37.4h1.73c.24,0,.38-.15.38-.41v-3.85h0Zm-.68.34v3.17h-1.11v-3.17h1.11Zm-4.17-8.52v1.53h-2.31v-1.53h2.31Zm-1.15,8.85c.31,0,.59.13.82.37s.34.56.34.89-.12.65-.34.89-.51.37-.82.37c-.64,0-1.16-.57-1.16-1.26,0-.34.12-.65.34-.89.22-.24.51-.37.82-.37Zm.25-6.56v.2h-.51v-.2h.51Zm3.95.07v-3.17h1.11v3.17h-1.11Zm-8.41-3.17v3.17h-1.11v-3.17h1.11Zm-1.11,12.51v-3.17h1.11v3.17h-1.11Z"/>
</svg>
