<svg viewBox="0 0 24 24" xmlns="http://www.w3.org/2000/svg" data-title="Baby" fill="currentColor" stroke="none">
  <path fill-rule="evenodd" clip-rule="evenodd" d="M19.0342 10.1673H18.3345V7.77029C18.3345 7.06117 18.0586 6.38202 17.5559 5.87266C17.0632 5.37328 16.3832 5.08365 15.6835 5.08365C15.4962 5.08365 15.3188 5.01373 15.1907 4.87391C15.0626 4.74407 14.9838 4.56429 14.9838 4.37453V3.52559C14.9838 2.58677 14.6191 1.69788 13.9687 1.02871C13.3183 0.369538 12.4313 0 11.5049 0C10.5786 0 9.70145 0.369538 9.04116 1.02871C8.38087 1.68789 8.02609 2.58677 8.02609 3.52559V4.37453C8.02609 4.56429 7.9571 4.74407 7.81913 4.87391C7.69101 5.00375 7.51362 5.08365 7.32638 5.08365C6.62667 5.08365 5.95652 5.3633 5.45391 5.87266C4.96116 6.37203 4.67536 7.06117 4.67536 7.77029V10.1673H3.97565C3.43362 10.1673 3 10.6067 3 11.1561C3 11.7054 3.43362 12.1448 3.97565 12.1448H4.67536V21.3134C4.67536 22.0225 4.9513 22.7016 5.45391 23.211C5.95652 23.7203 6.62667 24 7.32638 24H15.6736C16.3733 24 17.0435 23.7203 17.5461 23.211C18.0388 22.7116 18.3246 22.0225 18.3246 21.3134V16.2397V12.1548H19.0243C19.5664 12.1548 20 11.7154 20 11.166C20 10.6167 19.5664 10.1773 19.0243 10.1773L19.0342 10.1673ZM6.85333 7.2809C6.98145 7.15106 7.15884 7.07116 7.34609 7.07116C8.0458 7.07116 8.71594 6.79151 9.21855 6.28215C9.7113 5.78277 9.9971 5.09363 9.9971 4.38452V3.53558C9.9971 3.12609 10.1548 2.72659 10.4406 2.43695C10.7264 2.14732 11.1206 1.98752 11.5246 1.98752C11.9287 1.98752 12.3229 2.14732 12.6087 2.43695C12.8945 2.72659 13.0522 3.12609 13.0522 3.53558V4.38452C13.0522 5.09363 13.3281 5.77278 13.8307 6.28215C14.3235 6.78152 15.0035 7.07116 15.7032 7.07116C15.8904 7.07116 16.0678 7.14107 16.1959 7.2809C16.3241 7.41074 16.4029 7.59051 16.4029 7.78027V10.1773H6.64638V7.78027C6.64638 7.59051 6.71536 7.41074 6.85333 7.2809ZM16.1861 21.8127C16.058 21.9426 15.8806 22.0225 15.6933 22.0225H7.34609C7.15884 22.0225 6.98145 21.9526 6.85333 21.8127C6.72522 21.6829 6.64638 21.5031 6.64638 21.3134V12.1448H16.3832V15.2509H12.3525C11.8104 15.2509 11.3768 15.6904 11.3768 16.2397C11.3768 16.789 11.8104 17.2285 12.3525 17.2285H16.3832V21.3134C16.3832 21.5031 16.3142 21.6829 16.1762 21.8127H16.1861Z"/>
</svg>
