<svg viewBox="0 0 24 24" xmlns="http://www.w3.org/2000/svg" data-title="Baby" fill="currentColor" stroke="none">
  <path fill-rule="evenodd" d="m19.53,10.17h-.7v-2.4c0-.71-.28-1.39-.78-1.9-.49-.5-1.17-.79-1.87-.79-.19,0-.36-.07-.49-.21-.13-.13-.21-.31-.21-.5v-.85c0-.94-.36-1.83-1.02-2.5-.65-.66-1.54-1.03-2.46-1.03s-1.8.37-2.46,1.03c-.66.66-1.02,1.56-1.02,2.5v.85c0,.19-.07.37-.21.5-.13.13-.31.21-.49.21-.7,0-1.37.28-1.87.79-.49.5-.78,1.19-.78,1.9v2.4h-.7c-.54,0-.98.44-.98.99s.43.99.98.99h.7v9.17c0,.71.28,1.39.78,1.9.5.51,1.17.79,1.87.79h8.35c.7,0,1.37-.28,1.87-.79.49-.5.78-1.19.78-1.9v-9.16h.7c.54,0,.98-.44.98-.99s-.43-.99-.98-.99h0Zm-12.18-2.89c.13-.13.31-.21.49-.21.7,0,1.37-.28,1.87-.79.49-.5.78-1.19.78-1.9v-.85c0-.41.16-.81.44-1.1.29-.29.68-.45,1.08-.45s.8.16,1.08.45c.29.29.44.69.44,1.1v.85c0,.71.28,1.39.78,1.9.49.5,1.17.79,1.87.79.19,0,.36.07.49.21.13.13.21.31.21.5v2.4H7.15v-2.4c0-.19.07-.37.21-.5Zm9.33,14.53c-.13.13-.31.21-.49.21H7.85c-.19,0-.36-.07-.49-.21-.13-.13-.21-.31-.21-.5v-9.17h9.74v3.11h-4.03c-.54,0-.98.44-.98.99s.43.99.98.99h4.03v4.08c0,.19-.07.37-.21.5h0Z"/>
</svg>
