<svg viewBox="0 0 24 24" xmlns="http://www.w3.org/2000/svg" data-title="BankFill" fill="currentColor" stroke="none">
  <path d="m17.81,10.05c-.29,0-.55.1-.75.29-.19.2-.3.43-.3.71v6.28c0,.28.09.53.3.73.2.2.46.29.75.29s.55-.1.75-.29c.19-.2.3-.43.3-.71v-6.28c0-.28-.09-.53-.3-.73-.2-.2-.46-.29-.75-.29Zm3.03-1.59c.31,0,.58-.11.81-.32.23-.21.34-.48.34-.79,0-.23-.05-.44-.16-.63-.11-.2-.27-.35-.47-.46L12.96,2.21c-.3-.14-.62-.21-.96-.21s-.65.07-.96.2L2.69,6.27h0l.09.23-.12-.22c-.22.09-.39.24-.51.44-.11.2-.16.41-.16.63,0,.31.11.58.34.79.22.21.5.32.81.32h17.69Zm.14,11.5H3.05c-.29,0-.55.1-.75.29-.2.2-.3.45-.3.73s.09.53.28.72c.19.2.45.3.75.3h17.92c.29,0,.55-.1.75-.29.2-.2.3-.45.3-.73s-.09-.53-.28-.72c-.19-.2-.45-.3-.75-.3ZM5.45,10.34c-.19.2-.3.43-.3.71v6.28c0,.28.09.54.3.73s.46.29.75.29.55-.1.75-.29.3-.43.3-.71v-6.28c0-.28-.09-.54-.3-.73-.2-.2-.46-.29-.75-.29s-.55.1-.75.29Zm6.55-.29c-.29,0-.55.1-.75.29-.19.2-.3.43-.3.71v6.28c0,.28.09.54.3.73s.46.29.75.29.55-.1.75-.29c.19-.2.3-.43.3-.71v-6.28c0-.28-.09-.53-.3-.73-.2-.2-.46-.29-.75-.29Z"/>
</svg>
