<svg viewBox="0 0 24 24" xmlns="http://www.w3.org/2000/svg" data-title="Basement" fill="currentColor" stroke="none">
  <path fill-rule="evenodd" clip-rule="evenodd" d="M11.8436 5.24214C11.9523 5.18589 12.0819 5.18589 12.1905 5.24214L18.7952 8.64935C18.9809 8.74459 19.0536 8.97334 18.9577 9.16009C18.891 9.29059 18.7585 9.36484 18.6214 9.36484C18.5629 9.36484 18.5038 9.35209 18.4483 9.32284L18.4438 9.32059V14.641H18.6221C18.8311 14.641 18.9997 14.8098 18.9997 15.019C18.9997 15.229 18.8311 15.3978 18.6221 15.3978H18.4438V19.8212C18.4438 20.0305 18.2745 20.2 18.0656 20.2H5.93486C5.72512 20.2 5.55582 20.0305 5.55582 19.8212V15.3978H5.37829C5.16929 15.3978 5 15.229 5 15.019C5 14.8098 5.16929 14.641 5.37829 14.641H5.55582V9.33109C5.37529 9.40609 5.1663 9.33634 5.07566 9.16009C4.97977 8.97334 5.05244 8.74459 5.23821 8.64935L11.8436 5.24214ZM17.6873 15.3978H7.99784V15.8343H9.47654C9.68553 15.8343 9.85482 16.0045 9.85482 16.2138V17.0372H11.3335C11.5425 17.0372 11.7118 17.206 11.7118 17.416V18.2395H13.1913C13.4002 18.2395 13.5695 18.409 13.5695 18.6182V19.4417H17.6873V15.3978ZM7.24126 15.3978H6.3124V19.4417H12.813V18.997H11.3335C11.1245 18.997 10.9552 18.8282 10.9552 18.6182V17.7955H9.47654C9.26754 17.7955 9.09825 17.6252 9.09825 17.416V16.5925H7.61955C7.41056 16.5925 7.24126 16.423 7.24126 16.2138V15.3978ZM12.9695 10.0938H10.9964V14.641H12.9695V10.0938ZM12.0167 6.00488L6.3124 8.94784V14.641H10.2399V9.71433C10.2399 9.50508 10.4091 9.33484 10.6181 9.33484H13.3478C13.5568 9.33484 13.7261 9.50508 13.7261 9.71433V14.641H17.6873V8.92984L12.0167 6.00488ZM16.6841 9.33529C16.8931 9.33529 17.0624 9.50479 17.0624 9.71478V12.66C17.2257 12.702 17.3493 12.843 17.3493 13.02C17.3493 13.2292 17.1792 13.3995 16.9702 13.3995H14.4773C14.2675 13.3995 14.0982 13.2292 14.0982 13.02C14.0982 12.843 14.2218 12.702 14.3851 12.66V9.71478C14.3851 9.50479 14.5544 9.33529 14.7634 9.33529H16.6841ZM9.27039 9.33529C9.47938 9.33529 9.64868 9.50479 9.64868 9.71478V12.66C9.81198 12.702 9.93558 12.843 9.93558 13.02C9.93558 13.2292 9.76628 13.3995 9.55654 13.3995H7.06358C6.85384 13.3995 6.68454 13.2292 6.68454 13.02C6.68454 12.843 6.80814 12.702 6.97144 12.66V9.71478C6.97144 9.50479 7.14074 9.33529 7.34973 9.33529H9.27039ZM16.3058 10.0935H15.1417V12.6412H16.3058V10.0935ZM8.8921 10.0935H7.72802V12.6412H8.8921V10.0935Z"/>
</svg>
