<svg viewBox="0 0 24 24" xmlns="http://www.w3.org/2000/svg" data-title="BeautifulBuilding" fill="currentColor" stroke="none">
  <path fill-rule="evenodd" clip-rule="evenodd" d="M12.3795 4.23033C12.4726 4.18983 12.5792 4.18983 12.6731 4.23033L15.3124 5.35305C15.4505 5.41155 15.5406 5.54804 15.5406 5.69804V5.84729H18.1747C18.3271 5.84729 18.4645 5.93953 18.5223 6.08128L19.7913 9.1952C19.8386 9.3107 19.825 9.44195 19.7552 9.54619C19.6854 9.64969 19.5683 9.71194 19.4436 9.71194H19.1673V18.45H19.6246C19.8318 18.45 20 18.618 20 18.825C20 19.032 19.8318 19.2 19.6246 19.2H5.37543C5.16819 19.2 5 19.032 5 18.825C5 18.618 5.16819 18.45 5.37543 18.45H5.79742V9.71194H5.5211C5.3957 9.71194 5.27932 9.64969 5.20949 9.54619C5.13966 9.44195 5.12615 9.3107 5.17345 9.1952L6.44241 6.08128C6.50023 5.93953 6.63763 5.84729 6.79006 5.84729H9.49617V5.69804C9.49617 5.54729 9.58627 5.41155 9.72518 5.35305L12.3795 4.23033ZM9.8228 9.71194H6.54828V18.45H9.8228V9.71194ZM12.5184 6.19378L10.5737 6.99251V18.45H10.9814V14.5523C10.9814 14.3446 11.1496 14.1773 11.3568 14.1773H13.6424C13.8504 14.1773 14.0179 14.3446 14.0179 14.5523V18.45H14.391V6.96251L12.5184 6.19378ZM13.267 14.9273H11.7322V18.45H13.267V14.9273ZM18.4164 9.71194H15.1419V18.45H18.4164V9.71194ZM9.07419 14.1773C9.28217 14.1773 9.44962 14.3446 9.44962 14.5523V16.8338C9.44962 17.0408 9.28217 17.2088 9.07419 17.2088H7.37048C7.16249 17.2088 6.99504 17.0408 6.99504 16.8338V14.5523C6.99504 14.3446 7.16249 14.1773 7.37048 14.1773H9.07419ZM17.5942 14.1773C17.8022 14.1773 17.9697 14.3446 17.9697 14.5523V16.8338C17.9697 17.0408 17.8022 17.2088 17.5942 17.2088H15.8905C15.6833 17.2088 15.5151 17.0408 15.5151 16.8338V14.5523C15.5151 14.3446 15.6833 14.1773 15.8905 14.1773H17.5942ZM8.69875 14.9273H7.74516V16.4588H8.69875V14.9273ZM17.2196 14.9273H16.266V16.4588H17.2196V14.9273ZM9.07419 10.1934C9.28217 10.1934 9.44962 10.3614 9.44962 10.5684V12.8499C9.44962 13.0576 9.28217 13.2249 9.07419 13.2249H7.37048C7.16249 13.2249 6.99504 13.0576 6.99504 12.8499V10.5684C6.99504 10.3614 7.16249 10.1934 7.37048 10.1934H9.07419ZM13.6424 10.1934C13.8504 10.1934 14.0179 10.3614 14.0179 10.5684V12.8499C14.0179 13.0576 13.8504 13.2249 13.6424 13.2249H11.3568C11.1496 13.2249 10.9814 13.0576 10.9814 12.8499V10.5684C10.9814 10.3614 11.1496 10.1934 11.3568 10.1934H13.6424ZM17.5942 10.1934C17.8022 10.1934 17.9697 10.3614 17.9697 10.5684V12.8499C17.9697 13.0576 17.8022 13.2249 17.5942 13.2249H15.8905C15.6833 13.2249 15.5151 13.0576 15.5151 12.8499V10.5684C15.5151 10.3614 15.6833 10.1934 15.8905 10.1934H17.5942ZM8.69875 10.9434H7.74516V12.4749H8.69875V10.9434ZM13.267 10.9434H11.7322V12.4749H13.267V10.9434ZM17.2196 10.9434H16.266V12.4749H17.2196V10.9434ZM12.4999 6.93438C13.2064 6.93438 13.7816 7.50887 13.7816 8.2146C13.7816 8.92033 13.2064 9.49482 12.4999 9.49482C11.7933 9.49482 11.2181 8.92033 11.2181 8.2146C11.2181 7.50887 11.7933 6.93438 12.4999 6.93438ZM9.49617 6.59727H7.0431L6.07899 8.96196H9.8228V7.243C9.76648 7.2355 9.71092 7.21825 9.66286 7.18525C9.55849 7.11625 9.49617 6.99926 9.49617 6.87401V6.59727ZM17.9216 6.59727H15.5406V6.87401C15.5406 6.99926 15.4783 7.11625 15.3739 7.18525C15.3116 7.228 15.2388 7.249 15.1652 7.249C15.1569 7.249 15.1494 7.24525 15.1419 7.24525V8.96196H18.8857L17.9216 6.59727ZM12.4999 7.68436C12.207 7.68436 11.969 7.92211 11.969 8.2146C11.969 8.50709 12.207 8.74484 12.4999 8.74484C12.7927 8.74484 13.0307 8.50709 13.0307 8.2146C13.0307 7.92211 12.7927 7.68436 12.4999 7.68436ZM12.5252 4.98256L10.247 5.94628V6.31452L12.3757 5.4408C12.4215 5.4228 12.4703 5.41305 12.5184 5.41305C12.5672 5.41305 12.6153 5.4228 12.6611 5.4408L14.7898 6.31452V5.94553L12.5252 4.98256Z"/>
</svg>
