<svg viewBox="0 0 24 24" xmlns="http://www.w3.org/2000/svg" data-title="BeautifulBuilding" fill="currentColor" stroke="none">
  <path fill-rule="evenodd" d="m11.88,4.53c.09-.04.2-.04.29,0l2.64,1.12c.14.06.23.19.23.34v.15h2.63c.15,0,.29.09.35.23l1.27,3.11c.05.12.03.25-.04.35-.07.1-.19.17-.31.17h-.28v8.74h.46c.21,0,.38.17.38.38s-.17.38-.38.38H4.88c-.21,0-.38-.17-.38-.38s.17-.38.38-.38h.42v-8.74h-.28c-.13,0-.24-.06-.31-.17-.07-.1-.08-.24-.04-.35l1.27-3.11c.06-.14.2-.23.35-.23h2.71v-.15c0-.15.09-.29.23-.34l2.65-1.12Zm-2.56,5.48h-3.27v8.74h3.27v-8.74Zm2.7-3.52l-1.94.8v11.46h.41v-3.9c0-.21.17-.38.38-.38h2.29c.21,0,.38.17.38.38v3.9h.37V7.26l-1.87-.77Zm.75,8.73h-1.53v3.52h1.53v-3.52Zm5.15-5.22h-3.27v8.74h3.27v-8.74Zm-9.34,4.47c.21,0,.38.17.38.38v2.28c0,.21-.17.38-.38.38h-1.7c-.21,0-.38-.17-.38-.38v-2.28c0-.21.17-.38.38-.38h1.7Zm8.52,0c.21,0,.38.17.38.38v2.28c0,.21-.17.38-.38.38h-1.7c-.21,0-.38-.17-.38-.38v-2.28c0-.21.17-.38.38-.38h1.7Zm-8.9.75h-.95v1.53h.95v-1.53Zm8.52,0h-.95v1.53h.95v-1.53Zm-8.15-4.73c.21,0,.38.17.38.38v2.28c0,.21-.17.38-.38.38h-1.7c-.21,0-.38-.17-.38-.38v-2.28c0-.21.17-.38.38-.38h1.7Zm4.57,0c.21,0,.38.17.38.38v2.28c0,.21-.17.38-.38.38h-2.29c-.21,0-.38-.17-.38-.38v-2.28c0-.21.17-.38.38-.38h2.29Zm3.95,0c.21,0,.38.17.38.38v2.28c0,.21-.17.38-.38.38h-1.7c-.21,0-.38-.17-.38-.38v-2.28c0-.21.17-.38.38-.38h1.7Zm-8.9.75h-.95v1.53h.95v-1.53Zm4.57,0h-1.53v1.53h1.53v-1.53Zm3.95,0h-.95v1.53h.95v-1.53Zm-4.72-4.01c.71,0,1.28.57,1.28,1.28s-.58,1.28-1.28,1.28-1.28-.57-1.28-1.28.58-1.28,1.28-1.28Zm-3-.34h-2.45l-.96,2.36h3.74v-1.72c-.06,0-.11-.02-.16-.06-.1-.07-.17-.19-.17-.31v-.28Zm8.43,0h-2.38v.28c0,.13-.06.24-.17.31-.06.04-.14.06-.21.06,0,0-.02,0-.02,0v1.72h3.74l-.96-2.36Zm-5.42,1.09c-.29,0-.53.24-.53.53s.24.53.53.53.53-.24.53-.53-.24-.53-.53-.53Zm.03-2.7l-2.28.96v.37l2.13-.87s.09-.03.14-.03.1,0,.14.03l2.13.87v-.37l-2.26-.96Z"/>
</svg>
