<svg viewBox="0 0 24 24" xmlns="http://www.w3.org/2000/svg" data-title="BicycleType" fill="currentColor" stroke="none">
  <path fill-rule="evenodd" clip-rule="evenodd" d="M10.3498 8.25673C10.564 8.26085 10.7366 8.43181 10.7408 8.64392C10.7408 8.85776 10.5657 9.03111 10.3498 9.03111H9.75547L10.13 9.66552H17.3635L17.3643 7.59076C17.3655 7.46917 17.4232 7.35491 17.5207 7.281C17.6193 7.20842 17.7453 7.18289 17.8647 7.21131L19.4287 7.65271C19.5283 7.68146 19.6122 7.7482 19.6621 7.83824C19.7119 7.92828 19.7236 8.03424 19.6946 8.13283C19.6306 8.3353 19.4166 8.45155 19.2098 8.39612L18.1775 8.10185L18.1774 12.0188C18.2897 12.0297 18.4023 12.0468 18.5149 12.0702C19.975 12.3739 21.0153 13.6564 20.9998 15.1338C20.9844 16.6112 19.9174 17.8721 18.4512 18.1456C18.2581 18.1834 18.0616 18.2015 17.8647 18.1998C17.2366 18.1982 16.6235 18.0093 16.1053 17.6578C14.8741 16.8233 14.4094 15.2439 14.9954 13.8851C15.4255 12.8878 16.3337 12.2132 17.3638 12.0449L17.3635 11.0154L13.2275 15.474C13.1635 15.5428 13.0771 15.5857 12.9848 15.5962L12.9147 15.5979L10.2156 15.5983C10.1112 16.2359 9.807 16.8299 9.33978 17.2926C8.75317 17.8735 7.95756 18.1998 7.12797 18.1998C5.40044 18.1998 4 16.813 4 15.1023C4 13.3916 5.40044 12.0048 7.12797 12.0048C7.5067 12.0048 7.86971 12.0714 8.20569 12.1935L9.45391 10.0545L8.84809 9.03067L8.53556 9.03111C8.31962 9.03111 8.14456 8.85776 8.14456 8.64392C8.14456 8.43008 8.31962 8.25673 8.53556 8.25673H10.3498ZM7.12797 12.7791C5.83232 12.7791 4.78199 13.8193 4.78199 15.1023C4.78199 16.3853 5.83232 17.4255 7.12797 17.4255C8.25171 17.4255 9.19091 16.643 9.42036 15.5983L6.90119 15.5979C6.76039 15.5967 6.63022 15.5235 6.55712 15.4043C6.48727 15.2845 6.48727 15.1369 6.55712 15.0171L7.79819 12.8908C7.5858 12.8282 7.36083 12.7946 7.12797 12.7946V12.7791ZM17.3635 12.7911L17.4268 12.7791C16.374 12.9591 15.577 13.8208 15.488 14.8751C15.3991 15.9294 16.0407 16.91 17.0488 17.2605C18.0569 17.6109 19.1767 17.2426 19.7728 16.3645C20.0902 15.9033 20.2283 15.3459 20.1653 14.7949L20.1403 14.6299C19.9326 13.6697 19.1415 12.9522 18.1776 12.8167L18.1775 14.6609C18.1801 14.7705 18.1356 14.8761 18.0551 14.9514C17.9746 15.0267 17.8656 15.0646 17.7553 15.0558C17.5393 15.0558 17.3643 14.8825 17.3643 14.6686L17.3635 12.7911ZM8.50478 13.2366L7.57371 14.8235L9.4553 14.8232C9.37198 14.1714 9.01618 13.6042 8.50478 13.2366ZM9.91214 10.8394L8.90583 12.5534C9.64896 13.0627 10.1586 13.8824 10.2434 14.8232L12.228 14.823L9.91214 10.8394ZM16.8794 10.4405L10.5759 10.4402L11.8185 12.5852L12.9695 14.5602L16.8794 10.4405Z"/>
</svg>
