<svg viewBox="0 0 24 24" xmlns="http://www.w3.org/2000/svg" data-title="BicycleType" fill="currentColor" stroke="none">
  <path fill-rule="evenodd" d="m9.85,7.56c.21,0,.39.18.39.39,0,.21-.18.39-.39.39h-.59l.37.63h7.23v-2.07c0-.12.06-.24.16-.31.1-.07.22-.1.34-.07l1.56.44c.1.03.18.1.23.19.05.09.06.2.03.29-.06.2-.28.32-.48.26l-1.03-.29v3.92c.11.01.22.03.34.05,1.46.3,2.5,1.59,2.48,3.06-.02,1.48-1.08,2.74-2.55,3.01-.19.04-.39.06-.59.05-.63,0-1.24-.19-1.76-.54-1.23-.83-1.7-2.41-1.11-3.77.43-1,1.34-1.67,2.37-1.84v-1.03s-4.14,4.46-4.14,4.46c-.06.07-.15.11-.24.12h-.07s-2.7,0-2.7,0c-.1.64-.41,1.23-.88,1.69-.59.58-1.38.91-2.21.91-1.73,0-3.13-1.39-3.13-3.1s1.4-3.1,3.13-3.1c.38,0,.74.07,1.08.19l1.25-2.14-.61-1.02h-.31c-.22,0-.39-.17-.39-.39s.18-.39.39-.39h1.81Zm-3.22,4.52c-1.3,0-2.35,1.04-2.35,2.32s1.05,2.32,2.35,2.32c1.12,0,2.06-.78,2.29-1.83h-2.52c-.14,0-.27-.07-.34-.19-.07-.12-.07-.27,0-.39l1.24-2.13c-.21-.06-.44-.1-.67-.1v-.02Zm10.24.01h.06c-1.05.17-1.85,1.03-1.94,2.08-.09,1.05.55,2.03,1.56,2.39,1.01.35,2.13-.02,2.72-.9.32-.46.46-1.02.39-1.57l-.02-.16c-.21-.96-1-1.68-1.96-1.81v1.84c0,.11-.04.22-.12.29s-.19.11-.3.1c-.22,0-.39-.17-.39-.39v-1.88Zm-8.86.45l-.93,1.59h1.88c-.08-.65-.44-1.22-.95-1.59Zm1.41-2.4l-1.01,1.71c.74.51,1.25,1.33,1.34,2.27h1.98s-2.32-3.98-2.32-3.98Zm6.97-.4h-6.3s1.24,2.14,1.24,2.14l1.15,1.97,3.91-4.12Z"/>
</svg>
