<svg viewBox="0 0 24 24" xmlns="http://www.w3.org/2000/svg" data-title="Bike" fill="currentColor" stroke="none">
  <path d="m20.79,11.45c-.39-.41-.85-.74-1.36-.96-.51-.22-1.06-.33-1.61-.32h-.63l-1.4-4.01c-.12-.34-.34-.63-.62-.84-.28-.21-.62-.32-.96-.32h-1.33c-.12,0-.23.02-.34.06-.11.04-.21.11-.29.2-.16.18-.24.41-.24.65s.09.47.24.65c.08.09.18.15.29.2.11.04.22.07.34.06h1.31l1.18,3.37h-3.93l-.26-.76c.23,0,.46-.1.62-.27.16-.17.26-.4.26-.65s-.09-.47-.26-.65c-.16-.17-.39-.27-.62-.27h-2.5c-.11,0-.23.02-.33.06-.11.04-.2.11-.28.2-.08.08-.15.19-.19.3-.04.11-.06.23-.06.35,0,.12.02.24.06.35.04.11.1.21.18.3.17.17.39.26.63.26h.59l1.46,4.27h-.43c-.19-.94-.66-1.79-1.35-2.43-.8-.74-1.84-1.13-2.91-1.09-1.07.04-2.08.5-2.83,1.3-.76.81-1.19,1.88-1.21,3.01-.02,1.13.38,2.22,1.11,3.05.73.83,1.74,1.34,2.82,1.41,1.08.08,2.15-.28,2.98-1,.7-.63,1.19-1.48,1.38-2.43h3.4c.2.94.69,1.79,1.4,2.42.8.72,1.83,1.09,2.89,1.04,1.05-.05,2.05-.51,2.79-1.29.79-.83,1.23-1.95,1.23-3.12s-.44-2.29-1.23-3.12h.02Zm-2.97,3.18c.2-.09.36-.26.46-.47.05-.11.07-.23.07-.35s-.02-.24-.07-.35l-.52-1.41c.47.03.93.19,1.31.47.39.28.69.68.87,1.13.18.46.24.96.16,1.44-.08.49-.29.94-.6,1.31-.47.47-1.09.73-1.74.73s-1.27-.26-1.74-.73c-.36-.39-.6-.89-.68-1.43-.08-.54.01-1.09.25-1.58.13-.27.31-.51.53-.71l.48,1.41c.04.12.1.23.18.32.08.09.18.16.29.21.11.05.23.07.34.07.12,0,.23-.03.34-.08l.06.03Zm-3.4-2.61c-.15.2-.27.43-.37.66-.14.33-.25.67-.33,1.02h-1.1l-.6-1.68h2.4Zm-8.02,3.25c.08.09.18.15.29.2.11.05.22.07.34.06h1.43c-.15.44-.41.83-.76,1.12-.42.36-.95.54-1.49.53-.32,0-.65-.05-.95-.18-.3-.13-.57-.32-.8-.57-.46-.49-.71-1.14-.71-1.82s.26-1.34.71-1.82c.23-.24.5-.43.8-.56.3-.13.62-.19.95-.18.54-.01,1.07.18,1.49.53.34.3.61.68.76,1.12h-1.43c-.12,0-.23.02-.34.06-.11.04-.21.11-.29.2-.16.18-.25.41-.25.65s.09.48.25.65Z"/>
</svg>
