<svg viewBox="0 0 24 24" xmlns="http://www.w3.org/2000/svg" data-title="Boat" fill="currentColor" stroke="none">
  <path fill-rule="evenodd" clip-rule="evenodd" d="M19.6154 16.6932C19.8278 16.6932 20 16.8627 20 17.0718C20 18.2472 19.0322 19.2 17.8385 19.2C17.0997 19.2 16.4469 18.8363 16.0552 18.2806C15.6664 18.8359 15.0148 19.2 14.2769 19.2C13.7036 19.2 13.1539 18.9758 12.7485 18.5767C12.6557 18.4853 12.5722 18.3865 12.4986 18.2816C12.4278 18.3865 12.3443 18.4853 12.2515 18.5767C11.8461 18.9758 11.2964 19.2 10.7231 19.2C9.98516 19.2 9.33361 18.8359 8.9436 18.2803C8.5531 18.8363 7.90033 19.2 7.16154 19.2C5.96775 19.2 5 18.2472 5 17.0718C5 16.8627 5.1722 16.6932 5.38462 16.6932C5.59703 16.6932 5.76923 16.8627 5.76923 17.0718C5.82352 17.7915 6.43242 18.3481 7.16538 18.3481C7.89835 18.3481 8.50724 17.7915 8.56154 17.0718C8.56154 16.8627 8.73374 16.6932 8.94615 16.6932C9.15857 16.6932 9.33077 16.8627 9.33077 17.0718C9.33077 17.5616 9.59614 18.0141 10.0269 18.259C10.4577 18.5038 10.9884 18.5038 11.4192 18.259C11.85 18.0141 12.1154 17.5616 12.1154 17.0718C12.1154 16.8627 12.2876 16.6932 12.5 16.6932C12.7124 16.6932 12.8846 16.8627 12.8846 17.0718C12.8846 17.8289 13.508 18.4426 14.2769 18.4426C15.0459 18.4426 15.6692 17.8289 15.6692 17.0718C15.6692 16.8627 15.8414 16.6932 16.0538 16.6932C16.2663 16.6932 16.4385 16.8627 16.4385 17.0718C16.4928 17.7915 17.1016 18.3481 17.8346 18.3481C18.5676 18.3481 19.1765 17.7915 19.2308 17.0718C19.2308 16.8627 19.403 16.6932 19.6154 16.6932ZM12.1462 4.24997C12.3538 4.37872 17.1077 7.43082 17.1077 11.8234C17.119 11.9329 17.0813 12.0419 17.0045 12.1218C16.9277 12.2018 16.8194 12.2449 16.7077 12.24L12.323 12.2392L12.3231 13.1412C12.3231 13.1637 12.3211 13.1859 12.3171 13.2078L19.1615 12.7625C19.2833 12.7526 19.4019 12.8039 19.4769 12.8989C19.56 12.989 19.5918 13.1141 19.5615 13.2321L18.4846 17.3899C18.4457 17.5563 18.2965 17.6751 18.1231 17.6777H18.0308C17.8241 17.6255 17.6976 17.4203 17.7462 17.2157L18.6923 13.5577L6.38462 14.3605L7.8 17.087C7.87433 17.2086 7.87334 17.3609 7.79742 17.4816C7.72151 17.6023 7.58342 17.671 7.43972 17.6597C7.29601 17.6483 7.17081 17.5588 7.11538 17.4278L5.46154 14.1863C5.40383 14.0718 5.40383 13.9373 5.46154 13.8228C5.52993 13.7137 5.64712 13.6434 5.77692 13.6335L11.559 13.2577C11.5464 13.221 11.5393 13.1819 11.5385 13.1412V10.7026H9.63077C9.50593 10.702 9.38882 10.6429 9.31538 10.5435C9.24145 10.4392 9.22693 10.3049 9.27692 10.1876L11.5846 4.44688C11.6272 4.33328 11.7212 4.25117 11.8326 4.21908C11.9333 4.18671 12.0472 4.1944 12.1462 4.24997ZM12.3227 5.33288L12.323 11.4825L16.3462 11.4826C16.1099 8.55706 13.5144 6.26131 12.3227 5.33288ZM11.5385 6.5826L10.1923 9.94521H11.5385V6.5826Z"/>
</svg>
