<svg viewBox="0 0 24 24" xmlns="http://www.w3.org/2000/svg" data-title="Boat" fill="currentColor" stroke="none">
  <path fill-rule="evenodd" d="m19.12,16.99c.21,0,.38.17.38.38,0,1.18-.97,2.13-2.16,2.13-.74,0-1.39-.36-1.78-.92-.39.56-1.04.92-1.78.92-.57,0-1.12-.22-1.53-.62-.09-.09-.18-.19-.25-.3-.07.1-.15.2-.25.3-.41.4-.96.62-1.53.62-.74,0-1.39-.36-1.78-.92-.39.56-1.04.92-1.78.92-1.19,0-2.16-.95-2.16-2.13,0-.21.17-.38.38-.38s.38.17.38.38c.05.72.66,1.28,1.4,1.28s1.34-.56,1.4-1.28c0-.21.17-.38.38-.38s.38.17.38.38c0,.49.27.94.7,1.19.43.24.96.24,1.39,0,.43-.24.7-.7.7-1.19,0-.21.17-.38.38-.38s.38.17.38.38c0,.76.62,1.37,1.39,1.37s1.39-.61,1.39-1.37c0-.21.17-.38.38-.38s.38.17.38.38c.05.72.66,1.28,1.4,1.28s1.34-.56,1.4-1.28c0-.21.17-.38.38-.38Zm-7.47-12.44c.21.13,4.96,3.18,4.96,7.57.01.11-.03.22-.1.3-.08.08-.19.12-.3.12h-4.38s0,.9,0,.9c0,.02,0,.04,0,.07l6.84-.45c.12,0,.24.04.32.14.08.09.11.22.08.33l-1.08,4.16c-.04.17-.19.29-.36.29h-.09c-.21-.05-.33-.26-.28-.46l.95-3.66-12.31.8,1.42,2.73c.07.12.07.27,0,.39-.08.12-.21.19-.36.18-.14-.01-.27-.1-.32-.23l-1.65-3.24c-.06-.11-.06-.25,0-.36.07-.11.19-.18.32-.19l5.78-.38s-.02-.08-.02-.12v-2.44h-1.91c-.12,0-.24-.06-.32-.16-.07-.1-.09-.24-.04-.36l2.31-5.74c.04-.11.14-.2.25-.23.1-.03.21-.02.31.03Zm.18,1.08v6.15s4.02,0,4.02,0c-.24-2.93-2.83-5.22-4.02-6.15Zm-.78,1.25l-1.35,3.36h1.35v-3.36Z"/>
</svg>
