<svg viewBox="0 0 24 24" xmlns="http://www.w3.org/2000/svg" data-title="BoxOutline" fill="currentColor" stroke="none">
  <path fill-rule="evenodd" clip-rule="evenodd" d="M14.07 18.7247H17.5435C18.085 18.7247 18.5181 18.2914 18.5181 17.7497C18.5181 17.208 18.085 16.7747 17.5435 16.7747H14.07C13.5285 16.7747 13.0954 17.208 13.0954 17.7497C13.0954 18.2914 13.5285 18.7247 14.07 18.7247Z"/>
  <path fill-rule="evenodd" clip-rule="evenodd" d="M21.975 8.69971C21.975 8.63304 21.95 8.57471 21.9334 8.51637C21.9167 8.44971 21.9084 8.38304 21.8834 8.32471C21.8834 8.31637 21.8834 8.30804 21.8834 8.29137L19.8759 4.28304C19.5677 3.65804 19.0845 3.13304 18.4931 2.76637C17.9017 2.39971 17.2187 2.19971 16.519 2.19971H7.46439C7.46439 2.19971 7.44773 2.19971 7.4394 2.19971C6.75635 2.21637 6.08996 2.41637 5.5152 2.79137C4.94044 3.15804 4.4823 3.66637 4.17409 4.27471L2.09996 8.28304C2.09996 8.28304 2.09996 8.30804 2.09163 8.31637C2.06664 8.37471 2.05831 8.43304 2.04165 8.49971C2.02499 8.56637 2.00833 8.62471 2 8.69137C2 8.70804 2 8.71637 2 8.72471V19.833C2 20.458 2.2499 21.058 2.69138 21.508C3.13286 21.958 3.73261 22.1997 4.36568 22.1997H19.6343C20.2591 22.1997 20.8588 21.9497 21.3086 21.508C21.7501 21.0664 22 20.4664 22 19.833V8.72471C22 8.72471 22 8.70804 22 8.69137L21.975 8.69971ZM17.4602 4.42471C17.7434 4.59971 17.9767 4.84971 18.1266 5.15804L19.4344 7.75804H12.9704V4.14971H16.519C16.8521 4.14971 17.1853 4.24137 17.4686 4.41637L17.4602 4.42471ZM5.91504 5.16637V5.14971C6.06497 4.85804 6.28988 4.60804 6.56476 4.43304C6.83965 4.25804 7.15618 4.15804 7.47272 4.14971H11.0046V7.74971H4.57393L5.91504 5.16637ZM20.0342 19.833C20.0342 19.9414 19.9925 20.0497 19.9092 20.1247C19.8342 20.1997 19.7259 20.2497 19.6177 20.2497H4.35735C4.24906 20.2497 4.14077 20.208 4.06581 20.1247C3.99084 20.0497 3.94086 19.9414 3.94086 19.833V9.69971H20.0342V19.833Z"/>
</svg>
