<svg viewBox="0 0 24 24" xmlns="http://www.w3.org/2000/svg" data-title="Brand" fill="currentColor" stroke="none">
  <path fill-rule="evenodd" d="m15.8,4.5c.66,0,1.2.52,1.2,1.16v12.69c0,.64-.54,1.16-1.2,1.16h-6.49c-.66,0-1.2-.52-1.2-1.16V5.66c0-.64.54-1.16,1.2-1.16h6.49Zm.46,12.75h-7.41v1.09c0,.22.17.4.38.44h.07s6.49,0,6.49,0c.25,0,.46-.2.46-.44v-1.09Zm0-9.75h-7.41v9h7.41V7.5Zm-3.74,5.88c.24,0,.44.19.44.43s-.19.43-.44.43c-.24,0-.43-.2-.44-.43,0-.24.19-.43.44-.43Zm1.11-3.98c.28.28.43.66.41,1.06.02.51-.21.99-.61,1.3-.27.19-.46.48-.5.81,0,.21-.17.37-.38.37-.1,0-.2-.04-.27-.11s-.11-.17-.11-.27c.01-.47.25-.91.64-1.18.3-.2.48-.54.48-.9.03-.21-.03-.42-.18-.58-.14-.16-.35-.24-.56-.23-.34,0-.65.22-.75.54-.05.16-.2.28-.37.28-.2,0-.36-.16-.36-.36,0-.06.01-.12.04-.18.23-.59.81-.98,1.45-.95.4-.02.79.12,1.07.4Zm-6.26-1.9c.18,0,.33.12.36.29v.06s0,2.3,0,2.3c0,.19-.17.35-.37.35-.18,0-.33-.12-.36-.29v-.06s0-2.3,0-2.3c0-.19.17-.35.37-.35Zm8.43-2.29h-6.49c-.25,0-.46.2-.46.44v1.09h7.41v-1.09c0-.22-.17-.4-.38-.44h-.07Z"/>
</svg>
