<svg viewBox="0 0 24 24" xmlns="http://www.w3.org/2000/svg" data-title="Breakfast" fill="currentColor" stroke="none">
  <mask id="mask0_1508_5014" style="mask-type:alpha" maskUnits="userSpaceOnUse" x="6" y="10" width="13" height="11">
    <path d="M6 10.2H19V20.2H6V10.2Z"/>
  </mask>
  <g mask="url(#mask0_1508_5014)">
    <path fill-rule="evenodd" clip-rule="evenodd" d="M18.2583 16.554C18.2583 18.1675 16.9036 19.4811 15.2379 19.4811H13.1763C11.5114 19.4811 10.1568 18.1675 10.1568 16.554V11.8497C10.1568 11.8036 10.1303 11.7666 10.1139 11.7258L10.1061 10.9191L18.2583 10.8707V16.554ZM9.4085 13.3906V15.5298L8.61035 15.6771C8.46927 15.7043 8.32508 15.6673 8.21439 15.5781C8.10371 15.4897 8.0398 15.3591 8.0398 15.2193V13.7003C8.0398 13.5613 8.10371 13.4306 8.21362 13.3423C8.30169 13.2712 8.40926 13.2342 8.51994 13.2342C8.54955 13.2342 8.57995 13.2373 8.61035 13.2425L9.4085 13.3906ZM9.42253 16.7943L8.71869 16.9846C8.26662 17.1062 7.78726 17.0156 7.40533 16.7353C6.98444 16.4256 6.74281 15.9415 6.74281 15.4082V13.5122C6.74281 12.9789 6.98444 12.4947 7.40533 12.185C7.67502 11.9864 7.99459 11.8821 8.31884 11.8821C8.45212 11.8821 8.58619 11.8995 8.71869 11.935L9.41396 12.1231V12.6587L8.74909 12.5363C8.38899 12.4698 8.02187 12.562 7.74049 12.7878C7.45912 13.0137 7.29699 13.346 7.29699 13.7003V15.2193C7.29699 15.5743 7.45912 15.9067 7.74049 16.1326C7.96263 16.3101 8.237 16.4045 8.51838 16.4045C8.59554 16.4045 8.67271 16.3977 8.74909 16.3833L9.41396 16.261V16.554C9.41396 16.6349 9.41707 16.7149 9.42253 16.7943ZM18.3082 10.2H10.1061C9.72495 10.2 9.41396 10.5006 9.41396 10.8707V11.3768L8.91823 11.2423C8.23856 11.0603 7.52459 11.194 6.95638 11.6125C6.34841 12.0597 6 12.7516 6 13.5122V15.4082C6 16.1688 6.34919 16.8607 6.95638 17.3079C7.35779 17.604 7.83325 17.7573 8.3165 17.7573C8.51682 17.7573 8.71869 17.7309 8.91745 17.6773L9.56049 17.5043C9.99464 19.052 11.4428 20.2002 13.1763 20.2002H15.2379C17.3128 20.2002 19.0003 18.5648 19.0003 16.554V10.8707C19.0003 10.5006 18.6901 10.2 18.3082 10.2Z"/>
  </g>
  <path fill-rule="evenodd" clip-rule="evenodd" d="M15.489 8.84866C15.489 9.04276 15.6033 9.19995 15.7445 9.19995 15.8857 9.19995 16 9.04276 16 8.84866 16 8.44571 15.861 8.19257 15.7381 7.96969 15.6162 7.74755 15.5115 7.55641 15.5115 7.17338 15.5115 6.84202 15.5851 6.73058 15.6967 6.56157 15.8245 6.36748 16 6.1018 16 5.55124 16 5.35715 15.8857 5.19995 15.7445 5.19995 15.6033 5.19995 15.489 5.35715 15.489 5.55124 15.489 5.83021 15.4283 5.92246 15.3183 6.08925 15.1836 6.2922 15 6.57117 15 7.17338 15 7.79183 15.1911 8.13943 15.3306 8.39331 15.4375 8.58741 15.489 8.68851 15.489 8.84866ZM13.4893 8.84866C13.4893 9.04276 13.6035 9.19995 13.7446 9.19995 13.8857 9.19995 14 9.04276 14 8.84866 14 8.44571 13.8611 8.19257 13.7382 7.96969 13.6164 7.74755 13.5113 7.55641 13.5113 7.17338 13.5113 6.84202 13.5853 6.73058 13.6964 6.56157 13.8246 6.36748 14 6.1018 14 5.55124 14 5.35715 13.8857 5.19995 13.7446 5.19995 13.6035 5.19995 13.4893 5.35715 13.4893 5.55124 13.4893 5.83021 13.4286 5.92246 13.3181 6.08925 13.184 6.2922 13 6.57117 13 7.17338 13 7.79183 13.1915 8.13943 13.331 8.39331 13.4378 8.58741 13.4893 8.68851 13.4893 8.84866ZM11.4893 8.84866C11.4893 9.04276 11.6035 9.19995 11.7446 9.19995 11.8857 9.19995 12 9.04276 12 8.84866 12 8.44571 11.8611 8.19257 11.7382 7.96969 11.6164 7.74755 11.5113 7.55641 11.5113 7.17338 11.5113 6.84202 11.5848 6.73058 11.6964 6.56157 11.8246 6.36748 12 6.1018 12 5.55124 12 5.35715 11.8857 5.19995 11.7446 5.19995 11.6035 5.19995 11.4893 5.35715 11.4893 5.55124 11.4893 5.83021 11.4286 5.92246 11.3181 6.08925 11.184 6.2922 11 6.57117 11 7.17338 11 7.79183 11.1915 8.13943 11.331 8.39331 11.4378 8.58741 11.4893 8.68851 11.4893 8.84866Z"/>
</svg>
