<svg viewBox="0 0 24 24" xmlns="http://www.w3.org/2000/svg" data-title="CalculateOutline" fill="currentColor" stroke="none">
  <path fill-rule="evenodd" clip-rule="evenodd" d="M6.17705 3.70001C5.72887 3.70001 5.44262 4.04428 5.44262 4.37309V20.0269C5.44262 20.3557 5.72887 20.7 6.17705 20.7H17.823C18.2711 20.7 18.5574 20.3557 18.5574 20.0269V4.37309C18.5574 4.04428 18.2711 3.70001 17.823 3.70001H6.17705ZM4 4.37309C4 3.13001 5.01727 2.20001 6.17705 2.20001H17.823C18.9827 2.20001 20 3.13001 20 4.37309V20.0269C20 21.27 18.9827 22.2 17.823 22.2H6.17705C5.01727 22.2 4 21.27 4 20.0269V4.37309Z"/>
  <path fill-rule="evenodd" clip-rule="evenodd" d="M6.42623 5.47274C6.42623 5.05853 6.74917 4.72274 7.14754 4.72274H16.8525C17.2508 4.72274 17.5738 5.05853 17.5738 5.47274V8.83638C17.5738 9.25059 17.2508 9.58638 16.8525 9.58638H7.14754C6.74917 9.58638 6.42623 9.25059 6.42623 8.83638V5.47274ZM7.86885 6.22274V8.08638H16.1311V6.22274H7.86885ZM6.46058 12.0198C6.46058 11.2032 7.13599 10.6448 7.84075 10.6448 8.54551 10.6448 9.22092 11.2032 9.22092 12.0198 9.22092 12.8364 8.54551 13.3948 7.84075 13.3948 7.13599 13.3948 6.46058 12.8364 6.46058 12.0198ZM10.5043 12.0198C10.5043 11.2032 11.1797 10.6448 11.8845 10.6448 12.5892 10.6448 13.2646 11.2032 13.2646 12.0198 13.2646 12.8364 12.5892 13.3948 11.8845 13.3948 11.1797 13.3948 10.5043 12.8364 10.5043 12.0198ZM14.548 12.0198C14.548 11.2032 15.2234 10.6448 15.9282 10.6448 16.6329 10.6448 17.3084 11.2032 17.3084 12.0198 17.3084 12.8364 16.6329 13.3948 15.9282 13.3948 15.2234 13.3948 14.548 12.8364 14.548 12.0198ZM6.46058 15.3835C6.46058 14.5668 7.13599 14.0085 7.84075 14.0085 8.54551 14.0085 9.22092 14.5668 9.22092 15.3835 9.22092 16.2001 8.54551 16.7585 7.84075 16.7585 7.13599 16.7585 6.46058 16.2001 6.46058 15.3835ZM10.5043 15.3835C10.5043 14.5668 11.1797 14.0085 11.8845 14.0085 12.5892 14.0085 13.2646 14.5668 13.2646 15.3835 13.2646 16.2001 12.5892 16.7585 11.8845 16.7585 11.1797 16.7585 10.5043 16.2001 10.5043 15.3835ZM6.46058 18.7471C6.46058 17.9305 7.13599 17.3721 7.84075 17.3721 8.54551 17.3721 9.22092 17.9305 9.22092 18.7471 9.22092 19.5637 8.54551 20.1221 7.84075 20.1221 7.13599 20.1221 6.46058 19.5637 6.46058 18.7471ZM10.5043 18.7471C10.5043 17.9305 11.1797 17.3721 11.8845 17.3721 12.5892 17.3721 13.2646 17.9305 13.2646 18.7471 13.2646 19.5637 12.5892 20.1221 11.8845 20.1221 11.1797 20.1221 10.5043 19.5637 10.5043 18.7471ZM14.548 15.3835C14.548 14.5668 15.2234 14.0085 15.9282 14.0085 16.6329 14.0085 17.3084 14.5668 17.3084 15.3835 17.3084 16.2001 16.6329 16.7585 15.9282 16.7585 15.2234 16.7585 14.548 16.2001 14.548 15.3835ZM14.548 18.7471C14.548 17.9305 15.2234 17.3721 15.9282 17.3721 16.6329 17.3721 17.3084 17.9305 17.3084 18.7471 17.3084 19.5637 16.6329 20.1221 15.9282 20.1221 15.2234 20.1221 14.548 19.5637 14.548 18.7471Z"/>
</svg>
