<svg viewBox="0 0 24 24" xmlns="http://www.w3.org/2000/svg" data-title="CalculateFill" fill="currentColor" stroke="none">
  <path d="m17.91,2H6.17c-1.13,0-2.17.92-2.17,2.17v15.67c0,1.25,1.04,2.17,2.17,2.17h11.66c1.13,0,2.17-.92,2.17-2.17V4.17c.08-1.25-.96-2.17-2.09-2.17Zm-1.93,14.58c-.72,0-1.37-.58-1.37-1.42s.64-1.33,1.37-1.33,1.37.58,1.37,1.33c0,.83-.64,1.42-1.37,1.42Zm1.37,2c0,.83-.64,1.33-1.37,1.33s-1.37-.58-1.37-1.33c0-.83.64-1.42,1.37-1.42s1.37.58,1.37,1.42Zm-1.37-5.42c-.72,0-1.37-.58-1.37-1.33,0-.83.64-1.42,1.37-1.42s1.37.58,1.37,1.42-.64,1.33-1.37,1.33Zm.96-3.75H7.13c-.4,0-.72-.33-.72-.75v-3.33c0-.5.32-.83.72-.83h9.73c.4,0,.72.33.72.75v3.33c.08.5-.24.83-.64.83Zm-4.98,7.17c-.72,0-1.37-.58-1.37-1.42s.64-1.33,1.37-1.33,1.37.58,1.37,1.33c0,.83-.72,1.42-1.37,1.42Zm1.37,2c0,.83-.64,1.33-1.37,1.33s-1.37-.58-1.37-1.33c0-.83.64-1.42,1.37-1.42.64,0,1.37.58,1.37,1.42Zm-1.37-5.42c-.72,0-1.37-.58-1.37-1.33,0-.83.64-1.42,1.37-1.42s1.37.58,1.37,1.42-.72,1.33-1.37,1.33Zm-4.1,3.42c-.72,0-1.37-.58-1.37-1.42s.64-1.33,1.37-1.33,1.37.58,1.37,1.33c0,.83-.64,1.42-1.37,1.42Zm1.37,2c0,.83-.64,1.33-1.37,1.33s-1.37-.58-1.37-1.33c0-.83.64-1.42,1.37-1.42s1.37.58,1.37,1.42Zm-1.37-5.42c-.72,0-1.37-.58-1.37-1.33,0-.83.64-1.42,1.37-1.42s1.37.58,1.37,1.42-.64,1.33-1.37,1.33Z"/>
</svg>
