<svg viewBox="0 0 24 24" xmlns="http://www.w3.org/2000/svg" data-title="CalendarValidFill" fill="currentColor" stroke="none">
  <path d="M16.291 12.2942C16.7149 12.669 16.741 13.3016 16.3495 13.7073L11.5495 18.6803L11.5467 18.6831C11.3873 18.847 11.1949 18.9708 10.9882 19.0525C10.7817 19.1341 10.5611 19.1737 10.3414 19.1715C10.1181 19.1691 9.89388 19.1236 9.68608 19.0346C9.47924 18.9461 9.28827 18.8145 9.13286 18.6425L9.13041 18.6398L7.62948 16.9876C7.25087 16.5708 7.29692 15.9392 7.73235 15.5768C8.16778 15.2144 8.82769 15.2585 9.2063 15.6753L10.3694 16.9556L14.8147 12.3501C15.2062 11.9445 15.8672 11.9194 16.291 12.2942Z"/>
  <path fill-rule="evenodd" clip-rule="evenodd" d="M8.56716 3.6001C8.56716 3.04781 8.0994 2.6001 7.52239 2.6001C6.94537 2.6001 6.47761 3.04781 6.47761 3.6001V4.31438H5.73134C3.67058 4.31438 2 5.91337 2 7.88581V19.0287C2 20.9985 3.66248 22.6001 5.72597 22.6001H18.2733C20.3338 22.6001 22 21.0062 22 19.0335V7.88099C22 5.97464 20.441 4.42533 18.4815 4.32008C18.4111 4.3163 18.3401 4.31438 18.2687 4.31438H17.5224V3.6001C17.5224 3.04781 17.0546 2.6001 16.4776 2.6001C15.9006 2.6001 15.4328 3.04781 15.4328 3.6001V4.31438H8.56716V3.6001ZM19.9104 10.2905H4.08947V19.0286C4.08947 19.8991 4.82187 20.6 5.72589 20.6H18.2732C19.1802 20.6 19.9104 19.9011 19.9104 19.0335V10.2905Z"/>
</svg>
