<svg viewBox="0 0 24 24" xmlns="http://www.w3.org/2000/svg" data-title="CalendarDotOutline" fill="currentColor" stroke="none">
  <path d="M15.2462 14.7441C14.4439 14.7441 13.7934 15.367 13.7934 16.1354V17.5955C13.7934 18.3639 14.4439 18.9868 15.2462 18.9868H16.7708C17.5731 18.9868 18.2235 18.3639 18.2235 17.5955V16.1354C18.2235 15.367 17.5731 14.7441 16.7708 14.7441H15.2462Z"/>
  <path fill-rule="evenodd" clip-rule="evenodd" d="M8.74332 3.71313C8.74332 3.09842 8.22298 2.6001 7.58111 2.6001C6.93923 2.6001 6.41889 3.09842 6.41889 3.71313V4.29285H5.81355C3.70738 4.29285 2 5.92798 2 7.94502V18.9479C2 20.9621 3.69905 22.6001 5.80825 22.6001H18.191C20.2969 22.6001 22 20.97 22 18.9527V7.94025C22 5.9205 20.2898 4.29285 18.1865 4.29285H17.5811V3.71313C17.5811 3.09842 17.0608 2.6001 16.4189 2.6001C15.777 2.6001 15.2567 3.09842 15.2567 3.71313V4.29285H8.74332V3.71313ZM5.81355 6.51891H6.41889V7.09864C6.41889 7.71335 6.93923 8.21167 7.58111 8.21167C8.22298 8.21167 8.74332 7.71335 8.74332 7.09864V6.51891H15.2567V7.09864C15.2567 7.71335 15.777 8.21167 16.4189 8.21167C17.0608 8.21167 17.5811 7.71335 17.5811 7.09864V6.51891H18.1865C19.0117 6.51891 19.6756 7.15536 19.6756 7.94025V9.37112H4.32442V7.94502C4.32442 7.1574 4.99113 6.51891 5.81355 6.51891ZM4.32442 11.5972H19.6756V18.9527C19.6756 19.7401 19.0137 20.374 18.191 20.374H5.80825C4.98885 20.374 4.32442 19.7385 4.32442 18.9479V11.5972Z"/>
</svg>
