<svg viewBox="0 0 24 24" xmlns="http://www.w3.org/2000/svg" data-title="CallOutline" fill="currentColor" stroke="none">
  <path fill-rule="evenodd" clip-rule="evenodd" d="M16.236 2.80005C14.2885 2.80005 12.7095 4.37222 12.7095 6.31202V11.1836C12.7095 11.5649 12.9265 11.9133 13.2695 12.0827 13.6125 12.252 14.0222 12.2132 14.327 11.9824L15.6496 10.9807H18.4748C20.4138 10.9807 21.9918 9.42098 21.9975 7.48621 21.9987 7.07614 21.9996 6.65014 22 6.23742 22.0018 4.31871 20.4456 2.80005 18.536 2.80005H16.236ZM14.7247 6.31202C14.7247 5.48081 15.4012 4.80699 16.236 4.80699H18.536C19.3489 4.80699 19.9856 5.44282 19.9849 6.23555 19.9845 6.64661 19.9835 7.07124 19.9823 7.48034 19.9799 8.30528 19.3069 8.97379 18.4748 8.97379H15.3101C15.0999 8.97379 14.8953 9.03923 14.7247 9.16054V6.31202ZM5.40285 6.03287C4.81793 6.03287 4.26022 6.26565 3.84803 6.67504 3.84268 6.68036 3.83738 6.68574 3.83215 6.69118L3.34653 7.19575C2.60483 7.94237 2.1406 8.92192 2.02718 9.96951 1.91341 11.0202 2.15887 12.0801 2.72503 12.9717 2.72917 12.9782 2.73338 12.9847 2.73766 12.9911 5.1204 16.5586 8.15298 19.632 11.6731 22.0451L11.6904 22.0567C12.5737 22.6356 13.6289 22.8893 14.6779 22.7721 15.7237 22.6552 16.6946 22.1775 17.4298 21.4237L17.9264 20.9304C17.9318 20.925 17.9371 20.9197 17.9423 20.9142 18.3444 20.4964 18.5662 19.9393 18.5662 19.3631 18.5662 18.7869 18.3444 18.2298 17.9423 17.812L17.9307 17.8001 15.7973 15.6554 15.7948 15.653C15.3844 15.2432 14.8277 15.01 14.2437 15.01 13.6602 15.01 13.1039 15.2428 12.6936 15.652 12.6551 15.6898 12.6078 15.7074 12.5627 15.7074 12.5181 15.7074 12.4714 15.6902 12.4332 15.6535L9.08795 12.2548 9.08275 12.2496C9.06514 12.232 9.05009 12.2099 9.03945 12.1841 9.02879 12.1582 9.02306 12.1298 9.02306 12.1006 9.02306 12.0714 9.02879 12.0429 9.03945 12.0171 9.05008 11.9912 9.06514 11.9691 9.08275 11.9515L9.09403 11.94C9.49654 11.5239 9.71874 10.9679 9.71874 10.3927 9.71874 9.8175 9.49657 9.26148 9.09406 8.84539L6.96572 6.68304 6.95766 6.67504C6.54548 6.26565 5.98776 6.03287 5.40285 6.03287ZM4.79544 8.59059 5.27582 8.09146C5.31355 8.05628 5.35919 8.03981 5.40285 8.03981 5.44744 8.03981 5.4941 8.057 5.53228 8.09374L7.64456 10.2397C7.68038 10.2777 7.7036 10.3322 7.7036 10.3927 7.7036 10.4528 7.68073 10.507 7.64537 10.5449 7.44354 10.7492 7.28409 10.9908 7.17511 11.2553 7.06458 11.5236 7.00792 11.8109 7.00792 12.1006 7.00792 12.3902 7.06458 12.6775 7.17511 12.9458 7.28512 13.2129 7.44657 13.4564 7.65112 13.662L10.9998 17.0642 11.0079 17.0722C11.42 17.4816 11.9778 17.7143 12.5627 17.7143 13.1476 17.7143 13.7053 17.4816 14.1175 17.0722L14.1193 17.0703C14.1559 17.0338 14.201 17.0169 14.2437 17.0169 14.2862 17.0169 14.331 17.0336 14.3674 17.0697L14.3681 17.0703 16.4908 19.2043C16.5275 19.2442 16.5511 19.3007 16.5511 19.3631 16.5511 19.4249 16.5281 19.4808 16.492 19.5207L16.0007 20.0087 15.9881 20.0215C15.5741 20.4477 15.0317 20.713 14.4532 20.7777 13.8781 20.8419 13.2971 20.7045 12.8064 20.3856 9.50665 18.1218 6.66092 15.2386 4.42241 11.8899 4.1051 11.3856 3.96584 10.7837 4.0307 10.1847 4.09594 9.58216 4.36312 9.02421 4.78285 8.60344L4.79544 8.59059Z"/>
</svg>
