<svg viewBox="0 0 24 24" xmlns="http://www.w3.org/2000/svg" data-title="Calm" fill="currentColor" stroke="none">
  <path fill-rule="evenodd" d="m6.23,6.92c.67-1.15,1.76-1.64,2.93-1.33,1.17.31,2.09,1.38,2.09,2.42v.17c0,.72,0,1.07.24,1.31.08.09.19.1.45.13.32.03.75.08,1.25.41.4.26,1.6.97,2.84,1.7l.37.22c1.94,1.14,2.81,1.65,2.96,1.78.08.07.14.17.14.28,0,.11-.04.22-.12.29-.46.44-1.86,1.79-4.12,1.91-.7.04-1.49.05-2.26.05l-1.41,1.47h.76c.21,0,.37.17.37.38s-.17.38-.37.38h-4.92c-.21,0-.37-.17-.37-.38s.17-.38.37-.38h.86l1.51-1.57c-1-.17-3.67-1.38-3.67-4.27v-2.74c-.33-.18-.9-.48-1.2-.63l-.13-.07c-.05-.03-.08-.04-.08-.04-.13-.06-.21-.2-.21-.34,0-.14.08-.28.2-.34l1.53-.81Zm4.55,9.31l-1.45,1.5h1.21l1.42-1.47c-.43,0-.82-.02-1.18-.03Zm-1.81-9.9c-.51-.14-1.46-.18-2.15,1.06-.04.07-.09.12-.15.15l-.97.52c.37.19.8.42.99.53.12.07.19.19.19.33v2.96c0,2.68,2.72,3.5,3.13,3.53.42.03,1,.06,1.66.07-.79-.33-1.44-.9-1.95-1.74-.4-.65-.59-1.74-.12-2.68.2-.41.58-.87,1.27-1.16-.37-.45-.37-1.03-.37-1.74v-.17c0-.7-.69-1.45-1.53-1.68Zm7.58,6.58c-.12.54-.42,1.2-.89,1.75-.3.35-.65.62-1.02.81.2,0,.41-.01.6-.02,1.59-.08,2.68-.85,3.28-1.37-.45-.27-1.22-.73-1.97-1.17Zm-4.45-2.5c-.9.07-1.53.42-1.83,1.02-.34.67-.19,1.47.09,1.92.13.21.26.39.41.56v-.71c0-.21.17-.38.37-.38s.37.17.37.38v1.36c.17.11.36.2.56.27v-.42c0-.21.17-.38.37-.38s.37.17.37.38v.6c.16.02.32.03.49.03.85,0,1.44-.48,1.78-.88.52-.6.74-1.29.77-1.65-1.32-.77-2.64-1.55-3.07-1.84-.26-.17-.48-.23-.69-.26Zm-4.32-2.87c.21,0,.37.17.37.38s-.17.38-.37.38-.37-.17-.37-.38.17-.38.37-.38Z"/>
</svg>
