<svg viewBox="0 0 24 24" xmlns="http://www.w3.org/2000/svg" data-title="CameraOutline" fill="currentColor" stroke="none">
  <path fill-rule="evenodd" clip-rule="evenodd" d="M12.0004 9.14361C9.72753 9.14361 7.88501 11.004 7.88501 13.299C7.88501 15.5939 9.72753 17.4543 12.0004 17.4543C14.2733 17.4543 16.1158 15.5939 16.1158 13.299C16.1158 11.004 14.2733 9.14361 12.0004 9.14361ZM9.88501 13.299C9.88501 12.1193 10.8321 11.163 12.0004 11.163C13.1687 11.163 14.1158 12.1193 14.1158 13.299C14.1158 14.4786 13.1687 15.4349 12.0004 15.4349C10.8321 15.4349 9.88501 14.4786 9.88501 13.299Z"/>
  <path fill-rule="evenodd" clip-rule="evenodd" d="M9.23077 4.59985C8.91601 4.59985 8.61962 4.74949 8.43077 5.00374L6.65385 7.39597H4.38462C3.75218 7.39597 3.14564 7.64965 2.69844 8.10119C2.25124 8.55273 2 9.16516 2 9.80374V18.1921C2 18.8307 2.25124 19.4431 2.69844 19.8946C3.14564 20.3462 3.75218 20.5999 4.38462 20.5999H19.6154C20.2478 20.5999 20.8544 20.3462 21.3016 19.8946C21.7488 19.4431 22 18.8307 22 18.1921V9.80374C22 9.16516 21.7488 8.55273 21.3016 8.10119C20.8544 7.64965 20.2478 7.39597 19.6154 7.39597H17.3462L15.5692 5.00374C15.3804 4.74949 15.084 4.59985 14.7692 4.59985H9.23077ZM7.95385 9.0115L9.73077 6.61927H14.2692L16.0462 9.0115C16.235 9.26575 16.5314 9.41539 16.8462 9.41539H19.6154C19.7174 9.41539 19.8152 9.4563 19.8873 9.52913C19.9595 9.60196 20 9.70074 20 9.80374V18.1921C20 18.2951 19.9595 18.3939 19.8873 18.4667C19.8152 18.5395 19.7174 18.5804 19.6154 18.5804H4.38462C4.28261 18.5804 4.18478 18.5395 4.11265 18.4667C4.04052 18.3939 4 18.2951 4 18.1921V9.80374C4 9.70074 4.04052 9.60196 4.11265 9.52913C4.18478 9.4563 4.28261 9.41539 4.38462 9.41539H7.15385C7.4686 9.41539 7.76499 9.26575 7.95385 9.0115Z"/>
</svg>
