<svg viewBox="0 0 24 24" xmlns="http://www.w3.org/2000/svg" data-title="Capacity" fill="currentColor" stroke="none">
  <path fill-rule="evenodd" d="m19.12,10.5c.2,0,.38.17.38.38,0,.18-.13.34-.3.38h-3l-1.33,7.94c-.06.37-.56.41-.69.09l-.02-.07-1.22-5.39h-2.76l-1.01,5.38c-.03.18-.19.3-.36.3h-.07c-.18-.04-.3-.2-.3-.37v-.07s1.07-5.67,1.07-5.67c.03-.15.15-.27.29-.29h.06s3.36,0,3.36,0c.15,0,.28.09.34.23l.02.06.87,3.86,1.07-6.43c.03-.15.15-.27.29-.3h.07s3.23,0,3.23,0Zm-10.46-.75c.22,0,.34.19.34.38,0,.17-.14.38-.34.38h-3.41v4.5h.75c.24,0,.38.2.38.38v3.75c0,.19-.19.38-.38.38-.17,0-.38-.15-.38-.38v-3.38h-.75c-.23,0-.38-.19-.38-.38v-5.28c0-.17.12-.31.28-.34h.06s3.82,0,3.82,0Zm2.96-1.05c1.04,0,1.88.84,1.88,1.88s-.84,1.88-1.88,1.88-1.88-.84-1.88-1.88.84-1.88,1.88-1.88Zm0,.68c-.66,0-1.2.54-1.2,1.2s.54,1.2,1.2,1.2,1.2-.54,1.2-1.2-.54-1.2-1.2-1.2Zm5.62-4.13c1.24,0,2.25,1.01,2.25,2.25s-1.01,2.25-2.25,2.25-2.25-1.01-2.25-2.25,1.01-2.25,2.25-2.25Zm-10.5-.75c1.24,0,2.25,1.01,2.25,2.25s-1.01,2.25-2.25,2.25-2.25-1.01-2.25-2.25,1.01-2.25,2.25-2.25Zm10.5,1.5c-.83,0-1.5.67-1.5,1.5s.67,1.5,1.5,1.5,1.5-.67,1.5-1.5-.67-1.5-1.5-1.5Zm-10.5-.75c-.83,0-1.5.67-1.5,1.5s.67,1.5,1.5,1.5,1.5-.67,1.5-1.5-.67-1.5-1.5-1.5Z"/>
</svg>
