<svg viewBox="0 0 24 24" xmlns="http://www.w3.org/2000/svg" data-title="CarBrand" fill="currentColor" stroke="none">
  <path fill-rule="evenodd" d="m11.01,5c1.43,0,2.7.85,3.18,2.11l.05.15.77,2.37.39-.38c-.01-.06-.02-.13-.02-.2,0-.57.45-1.05,1.02-1.1h.11s.75,0,.75,0c.62,0,1.12.49,1.12,1.11,0,.57-.45,1.05-1.02,1.1h-.11s-.75,0-.75,0c-.27,0-.52-.09-.71-.25l-.53.52.39,1.21c2.08.04,3.77,1.75,3.85,3.89v.17s0,2.95,0,2.95c0,.18-.13.33-.29.36h-.06s-14.29,0-14.29,0c-.18,0-.32-.13-.35-.3v-.07s0-13.28,0-13.28c0-.17.13-.32.31-.35h.07s6.13,0,6.13,0Zm-3.51,11.79h-2.25v1.47h2.25v-1.47Zm8.05-4.42H5.25v1.47s1.12,0,1.12,0c.04,0,.08,0,.11.02l.05.02,1.5.74c.11.05.18.15.2.26v.07s0,3.32,0,3.32h10.5v-2.58c0-1.73-1.27-3.14-2.89-3.3h-.15s-.15-.01-.15-.01Zm.57,1.47c.58,0,1.07.44,1.12,1v.11s0,.74,0,.74c0,.57-.45,1.05-1.02,1.1h-.11s-2.25,0-2.25,0c-.58,0-1.07-.44-1.12-1v-.11s0-.74,0-.74c0-.57.45-1.05,1.02-1.1h.11s2.25,0,2.25,0Zm-9.84.74h-1.04v1.47h2.25v-.88l-1.21-.6Zm9.84,0h-2.25c-.18,0-.34.13-.37.3v.07s0,.74,0,.74c0,.18.13.33.31.36h.07s2.25,0,2.25,0c.18,0,.34-.13.37-.3v-.07s0-.74,0-.74c0-.2-.17-.37-.38-.37Zm-5.13-8.84h-5.75s0,5.89,0,5.89h1.13v-.74c0-.14.08-.27.21-.33l.06-.02,4.53-1.37c.2-.06.41.05.47.24.05.17-.03.35-.19.44l-.06.03-4.27,1.29v.47h7.72l-1.35-4.15c-.31-.95-1.18-1.62-2.21-1.73h-.15s-.14-.02-.14-.02Zm6.25,2.95h-.75c-.21,0-.38.16-.38.37,0,.18.13.33.31.36h.07s.75,0,.75,0c.21,0,.38-.16.38-.37s-.17-.37-.38-.37Z"/>
</svg>
