<svg viewBox="0 0 24 24" xmlns="http://www.w3.org/2000/svg" data-title="CarBrand" fill="currentColor" stroke="none">
  <path fill-rule="evenodd" clip-rule="evenodd" d="M11.5089 5C12.9388 5 14.2068 5.85076 14.6846 7.11239L14.7362 7.25976L15.5015 9.63474L15.8929 9.25034C15.8812 9.18619 15.875 9.12012 15.875 9.05263C15.875 8.47812 16.3212 8.00599 16.8917 7.95243L17 7.94737H17.75C18.3713 7.94737 18.875 8.44221 18.875 9.05263C18.875 9.62714 18.4288 10.0993 17.8583 10.1528L17.75 10.1579H17C16.7291 10.1579 16.4805 10.0638 16.2863 9.90703L15.7565 10.4268L16.145 11.6323C18.2273 11.6717 19.9138 13.3825 19.9968 15.519L20 15.6842V18.6316C20 18.8124 19.8737 18.9629 19.7071 18.9941L19.6429 19H5.35714C5.18181 19 5.03599 18.8697 5.00575 18.6978L5 18.6316V5.35414C5 5.18028 5.13259 5.03569 5.30744 5.00571L5.37481 5H11.5089ZM8 16.7895H5.75V18.2632H8V16.7895ZM16.0526 12.3684H5.75L5.74925 13.8421H6.875C6.91381 13.8421 6.95227 13.848 6.98902 13.8595L7.04271 13.881L8.54271 14.6178C8.64858 14.6698 8.72195 14.7671 8.74347 14.8788L8.75 14.9474V18.2632H19.25V15.6842C19.25 13.9592 17.9798 12.5418 16.3563 12.3832L16.2031 12.372L16.0526 12.3684ZM16.625 13.8421C17.2098 13.8421 17.6903 14.2804 17.7449 14.8409L17.75 14.9474V15.6842C17.75 16.2587 17.3038 16.7309 16.7333 16.7844L16.625 16.7895H14.375C13.7902 16.7895 13.3097 16.3511 13.2551 15.7907L13.25 15.6842V14.9474C13.25 14.3729 13.6962 13.9007 14.2667 13.8472L14.375 13.8421H16.625ZM6.7865 14.5789H5.75V16.0526H8V15.1751L6.7865 14.5789ZM16.625 14.5789H14.375C14.1909 14.5789 14.0378 14.7093 14.006 14.8811L14 14.9474V15.6842C14 15.8651 14.1327 16.0155 14.3076 16.0467L14.375 16.0526H16.625C16.8091 16.0526 16.9622 15.9223 16.994 15.7504L17 15.6842V14.9474C17 14.7439 16.8321 14.5789 16.625 14.5789ZM11.4974 5.73732L5.74962 5.73684V11.6316H6.875V10.8927C6.875 10.7512 6.95719 10.6242 7.08313 10.5628L7.13967 10.5406L11.673 9.1695C11.8709 9.10963 12.0808 9.21875 12.1417 9.41322C12.1959 9.58608 12.1142 9.76819 11.9563 9.84857L11.8937 9.87373L7.625 11.1644V11.6316H15.3496L14.0026 7.4779C13.6957 6.53211 12.8185 5.86015 11.7889 5.75248L11.6408 5.74097L11.4974 5.73732ZM17.75 8.68421H17C16.7929 8.68421 16.625 8.84916 16.625 9.05263C16.625 9.2335 16.7577 9.38392 16.9326 9.41512L17 9.42105H17.75C17.9571 9.42105 18.125 9.2561 18.125 9.05263C18.125 8.84916 17.9571 8.68421 17.75 8.68421Z"/>
</svg>
