<svg viewBox="0 0 24 24" xmlns="http://www.w3.org/2000/svg" data-title="CarFill" fill="currentColor" stroke="none">
  <path fill-rule="evenodd" d="m20.99,10.76l.15-.05c.12-.04.24-.11.34-.2.1-.09.18-.19.23-.31.06-.12.09-.25.09-.38,0-.13-.01-.26-.06-.38-.04-.12-.11-.24-.2-.33-.09-.1-.2-.18-.31-.23-.12-.06-.25-.09-.38-.09-.13,0-.26.01-.39.06l-1.32.46c-.1.04-.19.09-.28.15l-.62-2.49c-.21-.82-.68-1.55-1.35-2.07-.67-.52-1.5-.8-2.35-.8h-5.44c-.85,0-1.68.28-2.35.8-.67.52-1.15,1.25-1.35,2.07l-.6,2.37-1.31-.65c-.12-.07-.25-.11-.38-.12-.13-.02-.27,0-.4.04s-.25.1-.35.19c-.1.09-.19.19-.25.31-.06.12-.1.25-.11.39,0,.13.01.27.06.4.05.13.12.24.21.34.09.1.2.18.33.23l.54.27c-.34.32-.62.7-.81,1.13-.19.43-.29.89-.29,1.36v4.08c0,.7.28,1.36.78,1.85s1.16.77,1.86.77h.83c.52,0,1.03-.15,1.46-.44.43-.29.77-.69.96-1.17h8.17c.2.48.53.89.96,1.17.43.29.94.44,1.46.44h.83c.7,0,1.37-.28,1.86-.77.49-.49.77-1.16.78-1.85v-4.08c0-.46-.08-.91-.26-1.33-.17-.42-.43-.81-.75-1.13Zm-3.34,4.53h-1.4c-.26,0-.51-.1-.7-.29-.18-.18-.29-.43-.29-.69s.1-.51.29-.69c.18-.18.44-.29.7-.29h1.4c.26,0,.51.1.7.29.18.18.29.43.29.69s-.1.51-.29.69c-.18.18-.44.29-.7.29Zm-12.22-.98c0-.26.1-.51.29-.69.18-.18.44-.29.7-.29h1.4c.26,0,.51.1.7.29.18.18.29.43.29.69s-.1.51-.29.69c-.18.18-.44.29-.7.29h-1.4c-.26,0-.5-.12-.68-.3-.18-.18-.28-.43-.28-.68h-.03Zm1.89-6.84c.1-.39.33-.73.65-.98.32-.25.71-.38,1.12-.38h5.44c.4,0,.8.13,1.11.38.32.25.54.59.64.98l.59,2.35H6.76l.55-2.35Z"/>
</svg>
