<svg viewBox="0 0 24 24" xmlns="http://www.w3.org/2000/svg" data-title="CarType" fill="currentColor" stroke="none">
  <path fill-rule="evenodd" d="m19.23,16.93h0s0,.03,0,.03c0,.01,0,.02,0,.03v.03s-.02.02-.03.03c0,0-.01.02-.02.03,0,0,0,0,0,.01h0s-.02.03-.03.04l-.66.65v.59c0,.62-.51,1.12-1.14,1.12-.59,0-1.08-.45-1.14-1.02v-.11s0-.6,0-.6l-.66-.65s-.02-.02-.03-.03h0s0-.02,0-.03c0,0-.01-.02-.02-.03,0-.01-.01-.02-.01-.03,0,0,0-.02-.01-.03,0-.01,0-.02,0-.03,0,0,0,0,0-.01h0s0-.04,0-.05v-2.57s0-.03,0-.03c0-.02,0-.03,0-.05,0-.75.67-1.33,1.52-1.47v-.78h-1.2s.02,0,.02,0h.02s-.02,0-.02,0h-.01s0,0,0,0h-.03s-.02,0-.03-.01h-.03s-.02-.02-.03-.03c0,0-.02,0-.03-.02l-.03-.02h0s0,0,0,0h-.01s0-.02,0-.02h0s-.77-.76-.77-.76l-.04-.05c-.1-.15-.09-.35.04-.48.13-.13.34-.14.49-.04l.05.04.65.64h2.73l.65-.64c.15-.15.39-.15.54,0,.13.13.15.33.04.48l-.04.05-.77.76h-.01s0,.02,0,.02l.03-.03-.04.03-.03.02s-.02.01-.03.02c-.01,0-.02.01-.03.01,0,0-.02,0-.03.01-.01,0-.02,0-.04,0,0,0,0,0-.01,0h-.01s-.03,0-.04,0h-.02s-1.14,0-1.14,0v.78c.86.14,1.52.72,1.52,1.47v.05s0,.02,0,.02v2.55h0s0,.05,0,.05Zm-4.95-12.43c1.01,0,1.84.77,1.9,1.75v.12s0,3.75,0,3.75c0,.21-.17.38-.38.38-.19,0-.34-.13-.37-.31v-.07s0-1.12,0-1.12H5.52v6h8.78c.2,0,.36.17.36.38,0,.18-.13.34-.3.37h-.07s-9.15,0-9.15,0c0,0,0,0,0,0h0s-.41,0-.41,0v.75h9.58c.18,0,.33.13.36.31v.04s0,.03,0,.03v2.25c0,.18-.13.34-.31.37h-.07s-1.52,0-1.52,0c-.19,0-.34-.13-.37-.31v-.07s0-1.88,0-1.88h-4.57v1.88c0,.18-.13.34-.31.37h-.07s-1.52,0-1.52,0c-.19,0-.34-.13-.37-.31v-.07s0-1.88,0-1.88h-1.16c-.18,0-.33-.13-.36-.31v-.07s0-1.5,0-1.5c0-.18.13-.34.3-.37h.07s.4,0,.4,0V6.38c0-.99.79-1.81,1.78-1.87h.13s7.62,0,7.62,0Zm3.05,12c-.19,0-.34.13-.37.31v.07s0,1.5,0,1.5c0,.21.17.38.38.38.19,0,.34-.13.37-.31v-.07s0-1.5,0-1.5c0-.21-.17-.38-.38-.38Zm-10.29.75h-.76v1.5h.76v-1.5Zm6.86,0h-.76v1.5h.76v-1.5Zm4.57-1.8c-.32.19-.72.3-1.14.3.58,0,1.06.43,1.13.98h0s0-1.28,0-1.28Zm-2.29,0v1.27s.01.01.01.01c.07-.55.55-.98,1.13-.98-.42,0-.82-.11-1.14-.3Zm1.14-1.95c-.65,0-1.14.36-1.14.75s.49.75,1.14.75,1.14-.36,1.14-.75-.49-.75-1.14-.75Zm-9.52-3c.84,0,1.52.67,1.52,1.5s-.68,1.5-1.52,1.5-1.52-.67-1.52-1.5.68-1.5,1.52-1.5Zm5.33,0c.84,0,1.52.67,1.52,1.5s-.68,1.5-1.52,1.5-1.52-.67-1.52-1.5.68-1.5,1.52-1.5Zm-5.33.75c-.42,0-.76.34-.76.75s.34.75.76.75.76-.34.76-.75-.34-.75-.76-.75Zm5.33,0c-.42,0-.76.34-.76.75s.34.75.76.75.76-.34.76-.75-.34-.75-.76-.75Zm1.14-6h-7.62c-.59,0-1.08.45-1.14,1.02v.11s0,1.88,0,1.88h4.06l.02-.02,1.62-1.59c.15-.15.39-.15.54,0,.13.13.15.33.04.48l-.04.05-1.1,1.08h.45l.02-.02,1.62-1.59c.15-.15.39-.15.54,0,.13.13.15.33.04.48l-.04.05-1.1,1.08h3.24v-1.88c0-.58-.45-1.07-1.03-1.12h-.11Z"/>
</svg>
