<svg viewBox="0 0 24 24" xmlns="http://www.w3.org/2000/svg" data-title="CarType" fill="currentColor" stroke="none">
  <path fill-rule="evenodd" clip-rule="evenodd" d="M19.2335 17.4282L19.2339 17.4304L19.2296 17.4539C19.2271 17.4654 19.224 17.4769 19.2204 17.4883L19.2093 17.5183C19.2051 17.5284 19.2002 17.5387 19.1948 17.5488C19.1899 17.558 19.1847 17.5668 19.1793 17.5753C19.1766 17.5795 19.1736 17.5839 19.1706 17.5882L19.1607 17.6016C19.1528 17.6118 19.1444 17.6216 19.1356 17.631L18.4754 18.2803L18.4762 18.875C18.4762 19.4963 17.9645 20 17.3333 20C16.7393 20 16.2511 19.5538 16.1957 18.9833L16.1905 18.875L16.1897 18.2795L15.5311 17.631C15.5222 17.6216 15.5138 17.6118 15.506 17.6016L15.4961 17.5882C15.493 17.5839 15.4901 17.5795 15.4872 17.5751C15.4819 17.5668 15.4768 17.558 15.472 17.5491C15.4665 17.5387 15.4616 17.5284 15.4572 17.5179C15.4533 17.5085 15.4496 17.4986 15.4463 17.4884C15.4426 17.4769 15.4395 17.4654 15.437 17.4537C15.4362 17.4501 15.4354 17.4463 15.4347 17.4424L15.4325 17.4289C15.4306 17.4162 15.4294 17.4033 15.4289 17.3904L15.4286 14.8226L15.4295 14.7976C15.4289 14.7818 15.4286 14.7659 15.4286 14.75C15.4286 14.0019 16.0955 13.4154 16.9529 13.2797L16.9524 12.5H15.8095L15.7577 12.4955L15.7746 12.4984L15.7905 12.4992L15.7688 12.4979L15.757 12.4955H15.7554L15.7294 12.4917C15.7177 12.4892 15.706 12.4862 15.6945 12.4826L15.664 12.4717C15.6537 12.4675 15.6432 12.4627 15.6329 12.4574C15.6236 12.4525 15.6147 12.4475 15.6061 12.4421L15.5793 12.4238L15.5756 12.4213L15.5749 12.4205L15.5641 12.4118L15.5558 12.4047L15.5497 12.3987L14.7782 11.6402L14.7342 11.5882C14.6313 11.4421 14.646 11.24 14.7782 11.1098C14.9105 10.9797 15.1158 10.9652 15.2642 11.0664L15.317 11.1098L15.9672 11.75H18.6987L19.3497 11.1098C19.4984 10.9634 19.7397 10.9634 19.8884 11.1098C20.0207 11.24 20.0354 11.4421 19.9325 11.5882L19.8884 11.6402L19.1172 12.3991L19.1026 12.4118L19.0941 12.4183L19.1265 12.3902L19.0903 12.4205L19.0604 12.4422C19.0519 12.4475 19.0431 12.4525 19.034 12.4572C19.0234 12.4627 19.013 12.4675 19.0024 12.4718C18.9928 12.4757 18.9827 12.4793 18.9723 12.4825C18.9606 12.4862 18.9489 12.4892 18.9371 12.4917C18.9334 12.4925 18.9295 12.4933 18.9256 12.494L18.9119 12.4961C18.8989 12.498 18.8859 12.4992 18.8728 12.4997L18.8571 12.5H17.7143L17.7146 13.2798C18.5715 13.4158 19.2381 14.0022 19.2381 14.75L19.2358 14.8048L19.2381 14.8226V17.375L19.2373 17.3825L19.2335 17.4282ZM14.2857 5C15.2956 5 16.1219 5.77365 16.1864 6.75172L16.1905 6.875V10.625C16.1905 10.8321 16.0199 11 15.8095 11C15.6225 11 15.467 10.8673 15.4347 10.6924L15.4286 10.625V9.5H5.52381V15.5H14.3043C14.5044 15.5 14.6667 15.6679 14.6667 15.875C14.6667 16.0591 14.5385 16.2122 14.3695 16.244L14.3043 16.25L5.14993 16.2499C5.14758 16.25 5.14522 16.25 5.14286 16.25L5.13524 16.2493L4.72459 16.2497V16.9997L14.3043 17C14.4822 17 14.6302 17.1326 14.6608 17.3076L14.6636 17.3428L14.6667 17.375V19.625C14.6667 19.8091 14.5319 19.9622 14.3542 19.994L14.2857 20H12.7619C12.5749 20 12.4193 19.8673 12.3871 19.6924L12.381 19.625V17.7493H7.80952V19.625C7.80952 19.8091 7.67476 19.9622 7.49705 19.994L7.42857 20H5.90476C5.71774 20 5.5622 19.8673 5.52995 19.6924L5.52381 19.625V17.7493L4.36233 17.75C4.18445 17.75 4.03652 17.6173 4.00584 17.4424L4 17.375V15.875C4 15.6909 4.12817 15.5378 4.2972 15.506L4.36233 15.5H4.7619V6.875C4.7619 5.88089 5.54784 5.06747 6.54143 5.00399L6.66667 5H14.2857ZM17.3333 17C17.1463 17 16.9908 17.1327 16.9585 17.3076L16.9524 17.375V18.875C16.9524 19.0821 17.1229 19.25 17.3333 19.25C17.5204 19.25 17.6759 19.1173 17.7081 18.9424L17.7143 18.875V17.375C17.7143 17.1679 17.5437 17 17.3333 17ZM7.04762 17.75H6.28571V19.25H7.04762V17.75ZM13.9048 17.75H13.1429V19.25H13.9048V17.75ZM18.4761 15.9532C18.1552 16.141 17.7577 16.25 17.3333 16.25C17.9145 16.25 18.3943 16.677 18.4667 17.2297L18.4754 17.2197L18.4761 15.9532ZM16.1898 15.9528L16.1897 17.219L16.1999 17.2297C16.2723 16.677 16.7522 16.25 17.3333 16.25C16.9086 16.25 16.5109 16.1409 16.1898 15.9528ZM17.3333 14C16.6822 14 16.1905 14.3631 16.1905 14.75C16.1905 15.1369 16.6822 15.5 17.3333 15.5C17.9844 15.5 18.4762 15.1369 18.4762 14.75C18.4762 14.3631 17.9844 14 17.3333 14ZM7.80952 11C8.6511 11 9.33333 11.6716 9.33333 12.5C9.33333 13.3284 8.6511 14 7.80952 14C6.96795 14 6.28571 13.3284 6.28571 12.5C6.28571 11.6716 6.96795 11 7.80952 11ZM13.1429 11C13.9844 11 14.6667 11.6716 14.6667 12.5C14.6667 13.3284 13.9844 14 13.1429 14C12.3013 14 11.619 13.3284 11.619 12.5C11.619 11.6716 12.3013 11 13.1429 11ZM7.80952 11.75C7.38874 11.75 7.04762 12.0858 7.04762 12.5C7.04762 12.9142 7.38874 13.25 7.80952 13.25C8.23031 13.25 8.57143 12.9142 8.57143 12.5C8.57143 12.0858 8.23031 11.75 7.80952 11.75ZM13.1429 11.75C12.7221 11.75 12.381 12.0858 12.381 12.5C12.381 12.9142 12.7221 13.25 13.1429 13.25C13.5636 13.25 13.9048 12.9142 13.9048 12.5C13.9048 12.0858 13.5636 11.75 13.1429 11.75ZM14.2857 5.75H6.66667C6.07261 5.75 5.58442 6.19617 5.52904 6.76666L5.52381 6.875V8.75H9.58552L9.60271 8.73116L11.219 7.14017C11.3677 6.99372 11.6089 6.99372 11.7577 7.14017C11.8899 7.27034 11.9046 7.47241 11.8018 7.61856L11.7577 7.6705L10.6598 8.75H11.1093L11.1265 8.73116L12.7428 7.14017C12.8915 6.99372 13.1327 6.99372 13.2815 7.14017C13.4137 7.27034 13.4284 7.47241 13.3256 7.61856L13.2815 7.6705L12.1836 8.75H15.4286V6.875C15.4286 6.29023 14.9753 5.80966 14.3958 5.75515L14.2857 5.75Z"/>
</svg>
