<svg viewBox="0 0 24 24" xmlns="http://www.w3.org/2000/svg" data-title="CarWarrantyOutline" fill="currentColor" stroke="none">
  <path d="m12,2c-.25,0-.48.08-.66.26-.18.18-.27.4-.27.66v2.66c0,.25.09.46.26.64.18.19.41.28.66.28s.49-.09.66-.28c.17-.18.26-.39.26-.64v-2.66c0-.25-.09-.48-.27-.66h0c-.18-.18-.4-.26-.66-.26Zm-5.05,2.13c-.25,0-.47.08-.65.25h0s0,.01,0,.01c-.16.18-.25.4-.25.65s.08.46.25.64h0s1.45,1.43,1.45,1.43c.17.17.4.25.65.25s.47-.08.65-.25h0s0-.01,0-.01c.16-.18.25-.4.25-.65s-.08-.46-.25-.64h0s-1.45-1.43-1.45-1.43c-.17-.17-.4-.25-.65-.25Zm10.1,0c-.25,0-.47.08-.65.25l-1.45,1.42h0c-.16.19-.25.4-.25.65s.08.46.25.65h0s0,.01,0,.01c.17.17.4.25.65.25s.47-.08.65-.25l1.45-1.42h0c.16-.19.25-.4.25-.65s-.08-.46-.25-.65h0s0-.01,0-.01c-.17-.17-.4-.25-.65-.25ZM7.9,15.05c-.38,0-.72.14-1,.42-.28.28-.42.62-.42,1.01s.15.71.42.99c.28.28.62.42,1.02.42s.72-.14,1-.42c.28-.28.42-.62.42-1.01s-.15-.71-.42-.99c-.28-.28-.62-.42-1.02-.42Zm8.19,0c-.38,0-.72.14-1,.41-.28.28-.43.62-.43,1.01s.15.71.42.99c.28.28.62.42,1.02.42s.72-.14,1-.42c.28-.28.42-.62.42-1.01s-.15-.71-.42-.99c-.28-.28-.62-.42-1.02-.42Z"/>
  <path fill-rule="evenodd" d="m7.15,8.2c-.27,0-.52.07-.74.22-.23.15-.38.36-.46.62l-1.86,5.2v6.85c0,.25.09.48.27.66.18.18.4.26.66.26h.56c.24,0,.46-.09.64-.25.19-.18.28-.4.28-.66v-.86h11.01v.86c0,.26.09.49.28.66.18.17.4.25.64.25h.56c.25,0,.48-.08.66-.26h0c.18-.18.27-.4.27-.66v-6.85l-1.86-5.2c-.08-.24-.23-.45-.44-.6-.21-.16-.46-.24-.72-.24H7.15Zm-.57,4.5l.97-2.67h8.9l.97,2.67H6.58Zm-.65,5.7v-3.87h12.13v3.87H5.93Z"/>
</svg>
