<svg viewBox="0 0 24 24" xmlns="http://www.w3.org/2000/svg" data-title="CarWarrantyFill" fill="currentColor" stroke="none">
  <path fill-rule="evenodd" clip-rule="evenodd" d="M8.68015 5.61907L7.18995 4.16411C7.06577 4.04287 6.90278 3.98224 6.70098 3.98224C6.49918 3.98224 6.33619 4.04287 6.21201 4.16411C6.08783 4.30052 6.02574 4.46359 6.02574 4.65334C6.02574 4.84249 6.08783 5.00526 6.21201 5.14166L7.70221 6.59662C7.82639 6.71787 7.98938 6.77849 8.19118 6.77849C8.39297 6.77849 8.55596 6.71787 8.68015 6.59662C8.80433 6.46022 8.86642 6.29714 8.86642 6.10739C8.86642 5.91825 8.80433 5.75547 8.68015 5.61907ZM16.1311 6.59662L17.6213 5.14166C17.7455 5.00526 17.8076 4.84249 17.8076 4.65334C17.8076 4.46359 17.7455 4.30052 17.6213 4.16411C17.4971 4.04287 17.3341 3.98224 17.1324 3.98224C16.9306 3.98224 16.7676 4.04287 16.6434 4.16411L15.1532 5.61907C15.029 5.75547 14.9669 5.91825 14.9669 6.10739C14.9669 6.29714 15.029 6.46022 15.1532 6.59662C15.2774 6.71787 15.4404 6.77849 15.6422 6.77849C15.844 6.77849 16.0069 6.71787 16.1311 6.59662ZM12.6152 5.20986V2.48182C12.6152 2.28479 12.5494 2.12171 12.4177 1.99259C12.2855 1.86407 12.1185 1.7998 11.9167 1.7998C11.7149 1.7998 11.5482 1.86407 11.4165 1.99259C11.2843 2.12171 11.2181 2.28479 11.2181 2.48182V5.20986C11.2181 5.39173 11.2843 5.55087 11.4165 5.68727C11.5482 5.82367 11.7149 5.89188 11.9167 5.89188C12.1185 5.89188 12.2855 5.82367 12.4177 5.68727C12.5494 5.55087 12.6152 5.39173 12.6152 5.20986ZM4.19838 21.607C4.33002 21.7355 4.49673 21.7998 4.69853 21.7998H5.28064C5.46691 21.7998 5.6299 21.7355 5.76961 21.607C5.90931 21.4779 5.97917 21.3148 5.97917 21.1178V19.9811H17.8542V21.1178C17.8542 21.3148 17.924 21.4779 18.0637 21.607C18.2034 21.7355 18.3664 21.7998 18.5527 21.7998H19.1348C19.3366 21.7998 19.5036 21.7355 19.6359 21.607C19.7675 21.4779 19.8333 21.3148 19.8333 21.1178V14.1385L17.924 8.84158C17.8619 8.64455 17.7415 8.48147 17.5626 8.35235C17.3844 8.22383 17.1867 8.15956 16.9694 8.15956H6.91054C6.6777 8.15956 6.46814 8.22019 6.28186 8.34143C6.09559 8.46268 5.97141 8.6294 5.90931 8.84158L4 14.1385V21.1178C4 21.3148 4.06613 21.4779 4.19838 21.607ZM17.8774 12.7745H5.95588L7.14338 9.52359H16.69L17.8774 12.7745ZM7.70218 17.5713C8.02816 17.5713 8.3113 17.4537 8.5516 17.2185C8.79251 16.9838 8.91297 16.6998 8.91297 16.3664C8.91297 16.0481 8.79251 15.7717 8.5516 15.5371C8.3113 15.3018 8.0204 15.1842 7.6789 15.1842C7.35292 15.1842 7.06978 15.3018 6.82949 15.5371C6.58857 15.7717 6.46812 16.0557 6.46812 16.3891C6.46812 16.7074 6.58857 16.9838 6.82949 17.2185C7.06978 17.4537 7.36068 17.5713 7.70218 17.5713ZM16.1544 17.5713C16.4804 17.5713 16.7635 17.4537 17.0038 17.2185C17.2447 16.9838 17.3652 16.6998 17.3652 16.3664C17.3652 16.0481 17.2447 15.7717 17.0038 15.5371C16.7635 15.3018 16.4726 15.1842 16.1311 15.1842C15.8051 15.1842 15.522 15.3018 15.2817 15.5371C15.0408 15.7717 14.9203 16.0557 14.9203 16.3891C14.9203 16.7074 15.0408 16.9838 15.2817 17.2185C15.522 17.4537 15.8129 17.5713 16.1544 17.5713Z"/>
</svg>
