<svg viewBox="0 0 24 24" xmlns="http://www.w3.org/2000/svg" data-title="CarWarrantyFill" fill="currentColor" stroke="none">
  <path fill-rule="evenodd" d="m8.76,5.82l-1.49-1.45c-.12-.12-.29-.18-.49-.18s-.36.06-.49.18c-.12.14-.19.3-.19.49s.06.35.19.49l1.49,1.45c.12.12.29.18.49.18s.36-.06.49-.18c.12-.14.19-.3.19-.49s-.06-.35-.19-.49Zm7.45.98l1.49-1.45c.12-.14.19-.3.19-.49s-.06-.35-.19-.49c-.12-.12-.29-.18-.49-.18s-.36.06-.49.18l-1.49,1.45c-.12.14-.19.3-.19.49s.06.35.19.49c.12.12.29.18.49.18s.36-.06.49-.18Zm-3.52-1.39v-2.73c0-.2-.07-.36-.2-.49-.13-.13-.3-.19-.5-.19s-.37.06-.5.19c-.13.13-.2.29-.2.49v2.73c0,.18.07.34.2.48.13.14.3.2.5.2s.37-.07.5-.2c.13-.14.2-.3.2-.48ZM4.28,21.81c.13.13.3.19.5.19h.58c.19,0,.35-.06.49-.19.14-.13.21-.29.21-.49v-1.14h11.88v1.14c0,.2.07.36.21.49.14.13.3.19.49.19h.58c.2,0,.37-.06.5-.19.13-.13.2-.29.2-.49v-6.98l-1.91-5.3c-.06-.2-.18-.36-.36-.49-.18-.13-.38-.19-.59-.19H6.99c-.23,0-.44.06-.63.18-.19.12-.31.29-.37.5l-1.91,5.3v6.98c0,.2.07.36.2.49Zm13.68-8.83H6.04l1.19-3.25h9.55l1.19,3.25Zm-10.18,4.8c.33,0,.61-.12.85-.35.24-.23.36-.52.36-.85s-.12-.59-.36-.83c-.24-.24-.53-.35-.87-.35s-.61.12-.85.35c-.24.23-.36.52-.36.85s.12.59.36.83c.24.24.53.35.87.35Zm8.45,0c.33,0,.61-.12.85-.35.24-.23.36-.52.36-.85s-.12-.59-.36-.83c-.24-.24-.53-.35-.87-.35s-.61.12-.85.35c-.24.23-.36.52-.36.85s.12.59.36.83c.24.24.53.35.87.35Z"/>
</svg>
