<svg viewBox="0 0 24 24" xmlns="http://www.w3.org/2000/svg" data-title="CarWarrantyOutline" fill="currentColor" stroke="none">
  <path d="M11.9167 1.7998C11.6632 1.7998 11.4373 1.88336 11.2587 2.05889 11.0793 2.23517 10.9917 2.46026 10.9917 2.71477V5.37461C10.9917 5.61986 11.0829 5.83644 11.2535 6.01369 11.4311 6.19891 11.6586 6.28957 11.9167 6.28957 12.1747 6.28957 12.4027 6.19851 12.5807 6.01369 12.7508 5.83628 12.8416 5.61968 12.8416 5.37461V2.71477C12.8416 2.46064 12.7546 2.23567 12.576 2.0593L12.5751 2.05848C12.3961 1.88335 12.1701 1.7998 11.9167 1.7998ZM6.86461 3.92768C6.61566 3.92768 6.39169 4.0049 6.21747 4.17613L6.21224 4.18126 6.20732 4.1867C6.0441 4.36716 5.96218 4.58671 5.96218 4.832 5.96218 5.07693 6.04425 5.29612 6.20732 5.47642L6.21224 5.48186 7.66092 6.90558C7.83514 7.0768 8.05911 7.15402 8.30806 7.15402 8.557 7.15402 8.78097 7.0768 8.95519 6.90558L8.96042 6.90044 8.96534 6.895C9.12856 6.71454 9.21048 6.495 9.21048 6.2497 9.21048 6.00478 9.12841 5.78559 8.96534 5.60529L8.96042 5.59985 7.51175 4.17613C7.33753 4.0049 7.11356 3.92768 6.86461 3.92768ZM16.9687 3.92768C16.7198 3.92768 16.4958 4.0049 16.3216 4.17613L14.8729 5.59985 14.868 5.60529C14.7049 5.78559 14.6229 6.00478 14.6229 6.2497 14.6229 6.495 14.7048 6.71454 14.868 6.895L14.8729 6.90044 14.8781 6.90558C15.0524 7.0768 15.2763 7.15402 15.5253 7.15402 15.7742 7.15402 15.9982 7.0768 16.1724 6.90558L17.6211 5.48186 17.626 5.47642C17.7891 5.29612 17.8712 5.07693 17.8712 4.832 17.8712 4.58671 17.7892 4.36716 17.626 4.1867L17.6211 4.18126 17.6159 4.17613C17.4416 4.0049 17.2177 3.92768 16.9687 3.92768ZM7.81187 14.8497C7.42902 14.8497 7.09309 14.9915 6.8156 15.2648 6.53485 15.5401 6.39071 15.8814 6.39071 16.2744 6.39071 16.6564 6.53703 16.9889 6.81537 17.2617 7.09535 17.5376 7.43982 17.677 7.83442 17.677 8.21734 17.677 8.55332 17.5352 8.83084 17.2618 9.1115 16.9865 9.25559 16.6453 9.25559 16.2523 9.25559 15.8704 9.10926 15.5379 8.83092 15.265 8.55095 14.9892 8.20648 14.8497 7.81187 14.8497ZM15.9989 14.8497C15.6161 14.8497 15.2802 14.9914 15.0028 15.2647 14.7219 15.54 14.5777 15.8813 14.5777 16.2744 14.5777 16.6564 14.7241 16.9889 15.0024 17.2617 15.2824 17.5376 15.6269 17.677 16.0215 17.677 16.4044 17.677 16.7404 17.5352 17.018 17.2617 17.2986 16.9864 17.4426 16.6453 17.4426 16.2523 17.4426 15.8704 17.2963 15.5379 17.018 15.265 16.738 14.9892 16.3935 14.8497 15.9989 14.8497Z"/>
  <path fill-rule="evenodd" clip-rule="evenodd" d="M7.06759 8.00057C6.79636 8.00057 6.54587 8.07245 6.32315 8.21837C6.09554 8.3675 5.9394 8.57665 5.86169 8.83756L4 14.0364V20.8848C4 21.1393 4.08764 21.3644 4.26702 21.5407C4.44562 21.7162 4.67155 21.7998 4.92498 21.7998H5.48883C5.73285 21.7998 5.95084 21.7123 6.13104 21.5454C6.31924 21.3703 6.41381 21.1438 6.41381 20.8848V20.0266H17.4195V20.8848C17.4195 21.1438 17.5145 21.3707 17.7027 21.5458C17.8829 21.7127 18.1005 21.7998 18.3445 21.7998H18.9084C19.1618 21.7998 19.3878 21.7163 19.5668 21.5411L19.5676 21.5403C19.7463 21.3639 19.8333 21.139 19.8333 20.8848V14.0364L17.9708 8.83526C17.893 8.5906 17.7427 8.38982 17.5308 8.23577C17.3164 8.08011 17.0741 8.00057 16.8108 8.00057H7.06759ZM6.49803 12.5001L7.46683 9.83049H16.3665L17.3353 12.5001H6.49803ZM5.84996 18.1966V14.3301H17.9834V18.1966H5.84996Z"/>
</svg>
