<svg viewBox="0 0 24 24" xmlns="http://www.w3.org/2000/svg" data-title="CategoriesClothes" fill="currentColor" stroke="none">
  <path fill-rule="evenodd" d="m6.18,1.5c-.32,0-.62.13-.84.35L.35,6.92c-.22.23-.35.53-.35.86s.13.63.35.86l3.33,3.38c.36.36.88.45,1.31.26v7.33c0,.77.3,1.51.84,2.05.54.54,1.26.85,2.02.85h8.31c.76,0,1.48-.31,2.02-.85.54-.54.84-1.28.84-2.05v-7.33c.43.19.96.11,1.31-.26l3.33-3.38c.22-.23.35-.53.35-.86s-.13-.63-.35-.86l-4.99-5.07c-.22-.23-.53-.35-.84-.35H6.18Zm-3.3,6.28l3.8-3.86h10.65l3.8,3.86-1.64,1.67-.82-.83c-.34-.35-.85-.45-1.3-.26-.44.19-.74.63-.74,1.12v10.13c0,.13-.05.25-.14.34-.09.09-.21.14-.33.14H7.84c-.13,0-.25-.05-.33-.14-.09-.09-.14-.21-.14-.34v-10.13c0-.49-.29-.93-.74-1.12-.45-.19-.96-.08-1.3.26l-.82.83-1.64-1.67Z"/>
</svg>
