<svg viewBox="0 0 24 24" xmlns="http://www.w3.org/2000/svg" data-title="ChargesIncluded" fill="currentColor" stroke="none">
  <path fill-rule="evenodd" d="m7.84,6c1.79.02,3.38,1.15,3.98,2.82.58,1.61.13,3.41-1.13,4.56l-.14.13c-.38.39-.61.89-.66,1.43,0,.02,0,.05,0,.07,0,.04,0,.07-.01.1v2.53c-.01.2-.17.35-.37.36h-3.42c-.21,0-.38-.17-.38-.38v-2.61c-.03-.61-.3-1.17-.77-1.57-1.34-1.18-1.8-3.06-1.15-4.72.64-1.66,2.26-2.74,4.05-2.72Zm8.37.41c.11,0,.22.05.3.13.17.21,4,4.94,4,7.19,0,2.35-1.92,4.26-4.29,4.26-2.37,0-4.29-1.91-4.3-4.26,0-2.29,3.84-6.99,4-7.19.08-.08.18-.13.3-.13Zm-7.08,8.97h-2.65v1.85h2.65v-1.85Zm7.08-7.96c-1.21,1.52-3.53,4.82-3.53,6.34.09,1.87,1.64,3.34,3.53,3.34s3.44-1.47,3.53-3.34c0-1.55-2.35-4.82-3.52-6.34Zm2.61,6.36c.21.05.34.27.29.48-.23,1.18-1.28,2.04-2.49,2.03h-.19c-.14-.01-.26-.1-.31-.22-.06-.12-.04-.27.04-.38.08-.11.21-.17.35-.16.9.06,1.7-.57,1.84-1.46.05-.21.27-.34.48-.29ZM7.85,6.78c-1.46-.02-2.79.86-3.32,2.21-.54,1.35-.17,2.89.92,3.86.53.46.88,1.09.99,1.77h.47s0-3.88,0-3.88c0-.21.17-.38.38-.38.21,0,.38.17.38.38v3.88s.24,0,.24,0v-3.88c0-.21.17-.38.38-.38s.38.17.38.38v3.88s.49,0,.49,0c.11-.64.42-1.23.89-1.69,1.12-.94,1.54-2.46,1.05-3.83-.49-1.37-1.78-2.29-3.25-2.32Z"/>
</svg>
