<svg viewBox="0 0 24 24" xmlns="http://www.w3.org/2000/svg" data-title="Class" fill="currentColor" stroke="none">
  <path fill-rule="evenodd" clip-rule="evenodd" d="M18.6176 16.2526C18.8288 16.2526 19 16.4175 19 16.621V18.8315C19 19.035 18.8288 19.2 18.6176 19.2H6.38235C6.17119 19.2 6 19.035 6 18.8315V16.621C6 16.4175 6.17119 16.2526 6.38235 16.2526H18.6176ZM18.2353 16.9894H6.76471V18.4631H18.2353V16.9894ZM17.0882 12.5684C17.2994 12.5684 17.4706 12.7333 17.4706 12.9368V15.1473C17.4706 15.3508 17.2994 15.5157 17.0882 15.5157H6.38235C6.17119 15.5157 6 15.3508 6 15.1473V12.9368C6 12.7333 6.17119 12.5684 6.38235 12.5684H17.0882ZM16.7059 13.3052H6.76471V14.7789H16.7059V13.3052ZM15.5588 8.88416C15.77 8.88416 15.9412 9.04911 15.9412 9.25258V11.4631C15.9412 11.6666 15.77 11.8315 15.5588 11.8315H6.38235C6.17119 11.8315 6 11.6666 6 11.4631V9.25258C6 9.04911 6.17119 8.88416 6.38235 8.88416H15.5588ZM15.1765 9.621H6.76471V11.0947H15.1765V9.621ZM14.0294 5.19995C14.2406 5.19995 14.4118 5.3649 14.4118 5.56837V7.7789C14.4118 7.98237 14.2406 8.14732 14.0294 8.14732H6.38235C6.17119 8.14732 6 7.98237 6 7.7789V5.56837C6 5.3649 6.17119 5.19995 6.38235 5.19995H14.0294ZM13.6471 5.93679H6.76471V7.41048H13.6471V5.93679Z"/>
</svg>
