<svg viewBox="0 0 24 24" xmlns="http://www.w3.org/2000/svg" data-title="Clean" fill="currentColor" stroke="none">
  <path fill-rule="evenodd" d="m13.26,4.94c.43,0,.79.34.79.75v.62c0,.41-.35.75-.79.75h-1.56s0,.01,0,.01c.07.52.21,1.02.42,1.5.05.09.07.19.05.29-.03.1-.09.18-.18.23-.06.04-.14.06-.21.05-.14,0-.27-.07-.34-.18-.21-.45-.36-.93-.46-1.41-.2.26-.48.43-.81.5v.78c.42.14.73.51.77.95v.11s0,.41,0,.41c.84.15,1.49.79,1.55,1.58v.12s0,6.25,0,6.25c0,.92-.8,1.67-1.82,1.73h-.13s-3.12,0-3.12,0c-1.03,0-1.88-.72-1.94-1.62v-.11s0-6.25,0-6.25c0-.84.67-1.54,1.56-1.7v-.41c0-.49.32-.9.78-1.06v-.77c-.23-.03-.44-.15-.59-.34-.17-.21-.23-.49-.16-.75l.34-1.21c.13-.49.6-.84,1.13-.84h4.71Zm-3.48,6.08h-1.57s0,0,0,0h-.04s-.74,0-.74,0c-.61,0-1.11.41-1.16.93v.1s0,6.17,0,6.17c0,.53.46.97,1.06,1.02h.11s3.12,0,3.12,0c.61,0,1.11-.41,1.16-.93v-.1s0-6.17,0-6.17c0-.57-.52-1.03-1.17-1.03h-.74s-.04,0-.04,0h0Zm-2.34,2.99c.19,0,.35.13.38.31v.07s0,2.99,0,2.99c0,.21-.17.37-.39.37-.19,0-.35-.13-.38-.31v-.07s0-2.99,0-2.99c0-.21.17-.37.39-.37Zm0-2.24c.19,0,.35.13.38.31v.07s0,.75,0,.75c0,.21-.17.37-.39.37-.19,0-.35-.13-.38-.31v-.07s0-.75,0-.75c0-.21.17-.37.39-.37Zm2.34-2.24h-1.56c-.19,0-.35.13-.38.31v.07s0,.37,0,.37h2.34v-.37c0-.18-.14-.34-.32-.37h-.07Zm-.39-1.44h-.78v.69h.78v-.69Zm7.81-.98l.94.2c.22.02.37.21.35.42-.02.21-.22.36-.44.33v-.02h-.09l-.94-.21c-.1-.02-.19-.08-.24-.16-.05-.08-.07-.19-.05-.28.02-.1.08-.18.17-.24.09-.05.19-.07.29-.05Zm-2.1-.49l.94.2c.22.02.37.21.35.42-.02.21-.22.36-.44.33l-.04.02h-.09l-.9-.23c-.22-.05-.35-.25-.3-.46.05-.21.27-.34.48-.29Zm-5.19.67c.21,0,.4-.06.49-.23.23-.43.69-.7,1.2-.71h1.66v-.62l-4.71-.03c-.18,0-.33.11-.38.28l-.32,1.21s-.02.07,0,.1h2.06Zm5.98-1.66c.22,0,.39.17.39.38s-.18.38-.39.38h-.97c-.22,0-.39-.17-.39-.38s.18-.38.39-.38h.97Zm2.18,0c.22,0,.39.17.39.38s-.18.38-.39.38h-.95c-.22,0-.39-.17-.39-.38s.18-.38.39-.38h.95Zm-1.77-.89c.02.1,0,.2-.05.28-.06.08-.15.14-.25.17l-.94.2-.09.02c-.22.02-.41-.13-.44-.33-.02-.21.13-.39.35-.42l.95-.21c.21-.04.42.09.46.29Zm1.98-.68c.09.05.15.14.17.23.02.1,0,.2-.05.28-.06.08-.15.14-.25.17l-.94.2h-.09c-.18.01-.34-.11-.38-.29-.03-.1,0-.2.05-.28.05-.08.14-.14.24-.16l.94-.2c.1-.02.21,0,.3.04Z"/>
</svg>
