<svg viewBox="0 0 24 24" xmlns="http://www.w3.org/2000/svg" data-title="ClothesCondition" fill="currentColor" stroke="none">
  <path fill-rule="evenodd" clip-rule="evenodd" d="M10.25 19.6118C10.25 19.8262 10.0821 20 9.875 20C9.69091 20 9.53779 19.8627 9.50604 19.6816L9.5 19.6118V18.5H8.97431C7.65491 18.5 6.57671 17.5773 6.50392 16.4147L6.5 16.2893V14.7493L5.3882 14.75C5.1738 14.75 5 14.5821 5 14.375C5 14.1909 5.13733 14.0378 5.31842 14.006L5.3882 14L6.5 13.9993V12.4992L5.3882 12.5C5.1738 12.5 5 12.3321 5 12.125C5 11.9409 5.13733 11.7878 5.31842 11.756L5.3882 11.75L6.5 11.7492V10.2492L5.3882 10.25C5.1738 10.25 5 10.0821 5 9.875C5 9.69091 5.13733 9.53779 5.31842 9.50604L5.3882 9.5L6.5 9.49925V8.71071C6.5 7.53187 7.5327 6.56853 8.8339 6.5035L8.97431 6.5H9.5V5.3882C9.5 5.1738 9.66789 5 9.875 5C10.0591 5 10.2122 5.13733 10.244 5.31842L10.25 5.3882V6.5H11.75V5.3882C11.75 5.1738 11.9179 5 12.125 5C12.3091 5 12.4622 5.13733 12.494 5.31842L12.5 5.3882V6.5H14V5.3882C14 5.1738 14.1679 5 14.375 5C14.5591 5 14.7122 5.13733 14.744 5.31842L14.75 5.3882V6.5H16.0257C17.3451 6.5 18.4233 7.42269 18.4961 8.58526L18.5 8.71071V9.5H19.611C19.8258 9.5 20 9.66789 20 9.875C20 10.0591 19.8624 10.2122 19.6809 10.244L19.611 10.25H18.5V11.75H19.611C19.8258 11.75 20 11.9179 20 12.125C20 12.3091 19.8624 12.4622 19.6809 12.494L19.611 12.5H18.5V14H19.611C19.8258 14 20 14.1679 20 14.375C20 14.5591 19.8624 14.7122 19.6809 14.744L19.611 14.75H18.5V16.2893C18.5 17.4681 17.4673 18.4315 16.1661 18.4965L16.0257 18.5H14.75V19.6118C14.75 19.8262 14.5821 20 14.375 20C14.1909 20 14.0378 19.8627 14.006 19.6816L14 19.6118V18.5H12.5V19.6118C12.5 19.8262 12.3321 20 12.125 20C11.9409 20 11.7878 19.8627 11.756 19.6816L11.75 19.6118V18.5H10.25V19.6118ZM9.5 7.24925L8.94689 7.25C8.00972 7.25 7.25 7.91799 7.25 8.74199V9.49925L8.3618 9.5C8.5762 9.5 8.75 9.66789 8.75 9.875C8.75 10.0591 8.61267 10.2122 8.43158 10.244L8.3618 10.25L7.25 10.2492V11.7492L8.3618 11.75C8.5762 11.75 8.75 11.9179 8.75 12.125C8.75 12.3091 8.61267 12.4622 8.43158 12.494L8.3618 12.5L7.25 12.4992V13.9993L8.3618 14C8.5762 14 8.75 14.1679 8.75 14.375C8.75 14.5591 8.61267 14.7122 8.43158 14.744L8.3618 14.75L7.25 14.7493V16.258C7.25 17.0462 7.9451 17.6916 8.8257 17.7463L8.94689 17.75L9.5 17.7493V16.6382C9.5 16.4238 9.66789 16.25 9.875 16.25C10.0591 16.25 10.2122 16.3873 10.244 16.5684L10.25 16.6382V17.7493H11.75V16.6382C11.75 16.4238 11.9179 16.25 12.125 16.25C12.3091 16.25 12.4622 16.3873 12.494 16.5684L12.5 16.6382V17.7493H14V16.6382C14 16.4238 14.1679 16.25 14.375 16.25C14.5591 16.25 14.7122 16.3873 14.744 16.5684L14.75 16.6382V17.7493L16.0531 17.75C16.9495 17.75 17.6836 17.1388 17.7457 16.3646L17.75 16.258V14.75H16.639C16.4242 14.75 16.25 14.5821 16.25 14.375C16.25 14.1909 16.3876 14.0378 16.5691 14.006L16.639 14H17.75V12.5H16.639C16.4242 12.5 16.25 12.3321 16.25 12.125C16.25 11.9409 16.3876 11.7878 16.5691 11.756L16.639 11.75H17.75V10.25H16.639C16.4242 10.25 16.25 10.0821 16.25 9.875C16.25 9.69091 16.3876 9.53779 16.5691 9.50604L16.639 9.5H17.75V8.74199C17.75 7.95382 17.0549 7.30838 16.1743 7.25375L16.0531 7.25L14.75 7.24925V8.3618C14.75 8.5762 14.5821 8.75 14.375 8.75C14.1909 8.75 14.0378 8.61267 14.006 8.43158L14 8.3618V7.24925H12.5V8.3618C12.5 8.5762 12.3321 8.75 12.125 8.75C11.9409 8.75 11.7878 8.61267 11.756 8.43158L11.75 8.3618V7.24925H10.25V8.3618C10.25 8.5762 10.0821 8.75 9.875 8.75C9.69091 8.75 9.53779 8.61267 9.50604 8.43158L9.5 8.3618V7.24925Z"/>
</svg>
