<svg viewBox="0 0 24 24" xmlns="http://www.w3.org/2000/svg" data-title="ClothesBrand" fill="currentColor" stroke="none">
  <path fill-rule="evenodd" clip-rule="evenodd" d="M17.9145 5C18.5027 5 19 5.49729 19 6.08621V11.6724C19 11.9347 18.8714 12.2318 18.6719 12.4305L11.4302 19.6712C11.2565 19.8766 10.972 20 10.6727 20C10.4104 20 10.1134 19.8714 9.91458 19.6712L4.32883 14.0857C4.11158 13.9002 4 13.6446 4 13.3276C4 13.066 4.12858 12.769 4.32883 12.5702L11.5706 5.32808C11.756 5.11084 12.011 5 12.328 5H17.9145ZM17.9145 5.81281H12.328C12.2208 5.81281 12.1817 5.84089 12.1543 5.88227L4.89783 13.1399C4.83206 13.1857 4.81211 13.233 4.81211 13.3276C4.81211 13.434 4.84019 13.4746 4.88157 13.502L10.4562 19.1022C10.5057 19.151 10.5789 19.1798 10.6572 19.1798C10.737 19.1798 10.8102 19.151 10.8612 19.1022L18.1022 11.8608C18.1679 11.815 18.1886 11.7677 18.1886 11.6724V6.08621C18.1886 5.94064 18.0601 5.81281 17.9145 5.81281ZM9.87334 9.81788C9.98049 9.81788 10.0817 9.86074 10.1593 9.93906L14.061 13.8413C14.1401 13.9189 14.1837 14.0201 14.1837 14.1258C14.1837 14.2322 14.1401 14.3334 14.061 14.411C13.9723 14.4997 13.8519 14.5314 13.7765 14.5314C13.6945 14.5314 13.5748 14.4945 13.4913 14.4117L9.59032 10.5095C9.51052 10.4312 9.4684 10.3292 9.46913 10.2235C9.46913 10.1179 9.51126 10.0167 9.59032 9.93906C9.66644 9.86148 9.76767 9.81862 9.87334 9.81788ZM10.9385 8.72399C11.045 8.72399 11.1462 8.76685 11.2238 8.84591L15.1255 12.7474C15.203 12.8242 15.2466 12.9255 15.2466 13.0311C15.2474 13.1375 15.2045 13.2395 15.1255 13.3171C15.0419 13.4006 14.9222 13.4383 14.841 13.4383C14.7582 13.4383 14.6385 13.4006 14.5557 13.3171L10.654 9.41635C10.5742 9.33729 10.5321 9.23606 10.5328 9.12965C10.5328 9.02473 10.575 8.9235 10.654 8.84517C10.7316 8.76685 10.8329 8.72399 10.9385 8.72399ZM14.6151 7.6035C15.0983 7.11951 15.9097 7.11951 16.4233 7.60202C16.6664 7.87837 16.7831 8.17394 16.7831 8.51015C16.7831 8.86409 16.656 9.18626 16.4255 9.41606C16.1624 9.64734 15.8417 9.77369 15.5203 9.77369C15.1611 9.77369 14.8478 9.6503 14.6151 9.41606C14.383 9.15227 14.2567 8.83158 14.2567 8.51015C14.2567 8.15547 14.3838 7.8333 14.6151 7.6035ZM15.4907 8.05941C15.4131 8.05941 15.2919 8.09709 15.184 8.20424C15.0909 8.27591 15.0392 8.38601 15.0392 8.51015C15.0392 8.62246 15.0828 8.71409 15.184 8.81606C15.3703 8.97788 15.6585 8.9801 15.8232 8.81902C15.9053 8.70818 15.9422 8.61433 15.9422 8.51015C15.9422 8.39783 15.8986 8.30621 15.7966 8.20424C15.7242 8.10892 15.5853 8.05941 15.4907 8.05941Z"/>
</svg>
