<svg viewBox="0 0 24 24" xmlns="http://www.w3.org/2000/svg" data-title="ClothesBrand" fill="currentColor" stroke="none">
  <path fill-rule="evenodd" d="m18.41,4.5c.59,0,1.09.5,1.09,1.09v5.59c0,.26-.13.56-.33.76l-7.24,7.24c-.17.21-.46.33-.76.33-.26,0-.56-.13-.76-.33l-5.59-5.59c-.22-.19-.33-.44-.33-.76,0-.26.13-.56.33-.76l7.24-7.24c.19-.22.44-.33.76-.33h5.59Zm0,.81h-5.59c-.11,0-.15.03-.17.07l-7.26,7.26c-.07.05-.09.09-.09.19,0,.11.03.15.07.17l5.57,5.6s.12.08.2.08.15-.03.2-.08l7.24-7.24c.07-.05.09-.09.09-.19v-5.59c0-.15-.13-.27-.27-.27Zm-8.04,4.01c.11,0,.21.04.29.12l3.9,3.9c.08.08.12.18.12.28s-.04.21-.12.29c-.09.09-.21.12-.28.12-.08,0-.2-.04-.29-.12l-3.9-3.9c-.08-.08-.12-.18-.12-.29,0-.11.04-.21.12-.28.08-.08.18-.12.28-.12Zm1.07-1.09c.11,0,.21.04.29.12l3.9,3.9c.08.08.12.18.12.28,0,.11-.04.21-.12.29-.08.08-.2.12-.28.12s-.2-.04-.29-.12l-3.9-3.9c-.08-.08-.12-.18-.12-.29,0-.1.04-.21.12-.28.08-.08.18-.12.28-.12Zm3.68-1.12c.48-.48,1.29-.48,1.81,0,.24.28.36.57.36.91,0,.35-.13.68-.36.91-.26.23-.58.36-.91.36-.36,0-.67-.12-.91-.36-.23-.26-.36-.58-.36-.91,0-.35.13-.68.36-.91Zm.88.46c-.08,0-.2.04-.31.14-.09.07-.14.18-.14.31,0,.11.04.2.14.31.19.16.47.16.64,0,.08-.11.12-.2.12-.31,0-.11-.04-.2-.15-.31-.07-.1-.21-.14-.31-.14Z"/>
</svg>
