<svg viewBox="0 0 24 24" xmlns="http://www.w3.org/2000/svg" data-title="Clothes" fill="currentColor" stroke="none">
  <path fill-rule="evenodd" clip-rule="evenodd" d="M18.8461 12.0571C19.0437 12.0571 19.2092 12.2054 19.2288 12.4001L19.9981 20.0191C20.0178 20.2142 19.8848 20.3921 19.6908 20.4306L15.8451 21.1925C15.6438 21.2324 15.4464 21.1086 15.3966 20.9114L15 19.3424L14.6039 20.9113C14.5596 21.0867 14.3987 21.204 14.2221 21.1998L14.1553 21.1925L10.3092 20.4306C10.1152 20.3922 9.98223 20.2142 10.0019 20.0191L10.7712 12.4001C10.7908 12.2054 10.9563 12.0571 11.1539 12.0571H18.8461ZM17.0327 14.3427H13.4285C13.2614 15.5316 12.5281 16.1945 11.3054 16.2445L11.1552 16.2468L10.8016 19.7508L13.9462 20.3732L14.6269 17.6789C14.7175 17.3199 15.2044 17.2959 15.3479 17.6071L15.3731 17.6789L16.0531 20.374L19.1977 19.7508L18.8404 16.2165C17.8068 16.0721 17.1849 15.4256 17.0327 14.3427ZM13.4612 5.19995C13.4648 5.19995 13.4684 5.2 13.4719 5.20009L13.494 5.20128L13.5088 5.20267C13.524 5.20444 13.5388 5.20705 13.5533 5.21043L13.5624 5.21337L17.7935 6.35623C17.9598 6.40116 18.073 6.54889 18.0768 6.71475L18.073 6.77763L17.6884 9.44429C17.6647 9.6085 17.5375 9.73576 17.3779 9.76501L17.3077 9.77136H16.1538V10.9142C16.1538 11.1012 16.0178 11.2568 15.8384 11.289L15.7692 11.2952C15.5804 11.2952 15.4234 11.1604 15.3908 10.9827L15.3846 10.9142V9.39041C15.3846 9.20339 15.5207 9.04785 15.7001 9.0156L15.7692 9.00946H16.9738L17.2638 7.00261L13.583 6.00833L11.8644 7.82556C11.7315 7.96601 11.5174 7.98395 11.3639 7.87771L11.3094 7.83205L9.49925 6.00681L5.81234 7.00261L6.10234 9.0087L7.30772 9.00946C7.49653 9.00946 7.65357 9.14422 7.68614 9.32193L7.69233 9.39041V15.8658L9.23079 15.8666C9.4196 15.8666 9.57664 16.0013 9.6092 16.1791L9.6154 16.2475C9.6154 16.4345 9.47934 16.5901 9.29992 16.6223L9.23079 16.6285H7.30772C7.1189 16.6285 6.96187 16.4937 6.9293 16.316L6.9231 16.2475V9.7706L5.76926 9.77136C5.60178 9.77136 5.45661 9.66463 5.40479 9.51222L5.38851 9.44429L5.0039 6.77763C4.97952 6.60857 5.0715 6.44704 5.22367 6.37773L5.28345 6.35623L9.5142 5.21337C9.55047 5.20383 9.58213 5.19995 9.6154 5.19995L9.56825 5.203L9.58253 5.20128C9.58985 5.20065 9.59715 5.20023 9.60443 5.20002L9.6154 5.19995H13.4612ZM12.6511 14.3422L11.3473 14.342L11.2318 15.4833L11.2896 15.4827C12.0848 15.4473 12.5177 15.0908 12.6511 14.3422ZM18.6508 14.342L17.8101 14.3422C17.9183 14.9497 18.2238 15.299 18.7601 15.428L18.6508 14.342ZM18.4977 12.8182H11.5015L11.4237 13.5801H18.5743L18.4977 12.8182ZM12.5739 5.96185H10.5323L11.5769 7.0148L12.5739 5.96185Z"/>
</svg>
