<svg viewBox="0 0 24 24" xmlns="http://www.w3.org/2000/svg" data-title="ClothesCondition" fill="currentColor" stroke="none">
  <path fill-rule="evenodd" d="m9.75,19.11c0,.21-.17.39-.38.39-.18,0-.34-.14-.37-.32v-.07s0-1.11,0-1.11h-.53c-1.32,0-2.4-.92-2.47-2.09v-.13s0-1.54,0-1.54h-1.11c-.21,0-.39-.17-.39-.37,0-.18.14-.34.32-.37h.07s1.11,0,1.11,0v-1.5h-1.11c-.21,0-.39-.17-.39-.37,0-.18.14-.34.32-.37h.07s1.11,0,1.11,0v-1.5h-1.11c-.21,0-.39-.17-.39-.37,0-.18.14-.34.32-.37h.07s1.11,0,1.11,0v-.79c0-1.18,1.03-2.14,2.33-2.21h.14s.53,0,.53,0v-1.11c0-.21.17-.39.38-.39.18,0,.34.14.37.32v.07s0,1.11,0,1.11h1.5v-1.11c0-.21.17-.39.38-.39.18,0,.34.14.37.32v.07s0,1.11,0,1.11h1.5v-1.11c0-.21.17-.39.38-.39.18,0,.34.14.37.32v.07s0,1.11,0,1.11h1.28c1.32,0,2.4.92,2.47,2.09v.13s0,.79,0,.79h1.11c.21,0,.39.17.39.38,0,.18-.14.34-.32.37h-.07s-1.11,0-1.11,0v1.5h1.11c.21,0,.39.17.39.38,0,.18-.14.34-.32.37h-.07s-1.11,0-1.11,0v1.5h1.11c.21,0,.39.17.39.38,0,.18-.14.34-.32.37h-.07s-1.11,0-1.11,0v1.54c0,1.18-1.03,2.14-2.33,2.21h-.14s-1.28,0-1.28,0v1.11c0,.21-.17.39-.38.39-.18,0-.34-.14-.37-.32v-.07s0-1.11,0-1.11h-1.5v1.11c0,.21-.17.39-.38.39-.18,0-.34-.14-.37-.32v-.07s0-1.11,0-1.11h-1.5v1.11Zm-.75-12.36h-.55c-.94,0-1.7.67-1.7,1.49v.76h1.11c.21,0,.39.17.39.38,0,.18-.14.34-.32.37h-.07s-1.11,0-1.11,0v1.5h1.11c.21,0,.39.17.39.38,0,.18-.14.34-.32.37h-.07s-1.11,0-1.11,0v1.5h1.11c.21,0,.39.17.39.38,0,.18-.14.34-.32.37h-.07s-1.11,0-1.11,0v1.51c0,.79.7,1.43,1.58,1.49h.12s.55,0,.55,0v-1.11c0-.21.17-.39.38-.39.18,0,.34.14.37.32v.07s0,1.11,0,1.11h1.5v-1.11c0-.21.17-.39.38-.39.18,0,.34.14.37.32v.07s0,1.11,0,1.11h1.5v-1.11c0-.21.17-.39.38-.39.18,0,.34.14.37.32v.07s0,1.11,0,1.11h1.3c.9,0,1.63-.61,1.69-1.38v-.11s0-1.51,0-1.51h-1.11c-.21,0-.39-.17-.39-.38,0-.18.14-.34.32-.37h.07s1.11,0,1.11,0v-1.5h-1.11c-.21,0-.39-.17-.39-.38,0-.18.14-.34.32-.37h.07s1.11,0,1.11,0v-1.5h-1.11c-.21,0-.39-.17-.39-.38,0-.18.14-.34.32-.37h.07s1.11,0,1.11,0v-.76c0-.79-.7-1.43-1.58-1.49h-.12s-1.3,0-1.3,0v1.11c0,.21-.17.39-.38.39-.18,0-.34-.14-.37-.32v-.07s0-1.11,0-1.11h-1.5v1.11c0,.21-.17.39-.38.39-.18,0-.34-.14-.37-.32v-.07s0-1.11,0-1.11h-1.5v1.11c0,.21-.17.39-.38.39-.18,0-.34-.14-.37-.32v-.07s0-1.11,0-1.11Z"/>
</svg>
