<svg viewBox="0 0 24 24" xmlns="http://www.w3.org/2000/svg" data-title="Clothes" fill="currentColor" stroke="none">
  <path fill-rule="evenodd" d="m18.35,10.86c.2,0,.36.15.38.34l.77,7.62c.02.2-.11.37-.31.41l-3.85.76c-.2.04-.4-.08-.45-.28l-.4-1.57-.4,1.57c-.04.18-.21.29-.38.29h-.07s-3.85-.77-3.85-.77c-.19-.04-.33-.22-.31-.41l.77-7.62c.02-.19.19-.34.38-.34h7.69Zm-1.81,2.29h-3.6c-.17,1.19-.9,1.85-2.12,1.9h-.15s-.35,3.51-.35,3.51l3.14.62.68-2.69c.09-.36.58-.38.72-.07l.03.07.68,2.7,3.14-.62-.36-3.53c-1.03-.14-1.66-.79-1.81-1.87Zm-3.57-9.14s0,0,.01,0h.02s.01,0,.01,0c.02,0,.03,0,.04,0h0s4.23,1.15,4.23,1.15c.17.04.28.19.28.36v.06s-.39,2.67-.39,2.67c-.02.16-.15.29-.31.32h-.07s-1.15,0-1.15,0v1.14c0,.19-.14.34-.32.37h-.07c-.19,0-.35-.13-.38-.31v-.07s0-1.52,0-1.52c0-.19.14-.34.32-.37h.07s1.2,0,1.2,0l.29-2.01-3.68-.99-1.72,1.82c-.13.14-.35.16-.5.05l-.05-.05-1.81-1.83-3.69,1,.29,2.01h1.21c.19,0,.35.14.38.31v.07s0,6.48,0,6.48h1.54c.19,0,.35.14.38.31v.07c0,.19-.13.34-.31.37h-.07s-1.92,0-1.92,0c-.19,0-.35-.13-.38-.31v-.07s0-6.48,0-6.48h-1.15c-.17,0-.31-.11-.36-.26l-.02-.07-.38-2.67c-.02-.17.07-.33.22-.4l.06-.02,4.23-1.14s.07-.01.1-.01h-.05s.01,0,.01,0c0,0,.01,0,.02,0h.01s3.85,0,3.85,0Zm-.81,9.14h-1.3s-.12,1.14-.12,1.14h.06c.8-.04,1.23-.39,1.36-1.14Zm6,0h-.84c.11.61.41.96.95,1.09l-.11-1.09Zm-.15-1.52h-7l-.08.76h7.15l-.08-.76Zm-5.92-6.86h-2.04l1.04,1.05,1-1.05Z"/>
</svg>
