<svg viewBox="0 0 24 24" xmlns="http://www.w3.org/2000/svg" data-title="Common" fill="currentColor" stroke="none">
  <path fill-rule="evenodd" clip-rule="evenodd" d="M19.3948 5.07868C19.559 4.95184 19.7938 4.98129 19.9213 5.14587C20.048 5.31122 20.018 5.54753 19.8545 5.67588L13.5951 10.5645H19.625C19.832 10.5645 20 10.7336 20 10.942C20 11.1503 19.832 11.3195 19.625 11.3195H12.8954V18.245H13.1459C13.1744 18.245 13.1999 18.2556 13.2261 18.2609C13.2531 18.2556 13.2786 18.245 13.3071 18.245H17.7763V12.3644C17.7763 12.1552 17.9443 11.9869 18.1513 11.9869H19.625C19.832 11.9869 20 12.1552 20 12.3644C20 12.5727 19.832 12.7419 19.625 12.7419H18.5263V18.245H19.625C19.832 18.245 20 18.4134 20 18.6225C20 18.8309 19.832 19 19.625 19H13.3071C13.2786 19 13.2531 18.9894 13.2261 18.9834C13.1999 18.9894 13.1744 19 13.1459 19H5.37532C5.16758 19 5.00033 18.8309 5.00033 18.6225C5.00033 18.4134 5.16758 18.245 5.37532 18.245H6.4733V12.7419H5.37532C5.16758 12.7419 5.00033 12.5727 5.00033 12.3644C5.00033 12.1552 5.16758 11.9869 5.37532 11.9869H6.84829C7.05604 11.9869 7.22328 12.1552 7.22328 12.3644V18.245H12.1049V11.3195H5.37532C5.16758 11.3195 5.00033 11.1503 5.00033 10.942C5.00033 10.7336 5.16758 10.5645 5.37532 10.5645H11.4052L5.14508 5.67588C4.98158 5.54753 4.95158 5.31122 5.07908 5.14587C5.20583 4.98129 5.44132 4.95184 5.60482 5.07868L8.81475 7.58601V7.04091C8.81475 6.83253 8.98274 6.66341 9.18974 6.66341H11.4907C11.6984 6.66341 11.8657 6.83253 11.8657 7.04091V9.96877L12.5002 10.4633L19.3948 5.07868ZM10.8453 11.9867C11.0522 11.9867 11.2202 12.1558 11.2202 12.3642V15.9753C11.4115 15.9927 11.563 16.149 11.563 16.346C11.563 16.5552 11.395 16.7235 11.188 16.7235H8.20081C7.99382 16.7235 7.82582 16.5552 7.82582 16.346C7.82582 16.149 7.97731 15.9927 8.16931 15.9753V12.3642C8.16931 12.1558 8.33656 11.9867 8.5443 11.9867H10.8453ZM16.5369 11.9867C16.7439 11.9867 16.9119 12.1558 16.9119 12.3642V15.9753C17.1031 15.9927 17.2546 16.149 17.2546 16.346C17.2546 16.5552 17.0874 16.7235 16.8796 16.7235H13.8932C13.6854 16.7235 13.5182 16.5552 13.5182 16.346C13.5182 16.1497 13.6697 15.9927 13.8609 15.9753V12.3642C13.8609 12.1558 14.0282 11.9867 14.2359 11.9867H16.5369ZM10.4703 12.7417H8.91929V15.9686H10.4703V12.7417ZM16.1619 12.7417H14.6109V15.9686H16.1619V12.7417ZM11.1157 7.4184H9.56473V8.17113L11.1157 9.38365V7.4184Z"/>
</svg>
