<svg viewBox="0 0 24 24" xmlns="http://www.w3.org/2000/svg" data-title="Common" fill="currentColor" stroke="none">
  <path fill-rule="evenodd" clip-rule="evenodd" d="M19.3948 5.27863C19.559 5.15179 19.7938 5.18124 19.9213 5.34583C20.048 5.51117 20.018 5.74748 19.8545 5.87583L13.5951 10.7644H19.625C19.832 10.7644 20 10.9335 20 11.1419C20 11.3503 19.832 11.5194 19.625 11.5194H12.8954V18.445H13.1459C13.1744 18.445 13.1999 18.4555 13.2261 18.4608C13.2531 18.4555 13.2786 18.445 13.3071 18.445H17.7763V12.5643C17.7763 12.3552 17.9443 12.1868 18.1513 12.1868H19.625C19.832 12.1868 20 12.3552 20 12.5643C20 12.7727 19.832 12.9418 19.625 12.9418H18.5263V18.445H19.625C19.832 18.445 20 18.6133 20 18.8225C20 19.0308 19.832 19.2 19.625 19.2H13.3071C13.2786 19.2 13.2531 19.1894 13.2261 19.1833C13.1999 19.1894 13.1744 19.2 13.1459 19.2H5.37532C5.16758 19.2 5.00033 19.0308 5.00033 18.8225C5.00033 18.6133 5.16758 18.445 5.37532 18.445H6.4733V12.9418H5.37532C5.16758 12.9418 5.00033 12.7727 5.00033 12.5643C5.00033 12.3552 5.16758 12.1868 5.37532 12.1868H6.84829C7.05604 12.1868 7.22328 12.3552 7.22328 12.5643V18.445H12.1049V11.5194H5.37532C5.16758 11.5194 5.00033 11.3503 5.00033 11.1419C5.00033 10.9335 5.16758 10.7644 5.37532 10.7644H11.4052L5.14508 5.87583C4.98158 5.74748 4.95158 5.51117 5.07908 5.34583C5.20583 5.18124 5.44132 5.15179 5.60482 5.27863L8.81475 7.78596V7.24086C8.81475 7.03248 8.98274 6.86336 9.18974 6.86336H11.4907C11.6984 6.86336 11.8657 7.03248 11.8657 7.24086V10.1687L12.5002 10.6632L19.3948 5.27863ZM10.8453 12.1867C11.0522 12.1867 11.2202 12.3558 11.2202 12.5642V16.1753C11.4115 16.1927 11.563 16.3489 11.563 16.546C11.563 16.7551 11.395 16.9235 11.188 16.9235H8.20081C7.99382 16.9235 7.82582 16.7551 7.82582 16.546C7.82582 16.3489 7.97731 16.1927 8.16931 16.1753V12.5642C8.16931 12.3558 8.33656 12.1867 8.5443 12.1867H10.8453ZM16.5369 12.1867C16.7439 12.1867 16.9119 12.3558 16.9119 12.5642V16.1753C17.1031 16.1927 17.2546 16.3489 17.2546 16.546C17.2546 16.7551 17.0874 16.9235 16.8796 16.9235H13.8932C13.6854 16.9235 13.5182 16.7551 13.5182 16.546C13.5182 16.3497 13.6697 16.1927 13.8609 16.1753V12.5642C13.8609 12.3558 14.0282 12.1867 14.2359 12.1867H16.5369ZM10.4703 12.9417H8.91929V16.1685H10.4703V12.9417ZM16.1619 12.9417H14.6109V16.1685H16.1619V12.9417ZM11.1157 7.61836H9.56473V8.37108L11.1157 9.5836V7.61836Z"/>
</svg>
