<svg viewBox="0 0 24 24" xmlns="http://www.w3.org/2000/svg" data-title="CountryOutline" fill="currentColor" stroke="none">
  <path d="m21.39,16.16c-.15-.22-.38-.37-.68-.45-.08-.07-.08-.22-.15-.37l.15-.15c.3-.45.3-.97,0-1.35.08-.3.08-.6-.08-.9l-.46-.9c-.08-.08-.15-.22-.23-.3.53,0,.99-.37,1.14-.9l.23-.82c.08-.22.08-.37,0-.6-.15-.45.23-1.12.46-1.5.23-.3.3-.75.15-1.12-.15-.37-.46-.67-.84-.75l-1.37-.3-1.6-.6-1.29-1.05c-.3-.3-.76-.37-1.22-.22-.15.07-.46-.3-.53-.45-.08-.07-.15-.22-.23-.3l-.91-.82c-.3-.3-.84-.37-1.29-.22l-1.29.52c-.53.22-.84.75-.76,1.27.08.6-.38.82-.68.9-.3.07-.61.22-.76.45-.08-.3-.46-.52-.84-.6l-1.22-.07c-.38,0-.76.15-1.06.45-.23.37-.3.82-.08,1.2v.07c-.15-.07-.3-.07-.46-.07s-.3,0-2.59.52c-.53.15-.91.6-.91,1.12v.9c0,.3.08.52.23.75l.38.52c.15.22.38.37.68.45l1.37.3.68.67.08.45c.08.22.15.45.3.6l.84.82c.15,2.92-.91,4.49-.91,4.49-.38.52-.3,1.2.23,1.65l1.37,1.12c.15.15.3.22.53.22l1.82.37c.3.07.53,0,.76-.07l1.9.82c.15.07.3.07.46.07h.23l1.14-.22c.3-.07.61-.22.76-.52.15-.3.23-.6.15-.97-.08-.15-.08-.3,0-.37.08-.07.23-.22.38-.3l2.05.75c.3.07.53.07.84,0l1.44-.52c.15-.07.3-.15.38-.22l1.37-1.27c.46-.37.53-1.05.15-1.57l-.23-.6Zm-1.82-6.44l-.08.22h-.08c-.3,0-.68.15-.84.45l-.84,1.57c-.15.3-.15.67.08.97.23.3.53.37.91.37l.08.07c-.23.37-.23.82.08,1.12l.08.07v.07c-.15.15-.15.37-.15.6.08,1.05.53,1.87,1.14,2.17l-.84.75-1.06.37-2.13-.82c-.15-.07-.38-.07-.61,0-.38.07-1.22.45-1.67,1.2-.15.22-.3.67-.3,1.12l-.38.07-2.13-.9c-.15-.07-.23-.07-.38-.07s-.3.07-.46.15l-.15.07-1.44-.3-.84-.67c.46-.82,1.22-2.7.91-5.54,0-.22-.08-.37-.23-.52l-.91-.9-.08-.52c0-.22-.15-.37-.3-.52l-1.14-.97c-.08-.07-.23-.15-.38-.22l-1.44-.45-.15-.15v-.22c.91-.22,1.37-.3,1.52-.37.08.07.23.15.46.37.15.15.38.22.61.22h.91c.23,0,.53-.07.68-.3.15-.07.3-.37.23-.6l-.08-.67c.08.07.15.15.3.22.91.3,1.67.22,2.13-.3.15-.15.23-.3.23-.52.91-.3,1.67-1.12,1.75-2.25l.53-.22.46.52c.53.82,1.37,1.42,2.36,1.27l1.14.9c.08.07.15.15.23.15l1.9.67h.08l.61.15c-.23.6-.46,1.35-.3,2.1Z"/>
</svg>
