<svg viewBox="0 0 24 24" xmlns="http://www.w3.org/2000/svg" data-title="CountryFill" fill="currentColor" stroke="none">
  <path d="m21.33,16.39c-.16-.23-.39-.31-.62-.38-.08-.08-.16-.31-.23-.69l.16-.23c.23-.38.23-.85-.08-1.23.08-.23.08-.54,0-.85l-.47-.92c-.08-.15-.16-.23-.31-.38l.16-.31h.16c.47,0,.85-.31.93-.69l.23-.85c.08-.15.08-.38,0-.54-.16-.62.31-1.46.54-1.77.23-.31.23-.62.16-.92-.16-.31-.39-.54-.7-.62l-1.48-.23-1.63-.62-1.32-1.08c-.31-.23-.62-.31-1.01-.15-.39.15-.85-.62-.85-.62-.08-.08-.08-.15-.16-.23l-.93-.85c-.31-.23-.7-.31-1.09-.15l-1.32.54c-.39.15-.62.62-.62,1,.08.85-.7,1.08-.93,1.15-.39.08-.7.38-.78.77l-.16-.38c-.16-.31-.47-.46-.85-.54l-1.16-.08c-.31,0-.7.15-.85.38-.23.31-.23.69-.08,1l.31.77c-.47-.38-.7-.46-1.01-.46-.16,0-.23,0-2.56.62-.47.08-.78.46-.78.85v.92c0,.23.08.46.23.62l.39.54c.16.15.31.31.54.38l1.48.31.85.77.08.54c0,.23.16.38.23.54l.85.92c.23,3.15-.93,4.85-.93,4.85-.31.38-.23,1,.16,1.38l1.4,1.15c.16.08.31.15.47.23l1.86.38c.23.08.47,0,.7-.15l2.02.85c.16.08.23.08.39.08h.16l1.16-.23c.23-.08.54-.23.62-.46.16-.23.16-.54.08-.77-.08-.38,0-.54,0-.62.08-.15.31-.31.54-.38l2.17.77c.23.08.47.08.7,0l1.48-.54c.16-.08.23-.08.31-.23l1.4-1.31c.39-.31.39-.92.16-1.31l-.16-.54Z"/>
</svg>
