<svg viewBox="0 0 24 24" xmlns="http://www.w3.org/2000/svg" data-title="Cylindrical" fill="currentColor" stroke="none">
  <path fill-rule="evenodd" d="m15.25,5.06l5.08,3.42c.09.06.14.14.16.24.02.1,0,.2-.07.28l-1.38,1.92c.06.05.09.12.11.19.02.1,0,.2-.06.28-.07.1-.19.16-.31.16-.06,0-.11-.01-.17-.04l-.21.29c.1.1.14.24.09.38-.05.16-.2.26-.37.26-.05,0-.11-.01-.15-.03l-.54.75c-.04.06-.1.11-.17.13l-1.83,5.43c-.05.14-.18.25-.33.26h-6.18c-.17,0-.32-.11-.37-.26l-1.84-5.44s-.09-.07-.12-.11l-.56-.77h0c-.05.03-.11.04-.17.04-.17,0-.32-.1-.37-.26-.05-.14,0-.29.11-.39l-.21-.28h0c-.05.03-.11.04-.17.04-.13,0-.25-.06-.32-.16-.06-.08-.08-.18-.06-.28.02-.08.06-.15.12-.2l-1.38-1.91c-.06-.08-.08-.18-.07-.28.02-.1.08-.19.16-.24l5.08-3.42c.09-.05.19-.07.29-.06.1.02.19.08.26.16l1.38,1.91h.01c.07-.04.16-.05.24-.04.1.02.19.07.25.15.11.16.08.37-.06.5l.2.28h.01c.1-.05.22-.06.33,0,.13.06.21.17.23.31.01.12-.04.23-.13.31l.23.32.23-.32h-.02c-.13-.14-.15-.34-.04-.49.11-.16.33-.2.5-.12l.21-.28h-.01c-.13-.14-.15-.34-.05-.49.06-.08.15-.14.25-.15.09-.01.17,0,.25.04l1.38-1.9c.06-.08.15-.14.26-.16.1-.01.2,0,.29.06Zm-3.25,4.94l-.62.41-3.9,2.73,1.76,5.1h5.58l1.73-5.1-3.73-2.59-.82-.55Zm0,2c1.29,0,2.33,1.01,2.33,2.25s-1.04,2.25-2.33,2.25-2.33-1.01-2.33-2.25,1.04-2.25,2.33-2.25Zm0,.75c-.86,0-1.55.67-1.55,1.5s.7,1.5,1.55,1.5,1.55-.67,1.55-1.5-.7-1.5-1.55-1.5Zm.87-3.75l-.33.45.05.03,4.4,2.96.33-.45-4.45-2.99Zm-1.74,0l-4.45,2.99.33.45,4.4-2.97.04-.03-.33-.45Zm2.39-.89l-.2.28,4.45,3,.2-.28-4.45-3Zm-3.03,0l-4.45,2.99.2.28,4.45-3-.2-.27Zm-1.6-2.21l-4.46,2.99,1.16,1.6,4.45-3-1.15-1.6Zm6.22,0l-1.15,1.6,4.45,3,1.16-1.6-4.46-2.99Z"/>
</svg>
