<svg viewBox="0 0 24 24" xmlns="http://www.w3.org/2000/svg" data-title="DeliveryFill" fill="currentColor" stroke="none">
  <path d="M10.9062 15.9597H16.8813C18.156 15.9597 19.112 14.9197 19.112 13.7197V7.79972C19.112 6.51972 18.0763 5.55972 16.8813 5.55972H10.9062C9.63152 5.55972 8.6755 6.59972 8.6755 7.79972V13.7197C8.59584 14.9997 9.63152 15.9597 10.9062 15.9597Z"/>
  <path d="M14.8893 12.6797H13.535C12.9773 12.6797 12.579 12.2797 12.579 11.7197C12.579 11.2397 12.9773 10.7597 13.535 10.7597H14.8893C15.447 10.7597 15.8453 11.1597 15.8453 11.7197C15.7657 12.2797 15.3673 12.6797 14.8893 12.6797Z"/>
  <path d="M21.668 20.4497L20.0083 18.783C19.5934 18.3664 19.0124 18.1164 18.3485 18.1164H8.72199C8.55602 17.4497 8.22407 16.8664 7.72614 16.4497C7.47718 16.1997 7.14523 16.033 6.73029 15.8664V4.61637C6.73029 4.03304 6.48133 3.36637 6.06639 2.94971C5.56846 2.44971 4.98755 2.19971 4.32365 2.19971H2.99585C2.41494 2.19971 2 2.69971 2 3.19971C2 3.69971 2.41494 4.19971 2.99585 4.19971H4.40664C4.48963 4.19971 4.6556 4.28304 4.6556 4.28304C4.73859 4.36637 4.73859 4.44971 4.73859 4.53304V15.533C4.07469 15.6997 3.41079 16.033 2.99585 16.4497C2.41494 17.1164 2 17.9497 2 18.8664C2 19.6997 2.33195 20.6164 2.91286 21.1997C3.57676 21.783 4.40664 22.1997 5.3195 22.1997C6.23237 22.1997 7.06224 21.9497 7.72614 21.3664C8.14108 21.033 8.47303 20.533 8.639 20.033H18.3485C18.4315 20.033 18.5145 20.033 18.5975 20.1164L20.2573 21.783C20.6722 22.1997 21.2531 22.1997 21.668 21.783C21.834 21.6164 22 21.3664 22 21.1164C21.917 20.8664 21.834 20.6164 21.668 20.4497Z"/>
</svg>
