<svg viewBox="0 0 24 24" xmlns="http://www.w3.org/2000/svg" data-title="DeliveryFastOutline" fill="currentColor" stroke="none">
  <path fill-rule="evenodd" d="m10.62,17.27c-1.31,0-2.37,1.06-2.37,2.37s1.06,2.37,2.37,2.37,2.37-1.06,2.37-2.37-1.06-2.37-2.37-2.37Zm6.25,0c-1.31,0-2.37,1.06-2.37,2.37s1.06,2.37,2.37,2.37,2.37-1.06,2.37-2.37-1.06-2.37-2.37-2.37Zm-11.19-5.16c-.57-.46-1.02-1.03-1.32-1.7-.3-.67-.43-1.39-.39-2.12.04-.73.25-1.43.62-2.06s.87-1.16,1.49-1.55c.61-.39,1.31-.63,2.03-.7.72-.07,1.45.03,2.13.3.67.27,1.27.69,1.76,1.24.47.55.82,1.2.99,1.91.13.53.66.84,1.18.71.52-.13.84-.66.71-1.18-.25-1.01-.73-1.94-1.42-2.72-.68-.78-1.54-1.39-2.51-1.78-.97-.39-2.02-.53-3.05-.43s-2.02.44-2.9,1c-.87.56-1.6,1.32-2.12,2.22-.52.9-.82,1.91-.87,2.94-.06,1.03.14,2.07.57,3.02.42.95,1.07,1.78,1.87,2.43.42.33,1.03.27,1.37-.15.33-.43.27-1.03-.15-1.38Z"/>
  <path fill-rule="evenodd" d="m9.93,5.77l-2.08,2.08c-.38.38-.38,1,0,1.38.38.38,1,.38,1.38,0l2.08-2.08c.38-.38.38-1,0-1.38-.38-.38-1-.38-1.38,0Zm11.39,5.24c-.44-.44-1.04-.69-1.67-.69h-6.94c-.62,0-1.22.25-1.67.69-.45.44-.69,1.04-.69,1.68v.43h-1.11c-.99,0-1.95.39-2.66,1.1-.7.7-1.1,1.66-1.1,2.66v2.78c0,.54.43.98.97.98s.97-.43.97-.98v-2.78c0-.48.19-.93.52-1.28.34-.34.8-.52,1.27-.52h1.11v.42c0,.54.43.98.98.98s.97-.43.97-.98v-2.79c0-.11.04-.22.12-.29.08-.07.18-.12.29-.12h6.94c.11,0,.22.04.29.12.08.08.12.18.12.29v6.94c0,.54.43.98.97.98s.97-.43.97-.98v-6.94c0-.63-.25-1.23-.69-1.68h0Z"/>
</svg>
