<svg viewBox="0 0 24 24" xmlns="http://www.w3.org/2000/svg" data-title="DeliveryTruckFill" fill="currentColor" stroke="none">
  <path d="M20.96 8.03211C20.32 7.3282 19.36 7.01535 18.48 7.01535H16.08C15.6 7.01535 15.28 7.3282 15.28 7.79747V14.7248H16.24C17.52 14.8031 18.64 15.6634 19.04 16.8366 19.12 17.1494 19.2 17.4623 19.2 17.7751 19.2 17.8533 19.2 17.8533 19.2 17.9316 19.2 18.2444 19.12 18.479 19.12 18.7137H21.04C21.6 18.7137 22 18.3226 22 17.7751V10.5349C22 9.59635 21.6 8.73602 20.96 8.03211ZM12.96 16.6019C13.2 16.1327 13.52 15.7416 13.92 15.4288 14.24 15.1941 14.56 15.0377 14.88 14.8813V6.54608C14.88 5.92038 14.64 5.37289 14.16 4.90362 13.76 4.51256 13.12 4.19971 12.48 4.19971H4.32C3.68 4.27792 3.12 4.51256 2.64 4.90362 2.24 5.37289 2 5.92038 2 6.54608V17.9316C2 18.479 2.4 18.8701 2.96 18.8701H3.92C3.84 18.5572 3.76 18.2444 3.76 17.9316 3.76 17.6187 3.84 17.3059 3.92 16.993 4.32 15.6634 5.52 14.6466 7.04 14.6466 8.64 14.6466 9.92 15.7416 10.24 17.1494 10.32 17.3841 10.32 17.6187 10.32 17.8533 10.32 18.088 10.32 18.3226 10.24 18.5572H12.72C12.64 18.3226 12.64 18.088 12.64 17.8533 12.64 17.6187 12.64 17.3841 12.72 17.1494 12.8 16.993 12.88 16.8366 12.96 16.6019Z"/>
  <path d="M17.84 16.8366C17.52 16.2891 16.96 15.898 16.24 15.8198 16.16 15.8198 16.08 15.8198 15.92 15.8198 15.52 15.8198 15.12 15.898 14.8 16.1327 14.32 16.3673 14 16.7584 13.84 17.3059 13.84 17.3841 13.76 17.5405 13.76 17.6187 13.76 17.7751 13.76 17.8533 13.76 18.0098 13.76 18.1662 13.76 18.2444 13.76 18.4008 13.76 18.5572 13.84 18.7919 13.92 18.9483 14.24 19.6522 15.04 20.1997 15.92 20.1997 16.8 20.1997 17.6 19.6522 17.92 18.8701 18 18.6355 18.08 18.3226 18.08 18.088 18.08 18.0098 18.08 18.0098 18.08 17.9316 18.08 17.4623 18 17.1494 17.84 16.8366ZM7.04 15.7416C6.08 15.7416 5.28 16.3673 4.96 17.2276 4.88 17.4623 4.88 17.6969 4.88 17.8533 4.88 18.088 4.96 18.3226 4.96 18.479 5.28 19.3394 6.08 19.9651 7.04 19.9651 8.08 19.9651 9.04 19.1829 9.2 18.1662 9.2 18.0098 9.2 17.9316 9.2 17.7751 9.2 17.6187 9.2 17.5405 9.2 17.3841 9.04 16.5237 8.08 15.7416 7.04 15.7416Z"/>
</svg>
