<svg viewBox="0 0 24 24" xmlns="http://www.w3.org/2000/svg" data-title="Delivery" fill="currentColor" stroke="none">
  <path d="m4.53,11.55c.04.08.11.14.19.17l.77.26v5.65c0,.14.1.27.24.3l6.19,1.56s.06,0,.08,0h0s.06,0,.08,0l6.19-1.56c.14-.04.24-.16.24-.3v-5.65s.77-.26.77-.26c.08-.03.15-.09.19-.17s.04-.17,0-.25l-.94-2.19.94-2.19c.03-.08.03-.17,0-.25-.04-.08-.1-.14-.19-.17l-5.87-1.98c-.15-.05-.32,0-.39.14l-1.02,1.73-1.02-1.73c-.08-.13-.24-.19-.39-.14l-5.87,1.99c-.08.03-.15.09-.19.17-.04.08-.04.17,0,.25l.94,2.19-.94,2.19c-.03.07-.03.16,0,.24h0Zm1.61,5.84v-5.19l4.46,1.51s.07.02.11.02c.11,0,.22-.06.28-.16l.69-1.17v6.39s-5.54-1.39-5.54-1.39Zm5.86-10.03l5.2,1.76-5.2,1.76-5.2-1.76,5.2-1.76Zm5.86,10.03l-5.54,1.4v-6.4s.7,1.18.7,1.18c.06.1.17.16.28.16.04,0,.07,0,.11-.02l4.45-1.51v5.19Zm.32-5.96c-.07,0-.12.02-.17.06l-4.56,1.54-.98-1.66,5.52-1.87.75,1.73-.56.19Zm-4.73-6.24l5.29,1.79-.75,1.73-5.52-1.87.97-1.66Zm-2.9,0l.98,1.66-5.52,1.87-.75-1.73,5.29-1.79Zm-4.54,4.31l5.52,1.87-.98,1.66-4.56-1.55s-.09-.05-.15-.05l-.57-.19.75-1.73Z"/>
</svg>
