<svg viewBox="0 0 24 24" xmlns="http://www.w3.org/2000/svg" data-title="Delivery" fill="currentColor" stroke="none">
  <g clip-path="url(#clip0_1508_5061)">
    <path d="M5.02877 11.154C5.06777 11.2321 5.13623 11.2945 5.21764 11.3226L5.98337 11.5814V17.2337C5.98337 17.3741 6.08442 17.4989 6.22774 17.5363L12.4153 19.0961C12.4413 19.1023 12.4706 19.1055 12.4967 19.1055H12.5C12.526 19.1055 12.5553 19.1023 12.5814 19.0961L18.7721 17.5363C18.9157 17.4989 19.0167 17.3772 19.0167 17.2337L19.0134 11.5814L19.7824 11.3194C19.8671 11.2914 19.9355 11.2289 19.9714 11.151C20.0073 11.0731 20.0105 10.9826 19.9747 10.9045L19.0298 8.71162L19.9747 6.51872C20.0073 6.44078 20.0073 6.35031 19.9714 6.27224C19.9355 6.1943 19.8671 6.13503 19.7824 6.10382L13.9108 4.12619C13.7609 4.07632 13.5947 4.13559 13.5198 4.26654L12.4999 5.99468L11.4833 4.2634C11.4052 4.13232 11.2389 4.07318 11.0923 4.12305L5.2176 6.11322C5.13291 6.14128 5.06446 6.20369 5.02859 6.28163C4.99273 6.35957 4.98945 6.45005 5.02532 6.52812L5.97021 8.72101L5.02532 10.9139C4.99286 10.9887 4.99286 11.0761 5.02873 11.154L5.02877 11.154ZM6.63507 16.9934V11.7997L11.0924 13.3094C11.1283 13.322 11.1642 13.3281 11.1999 13.3281C11.3139 13.3281 11.4248 13.2688 11.4834 13.169L12.1741 11.9961L12.1708 18.3876L6.63507 16.9934ZM12.5 6.96159L17.6972 8.7178L12.5 10.474L7.30291 8.7178L12.5 6.96159ZM18.3619 16.9934L12.8195 18.3909L12.8227 11.99L13.5167 13.1691C13.5754 13.269 13.6861 13.3282 13.8002 13.3282C13.8361 13.3282 13.872 13.322 13.9077 13.3096L18.3584 11.803L18.3619 16.9934ZM18.678 11.0354C18.6128 11.0385 18.5541 11.0603 18.5053 11.0946L13.9502 12.6355L12.9727 10.9761L18.4924 9.11062L19.2386 10.845L18.678 11.0354ZM13.95 4.79987L19.2383 6.59041L18.4921 8.32483L12.9755 6.45936L13.95 4.79987ZM11.05 4.79987L12.0275 6.45933L6.50781 8.32466L5.7616 6.59024L11.05 4.79987ZM6.50781 9.1106L12.0275 10.9759L11.05 12.6354L6.48512 11.0882C6.43944 11.0601 6.39062 11.0415 6.33525 11.0383L5.76181 10.845L6.50781 9.1106Z"/>
  </g>
  <defs>
    <clipPath id="clip0_1508_5061">
      <path transform="translate(0 0.199951)" d="M0 0 H24 V24 H0 V0 z"/>
    </clipPath>
  </defs>
</svg>
