<svg viewBox="0 0 24 24" xmlns="http://www.w3.org/2000/svg" data-title="DeliveryFastFill" fill="currentColor" stroke="none">
  <path d="m5.68,12.14c-.57-.49-1.06-1.06-1.3-1.71-.33-.65-.41-1.39-.41-2.12s.24-1.47.65-2.04c.33-.65.82-1.22,1.47-1.63.57-.41,1.3-.65,2.04-.73.73-.08,1.47,0,2.12.33.65.24,1.3.73,1.79,1.22.49.57.81,1.22.98,1.87.16.49.65.82,1.22.73.49-.16.82-.65.73-1.22-.24-.98-.73-1.96-1.39-2.69-.65-.82-1.55-1.39-2.53-1.79-1.06-.33-2.12-.41-3.1-.33-1.06.08-2.04.41-2.93.98-.9.57-1.63,1.3-2.12,2.2-.49.9-.82,1.87-.9,2.93-.08,1.06.16,2.04.57,3.02.41.98,1.06,1.79,1.87,2.45.16.16.41.24.57.24.33,0,.57-.16.73-.41.41-.41.33-.98-.08-1.3Z"/>
  <path d="m9.92,5.78l-2.04,2.04c-.41.41-.41.98,0,1.39.16.24.41.33.65.33s.49-.08.65-.33l2.12-2.12c.41-.41.41-.98,0-1.39-.33-.33-.98-.33-1.39.08Zm11.41,5.22c-.41-.41-1.06-.73-1.71-.73h-6.93c-.65,0-1.22.24-1.71.73-.33.33-.57.82-.65,1.3v4.16q0,.08-.08.16c-.08.08-.16.16-.24.24h-.08c-.24,0-.41-.16-.41-.41v-3.34h-.24c-.98,0-1.96.41-2.69,1.14-.65.65-1.06,1.63-1.06,2.61v2.77c0,.57.41.98.98.98h2.04c.41.82,1.22,1.39,2.12,1.39.98,0,1.79-.57,2.12-1.39h1.96c.41.82,1.22,1.39,2.12,1.39.98,0,1.79-.57,2.12-1.39h2.04c.57,0,.98-.41.98-.98v-6.93c.08-.65-.16-1.22-.65-1.71Zm-10.92,1.3v.73-.73q0,.08,0,0Z"/>
</svg>
