<svg viewBox="0 0 24 24" xmlns="http://www.w3.org/2000/svg" data-title="DeliveryTruckOutline" fill="currentColor" stroke="none">
  <path fill-rule="evenodd" clip-rule="evenodd" d="M20.8843 8.1155C20.1848 7.40813 19.2273 7.00392 18.2365 7.00392H15.0475V6.58286C15.0475 5.95129 14.7977 5.34497 14.3564 4.89865C13.9151 4.45234 13.3156 4.19971 12.6911 4.19971H4.35637C3.73189 4.19971 3.13239 4.45234 2.69109 4.89865C2.24979 5.34497 2 5.95129 2 6.58286V16.4102C2 16.9492 2.43297 17.3955 2.97419 17.3955H3.53206C3.96503 19.0123 5.4055 20.1997 7.13739 20.1997C8.86928 20.1997 10.3097 19.0039 10.7427 17.3955H12.5579C12.9908 19.0123 14.4313 20.1997 16.1632 20.1997C17.8951 20.1997 19.3356 19.0039 19.7685 17.3955H21.0258C21.5587 17.3955 22 16.9576 22 16.4102V10.7934C22 9.79129 21.6087 8.82287 20.9009 8.1155H20.8843ZM4.06495 6.28813C4.13988 6.21234 4.24813 6.16181 4.35637 6.16181H12.6828C12.791 6.16181 12.8993 6.20392 12.9742 6.28813C13.0491 6.36392 13.0991 6.47339 13.0991 6.58286V14.2208C12.8493 14.5829 12.6661 14.9871 12.5495 15.425H10.7344C10.3014 13.8081 8.86095 12.6208 7.12906 12.6208C5.77186 12.6208 4.59784 13.3534 3.94005 14.4481V6.58286C3.94005 6.47339 3.98168 6.36392 4.06495 6.28813ZM7.13739 18.2376C6.13822 18.2376 5.33056 17.4208 5.33056 16.4102C5.33056 15.3997 6.13822 14.5829 7.13739 14.5829C8.13655 14.5829 8.94421 15.3997 8.94421 16.4102C8.94421 17.4208 8.13655 18.2376 7.13739 18.2376ZM16.1549 18.2376C15.1557 18.2376 14.348 17.4208 14.348 16.4102C14.348 15.3997 15.1557 14.5829 16.1549 14.5829C17.154 14.5829 17.9617 15.3997 17.9617 16.4102C17.9617 17.4208 17.154 18.2376 16.1549 18.2376ZM20.0433 15.4334H19.7602C19.3272 13.8165 17.8868 12.6292 16.1549 12.6292C15.7635 12.6292 15.3972 12.705 15.0475 12.8144V8.97444H18.2365C18.7111 8.97444 19.1774 9.16813 19.5104 9.50497C19.8518 9.85023 20.035 10.3134 20.035 10.7934V15.425L20.0433 15.4334Z"/>
</svg>
