<svg viewBox="0 0 24 24" xmlns="http://www.w3.org/2000/svg" data-title="DeliveryOutline" fill="currentColor" stroke="none">
  <path fill-rule="evenodd" clip-rule="evenodd" d="M11.3161 16.5336H17.5629C18.8724 16.5336 19.9316 15.4842 19.9316 14.1849V7.99658C19.9316 6.69728 18.8724 5.64785 17.5629 5.64785H11.3161C10.0067 5.64785 8.94744 6.69728 8.94744 7.99658V14.1849C8.94744 15.4842 10.0067 16.5336 11.3161 16.5336ZM10.9157 7.99658C10.9157 7.7717 11.0992 7.5968 11.3161 7.5968H17.5629C17.7881 7.5968 17.9633 7.78003 17.9633 7.99658V14.1849C17.9633 14.4098 17.7798 14.5847 17.5629 14.5847H11.3161C11.0909 14.5847 10.9157 14.4015 10.9157 14.1849V7.99658Z"/>
  <path fill-rule="evenodd" clip-rule="evenodd" d="M21.7331 20.3816L20.0817 18.7158H20.0734C19.6313 18.2744 19.0392 18.0245 18.4137 18.0245H8.7306C8.57213 17.3749 8.22184 16.7752 7.70474 16.3171C7.42118 16.0672 7.0959 15.8757 6.74561 15.7257V4.55677C6.74561 3.93211 6.49541 3.33243 6.05337 2.891C5.61134 2.44957 5.0025 2.19971 4.37698 2.19971H2.99249C2.44203 2.20804 2 2.64114 2 3.18251C2 3.72389 2.44203 4.15699 2.98415 4.15699H4.36864C4.47706 4.15699 4.57714 4.19863 4.65221 4.27359C4.72727 4.34855 4.76897 4.44849 4.76897 4.55677V15.5342C4.09341 15.6674 3.46789 15.9923 2.97581 16.492C2.36697 17.1167 2.02502 17.9579 2.02502 18.8324C2.02502 19.7069 2.36697 20.5398 2.97581 21.1728C3.58465 21.7975 4.41868 22.1723 5.30275 22.1973C6.18681 22.2306 7.03752 21.9224 7.6964 21.3394C8.11342 20.9646 8.41367 20.4982 8.60549 19.9818H18.397C18.4971 19.9818 18.5971 20.0234 18.6722 20.0984L20.3152 21.7558C20.6989 22.139 21.3161 22.1473 21.7081 21.7642C22.0917 21.3894 22.1 20.773 21.7164 20.3816H21.7331ZM5.37781 20.2483C5.01084 20.2317 4.66055 20.0817 4.402 19.8152C4.14345 19.5487 4.00166 19.1989 4.00166 18.8324C4.00166 18.4659 4.14345 18.1161 4.402 17.8496C4.66055 17.5831 5.01084 17.4332 5.37781 17.4165C5.74478 17.3998 6.11175 17.5331 6.38698 17.7746C6.66221 18.0162 6.82902 18.3577 6.85404 18.7241C6.85404 18.7991 6.85404 18.8657 6.85404 18.9407C6.82902 19.3072 6.65387 19.6403 6.38698 19.8902C6.11175 20.1317 5.75312 20.265 5.37781 20.2483Z"/>
  <path fill-rule="evenodd" clip-rule="evenodd" d="M14.0934 13.1022H15.4779C16.02 13.1022 16.462 12.6691 16.462 12.1277C16.462 11.5863 16.02 11.1532 15.4779 11.1532H14.0934C13.5513 11.1532 13.1092 11.5863 13.1092 12.1277C13.1092 12.6691 13.5513 13.1022 14.0934 13.1022Z"/>
</svg>
