<svg viewBox="0 0 24 24" xmlns="http://www.w3.org/2000/svg" data-title="DeliveryFastOutline" fill="currentColor" stroke="none">
  <path fill-rule="evenodd" clip-rule="evenodd" d="M10.6176 17.4658C9.30934 17.4658 8.2511 18.5243 8.2511 19.8328 8.2511 21.1412 9.30934 22.1997 10.6176 22.1997 11.9258 22.1997 12.9841 21.1412 12.9841 19.8328 12.9841 18.5243 11.9258 17.4658 10.6176 17.4658ZM16.8671 17.4658C15.5588 17.4658 14.5006 18.5243 14.5006 19.8328 14.5006 21.1412 15.5588 22.1997 16.8671 22.1997 18.1753 22.1997 19.2336 21.1412 19.2336 19.8328 19.2336 18.5243 18.1753 17.4658 16.8671 17.4658ZM5.6763 12.3069C5.10968 11.8485 4.65972 11.2734 4.35974 10.6067 4.05976 9.93992 3.92644 9.21483 3.9681 8.48975 4.00977 7.76466 4.21808 7.05624 4.58472 6.43117 4.95136 5.8061 5.45965 5.2727 6.07627 4.88099 6.68455 4.48927 7.3845 4.24758 8.10944 4.1809 8.83438 4.11423 9.55933 4.21424 10.2426 4.48094 10.9176 4.74764 11.5175 5.17269 12.0008 5.72275 12.4758 6.27282 12.8174 6.92289 12.9924 7.63131 13.1257 8.15637 13.6507 8.47308 14.1756 8.33973 14.7006 8.20638 15.0172 7.68132 14.8839 7.15626 14.6339 6.1478 14.1506 5.21436 13.4673 4.43927 12.7841 3.65584 11.9258 3.04744 10.9592 2.66406 9.98429 2.27234 8.94271 2.13066 7.90946 2.23067 6.87621 2.33068 5.88462 2.67239 5.00969 3.23079 4.13476 3.78919 3.40982 4.54761 2.88486 5.44772 2.36823 6.34783 2.06826 7.35628 2.00993 8.38974 1.9516 9.42319 2.15158 10.4566 2.57655 11.4068 3.00151 12.3569 3.64313 13.182 4.4514 13.832 4.87636 14.1654 5.48465 14.0987 5.82629 13.682 6.1596 13.257 6.09293 12.6486 5.6763 12.3069Z"/>
  <path fill-rule="evenodd" clip-rule="evenodd" d="M9.92596 5.97278 7.8428 8.05636C7.45949 8.43974 7.45949 9.05648 7.8428 9.43986 8.2261 9.82324 8.84272 9.82324 9.22602 9.43986L11.3092 7.35628C11.6925 6.9729 11.6925 6.35616 11.3092 5.97278 10.9259 5.5894 10.3093 5.5894 9.92596 5.97278ZM21.3167 11.2151C20.8751 10.7734 20.2751 10.5233 19.6419 10.5233H12.7007C12.0758 10.5233 11.4758 10.7734 11.0259 11.2151 10.5759 11.6568 10.3343 12.2569 10.3343 12.8903V13.3153H9.22602C8.23443 13.3153 7.27617 13.707 6.5679 14.4154 5.86795 15.1155 5.46798 16.074 5.46798 17.0741V19.8494C5.46798 20.3912 5.90128 20.8245 6.44291 20.8245 6.98453 20.8245 7.41783 20.3912 7.41783 19.8494V17.0741C7.41783 16.599 7.60948 16.1407 7.94279 15.7989 8.28443 15.4572 8.74272 15.2739 9.21769 15.2739H10.3259V15.6906C10.3259 16.2323 10.7592 16.6657 11.3009 16.6657 11.8425 16.6657 12.2758 16.2323 12.2758 15.6906V12.8986C12.2758 12.7903 12.3174 12.6819 12.4008 12.6069 12.4841 12.5319 12.5841 12.4819 12.6924 12.4819H19.6335C19.7418 12.4819 19.8502 12.5236 19.9252 12.6069 20.0002 12.6902 20.0502 12.7903 20.0502 12.8986V19.8411C20.0502 20.3828 20.4835 20.8162 21.0251 20.8162 21.5667 20.8162 22 20.3828 22 19.8411V12.8986C22 12.2735 21.75 11.6735 21.3084 11.2234L21.3167 11.2151Z"/>
</svg>
