<svg viewBox="0 0 24 24" xmlns="http://www.w3.org/2000/svg" data-title="DeliveryTruckFill" fill="currentColor" stroke="none">
  <path d="m20.96,7.83c-.64-.7-1.6-1.02-2.48-1.02h-2.4c-.48,0-.8.31-.8.78v6.93h.96c1.28.08,2.4.94,2.8,2.11.08.31.16.63.16.94v.16c0,.31-.08.55-.08.78h1.92c.56,0,.96-.39.96-.94v-7.24c0-.94-.4-1.8-1.04-2.5Zm-8,8.57c.24-.47.56-.86.96-1.17.32-.23.64-.39.96-.55V6.35c0-.63-.24-1.17-.72-1.64-.4-.39-1.04-.7-1.68-.7H4.32c-.64.08-1.2.31-1.68.7-.4.47-.64,1.02-.64,1.64v11.39c0,.55.4.94.96.94h.96c-.08-.31-.16-.63-.16-.94s.08-.63.16-.94c.4-1.33,1.6-2.35,3.12-2.35,1.6,0,2.88,1.1,3.2,2.5.08.23.08.47.08.7s0,.47-.08.7h2.48c-.08-.23-.08-.47-.08-.7s0-.47.08-.7c.08-.16.16-.31.24-.55Z"/>
  <path d="m17.84,16.64c-.32-.55-.88-.94-1.6-1.02h-.32c-.4,0-.8.08-1.12.31-.48.23-.8.63-.96,1.17,0,.08-.08.23-.08.31v.78c0,.16.08.39.16.55.32.7,1.12,1.25,2,1.25s1.68-.55,2-1.33c.08-.23.16-.55.16-.78v-.16c0-.47-.08-.78-.24-1.1Zm-10.8-1.09c-.96,0-1.76.63-2.08,1.49-.08.23-.08.47-.08.63,0,.23.08.47.08.63.32.86,1.12,1.49,2.08,1.49,1.04,0,2-.78,2.16-1.8v-.78c-.16-.86-1.12-1.64-2.16-1.64Z"/>
</svg>
