<svg viewBox="0 0 24 24" xmlns="http://www.w3.org/2000/svg" data-title="Digicode" fill="currentColor" stroke="none">
  <path fill-rule="evenodd" clip-rule="evenodd" d="M12.9598 8.38883C13.6096 8.38883 14.1377 8.92959 14.1377 9.59485V10.6756C14.2675 10.6351 14.4134 10.6149 14.5792 10.6149C15.0442 10.6149 15.4468 10.8916 15.639 11.2921C15.7989 11.2044 15.9866 11.1579 16.1993 11.1579C16.6753 11.1579 17.086 11.4481 17.2716 11.8651C17.4351 11.7774 17.6214 11.7271 17.8187 11.7271C18.4685 11.7271 18.9966 12.2671 18.9966 12.9316V15.8304C19.0003 15.8867 19.0773 17.6657 18.2478 18.6392C17.7864 19.1822 16.9188 20.2 15.331 20.2C14.9686 20.2 14.5689 20.1475 14.1274 20.0237C13.314 19.7942 12.6584 19.1792 11.9653 18.5274L11.7013 18.2807C10.8146 17.4572 10.3628 16.5174 10.3943 15.5642C10.4009 15.3879 10.4368 15.2177 10.475 15.0466H8.87832C8.54535 15.0466 8.27472 14.7699 8.27472 14.4294V12.8424C8.27472 12.5019 8.54535 12.2244 8.87832 12.2244H10.494C10.827 12.2244 11.0977 12.5019 11.0977 12.8424V13.7641C11.2905 13.5151 11.5098 13.2714 11.7819 13.0374V9.59485C11.7819 8.92959 12.3107 8.38883 12.9598 8.38883ZM12.9598 9.14259C12.7163 9.14259 12.519 9.34509 12.519 9.59485V15.4157C12.519 15.6242 12.354 15.7922 12.1501 15.7922C11.947 15.7922 11.7819 15.6242 11.7819 15.4157V14.0836C11.3668 14.5659 11.1483 15.0699 11.1314 15.5897C11.1006 16.5062 11.6932 17.2554 12.197 17.7227L12.4633 17.9724C13.1168 18.5867 13.6815 19.1162 14.3232 19.2962C16.101 19.7972 16.9943 18.9647 17.6926 18.1449C18.2206 17.5247 18.2815 16.2774 18.2602 15.8492L18.2595 12.9316C18.2595 12.6834 18.0622 12.4809 17.8187 12.4809C17.5745 12.4809 17.3772 12.6834 17.3772 12.9316C17.3772 13.1401 17.2122 13.3089 17.0083 13.3089C16.8051 13.3089 16.6401 13.1401 16.6401 12.9316V12.3631C16.6401 12.1134 16.4421 11.9109 16.1993 11.9109C16.0783 11.9109 15.7578 11.9109 15.7578 12.6474C15.7578 12.8551 15.5928 13.0239 15.3889 13.0239C15.1857 13.0239 15.0207 12.8551 15.0207 12.6474V11.8186C15.0207 11.5704 14.8227 11.3686 14.5792 11.3686C14.4244 11.3686 14.321 11.3941 14.2719 11.4436C14.178 11.5411 14.1472 11.8066 14.1377 12.1554V13.1649C14.1377 13.3734 13.9734 13.5414 13.7695 13.5414C13.5663 13.5414 13.4013 13.3734 13.4013 13.1649L13.3991 12.7726C13.3984 12.5416 13.3962 12.3316 13.4013 12.1389V9.59485C13.4013 9.34509 13.2033 9.14259 12.9598 9.14259ZM7.22006 12.2245C7.5523 12.2245 7.82293 12.5013 7.82293 12.8418V14.4295C7.82293 14.77 7.5523 15.0468 7.22006 15.0468H5.60434C5.27063 15.0468 5 14.77 5 14.4295V12.8418C5 12.5013 5.27063 12.2245 5.60434 12.2245H7.22006ZM10.3613 12.9781H9.01181V14.2929H10.3613V12.9781ZM7.08658 12.9783H5.73709V14.293H7.08658V12.9783ZM7.22006 8.71224C7.5523 8.71224 7.82293 8.98974 7.82293 9.33024V10.9165C7.82293 11.257 7.5523 11.5338 7.22006 11.5338H5.60434C5.27063 11.5338 5 11.257 5 10.9165V9.33024C5 8.98974 5.27063 8.71224 5.60434 8.71224H7.22006ZM10.494 8.71224C10.827 8.71224 11.0977 8.98974 11.0977 9.33024V10.9165C11.0977 11.257 10.827 11.5338 10.494 11.5338H8.87832C8.54535 11.5338 8.27472 11.257 8.27472 10.9165V9.33024C8.27472 8.98974 8.54535 8.71224 8.87832 8.71224H10.494ZM7.08658 9.46524H5.73709V10.78H7.08658V9.46524ZM10.3613 9.46524H9.01181V10.78H10.3613V9.46524ZM7.22006 5.19995C7.5523 5.19995 7.82293 5.4767 7.82293 5.81721V7.40347C7.82293 7.74473 7.5523 8.02148 7.22006 8.02148H5.60434C5.27063 8.02148 5 7.74473 5 7.40347V5.81721C5 5.4767 5.27063 5.19995 5.60434 5.19995H7.22006ZM10.494 5.19995C10.827 5.19995 11.0977 5.4767 11.0977 5.81721V7.40347C11.0977 7.74473 10.827 8.02148 10.494 8.02148H8.87832C8.54535 8.02148 8.27472 7.74473 8.27472 7.40347V5.81721C8.27472 5.4767 8.54535 5.19995 8.87832 5.19995H10.494ZM13.7688 5.19995C14.1017 5.19995 14.3724 5.4767 14.3724 5.81721V7.40347C14.3724 7.74473 14.1017 8.02148 13.7688 8.02148H12.153C11.8201 8.02148 11.5487 7.74473 11.5487 7.40347V5.81721C11.5487 5.4767 11.8201 5.19995 12.153 5.19995H13.7688ZM7.08658 5.95371H5.73709V7.26772H7.08658V5.95371ZM10.3613 5.95371H9.01181V7.26772H10.3613V5.95371ZM13.6353 5.95371H12.2858V7.26772H13.6353V5.95371Z"/>
</svg>
