<svg viewBox="0 0 24 24" xmlns="http://www.w3.org/2000/svg" data-title="Digicode" fill="currentColor" stroke="none">
  <path fill-rule="evenodd" d="m12.96,7.69c.65,0,1.18.54,1.18,1.21v1.08c.13-.04.28-.06.44-.06.47,0,.87.28,1.06.68.16-.09.35-.13.56-.13.48,0,.89.29,1.07.71.16-.09.35-.14.55-.14.65,0,1.18.54,1.18,1.2v2.9c0,.06.08,1.84-.75,2.81-.46.54-1.33,1.56-2.92,1.56-.36,0-.76-.05-1.2-.18-.81-.23-1.47-.84-2.16-1.5l-.26-.25c-.89-.82-1.34-1.76-1.31-2.72,0-.18.04-.35.08-.52h-1.6c-.33,0-.6-.28-.6-.62v-1.59c0-.34.27-.62.6-.62h1.62c.33,0,.6.28.6.62v.92c.19-.25.41-.49.68-.73v-3.44c0-.67.53-1.21,1.18-1.21Zm0,.75c-.24,0-.44.2-.44.45v5.82c0,.21-.16.38-.37.38s-.37-.17-.37-.38v-1.33c-.42.48-.63.99-.65,1.51-.03.92.56,1.67,1.07,2.13l.27.25c.65.61,1.22,1.14,1.86,1.32,1.78.5,2.67-.33,3.37-1.15.53-.62.59-1.87.57-2.3v-2.92c0-.25-.2-.45-.44-.45s-.44.2-.44.45c0,.21-.16.38-.37.38s-.37-.17-.37-.38v-.57c0-.25-.2-.45-.44-.45-.12,0-.44,0-.44.74,0,.21-.16.38-.37.38s-.37-.17-.37-.38v-.83c0-.25-.2-.45-.44-.45-.15,0-.26.03-.31.07-.09.1-.12.36-.13.71v1.01c0,.21-.16.38-.37.38s-.37-.17-.37-.38v-.39c0-.23,0-.44,0-.63v-2.54c0-.25-.2-.45-.44-.45Zm-5.74,3.08c.33,0,.6.28.6.62v1.59c0,.34-.27.62-.6.62h-1.62c-.33,0-.6-.28-.6-.62v-1.59c0-.34.27-.62.6-.62h1.62Zm3.14.75h-1.35v1.31h1.35v-1.31Zm-3.27,0h-1.35v1.31h1.35v-1.31Zm.13-4.27c.33,0,.6.28.6.62v1.59c0,.34-.27.62-.6.62h-1.62c-.33,0-.6-.28-.6-.62v-1.59c0-.34.27-.62.6-.62h1.62Zm3.27,0c.33,0,.6.28.6.62v1.59c0,.34-.27.62-.6.62h-1.62c-.33,0-.6-.28-.6-.62v-1.59c0-.34.27-.62.6-.62h1.62Zm-3.41.75h-1.35v1.31h1.35v-1.31Zm3.27,0h-1.35v1.31h1.35v-1.31Zm-3.14-4.27c.33,0,.6.28.6.62v1.59c0,.34-.27.62-.6.62h-1.62c-.33,0-.6-.28-.6-.62v-1.59c0-.34.27-.62.6-.62h1.62Zm3.27,0c.33,0,.6.28.6.62v1.59c0,.34-.27.62-.6.62h-1.62c-.33,0-.6-.28-.6-.62v-1.59c0-.34.27-.62.6-.62h1.62Zm3.27,0c.33,0,.6.28.6.62v1.59c0,.34-.27.62-.6.62h-1.62c-.33,0-.6-.28-.6-.62v-1.59c0-.34.27-.62.6-.62h1.62Zm-6.68.75h-1.35v1.31h1.35v-1.31Zm3.27,0h-1.35v1.31h1.35v-1.31Zm3.27,0h-1.35v1.31h1.35v-1.31Z"/>
</svg>
