<svg viewBox="0 0 24 24" xmlns="http://www.w3.org/2000/svg" data-title="DissatisfiedFill" fill="currentColor" stroke="none">
  <path fill-rule="evenodd" clip-rule="evenodd" d="M20.059 6.80454C19.2625 5.42314 18.2271 4.28551 16.8732 3.39166C15.5192 2.57907 14.0059 2.09151 12.4926 2.01025C10.8997 1.92899 9.38645 2.33529 8.03247 3.06662C6.5192 3.79795 5.32451 4.85432 4.52805 6.15447C3.65195 7.45462 3.17407 8.99854 3.01478 10.6237C2.93514 12.2489 3.17407 13.7928 3.81124 15.2555C4.36876 16.5556 5.24487 17.6933 6.35991 18.5871V19.6435C6.35991 20.2936 6.59885 20.8624 7.07672 21.3499C7.47495 21.7562 8.11212 22 8.66964 22H9.54574V18.5059C9.54574 17.937 9.94397 17.5307 10.5015 17.5307C11.059 17.5307 11.4572 17.937 11.4572 18.5059V22H12.7316V18.5059C12.7316 17.937 13.1298 17.5307 13.6873 17.5307C14.2448 17.5307 14.6431 17.937 14.6431 18.5059V22H15.5192C16.1564 22 16.7139 21.7562 17.1917 21.2687C17.59 20.8624 17.9086 20.2123 17.9086 19.5622V18.5059C18.8643 17.6933 19.7404 16.6369 20.2979 15.4993C20.9351 14.1991 21.3333 12.7365 21.3333 11.2738C21.174 9.72987 20.7758 8.18595 20.059 6.80454ZM8.83333 10.3333C7.96032 10.3333 7.16667 11.0476 7.16667 12C7.16667 12.873 7.88095 13.6667 8.83333 13.6667C9.78571 13.6667 10.5 12.9524 10.5 12C10.5 11.0476 9.78571 10.3333 8.83333 10.3333ZM13.8333 12C13.8333 11.0476 14.627 10.3333 15.5 10.3333C16.4524 10.3333 17.1667 11.0476 17.1667 12C17.1667 12.9524 16.4524 13.6667 15.5 13.6667C14.5476 13.6667 13.8333 12.873 13.8333 12Z"/>
</svg>
