<svg viewBox="0 0 24 24" xmlns="http://www.w3.org/2000/svg" data-title="DissatisfiedOutline" fill="currentColor" stroke="none">
  <path d="m8.59,10.31c-.92,0-1.67.76-1.67,1.69s.75,1.69,1.67,1.69,1.67-.76,1.67-1.69-.75-1.69-1.67-1.69Zm6.82,0c-.92,0-1.67.76-1.67,1.69s.75,1.69,1.67,1.69,1.67-.76,1.67-1.69-.75-1.69-1.67-1.69Z"/>
  <path fill-rule="evenodd" d="m7.82,3.02c1.4-.73,2.96-1.08,4.53-1.02,1.57.06,3.1.53,4.44,1.36,1.34.83,2.45,2,3.21,3.39.77,1.39,1.17,2.96,1.17,4.55,0,1.48-.35,2.93-1.01,4.24-.59,1.16-1.4,2.18-2.4,2.99v1.07c0,.63-.25,1.24-.69,1.69-.44.45-1.04.7-1.66.7h-6.82c-.62,0-1.22-.25-1.66-.7-.44-.45-.69-1.05-.69-1.69v-1.07c-1.08-.89-1.96-2.02-2.55-3.31-.66-1.44-.95-3.04-.83-4.63.12-1.59.63-3.12,1.5-4.45.87-1.33,2.06-2.41,3.46-3.14Zm6.53,16.98v-1.77c0-.55-.44-1-.99-1s-.99.45-.99,1v1.77h-.76v-1.77c0-.55-.44-1-.99-1s-.99.45-.99,1v1.77h-1.06c-.1,0-.2-.04-.27-.11-.07-.07-.11-.17-.11-.27v-1.56c0-.32-.15-.62-.41-.81-1-.73-1.8-1.71-2.32-2.84-.52-1.13-.75-2.39-.66-3.63.09-1.25.5-2.45,1.18-3.49.68-1.04,1.62-1.89,2.71-2.46,1.1-.57,2.32-.85,3.55-.8s2.43.41,3.48,1.07c1.05.65,1.92,1.57,2.52,2.66.6,1.09.92,2.32.92,3.57,0,1.16-.27,2.3-.79,3.33-.52,1.03-1.28,1.92-2.2,2.6-.26.19-.41.49-.41.81v1.56c0,.1-.04.2-.11.27-.07.07-.17.11-.27.11h-1.06Z"/>
</svg>
