<svg viewBox="0 0 24 24" xmlns="http://www.w3.org/2000/svg" data-title="DissatisfiedOutline" fill="currentColor" stroke="none">
  <path d="M8.75774 10.3102C7.83715 10.3102 7.09086 11.0678 7.09086 12.0024 7.09086 12.9369 7.83715 13.6945 8.75774 13.6945 9.67833 13.6945 10.4246 12.9369 10.4246 12.0024 10.4246 11.0678 9.67833 10.3102 8.75774 10.3102ZM15.5758 10.3102C14.6553 10.3102 13.909 11.0678 13.909 12.0024 13.909 12.9369 14.6553 13.6945 15.5758 13.6945 16.4964 13.6945 17.2427 12.9369 17.2427 12.0024 17.2427 11.0678 16.4964 10.3102 15.5758 10.3102Z"/>
  <path fill-rule="evenodd" clip-rule="evenodd" d="M7.98499 3.02467C9.38279 2.29726 10.9413 1.94668 12.5109 2.00657C14.0806 2.06645 15.6087 2.53479 16.9488 3.36665C18.2889 4.19851 19.3959 5.36599 20.1637 6.75709C20.9315 8.14818 21.3342 9.71622 21.3333 11.3108C21.3325 12.787 20.9857 14.2419 20.3216 15.5552C19.7361 16.7129 18.9189 17.7314 17.9243 18.5464V19.6157C17.9243 20.2481 17.6769 20.8545 17.2364 21.3016C16.796 21.7488 16.1986 22 15.5757 22H13.5386C13.5359 22 13.5331 22 13.5304 22C13.5277 22 13.525 22 13.5223 22H10.8113L10.8032 22L10.795 22H8.75767C8.13476 22 7.53737 21.7488 7.09691 21.3016C6.65645 20.8545 6.409 20.2481 6.409 19.6157V18.5464C5.32434 17.6576 4.45177 16.5277 3.86029 15.2413C3.19592 13.7964 2.90846 12.2024 3.02547 10.6123C3.14248 9.02218 3.66004 7.48926 4.5285 6.16059C5.39697 4.83192 6.58719 3.75208 7.98499 3.02467ZM14.5155 20V18.2315C14.5155 17.6792 14.0745 17.2315 13.5304 17.2315C12.9864 17.2315 12.5453 17.6792 12.5453 18.2315V20H11.7883V18.2315C11.7883 17.6792 11.3472 17.2315 10.8032 17.2315C10.2591 17.2315 9.81811 17.6792 9.81811 18.2315V20H8.75767C8.65728 20 8.561 19.9595 8.49002 19.8874C8.41903 19.8154 8.37915 19.7176 8.37915 19.6157V18.0515C8.37915 17.7295 8.22637 17.4271 7.9687 17.2393C6.96708 16.509 6.16712 15.5298 5.64555 14.3954C5.12397 13.261 4.89829 12.0097 4.99015 10.7613C5.08202 9.51293 5.48834 8.30947 6.17015 7.26636C6.85195 6.22326 7.78636 5.37551 8.88374 4.80444C9.98112 4.23337 11.2046 3.95814 12.4369 4.00515C13.6692 4.05216 14.869 4.41984 15.921 5.07292C16.9731 5.72599 17.8422 6.64255 18.4449 7.73466C19.0477 8.82677 19.3639 10.0578 19.3632 11.3096C19.3625 12.4686 19.0903 13.6108 18.5689 14.6418C18.0475 15.6729 17.2919 16.5632 16.3646 17.2393C16.107 17.4271 15.9542 17.7295 15.9542 18.0515V19.6157C15.9542 19.7176 15.9143 19.8154 15.8433 19.8874C15.7723 19.9595 15.6761 20 15.5757 20H14.5155Z"/>
</svg>
