<svg viewBox="0 0 24 24" xmlns="http://www.w3.org/2000/svg" data-title="DiyProduct" fill="currentColor" stroke="none">
  <path fill-rule="evenodd" clip-rule="evenodd" d="M6.38822 5.25657L8.3936 6.49085C8.49262 6.5303 8.57105 6.60893 8.6104 6.70821C8.63666 6.81224 8.6169 6.92257 8.5562 7.01096L8.08389 7.70961L11.7297 11.3657L11.7385 11.3581C11.8635 11.2268 12.0375 11.1536 12.2185 11.1563C12.3252 11.1545 12.4301 11.1729 12.528 11.2096L13.9684 9.75898C13.8678 9.45622 13.8181 9.13879 13.8213 8.81969C13.8213 7.10478 15.2079 5.71455 16.9184 5.71455C17.2866 5.71319 17.6518 5.78167 17.9946 5.9164C18.1203 5.96553 18.2114 6.07668 18.2351 6.20979C18.2588 6.3429 18.2117 6.47879 18.1108 6.56848L16.6474 7.89591L16.8564 8.9206L17.8553 9.26216L19.2567 8.04341C19.3595 7.94991 19.505 7.92013 19.6361 7.96578C19.7681 8.00853 19.868 8.11756 19.8993 8.253C19.9442 8.457 19.9675 8.66514 19.969 8.87403C19.969 10.5889 18.5824 11.9791 16.8719 11.9791C16.4955 11.9803 16.1222 11.9091 15.7725 11.7695L15.167 12.3812L19.4425 16.6679C19.7915 17.0095 19.9918 17.4754 20 17.9643C19.9952 18.3239 19.8442 18.6659 19.5819 18.9113L18.676 19.8273C18.4473 20.048 18.1486 20.1785 17.8343 20.1979L17.7159 20.1999C17.2325 20.1928 16.7723 19.9914 16.4383 19.641L12.1932 15.3842L7.83612 19.8118C7.60212 20.0431 7.29299 20.1797 6.96768 20.1985L6.84505 20.1999C6.49194 20.2018 6.15344 20.0587 5.90817 19.804C5.65371 19.5552 5.51116 19.2133 5.51327 18.857C5.51584 18.5038 5.65783 18.1661 5.90817 17.9177L11.0109 12.757C10.9693 12.6563 10.9453 12.5481 10.941 12.4371C10.9427 12.2519 11.0147 12.0743 11.1423 11.9403L11.1575 11.9245L7.48925 8.26145L6.80633 8.72653C6.72451 8.80107 6.61383 8.83521 6.50437 8.81969C6.40534 8.78023 6.32692 8.70161 6.28757 8.60233L5.05647 6.59177C4.96436 6.44008 4.98668 6.24506 5.11067 6.11824L5.51329 5.71457L5.91592 5.31091C6.04241 5.1866 6.23693 5.16422 6.38822 5.25657ZM13.6432 12.4371C13.5179 12.4313 13.3946 12.4697 13.2948 12.5458L12.3192 13.4774C12.1669 13.7154 12.1473 14.005 12.2478 14.2531C12.3012 14.3651 12.3797 14.4668 12.4818 14.5486C12.5114 14.5789 12.5351 14.6129 12.5528 14.6491L16.9881 19.1054C17.1784 19.307 17.4393 19.4267 17.7159 19.4392C17.8636 19.441 18.0068 19.3886 18.1185 19.2917L19.0322 18.3679C19.1284 18.2619 19.181 18.1232 19.1793 17.9798C19.1764 17.6868 19.0565 17.4071 18.8463 17.2035L14.4267 12.7501C14.3864 12.7331 14.3491 12.7087 14.3168 12.6778C14.2809 12.6376 14.2419 12.6016 14.2003 12.57C14.0358 12.4707 13.8423 12.437 13.6432 12.4371ZM11.4792 13.387L6.45791 18.4688C6.35248 18.5708 6.29129 18.7102 6.28757 18.857C6.2889 19.0088 6.35015 19.1539 6.45791 19.2606C6.5382 19.3459 6.64423 19.4009 6.75828 19.418L6.84505 19.4237C6.99355 19.4267 7.13663 19.3676 7.23993 19.2606L11.6817 14.8074C11.5281 14.5775 11.4413 14.3144 11.4235 14.0465C11.4024 13.8685 11.4102 13.6863 11.4488 13.5077L11.4792 13.387ZM12.2805 11.9636L12.021 12.1655C12.0126 12.1762 12.0036 12.1865 11.994 12.1965C11.9727 12.2183 11.9491 12.2373 11.9237 12.2533L11.7064 12.469C11.7181 12.476 11.7295 12.4836 11.7405 12.4918L11.7772 12.4915L11.963 12.6778L12.4813 12.1645L12.3037 11.9869L12.293 11.9732L12.2805 11.9636ZM15.3277 7.18241C14.8753 7.60823 14.6117 8.1978 14.5956 8.81969C14.6008 9.12633 14.6721 9.42822 14.8046 9.70464C14.8638 9.85124 14.8303 10.0191 14.7194 10.1316L13.1709 11.6842C13.3108 11.641 13.4565 11.6198 13.6027 11.6211C13.9364 11.592 14.2751 11.6714 14.5643 11.8544L15.4318 10.9777C15.5506 10.8595 15.7318 10.8314 15.8809 10.9079C16.5489 11.2235 17.3269 11.2017 17.9765 10.8493C18.626 10.4969 19.0696 9.85581 19.1715 9.12243L18.2037 9.99187C18.1009 10.0854 17.9554 10.1151 17.8243 10.0695L16.3996 9.59596C16.2667 9.55235 16.1686 9.439 16.1441 9.30098L15.8499 7.83381C15.8202 7.7001 15.8646 7.56074 15.966 7.46896L17.0036 6.55295C16.3835 6.52993 15.78 6.7566 15.3277 7.18241ZM6.28757 6.07166L6.10174 6.26573C6.07288 6.29379 6.0408 6.31656 6.00673 6.33404L5.86946 6.49085L6.71342 7.88815L7.23875 7.53245L7.64255 6.93333L6.28757 6.07166Z"/>
</svg>
