<svg viewBox="0 0 24 24" xmlns="http://www.w3.org/2000/svg" data-title="DiyType" fill="currentColor" stroke="none">
  <path fill-rule="evenodd" clip-rule="evenodd" d="M16.4516 11.8315C16.6416 11.8315 16.7997 11.9619 16.8325 12.1337L16.8387 12.2V13.3045L17.6888 13.3045C17.8867 13.6298 18 14.0076 18 14.4105C18 15.42 17.289 16.2714 16.3177 16.5359L16.3332 16.4908C15.7422 18.2534 14.0461 19.1326 12.0949 19.2C9.58276 19.2 7.54839 17.0686 7.54839 14.4554C7.54839 14.2539 7.72089 14.0905 7.93369 14.0905C8.14648 14.0905 8.31898 14.2539 8.31898 14.4554C8.31898 16.6452 10.0143 18.47 12.0949 18.47C13.5809 18.4105 14.8847 17.8354 15.4669 16.6116C14.2824 16.5104 13.3548 15.5635 13.3548 14.4105C13.3548 14.0076 13.4681 13.6298 13.666 13.3045L14.5161 13.3045V12.2C14.5161 11.9965 14.6894 11.8315 14.9032 11.8315C15.0933 11.8315 15.2513 11.9619 15.2841 12.1337L15.2903 12.2V13.3052H16.0645V12.2C16.0645 11.9965 16.2378 11.8315 16.4516 11.8315ZM17.1771 14.0423H14.1777C14.1459 14.16 14.129 14.2834 14.129 14.4105C14.129 15.2244 14.8223 15.8842 15.6774 15.8842C16.5326 15.8842 17.2258 15.2244 17.2258 14.4105C17.2258 14.2834 17.2089 14.16 17.1771 14.0423ZM16.8387 7.41048C17.2663 7.41048 17.6129 7.74037 17.6129 8.14732V9.621C17.6129 10.028 17.2663 10.3578 16.8387 10.3578H9.09677V12.5684C9.09677 12.9753 8.75016 13.3052 8.32258 13.3052H6.77419C6.34662 13.3052 6 12.9753 6 12.5684V10.3578H6.00869C6.00869 8.4936 7.01799 7.47341 8.91621 7.4133L9.09677 7.41048H16.8387ZM16.8387 8.14732H9.09677C7.5649 8.14732 6.83407 8.79469 6.78549 10.2039L6.78289 10.3578H6.77419V12.5684H8.32258V9.98942C8.32258 9.78595 8.49589 9.621 8.70968 9.621H16.8387V8.14732ZM14.129 5.93679C15.2099 5.93679 16.143 6.53917 16.5779 7.41045L15.6776 7.41051C15.3245 6.96306 14.7623 6.67364 14.129 6.67364C13.4958 6.67364 12.9336 6.96306 12.5805 7.41051L11.6801 7.41045C12.115 6.53917 13.0481 5.93679 14.129 5.93679ZM17.2258 5.19995C17.4396 5.19995 17.6129 5.3649 17.6129 5.56837C17.6129 5.74924 17.476 5.89966 17.2954 5.93086L17.2258 5.93679H11.0323C10.8185 5.93679 10.6452 5.77185 10.6452 5.56837C10.6452 5.38751 10.7821 5.23708 10.9627 5.20589L11.0323 5.19995H17.2258Z"/>
</svg>
