<svg viewBox="0 0 24 24" xmlns="http://www.w3.org/2000/svg" data-title="DiyType" fill="currentColor" stroke="none">
  <path fill-rule="evenodd" d="m16.45,11.63c.19,0,.35.13.38.3v.07s0,1.1,0,1.1h.85c.2.33.31.7.31,1.11,0,1.01-.71,1.86-1.68,2.13l.02-.05c-.59,1.76-2.29,2.64-4.24,2.71-2.51,0-4.55-2.13-4.55-4.74,0-.2.17-.36.39-.36s.39.16.39.36c0,2.19,1.7,4.01,3.78,4.01,1.49-.06,2.79-.63,3.37-1.86-1.18-.1-2.11-1.05-2.11-2.2,0-.4.11-.78.31-1.11h.85v-1.1c0-.2.17-.37.39-.37.19,0,.35.13.38.3v.07s0,1.11,0,1.11h.77v-1.11c0-.2.17-.37.39-.37Zm.73,2.21h-3c-.03.12-.05.24-.05.37,0,.81.69,1.47,1.55,1.47s1.55-.66,1.55-1.47c0-.13-.02-.25-.05-.37Zm-.34-6.63c.43,0,.77.33.77.74v1.47c0,.41-.35.74-.77.74h-7.74v2.21c0,.41-.35.74-.77.74h-1.55c-.43,0-.77-.33-.77-.74v-2.21h0c0-1.86,1.01-2.88,2.91-2.94h.18s7.74,0,7.74,0Zm0,.74h-7.74c-1.53,0-2.26.65-2.31,2.06v.15h-.01v2.21h1.55v-2.58c0-.2.17-.37.39-.37h8.13v-1.47Zm-2.71-2.21c1.08,0,2.01.6,2.45,1.47h-.9c-.35-.45-.92-.74-1.55-.74s-1.2.29-1.55.74h-.9c.43-.87,1.37-1.47,2.45-1.47Zm3.1-.74c.21,0,.39.16.39.37,0,.18-.14.33-.32.36h-.07s-6.19,0-6.19,0c-.21,0-.39-.16-.39-.37,0-.18.14-.33.32-.36h.07s6.19,0,6.19,0Z"/>
</svg>
