<svg viewBox="0 0 24 24" xmlns="http://www.w3.org/2000/svg" data-title="Donate" fill="currentColor" stroke="none">
  <path d="M17.1 8.4h-6.5v3.9h5.7V9.9c0-.2.2-.3.3-.3.2 0 .3.2.3.3v2.8c0 .2-.2.3-.3.3h-6.4c-.2 0-.3-.2-.3-.3V8.4H9.8c-.2 0-.3-.2-.3-.3V6.7c0-.2.2-.3.3-.3h1.3c-.2-.1-.4-.3-.4-.5-.1-.2-.1-.3 0-.5 0-.2.2-.3.3-.5.3-.3.6-.4 1-.3.3.1.6.3.8.5.3.3.5.6.7 1 .2-.3.4-.7.7-1 .2-.2.5-.4.8-.5.4-.1.7.1 1 .3.1.1.3.3.3.5.1.2 0 .4 0 .5-.1.2-.3.4-.4.5h1.2c.2 0 .3.2.3.3v1.4C17.5 8.3 17.3 8.4 17.1 8.4zM10.2 7.1h6.6v.7h-6.6V7.1zM15.2 5.9c-.3.2-.7.3-1.2.4.2-.3.4-.6.6-.8.2-.2.3-.3.5-.3.1 0 .2 0 .4.2.1.1.1.1.1.2 0 0 0 0 0 .1C15.6 5.7 15.5 5.8 15.2 5.9zM12.3 5.5c.2.2.4.5.6.8-.4-.1-.8-.2-1.2-.4-.3-.1-.4-.2-.4-.3 0 0 0 0 0-.1 0 0 0-.1.1-.2.2-.2.3-.2.4-.2C11.9 5.2 12.1 5.3 12.3 5.5zM11.9 14.7c-.2-.1-.4-.3-.6-.4-1-.7-1.9-1.3-3.5-1-.8.1-1.7.3-2.5.6-.1 0-.2.2-.2.3v3.2c0 .2.1.3.3.3 0 0 3.4.1 4.9 1.4.3.2.6.3 1 .3h3.3c.6 0 1.1-.3 1.5-.7l2.6-3.6c.2-.3.2-.7 0-1-.3-.4-.7-.6-1.1-.5-.1 0-.2.1-.2.1-.6.8-1.4 1.6-1.8 1.6l0 0h-.1l0 0h-.3C14.5 15.4 12.9 15.3 11.9 14.7zM5.9 14.4C6.6 14.2 7.3 14 8 13.9c1.3-.2 2.1.3 3 .9.2.1.4.3.6.4 1.2.8 3.2.8 4 .8.1.1.5.3.3.5-.2.2-1.3.3-2.4.3h-1.4l-2-1.1c-.1-.1-.2-.1-.4 0-.2.1-.2.2-.2.3 0 .1.1.3.2.3l2.1 1.3c.1 0 .1.1.2 0h1.8c1 0 2.5-.1 2.8-.8.1-.4 0-.7-.2-1 .6-.4 1.2-1.1 1.5-1.4.1 0 .3.1.4.2 0 0 0 0 0 .1v.1l-2.6 3.6c-.2.3-.6.5-1 .5h-3.3c-.2 0-.4-.1-.5-.2-1.4-1.2-4.1-1.5-5-1.5C5.9 17.2 5.9 14.4 5.9 14.4z"/>
</svg>
