<svg viewBox="0 0 24 24" xmlns="http://www.w3.org/2000/svg" data-title="Donate" fill="currentColor" stroke="none">
  <path fill-rule="evenodd" clip-rule="evenodd" d="M5.84912 10.8709C5.84912 8.92118 7.35242 7.30786 9.24917 7.30786C10.3864 7.30786 11.3859 7.89145 12.0005 8.77834C12.616 7.89159 13.6154 7.30786 14.7529 7.30786C16.6494 7.30786 18.1531 8.92105 18.151 10.8693L17.776 10.8689H18.151C18.151 10.869 18.151 10.8692 18.151 10.8693C18.1509 12.4442 17.3547 13.5949 16.9546 14.1079L16.6587 13.8776L16.9544 14.1082C16.9544 14.1082 16.9544 14.1081 16.9545 14.1081C15.7482 15.6576 14.0991 16.6289 12.5553 17.5382C12.4186 17.6187 12.2826 17.6988 12.1479 17.7787C12.0269 17.8505 11.8758 17.8485 11.7567 17.7735C11.6004 17.675 11.4423 17.5764 11.2831 17.477C9.80536 16.555 8.22958 15.5719 7.06018 14.0878C6.70444 13.6366 5.84912 12.4774 5.84912 10.8709ZM9.24917 8.05786C7.80324 8.05786 6.59912 9.29783 6.59912 10.8709C6.59912 12.2132 7.31669 13.2018 7.64919 13.6235L7.64928 13.6236C8.73286 14.9988 10.1949 15.9124 11.6881 16.8454C11.7794 16.9025 11.8709 16.9596 11.9624 17.017C12.0273 16.9786 12.0922 16.9404 12.1569 16.9022C13.7216 15.9792 15.2487 15.0784 16.3627 13.6473L16.3629 13.647C16.7305 13.1757 17.401 12.1907 17.401 10.8689V10.8685C17.4027 9.29796 16.199 8.05786 14.7529 8.05786C13.6947 8.05786 12.7685 8.71922 12.344 9.69542C12.2844 9.83241 12.1492 9.92098 11.9998 9.92087C11.8504 9.92076 11.7154 9.832 11.656 9.69493C11.2333 8.71925 10.3074 8.05786 9.24917 8.05786Z"/>
</svg>
