<svg viewBox="0 0 24 24" xmlns="http://www.w3.org/2000/svg" data-title="Doors" fill="currentColor" stroke="none">
  <path fill-rule="evenodd" clip-rule="evenodd" d="M12.1144 5.19995C12.1806 5.19995 12.2455 5.21928 12.3018 5.25577L19.1516 9.69128C19.6789 10.0327 20 10.6367 20 11.2872V15.0223C20 15.1685 19.9191 15.3013 19.7927 15.3627C18.5563 15.9625 17.7092 16.533 17.2571 17.0587C16.8038 17.5858 16.3293 18.5533 15.8482 19.9523C15.7971 20.1009 15.6628 20.2 15.5123 20.2H6.78571C5.79949 20.2 5 19.3605 5 18.325V7.07495C5 6.03942 5.79949 5.19995 6.78571 5.19995H12.1144ZM12.0136 5.94995H6.78571C6.22879 5.94995 5.77111 6.39612 5.71919 6.96661L5.71429 7.07495V18.325C5.71429 18.9463 6.19398 19.45 6.78571 19.45H15.2621L15.3677 19.1621C15.7826 18.0464 16.2002 17.2194 16.628 16.6763L16.727 16.556C17.1861 16.0222 17.9384 15.4856 18.9877 14.9363L19.2857 14.7842V11.2872C19.2857 10.9359 19.1297 10.6073 18.8678 10.3957L18.7767 10.3297L12.0136 5.94995ZM9.875 13.45C10.0821 13.45 10.25 13.6178 10.25 13.825C10.25 14.009 10.1173 14.1622 9.94241 14.1939L9.875 14.2H7.625C7.41789 14.2 7.25 14.0321 7.25 13.825C7.25 13.6409 7.38266 13.4877 7.55759 13.456L7.625 13.45H9.875ZM11.9555 7.44995C12.0243 7.44995 12.0918 7.47128 12.1499 7.51145L16.4948 10.5141C16.8094 10.7315 17 11.109 17 11.5148C17 12.1693 16.5127 12.7 15.9116 12.7H7.61279C7.41242 12.7 7.25 12.5231 7.25 12.3049V9.42526C7.25 8.33433 8.06212 7.44995 9.06393 7.44995H11.9555ZM11.8521 8.19995L9.08258 8.20049C8.48508 8.20049 8.00072 8.74264 8.00072 9.41141L8 11.9498L15.8894 11.95C16.0664 11.95 16.2137 11.8072 16.2442 11.6189L16.25 11.5463C16.25 11.4081 16.1868 11.2795 16.0826 11.2055L11.8521 8.19995Z"/>
</svg>
