<svg viewBox="0 0 24 24" xmlns="http://www.w3.org/2000/svg" data-title="DownloadOutline" fill="currentColor" stroke="none">
  <path d="M11.1111 15.4924V11.9472C11.1111 11.4083 11.5549 10.9715 12.1024 10.9715C12.6498 10.9715 13.0936 11.4083 13.0936 11.9472V15.4924L13.5174 15.0753C13.9046 14.6943 14.5322 14.6943 14.9193 15.0753C15.3064 15.4563 15.3064 16.074 14.9193 16.455L12.8033 18.5376C12.7068 18.6326 12.5952 18.7039 12.4762 18.7516C12.3608 18.7978 12.2346 18.8233 12.1024 18.8233C11.8419 18.8233 11.605 18.7245 11.4281 18.5628C11.418 18.5536 11.4081 18.5442 11.3984 18.5346L9.28541 16.455C8.89829 16.074 8.89829 15.4563 9.28541 15.0753C9.67253 14.6943 10.3002 14.6943 10.6873 15.0753L11.1111 15.4924Z"/>
  <path fill-rule="evenodd" clip-rule="evenodd" d="M13.0777 1.81636C13.105 1.83803 13.1313 1.86121 13.1563 1.88585L20.2097 8.82769C20.2375 8.85514 20.2636 8.88405 20.2878 8.91425C20.4245 9.08535 20.5 9.29762 20.5 9.51755V19.2361C20.5 19.8631 20.2469 20.4644 19.7965 20.9077C19.346 21.351 18.7351 21.6001 18.098 21.6001H5.40196C4.76492 21.6001 4.15397 21.351 3.70352 20.9077C3.25306 20.4644 3 19.8631 3 19.2361V3.96408C3 3.33711 3.25306 2.73582 3.70352 2.29249C4.15397 1.84916 4.76492 1.6001 5.40196 1.6001H12.4553L12.4584 1.6001C12.693 1.60082 12.9083 1.68169 13.0777 1.81636ZM5.10541 3.67221C5.18406 3.5948 5.29073 3.55132 5.40196 3.55132H11.464V9.51754C11.464 10.0564 11.9078 10.4932 12.4553 10.4932H18.5174V19.2361C18.5174 19.3456 18.4732 19.4506 18.3946 19.528C18.3159 19.6054 18.2093 19.6489 18.098 19.6489H5.40196C5.29073 19.6489 5.18406 19.6054 5.10541 19.528C5.02676 19.4506 4.98257 19.3456 4.98257 19.2361V3.96408C4.98257 3.8546 5.02676 3.74962 5.10541 3.67221ZM17.1155 8.54194H13.4466V4.93099L17.1155 8.54194Z"/>
</svg>
