<svg viewBox="0 0 24 24" xmlns="http://www.w3.org/2000/svg" data-title="DumpTruck" fill="currentColor" stroke="none">
  <path d="m16.27,18.14c-.96,0-1.79-.68-1.99-1.62l-.02-.09h-4.53l-.02.09c-.19.94-1.03,1.62-1.99,1.62s-1.79-.68-1.99-1.62l-.02-.09h-1.33c-.22,0-.4-.18-.4-.4v-1.55c0-.22.18-.4.4-.4h8.99v-4.37c0-.41.33-.75.75-.75h3.41c.25,0,.48.12.62.33l1.71,2.56c.08.12.13.27.13.41v3.41c0,.41-.33.75-.75.75h-.98l-.02.09c-.19.94-1.03,1.62-1.99,1.62h0Zm0-3.41c-.76,0-1.39.62-1.39,1.39s.62,1.39,1.39,1.39,1.39-.62,1.39-1.39-.62-1.39-1.39-1.39Zm-8.53,0c-.76,0-1.39.62-1.39,1.39s.62,1.39,1.39,1.39,1.39-.62,1.39-1.39-.62-1.39-1.39-1.39Zm11.63,1.07v-1.49h-.85v-.64h.85v-1.07h-5.33s0,3.2,0,3.2h.24l.02-.09c.19-.94,1.03-1.62,1.99-1.62s1.79.68,1.99,1.62l.02.09h1.09,0Zm-13.63,0l.02-.09c.06-.29.18-.56.37-.81l.13-.17h-1.61v1.07h1.09Zm7.66,0v-1.07h-4.17l.13.17c.19.25.32.52.37.81l.02.09h3.65Zm5.78-3.84l-1.56-2.35h-3.58v2.35h5.14s0,0,0,0Z"/>
  <path d="M5.39 14.67c-.15 0-.29-.04-.42-.12-.22-.14-.36-.36-.38-.62l-.28-3.53c-.04-.52.26-1.01.74-1.21l7.96-3.3s.06-.02.09-.02c0 0 .01 0 .02 0 .12 0 .23.07.28.19.06.15 0 .33-.16.39l-1.22.5.32 4.07c.04.49-.24.95-.7 1.13l-.46.19 1.23 1.84c.06.09.04.21-.05.3-.02.02-.04.04-.07.06-.06.04-.13.06-.19.06-.08 0-.15-.03-.19-.09l-1.29-1.94-.37.15.98 1.46c.05.07.02.18-.07.27-.02.02-.04.04-.07.06-.07.05-.14.07-.21.07s-.12-.02-.15-.07l-1.04-1.56-3.99 1.65c-.08.03-.16.05-.25.06-.02 0-.04 0-.06 0h0Zm-.11-4.93c-.24.1-.39.35-.37.61l.28 3.53c0 .07.04.12.1.16.03.02.07.03.11.03 0 0 0 0 .01 0 .02 0 .04 0 .06-.02l5.94-2.46c.21-.09.35-.3.33-.53l-.3-3.87-6.16 2.55Zm.94 3.8c-.16 0-.29-.12-.3-.28l-.27-3.42c0-.08.02-.16.07-.22.05-.06.12-.1.2-.1 0 0 .02 0 .02 0 .16 0 .29.12.3.28l.27 3.42c.01.13-.06.25-.18.3-.03.01-.06.02-.09.02 0 0-.02 0-.02 0h0Zm1.47-.61c-.16 0-.29-.12-.3-.28l-.27-3.42c0-.08.02-.16.07-.22.05-.06.12-.1.2-.1 0 0 .02 0 .02 0 .16 0 .29.12.3.28l.27 3.42c.01.13-.06.25-.18.3-.03.01-.06.02-.09.02 0 0-.02 0-.02 0h0Zm1.47-.61c-.16 0-.29-.12-.3-.28l-.27-3.42c0-.08.02-.16.07-.22s.12-.1.2-.1c0 0 .02 0 .02 0 .16 0 .29.12.3.28l.27 3.42c.01.13-.06.25-.18.3-.03.01-.06.02-.09.02 0 0-.02 0-.02 0Zm1.47-.61c-.16 0-.29-.12-.3-.28l-.27-3.42c0-.08.02-.16.07-.22.05-.06.12-.1.2-.1 0 0 .02 0 .02 0 .16 0 .29.12.3.28l.27 3.42c.01.13-.06.25-.18.3-.03.01-.06.02-.09.02 0 0-.02 0-.02 0ZM7.73 16.61c.27 0 .49-.22.49-.49s-.22-.49-.49-.49-.49.22-.49.49.22.49.49.49ZM16.27 16.61c.27 0 .49-.22.49-.49s-.22-.49-.49-.49-.49.22-.49.49.22.49.49.49Z"/>
</svg>
