<svg viewBox="0 0 24 24" xmlns="http://www.w3.org/2000/svg" data-title="EducationalLevel" fill="currentColor" stroke="none">
  <path fill-rule="evenodd" clip-rule="evenodd" d="M12.4428 6.22403L12.5037 6.25534L19.8296 10.976L19.8854 11.0202C20.0197 11.1498 20.0385 11.3684 19.9284 11.5211L19.881 11.5751L19.247 12.17L19.25 12.2V15.2C19.25 15.4071 19.0821 15.575 18.875 15.575C18.6909 15.575 18.5378 15.4423 18.506 15.2674L18.5 15.2V12.872L16.9993 14.2827V16.664L17 16.676C17 17.6282 15.1353 18.1685 12.715 18.1986L12.5 18.2C10.0481 18.2 8.11336 17.6869 8.00481 16.7589L8 16.676V14.3727L7.97158 14.35L5.11444 11.5707L5.06897 11.5174C4.96321 11.3666 4.98082 11.1542 5.1098 11.0249L5.16337 10.9806L12.1231 6.25996L12.1832 6.22718C12.2662 6.192 12.359 6.19087 12.4428 6.22403ZM12.5 15.914L12.3104 15.9154C10.3614 15.9438 8.75 16.4026 8.75 16.676C8.75 16.9582 10.4671 17.438 12.5 17.438C14.5329 17.438 16.25 16.9582 16.25 16.676L16.2493 16.6782L16.2499 16.6724C16.2359 16.3988 14.6329 15.9445 12.6949 15.9155L12.5 15.914ZM8.79233 13.4247L8.75 13.4525L8.75047 15.7669C9.50309 15.3894 10.7584 15.1778 12.223 15.1542L12.5 15.152L12.7034 15.1532C14.1994 15.1708 15.4843 15.3831 16.2495 15.7669L16.25 13.4513L16.2084 13.4238C13.7375 11.8078 11.2878 11.8078 8.79233 13.4247ZM12.3214 7.01745L5.93787 11.3487L8 13.355L8.00007 13.2381L8.0015 13.2125L8.00075 13.238L8.00375 13.1922L8.00929 13.1624L8.01863 13.1284C8.02183 13.1182 8.02564 13.1079 8.02987 13.0978L8.04455 13.0668C8.04904 13.0583 8.05399 13.0498 8.05925 13.0414C8.06552 13.0314 8.07232 13.0216 8.07961 13.0122C8.08633 13.0036 8.09336 12.9953 8.10073 12.9872C8.10753 12.9797 8.11471 12.9725 8.12222 12.9656C8.13114 12.9574 8.14032 12.9496 8.14985 12.9424C8.15495 12.9385 8.16028 12.9346 8.16574 12.9309C11.0561 10.9561 13.9724 10.9561 16.8357 12.9319C16.9179 12.9886 16.9737 13.0755 16.9928 13.1726L17 13.2471L16.9993 13.2762L19.0478 11.3517L12.3214 7.01745Z"/>
</svg>
