<svg viewBox="0 0 24 24" xmlns="http://www.w3.org/2000/svg" data-title="Energy" fill="currentColor" stroke="none">
  <path fill-rule="evenodd" clip-rule="evenodd" d="M18.875 8.94995C19.0591 8.94995 19.2122 9.08261 19.244 9.25754L19.25 9.32495V10.45H19.5833C19.7879 10.45 19.958 10.5826 19.9933 10.7575L20 10.825V19.825C20 20.009 19.8526 20.1622 19.6582 20.1939L19.5833 20.2H12.9167C12.7121 20.2 12.542 20.0673 12.5067 19.8924L12.5 19.825V14.1993C12.5 14.1304 12.5211 14.0633 12.5602 14.0051L12.6053 13.9501L15.9386 10.5758C16.0019 10.5118 16.087 10.4696 16.1795 10.4554L16.25 10.45H17V9.32495C17 9.14086 17.1327 8.98774 17.3076 8.95599L17.375 8.94995H18.875ZM19.25 11.2H16.442L13.25 14.341V19.45H19.25V11.2ZM18.125 12.7C18.3091 12.7 18.4622 12.8179 18.494 12.9734L18.5 13.0333V18.3666C18.5 18.5303 18.3673 18.6664 18.1924 18.6946L18.125 18.7H14.375C14.1909 18.7 14.0378 18.582 14.006 18.4265L14 18.3666V15.0329C14 14.9744 14.0173 14.9173 14.0497 14.8671L14.0869 14.8195L15.9619 12.8199C16.0189 12.7591 16.0979 12.7188 16.1841 12.7051L16.25 12.7H18.125ZM17.75 13.45H16.4255L14.75 15.1728V17.95H17.75V13.45ZM14.75 10.825C14.75 11.0321 14.5821 11.2 14.375 11.2C14.1909 11.2 14.0378 11.0673 14.006 10.8924L14 10.825V8.94995H5.75V14.95H10.9929C11.177 14.95 11.3301 15.0826 11.3618 15.2575L11.3679 15.325C11.3679 15.509 11.2352 15.6622 11.0603 15.6939L10.9929 15.7H5.375C5.19091 15.7 5.03779 15.5673 5.00604 15.3924L5 15.325V7.07495C5 6.89086 5.13266 6.73774 5.30759 6.70599L5.375 6.69995H5.75V5.57495C5.75 5.39086 5.88266 5.23774 6.05759 5.20599L6.125 5.19995H7.625C7.80909 5.19995 7.96221 5.33261 7.99396 5.50754L8 5.57495V6.69995H11.75V5.57495C11.75 5.39086 11.8827 5.23774 12.0576 5.20599L12.125 5.19995H13.625C13.8091 5.19995 13.9622 5.33261 13.994 5.50754L14 5.57495V6.69995H14.375C14.5591 6.69995 14.7122 6.83261 14.744 7.00754L14.75 7.07495V10.825ZM7.625 10.45C7.80909 10.45 7.96221 10.5826 7.99396 10.7575L8 10.825V11.2H8.375C8.58211 11.2 8.75 11.3678 8.75 11.575C8.75 11.759 8.61734 11.9122 8.44241 11.9439L8.375 11.95H8V12.325C8 12.5321 7.83211 12.7 7.625 12.7C7.44091 12.7 7.28779 12.5673 7.25604 12.3924L7.25 12.325V11.95H6.875C6.66789 11.95 6.5 11.7821 6.5 11.575C6.5 11.3909 6.63266 11.2377 6.80759 11.206L6.875 11.2H7.25V10.825C7.25 10.6178 7.41789 10.45 7.625 10.45ZM12.875 11.2C13.0821 11.2 13.25 11.3678 13.25 11.575C13.25 11.759 13.1173 11.9122 12.9424 11.9439L12.875 11.95H11.375C11.1679 11.95 11 11.7821 11 11.575C11 11.3909 11.1327 11.2377 11.3076 11.206L11.375 11.2H12.875ZM18.5 9.69995H17.75V10.45H18.5V9.69995ZM14 7.44995H5.75V8.19995H14V7.44995ZM7.25 5.94995H6.5V6.69995H7.25V5.94995ZM13.25 5.94995H12.5V6.69995H13.25V5.94995Z"/>
</svg>
