<svg viewBox="0 0 24 24" xmlns="http://www.w3.org/2000/svg" data-title="EngineStart" fill="currentColor" stroke="none">
  <path fill-rule="evenodd" d="m11.36,11.78c0,.17.07.34.19.46.12.12.28.19.45.19s.33-.07.45-.19c.12-.12.19-.29.19-.46v-5.63c0-.17-.07-.34-.19-.46-.12-.12-.28-.19-.45-.19s-.33.07-.45.19c-.12.12-.19.29-.19.46v5.63Zm3.46,4.47c-.51.38-1.08.66-1.7.81-.61.15-1.25.18-1.88.08-.62-.1-1.22-.33-1.76-.67-.54-.34-1-.79-1.36-1.31-.36-.52-.62-1.12-.75-1.74-.13-.63-.14-1.27-.01-1.9.12-.63.37-1.22.72-1.75.35-.53.81-.98,1.34-1.33.07-.05.14-.11.18-.18.05-.07.08-.15.1-.23.02-.08.02-.17,0-.26-.02-.09-.05-.17-.09-.24s-.11-.13-.18-.18c-.07-.05-.15-.08-.23-.1-.08-.02-.17-.02-.25,0-.08.02-.16.05-.23.1-1.08.71-1.91,1.76-2.36,2.99-.45,1.23-.49,2.57-.12,3.82.37,1.25,1.13,2.35,2.16,3.14,1.04.78,2.3,1.2,3.59,1.2s2.55-.42,3.59-1.2c1.04-.78,1.8-1.88,2.16-3.14.37-1.25.33-2.59-.12-3.82-.45-1.23-1.27-2.28-2.36-2.99-.14-.09-.31-.11-.48-.08-.16.04-.3.14-.4.28-.09.14-.12.31-.09.48.03.17.13.31.26.41.64.42,1.16.99,1.54,1.66.37.67.58,1.42.6,2.19s-.13,1.53-.46,2.22-.82,1.29-1.43,1.75h0Z"/>
</svg>
