<svg viewBox="0 0 24 24" xmlns="http://www.w3.org/2000/svg" data-title="EquipmentBaby" fill="currentColor" stroke="none">
  <path fill-rule="evenodd" d="m18.48,4.5c.28,0,.54.11.73.3.34.36.5,1.03-.19,1.72l-.03.03s-.05.06-.09.09c-.16.15-.28.34-.33.54-.11.4-.33.78-.63,1.09,0,.01-.02.03-.03.05.08.17.12.36.12.57,0,.32-.11.62-.31.86.04.1.06.21.06.31,0,.2-.09.4-.24.56l-.49.49s-.09.08-.14.11c.13.36.04.77-.24,1.04l-6.94,6.95c-.22.2-.47.3-.73.3s-.54-.11-.73-.3l-3.48-3.46c-.19-.19-.29-.44-.29-.72s.1-.53.29-.72l6.98-6.97c.3-.27.66-.36,1.02-.25.03-.05.07-.1.11-.15l.49-.49c.22-.24.58-.3.89-.15.24-.2.53-.3.85-.3.19,0,.38.04.55.12.02-.02.03-.04.05-.05.3-.3.69-.53,1.08-.63.2-.05.4-.17.56-.35l.1-.1c.31-.32.65-.49.99-.49Zm-5.98,3.26c-.08,0-.14.03-.2.08l-6.98,6.97c-.06.06-.09.13-.09.21s.03.15.09.21l3.46,3.46c.11.1.31.1.42,0l6.98-6.95c.06-.06.09-.13.09-.21s-.03-.15-.09-.21l-3.48-3.48s-.13-.08-.2-.08Zm-3.51,8.02c.14-.14.36-.14.51,0h0s.89.89.89.89c.07.07.11.16.11.25s-.04.19-.11.25c-.07.07-.17.11-.26.11-.08,0-.17-.04-.24-.09h0l-.91-.91c-.07-.07-.11-.16-.11-.25s.04-.19.11-.25Zm1.15-1.13c.14-.14.37-.14.51,0h0l.87.89c.07.07.11.16.11.25s-.04.19-.11.25c-.07.07-.16.11-.25.11s-.19-.04-.25-.11l-.87-.89c-.07-.07-.1-.16-.11-.25,0-.1.04-.19.11-.26Zm1.13-1.13c.14-.14.37-.14.51,0l.89.89c.14.14.14.37,0,.51-.07.07-.17.11-.25.11-.08,0-.17-.04-.24-.09h0l-.91-.91c-.14-.14-.14-.37,0-.51Zm1.14-1.15c.14-.14.37-.14.51,0l.89.89c.14.14.14.37,0,.51-.07.07-.17.11-.26.11-.07,0-.18-.03-.26-.11l-.89-.89c-.07-.07-.11-.16-.11-.25s.04-.19.11-.25Zm1.13-1.13c.14-.14.37-.14.51,0l.89.89c.14.14.14.37,0,.51-.07.07-.17.11-.26.11-.07,0-.18-.03-.26-.11l-.89-.89c-.07-.07-.11-.16-.11-.25s.04-.19.11-.26Zm.39-4.3s-.04.01-.05.03l-.49.49s-.02.03-.02.05c0,0,0,.01,0,.02l3.08,3.09s.07.02.1,0l.49-.49s.03-.04.03-.05c0,0,0-.02-.02-.05l-3.07-3.06s-.04-.02-.05-.02Zm1.64-.01c-.2-.2-.51-.24-.73-.12l2.37,2.4c.05-.09.07-.18.07-.29,0-.17-.04-.3-.15-.41l-.03-.03c-.12-.13-.65-.66-1.07-1.09l-.22-.22s-.06-.06-.09-.09l-.15-.15Zm3.12-1.61c-.23-.21-.54.03-.7.19l-.08.08c-.26.29-.58.48-.92.56-.26.06-.52.22-.74.44l1.18,1.17c.22-.22.37-.48.44-.74.08-.33.27-.65.56-.92l.07-.07c.19-.19.28-.36.28-.5,0-.08-.03-.15-.09-.21Z"/>
</svg>
