<svg viewBox="0 0 24 24" xmlns="http://www.w3.org/2000/svg" data-title="Equipment" fill="currentColor" stroke="none">
  <path d="m22.79,18.57h-3.11V4.27c0-.65-.55-1.15-1.21-1.15s-1.21.51-1.21,1.15v10.63c-.25-.11-.51-.21-.78-.28l-1.95-9.8c-.39-1.94-2.18-3.33-4.26-3.33h-3.88c-1.13,0-2.07.87-2.07,1.97v6.98h-1.38c-1.61,0-2.94,1.24-2.94,2.77v4.88c0,.71.4,1.31.97,1.66.4,1.58,1.91,2.74,3.69,2.74.91,0,1.73-.31,2.38-.82h5.88c.71.5,1.58.82,2.53.82,1.39,0,2.63-.64,3.4-1.63h3.94c.66,0,1.21-.51,1.21-1.15s-.55-1.15-1.21-1.15h0ZM6.74,10.46V3.8h3.54c.93,0,1.71.62,1.88,1.46l1.84,9.25h-1.56c-.29,0-.6-.12-.92-.41-.33-.29-.66-.73-1.03-1.36-.76-1.33-2.18-2.17-3.75-2.28Zm4.6,8.92h-2.91c.02-.15.03-.31.03-.47,0-1.99-1.72-3.59-3.8-3.59-.84,0-1.61.27-2.24.71v-2.8c0-.25.22-.48.52-.48h3.45c.83,0,1.58.43,1.97,1.11.19.33.58.99,1.17,1.6.54.55,1.25,1.07,2.16,1.27-.29.54-.47,1.15-.47,1.8,0,.31.05.6.12.88h0Zm-6.68-1.76c.77,0,1.38.59,1.38,1.29s-.61,1.29-1.38,1.29-1.38-.59-1.38-1.29.61-1.29,1.38-1.29Zm10.79,2.57c-1.01,0-1.81-.77-1.81-1.7s.8-1.7,1.81-1.7,1.81.77,1.81,1.7-.8,1.7-1.81,1.7Z"/>
</svg>
