<svg viewBox="0 0 24 24" xmlns="http://www.w3.org/2000/svg" data-title="ErrorPhotoOutline" fill="currentColor" stroke="none">
  <path fill-rule="evenodd" clip-rule="evenodd" d="M13.4999 14.3204L12.7524 15.8154C12.3155 15.8639 11.8838 15.951 11.4624 16.0758C11.691 16.4312 11.8925 16.8037 12.065 17.1901L10.7039 19.9123H3.76967C2.79806 19.9123 2.01041 19.1241 2.01041 18.1518V13.2406C1.99622 13.1574 1.99685 13.075 2.01041 12.9961V6.76048C2.01041 5.78819 2.79806 5 3.76967 5H15.1532C16.1248 5 16.9124 5.78819 16.9124 6.76048L16.9124 9.47369C16.6178 9.47369 16.329 9.55499 16.0776 9.70864C15.8263 9.86228 15.6222 10.0823 15.4878 10.3445L15.4636 10.3929V6.76048C15.4636 6.5889 15.3246 6.44981 15.1532 6.44981H3.76967C3.59821 6.44981 3.45922 6.5889 3.45922 6.76048V12.2848C3.72852 12.2605 3.99893 12.2486 4.26962 12.249C6.24346 12.2065 8.1685 12.8661 9.7022 14.1104C9.99048 14.3444 10.2614 14.5961 10.5138 14.8635C11.4698 14.5129 12.4798 14.3288 13.4999 14.3204ZM8.78973 15.2366C9.82838 16.0793 10.5945 17.2018 11.0039 18.4625H3.76967C3.59821 18.4625 3.45922 18.3234 3.45922 18.1518V13.7416C3.72997 13.7124 4.00227 13.6981 4.27489 13.6988L4.29321 13.6987C5.92685 13.6617 7.52047 14.2068 8.78973 15.2366Z"/>
  <path fill-rule="evenodd" clip-rule="evenodd" d="M11.7796 7.58894C10.3793 7.58894 9.24417 8.72487 9.24417 10.1261C9.24417 11.5273 10.3793 12.6633 11.7796 12.6633C13.1799 12.6633 14.315 11.5273 14.315 10.1261C14.315 8.72487 13.1799 7.58894 11.7796 7.58894ZM10.693 10.1261C10.693 9.52557 11.1795 9.03875 11.7796 9.03875C12.3797 9.03875 12.8662 9.52557 12.8662 10.1261C12.8662 10.7266 12.3797 11.2135 11.7796 11.2135C11.1795 11.2135 10.693 10.7266 10.693 10.1261Z"/>
  <path d="M16.291 14.0323V16.3106C16.291 16.6502 16.5727 16.9319 16.9124 16.9319 17.252 16.9319 17.5337 16.6502 17.5337 16.3106V14.0323C17.5337 13.6926 17.252 13.4109 16.9124 13.4109 16.5727 13.4109 16.291 13.6926 16.291 14.0323ZM16.9124 18.7752C17.3241 18.7752 17.658 18.4414 17.658 18.0296 17.658 17.6178 17.3241 17.2839 16.9124 17.2839 16.5006 17.2839 16.1667 17.6178 16.1667 18.0296 16.1667 18.4414 16.5006 18.7752 16.9124 18.7752Z"/>
  <path fill-rule="evenodd" clip-rule="evenodd" d="M21.8666 18.6364L18.0805 11.0559C17.9728 10.8405 17.8071 10.6583 17.6 10.534C17.1857 10.2855 16.6472 10.2855 16.233 10.534C16.0259 10.6583 15.8602 10.8405 15.7525 11.0559L11.9581 18.6364C11.8587 18.8352 11.809 19.0589 11.8173 19.2826C11.8256 19.5063 11.8918 19.7217 12.0078 19.9122C12.1238 20.1028 12.2895 20.2602 12.48 20.3679C12.6706 20.4756 12.8943 20.5336 13.118 20.5336H20.6984C20.9221 20.5336 21.1375 20.4756 21.3363 20.3679C21.5352 20.2602 21.6926 20.1028 21.8086 19.9122C21.9245 19.7217 21.9908 19.5063 21.9991 19.2826C22.0074 19.0589 21.9577 18.8352 21.8583 18.6364H21.8666ZM20.7647 19.2246C20.7647 19.2246 20.7647 19.2495 20.7564 19.2577C20.7564 19.2633 20.7491 19.2688 20.7417 19.2743C20.738 19.2771 20.7343 19.2798 20.7316 19.2826C20.7274 19.2826 20.7212 19.2847 20.715 19.2867C20.7088 19.2888 20.7026 19.2909 20.6984 19.2909H13.0931C13.0876 19.2909 13.0821 19.2835 13.0765 19.2762C13.0738 19.2725 13.071 19.2688 13.0683 19.266C13.0683 19.2626 13.0668 19.2592 13.0652 19.2551C13.0628 19.2495 13.06 19.2426 13.06 19.2329V19.1998L16.8543 11.6193L16.8792 11.5944C16.8833 11.5944 16.8896 11.5924 16.8958 11.5903C16.902 11.5882 16.9082 11.5862 16.9123 11.5862C16.9206 11.5862 16.9372 11.5862 16.9455 11.5944C16.951 11.5944 16.9565 11.6018 16.962 11.6092L16.9658 11.6142C16.9673 11.616 16.9688 11.6178 16.9703 11.6193L20.7564 19.1915V19.2246H20.7647Z"/>
</svg>
