<svg viewBox="0 0 24 24" xmlns="http://www.w3.org/2000/svg" data-title="Euro" fill="currentColor" stroke="none">
  <path d="M16.7701 4.00002C17.4679 3.99829 18.1612 4.11655 18.8206 4.34988C19.3322 4.53088 19.8907 4.25463 20.0682 3.73285C20.2456 3.21106 19.9748 2.64134 19.4632 2.46034C18.5875 2.15046 17.6664 1.99484 16.7394 2.00013C16.7262 2.00021 16.713 2.00055 16.6998 2.00117C14.2003 2.11846 11.848 3.24045 10.1573 5.12182C9.21218 6.17345 8.51677 7.41452 8.10508 8.75003H4.98039C4.43893 8.75003 4 9.19775 4 9.75003C4 10.3023 4.43893 10.75 4.98039 10.75H7.71008C7.67232 11.1633 7.66056 11.5808 7.67565 12C7.66056 12.4193 7.67232 12.8368 7.71008 13.2501H4.98039C4.43893 13.2501 4 13.6978 4 14.2501C4 14.8023 4.43893 15.2501 4.98039 15.2501H8.10508C8.51677 16.5856 9.21218 17.8266 10.1573 18.8782C11.848 20.7596 14.2003 21.8816 16.6998 21.9989C16.7083 21.9993 16.7169 21.9996 16.7254 21.9998L16.7416 22C17.8878 22.0039 19.0226 21.7667 20.0748 21.303C20.5719 21.0839 20.8008 20.4954 20.586 19.9884C20.3713 19.4814 19.7943 19.2479 19.2972 19.467C18.4989 19.8188 17.6385 20.0001 16.769 20C14.7951 19.9017 12.9385 19.0132 11.6027 17.5268C10.9969 16.8528 10.5205 16.0806 10.1878 15.2501H13.8038C14.3452 15.2501 14.7842 14.8023 14.7842 14.2501C14.7842 13.6978 14.3452 13.2501 13.8038 13.2501H9.68159C9.63553 12.8513 9.62003 12.4471 9.63634 12.041C9.63743 12.0137 9.63743 11.9864 9.63634 11.9591C9.62003 11.5529 9.63553 11.1487 9.68159 10.75H13.8038C14.3452 10.75 14.7842 10.3023 14.7842 9.75003C14.7842 9.19775 14.3452 8.75003 13.8038 8.75003H10.1878C10.5205 7.91948 10.9969 7.1473 11.6027 6.47327C12.9387 4.98662 14.7957 4.09801 16.7701 4.00002Z"/>
</svg>
