<svg viewBox="0 0 24 24" xmlns="http://www.w3.org/2000/svg" data-title="Experience" fill="currentColor" stroke="none">
  <path fill-rule="evenodd" d="m13.81,20.49h-.05s-.05-.04-.07-.05l-1.7-1.04-1.66,1.04s-.01,0-.01,0h.01c-.06.03-.12.05-.19.05-.01,0-.02,0-.02,0-.04,0-.07,0-.11-.02-.01,0-.02,0-.03-.01,0,0-.02,0-.03-.02,0,0-.02,0-.02-.01-.01,0-.02-.01-.03-.02,0,0-.02-.02-.03-.03,0,0,0-.01-.01-.02-.01-.01-.02-.02-.03-.04v-.02s-.02-.02-.03-.03v.03c-.02-.06-.04-.13-.04-.19v-3.87s0-.07,0-.07c.03-.18.18-.32.37-.32.21,0,.38.17.38.39v3.18s1.29-.8,1.29-.8c.1-.06.22-.07.32-.03l.06.03,1.33.81v-3.18s0-.07,0-.07c.03-.18.18-.32.37-.32.21,0,.38.17.38.39v3.86s0,.09-.02.13c-.02.05-.04.09-.07.13l.04-.05s-.03.05-.05.07c0,.01-.02.02-.03.03,0,0-.02.01-.02.02,0,0-.02.01-.03.02-.01,0-.03.01-.04.02,0,0-.01,0-.02,0-.04.01-.08.02-.12.02h-.01s-.05,0-.07,0Zm-1.81-16.99c3.31,0,6,2.77,6,6.18s-2.69,6.18-6,6.18-6-2.77-6-6.18,2.69-6.18,6-6.18Zm0,.77c-2.9,0-5.25,2.42-5.25,5.41s2.35,5.41,5.25,5.41,5.25-2.42,5.25-5.41-2.35-5.41-5.25-5.41Zm.01,1.55c.31,0,.6.21.71.53l.52,1.73h1.74c.33,0,.62.23.73.56.1.34-.01.71-.28.92l-1.35,1.11.5,1.79c.1.34,0,.71-.28.92-.26.23-.63.23-.89,0l-1.4-1.07-1.42,1.07c-.12.1-.28.16-.43.16-.24,0-.46-.14-.6-.35-.14-.21-.18-.48-.1-.73l.52-1.73-1.42-1.14c-.27-.21-.38-.58-.28-.92.1-.34.4-.57.73-.56h1.69l.6-1.77c.11-.32.39-.53.71-.53Zm-.03.77l-.57,1.76c-.1.33-.38.56-.71.56h-1.71v.11l1.34,1.1c.27.21.38.57.28.91l-.52,1.69.08.06,1.37-1.07c.27-.2.63-.2.89,0l1.37,1.07.42-.18-.33.11-.52-1.72c-.09-.32.02-.67.28-.87l1.37-1.06v-.11h-1.72c-.32,0-.61-.23-.71-.56l-.54-1.76s-.03-.04-.05-.04Z"/>
</svg>
