<svg viewBox="0 0 24 24" xmlns="http://www.w3.org/2000/svg" data-title="Export" fill="currentColor" stroke="none">
  <path fill-rule="evenodd" clip-rule="evenodd" d="M12 2.39987C12.2919 2.39987 12.5693 2.52743 12.7593 2.74908L16.9131 7.59524C17.2725 8.01457 17.224 8.64587 16.8047 9.00529C16.3853 9.36471 15.754 9.31615 15.3946 8.89683L13.0001 6.10318L13.0002 15.8614C13.0002 16.4137 12.5525 16.8614 12.0002 16.8614C11.4479 16.8614 11.0002 16.4137 11.0002 15.8614L11 6.10309L8.60542 8.89683C8.246 9.31615 7.6147 9.36471 7.19537 9.00529C6.77604 8.64587 6.72748 8.01457 7.08691 7.59524L11.2408 2.74908C11.4307 2.52743 11.7081 2.39987 12 2.39987ZM3 16.246C3.55229 16.246 4 16.6937 4 17.246V18.6306C4 19.0999 4.1864 19.5499 4.5182 19.8817C4.85 20.2135 5.30001 20.3999 5.76924 20.3999H18.2308C18.7 20.3999 19.15 20.2135 19.4818 19.8817C19.8136 19.5499 20 19.0999 20 18.6306V17.246C20 16.6937 20.4477 16.246 21 16.246C21.5523 16.246 22 16.6937 22 17.246V18.6306C22 19.6303 21.6029 20.589 20.896 21.2959C20.1892 22.0028 19.2305 22.3999 18.2308 22.3999H5.76924C4.76957 22.3999 3.81085 22.0028 3.10398 21.2959C2.39712 20.589 2 19.6303 2 18.6306V17.246C2 16.6937 2.44772 16.246 3 16.246Z"/>
</svg>
