<svg viewBox="0 0 24 24" xmlns="http://www.w3.org/2000/svg" data-title="EyeOutline" fill="currentColor" stroke="none">
  <path d="M21.3909 10.251C20.6316 9.4092 19.3634 8.1592 17.7697 7.12178C16.1761 6.08437 14.1902 5.20001 11.9958 5.20001C9.80142 5.20001 7.80726 6.08437 6.22194 7.12178C4.62829 8.1592 3.36838 9.4092 2.60909 10.2425C2.21694 10.6932 2 11.2714 2 11.8667C2 12.4619 2.21694 13.0401 2.60909 13.4823C3.36838 14.3242 4.62829 15.5742 6.23029 16.6116C7.82395 17.649 9.80976 18.5333 12.0042 18.5333C14.1986 18.5333 16.1927 17.6575 17.7781 16.6116C19.3717 15.5742 20.6316 14.3242 21.3909 13.4908C21.7831 13.0401 22 12.4619 22 11.8667C22 11.2714 21.7831 10.6932 21.3909 10.251ZM11.9875 16.5521C10.302 16.5521 8.67501 15.8718 7.26491 14.9449C5.86316 14.0265 4.72841 12.9126 4.02753 12.1473C3.96078 12.0708 3.92741 11.9687 3.92741 11.8667C3.92741 11.7646 3.96078 11.6626 4.02753 11.5861C4.72841 10.8208 5.86316 9.70681 7.26491 8.78845C8.67501 7.86158 10.2937 7.1813 11.9875 7.1813C13.6813 7.1813 15.3 7.86158 16.7101 8.78845C18.1118 9.70681 19.2466 10.8208 19.9474 11.5861C20.0142 11.6626 20.0476 11.7646 20.0476 11.8667C20.0476 11.9687 20.0142 12.0708 19.9474 12.1473C19.2466 12.9126 18.1118 14.0265 16.7101 14.9449C15.3 15.8718 13.6813 16.5521 11.9875 16.5521Z"/>
  <path d="M11.9875 8.03164C9.90989 8.03164 8.22445 9.74933 8.22445 11.8667C8.22445 13.984 9.90989 15.7017 11.9875 15.7017C14.0651 15.7017 15.7505 13.984 15.7505 11.8667C15.7505 9.74933 14.0651 8.03164 11.9875 8.03164ZM11.9875 13.7119C10.9862 13.7119 10.1769 12.8871 10.1769 11.8667C10.1769 10.8463 10.9862 10.0214 11.9875 10.0214C12.9887 10.0214 13.7981 10.8463 13.7981 11.8667C13.7981 12.8871 12.9887 13.7119 11.9875 13.7119Z"/>
</svg>
