<svg viewBox="0 0 24 24" xmlns="http://www.w3.org/2000/svg" data-title="EyeOffFill" fill="currentColor" stroke="none">
  <path d="M21.04 10.56c-.32-.42-.8-.93-1.36-1.44-.24-.25-.72-.25-.96 0l-8.08 8.16c-.32.25-.32.76 0 1.1.16.17.4.25.64.25.08 0 .08 0 .16 0H12c2.08 0 4-.85 5.52-1.95 1.52-1.02 2.8-2.29 3.52-3.14.32-.42.56-.93.56-1.44C21.6 11.49 21.44 10.9 21.04 10.56zM20 3.5c-.32-.34-.72-.34-1.04 0l-2.8 3.06c-1.28-.68-2.72-1.1-4.16-1.1-2.08 0-4 .85-5.52 1.95-1.52 1.02-2.8 2.29-3.52 3.14C2.64 10.98 2.4 11.49 2.4 12s.16 1.1.56 1.44c1.04 1.27 2.32 2.29 3.6 3.23L4 19.39c-.32.34-.32.76 0 1.1.32.34.72.34 1.04 0L20 4.52C20.32 4.27 20.32 3.76 20 3.5zM9.6 13.44C9.36 13.02 9.2 12.51 9.2 12c0-.76.32-1.53.8-2.04.48-.51 1.2-.85 1.92-.85.48 0 .96.17 1.36.42L9.6 13.44z"/>
</svg>
