<svg viewBox="0 0 24 24" xmlns="http://www.w3.org/2000/svg" data-title="EyeOffOutline" fill="currentColor" stroke="none">
  <path fill-rule="evenodd" clip-rule="evenodd" d="M21.3833 10.8029C21.0333 10.4329 20.5667 9.96199 20.0083 9.48268 19.6083 9.13791 18.9917 9.17154 18.6333 9.55836 18.275 9.94517 18.3083 10.5422 18.7083 10.887 19.2083 11.3158 19.625 11.7363 19.9417 12.0727 20.0083 12.1483 20.05 12.2408 20.05 12.3417 20.05 12.4427 20.0167 12.5351 19.95 12.6108 19.25 13.334 18.1167 14.3935 16.7167 15.2597 15.3083 16.1342 13.6917 16.7817 12 16.7817H11.4417C10.9 16.7817 10.4667 17.2022 10.4667 17.7235 10.4667 18.2449 10.9 18.6653 11.4417 18.6653H12C14.1917 18.6653 16.1833 17.8328 17.7667 16.849 19.3583 15.8651 20.6167 14.6794 21.3833 13.889H21.3917C21.7833 13.4601 22 12.9136 22 12.3502 22 11.7867 21.7833 11.2402 21.3917 10.8197L21.3833 10.8029ZM10.725 14.8981 20.3333 5.61453C20.7167 5.24453 20.7167 4.64749 20.3333 4.2775 19.95 3.9075 19.3333 3.9075 18.95 4.2775L16.15 6.9852C14.8583 6.38816 13.45 6.04339 12.0167 6.01816H12C9.80833 6.01816 7.81667 6.85066 6.23333 7.83451 4.64167 8.81837 3.38333 10.004 2.61667 10.7945H2.60833C2.21667 11.2233 2 11.7699 2 12.3333 2 12.8967 2.21667 13.4433 2.60833 13.8638 3.63333 14.9569 4.80833 15.9072 6.075 16.7144L3.65 19.0521C3.26667 19.4221 3.26667 20.0192 3.65 20.3892 4.03333 20.7592 4.65 20.7592 5.03333 20.3892L10.725 14.8897V14.8981ZM10.1917 12.3333C10.1917 11.8708 10.3833 11.4252 10.7167 11.0972 11.0583 10.7693 11.5167 10.5843 11.9917 10.5843 12.125 10.5843 12.25 10.6011 12.375 10.6263L10.2333 12.6949C10.2083 12.5772 10.1917 12.4511 10.1833 12.3249L10.1917 12.3333ZM4.05833 12.6024C3.99167 12.5267 3.95 12.4342 3.95 12.3333 3.95 12.2324 3.98333 12.1399 4.05 12.0642 4.75 11.3411 5.88333 10.2815 7.28333 9.41541 8.69167 8.54087 10.3083 7.90178 11.9833 7.89337 12.9083 7.91019 13.8083 8.09519 14.6667 8.40632L13.85 9.19677C13.2917 8.88564 12.6583 8.70064 11.9917 8.69223 10.9917 8.69223 10.0417 9.07064 9.33333 9.75177 8.625 10.4329 8.23333 11.3579 8.23333 12.3165 8.23333 12.9556 8.425 13.5695 8.75 14.116L7.49167 15.3354C6.225 14.5701 5.05833 13.6535 4.05 12.5856L4.05833 12.6024Z"/>
  <path fill-rule="evenodd" clip-rule="evenodd" d="M13.5667 13.2079C13.4083 13.477 13.175 13.6956 12.9 13.847C12.4333 14.1076 12.2667 14.6794 12.5333 15.1335C12.8 15.5876 13.3917 15.7474 13.8667 15.4867C14.4417 15.1672 14.925 14.7131 15.2583 14.1581C15.5333 13.7124 15.375 13.1322 14.9083 12.8715C14.4417 12.6108 13.8417 12.7622 13.575 13.2079H13.5667Z"/>
</svg>
