<svg viewBox="0 0 24 24" xmlns="http://www.w3.org/2000/svg" data-title="FacebookOutline" fill="currentColor" stroke="none">
  <path d="M19.6167 22.3999H15.4667C14.9167 22.3999 14.4667 21.9499 14.4667 21.3999V14.8332C14.4667 14.2832 14.9167 13.8332 15.4667 13.8332H16.2917V13.0749H15.5167C14.9667 13.0749 14.5167 12.6249 14.5167 12.0749V10.7749C14.5167 9.34157 15.2083 8.60824 16.5667 8.60824H17.1V7.8499H15.6667C15.3083 7.83324 14.9917 7.8999 14.6917 8.01657C14.4 8.14157 14.1333 8.3249 13.9167 8.55824C13.7 8.79157 13.5333 9.0749 13.4417 9.3749C13.3417 9.68324 13.3167 9.9999 13.35 10.3166C13.35 10.3582 13.35 10.3999 13.35 10.4416V12.0582C13.35 12.6082 12.9 13.0582 12.35 13.0582H11.6083V13.8166H12.35C12.9 13.8166 13.35 14.2666 13.35 14.8166V21.3832C13.35 21.9332 12.9 22.3832 12.35 22.3832H4.38333C3.75 22.3832 3.15 22.1332 2.7 21.6832C2.25 21.2332 2 20.6332 2 19.9999V4.78324C2 4.1499 2.25 3.5499 2.7 3.0999C3.15 2.6499 3.75 2.3999 4.38333 2.3999H19.6167C20.25 2.3999 20.85 2.6499 21.3 3.0999C21.75 3.5499 22 4.1499 22 4.78324V20.0166C22 20.6499 21.75 21.2499 21.3 21.6999C20.85 22.1499 20.25 22.3999 19.6167 22.3999ZM16.4667 20.3999H19.6167C19.7167 20.3999 19.8167 20.3582 19.8917 20.2832C19.9667 20.2082 20 20.1166 20 20.0082V4.78324C20 4.68324 19.9583 4.58324 19.8917 4.50824C19.825 4.43324 19.725 4.3999 19.6167 4.3999H4.38333C4.28333 4.3999 4.18333 4.44157 4.10833 4.50824C4.03333 4.58324 4 4.6749 4 4.78324V20.0166C4 20.1166 4.04167 20.2166 4.10833 20.2916C4.18333 20.3666 4.275 20.3999 4.38333 20.3999H11.3583V15.8332C11.1667 15.8249 10.9583 15.7832 10.7667 15.6999C10.5417 15.6082 10.3417 15.4749 10.1667 15.3082C9.99167 15.1332 9.85 14.9332 9.75833 14.7082C9.65833 14.4749 9.61667 14.2416 9.61667 13.9916V12.9249C9.61667 12.6832 9.66667 12.4416 9.75833 12.2166C9.85833 11.9832 9.99167 11.7832 10.1667 11.6082C10.3417 11.4416 10.5417 11.2999 10.775 11.2082C10.9667 11.1332 11.1583 11.0916 11.3583 11.0832V10.5166C11.2917 9.9249 11.3583 9.34157 11.5333 8.78324C11.7167 8.20824 12.0333 7.66657 12.4417 7.21657C12.85 6.7749 13.3583 6.41657 13.9167 6.18324C14.475 5.9499 15.1 5.84157 15.6917 5.85824H17.25C17.5333 5.86657 17.775 5.9249 17.9917 6.0249C18.2083 6.1249 18.4083 6.26657 18.575 6.44157C18.7417 6.61657 18.875 6.8249 18.9583 7.05824C19.0417 7.29157 19.0833 7.5249 19.075 7.7749V8.76657C19.075 8.9999 19.0333 9.24157 18.9333 9.4749C18.8333 9.70824 18.6917 9.91657 18.5083 10.0832C18.3833 10.2166 18.175 10.3749 17.9333 10.4666C17.7 10.5666 17.4333 10.6166 17.175 10.5999H16.5417C16.5417 10.5999 16.5083 10.5999 16.4917 10.5999C16.4917 10.6416 16.4917 10.6999 16.4917 10.7666V11.0666C16.7167 11.0666 16.925 11.1249 17.1333 11.2082C17.35 11.2999 17.5583 11.4332 17.725 11.6082C17.8917 11.7749 18.025 11.9749 18.125 12.1999C18.2167 12.4249 18.2667 12.6666 18.2667 12.9082V13.9749C18.2667 14.4582 18.0667 14.9332 17.725 15.2832C17.3833 15.6332 16.925 15.8166 16.4417 15.8249V20.3916L16.4667 20.3999Z"/>
</svg>
