<svg viewBox="0 0 24 24" xmlns="http://www.w3.org/2000/svg" data-title="FacebookFill" fill="currentColor" stroke="none">
  <path d="M2 20.8614V3.93836C2 3.53034 2.16209 3.13902 2.4506 2.85051C2.73912 2.56199 3.13044 2.3999 3.53846 2.3999H20.4615C20.8696 2.3999 21.2609 2.56199 21.5494 2.85051C21.8379 3.13902 22 3.53034 22 3.93836V20.8614C22 21.2695 21.8379 21.6608 21.5494 21.9493C21.2609 22.2378 20.8696 22.3999 20.4615 22.3999H15.8462V15.1076H16.9385C17.1874 15.1076 17.4261 15.0087 17.6021 14.8327C17.7781 14.6567 17.8769 14.418 17.8769 14.1691V12.9845C17.8769 12.8613 17.8526 12.7392 17.8055 12.6254C17.7583 12.5115 17.6892 12.4081 17.6021 12.3209C17.5149 12.2338 17.4115 12.1647 17.2976 12.1175C17.1837 12.0703 17.0617 12.0461 16.9385 12.0461H15.9077V10.5999C15.9077 9.30759 16.4923 9.30759 17.0769 9.30759H17.8308C17.9546 9.31269 18.078 9.29054 18.1923 9.24269C18.3066 9.19483 18.409 9.12246 18.4923 9.03067C18.5817 8.94556 18.6525 8.84282 18.7002 8.72895C18.7478 8.61508 18.7713 8.49256 18.7692 8.36913V7.23067C18.7733 7.10539 18.7527 6.98054 18.7085 6.86324C18.6644 6.74593 18.5975 6.63849 18.5118 6.54705C18.426 6.4556 18.3231 6.38195 18.2089 6.33031C18.0947 6.27866 17.9714 6.25003 17.8462 6.24606H16.0769C15.5607 6.22665 15.0464 6.31953 14.5696 6.5183C14.0927 6.71706 13.6647 7.01696 13.3151 7.39729C12.9655 7.77762 12.7026 8.22931 12.5446 8.72115C12.3866 9.213 12.3373 9.73328 12.4 10.2461V12.0461H11.4154C11.2909 12.044 11.1672 12.0668 11.0515 12.113C10.9359 12.1593 10.8306 12.2281 10.7418 12.3154C10.653 12.4028 10.5825 12.5069 10.5344 12.6218C10.4863 12.7367 10.4615 12.86 10.4615 12.9845V14.1691C10.4615 14.2937 10.4863 14.417 10.5344 14.5319C10.5825 14.6467 10.653 14.7509 10.7418 14.8382C10.8306 14.9256 10.9359 14.9944 11.0515 15.0406C11.1672 15.0869 11.2909 15.1096 11.4154 15.1076H12.4V22.3999H3.53846C3.13044 22.3999 2.73912 22.2378 2.4506 21.9493C2.16209 21.6608 2 21.2695 2 20.8614Z"/>
</svg>
