<svg viewBox="0 0 24 24" xmlns="http://www.w3.org/2000/svg" data-title="FacebookOutline" fill="currentColor" stroke="none">
  <path d="m19.62,22h-4.15c-.55,0-1-.45-1-1v-6.57c0-.55.45-1,1-1h.83v-.76h-.78c-.55,0-1-.45-1-1v-1.3c0-1.43.69-2.17,2.05-2.17h.53v-.76h-1.43c-.36-.02-.68.05-.98.17-.29.12-.56.31-.77.54-.22.23-.38.52-.48.82-.1.31-.12.62-.09.94v1.74c0,.55-.45,1-1,1h-.74v.76h.74c.55,0,1,.45,1,1v6.57c0,.55-.45,1-1,1h-7.97c-.63,0-1.23-.25-1.68-.7-.45-.45-.7-1.05-.7-1.68V4.38c0-.63.25-1.23.7-1.68s1.05-.7,1.68-.7h15.23c.63,0,1.23.25,1.68.7.45.45.7,1.05.7,1.68v15.23c0,.63-.25,1.23-.7,1.68-.45.45-1.05.7-1.68.7Zm-3.15-2h3.15c.1,0,.2-.04.28-.12s.11-.17.11-.27V4.38c0-.1-.04-.2-.11-.27-.07-.08-.17-.11-.28-.11H4.38c-.1,0-.2.04-.28.11-.07.07-.11.17-.11.27v15.23c0,.1.04.2.11.27.08.08.17.11.28.11h6.97v-4.57c-.19,0-.4-.05-.59-.13-.22-.09-.43-.22-.6-.39-.18-.18-.32-.38-.41-.6-.1-.23-.14-.47-.14-.72v-1.07c0-.24.05-.48.14-.71.1-.23.23-.43.41-.61.17-.17.38-.31.61-.4.19-.08.38-.12.58-.12v-.57c-.07-.59,0-1.18.18-1.73.18-.58.5-1.12.91-1.57.41-.44.92-.8,1.48-1.03.56-.23,1.18-.34,1.77-.32h1.56c.28,0,.52.07.74.17.22.1.42.24.58.42.17.18.3.38.38.62.08.23.12.47.12.72v.99c0,.23-.04.48-.14.71-.1.23-.24.44-.42.61-.12.13-.33.29-.58.38-.23.1-.5.15-.76.13h-.68v.47c.23,0,.43.06.64.14.22.09.42.22.59.4.17.17.3.37.4.59.09.23.14.47.14.71v1.07c0,.48-.2.96-.54,1.31-.34.35-.8.53-1.28.54v4.57h.02Z"/>
</svg>
