<svg viewBox="0 0 24 24" xmlns="http://www.w3.org/2000/svg" data-title="FacebookFill" fill="currentColor" stroke="none">
  <path d="m2,20.46V3.54c0-.41.16-.8.45-1.09.29-.29.68-.45,1.09-.45h16.92c.41,0,.8.16,1.09.45.29.29.45.68.45,1.09v16.92c0,.41-.16.8-.45,1.09s-.68.45-1.09.45h-4.62v-7.29h1.09c.25,0,.49-.1.66-.27.18-.18.27-.41.27-.66v-1.18c0-.12-.02-.25-.07-.36-.05-.11-.12-.22-.2-.3-.09-.09-.19-.16-.3-.2-.11-.05-.24-.07-.36-.07h-1.03v-1.45c0-1.29.58-1.29,1.17-1.29h.75c.12,0,.25-.02.36-.06.11-.05.22-.12.3-.21.09-.09.16-.19.21-.3.05-.11.07-.24.07-.36v-1.14c0-.13-.02-.25-.06-.37-.04-.12-.11-.22-.2-.32-.09-.09-.19-.17-.3-.22-.11-.05-.24-.08-.36-.08h-1.77c-.52-.02-1.03.07-1.51.27-.48.2-.9.5-1.25.88-.35.38-.61.83-.77,1.32-.16.49-.21,1.01-.14,1.52v1.8h-.98c-.12,0-.25.02-.36.07-.12.05-.22.12-.31.2-.09.09-.16.19-.21.31-.05.11-.07.24-.07.36v1.18c0,.12.02.25.07.36.05.11.12.22.21.31.09.09.19.16.31.2.12.05.24.07.36.07h.98v7.29H3.54c-.41,0-.8-.16-1.09-.45-.29-.29-.45-.68-.45-1.09Z"/>
</svg>
