<svg viewBox="0 0 24 24" xmlns="http://www.w3.org/2000/svg" data-title="Family" fill="currentColor" stroke="none">
  <path fill-rule="evenodd" d="m12.04.99c-2.6,0-4.72,2.1-4.72,4.7,0,1.73.93,3.23,2.32,4.05-3.01.22-4.69,2.81-5.55,4.85-.48,1.12-.78,2.23-.96,3.05-.09.41-.16.76-.2,1-.02.12-.04.22-.05.29,0,.03,0,.06-.01.08v.02s-.33,2.24-.33,2.24c-.1.66.36,1.26,1.01,1.36.66.1,1.26-.36,1.36-1.01l.33-2.25v-.02s0,0,0,0h0s0-.04,0-.07c0-.05.02-.13.04-.24.03-.21.09-.51.17-.87.16-.73.43-1.69.83-2.64.85-2,2.06-3.4,3.76-3.4.55,0,1.05.15,1.5.41-.02.18-.04.35-.04.54,0,1.77,1.14,3.26,2.71,3.83-2.57.67-3.79,3.1-4.3,4.51-.23.62.1,1.31.72,1.54.62.23,1.31-.1,1.54-.72.55-1.53,1.59-3.1,3.47-3.1s2.91,1.58,3.47,3.1c.23.62.91.95,1.54.72.62-.23.95-.91.72-1.54-.51-1.41-1.74-3.83-4.3-4.51,1.57-.57,2.71-2.06,2.71-3.83,0-2.27-1.87-4.08-4.13-4.08-.09,0-.19,0-.28,0,.85-.85,1.37-2.02,1.37-3.31,0-2.6-2.12-4.7-4.72-4.7Zm-2.32,4.7c0-1.26,1.03-2.3,2.32-2.3s2.32,1.04,2.32,2.3-1.03,2.3-2.32,2.3-2.32-1.03-2.32-2.3Zm5.94,5.7c-.98,0-1.73.77-1.73,1.68s.76,1.68,1.73,1.68,1.73-.77,1.73-1.68-.76-1.68-1.73-1.68Z"/>
</svg>
