<svg viewBox="0 0 24 24" xmlns="http://www.w3.org/2000/svg" data-title="FavoriteOutline" fill="currentColor" stroke="none">
  <path d="M21.919 10.2851C21.8381 9.96833 21.6761 9.65158 21.4332 9.33484C21.1903 9.09729 20.9474 8.85973 20.6235 8.70136C20.2996 8.54299 19.9757 8.4638 19.5709 8.4638H14.4696V5.45475C14.4696 5.13801 14.3887 4.82127 14.2267 4.50452C14.0648 4.18778 13.9028 3.95023 13.6599 3.71267C13.417 3.47511 13.0931 3.31674 12.8502 3.15837C12.4453 3.07919 12.1215 3 11.7976 3C11.3927 3 10.9069 3.07919 10.583 3.31674C10.1781 3.5543 9.85425 3.79186 9.69231 4.18778L6.45344 9.25566H3.7004C3.29555 9.25566 2.80972 9.41403 2.48583 9.73077C2.16194 10.0475 2 10.4434 2 10.9186V18.0452C2 18.4412 2.16194 18.9163 2.48583 19.233C2.80972 19.5498 3.21457 19.7081 3.7004 19.7081H6.69636L7.58704 20.1041C8.07287 20.3416 8.72065 20.5 9.28745 20.5H18.3563C19.004 20.5 19.5709 20.2624 20.0567 19.8665C20.5425 19.4706 20.7854 18.9163 20.8664 18.362L22 11.3145C22 10.9977 22 10.681 21.919 10.2851ZM5.96761 17.8077H3.94332V11.1561H5.96761V17.8077ZM18.9231 18.1244C18.9231 18.2828 18.8421 18.4412 18.7611 18.5204C18.6802 18.5995 18.5182 18.6787 18.3563 18.6787H9.20648C8.96356 18.6787 8.63968 18.5995 8.39676 18.5204L7.91093 18.2828V10.5226L11.3117 5.21719C11.3927 5.13801 11.3927 5.05882 11.4737 5.05882C11.5547 4.97964 11.6356 5.05882 11.7976 4.97964C11.8785 4.97964 11.9595 4.97964 12.0405 4.97964C12.1215 4.97964 12.2024 5.05882 12.2024 5.05882C12.2834 5.13801 12.2834 5.13801 12.3644 5.21719C12.3644 5.29638 12.4453 5.37557 12.4453 5.45475V9.41403C12.4453 9.96833 12.8502 10.3643 13.417 10.3643H19.4899C19.5709 10.3643 19.6518 10.3643 19.7328 10.4434C19.8138 10.4434 19.8947 10.5226 19.9757 10.6018C20.0567 10.681 20.0567 10.7602 20.1377 10.8394C20.1377 10.9186 20.1377 10.9977 20.1377 11.0769L18.9231 18.1244Z"/>
</svg>
