<svg viewBox="0 0 24 24" xmlns="http://www.w3.org/2000/svg" data-title="FilePdfFill" fill="currentColor" stroke="none">
  <path d="M11.3 13.5C11.8 13.3 12.2 13.2 12.6 13.1 12.4 12.8 12.1 12.6 11.8 12.2 11.7 12.6 11.5 13.1 11.3 13.5ZM16 13.7C15.9 13.7 15.9 13.7 15.8 13.7 15.9 13.8 16 13.8 16 13.7Z"/>
  <path d="M22.2 8.7L13.9 0.4C13.7 0.1 13.4 0 13.1 0H4.8C4.1 0 3.3 0.3 2.8 0.8C2.3 1.4 2 2.1 2 2.8V21.1C2 21.8 2.3 22.6 2.8 23.1C3.3 23.7 4.1 24 4.8 24H19.8C20.5 24 21.3 23.7 21.8 23.2C22.3 22.7 22.6 21.9 22.6 21.2V9.5C22.6 9.2 22.5 8.9 22.2 8.7ZM13.9 12.7C14.6 12.5 15.3 12.4 15.8 12.4C16.3 12.4 16.7 12.5 17 12.7C17.3 12.9 17.7 13.2 17.7 13.7C17.7 14.2 17.3 14.5 17 14.7C16.6 14.9 16.2 15 15.8 15C15 15 14.3 14.6 13.6 14.1C12.6 14.3 11.5 14.6 10.6 15C10.2 15.7 9.9 16.3 9.5 16.7C9.1 17.2 8.7 17.6 8 17.6C7.4 17.6 6.8 17.1 6.8 16.4C6.8 16.1 7 15.8 7.2 15.6C7.4 15.4 7.6 15.2 7.9 15C8.4 14.7 9 14.4 9.7 14.1C10.2 13.1 10.6 12 11 10.9C10.6 10 10.3 9.1 10.3 8.3C10.3 7.9 10.4 7.6 10.6 7.3C10.8 7.1 11.2 6.8 11.6 6.8C12.1 6.8 12.4 7 12.6 7.3C12.8 7.6 12.9 7.9 12.9 8.2C12.9 8.9 12.7 9.8 12.4 10.7C12.8 11.4 13.3 12.1 13.9 12.7Z"/>
  <path d="M8.1 16.4C8.2 16.3 8.3 16.2 8.4 16.1C8.3 16.2 8.1 16.3 8.1 16.4Z"/>
</svg>
