<svg viewBox="0 0 24 24" xmlns="http://www.w3.org/2000/svg" data-title="FilePdfOutline" fill="currentColor" stroke="none">
  <path d="M22.2 8.7L13.9 0.4C13.7 0.1 13.4 0 13.1 0H4.8C4.1 0 3.3 0.3 2.8 0.8C2.3 1.4 2 2.1 2 2.8V21.1C2 21.8 2.3 22.6 2.8 23.1C3.3 23.7 4.1 24 4.8 24H19.8C20.5 24 21.3 23.7 21.8 23.2C22.3 22.7 22.6 21.9 22.6 21.2V9.5C22.6 9.2 22.5 8.9 22.2 8.7ZM20.3 21.2C20.3 21.3 20.3 21.5 20.2 21.6C20.1 21.7 20 21.7 19.9 21.7H4.9C4.8 21.7 4.6 21.7 4.6 21.6C4.4 21.4 4.3 21.3 4.3 21.2V2.8C4.3 2.7 4.3 2.5 4.4 2.4C4.5 2.3 4.6 2.3 4.7 2.3H12.5L20.3 10V21.2Z"/>
  <path d="M12.6 7.29999C12.4 6.99999 12.1 6.79999 11.6 6.79999C11.2 6.79999 10.8 7.09999 10.6 7.29999C10.4 7.59999 10.3 7.89999 10.3 8.29999C10.3 9.09999 10.6 9.99999 11 10.9C10.6 12 10.2 13.1 9.70005 14.1C9.00005 14.4 8.40005 14.7 7.90005 15C7.60005 15.2 7.40005 15.4 7.20005 15.6C7.00005 15.8 6.80005 16.1 6.80005 16.4C6.80005 17.1 7.40005 17.6 8.00005 17.6C8.70005 17.6 9.10005 17.2 9.50005 16.7C9.90005 16.3 10.2 15.7 10.6 15C11.5 14.6 12.6 14.3 13.6 14.1C14.3 14.6 15 15 15.8 15C16.2 15 16.6 14.9 17 14.7C17.3 14.5 17.7 14.2 17.7 13.7C17.7 13.2 17.3 12.9 17 12.7C16.7 12.5 16.3 12.4 15.8 12.4C15.3 12.4 14.6 12.5 13.9 12.7C13.3 12.1 12.8 11.4 12.4 10.7C12.7 9.79999 12.9 8.89999 12.9 8.19999C12.9 7.89999 12.8 7.59999 12.6 7.29999ZM8.10005 16.4C8.20005 16.3 8.30005 16.2 8.40005 16.1C8.30005 16.2 8.10005 16.3 8.10005 16.4ZM15.8 13.7C15.9 13.7 15.9 13.7 16 13.7C16 13.8 15.9 13.8 15.8 13.7C15.7 13.8 15.7 13.7 15.6 13.7C15.7 13.8 15.8 13.7 15.8 13.7ZM12.6 13.1C12.2 13.2 11.8 13.3 11.3 13.5C11.5 13.1 11.7 12.6 11.8 12.2C12.1 12.6 12.4 12.8 12.6 13.1Z"/>
</svg>
