<svg viewBox="0 0 24 24" xmlns="http://www.w3.org/2000/svg" data-title="FlagMX" fill="currentColor" stroke="none">
  <path d="M8 20.213H.414A.414.414 0 0 1 0 19.8V4.903c0-.228.185-.414.414-.414H8v15.724ZM8 4.489h8v15.724H8zM23.586 20.213H16V4.49h7.586c.229 0 .414.186.414.414V19.8a.414.414 0 0 1-.414.413Z"/>
  <path d="m12.714 12.721-.714.357v.357h.357l.357-.714Z"/>
  <path d="M12 14.327a.178.178 0 0 1-.178-.178v-.714a.178.178 0 1 1 .356 0v.714c0 .099-.08.178-.178.178Z"/>
  <path d="M12 13.614c-.7 0-1.378-.27-1.906-.762a.179.179 0 0 1 .243-.261c.462.43 1.053.666 1.663.666.61 0 1.2-.237 1.663-.666a.179.179 0 0 1 .242.261 2.796 2.796 0 0 1-1.905.762ZM12 14.328c-.457 0-.9-.134-1.281-.387l.197-.297a1.99 1.99 0 0 0 2.168 0l.197.297c-.38.253-.824.386-1.28.386Z"/>
  <path d="m11.717 11.918-.394.61-.066.2 1.026-.237-.566-.572Z"/>
  <path d="M10.908 12.925c-.472 0-1.038-.397-1.188-1.281l.352-.06c.125.736.577.985.849.984.083-.002.17-.031.177-.09.008-.07.01-.087-.177-.15-.101-.034-.216-.073-.297-.166-.326-.372.116-.767.328-.956.037-.034.053-.062.049-.073-.012-.03-.082-.077-.16-.077-.227 0-.4-.128-.45-.334a.477.477 0 0 1 .234-.534l.163.317c-.043.022-.06.087-.05.133.005.018.015.062.102.062.219 0 .427.128.494.306.03.075.073.272-.144.466-.235.21-.375.367-.297.455.017.02.093.046.143.063.16.054.46.155.417.529-.027.235-.237.398-.522.406h-.023ZM12.357 10.937s.357-.713-.357-1.07c0 0 2.498-.357 2.141 2.855-.234-.188-.582-.53-.706-.803l-1.078-.625v-.357ZM12 11.65l1.784 1.071-.714.357-1.07-1.07v-.357Z"/>
  <path d="M11.286 10.58c.197 0 .357.16.357.357a.7.7 0 0 0-.131.808l.08.161a.697.697 0 0 0 .131.182l.99.99v-.493c0-.614-.142-1.22-.417-1.77a1.07 1.07 0 0 0-.957-.591h-.053v.357Z"/>
  <path d="m11.286 10.224-.357.357v.356s.425-.215.568-.283c.1-.048.082-.162.024-.216-.044-.043-.235-.214-.235-.214ZM12 15.041a3.037 3.037 0 0 1-3.033-3.033h.357A2.68 2.68 0 0 0 12 14.684a2.68 2.68 0 0 0 2.676-2.676h.357A3.037 3.037 0 0 1 12 15.04Z"/>
  <circle cx="9.343" cy="13.067" r=".242"/>
  <circle cx="9.878" cy="13.922" r=".242"/>
  <circle cx="10.748" cy="14.568" r=".242"/>
  <circle cx="14.683" cy="13.067" r=".242"/>
  <circle cx="14.147" cy="13.922" r=".242"/>
  <circle cx="13.278" cy="14.568" r=".242"/>
  <path d="M12.179 14.506h-.357a.357.357 0 1 1 0-.714h.357a.357.357 0 0 1 0 .714ZM13.435 11.919c.119.349.372.669.706.802C14.498 9.51 12 9.867 12 9.867c1.784 0 1.435 2.052 1.435 2.052Z"/>
</svg>
