<svg viewBox="0 0 24 24" xmlns="http://www.w3.org/2000/svg" data-title="FlagES" fill="none" stroke="none">
  <path fill="#C8414B" d="M.414 20.213h23.172A.414.414 0 0 0 24 19.8V4.903a.414.414 0 0 0-.414-.414H.414A.414.414 0 0 0 0 4.903V19.8c0 .228.185.413.414.413Z"/>
  <path fill="#FFD250" d="M0 7.8h24v9.103H0z"/>
  <path fill="#C8414B" d="m10.138 12.351.35-1.578a.233.233 0 0 0-.226-.284h-.248a.233.233 0 0 0-.227.284l.35 1.578Z"/>
  <path fill="#F5F5F5" d="M9.724 11.524h.828v3.517h-.828z"/>
  <path fill="#FAB446" d="M9.518 11.11h1.241v.414H9.518z"/>
  <path fill="#C8414B" d="M8.69 12.351h2.069v.414H8.69zM10.759 14.007l-1.242-.414v-.414l1.242.414v.414ZM3.931 12.351l.35-1.578a.233.233 0 0 0-.226-.284h-.248a.233.233 0 0 0-.227.284l.351 1.578Z"/>
  <path fill="#F5F5F5" d="M5.38 11.11a.414.414 0 0 0-.414.414v2.69c0 .502.469 1.448 2.068 1.448 1.6 0 2.07-.946 2.07-1.449v-2.69a.414.414 0 0 0-.414-.413H5.38Z"/>
  <path fill="#C8414B" d="M7.034 13.179H4.966v-1.655c0-.229.185-.414.413-.414h1.655v2.069Z"/>
  <path fill="#C8414B" d="M7.034 13.179h2.07v1.034a1.034 1.034 0 1 1-2.07 0V13.18Z"/>
  <path fill="#FAB446" d="M4.966 13.179h2.068v1.034a1.034 1.034 0 1 1-2.068 0V13.18Z"/>
  <path fill="#C8414B" d="M6.62 15.036V13.18h-.413v2.048c.154-.031.293-.1.414-.19ZM5.793 15.227V13.18H5.38v1.857c.121.092.26.16.414.191Z"/>
  <path fill="#FFB441" d="M5.379 12.351H6.62v.414H5.379z"/>
  <path fill="#FAB446" d="M5.379 11.524H6.62v.414H5.379z"/>
  <path fill="#FAB446" d="M5.586 11.769h.828v.75h-.828z"/>
  <path fill="#F5F5F5" d="M3.518 11.524h.828v3.517h-.828z"/>
  <path fill="#FAB446" d="M3.31 14.834h1.241v.414H3.31zM3.31 11.11h1.241v.414H3.31z"/>
  <path fill="#5064AA" d="M3.103 15.248h1.655v.414H3.103z"/>
  <path fill="#FAB446" d="M9.724 14.834h1.241v.414H9.724z"/>
  <path fill="#5064AA" d="M9.31 15.248h1.655v.414H9.31z"/>
  <path fill="#FAB446" d="M5.793 10.696h2.483v.414H5.793z"/>
  <path fill="#FFB441" d="M6.828 9.455h.414v1.241h-.414z"/>
  <path fill="#F5F5F5" fill-rule="evenodd" d="M6 9.455a.621.621 0 1 0 1.243-.001.621.621 0 0 0-1.243 0Zm.414 0a.207.207 0 1 1 .414 0 .207.207 0 0 1-.414 0Z" clip-rule="evenodd"/>
  <path fill="#F5F5F5" fill-rule="evenodd" d="M6.828 9.455a.621.621 0 1 0 1.242-.001.621.621 0 0 0-1.242 0Zm.413 0a.207.207 0 1 1 .414 0 .207.207 0 0 1-.414 0Z" clip-rule="evenodd"/>
  <path fill="#F5F5F5" fill-rule="evenodd" d="M7.655 9.869a.621.621 0 1 0 1.243-.002.621.621 0 0 0-1.243.002Zm.414 0a.207.207 0 1 1 .414 0 .207.207 0 0 1-.414 0ZM5.172 9.869a.621.621 0 1 0 1.243-.002.621.621 0 0 0-1.243.002Zm.414 0a.207.207 0 1 1 .414 0 .207.207 0 0 1-.414 0Z" clip-rule="evenodd"/>
  <path fill="#FAB446" fill-rule="evenodd" d="M7.448 13.593H8.69v.62a.621.621 0 0 1-1.242 0v-.62Zm.828.62v-.206h-.414v.206a.207.207 0 0 0 .414 0Z" clip-rule="evenodd"/>
  <path fill="#FFA0D2" d="M8.07 12.765a.414.414 0 0 1-.415-.414v-.414a.414.414 0 0 1 .828 0v.414a.414.414 0 0 1-.414.414Z"/>
  <circle cx="7.034" cy="13.179" r=".621" fill="#5064AA"/>
  <path fill="#FAB446" d="M6.828 8.627h.414v1.241h-.414z"/>
  <path fill="#C8414B" d="m5.793 10.696-.414-.414.243-.242a1.998 1.998 0 0 1 2.825 0l.243.242-.414.414H5.793Z"/>
  <ellipse cx="7.034" cy="10.541" fill="#FFD250" rx=".207" ry=".441"/>
  <ellipse cx="6.207" cy="10.541" fill="#FFD250" rx=".207" ry=".441"/>
  <ellipse cx="7.862" cy="10.541" fill="#FFD250" rx=".207" ry=".441"/>
  <path fill="#C8414B" d="M3.31 12.351h2.069v.414H3.31zM3.31 14.007l1.242-.414v-.414l-1.242.414v.414Z"/>
</svg>
