<svg viewBox="0 0 24 24" xmlns="http://www.w3.org/2000/svg" data-title="FlagBY" fill="currentColor" stroke="none">
  <path d="M23.586 20.213H.414A.414.414 0 0 1 0 19.8v-3.725h24V19.8a.414.414 0 0 1-.414.413ZM23.586 4.49H.414A.414.414 0 0 0 0 4.902v11.172h24V4.903a.414.414 0 0 0-.414-.414Z"/>
  <path d="M3.31 20.213H.414A.414.414 0 0 1 0 19.8V4.903c0-.228.185-.414.414-.414H3.31v15.724Z"/>
  <path fill-rule="evenodd" d="M2.168 5.248v-.345h.145v.345h.146v.342h.146v.344h.147v.342h.145v.345H2.75v.342h-.146v.345H2.46v.344h-.146v.342h-.145v-.342H2.02v-.344h-.145v-.345h-.147v-.342h-.147v.342h-.146v.345H1.29v.344h-.147v.342H.999v-.342H.852v-.344H.708v-.345H.56v-.342H.414v-.345H.56v-.342h.147V5.59h.145v-.342H1v-.345h.146v.345h.146v.342h.145v.344h.146v.342h.146v-.342h.148V5.59h.146v-.342h.146ZM.414 5.59H.56v-.41H.414v.41ZM.999 6.62h.145v-.345H.999v.345Zm-.439.96H.414v-.41H.56v.41Zm1.97.137v.205h-.073v.208h-.073v.273h.073v.205h.072v.205h.22V8.61h.073v-.205h.072v-.273h-.072v-.208H2.75v-.205h-.22Zm-2.042.205H.56V7.72H.78v.202h.073v.208h.072v.273H.852v.208H.78v.205H.56v-.205H.488v-.208H.414v-.273h.074v-.208Zm.073.276h.072v-.136h.075v.136h.071v.137H.708v.14H.633v-.14H.56v-.137Zm1.607.687V8.54h.145v.345h.146v.341h.146v.345h.146v.342h.146v.345H2.75v.345h-.146v.341H2.46v.342h-.146v-.342h-.145v-.341H2.02v-.345h.148v-.413H2.02v.276h-.144v.55h-.074v.342H2.022v.273h.146v.205h.145v.345h.146v-.345h.146v-.205h.147v-.205h.145v.618h-.145v.277h-.147v.238H2.46v.273h.146v.244h.147v.273h.145v.618h-.145v-.208h-.147v-.205H2.46v-.342h-.146v.342h-.145v.205h-.146v.277h-.22v.341h.073v.55h.146v.276h.147v-.415H2.02v-.342h.147v-.342h.145v-.345h.146v.345h.146v.342h.146v.342h.146v.345H2.75v.341h-.146v.345H2.46v.345h-.146v.342h-.145v-.342h-.146v-.345h-.146v-.345h-.147v-.341h-.147v.341h-.146v.345H1.29v.345h-.147v.342H.999v-.342H.852v-.345H.708v-.345H.56v-.341H.414v-.345H.56v-.342h.146v-.342h.146v-.345H1v.345h.145v.342h.147v.342h-.147v.416h.147V14.583h.145v-.55h.074v-.338l-.22-.003v-.277h-.146v-.205H.999v-.342H.852v.342H.706v.205H.56v.208H.414v-.618H.56v-.273h.146v-.244h.146v-.274H.706v-.237H.56V11.7H.414v-.618H.56v.205h.146v.205h.146v.345H1v-.345h.145v-.205h.147v-.273l.22-.003v-.339h-.075v-.55H1.29v-.276h-.147v.413h.147v.345h-.147v.341H.999v.342H.852v-.342H.706v-.341H.56v-.345H.414v-.345H.56v-.342h.146v-.344h.146v-.342H1V8.54h.145v.345h.147v.342h.145v.344h.146v.342h.146v-.342h.148v-.344h.144v-.342h.148ZM.56 9.367H.414v-.413H.56v.413Zm2.191 1.578h.146v-.273H2.75v.273Zm-2.19 0H.413v-.273H.56v.273Zm1.021 1.029h.146v-.342h-.146v.342Zm.22.068v-.136h.146v.205h-.072v.104h-.074v.273h.074v.104h.072v.205h-.146v-.136H1.73v-.102h-.147v.102H1.51v.136h-.146v-.205h.072v-.104h.074v-.273h-.074v-.104h-.072v-.205h.146v.136h.072v.104h.147v-.104h.073Zm-1.388.31v-.206H.56v.413H.414v-.208Zm1.168.721h.146v-.341h-.146v.341Zm1.315.96H2.75v-.273h.146v.274Zm-2.483 0H.56v-.273H.414v.274Zm2.483 1.716H2.75v-.41h.146v.41Zm-2.337 0H.414v-.41H.56v.41Zm0 .344v-.205H.78v.205h.073v.205h.072v.277H.852v.205H.78v.205H.56v-.205H.488v-.205H.414v-.277h.074v-.205H.56Zm1.97 0v-.202h.22v.202h.072v.208h.072v.274h-.072v.205H2.75v.205h-.22v-.205h-.072v-.205h-.073V16.3h.073v-.208h.072Zm0 .277h.072v-.137h.074v.137h.073v.136h-.073v.14h-.074v-.14H2.53v-.136Zm-.362.683v-.341h.145v.341h.146v.345h.146v.342h.146v.345h.146v.341h-.145v.345h-.147v.345H2.46v.342h-.146v.342h-.145v-.342h-.146v-.342h-.146v-.345h-.147v-.345h-.147v.345h-.146v.345H1.29v.342h-.146v.342H1v-.342H.852v-.342H.708v-.345H.56v-.345H.414v-.341H.56v-.345h.147v-.342h.145v-.345H1v-.341h.145v.341h.147v.345h.145v.342h.146v.345h.146v-.345h.148v-.342h.144v-.345h.148Zm.583.482h.146v-.41H2.75v.41Zm-2.337 0H.56v-.41H.414v.41Zm.585.892h.145v-.342H.999v.341Zm-.585 1.1H.56v-.411H.414v.41Zm1.168 0h.146v-.411h-.146v.41Zm1.315 0H2.75v-.411h.146v.41Zm-.584-1.1h-.145v-.342h.145v.341Zm-.585-.892h-.146v-.41h.146v.41Zm-.876.55H.708v.341h.144v.345H1v.345h.145v-.345h.147v-.345h.145v-.341H1.29v-.345h-.147v-.342H.999v.342H.852v.345Zm1.024 0h.146v-.345h.146v-.342h.146v.342h.145v.345h.147v.341h-.147v.345h-.145v.345h-.146v-.345h-.146v-.345h-.146v-.341ZM.561 16.367h.073v-.137h.074v.137h.07v.14h-.07v.136H.634v-.137H.561v-.14Zm.803 0h.072v-.137h.074v.137h.072v.14H1.51v.136h-.074v-.137h-.072v-.14Zm.438 0h-.074v.14h.074v.136h.074v-.137h.072v-.14h-.072v-.136h-.074v.137Zm-.074-.479v.205h-.146v-.205h-.218v.205H1.29v.205h-.074v.277h.074v.205h.073v.205h.218v-.205h.146v.205h.22v-.205h.074v-.205h.071v-.277h-.071v-.205h-.074v-.205h-.22Zm-.146-.14h.146v-.41h-.146v.41Zm-.365-3.602v.413h.147v-.413h-.147Zm.73.205v-.205h.146v.413h-.145v-.208Zm.804-.205v.413h.146v-.413H2.75ZM1.582 9.367h.146v-.413h-.146v.413Zm1.315 0H2.75v-.413h.146v.413Zm-1.898 2.99V12.215h.145v-.238h.147V11.7h.219v-.323h.072v-.158h.146v.155h.074v.326h.22v.277h.146v.238h.145v.273h-.145v.244h-.146v.273h-.22v.324h-.074v.155h-.146v-.155H1.51v-.324h-.22v-.273h-.146v-.244H.999v-.13ZM1.364 8.2h.072v-.136h.074v.136h.072v.137H1.51v.14h-.074v-.14h-.072v-.137Zm.438 0h-.074v.137h.074v.14h.074v-.14h.072v-.137h-.072v-.136h-.074v.136Zm-.438-.276H1.29v.208h-.074v.273h.074v.208h.073v.205h.218v-.205h.146v.205h.22v-.205h.074v-.208h.071v-.273h-.071v-.208h-.074V7.72h-.22v.202h-.146V7.72h-.218v.202Zm1.238.273H2.53v.14h.073v.137h.074v-.137h.073v-.14h-.073v-.133h-.074v.133Zm-1.02-.615h.146v-.41h-.146v.41Zm1.315 0H2.75v-.41h.146v.41Zm-.584-.96h-.145v-.345h.145v.345ZM1.728 5.59h-.146v-.41h.146v.41Zm1.023 0h.146v-.41H2.75v.41Zm-1.899.686H.708v.345h.144v.342H1v.345h.145v-.345h.147V6.62h.145v-.345H1.29v-.342h-.147V5.59H.999v.344H.852v.342Zm1.024 0h.146v-.342h.146V5.59h.146v.344h.145v.342h.147v.345h-.147v.342h-.145v.345h-.146v-.345h-.146V6.62h-.146v-.345Z" clip-rule="evenodd"/>
</svg>
