<svg viewBox="0 0 24 24" xmlns="http://www.w3.org/2000/svg" data-title="FlagDO" fill="currentColor" stroke="none">
  <path d="M23.586 20.213H.414A.414.414 0 0 1 0 19.8V4.903c0-.228.185-.414.414-.414h23.172c.229 0 .414.186.414.414V19.8a.414.414 0 0 1-.414.413Z"/>
  <path d="M9.931 10.696H.414A.414.414 0 0 1 0 10.282V4.903c0-.228.185-.414.414-.414H9.93c.229 0 .414.186.414.414v5.38a.414.414 0 0 1-.414.413ZM23.586 20.213H14.07a.414.414 0 0 1-.414-.413v-5.38c0-.228.186-.413.414-.413h9.517c.229 0 .414.185.414.413v5.38a.414.414 0 0 1-.414.413ZM23.586 10.696H14.07a.414.414 0 0 1-.414-.414V4.903c0-.228.186-.414.414-.414h9.517c.229 0 .414.186.414.414v5.38a.414.414 0 0 1-.414.413ZM9.931 20.213H.414A.414.414 0 0 1 0 19.8v-5.38c0-.228.185-.413.414-.413H9.93c.229 0 .414.185.414.413v5.38a.414.414 0 0 1-.414.413ZM11.763 13.531s.247.09.215.401l.1-.002s-.063-.358-.115-.401c-.053-.043-.2.002-.2.002Z"/>
  <path d="M12.01 13.483c-.104 0-.288 0-.48-.052a.406.406 0 0 0 .102-.292c0-.246-.17-.089-.17-.089s-.11.094-.043.345a.977.977 0 0 1-.194-.1.902.902 0 0 0 .161-.34s-.282-.056-.36.157a.972.972 0 0 1-.121-.203c.072.001.174-.047.174-.323 0 0-.185 0-.234.16a1.58 1.58 0 0 1-.045-.214c.073.021.264.037.264-.377 0 0-.229 0-.282.203a2.475 2.475 0 0 1-.003-.16.446.446 0 0 0 .248-.449s-.105.024-.202.105a.36.36 0 0 0-.141-.366s-.14.248.064.45a.419.419 0 0 0-.046.085.44.44 0 0 0-.238-.175s-.055.332.255.47c.007.195.038.366.09.515a1.098 1.098 0 0 1-.16-.186c0-.369-.303-.378-.303-.378-.057.421.255.438.255.438l.17.186c-.369-.061-.369.246-.369.246.246.062.37-.061.37-.061l.132.068c-.236.007-.317.24-.317.24.296.049.513-.021.587-.05.299.208.667.209.837.209v-.062Z"/>
  <path d="M11.99 13.483c.104 0 .288 0 .48-.052a.406.406 0 0 1-.102-.292c0-.246.17-.089.17-.089s.111.094.044.345a.973.973 0 0 0 .193-.1.902.902 0 0 1-.16-.34s.282-.056.359.157a.968.968 0 0 0 .122-.203c-.073.001-.174-.047-.174-.323 0 0 .184 0 .233.16a1.58 1.58 0 0 0 .046-.214c-.074.021-.264.037-.264-.377 0 0 .228 0 .281.203.003-.052.004-.105.004-.16a.446.446 0 0 1-.249-.449s.106.024.202.105a.36.36 0 0 1 .142-.366s.14.248-.065.45a.419.419 0 0 1 .046.085.44.44 0 0 1 .239-.175s.054.332-.256.47a1.76 1.76 0 0 1-.09.515c.09-.078.161-.186.161-.186 0-.369.303-.378.303-.378.056.421-.255.438-.255.438l-.17.186c.368-.061.368.246.368.246-.246.062-.369-.061-.369-.061l-.133.068c.236.007.318.24.318.24-.297.049-.514-.021-.588-.05-.298.208-.666.209-.836.209v-.062ZM10.962 10.803a2.109 2.109 0 0 0-.56.523l.198.146c.135-.184.304-.34.494-.462l-.132-.207Z"/>
  <path d="M12 12.401h.861v.492c0 .136-.11.246-.245.246h-.37c-.1 0-.19.05-.245.125v-.863ZM12.185 11.848v-.677h.923l-.246.246v.677h-.677v-.246Z"/>
  <path d="M12.554 12.094h.307v.307h-.307zM12 12.401h-.86v.492c0 .136.11.246.246.246h.369c.1 0 .19.05.246.125v-.863Z"/>
  <path d="M11.847 13.154c.061.02.114.058.152.108h.003a.309.309 0 0 1 .152-.108v-.507h-.307v.507ZM11.816 11.848v-.677h-.922l.246.246v.677h.676v-.246Z"/>
  <path d="M11.14 12.094h.307v.307h-.307zM11.447 11.479v.184l.185.123v-.123l-.185-.184ZM11.632 11.663v.185l.246.123v-.062l-.246-.246ZM12.554 11.479v.184l-.184.123v-.123l.184-.184ZM12.37 11.663v.185l-.246.123v-.062l.245-.246Z"/>
  <path d="M12.372 12.832h-.742a.306.306 0 0 1-.306-.308v-.95l.681.458.672-.459v.951c0 .17-.136.308-.305.308Z"/>
  <path d="m11.57 11.725-.246-.185v.677l.246.123v-.615ZM12.431 11.725l.246-.185v.677l-.246.123v-.615ZM11.632 12.34h.738v.307h-.738zM11.632 11.786l.369.185.369-.185v.554h-.738v-.554Z"/>
  <path d="M12.277 11.844v.619c0 .05-.04.092-.092.092h-.369a.092.092 0 0 1-.092-.092v-.616l-.184-.124v.74c0 .152.124.277.276.277h.37a.277.277 0 0 0 .276-.277v-.744l-.184.125Z"/>
  <path d="M12.342 12.274c-.104.01-.22.02-.341.062a1.376 1.376 0 0 0-.341-.062c-.174-.016-.277-.03-.335-.135v.177c.09.059.204.07.324.08.106.01.217.02.33.063l.022.008.022-.008c.112-.043.223-.053.33-.063.12-.01.234-.02.324-.08v-.178c-.059.105-.162.12-.335.136ZM12.124 11.694h-.093v-.092h-.061v.092h-.092v.062h.092v.276h.061v-.276h.093v-.062Z"/>
  <path d="m11.969 11.956-.034.033-.54-.54.033-.034.54.54ZM11.31 11.33l.067.135.068-.067-.135-.068Z"/>
  <path d="m12.002 11.945-.039.028-.45-.617.039-.028.45.617ZM11.448 11.226l.046.143.077-.056-.123-.087ZM11.947 11.966l-.027.039-.627-.438.028-.04.626.439Z"/>
  <path d="m11.19 11.466.09.121.054-.078-.144-.043ZM12.573 11.414l.034.034-.54.54-.034-.033.54-.54Z"/>
  <path d="m12.691 11.33-.067.135-.068-.067.135-.068ZM12.45 11.327l.038.028-.45.618-.039-.028.45-.618Z"/>
  <path d="m12.553 11.226-.046.143-.077-.056.123-.087ZM12.68 11.528l.028.04-.627.437-.027-.039.627-.438Z"/>
  <path d="m12.812 11.466-.09.121-.055-.078.145-.043ZM11.97 13.122s-.238-.256-.192-.49c.037-.189.15-.396.238-.447 0 0 .124-.008.093.1-.031.109-.07.136-.058.243.019.185.049.403-.081.594Z"/>
  <path d="M12.041 12.186c-.015-.002-.026-.001-.026-.001-.088.05-.2.258-.238.447a.477.477 0 0 0 .065.307c-.03-.387.083-.524.2-.753Z"/>
  <path d="M12.05 12.528c-.01-.107.027-.134.059-.242.022-.076-.033-.095-.067-.1 0 0-.08.183-.085.305-.004.108.023.546.012.631.13-.19.1-.41.082-.594Z"/>
  <path d="M11.89 12.277c.049-.048.118-.07.187-.058l-.097-.312a.217.217 0 0 0-.188.058l.097.313Z"/>
  <path d="M12.077 12.22c.05-.05.119-.07.187-.06l-.097-.311a.216.216 0 0 0-.187.058l.097.312ZM11.72 10.868a1.865 1.865 0 0 0-.955.237l-.12-.214a2.11 2.11 0 0 1 1.08-.27l-.005.247ZM13.04 10.803c.215.138.406.315.56.523l-.198.146a1.86 1.86 0 0 0-.495-.462l.132-.207Z"/>
  <path d="M12.282 10.868c.334-.008.663.074.954.237l.12-.214a2.11 2.11 0 0 0-1.08-.27l.006.247Z"/>
  <path d="M12.493 10.802a1.865 1.865 0 0 0-.984 0l-.065-.237c.364-.1.749-.1 1.114 0l-.065.237ZM11.177 13.586a3.52 3.52 0 0 0-.775.5l.105.395c.24-.202.491-.362.748-.479l-.079-.416ZM12.825 13.586c.265.124.525.29.775.5l-.105.395a3.305 3.305 0 0 0-.748-.479l.078-.416Z"/>
  <path d="M12.99 14.093a2.256 2.256 0 0 0-1.968 0l-.057-.464a2.388 2.388 0 0 1 2.082 0l-.057.464Z"/>
  <path d="m12 14.223-.169.082c-.039.019-.076-.038-.076-.116v-.171c0-.078.037-.135.076-.116l.17.082v.239Z"/>
  <path d="m12 13.984.17-.082c.04-.019.077.038.077.116v.171c0 .078-.038.134-.077.116l-.17-.083v-.238ZM12.014 13.816h-.026a.048.048 0 0 1-.049-.049v-.026c0-.027.022-.048.049-.048h.026c.027 0 .048.021.048.048v.026a.048.048 0 0 1-.048.049Z"/>
</svg>
