<svg viewBox="0 0 24 24" xmlns="http://www.w3.org/2000/svg" data-title="FlagBR" fill="currentColor" stroke="none">
  <path d="M23.586 20.213H.414A.414.414 0 0 1 0 19.8V4.903c0-.228.185-.414.414-.414h23.172c.229 0 .414.186.414.414V19.8a.414.414 0 0 1-.414.413Z"/>
  <path d="m11.785 6.69-8.722 5.308a.414.414 0 0 0 0 .707l8.722 5.309c.132.08.298.08.43 0l8.722-5.31a.414.414 0 0 0 0-.706l-8.722-5.309a.414.414 0 0 0-.43 0Z"/>
  <circle cx="12" cy="12.351" r="3.31"/>
  <path d="M9.16 10.658a3.286 3.286 0 0 0-.357.847c1.835-.138 4.55.375 6.277 2.052.113-.288.188-.594.216-.915-1.784-1.502-4.25-2.035-6.137-1.984ZM12.137 13.481l.088.264.279.002c.036 0 .05.047.022.068l-.224.166.084.265a.037.037 0 0 1-.058.042l-.226-.162-.227.162a.037.037 0 0 1-.058-.042l.084-.265-.224-.166a.038.038 0 0 1 .022-.068l.279-.002.088-.264a.038.038 0 0 1 .071 0ZM13.22 14.165l.038.113.12.001c.015 0 .022.02.01.03l-.097.07.036.115a.016.016 0 0 1-.025.018l-.098-.07-.097.07c-.013.009-.03-.003-.025-.018l.036-.114-.096-.072c-.013-.009-.006-.029.01-.029h.12l.037-.114c.005-.015.026-.015.03 0ZM11.669 12.98l.038.113h.12c.015 0 .022.02.01.03l-.097.071.036.114a.016.016 0 0 1-.025.018l-.097-.07-.098.07c-.012.01-.03-.003-.025-.018l.036-.114-.096-.071a.016.016 0 0 1 .01-.03h.12l.037-.114c.005-.015.026-.015.031 0ZM9.569 12.841l.038.114h.12c.015 0 .021.02.009.03l-.097.071.037.115a.016.016 0 0 1-.025.018l-.098-.07-.097.07a.016.016 0 0 1-.025-.018l.036-.115-.096-.071a.016.016 0 0 1 .009-.03h.12l.038-.114c.005-.015.026-.015.03 0ZM11.326 14.125l.038.114h.12c.015.001.021.02.009.03l-.097.071.037.115a.016.016 0 0 1-.025.018l-.098-.07-.097.07c-.013.009-.03-.004-.025-.018l.036-.115-.096-.07c-.013-.01-.006-.03.01-.03l.119-.001.038-.114c.005-.014.026-.014.03 0ZM10.359 12.762l.031.093h.098c.013 0 .018.017.008.024l-.08.059.03.093a.013.013 0 0 1-.02.015l-.08-.057-.08.057a.013.013 0 0 1-.02-.015l.03-.093-.079-.059c-.01-.007-.005-.023.008-.024h.098l.03-.093a.013.013 0 0 1 .026 0ZM13.304 10.842l.039.116h.123c.015.001.022.021.01.03l-.1.074.038.117a.017.017 0 0 1-.026.018l-.1-.071-.1.071c-.012.01-.03-.003-.025-.018l.037-.117-.098-.073c-.013-.01-.007-.03.01-.03l.122-.001.039-.116a.017.017 0 0 1 .031 0ZM9.704 12.193l.03.093h.099c.012 0 .018.017.008.024l-.08.058.03.094a.013.013 0 0 1-.02.015l-.08-.057-.08.057a.013.013 0 0 1-.02-.015l.03-.094-.08-.058a.013.013 0 0 1 .009-.024h.098l.03-.093c.005-.012.022-.012.026 0ZM10.177 13.504l.047.14.149.002a.02.02 0 0 1 .011.036l-.12.088.046.142c.005.018-.015.033-.031.022l-.12-.086-.122.086a.02.02 0 0 1-.03-.022l.044-.142-.12-.088a.02.02 0 0 1 .013-.036l.148-.002.047-.14c.006-.019.032-.019.038 0ZM13.824 14.194l.03.089h.093c.012 0 .017.016.007.023l-.075.056.028.089c.004.011-.01.02-.02.014l-.075-.055-.076.055c-.01.007-.023-.003-.02-.014l.029-.09-.076-.055a.013.013 0 0 1 .008-.022l.093-.001.03-.089c.004-.011.02-.011.024 0ZM14.15 13.518l.038.113.12.001c.016 0 .022.02.01.03l-.097.07.037.115c.004.015-.013.027-.025.018l-.098-.07-.097.07c-.013.01-.03-.003-.025-.018l.036-.114-.097-.072a.016.016 0 0 1 .01-.029h.12l.038-.114c.005-.015.026-.015.03 0Z"/>
</svg>
