<svg viewBox="0 0 24 24" xmlns="http://www.w3.org/2000/svg" data-title="FlagMY" fill="none" stroke="none">
  <path fill="#FF4B55" d="M24 5.612H0v-.709c0-.228.185-.414.414-.414h23.172c.229 0 .414.186.414.414v.71Z"/>
  <path fill="#F5F5F5" d="M0 5.612h24v1.123H0z"/>
  <path fill="#FF4B55" d="M0 6.736h24v1.123H0z"/>
  <path fill="#F5F5F5" d="M0 7.859h24v1.123H0z"/>
  <path fill="#FF4B55" d="M0 8.982h24v1.123H0z"/>
  <path fill="#F5F5F5" d="M0 10.105h24v1.123H0z"/>
  <path fill="#FF4B55" d="M0 11.229h24v1.123H0z"/>
  <path fill="#F5F5F5" d="M0 12.351h24v1.123H0z"/>
  <path fill="#FF4B55" d="M24 14.598H0v-1.833h.414v.71H24v1.123Z"/>
  <path fill="#F5F5F5" d="M0 14.598h24v1.123H0z"/>
  <path fill="#FF4B55" d="M0 15.721h24v1.123H0z"/>
  <path fill="#F5F5F5" d="M0 16.844h24v1.123H0z"/>
  <path fill="#FF4B55" d="M0 17.967h24v1.123H0z"/>
  <path fill="#F5F5F5" d="M23.586 20.213H.414A.414.414 0 0 1 0 19.8v-.71h24v.71a.414.414 0 0 1-.414.413Z"/>
  <path fill="#41479B" d="M14.483 13.475H.413A.414.414 0 0 1 0 13.06V4.903c0-.228.185-.414.414-.414h14.069c.228 0 .414.186.414.414v8.158a.414.414 0 0 1-.414.414Z"/>
  <path fill="#FFE15A" d="M3.931 8.977A2.835 2.835 0 0 1 7.873 6.37c.044.018.078-.043.038-.07a3.226 3.226 0 0 0-1.993-.556 3.251 3.251 0 0 0-3.06 3.019 3.238 3.238 0 0 0 5.048 2.896c.04-.027.007-.089-.037-.07a2.836 2.836 0 0 1-3.938-2.61Z"/>
  <path fill="#FFE15A" d="m10.41 8.977 1.197-.463c.06-.023.04-.112-.024-.106l-1.28.102.88-.94c.043-.047-.014-.117-.069-.085l-1.111.648.383-1.227c.02-.06-.062-.1-.098-.047l-.72 1.066-.184-1.273c-.01-.062-.1-.063-.11 0l-.117.806-.049.34-.019.127-.72-1.065c-.035-.053-.117-.014-.098.047l.385 1.226-1.111-.649c-.055-.032-.112.04-.068.086l.88.94-1.281-.103c-.063-.005-.084.084-.024.107l1.199.463-1.2.464c-.059.023-.038.111.025.106l1.28-.102-.88.942c-.043.047.014.118.069.086l1.111-.651-.385 1.226c-.019.06.063.1.098.047l.72-1.065.019.13.049.337.118.808c.01.063.1.062.109 0l.185-1.275.72 1.066c.035.053.117.013.098-.047l-.384-1.227 1.111.65c.055.033.112-.038.069-.085l-.88-.942 1.28.102c.063.005.083-.083.024-.106l-1.198-.464Z"/>
</svg>
