<svg viewBox="0 0 24 24" xmlns="http://www.w3.org/2000/svg" data-title="FlashlightOutline" fill="currentColor" stroke="none">
  <path d="M18.5 4.89168C18.5 3.40001 17.2417 2.20001 15.6917 2.20001H8.80833C7.25833 2.20001 6 3.40835 6 4.89168V7.41668C6 8.00835 6.29167 8.51668 6.55 8.86668C6.81667 9.23335 7.16667 9.59168 7.45833 9.88335L7.58333 10.0083C7.84167 10.2667 8.05 10.475 8.20833 10.6667C8.29167 10.7667 8.33333 10.825 8.35 10.8667V18.7833C8.35 20.6667 9.94167 22.2 11.9083 22.2H12.5917C14.5583 22.2 16.15 20.675 16.15 18.7833V10.875C16.175 10.8417 16.2167 10.775 16.2917 10.675C16.45 10.4833 16.6583 10.275 16.9167 10.0167L17.0417 9.89168C17.3333 9.60001 17.675 9.24168 17.95 8.87501C18.2083 8.52501 18.5 8.01668 18.5 7.42501V4.89168ZM8.80833 4.15835H15.6917C16.0417 4.15835 16.3417 4.38335 16.4333 4.69168H8.06667C8.15833 4.38335 8.45 4.15835 8.80833 4.15835ZM14.1083 18.7833C14.1083 19.5917 13.425 20.25 12.5833 20.25H11.9C11.0583 20.25 10.375 19.5917 10.375 18.7833V13.675H10.3833V10.7917C10.3833 10.2083 10.0167 9.72501 9.8 9.45001C9.575 9.18335 9.29167 8.90001 9.05 8.65001L8.93333 8.53335C8.63333 8.23335 8.39167 7.97501 8.225 7.74168C8.13333 7.61668 8.09167 7.53335 8.06667 7.47501C8.05 7.43335 8.04167 7.40835 8.04167 7.40835V6.65001H16.4667V7.40835C16.4667 7.40835 16.4667 7.43335 16.4417 7.47501C16.4167 7.53335 16.3667 7.61668 16.2833 7.74168C16.1083 7.97501 15.8667 8.23335 15.5667 8.53335L15.45 8.65001C15.2 8.90001 14.9167 9.18335 14.7 9.45001C14.475 9.72501 14.1083 10.2083 14.1083 10.7917V18.7833Z"/>
  <path d="M12.1667 13.6417C11.8417 13.6417 11.575 13.75 11.35 13.9667C11.125 14.1833 11.0167 14.4417 11.0167 14.75C11.0167 15.0583 11.125 15.325 11.35 15.5333C11.575 15.75 11.85 15.8583 12.1667 15.8583C12.4833 15.8583 12.7583 15.75 12.9833 15.5333C13.2083 15.3167 13.3167 15.0583 13.3167 14.75C13.3167 14.4417 13.2083 14.175 12.9833 13.9667C12.7583 13.75 12.4833 13.6417 12.1667 13.6417Z"/>
</svg>
