<svg viewBox="0 0 24 24" xmlns="http://www.w3.org/2000/svg" data-title="ForwardFill" fill="currentColor" stroke="none">
  <path d="M14.7841 3.2975C14.4981 3.00703 14.0679 2.92014 13.6943 3.07734C13.3206 3.23454 13.077 3.60487 13.077 4.01565V7.21877H12.6923C8.80248 7.21877 6.43728 9.23708 4.91764 11.7451C3.7394 13.6896 3.02669 16.0122 2.45125 17.8874C2.31144 18.343 2.17972 18.7722 2.0514 19.1632C1.90964 19.5951 2.06822 20.0701 2.43943 20.3254C2.81063 20.5806 3.30374 20.5538 3.64597 20.2597C4.25361 19.7376 4.78177 19.2718 5.2539 18.8554C6.41296 17.8332 7.23439 17.1088 8.06508 16.5798C9.12847 15.9025 10.175 15.5781 12 15.5781H13.077V18.7812C13.077 19.2008 13.331 19.5772 13.7164 19.7285C14.1017 19.8798 14.539 19.7749 14.8169 19.4644L21.7399 11.7301C22.099 11.3289 22.0846 10.7121 21.7071 10.3287L14.7841 3.2975Z"/>
</svg>
