<svg viewBox="0 0 24 24" xmlns="http://www.w3.org/2000/svg" data-title="ForwardOutline" fill="currentColor" stroke="none">
  <path fill-rule="evenodd" clip-rule="evenodd" d="M13.6943 3.47724C14.0679 3.32004 14.4981 3.40693 14.7841 3.6974L21.7071 10.7286C22.0846 11.112 22.099 11.7288 21.7399 12.13L14.8169 19.8643C14.539 20.1748 14.1017 20.2798 13.7164 20.1284C13.331 19.9771 13.077 19.6007 13.077 19.1812V15.978H12C10.175 15.978 9.12847 16.3024 8.06508 16.9797C7.23439 17.5087 6.41301 18.2331 5.25394 19.2553C4.7818 19.6717 4.25363 20.1375 3.64597 20.6596C3.30374 20.9537 2.81063 20.9805 2.43943 20.7253C2.06822 20.47 1.90964 19.995 2.0514 19.5631C2.17972 19.1721 2.31143 18.7429 2.45125 18.2873C3.02669 16.4121 3.7394 14.0895 4.91764 12.145C6.43728 9.63698 8.80248 7.61867 12.6923 7.61867H13.077V4.41556C13.077 4.00477 13.3206 3.63444 13.6943 3.47724ZM15.077 6.86749V8.6343C15.077 9.19521 14.6292 9.64992 14.077 9.64992H12.6923C9.65917 9.64992 7.87054 11.1472 6.62095 13.2095C5.95455 14.3094 5.46173 15.532 5.042 16.7607C5.74183 16.1628 6.37672 15.6574 7.00254 15.2588C8.43802 14.3445 9.86791 13.9468 12 13.9468H14.077C14.6292 13.9468 15.077 14.4015 15.077 14.9624V16.5541L19.6187 11.4802L15.077 6.86749Z"/>
</svg>
