<svg viewBox="0 0 24 24" xmlns="http://www.w3.org/2000/svg" data-title="ForwardOutline" fill="currentColor" stroke="none">
  <path fill-rule="evenodd" clip-rule="evenodd" d="M13.6943 3.07734C14.0679 2.92014 14.4981 3.00703 14.7841 3.2975L21.7071 10.3287C22.0846 10.7121 22.099 11.3289 21.7399 11.7301L14.8169 19.4644C14.539 19.7749 14.1017 19.8798 13.7164 19.7285C13.331 19.5772 13.077 19.2008 13.077 18.7812V15.5781H12C10.175 15.5781 9.12847 15.9025 8.06508 16.5798C7.23439 17.1088 6.41301 17.8332 5.25394 18.8554C4.7818 19.2718 4.25363 19.7376 3.64597 20.2597C3.30374 20.5538 2.81063 20.5806 2.43943 20.3254C2.06822 20.0701 1.90964 19.5951 2.0514 19.1632C2.17972 18.7722 2.31143 18.343 2.45125 17.8874C3.02669 16.0122 3.7394 13.6896 4.91764 11.7451C6.43728 9.23708 8.80248 7.21877 12.6923 7.21877H13.077V4.01565C13.077 3.60487 13.3206 3.23454 13.6943 3.07734ZM15.077 6.46758V8.2344C15.077 8.79531 14.6292 9.25002 14.077 9.25002H12.6923C9.65917 9.25002 7.87054 10.7473 6.62095 12.8096C5.95455 13.9095 5.46173 15.1321 5.042 16.3608C5.74183 15.7629 6.37672 15.2575 7.00254 14.8589C8.43802 13.9446 9.86791 13.5469 12 13.5469H14.077C14.6292 13.5469 15.077 14.0016 15.077 14.5625V16.1542L19.6187 11.0803L15.077 6.46758Z"/>
</svg>
