<svg viewBox="0 0 24 24" xmlns="http://www.w3.org/2000/svg" data-title="Function" fill="currentColor" stroke="none">
  <path fill-rule="evenodd" clip-rule="evenodd" d="M13.625 5.19995C14.6605 5.19995 15.5 6.02469 15.5 7.04206V8.14732H18.2143C19.1611 8.14732 19.9357 8.9074 19.9962 9.86831L20 9.98942V17.3578C20 18.3752 19.2005 19.2 18.2143 19.2H6.78571C5.79949 19.2 5 18.3752 5 17.3578V9.98942C5 8.97206 5.79949 8.14732 6.78571 8.14732H9.5V7.04206C9.5 6.06538 10.2737 5.26624 11.2517 5.20387L11.375 5.19995H13.625ZM10.25 12.5684H5.714L5.71429 17.3578C5.71429 17.9324 6.13921 18.4045 6.68253 18.458L6.78571 18.4631H18.2143C18.806 18.4631 19.2857 17.9683 19.2857 17.3578L19.2853 12.5684H14.75V13.735C14.75 13.8858 14.6173 14.0111 14.4424 14.0371L14.375 14.0421H10.625C10.4179 14.0421 10.25 13.9046 10.25 13.735V12.5684ZM14 12.5684H11V13.3052H14V12.5684ZM18.2143 8.88416H6.78571C6.19398 8.88416 5.71429 9.379 5.71429 9.98942L5.714 11.8315H10.25V10.6649C10.25 10.5141 10.3827 10.3888 10.5576 10.3628L10.625 10.3578H14.375C14.5821 10.3578 14.75 10.4953 14.75 10.6649V11.8315H19.2853L19.2857 9.98942C19.2857 9.41491 18.8608 8.94278 18.3175 8.88922L18.2143 8.88416ZM14 11.0947H11V11.8315H14V11.0947ZM13.625 5.93679H11.375C10.7537 5.93679 10.25 6.43164 10.25 7.04206V8.14732H14.75V7.04206C14.75 6.46754 14.3038 5.99541 13.7333 5.94185L13.625 5.93679Z"/>
</svg>
