<svg viewBox="0 0 24 24" xmlns="http://www.w3.org/2000/svg" data-title="FurnitureType" fill="currentColor" stroke="none">
  <path fill-rule="evenodd" d="m9.91,7.21c.17,0,.32.12.37.28l.77,2.68c.03.12,0,.24-.07.34-.08.1-.21.16-.34.15h-1.06s0,1.95,0,1.95h.32c.62,0,1.12.5,1.12,1.11v.4s.14,0,.14,0c.46.02.83.39.83.85v3.63c0,.2-.16.37-.36.38H3.89c-.21,0-.39-.17-.39-.38v-3.63c0-.23.09-.44.25-.6.16-.16.38-.25.61-.25h.22s0-.4,0-.4c0-.61.51-1.11,1.13-1.11h3.11v-1.95h-1.06c-.12,0-.23-.05-.3-.14-.07-.09-.1-.21-.08-.32l.55-2.68c.04-.18.19-.31.38-.31h1.61Zm9.81-2.21c.44.03.77.39.77.82v4.21s0,.02,0,.02v.02s0,3.84,0,3.84c0,0,0,.02,0,.02v.02s0,4.22,0,4.22c0,.43-.34.79-.77.82h-6.11c-.22,0-.44-.08-.59-.23-.16-.15-.25-.36-.25-.58V5.82c0-.45.37-.82.83-.82h6.13Zm-8.58,9.89h-.37s-.01,0-.02,0c-.04.01-.07.04-.07.08v1.64s0,.09,0,.14v1.47s.54,0,.54,0v-3.25s-.04-.09-.08-.09Zm-6.37,0h-.42s-.05,0-.07.03c-.02.02-.03.04-.03.06l.02,3.24h.54v-3.25s-.02-.07-.05-.08Zm5.13,2.5h-4.31v.84h4.31v-.84Zm9.81-3.08h-2.72v3.9h2.67s.04.03.05,0v-3.9Zm-3.49,0h-2.69v3.9s2.69,0,2.69,0v-3.9Zm-6.9,1.86h-3.13c-.28,0-.51.19-.58.45h4.28c-.06-.26-.29-.45-.57-.45Zm6.14-.86c.21,0,.39.17.39.38v.53c0,.21-.17.38-.39.38-.21,0-.38-.17-.39-.38v-.53c0-.21.17-.38.39-.38Zm2.32,0c.21,0,.39.17.39.38v.53c0,.21-.17.38-.39.38s-.39-.17-.39-.38v-.53c0-.21.17-.38.39-.38Zm-7.88-1.96h-.6s-.07.02-.1.02-.07,0-.1-.01h-3.39c-.19,0-.35.16-.35.35v.66c.16.16.25.37.25.6v.59c.18-.09.39-.14.6-.14h3.13c.21,0,.4.05.58.13v-.56s0-.02,0-.02v-.09c.03-.24.15-.45.35-.59v-.58c0-.19-.15-.35-.35-.35Zm9.81-2.93h-6.18v3.13s6.18,0,6.18,0v-3.13Zm-10.11-2.45h-.99l-.39,1.92h1.91l-.53-1.92Zm10.11.11h-6.18v1.58h6.18v-1.58Zm0-2.31h-6.18v1.57h6.18v-1.57Z"/>
</svg>
