<svg viewBox="0 0 24 24" xmlns="http://www.w3.org/2000/svg" data-title="Furniture" fill="currentColor" stroke="none">
  <path fill-rule="evenodd" d="m17.94,6c1.12.02,1.94.27,1.94.86v-.07s.56,2.46.56,2.46l.03.07.03.16c0,.65-.97.96-2.32,1.01v6.76s1.16,0,1.16,0c.21,0,.39.17.39.38,0,.18-.14.34-.32.37h-.07s-3.09,0-3.09,0c-.21,0-.39-.17-.39-.38,0-.18.14-.34.32-.37h.07s1.16,0,1.16,0v-6.76c-1.35-.05-2.32-.36-2.32-1.01v-.17s.6-2.53.6-2.53h0c.07-.54.86-.77,1.93-.79h.31Zm-4,5.25c.21,0,.39.17.39.38v2.71c.45.17.77.61.77,1.12v1.75c0,.44-.36.79-.8.8h-.24c-.44,0-.79-.36-.79-.8v-.31h-7.94v.31c0,.41-.3.75-.7.8h-.09s-.24,0-.24,0c-.42,0-.77-.34-.79-.78v-1.77c0-.53.31-.97.77-1.13v-2.69c0-.21.17-.38.39-.38h9.27Zm0,3.75H4.66c-.28,0-.47.17-.47.45v1.75c0,.06.05.11.11.11h.23c.06,0,.11-.05.11-.11v-.66c0-.19.15-.35.34-.35h8.63c.19,0,.34.15.34.35v.66c0,.06.05.11.1.11h.23c.06,0,.11-.05.12-.11v-1.74c0-.28-.19-.45-.47-.45Zm-.39-3H5.05v2.25h8.5v-2.25Zm4.23-5.21c-.44,0-.84.05-1.12.12-.12.03-.21.07-.26.1h.02s-.56,2.38-.56,2.38l.04.02c.06.03.14.06.24.09l.1.03c.4.11.96.17,1.56.17s1.16-.06,1.56-.17c.18-.05.32-.1.4-.15l-.04.02-.56-2.41-.06-.03-.09-.03-.09-.03c-.29-.08-.69-.12-1.13-.12Z"/>
</svg>
