<svg viewBox="0 0 24 24" xmlns="http://www.w3.org/2000/svg" data-title="Furniture" fill="currentColor" stroke="none">
  <path fill-rule="evenodd" clip-rule="evenodd" d="M18.4356 6.19995C19.5598 6.22017 20.3765 6.46552 20.3765 7.05598L20.3719 6.99009L20.9376 9.4511L20.9676 9.52255L21 9.68377C21 10.3335 20.0298 10.6448 18.6823 10.6932L18.6818 17.45H19.8409C20.0543 17.45 20.2273 17.6178 20.2273 17.825C20.2273 18.009 20.0906 18.1622 19.9104 18.1939L19.8409 18.2H16.75C16.5366 18.2 16.3636 18.0321 16.3636 17.825C16.3636 17.6409 16.5003 17.4877 16.6805 17.456L16.75 17.45H17.9091L17.9094 10.6932C16.5615 10.6449 15.5909 10.3337 15.5909 9.68377V9.61232L15.602 9.51661L16.1957 6.9885L16.1969 6.97761C16.2664 6.44379 17.055 6.21926 18.1256 6.19995H18.4356ZM14.4318 11.45C14.6452 11.45 14.8182 11.6178 14.8182 11.825L14.8187 14.5302C15.2673 14.7034 15.5868 15.1386 15.5909 15.6516V17.404C15.5844 17.8408 15.233 18.1934 14.7925 18.2L14.5533 18.1999C14.117 18.1933 13.7669 17.8365 13.7669 17.3988V17.0881H5.8233L5.82398 17.3988C5.82403 17.8074 5.51901 18.1454 5.11944 18.194L5.03244 18.2H4.7939C4.3719 18.1944 4.02577 17.8628 4 17.4196V15.6488C4.0042 15.1227 4.31448 14.6773 4.77247 14.5153L4.77273 11.825C4.77273 11.6178 4.94571 11.45 5.15909 11.45H14.4318ZM14.4318 15.2H5.15909C4.87558 15.2 4.69055 15.3699 4.6883 15.6516L4.68768 17.399C4.69134 17.4604 4.74163 17.5086 4.79842 17.5093L5.02723 17.5094C5.0874 17.5085 5.1357 17.4593 5.13569 17.3988V16.7428C5.13569 16.5521 5.28977 16.3975 5.47984 16.3975H14.1111C14.3011 16.3975 14.4552 16.5521 14.4552 16.7428V17.3989C14.4552 17.4593 14.5035 17.5085 14.5585 17.5093L14.7874 17.5094C14.8507 17.5084 14.9017 17.4572 14.9026 17.3988V15.6544C14.9004 15.3699 14.7153 15.2 14.4318 15.2ZM14.0455 12.2H5.54545V14.45H14.0455V12.2ZM18.2804 6.99247C17.8426 6.99247 17.4413 7.03797 17.1566 7.11502C17.0348 7.14799 16.9441 7.18443 16.8955 7.21575L16.9199 7.20206L16.3572 9.59565L16.3974 9.61788C16.459 9.64889 16.54 9.6803 16.6374 9.71008L16.7402 9.73923C17.14 9.84462 17.6963 9.90606 18.2955 9.90606C18.8946 9.90606 19.451 9.84462 19.8507 9.73923C20.0307 9.6918 20.1679 9.63795 20.2486 9.58706L20.2067 9.60994L19.6477 7.20285L19.5898 7.175L19.4948 7.14052L19.4086 7.11517C19.1218 7.03804 18.7186 6.99247 18.2804 6.99247Z"/>
</svg>
