<svg viewBox="0 0 24 24" xmlns="http://www.w3.org/2000/svg" data-title="GalleryFill" fill="currentColor" stroke="none">
  <path d="M4.36108 6.4063C4.25057 6.4063 4.1446 6.44708 4.06646 6.51968C3.98832 6.59227 3.94442 6.69073 3.94442 6.7934V16.4708C3.94442 16.9696 3.50915 17.374 2.97221 17.374C2.43527 17.374 2 16.9696 2 16.4708V6.7934C2 6.21163 2.24876 5.6537 2.69154 5.24233C3.13433 4.83096 3.73488 4.59985 4.36108 4.59985H16.8609C17.3979 4.59985 17.8331 5.00424 17.8331 5.50308C17.8331 6.00191 17.3979 6.4063 16.8609 6.4063H4.36108Z"/>
  <path fill-rule="evenodd" clip-rule="evenodd" d="M20.84 20.2952C21.5344 19.9133 22 19.2103 22 18.4063V10.0192C22 8.80777 20.9429 7.82569 19.6389 7.82569H7.83352C6.52953 7.82569 5.47244 8.80777 5.47244 10.0192V18.4063C5.47244 19.2684 6.0077 20.0143 6.78631 20.3728C6.85373 20.4096 6.92483 20.4382 6.99794 20.4585C7.25769 20.5499 7.53932 20.5999 7.83352 20.5999H19.6389C19.9604 20.5999 20.2668 20.5402 20.5461 20.4321C20.6498 20.403 20.7493 20.3574 20.84 20.2952ZM20.0556 18.0563L15.4841 13.6049C15.2621 13.3854 14.9939 13.2108 14.696 13.0918C14.3964 12.9721 14.0734 12.9114 13.7474 12.9135C13.4213 12.9155 13.0992 12.9803 12.8014 13.1038C12.507 13.2258 12.2426 13.4026 12.0245 13.6231L7.41686 18.1435V10.0192C7.41686 9.80544 7.6034 9.63214 7.83352 9.63214H19.6389C19.869 9.63214 20.0556 9.80544 20.0556 10.0192V18.0563Z"/>
</svg>
