<svg viewBox="0 0 24 24" xmlns="http://www.w3.org/2000/svg" data-title="Garage" fill="currentColor" stroke="none">
  <path fill-rule="evenodd" d="m12.24,4.51l.06.02,7.98,3.64c.11.05.19.16.21.28v.06s0,10.61,0,10.61c0,.21-.17.38-.37.38-.18,0-.33-.13-.36-.31v-.07s0-10.37,0-10.37l-7.61-3.47-7.91,3.58v10.26c0,.18-.13.34-.3.37h-.07c-.18,0-.33-.13-.36-.3v-.07s0-10.5,0-10.5c0-.13.06-.24.16-.31l.05-.03,8.28-3.75c.08-.03.16-.04.24-.02Zm2.23,3.74c.47,0,.89.28,1.11.72l.05.1,1.02,2.6.69-.69s.11-.08.17-.09h.06s1.03,0,1.03,0c.19,0,.34.17.34.37,0,.18-.12.33-.28.37h-.06s-.9,0-.9,0l-.46.46c.17.05.36.12.55.22.71.38,1.15,1.03,1.15,1.97v3.32c0,.19-.15.35-.33.35h-.46s.01.08.01.12c0,.8-.69,1.44-1.55,1.44s-1.55-.65-1.55-1.44c0-.04,0-.08.01-.12h-6.21s.01.08.01.12c0,.8-.69,1.44-1.55,1.44s-1.55-.65-1.55-1.44c0-.04,0-.08.01-.12h-.46c-.18,0-.33-.16-.33-.35v-3.32c0-.94.45-1.59,1.16-1.97.19-.1.37-.17.54-.22l-.46-.46h-.9c-.17,0-.31-.13-.34-.3v-.07c0-.18.12-.33.28-.37h.06s1.03,0,1.03,0c.07,0,.13.02.18.06l.05.04.69.69,1.02-2.6c.18-.46.59-.77,1.05-.81h.11s4.94,0,4.94,0Zm-6.33,9.81c0-.12-1.55-.12-1.55,0,0,.4.35.72.77.72s.77-.32.77-.72Zm9.27,0c0-.12-1.55-.12-1.55,0,0,.4.35.72.77.72s.77-.32.77-.72Zm-.74-5.38H7.35s-.07,0-.13.02l-.13.02c-.2.04-.41.11-.59.21-.51.27-.79.69-.79,1.34v2.97h12.61v-2.97c0-.61-.25-1.01-.69-1.28l-.1-.06c-.19-.1-.39-.17-.59-.21-.07-.02-.13-.03-.18-.03h-.08Zm-3.4,3.03c.15,0,.28.17.28.38,0,.18-.1.34-.23.37h-.05s-2.53,0-2.53,0c-.15,0-.28-.17-.28-.38,0-.18.1-.34.23-.37h.05s2.53,0,2.53,0Zm-5.44-1.86c.68,0,1.24.53,1.24,1.19s-.55,1.19-1.24,1.19-1.24-.53-1.24-1.19.55-1.19,1.24-1.19Zm8.11,0c.68,0,1.24.53,1.24,1.19s-.55,1.19-1.24,1.19-1.24-.53-1.24-1.19.55-1.19,1.24-1.19Zm-8.11.75c-.26,0-.46.2-.46.45s.21.45.46.45.46-.2.46-.45-.21-.45-.46-.45Zm8.11,0c-.26,0-.46.2-.46.45s.21.45.46.45.46-.2.46-.45-.21-.45-.46-.45Zm-2.67-.37c.15,0,.28.17.28.38,0,.18-.1.34-.23.37h-.05s-2.53,0-2.53,0c-.15,0-.28-.17-.28-.38,0-.18.1-.34.23-.37h.05s2.53,0,2.53,0Zm1.2-5.22h-4.94c-.2,0-.39.11-.49.3l-.03.07-1.03,2.62h8.04s-1.03-2.61-1.03-2.61c-.08-.2-.25-.34-.45-.36h-.08Z"/>
</svg>
