<svg viewBox="0 0 24 24" xmlns="http://www.w3.org/2000/svg" data-title="Garden" fill="currentColor" stroke="none">
  <path fill-rule="evenodd" clip-rule="evenodd" d="M17 7.1741L16.25 6.22019L15.5 7.1733V9.69995H14.75V7.02881C14.75 6.95854 14.7674 6.88994 14.8 6.82972L14.8375 6.77255L15.9625 5.34281C16.0974 5.17138 16.3338 5.15423 16.489 5.29138L16.5375 5.34281L17.6625 6.77255C17.7049 6.82643 17.7329 6.89093 17.7443 6.95934L17.75 7.02881V9.69995H19.6429C19.8401 9.69995 20 9.86784 20 10.075V13.075C20 13.2821 19.8401 13.45 19.6429 13.45H17.75V19.8008C17.75 19.9968 17.6173 20.1597 17.4424 20.1935L17.375 20.2H15.125C14.9409 20.2 14.7878 20.0588 14.756 19.8726L14.75 19.8008V13.45H14V19.8008C14 19.9968 13.8673 20.1597 13.6924 20.1935L13.625 20.2H11.375C11.1909 20.2 11.0378 20.0588 11.006 19.8726L11 19.8008V13.45H10.25V19.8008C10.25 19.9968 10.1173 20.1597 9.94241 20.1935L9.875 20.2H7.625C7.44091 20.2 7.28779 20.0588 7.25604 19.8726L7.25 19.8008V13.45H5.35714C5.1599 13.45 5 13.2821 5 13.075V10.075C5 9.86784 5.1599 9.69995 5.35714 9.69995H7.25V7.02881C7.25 6.95854 7.26742 6.88994 7.29998 6.82972L7.3375 6.77255L8.4625 5.34281C8.5974 5.17138 8.83382 5.15423 8.98902 5.29138L9.0375 5.34281L10.1625 6.77255C10.2049 6.82643 10.2329 6.89093 10.2443 6.95934L10.25 7.02881V9.69995H11V7.02881C11 6.95854 11.0174 6.88994 11.05 6.82972L11.0875 6.77255L12.2125 5.34281C12.3474 5.17138 12.5838 5.15423 12.739 5.29138L12.7875 5.34281L13.9125 6.77255C13.9549 6.82643 13.9829 6.89093 13.9943 6.95934L14 7.02881V9.69995H17V7.1741ZM9.5 13.45H8V19.4017H9.5V13.45ZM13.25 13.45H11.75V19.4017H13.25V13.45ZM19.3182 10.45H5.68182V12.7H19.3182V10.45ZM8.75 6.22019L8 7.1733V9.69995H9.5V7.1741L8.75 6.22019ZM13.25 9.69995V7.1741L12.5 6.22019L11.75 7.1733V9.69995H13.25ZM15.5 13.45V19.4017H17V13.45H15.5Z"/>
</svg>
