<svg viewBox="0 0 24 24" xmlns="http://www.w3.org/2000/svg" data-title="GardeningProduct" fill="currentColor" stroke="none">
  <path fill-rule="evenodd" d="m20.11,6.5c.21,0,.39.18.39.39,0,.19-.14.35-.32.39h-.07s-1.26,0-1.26,0l-2.22,7.52v2.32s0,.01,0,.01h0s0,.03,0,.03v-.02s0,.03,0,.05c0,.01,0,.02,0,.04v.03s-.02.02-.03.03c0,0-.01.02-.02.03,0,0-.01.02-.02.03,0,.01-.02.02-.03.03l-.02.02h-.01s0,.02,0,.02l.03-.03-.04.03-.03.02s-.02.01-.03.02c-.01,0-.02.01-.03.02,0,0-.02,0-.03.01-.01,0-.02,0-.04,0,0,0-.02,0-.03,0-.01,0-.03,0-.04,0h-.02s-.05,0-.05,0h-.03s-.02,0-.04-.01h-.03s-.02-.02-.03-.03c0,0-.02-.01-.03-.02,0,0,0,0-.01,0h-.01s-.02-.03-.03-.04l-2.21-2.25h-4.53s0,0,0,0h0s0,0,0,0h0s-.04,0-.04,0c0,0-.02,0-.03,0,0,0-.02,0-.03-.01-.01,0-.02-.01-.03-.02,0,0-.02,0-.02-.01,0,0-.02-.01-.03-.02-.02-.02-.04-.04-.05-.05l-1.15-1.37-.8.82c.2.31.32.68.32,1.08,0,1.08-.86,1.96-1.93,1.96s-1.93-.88-1.93-1.96.86-1.96,1.93-1.96c.39,0,.76.12,1.06.32l.85-.86-2.98-3.53s-.05-.08-.07-.12c-.03-.09-.03-.18,0-.27,0,0,0-.02.01-.03,0-.01.01-.02.02-.04.04-.08.12-.14.2-.17.04-.02.09-.02.13-.02h12.93s.61-2.08.61-2.08h0s0-.03,0-.03h0s0-.02,0-.02h0s.02-.03.02-.03c0-.01.01-.02.02-.03,0,0,0-.01.02-.02,0-.01.02-.02.03-.03,0,0,.01-.01.02-.02,0,0,.02-.02.03-.02,0,0,.02-.01.02-.02.01,0,.02-.01.03-.02,0,0,.02,0,.03-.01.01,0,.02,0,.04-.01,0,0,.02,0,.03,0,0,0,0,0,.01,0h.02s.02,0,.04,0h1.56Zm-14.68,7.86c-.64,0-1.16.53-1.16,1.18s.52,1.18,1.16,1.18,1.16-.53,1.16-1.18c0-.18-.04-.35-.11-.51l-.77.79c-.15.15-.4.15-.55,0-.13-.14-.15-.35-.04-.5l.04-.05.77-.79c-.15-.07-.32-.11-.5-.11Zm10.43.79h-1l1,1.02v-1.02Zm1.49-5.5H5.5l3.97,4.71h6.49l1.39-4.71Z"/>
</svg>
