<svg viewBox="0 0 24 24" xmlns="http://www.w3.org/2000/svg" data-title="GardeningProduct" fill="currentColor" stroke="none">
  <path fill-rule="evenodd" clip-rule="evenodd" d="M20.6136 7.19995C20.827 7.19995 21 7.37584 21 7.59281C21 7.78567 20.8633 7.94607 20.6831 7.97934L20.6136 7.98567L19.3549 7.9856L17.1357 15.5073L17.136 17.8233L17.1349 17.8377V17.8228L17.1324 17.8636L17.1341 17.8432C17.1327 17.8629 17.1306 17.8764 17.1278 17.8898C17.1252 17.9018 17.1221 17.9138 17.1184 17.9257L17.1072 17.9572C17.1029 17.9678 17.0979 17.9786 17.0925 17.9892C17.0875 17.9988 17.0823 18.008 17.0767 18.0169C17.071 18.0262 17.0647 18.0354 17.0579 18.0445C17.0499 18.0552 17.0414 18.0655 17.0324 18.0752L17.0137 18.0942L16.9989 18.1076L16.9904 18.1143L17.0232 18.0849L16.9865 18.1167L16.9562 18.1394C16.9476 18.1449 16.9386 18.1502 16.9294 18.1551C16.9187 18.1609 16.9081 18.1659 16.8973 18.1704C16.8876 18.1745 16.8773 18.1783 16.8668 18.1817C16.855 18.1855 16.8431 18.1886 16.8311 18.1912C16.8229 18.1931 16.8143 18.1946 16.8057 18.1959C16.7924 18.1978 16.7792 18.1991 16.7659 18.1996L16.75 18.2L16.6967 18.1952H16.6952L16.6687 18.1912C16.6569 18.1886 16.645 18.1855 16.6333 18.1817L16.6024 18.1703C16.5919 18.1659 16.5813 18.1609 16.5709 18.1553C16.5614 18.1502 16.5524 18.1449 16.5437 18.1393C16.5393 18.1365 16.5348 18.1335 16.5303 18.1303L16.5165 18.1201C16.506 18.112 16.4959 18.1034 16.4863 18.0942L14.2719 15.8428H9.79545L9.74066 15.8381L9.74761 15.8397L9.74242 15.8391L9.73988 15.8381H9.73911L9.73447 15.8373L9.69159 15.8284C9.68237 15.8258 9.67289 15.8227 9.66353 15.8193C9.65505 15.8162 9.64664 15.8127 9.63838 15.809C9.62657 15.8037 9.61484 15.7976 9.60339 15.791C9.59556 15.7863 9.58789 15.7815 9.58041 15.7764C9.57081 15.7699 9.56128 15.7628 9.55204 15.7551C9.53033 15.7367 9.5134 15.7195 9.49814 15.7009L8.34659 14.335L7.54394 15.153C7.74599 15.4634 7.86364 15.8356 7.86364 16.2357C7.86364 17.3205 6.99873 18.2 5.93182 18.2C4.8649 18.2 4 17.3205 4 16.2357C4 15.1508 4.8649 14.2714 5.93182 14.2714C6.32532 14.2714 6.69134 14.391 6.99662 14.5964L7.84277 13.7363L4.86575 10.2056C4.83525 10.1689 4.81253 10.1297 4.7969 10.087C4.76488 9.99844 4.76507 9.9029 4.7956 9.81661C4.79872 9.80769 4.8022 9.79888 4.80599 9.79024C4.81126 9.77821 4.8172 9.76625 4.82378 9.75459C4.86839 9.67563 4.93925 9.61386 5.02428 9.58167C5.06779 9.56542 5.11182 9.55747 5.15579 9.55711L18.0853 9.55702L18.6981 7.47992L18.7013 7.4694L18.7076 7.45144L18.7121 7.44038L18.7147 7.43389L18.7128 7.43881L18.7297 7.40328C18.7356 7.39235 18.7422 7.38148 18.7493 7.37097C18.7542 7.36353 18.7592 7.35656 18.7645 7.34978C18.7727 7.33926 18.7817 7.32887 18.7911 7.31899C18.7977 7.31201 18.8043 7.30558 18.8112 7.29941C18.8202 7.29124 18.8299 7.28325 18.84 7.27575C18.8478 7.26998 18.8558 7.26444 18.8641 7.25923C18.8747 7.25248 18.8854 7.24639 18.8964 7.24082C18.9048 7.23668 18.9134 7.23271 18.9222 7.22907C18.9336 7.22421 18.9454 7.21998 18.9574 7.21633C18.9673 7.21339 18.9772 7.2108 18.9872 7.20861C18.9908 7.20781 18.9948 7.20701 18.9987 7.20628L19.0196 7.20297C19.0317 7.20141 19.0438 7.20042 19.0561 7.20004L20.6136 7.19995ZM5.93182 15.0571C5.29167 15.0571 4.77273 15.5848 4.77273 16.2357C4.77273 16.8866 5.29167 17.4142 5.93182 17.4142C6.57197 17.4142 7.09091 16.8866 7.09091 16.2357C7.09091 16.054 7.0505 15.882 6.97832 15.7283L6.20502 16.5135C6.05413 16.6669 5.8095 16.6669 5.65862 16.5135C5.5245 16.3771 5.5096 16.1654 5.61391 16.0123L5.65862 15.9579L6.43078 15.1716C6.27966 15.0982 6.11046 15.0571 5.93182 15.0571ZM16.3629 15.8428H15.3646L16.3636 16.8587L16.3629 15.8428ZM17.8535 10.3427H5.99905L9.97318 15.057H16.4625L17.8535 10.3427Z"/>
</svg>
