<svg viewBox="0 0 24 24" xmlns="http://www.w3.org/2000/svg" data-title="GlassWindows" fill="currentColor" stroke="none">
  <path fill-rule="evenodd" clip-rule="evenodd" d="M19.625 5.19995C19.832 5.19995 20 5.36833 20 5.57579V18.8241C20 19.0316 19.832 19.2 19.625 19.2H5.375C5.168 19.2 5 19.0316 5 18.8241V5.57579C5 5.36833 5.168 5.19995 5.375 5.19995H19.625ZM19.25 5.95163H5.75V18.4483H19.25V5.95163ZM18.5045 6.36731C18.7123 6.36731 18.8795 6.53493 18.8795 6.74315V17.6568C18.8795 17.865 18.7123 18.0326 18.5045 18.0326H6.49475C6.28775 18.0326 6.11975 17.865 6.11975 17.6568V6.74315C6.11975 6.53493 6.28775 6.36731 6.49475 6.36731H18.5045ZM11.5243 7.11899H6.86975V17.2817H11.5243V7.11899ZM12.725 7.11899H12.2743V17.2817H12.725V7.11899ZM18.1295 7.11823H13.475V17.2809H18.1295V7.11823ZM10.3339 8.56634C10.4801 8.41976 10.7178 8.41976 10.8641 8.56634C11.0103 8.71292 11.0103 8.9512 10.8641 9.09778L8.32835 11.6384C8.25485 11.7121 8.1596 11.7482 8.0636 11.7482C7.9676 11.7482 7.8716 11.7121 7.7981 11.6384C7.65185 11.4919 7.65185 11.2536 7.7981 11.107L10.3339 8.56634ZM16.936 8.56627C17.0823 8.41969 17.32 8.41969 17.4663 8.56627C17.6125 8.71284 17.6125 8.95112 17.4663 9.0977L14.9305 11.6384C14.857 11.712 14.761 11.7481 14.6658 11.7481C14.5698 11.7481 14.4738 11.712 14.4003 11.6384C14.254 11.4918 14.254 11.2535 14.4003 11.1069L16.936 8.56627ZM9.0005 8.31498C9.14675 8.1684 9.3845 8.1684 9.53075 8.31498C9.677 8.46231 9.677 8.69984 9.53075 8.84642L8.07875 10.3024C8.00525 10.3761 7.90925 10.4122 7.81325 10.4122C7.718 10.4122 7.622 10.3761 7.5485 10.3024C7.40225 10.1558 7.40225 9.91756 7.5485 9.77098L9.0005 8.31498ZM15.6021 8.31498C15.7484 8.1684 15.9862 8.1684 16.1324 8.31498C16.2787 8.46231 16.2787 8.69984 16.1324 8.84642L14.6804 10.3024C14.6069 10.3761 14.5109 10.4122 14.4156 10.4122C14.3196 10.4122 14.2236 10.3761 14.1501 10.3024C14.0039 10.1558 14.0039 9.91756 14.1501 9.77098L15.6021 8.31498Z"/>
</svg>
