<svg viewBox="0 0 24 24" xmlns="http://www.w3.org/2000/svg" data-title="Gps" fill="currentColor" stroke="none">
  <path fill-rule="evenodd" d="m18.82,7.04c-.17-.36-.45-.65-.78-.83-.39-.21-.81-.21-1.65-.21H7.63c-.84,0-1.26,0-1.65.21-.34.18-.61.47-.78.83-.2.41-.2.86-.2,1.75v4.14c0,.89,0,1.35.2,1.75.17.36.45.65.78.83.36.19.77.21,1.5.21h1.74c.23,0,.41-.19.41-.44s-.18-.44-.41-.44h-1.25l1.25-7.98h5.55l1.25,7.99h-1.25c-.23,0-.41.19-.41.44s.18.44.41.44h1.74c.73,0,1.15,0,1.5-.21.34-.18.61-.47.78-.83.2-.41.2-.86.2-1.75v-4.15c0-.89,0-1.35-.2-1.75h.02Zm-11.67,7.82c-.39,0-.63-.03-.79-.11-.18-.1-.33-.26-.43-.46-.11-.22-.11-.62-.11-1.36v-4.13c0-.73,0-1.13.11-1.36.09-.19.24-.35.43-.46.21-.11.59-.11,1.28-.11h.77l-1.25,7.98h0Zm11.05-1.92c0,.73,0,1.13-.11,1.36-.09.19-.24.35-.43.46-.15.08-.4.11-.79.11l-1.25-7.98h.77c.68,0,1.06,0,1.28.11.18.1.33.25.43.46.11.22.11.62.11,1.36v4.12Z"/>
  <path fill-rule="evenodd" d="m12.26,11.96l-.54.03-2.46,5.24-.13.33.49.45,2.39-1.46,2.13,1.29.31.16.45-.49-2.48-5.29-.15-.26h0Zm-.02,3.72l-.24-.12-1.43.88,1.45-3.09,1.45,3.09-1.23-.75h0Z"/>
  <path d="m12.42,7.91v2.22c0,.25-.18.44-.41.44s-.41-.19-.41-.44v-2.22c0-.25.18-.44.41-.44s.41.19.41.44Z"/>
</svg>
