<svg viewBox="0 0 24 24" xmlns="http://www.w3.org/2000/svg" data-title="GraphOutline" fill="currentColor" stroke="none">
  <path d="M6.46151 5.06161C5.90922 5.06161 5.46151 5.50932 5.46151 6.06161 5.46151 6.61389 5.90922 7.06161 6.46151 7.06161H9.23074C9.78302 7.06161 10.2307 6.61389 10.2307 6.06161 10.2307 5.50932 9.78302 5.06161 9.23074 5.06161H6.46151ZM5.46151 9.52332C5.46151 8.97103 5.90922 8.52332 6.46151 8.52332H12.6923C13.2446 8.52332 13.6923 8.97103 13.6923 9.52332 13.6923 10.0756 13.2446 10.5233 12.6923 10.5233H6.46151C5.90922 10.5233 5.46151 10.0756 5.46151 9.52332ZM19.0883 10.0378C19.3725 9.56418 19.2189 8.94992 18.7453 8.66577 18.2718 8.38162 17.6575 8.53519 17.3734 9.00877L13.7232 15.0924 9.72698 12.8089C9.27065 12.5481 8.69034 12.6851 8.39879 13.1224L5.62956 17.2763C5.32321 17.7358 5.44739 18.3567 5.90691 18.663 6.36644 18.9694 6.98731 18.8452 7.29366 18.3857L9.54513 15.0085 13.5809 17.3146C14.0532 17.5845 14.6546 17.4273 14.9345 16.9608L19.0883 10.0378Z"/>
  <path fill-rule="evenodd" clip-rule="evenodd" d="M19.6154 21.6001C20.9324 21.6001 22 20.5325 22 19.2155V3.98471C22 2.66773 20.9324 1.6001 19.6154 1.6001H4.38462C3.06763 1.6001 2 2.66773 2 3.98471V19.2155C2 20.5325 3.06763 21.6001 4.38462 21.6001H19.6154ZM20 19.2155C20 19.4279 19.8278 19.6001 19.6154 19.6001H4.38462C4.1722 19.6001 4 19.4279 4 19.2155V3.98471C4 3.7723 4.1722 3.6001 4.38462 3.6001H19.6154C19.8278 3.6001 20 3.7723 20 3.98471V19.2155Z"/>
</svg>
