<svg viewBox="0 0 24 24" xmlns="http://www.w3.org/2000/svg" data-title="GraphFill" fill="currentColor" stroke="none">
  <path fill-rule="evenodd" clip-rule="evenodd" d="M20.4615 21.6001H3.53846C2.68879 21.6001 2 20.9113 2 20.0616V3.13856C2 2.28889 2.68879 1.6001 3.53846 1.6001H20.4615C21.3112 1.6001 22 2.28889 22 3.13856V20.0616C22 20.9113 21.3112 21.6001 20.4615 21.6001ZM5.84625 4.44624C5.29396 4.44624 4.84625 4.89395 4.84625 5.44624C4.84625 5.99852 5.29396 6.44624 5.84625 6.44624H8.92317C9.47546 6.44624 9.92317 5.99852 9.92317 5.44624C9.92317 4.89395 9.47546 4.44624 8.92317 4.44624H5.84625ZM4.84624 9.29252C4.84624 8.74023 5.29395 8.29251 5.84624 8.29251H12.7693C13.3216 8.29251 13.7693 8.74023 13.7693 9.29252C13.7693 9.8448 13.3216 10.2925 12.7693 10.2925H5.84624C5.29395 10.2925 4.84624 9.8448 4.84624 9.29252ZM19.7807 9.80701C20.0648 9.33343 19.9112 8.71917 19.4377 8.43502C18.9641 8.15087 18.3498 8.30444 18.0657 8.77802L13.9539 15.6309L9.4193 13.0397C8.96297 12.7789 8.38265 12.9159 8.09111 13.3532L5.01419 17.9686C4.70784 18.4281 4.83201 19.049 5.29154 19.3553C5.75107 19.6617 6.37194 19.5375 6.67829 19.078L9.23745 15.2392L13.8116 17.8531C14.284 18.123 14.8854 17.9658 15.1653 17.4993L19.7807 9.80701Z"/>
</svg>
