<svg viewBox="0 0 24 24" xmlns="http://www.w3.org/2000/svg" data-title="GroupOutline" fill="currentColor" stroke="none">
  <path fill-rule="evenodd" clip-rule="evenodd" d="M12.3123 8.74991C12.3123 10.8216 10.6338 12.4998 8.56163 12.4998C6.49033 12.4998 4.81097 10.8216 4.81097 8.74991C4.81097 6.6782 6.49033 5 8.56163 5C10.6338 5 12.3123 6.6782 12.3123 8.74991ZM10.437 8.74991C10.437 7.71847 9.59332 6.87496 8.56163 6.87496C7.52993 6.87496 6.6863 7.71847 6.6863 8.74991C6.6863 9.78136 7.52993 10.6249 8.56163 10.6249C9.59332 10.6249 10.437 9.78136 10.437 8.74991Z"/>
  <path d="M2.02715 18.8336C2.73227 15.8742 5.34023 13.8078 8.36826 13.8078C11.3963 13.8078 14.0042 15.8742 14.7094 18.8336C14.8294 19.3356 14.5402 19.8456 14.0643 19.9709C13.9917 19.9903 13.9184 20 13.8467 20C13.4491 20 13.0858 19.7159 12.9849 19.2906C12.479 17.1668 10.5795 15.6827 8.36826 15.6827C6.15704 15.6827 4.25837 17.1668 3.75162 19.2906C3.6316 19.7927 3.14818 20.0971 2.67226 19.9709C2.19634 19.8456 1.90713 19.3356 2.02715 18.8336Z"/>
  <path fill-rule="evenodd" clip-rule="evenodd" d="M16.6866 12.4996C18.4707 12.4996 19.9164 11.0552 19.9164 9.2711C19.9164 7.48703 18.4707 6.04177 16.6866 6.04177C14.9026 6.04177 13.4569 7.48703 13.4569 9.2711C13.4569 11.0552 14.9026 12.4996 16.6866 12.4996ZM16.6866 7.65644C17.5751 7.65644 18.3011 8.3826 18.3011 9.2711C18.3011 10.1587 17.5751 10.8849 16.6866 10.8849C15.7981 10.8849 15.0713 10.1587 15.0713 9.2711C15.0713 8.3826 15.7981 7.65644 16.6866 7.65644Z"/>
  <path d="M21.9805 17.9642C21.9804 17.9668 21.9803 17.9695 21.9806 17.9721C22.0015 18.0798 22.0082 18.1901 21.9873 18.296C21.9865 18.2995 21.984 18.303 21.9831 18.3065C21.959 18.4221 21.9123 18.5315 21.8415 18.6268C21.6964 18.8218 21.4739 18.9365 21.2372 18.9365H21.1155C20.8238 18.8853 20.5721 18.6692 20.4954 18.3471C20.0586 16.5189 18.4242 15.2404 16.5197 15.2404C15.7037 15.2404 14.9452 15.4866 14.301 15.8978C13.9809 15.4654 13.6325 15.0578 13.2316 14.7066C13.325 14.6387 13.4225 14.5752 13.5217 14.5134C13.5508 14.4949 13.5798 14.4761 13.6088 14.4573C13.7025 14.3965 13.7964 14.3357 13.8951 14.2831C13.9977 14.2288 14.1048 14.1836 14.2121 14.1383C14.2459 14.124 14.2797 14.1097 14.3135 14.0952C14.3543 14.0779 14.3948 14.0598 14.4354 14.0418C14.5272 14.0009 14.6192 13.96 14.7152 13.9275C14.8513 13.8814 14.993 13.8488 15.1344 13.8163C15.1661 13.809 15.1978 13.8017 15.2295 13.7943C15.2712 13.7841 15.3124 13.7728 15.3535 13.7616C15.433 13.7399 15.5121 13.7183 15.5945 13.7043C15.8746 13.6575 16.1621 13.6355 16.453 13.6319C16.4638 13.6315 16.4741 13.6302 16.4842 13.6289C16.496 13.6273 16.5076 13.6258 16.5197 13.6258C16.7956 13.6258 17.0656 13.6558 17.3323 13.6946C19.5819 14.0219 21.4372 15.6754 21.9798 17.9536C21.9808 17.9571 21.9806 17.9607 21.9805 17.9642Z"/>
</svg>
