<svg viewBox="0 0 24 24" xmlns="http://www.w3.org/2000/svg" data-title="Ground" fill="currentColor" stroke="none">
  <path fill-rule="evenodd" d="m22.93,3.61h-.06s-.09-.02-.16-.03c-.14-.02-.34-.04-.58-.06-.48-.05-1.15-.1-1.87-.11-.71,0-1.52,0-2.27.12-.7.1-1.52.31-2.16.79-.51.36-.94.81-1.27,1.34-.33.53-.55,1.13-.65,1.74s-.05,1.25.11,1.85c.02.08.04.15.07.23-.1.13-.2.27-.29.4-.35.48-.68.99-.97,1.45-.3-.73-.67-1.42-1.1-2.08-.28-.42-.58-.81-.9-1.19.37-.71.58-1.49.61-2.29.05-1.4-.44-2.76-1.37-3.82-.02-.03-.05-.05-.07-.07-.67-.65-1.63-1.02-2.5-1.25-.91-.24-1.9-.39-2.81-.47-.91-.11-1.75-.14-2.37-.16h-1.03C.58.02.02.56,0,1.24v1c.01.6.05,1.42.15,2.29.09.87.25,1.84.5,2.72.25.84.63,1.78,1.3,2.43.02.02.05.04.07.07,1.09.91,2.48,1.38,3.92,1.33,1.14-.04,2.23-.42,3.15-1.07.16.2.3.4.44.61.96,1.45,1.53,3.16,1.6,5.24-3.99.35-7.36,3.19-7.36,6.97,0,.65.54,1.17,1.19,1.17s1.19-.52,1.19-1.17c0-2.41,2.41-4.67,5.81-4.67s5.81,2.26,5.81,4.67c0,.65.54,1.17,1.19,1.17s1.19-.52,1.19-1.17c0-3.47-2.86-6.16-6.41-6.84.12-.93.4-1.84.85-2.68.22-.42.59-1.02,1.02-1.64.21.16.43.3.66.42.56.3,1.18.48,1.81.54.63.06,1.28,0,1.88-.2.6-.19,1.15-.49,1.63-.89.63-.49,1.03-1.22,1.3-1.86.29-.68.5-1.44.66-2.12.16-.69.26-1.33.33-1.8.03-.24.06-.43.07-.57,0-.07.01-.12.02-.16v-.06c.06-.68-.43-1.28-1.1-1.37h.04Zm-4.56,6.51c-.29-.03-.57-.11-.82-.25-.09-.05-.17-.1-.25-.16l.02-.02c.55-.44.64-1.24.18-1.79-.25-.3-.6-.45-.97-.46.05-.17.13-.33.22-.47.15-.24.35-.45.59-.61.02-.01.04-.03.05-.04.1-.08.39-.21.98-.3.54-.08,1.19-.1,1.82-.09.39,0,.76.03,1.09.05-.05.31-.12.67-.2,1.03-.14.61-.31,1.2-.52,1.7-.23.53-.43.78-.53.86-.02.01-.04.03-.05.04-.22.18-.47.32-.75.41-.28.09-.57.12-.86.09h0ZM3.76,7.85c-.19-.2-.41-.62-.61-1.3-.2-.69-.33-1.49-.42-2.29-.07-.63-.1-1.23-.12-1.72.52.02,1.15.05,1.8.11.83.08,1.66.2,2.37.39.71.19,1.13.4,1.34.58.48.57.73,1.29.7,2.02,0,.15-.02.29-.05.43-.77-.63-1.62-1.2-2.53-1.73-.61-.36-1.4-.17-1.77.43-.37.6-.17,1.38.44,1.74.87.51,1.65,1.05,2.35,1.62-.43.24-.91.37-1.42.39-.76.03-1.51-.22-2.09-.69v.02Z"/>
</svg>
