<svg viewBox="0 0 24 24" xmlns="http://www.w3.org/2000/svg" data-title="Headlight" fill="currentColor" stroke="none">
  <path d="m12.67,17c-1.34,0-2.04-2.52-2.04-5,0-1.33.19-2.56.53-3.48.26-.69.73-1.52,1.51-1.52,2.65,0,6.33,1.73,6.33,5s-3.68,5-6.33,5Zm.74-8.71c-.56,0-1.02.32-1.18.82-.25.78-.39,1.8-.39,2.89s.14,2.12.39,2.89c.16.5.62.82,1.17.82.1,0,.18,0,.28-.03,2.04-.39,4.1-1.68,4.1-3.68s-2.06-3.31-4.1-3.69c-.1-.02-.18-.02-.27-.02Zm-7.81,8.43c-.27,0-.5-.18-.58-.44-.04-.15-.02-.31.06-.45.09-.14.21-.23.36-.28l3.14-.79s.08-.01.11-.01c.26,0,.5.21.58.49.04.15.02.29-.05.41-.08.13-.2.22-.35.26l-3.14.79s-.1.02-.15.02h.02Zm0-3.54c-.27,0-.5-.18-.58-.45-.09-.32.11-.64.43-.72l2.64-.69c.06-.02.12-.02.18-.02.38,0,.65.31.65.71,0,.2-.14.37-.33.43l-2.84.71s-.1.02-.15.02h0Zm.08-3.62c-.27,0-.5-.18-.58-.45-.04-.15-.02-.32.06-.45.09-.13.21-.23.36-.28l3.69-.95h.03c.13,0,.21.05.28.13.09.11.13.24.11.37-.15.45-.5.79-.92.89l-2.9.7s-.1.02-.14.02Z"/>
</svg>
