<svg viewBox="0 0 24 24" xmlns="http://www.w3.org/2000/svg" data-title="Hobby" fill="currentColor" stroke="none">
  <path d="m23.99,12c0-3.2-1.25-6.22-3.51-8.49C18.21,1.25,15.2,0,12,0S5.78,1.25,3.51,3.51c-.42.42-.78.86-1.12,1.32-.01.02-.04.04-.05.07C.83,6.95,0,9.41,0,12c0,3.2,1.25,6.22,3.51,8.49,2.27,2.27,5.28,3.51,8.49,3.51,2.98,0,5.78-1.09,7.98-3.06.03-.01.07-.02.1-.04.19-.11.33-.27.44-.46,2.25-2.26,3.48-5.26,3.48-8.45h-.01Zm-8.72,3.25c.66.89,1.28,1.81,1.82,2.8l.82,1.47c-1.64,1.29-3.59,1.96-5.58,2.04.06-.62.15-1.24.32-1.83.47-1.68,1.37-3.22,2.6-4.46h.01Zm3.95,1.6c-.61-1.08-1.3-2.11-2.03-3.1.79-.48,1.63-.85,2.52-1.1.61-.17,1.23-.27,1.83-.32-.07,1.95-.72,3.8-1.86,5.35l-.46-.82h-.01Zm2.11-6.94c-.77.07-1.53.19-2.27.39-1.2.33-2.34.87-3.39,1.55-1.09-1.25-2.3-2.4-3.59-3.44.7-1.07,1.26-2.24,1.61-3.48.2-.73.32-1.49.39-2.27,1.72.37,3.35,1.23,4.69,2.56,1.31,1.31,2.18,2.93,2.57,4.69h-.01ZM4.17,6.51h.05c1.54.64,2.99,1.44,4.36,2.35-1.21,1.16-2.69,2.03-4.3,2.47-.61.17-1.23.26-1.83.32.06-1.87.66-3.65,1.72-5.14Zm1.75-1.89c1.67-1.38,3.7-2.1,5.74-2.17-.06.62-.15,1.24-.31,1.83-.26.95-.69,1.86-1.22,2.69-1.33-.9-2.73-1.69-4.2-2.36h-.01Zm-3.26,9.46c.77-.07,1.53-.18,2.27-.39,2.08-.59,3.99-1.7,5.52-3.23.04-.04.07-.09.11-.13,1.14.92,2.21,1.93,3.18,3.04-.07.06-.14.12-.2.18-1.53,1.53-2.64,3.43-3.23,5.52-.2.73-.32,1.49-.39,2.27-1.72-.37-3.35-1.23-4.69-2.56-1.31-1.31-2.18-2.93-2.57-4.69h.01Z"/>
</svg>
