<svg viewBox="0 0 24 24" xmlns="http://www.w3.org/2000/svg" data-title="HolidayFill" fill="currentColor" stroke="none">
  <path d="m20.42,21.72l-6.78-6.79,1.3-1.3,6.78,6.79c.19.19.28.41.28.65s-.09.46-.28.65c-.19.19-.41.28-.65.28s-.46-.09-.65-.28Zm-16.17-1.53c-1.32-1.79-2.06-3.77-2.22-5.95-.16-2.18.26-4.23,1.26-6.15.04.62.17,1.31.41,2.08.24.76.57,1.56,1,2.39.43.83.95,1.69,1.55,2.57.6.89,1.28,1.75,2.03,2.6l-2.54,2.54c-.23.23-.49.33-.78.31-.29-.02-.53-.15-.72-.4Zm5.2-3.62c-.92-.94-1.72-1.95-2.4-3.01-.68-1.06-1.19-2.09-1.54-3.08-.35-.99-.52-1.9-.52-2.73s.21-1.47.62-1.92c.45-.49,1.11-.74,1.96-.76.86-.02,1.8.14,2.84.48,1.04.34,2.1.84,3.19,1.51,1.09.67,2.08,1.47,2.97,2.39l-7.12,7.12Zm10.82-10.83l-2.54,2.54c-.83-.75-1.68-1.43-2.56-2.04s-1.74-1.12-2.6-1.54c-.86-.42-1.68-.75-2.47-.98-.79-.23-1.51-.35-2.15-.37,1.94-1.04,4.01-1.48,6.22-1.34,2.2.14,4.21.88,6.02,2.22.24.19.38.43.4.72.02.29-.08.55-.31.78Z"/>
</svg>
