<svg viewBox="0 0 24 24" xmlns="http://www.w3.org/2000/svg" data-title="HolidayOutline" fill="currentColor" stroke="none">
  <path d="m20.51,21.74l-6.79-6.78,1.26-1.25,6.79,6.78c.16.16.24.37.24.63s-.08.47-.24.63c-.18.18-.39.26-.63.25-.24-.01-.45-.1-.63-.25Zm-16.83-2.24c-.56-.94-.98-1.91-1.26-2.93-.28-1.02-.42-2.05-.42-3.11,0-1.47.28-2.91.84-4.32.56-1.4,1.4-2.66,2.51-3.78,1.14-1.14,2.41-1.98,3.83-2.54,1.42-.56,2.85-.84,4.3-.84,1.08,0,2.12.14,3.12.42,1.01.28,1.97.7,2.88,1.25.5.3.77.73.81,1.3.04.57-.16,1.07-.6,1.51l-13.21,13.2c-.44.44-.94.64-1.51.6-.57-.04-1-.3-1.3-.78Zm1.49-1.05l1.88-1.88c-.32-.44-.63-.89-.93-1.36-.3-.47-.57-.95-.81-1.45-.24-.5-.44-1.02-.6-1.55-.16-.54-.28-1.09-.36-1.64-.48,1.31-.64,2.66-.49,4.03.15,1.37.58,2.66,1.3,3.85Zm3.2-3.17l6.94-6.99c-.86-.66-1.72-1.18-2.6-1.57-.88-.39-1.7-.65-2.48-.79-.78-.14-1.48-.15-2.11-.03-.63.12-1.11.35-1.45.69-.36.36-.59.85-.7,1.48-.11.63-.1,1.33.03,2.11.13.78.39,1.6.79,2.48.4.88.93,1.75,1.58,2.63Zm10.16-10.13c-1.24-.74-2.54-1.17-3.92-1.31-1.38-.14-2.72.02-4.04.48.58.08,1.13.2,1.66.37.53.17,1.05.37,1.55.6.51.23.99.49,1.45.79.46.3.91.62,1.35.96l1.94-1.88Z"/>
</svg>
