<svg viewBox="0 0 24 24" xmlns="http://www.w3.org/2000/svg" data-title="Holidays" fill="currentColor" stroke="none">
  <path d="M16.5687 2.56609C16.3393 3.18787 16.6574 3.87788 17.2792 4.10729C17.9009 4.33669 18.5909 4.01862 18.8203 3.39685L19.0312 2.82542C19.2606 2.20365 18.9425 1.51363 18.3207 1.28423C17.699 1.05482 17.0089 1.3729 16.7795 1.99467L16.5687 2.56609Z"/>
  <path fill-rule="evenodd" clip-rule="evenodd" d="M18.3735 13.0619C18.846 12.6749 19.25 12.1882 19.5508 11.6127C20.746 9.32642 19.8615 6.50414 17.5752 5.30896C15.5153 4.23214 13.0203 4.84351 11.6723 6.64727C10.4927 6.11095 9.05447 6.32791 8.08424 7.29814L0.792268 14.5901C0.323639 15.0587 0.323639 15.8185 0.792268 16.2872C1.2609 16.7558 2.02069 16.7558 2.48932 16.2872L2.61846 16.158V20.3045C2.61846 22.6241 4.49886 24.5045 6.81846 24.5045H13.6226C15.9422 24.5045 17.8226 22.6241 17.8226 20.3045V15.9052L17.9771 16.0597C18.4458 16.5283 19.2056 16.5283 19.6742 16.0597C20.1428 15.591 20.1428 14.8312 19.6742 14.3626L18.3735 13.0619ZM13.2249 7.9133L16.9466 11.6351C17.2852 11.3977 17.5736 11.0779 17.7784 10.6862C18.4618 9.37875 17.956 7.76484 16.6486 7.08139C15.4457 6.45254 13.9833 6.8305 13.2249 7.9133ZM10.9127 8.9952L15.4226 13.5052V20.3045C15.4226 21.2986 14.6167 22.1045 13.6226 22.1045H6.81846C5.82435 22.1045 5.01846 21.2986 5.01846 20.3045V13.758L9.78129 8.9952C10.0937 8.68278 10.6002 8.68278 10.9127 8.9952Z"/>
  <path d="M23.4846 12.3722C23.2552 12.9939 22.5652 13.312 21.9435 13.0826L21.372 12.8718C20.7503 12.6424 20.4322 11.9524 20.6616 11.3306 20.891 10.7088 21.581 10.3907 22.2028 10.6201L22.7742 10.831C23.396 11.0604 23.7141 11.7504 23.4846 12.3722ZM12.9921 4.27602C12.3902 4.55346 11.6774 4.29046 11.4 3.68859L11.145 3.13545C10.8675 2.53357 11.1305 1.82075 11.7324 1.5433 12.3343 1.26586 13.0471 1.52886 13.3246 2.13073L13.5795 2.68387C13.857 3.28574 13.594 3.99857 12.9921 4.27602ZM21.0173 5.42747C20.4154 5.70491 20.1524 6.41774 20.4299 7.01961 20.7073 7.62148 21.4201 7.88449 22.022 7.60704L22.5752 7.35206C23.177 7.07462 23.44 6.36179 23.1626 5.75991 22.8851 5.15804 22.1723 4.89504 21.5704 5.17249L21.0173 5.42747Z"/>
</svg>
