<svg viewBox="0 0 24 24" xmlns="http://www.w3.org/2000/svg" data-title="HolidaysGardenOutline" fill="currentColor" stroke="none">
  <path d="M10.832 6.206c-.639 0-1.158.468-1.158 1.044 0 .575.52 1.043 1.158 1.043.638 0 1.157-.468 1.157-1.043 0-.576-.519-1.044-1.157-1.044Zm0-.54c.967 0 1.754.71 1.754 1.584 0 .872-.787 1.582-1.754 1.582-.968 0-1.755-.71-1.755-1.582 0-.873.787-1.583 1.755-1.583Zm6.23 1.722c-1.134 0-2.055.8-2.096 1.822a.273.273 0 0 1-.186.239c-.644.24-1.06.799-1.06 1.426 0 .85.766 1.542 1.709 1.542a1.79 1.79 0 0 0 1.334-.58v-.427l-.967-.444c-.147-.067-.206-.23-.13-.362a.315.315 0 0 1 .4-.118l.696.32.001-1.499c0-.148.134-.269.3-.269.163 0 .297.12.297.27v.579l.697-.32c.146-.067.326-.015.4.118.076.132.017.295-.13.363l-.967.443v1.346l.007.008c.323.36.813.572 1.327.572.943 0 1.709-.691 1.709-1.542 0-.627-.416-1.187-1.06-1.426a.273.273 0 0 1-.186-.239c-.04-1.022-.962-1.822-2.095-1.822Zm-9.714 2.736c-.937 0-1.7.688-1.7 1.534 0 .06.005.12.013.186a.265.265 0 0 1-.165.274c-.555.244-.899.74-.899 1.295 0 .656.49 1.229 1.192 1.393.091.022.165.081.2.16.19.415.588.709 1.061.796v-.656l-.986-.762a.252.252 0 0 1-.032-.38.322.322 0 0 1 .42-.03l.597.462V12.29c0-.148.135-.269.3-.269.165 0 .297.12.297.27v1.112l.731-.547a.321.321 0 0 1 .42.035.251.251 0 0 1-.039.38l-1.111.832v1.66c.473-.087.872-.38 1.06-.796a.291.291 0 0 1 .2-.16c.702-.164 1.192-.737 1.192-1.393 0-.555-.345-1.051-.898-1.295a.265.265 0 0 1-.166-.274c.01-.066.013-.127.013-.186 0-.846-.762-1.534-1.7-1.534Zm9.35 5.897c-.4 0-.724.292-.724.652l.001.015a.264.264 0 0 1-.11.215.325.325 0 0 1-.256.053.618.618 0 0 0-.126-.014c-.298 0-.541.219-.543.488v.005a.257.257 0 0 1-.1.205.32.32 0 0 1-.236.066.6.6 0 0 0-.07-.004c-.275 0-.503.185-.538.426h5.403c-.034-.24-.263-.426-.538-.426a.59.59 0 0 0-.07.004.323.323 0 0 1-.237-.066.26.26 0 0 1-.1-.203v-.008c-.002-.268-.244-.487-.543-.487a.6.6 0 0 0-.124.014.327.327 0 0 1-.256-.053.259.259 0 0 1-.111-.215v-.016c0-.359-.325-.65-.723-.65Zm-3.37-1.101c-.633 0-1.148.465-1.148 1.036v.023a.259.259 0 0 1-.11.215.321.321 0 0 1-.256.053 1.027 1.027 0 0 0-.205-.021c-.491 0-.89.36-.893.802l.001.009a.26.26 0 0 1-.1.204.317.317 0 0 1-.237.066 1.088 1.088 0 0 0-.115-.007c-.493 0-.893.361-.893.806v.022h4.024v-.007c.037-.488.453-.884.985-.948.121-.422.533-.739 1.03-.767a.89.89 0 0 1 .03-.099.96.96 0 0 0-.394-.081c-.068 0-.138.007-.205.02-.09.02-.184 0-.256-.052a.26.26 0 0 1-.11-.215v-.023c0-.571-.515-1.036-1.148-1.036Zm3.734-8.071c.702 0 1.366.243 1.872.683.458.4.74.923.807 1.49.77.353 1.259 1.063 1.259 1.853 0 1.148-1.035 2.081-2.306 2.081-.483 0-.949-.138-1.334-.386v3.073c.311.164.541.438.624.762.497.03.909.346 1.03.767.534.065.951.464.985.956h.554c.164 0 .298.12.298.27 0 .148-.134.269-.298.269H4.695c-.166 0-.3-.12-.3-.27 0-.148.134-.269.3-.269h2.354v-1.819c-.67-.087-1.25-.464-1.551-1.019C4.608 15.023 4 14.27 4 13.413c0-.7.399-1.332 1.052-1.69v-.065c0-1.143 1.03-2.073 2.296-2.073 1.267 0 2.298.93 2.298 2.073l-.002.065c.655.358 1.053.99 1.053 1.69 0 .856-.609 1.61-1.498 1.877-.301.555-.882.932-1.552 1.02v1.818h1.128v-.022c0-.706.606-1.287 1.374-1.34.136-.615.74-1.08 1.46-1.08.142-.74.858-1.305 1.719-1.305.861 0 1.578.566 1.72 1.306.245 0 .486.055.7.158a1.39 1.39 0 0 1 .95-.363l.064.002.001-2.913a2.488 2.488 0 0 1-1.334.385c-1.271 0-2.306-.933-2.306-2.08 0-.79.488-1.5 1.26-1.855.066-.566.348-1.09.807-1.49a2.84 2.84 0 0 1 1.872-.682Z" clip-rule="evenodd"/>
</svg>
