<svg viewBox="0 0 24 24" xmlns="http://www.w3.org/2000/svg" data-title="HolidaysGarden" fill="currentColor" stroke="none">
  <path d="m10.33,6.04c-.64,0-1.16.47-1.16,1.04s.52,1.04,1.16,1.04,1.16-.47,1.16-1.04-.52-1.04-1.16-1.04Zm0-.54c.97,0,1.75.71,1.75,1.58s-.79,1.58-1.75,1.58-1.76-.71-1.76-1.58.79-1.58,1.76-1.58h0Zm6.23,1.72c-1.13,0-2.06.8-2.1,1.82,0,.11-.08.2-.19.24-.64.24-1.06.8-1.06,1.43,0,.85.77,1.54,1.71,1.54.51,0,.99-.21,1.33-.58v-.43l-.97-.44c-.15-.07-.21-.23-.13-.36.08-.13.26-.19.4-.12l.7.32v-1.5c0-.15.14-.27.3-.27s.3.12.3.27v.58l.7-.32c.15-.07.33-.02.4.12.08.13.02.3-.13.36l-.97.44v1.35h0c.32.37.81.58,1.33.58.94,0,1.71-.69,1.71-1.54,0-.63-.42-1.19-1.06-1.43-.1-.03-.18-.13-.19-.24-.04-1.02-.96-1.82-2.09-1.82Zm-9.71,2.74c-.94,0-1.7.69-1.7,1.53,0,.06,0,.12.01.19.01.12-.05.23-.16.27-.55.24-.9.74-.9,1.3,0,.66.49,1.23,1.19,1.39.09.02.16.08.2.16.19.41.59.71,1.06.8v-.66l-.99-.76c-.11-.08-.14-.24-.06-.35,0,0,.02-.02.02-.03.11-.11.29-.13.42-.03l.6.46v-2.11c0-.15.14-.27.3-.27s.3.12.3.27v1.11l.73-.55c.13-.09.31-.08.42.03.1.1.09.26,0,.35,0,0-.02.02-.03.03l-1.11.83v1.66c.47-.09.87-.38,1.06-.8.04-.08.11-.14.2-.16.7-.16,1.19-.74,1.19-1.39,0-.56-.35-1.05-.9-1.3-.11-.04-.18-.16-.17-.27.01-.07.01-.13.01-.19,0-.85-.76-1.53-1.7-1.53h0Zm9.35,5.9c-.4,0-.72.29-.72.65h0c0,.1-.04.18-.11.23-.07.05-.17.07-.26.05-.04,0-.08-.01-.13-.01-.3,0-.54.22-.54.49h0c0,.09-.04.16-.1.21-.07.05-.15.08-.24.07-.02,0-.05,0-.07,0-.27,0-.5.18-.54.43h5.4c-.03-.24-.26-.43-.54-.43-.02,0-.05,0-.07,0-.08.01-.17-.01-.24-.07-.06-.05-.1-.12-.1-.2h0c0-.28-.24-.49-.54-.49-.04,0-.08,0-.12.01-.09.02-.18,0-.26-.05-.07-.05-.11-.13-.11-.22v-.02c0-.36-.33-.65-.72-.65h0Zm-3.37-1.1c-.63,0-1.15.47-1.15,1.04v.02c0,.09-.04.17-.11.22-.07.05-.17.07-.26.05-.07-.01-.14-.02-.2-.02-.49,0-.89.36-.89.8h0c0,.09-.04.16-.1.21-.07.05-.15.08-.24.07-.04,0-.08,0-.11,0-.49,0-.89.36-.89.81v.02h4.02c.04-.5.45-.89.98-.95.12-.42.53-.74,1.03-.77,0-.03.02-.07.03-.1-.12-.05-.26-.08-.39-.08-.07,0-.14,0-.2.02-.09.02-.18,0-.26-.05-.07-.05-.11-.13-.11-.22v-.02c0-.57-.52-1.04-1.15-1.04Zm3.73-8.07c.7,0,1.37.24,1.87.68.46.4.74.92.81,1.49.77.35,1.26,1.06,1.26,1.85,0,1.15-1.03,2.08-2.31,2.08-.48,0-.95-.14-1.33-.39v3.07c.31.16.54.44.62.76.5.03.91.35,1.03.77.53.07.95.46.99.96h.55c.16,0,.3.12.3.27s-.13.27-.3.27H4.19c-.17,0-.3-.12-.3-.27s.13-.27.3-.27h2.35v-1.82c-.67-.09-1.25-.46-1.55-1.02-.89-.27-1.5-1.02-1.5-1.88,0-.7.4-1.33,1.05-1.69v-.06c0-1.14,1.03-2.07,2.3-2.07s2.3.93,2.3,2.07v.06c.65.36,1.05.99,1.05,1.69,0,.86-.61,1.61-1.5,1.88-.3.56-.88.93-1.55,1.02v1.82h1.13v-.02c0-.71.61-1.29,1.37-1.34.14-.61.74-1.08,1.46-1.08.14-.74.86-1.31,1.72-1.31s1.58.57,1.72,1.31c.24,0,.49.06.7.16.26-.24.6-.37.95-.36h.06s0-2.91,0-2.91c-.4.25-.86.39-1.33.39-1.27,0-2.31-.93-2.31-2.08,0-.79.49-1.5,1.26-1.86.07-.57.35-1.09.81-1.49.52-.45,1.19-.69,1.87-.68Z"/>
</svg>
