<svg viewBox="0 0 24 24" xmlns="http://www.w3.org/2000/svg" data-title="HomeappliancesType" fill="currentColor" stroke="none">
  <mask id="mask0_1508_5072" style="mask-type:alpha" maskUnits="userSpaceOnUse" x="4" y="4" width="16" height="17">
    <path d="M4 4.19995H20V20.2H4V4.19995Z"/>
  </mask>
  <g mask="url(#mask0_1508_5072)">
    <path fill-rule="evenodd" clip-rule="evenodd" d="M19.0837 9.11106L16.9092 11.2848L16.1588 10.5343L18.3332 8.36057C18.5397 8.15333 18.8772 8.15333 19.0837 8.36057C19.2902 8.56705 19.2902 8.90382 19.0837 9.11106ZM15.5073 14.4132C14.6761 15.2445 13.8532 15.1645 12.9816 15.0814C12.3233 15.0174 11.646 14.9549 11.0006 15.2948L8.90537 13.2002C9.24442 12.5541 9.18118 11.876 9.11794 11.2185C9.03413 10.3476 8.95489 9.52401 9.78614 8.69277L11.5134 6.96627L12.5938 8.04743L13.3961 8.84896L13.3968 8.84972L14.3736 9.82649L15.3504 10.8033C15.3511 10.8033 15.3511 10.804 15.3511 10.804L16.1527 11.6056L17.2338 12.6867L15.5073 14.4132ZM5.71144 19.2803L4.91982 18.4887L7.13164 16.2761C7.23602 16.3911 7.3625 16.5222 7.51869 16.6731C7.67336 16.8331 7.80746 16.9626 7.92403 17.0677L5.71144 19.2803ZM8.41089 13.8037L10.3964 15.7892C9.74957 16.3828 9.06613 16.8567 8.86194 16.8224C8.84746 16.8171 8.81699 16.8003 8.77432 16.7736C8.77127 16.7706 8.77051 16.766 8.76746 16.763L7.43641 15.4327C7.4326 15.4288 7.42726 15.4273 7.42345 15.4235C7.39907 15.3854 7.38536 15.3595 7.38079 15.3488C7.35183 15.1386 7.81736 14.4505 8.41089 13.8037ZM15.089 5.11634C15.2955 4.9091 15.633 4.9091 15.8395 5.11634C16.0468 5.32282 16.0468 5.66035 15.8395 5.86683L13.6658 8.04057L12.9153 7.29008L15.089 5.11634ZM19.6224 7.8219C19.1188 7.31751 18.2982 7.31751 17.7946 7.8219L15.6201 9.99564L14.2045 8.57924L16.3782 6.4055C16.8826 5.90188 16.8826 5.0813 16.3782 4.57767C15.8746 4.07404 15.054 4.07404 14.5504 4.57767L12.3766 6.75141L11.7823 6.15788C11.6399 6.0154 11.3869 6.0154 11.2437 6.15788L9.24747 8.15409C8.16251 9.23982 8.27146 10.3774 8.35984 11.2917C8.42232 11.9393 8.46727 12.5008 8.13889 12.9854C7.46688 13.6582 6.39183 14.8856 6.66535 15.6079C6.66992 15.6201 6.67678 15.6346 6.68288 15.6483L4.11143 18.219C3.96286 18.3675 3.96286 18.6091 4.11143 18.7576L5.44249 20.0887C5.51639 20.1626 5.61392 20.2 5.71144 20.2C5.80897 20.2 5.90649 20.1626 5.98116 20.0887L8.55184 17.518C8.56479 17.5241 8.57927 17.5302 8.59146 17.5348C8.6707 17.5645 8.75527 17.5782 8.84518 17.5782C9.57585 17.5782 10.6151 16.6593 11.214 16.0612C11.6993 15.7321 12.2608 15.7778 12.9084 15.8403C13.8227 15.9287 14.9595 16.0376 16.046 14.9527L18.0422 12.9557C18.1138 12.8848 18.1534 12.7881 18.1534 12.6867C18.1534 12.5854 18.1138 12.4886 18.0422 12.417L17.4487 11.8235L19.6224 9.64973C20.126 9.14534 20.126 8.32552 19.6224 7.8219Z"/>
  </g>
</svg>
