<svg viewBox="0 0 24 24" xmlns="http://www.w3.org/2000/svg" data-title="Honoraria" fill="currentColor" stroke="none">
  <path fill-rule="evenodd" d="m16.8,5c.19,0,.34.13.37.3v.07s0,5.4,0,5.4c0,.2-.17.37-.38.37-.19,0-.34-.13-.37-.3v-.07s0-5.03,0-5.03H7.31v12.53h9.11v-1.56c0-.18.13-.33.31-.36h.07c.19,0,.34.12.37.3v.07s0,1.93,0,1.93c0,.18-.13.33-.31.36h-.07s-9.87,0-9.87,0c-.19,0-.34-.13-.37-.3v-.07s0-2.32,0-2.32v-.02s-3.02-8.03-3.02-8.03c-.06-.17,0-.36.16-.44l.06-.03,2.8-.99v-1.43c0-.18.13-.33.31-.36h.07s9.87,0,9.87,0Zm1.63,4.24c.21-.35.67-.46,1.03-.26l.66.37c.36.2.49.65.28,1l-3.14,5.27c-.06.1-.14.18-.24.24-1.06.67-1.32.8-1.6.64-.25-.14-.29-.37-.25-1.22l.02-.45c0-.11.04-.22.1-.32l3.14-5.27Zm.66.37l-3.14,5.27-.02.33c0,.05,0,.1,0,.15v.3s.15-.09.15-.09c.11-.07.24-.14.38-.23l.15-.09,3.14-5.27-.66-.37Zm-12.54-2.02l-2.18.77,2.18,5.81v-6.58Zm7.97,5.52c.21,0,.38.16.38.37,0,.18-.13.33-.31.36h-.07s-5.32,0-5.32,0c-.21,0-.38-.16-.38-.37,0-.18.13-.33.31-.36h.07s5.32,0,5.32,0Zm0-2.21c.21,0,.38.16.38.37,0,.18-.13.33-.31.36h-.07s-5.32,0-5.32,0c-.21,0-.38-.16-.38-.37,0-.18.13-.33.31-.36h.07s5.32,0,5.32,0Zm-3.04-3.68c.21,0,.38.16.38.37,0,.18-.13.33-.31.36h-.07s-2.28,0-2.28,0c-.21,0-.38-.16-.38-.37,0-.18.13-.33.31-.36h.07s2.28,0,2.28,0Z"/>
</svg>
