<svg viewBox="0 0 24 24" xmlns="http://www.w3.org/2000/svg" data-title="HotelOutline" fill="currentColor" stroke="none">
  <path fill-rule="evenodd" clip-rule="evenodd" d="M2.94643 5.99976C2.68471 5.99976 2.45276 6.08482 2.27008 6.26073C2.08778 6.43627 2 6.65946 2 6.91113V18.0884C2 18.3401 2.08777 18.5633 2.26966 18.7393L2.2705 18.7401C2.45325 18.9152 2.68508 18.9998 2.94643 18.9998C3.20778 18.9998 3.43961 18.9152 3.62236 18.7401L3.62319 18.7393C3.80509 18.5633 3.89286 18.3401 3.89286 18.0884V16.3172H20.1071V18.0884C20.1071 18.3401 20.1949 18.5633 20.3768 18.7393L20.3776 18.7401C20.5604 18.9152 20.7922 18.9998 21.0536 18.9998C21.3149 18.9998 21.5467 18.9152 21.7295 18.7401L21.7303 18.7393C21.9122 18.5633 22 18.3401 22 18.0884V11.1585C22 10.2303 21.6564 9.43135 20.975 8.77516C20.2936 8.11898 19.4639 7.78812 18.5 7.78812H12.6964C12.244 7.78812 11.8514 7.94353 11.5335 8.25028C11.215 8.55642 11.0536 8.93443 11.0536 9.37013V14.4945H3.89286V6.91113C3.89286 6.65946 3.80507 6.43627 3.62278 6.26073C3.4401 6.08482 3.20814 5.99976 2.94643 5.99976ZM12.9464 14.4945V9.61087H18.5C18.9439 9.61087 19.3179 9.76015 19.6354 10.0653C19.9522 10.371 20.1071 10.7311 20.1071 11.1585V14.4945H12.9464Z"/>
  <path fill-rule="evenodd" clip-rule="evenodd" d="M7.35714 8.63759C6.62764 8.63759 6.00249 8.8814 5.49779 9.368C4.99247 9.85401 4.73929 10.456 4.73929 11.1585C4.73929 11.8609 4.99243 12.4629 5.49768 12.9489C6.00239 13.4355 6.62758 13.6794 7.35714 13.6794C8.08665 13.6794 8.71179 13.4356 9.21649 12.949C9.72181 12.463 9.975 11.861 9.975 11.1585C9.975 10.4559 9.72177 9.85391 9.21637 9.36789C8.7117 8.88136 8.08659 8.63759 7.35714 8.63759ZM6.83749 10.6581C6.97326 10.5273 7.14041 10.4603 7.35714 10.4603C7.57387 10.4603 7.74103 10.5273 7.87679 10.6581C8.01256 10.7888 8.08214 10.9498 8.08214 11.1585C8.08214 11.3672 8.01256 11.5282 7.87679 11.6589C7.74103 11.7896 7.57387 11.8566 7.35714 11.8566C7.14041 11.8566 6.97326 11.7896 6.83749 11.6589C6.70173 11.5282 6.63214 11.3672 6.63214 11.1585C6.63214 10.9498 6.70173 10.7888 6.83749 10.6581Z"/>
</svg>
