<svg viewBox="0 0 24 24" xmlns="http://www.w3.org/2000/svg" data-title="House" fill="currentColor" stroke="none">
  <path fill-rule="evenodd" d="M13.26 3.43c-.7-.7-1.83-.7-2.52 0L2.03 12.23c-.46.47-1.22.47-1.68 0-.46-.47-.46-1.23 0-1.7L9.05 1.73C10.68.09 13.32.09 14.95 1.73l8.71 8.79c.46.47.46 1.23 0 1.7-.46.47-1.22.47-1.68 0L13.26 3.43ZM4.52 12.7c.66 0 1.19.54 1.19 1.2v5.39c0 1 .8 1.8 1.79 1.8h9.02c.99 0 1.79-.81 1.79-1.8v-5.39c0-.66.53-1.2 1.19-1.2s1.19.54 1.19 1.2v5.39c0 2.32-1.86 4.21-4.17 4.21H7.49c-2.3 0-4.17-1.88-4.17-4.21v-5.39c0-.66.53-1.2 1.19-1.2Z"/>
  <path fill-rule="evenodd" d="m4.9,12.76c-.12-.04-.25-.06-.38-.06-.55,0-1.01.37-1.15.88-.03.1-.04.21-.04.32v5.39c0,2.32,1.86,4.21,4.17,4.21h9.02c2.3,0,4.17-1.88,4.17-4.21v-5.39c0-.11-.01-.22-.04-.32-.14-.51-.6-.88-1.15-.88-.13,0-.26.02-.38.06-.47.16-.81.61-.81,1.14v5.39c0,1-.8,1.8-1.79,1.8H7.49c-.99,0-1.79-.81-1.79-1.8v-5.39c0-.53-.34-.98-.81-1.14Zm9.53,5.91c.64-.55,1.04-1.37,1.04-2.28v-2c0-1.66-1.33-3.01-2.98-3.01h-.99c-1.64,0-2.98,1.35-2.98,3.01v2c0,.91.4,1.73,1.04,2.28.52.45,1.2.72,1.93.72h.99c.74,0,1.41-.27,1.93-.72Zm.52-16.94C13.32.09,10.68.09,9.05,1.73L.35,10.53c-.46.47-.46,1.23,0,1.7.23.23.52.35.82.35.31,0,.62-.11.86-.35L10.74,3.43c.7-.7,1.83-.7,2.52,0l8.71,8.79c.24.24.55.36.86.35.3,0,.59-.12.82-.35.46-.47.46-1.23,0-1.7L14.95,1.73Zm-2.45,12.07h-.99c-.32,0-.58.26-.58.58v2c0,.32.26.58.58.58h.99c.32,0,.58-.26.58-.58v-2c0-.32-.26-.58-.58-.58Z"/>
</svg>
