<svg viewBox="0 0 24 24" xmlns="http://www.w3.org/2000/svg" data-title="HousingType" fill="currentColor" stroke="none">
  <path fill-rule="evenodd" d="m12.37,5c.19,0,.34.13.38.3v.07s0,2.63,0,2.63h3.65v-1.16c0-.18.13-.33.31-.36h.07s1.49,0,1.49,0c.18,0,.34.13.37.3v.07s0,1.16,0,1.16h.48c.18,0,.34.13.37.3v.07s0,9.52,0,9.52c0,.18-.13.33-.31.36h-.07s-3.3,0-3.3,0v.38c0,.15-.09.28-.22.33l-.06.02h-.06s-4.79,0-4.79,0c-.19,0-.34-.16-.34-.36v-.38h-5.47c-.19,0-.34-.13-.38-.3v-.07s0-12.52,0-12.52c0-.18.14-.33.31-.37h.07s7.48,0,7.48,0Zm.71,7.48l-2.85,2.7h.46c.17,0,.31.13.34.29v.06s0,2.75,0,2.75h4.1v-2.75c0-.18.12-.32.28-.35h.06s.33,0,.33,0l-2.73-2.7Zm-7.83-6.74v11.79h5.1v-1.64s-1.01,0-1.01,0c-.29,0-.44-.35-.27-.57l.04-.05,2.88-2.73v-.17s0-6.63,0-6.63h-6.75Zm12.64,1.47h-.74v1.16c0,.18-.13.28-.31.31h-4.09v3.14l.1-.1c.12-.11.29-.12.42-.04l.05.04,3.59,3.55c.22.22.07.61-.24.61h-.85v1.64s2.92,0,2.92,0v-8.84h-.48c-.18,0-.34-.07-.37-.24v-.07s0-1.16,0-1.16Zm-1.02,2.21c.21,0,.38.16.38.37,0,.18-.13.33-.31.36h-.07s-2.25,0-2.25,0c-.21,0-.38-.16-.38-.37,0-.18.13-.33.31-.36h.07s2.25,0,2.25,0Zm-9-.74c.21,0,.38.16.38.37,0,.18-.13.33-.31.36h-.07s-1.5,0-1.5,0c-.21,0-.38-.16-.38-.37,0-.18.13-.33.31-.36h.07s1.5,0,1.5,0Zm3,0c.21,0,.38.16.38.37,0,.18-.13.33-.31.36h-.07s-1.5,0-1.5,0c-.21,0-.38-.16-.38-.37,0-.18.13-.33.31-.36h.07s1.5,0,1.5,0Zm-3-1.47c.21,0,.38.16.38.37,0,.18-.13.33-.31.36h-.07s-1.5,0-1.5,0c-.21,0-.38-.16-.38-.37,0-.18.13-.33.31-.36h.07s1.5,0,1.5,0Zm3,0c.21,0,.38.16.38.37,0,.18-.13.33-.31.36h-.07s-1.5,0-1.5,0c-.21,0-.38-.16-.38-.37,0-.18.13-.33.31-.36h.07s1.5,0,1.5,0Z"/>
</svg>
