<svg viewBox="0 0 24 24" xmlns="http://www.w3.org/2000/svg" data-title="House" fill="currentColor" stroke="none">
  <path fill-rule="evenodd" clip-rule="evenodd" d="M13.2623 3.93264C12.5651 3.22839 11.4349 3.22839 10.7377 3.93264L2.0316 12.7276C1.56684 13.1971 0.813323 13.1971 0.348567 12.7276C-0.116189 12.2581 -0.116189 11.4969 0.348567 11.0274L9.05469 2.23244C10.6813 0.589189 13.3187 0.589187 14.9453 2.23244L23.6514 11.0274C24.1162 11.4969 24.1162 12.2581 23.6514 12.7276C23.1867 13.1971 22.4332 13.1971 21.9684 12.7276L13.2623 3.93264Z"/>
  <path fill-rule="evenodd" clip-rule="evenodd" d="M4.51635 13.1954C5.17361 13.1954 5.70643 13.7336 5.70643 14.3976V19.7922C5.70643 20.7882 6.50566 21.5955 7.49155 21.5955H16.5087C17.4946 21.5955 18.2938 20.7882 18.2938 19.7922V14.3976C18.2938 13.7336 18.8267 13.1954 19.4839 13.1954C20.1412 13.1954 20.674 13.7336 20.674 14.3976V19.7922C20.674 22.1161 18.8091 24 16.5087 24H7.49155C5.19113 24 3.32626 22.1161 3.32626 19.7922V14.3976C3.32626 13.7336 3.85908 13.1954 4.51635 13.1954Z"/>
  <path fill-rule="evenodd" clip-rule="evenodd" d="M4.89963 13.2591C4.77936 13.2178 4.65045 13.1954 4.51635 13.1954C3.9685 13.1954 3.50711 13.5693 3.36868 14.0783C3.34103 14.18 3.32626 14.2871 3.32626 14.3976V19.7922C3.32626 22.1161 5.19113 24 7.49155 24H16.5087C18.8091 24 20.674 22.1161 20.674 19.7922V14.3976C20.674 14.287 20.6592 14.1799 20.6315 14.0781C20.493 13.5692 20.0317 13.1954 19.4839 13.1954C19.3497 13.1954 19.2208 13.2178 19.1004 13.2591C18.6313 13.4204 18.2938 13.8692 18.2938 14.3976V19.7922C18.2938 20.7882 17.4946 21.5955 16.5087 21.5955H7.49155C6.50566 21.5955 5.70643 20.7882 5.70643 19.7922V14.3976C5.70643 13.8691 5.36885 13.4202 4.89963 13.2591ZM14.4296 19.171C15.067 18.6198 15.471 17.801 15.471 16.8868V14.8831C15.471 13.2232 14.139 11.8775 12.4958 11.8775H11.5041C9.86091 11.8775 8.52886 13.2232 8.52886 14.8831V16.8868C8.52886 17.801 8.93285 18.6198 9.57031 19.171C10.0904 19.6208 10.7658 19.8924 11.5041 19.8924H12.4958C13.2341 19.8924 13.9095 19.6208 14.4296 19.171ZM14.9453 2.23244C13.3187 0.589187 10.6813 0.589189 9.05469 2.23244L0.348567 11.0274C-0.116189 11.4969 -0.116189 12.2581 0.348567 12.7276C0.576013 12.9574 0.872617 13.0747 1.17069 13.0796C1.48169 13.0847 1.79429 12.9674 2.0316 12.7276L10.7377 3.93264C11.4349 3.22839 12.5651 3.22839 13.2623 3.93264L21.9684 12.7276C22.2058 12.9674 22.5185 13.0847 22.8296 13.0796C23.1276 13.0746 23.4241 12.9573 23.6514 12.7276C24.1162 12.2581 24.1162 11.4969 23.6514 11.0274L14.9453 2.23244ZM12.4958 14.302H11.5041C11.1864 14.302 10.9289 14.5622 10.9289 14.8831V16.8868C10.9289 17.2078 11.1864 17.4679 11.5041 17.4679H12.4958C12.8135 17.4679 13.071 17.2078 13.071 16.8868V14.8831C13.071 14.5622 12.8135 14.302 12.4958 14.302Z"/>
</svg>
