<svg viewBox="0 0 24 24" xmlns="http://www.w3.org/2000/svg" data-title="InstagramFill" fill="currentColor" stroke="none">
  <path fill-rule="evenodd" clip-rule="evenodd" d="M12 2.3999C9.28412 2.3999 8.94362 2.41141 7.87701 2.46008C6.81259 2.50867 6.08569 2.67769 5.44958 2.92491C4.79199 3.18047 4.23432 3.5224 3.67839 4.07833C3.12246 4.63426 2.78052 5.19193 2.52497 5.84952C2.27775 6.48564 2.10872 7.21253 2.06014 8.27695C2.01147 9.34352 2 9.68407 2 12.3999C2 15.1158 2.01147 15.4563 2.06014 16.5229C2.10872 17.5873 2.27775 18.3142 2.52497 18.9503C2.78052 19.6079 3.12246 20.1656 3.67839 20.7215C4.23432 21.2774 4.79199 21.6194 5.44958 21.8749C6.08569 22.1222 6.81259 22.2912 7.87701 22.3398C8.94362 22.3884 9.28412 22.3999 12 22.3999C14.7158 22.3999 15.0564 22.3884 16.1229 22.3398C17.1874 22.2912 17.9143 22.1222 18.5504 21.8749C19.208 21.6194 19.7656 21.2774 20.3216 20.7215C20.8775 20.1656 21.2194 19.6079 21.475 18.9503C21.7222 18.3142 21.8912 17.5873 21.9398 16.5229C21.9885 15.4563 22 15.1158 22 12.3999C22 9.68407 21.9885 9.34352 21.9398 8.27695C21.8912 7.21253 21.7222 6.48564 21.475 5.84952C21.2194 5.19193 20.8775 4.63426 20.3216 4.07833C19.7656 3.5224 19.208 3.18047 18.5504 2.92491C17.9143 2.67769 17.1874 2.50867 16.1229 2.46008C15.0564 2.41141 14.7158 2.3999 12 2.3999ZM12 7.26477C9.16393 7.26477 6.86483 9.56387 6.86483 12.3999C6.86483 15.236 9.16393 17.5351 12 17.5351C14.836 17.5351 17.1351 15.236 17.1351 12.3999C17.1351 9.56387 14.836 7.26477 12 7.26477ZM12 15.7333C10.159 15.7333 8.66663 14.2409 8.66663 12.3999C8.66663 10.559 10.159 9.06657 12 9.06657C13.8409 9.06657 15.3333 10.559 15.3333 12.3999C15.3333 14.2409 13.8409 15.7333 12 15.7333ZM18.538 7.06189C18.538 7.72464 18.0008 8.26191 17.338 8.26191C16.6753 8.26191 16.138 7.72464 16.138 7.06189C16.138 6.39914 16.6753 5.86191 17.338 5.86191C18.0008 5.86191 18.538 6.39914 18.538 7.06189Z"/>
</svg>
