<svg viewBox="0 0 24 24" xmlns="http://www.w3.org/2000/svg" data-title="InstagramOutline" fill="currentColor" stroke="none">
  <path fill-rule="evenodd" clip-rule="evenodd" d="M12 4.20174C14.6701 4.20174 14.9864 4.2119 16.0408 4.26001C17.0158 4.30451 17.5453 4.46742 17.8977 4.60433C18.3644 4.78573 18.6976 5.00247 19.0475 5.35238C19.3974 5.70229 19.6142 6.03545 19.7955 6.50219C19.9325 6.8546 20.0954 7.38409 20.1399 8.35904C20.188 9.41354 20.1982 9.72979 20.1982 12.3999C20.1982 15.07 20.188 15.3863 20.1399 16.4408C20.0954 17.4158 19.9325 17.9452 19.7955 18.2977C19.6142 18.7644 19.3974 19.0976 19.0475 19.4475C18.6976 19.7974 18.3644 20.0141 17.8977 20.1955C17.5453 20.3324 17.0158 20.4953 16.0408 20.5398C14.9865 20.5879 14.6703 20.5981 12 20.5981C9.32969 20.5981 9.01344 20.5879 7.95914 20.5398C6.98415 20.4953 6.45466 20.3324 6.10229 20.1955C5.63551 20.0141 5.30235 19.7974 4.95244 19.4475C4.60253 19.0976 4.38579 18.7644 4.20443 18.2977C4.06748 17.9452 3.90457 17.4158 3.86007 16.4408C3.81196 15.3863 3.8018 15.07 3.8018 12.3999C3.8018 9.72979 3.81196 9.41354 3.86007 8.35908C3.90457 7.38409 4.06748 6.8546 4.20443 6.50219C4.38579 6.03545 4.60253 5.70229 4.95244 5.35238C5.30235 5.00247 5.63551 4.78573 6.10229 4.60433C6.45466 4.46742 6.98415 4.30451 7.9591 4.26001C9.0136 4.2119 9.32985 4.20174 12 4.20174ZM12 2.3999C9.28412 2.3999 8.94362 2.41141 7.87701 2.46008C6.81259 2.50867 6.08569 2.67769 5.44958 2.92491C4.79199 3.18047 4.23432 3.5224 3.67839 4.07833C3.12246 4.63426 2.78052 5.19193 2.52497 5.84952C2.27775 6.48564 2.10872 7.21253 2.06014 8.27695C2.01147 9.34352 2 9.68407 2 12.3999C2 15.1158 2.01147 15.4563 2.06014 16.5229C2.10872 17.5873 2.27775 18.3142 2.52497 18.9503C2.78052 19.6079 3.12246 20.1656 3.67839 20.7215C4.23432 21.2774 4.79199 21.6194 5.44958 21.8749C6.08569 22.1222 6.81259 22.2912 7.87701 22.3398C8.94362 22.3884 9.28412 22.3999 12 22.3999C14.7158 22.3999 15.0564 22.3884 16.1229 22.3398C17.1874 22.2912 17.9143 22.1222 18.5504 21.8749C19.208 21.6194 19.7656 21.2774 20.3216 20.7215C20.8775 20.1656 21.2194 19.6079 21.475 18.9503C21.7222 18.3142 21.8912 17.5873 21.9398 16.5229C21.9885 15.4563 22 15.1158 22 12.3999C22 9.68407 21.9885 9.34352 21.9398 8.27695C21.8912 7.21253 21.7222 6.48564 21.475 5.84952C21.2194 5.19193 20.8775 4.63426 20.3216 4.07833C19.7656 3.5224 19.208 3.18047 18.5504 2.92491C17.9143 2.67769 17.1874 2.50867 16.1229 2.46008C15.0564 2.41141 14.7158 2.3999 12 2.3999ZM12 7.26477C9.16393 7.26477 6.86483 9.56387 6.86483 12.3999C6.86483 15.236 9.16393 17.5351 12 17.5351C14.836 17.5351 17.1351 15.236 17.1351 12.3999C17.1351 9.56387 14.836 7.26477 12 7.26477ZM12 15.7333C10.159 15.7333 8.66663 14.2409 8.66663 12.3999C8.66663 10.559 10.159 9.06657 12 9.06657C13.8409 9.06657 15.3333 10.559 15.3333 12.3999C15.3333 14.2409 13.8409 15.7333 12 15.7333ZM18.538 7.06189C18.538 7.72464 18.0008 8.26191 17.338 8.26191C16.6753 8.26191 16.138 7.72464 16.138 7.06189C16.138 6.39914 16.6753 5.86191 17.338 5.86191C18.0008 5.86191 18.538 6.39914 18.538 7.06189Z"/>
</svg>
