<svg viewBox="0 0 24 24" xmlns="http://www.w3.org/2000/svg" data-title="Janitor" fill="currentColor" stroke="none">
  <path fill-rule="evenodd" clip-rule="evenodd" d="M12.004 4.19995C13.6412 4.19995 14.9728 5.5207 14.9728 7.14445V7.25245C14.9819 7.2877 14.9902 7.3237 14.9872 7.36195C14.9856 7.37995 14.9773 7.3957 14.9728 7.41295V9.1432C14.9728 9.83245 14.7231 10.4587 14.3214 10.9605V11.6587L15.4237 12.855C15.8791 12.9007 17.1154 13.092 17.6979 13.8705C17.9854 14.2545 18.0702 14.7322 17.9416 15.2505L17.1441 18.9075C17.1071 19.0777 16.9542 19.2 16.7772 19.2H7.23005C7.05377 19.2 6.90094 19.0777 6.86311 18.9075L6.06417 15.2407C5.92345 14.664 6.01424 14.1622 6.33578 13.758C6.92742 13.0125 8.14096 12.8745 8.59036 12.8482L9.68663 11.6587V10.9612C9.28489 10.4587 9.03446 9.83245 9.03446 9.1432V7.14445C9.03446 7.0732 9.05035 7.0072 9.05565 6.9382C9.0564 6.92395 9.05111 6.9112 9.05338 6.89695C9.05489 6.88795 9.06019 6.8812 9.0617 6.8737C9.20242 5.37895 10.4598 4.19995 12.004 4.19995ZM15.4169 13.6027L13.7328 15.957C13.6707 16.0432 13.5754 16.0995 13.4687 16.1115C13.4551 16.113 13.4415 16.1137 13.4271 16.1137C13.3348 16.1137 13.2463 16.08 13.1767 16.0185L12.3762 15.3075V18.4567H16.4753L17.2107 15.0832C17.2886 14.7682 17.2501 14.5207 17.0965 14.3152C16.7507 13.8502 15.8913 13.6605 15.4169 13.6027ZM8.58355 13.593C8.12431 13.6237 7.27998 13.77 6.92439 14.2192C6.75038 14.439 6.70801 14.7187 6.79502 15.075L7.53267 18.4567H11.6265V15.3127L10.8306 16.0185C10.7617 16.08 10.6724 16.1137 10.5809 16.1137C10.5665 16.1137 10.5529 16.113 10.5393 16.1115C10.4326 16.0995 10.3373 16.0432 10.2752 15.957L8.58355 13.593ZM15.651 16.6631C15.8583 16.6631 16.0263 16.8296 16.0263 17.0351C16.0263 17.2413 15.8583 17.4071 15.651 17.4071H14.5835C14.3762 17.4071 14.2083 17.2413 14.2083 17.0351C14.2083 16.8296 14.3762 16.6631 14.5835 16.6631H15.651ZM10.0573 12.3585L9.24782 13.2367L10.6429 15.1875L11.5062 14.4202L10.0573 12.3585ZM13.9507 12.3585L12.5011 14.4202L13.3651 15.1875L14.7594 13.2367L13.9507 12.3585ZM13.5323 11.6535C13.0836 11.9227 12.5646 12.0862 12.004 12.0862C11.4426 12.0862 10.9236 11.9227 10.4757 11.6542L12.004 13.8277L13.5323 11.6535ZM12.8506 6.7492C11.516 7.55845 10.4334 7.4932 9.78498 7.39195V9.1432C9.78498 10.356 10.7799 11.343 12.004 11.343C13.2274 11.343 14.223 10.356 14.223 9.1432V7.6447C13.6397 7.52395 13.1752 7.23145 12.8506 6.7492ZM12.004 4.9432C10.9531 4.9432 10.0747 5.6737 9.84702 6.64795C10.481 6.75295 11.4593 6.8287 12.7659 5.91445C12.8574 5.8507 12.9717 5.83045 13.0806 5.8597C13.188 5.88895 13.2773 5.96395 13.3235 6.0652C13.5535 6.5647 13.8765 6.78295 14.1965 6.8827C14.0641 5.7937 13.1373 4.9432 12.004 4.9432Z"/>
</svg>
