<svg viewBox="0 0 24 24" xmlns="http://www.w3.org/2000/svg" data-title="Janitor" fill="currentColor" stroke="none">
  <path fill-rule="evenodd" d="m12,4.5c1.64,0,2.97,1.32,2.97,2.94v.11s.02.07.01.11c0,.02,0,.03-.01.05v1.73c0,.69-.25,1.32-.65,1.82v.7l1.1,1.2c.46.05,1.69.24,2.27,1.02.29.38.37.86.24,1.38l-.8,3.66c-.04.17-.19.29-.37.29H7.23c-.18,0-.33-.12-.37-.29l-.8-3.67c-.14-.58-.05-1.08.27-1.48.59-.75,1.81-.88,2.25-.91l1.1-1.19v-.7c-.4-.5-.65-1.13-.65-1.82v-2c0-.07.02-.14.02-.21,0-.01,0-.03,0-.04,0,0,0-.02,0-.02.14-1.49,1.4-2.67,2.94-2.67Zm3.41,9.4l-1.68,2.35c-.06.09-.16.14-.26.15-.01,0-.03,0-.04,0-.09,0-.18-.03-.25-.1l-.8-.71v3.15h4.1l.74-3.37c.08-.32.04-.56-.11-.77-.35-.47-1.21-.65-1.68-.71Zm-6.83,0c-.46.03-1.3.18-1.66.63-.17.22-.22.5-.13.86l.74,3.38h4.09v-3.14l-.8.71c-.07.06-.16.1-.25.1-.01,0-.03,0-.04,0-.11-.01-.2-.07-.26-.15l-1.69-2.36Zm7.07,3.07c.21,0,.38.17.38.37s-.17.37-.38.37h-1.07c-.21,0-.38-.17-.38-.37s.17-.37.38-.37h1.07Zm-5.59-4.3l-.81.88,1.4,1.95.86-.77-1.45-2.06Zm3.89,0l-1.45,2.06.86.77,1.39-1.95-.81-.88Zm-.42-.7c-.45.27-.97.43-1.53.43s-1.08-.16-1.53-.43l1.53,2.17,1.53-2.17Zm-.68-4.9c-1.33.81-2.42.74-3.07.64v1.75c0,1.21.99,2.2,2.22,2.2s2.22-.99,2.22-2.2v-1.5c-.58-.12-1.05-.41-1.37-.9Zm-.85-1.81c-1.05,0-1.93.73-2.16,1.7.63.11,1.61.18,2.92-.73.09-.06.21-.08.31-.05.11.03.2.1.24.21.23.5.55.72.87.82-.13-1.09-1.06-1.94-2.19-1.94Z"/>
</svg>
