<svg viewBox="0 0 24 24" xmlns="http://www.w3.org/2000/svg" data-title="Jewels" fill="currentColor" stroke="none">
  <path fill-rule="evenodd" d="m12.38,3.51c2.24.09,4.36,1.03,5.87,2.62,1.53,1.58,2.33,3.67,2.24,5.82-.09,2.15-1.07,4.17-2.72,5.63-1.52,1.39-3.53,2.17-5.63,2.19-.36,0-.72-.02-1.08-.07-.23.44-.69.75-1.22.8h-.16c-.36.01-.7-.11-.97-.32-.32-.25-.52-.6-.56-.99-.04-.39.08-.78.34-1.08.26-.31.63-.5,1.04-.54.41-.04.81.08,1.13.32.33.26.53.63.56,1.02,2.18.27,4.38-.42,5.98-1.91,3.09-2.73,3.28-7.35.43-10.31-2.85-2.96-7.66-3.15-10.75-.42-2.84,2.38-3.35,6.42-1.21,9.37.22-.16.48-.26.76-.29.62-.06,1.22.24,1.52.77.28.49.24,1.09-.09,1.54l-.08.1c-.3.35-.75.55-1.23.54-.59,0-1.12-.34-1.37-.85-.17-.36-.18-.77-.05-1.13-2.58-3.29-2.07-7.94,1.16-10.65,1.65-1.46,3.83-2.24,6.07-2.15Zm-2.69,14.89h-.07c-.35.04-.61.34-.58.68.02.17.1.32.23.43.14.1.31.15.48.14.26-.03.48-.21.55-.45.08-.24,0-.5-.21-.67-.12-.09-.26-.13-.41-.14Zm-3.05-2.22h-.09c-.29.03-.53.25-.57.52-.05.28.11.55.37.67.27.12.58.05.77-.17.11-.13.16-.29.14-.45-.02-.17-.1-.32-.23-.42-.11-.09-.25-.14-.39-.14Zm6.29-10.83c.12,0,.23.08.28.21l.02.06c.21.6.32.98.32,1.12v.03c0,.07-.02.14-.07.21l-.79,1.01c2.23.32,3.95,2.16,3.95,4.39,0,2.45-2.08,4.43-4.64,4.43-2.56,0-4.64-1.99-4.64-4.43,0-2.23,1.71-4.07,3.95-4.39l-.79-1.01c-.06-.07-.08-.15-.07-.23h0s0-.02,0-.02c0-.02,0-.04.02-.06l.29-1.04c.03-.14.13-.24.25-.26h.05s1.87,0,1.87,0Zm-.93,3.37c-2.11,0-3.82,1.64-3.82,3.65s1.71,3.65,3.82,3.65,3.82-1.64,3.82-3.65c0-2.02-1.71-3.65-3.82-3.65Zm.59-1.63h-1.19l.59.76.59-.76Zm.1-1.04h-1.38l-.09.4h1.57l-.09-.4Z"/>
</svg>
