<svg viewBox="0 0 24 24" xmlns="http://www.w3.org/2000/svg" data-title="JobType" fill="currentColor" stroke="none">
  <path fill-rule="evenodd" clip-rule="evenodd" d="M17.9997 17.3603L17.9999 17.3674L18 17.375L17.997 17.4147L17.9977 17.4095C17.9965 17.4282 17.9944 17.4412 17.9917 17.4539C17.9892 17.4654 17.9862 17.4769 17.9826 17.4883L17.9717 17.5183C17.9675 17.5284 17.9627 17.5387 17.9574 17.5488C17.9525 17.558 17.9475 17.5668 17.9421 17.5753C17.9394 17.5795 17.9366 17.5839 17.9336 17.5882L17.9238 17.6016C17.9161 17.6118 17.9078 17.6216 17.8991 17.631L15.631 19.8991L15.6166 19.9118L15.6083 19.9183L15.6402 19.8902L15.6045 19.9205L15.5751 19.9422C15.5668 19.9475 15.558 19.9525 15.5491 19.9572C15.5387 19.9627 15.5284 19.9675 15.5179 19.9718C15.5085 19.9757 15.4986 19.9793 15.4884 19.9825C15.4769 19.9862 15.4654 19.9892 15.4537 19.9917C15.4457 19.9934 15.4374 19.9949 15.4291 19.9961C15.4162 19.998 15.4033 19.9992 15.3904 19.9997C15.3853 19.9999 15.3802 20 15.375 20L15.3307 19.9963H15.3292L15.3407 19.9984L15.3563 19.9993L15.3349 19.9979L15.3278 19.9963L15.2868 20H6.375C6.19091 20 6.03779 19.8737 6.00604 19.7071L6 19.6429V5.35714C6 5.18181 6.13266 5.03599 6.30759 5.00575L6.375 5H17.625C17.8091 5 17.9622 5.12634 17.994 5.29295L18 5.35714V17.2999L17.997 17.3307L17.9997 17.3603ZM17.2493 5.71357H6.74925V19.285L15 19.2853V17.375C15 17.1679 15.1679 17 15.375 17H17.25L17.2493 5.71357ZM16.719 17.75H15.75V18.719L16.719 17.75ZM12.375 9.5C12.5821 9.5 12.75 9.66789 12.75 9.875C12.75 10.0591 12.6173 10.2122 12.4424 10.244L12.375 10.25H8.625C8.41789 10.25 8.25 10.0821 8.25 9.875C8.25 9.69091 8.38266 9.53779 8.55759 9.50604L8.625 9.5H12.375ZM15.375 8C15.5821 8 15.75 8.16789 15.75 8.375C15.75 8.55909 15.6173 8.71221 15.4424 8.74396L15.375 8.75H8.625C8.41789 8.75 8.25 8.58211 8.25 8.375C8.25 8.19091 8.38266 8.03779 8.55759 8.00604L8.625 8H15.375Z"/>
</svg>
