<svg viewBox="0 0 24 24" xmlns="http://www.w3.org/2000/svg" data-title="KeyOutline" fill="currentColor" stroke="none">
  <path d="M7.90908 13.4474C7.00914 13.4474 6.27269 12.7214 6.27269 11.8345C6.27269 10.9476 7.00914 10.2216 7.90908 10.2216C8.80902 10.2216 9.54547 10.9476 9.54547 11.8345C9.54547 12.7214 8.80902 13.4474 7.90908 13.4474Z"/>
  <path fill-rule="evenodd" clip-rule="evenodd" d="M6.70942 6.11762C9.50942 5.57054 12.0558 6.98666 13.1898 9.22864H19.3637C20.81 9.22864 22 10.3927 22 11.8344C22 12.9241 21.3202 13.8552 20.3636 14.2449V15.0602C20.3636 16.5016 19.1732 17.6667 17.7273 17.6667C16.2813 17.6667 15.0909 16.5016 15.0909 15.0602V14.4402H13.1903C12.2229 16.3539 10.2203 17.6667 7.90892 17.6667C4.23474 17.6667 1.32853 14.3387 2.13561 10.5796C2.61368 8.33799 4.44796 6.56527 6.70698 6.1181L6.70942 6.11762ZM11.5894 10.5541C10.9722 8.83023 9.15247 7.66473 7.0968 8.06576C5.60989 8.36059 4.40159 9.539 4.09203 10.9915L4.09169 10.9931C3.55844 13.4752 5.46376 15.6809 7.90892 15.6809C9.61167 15.6809 11.0568 14.6071 11.5891 13.1157L11.8251 12.4544H17.0908V15.0602C17.0908 15.3925 17.3733 15.6809 17.7273 15.6809C18.0812 15.6809 18.3637 15.3925 18.3637 15.0602V12.4544H19.3637C19.7187 12.4544 20.0001 12.1664 20.0001 11.8344C20.0001 11.5024 19.7187 11.2144 19.3637 11.2144H11.8258L11.5894 10.5541Z"/>
</svg>
