<svg viewBox="0 0 24 24" xmlns="http://www.w3.org/2000/svg" data-title="Land" fill="currentColor" stroke="none">
  <path fill-rule="evenodd" d="m21.11,20.46c.42,0,.77-.34.77-.75s-.34-.75-.77-.75h-1.76v-.65c0-.42-.34-.75-.77-.75s-.77.34-.77.75v.65h-1.76v-.65c0-.42-.34-.75-.77-.75s-.77.34-.77.75v.65h-1.55s.02-.07.02-.11v-1.88c.54-.09,1.08-.26,1.57-.5.55-.27,1.05-.63,1.48-1.05.43.1.87.15,1.31.15,1.5,0,2.94-.59,4-1.63,1.06-1.04,1.66-2.46,1.66-3.93s-.6-2.89-1.66-3.93c-.88-.86-2.02-1.41-3.24-1.58-.35-1.15-1.03-2.18-1.97-2.97-1.17-.98-2.65-1.52-4.19-1.52s-3.02.54-4.19,1.52c-.94.79-1.62,1.83-1.97,2.99-1.17.18-2.27.72-3.12,1.56-1.06,1.04-1.66,2.46-1.66,3.93s.6,2.89,1.66,3.93c1.06,1.04,2.5,1.63,4,1.63.44,0,.88-.05,1.31-.15.43.43.93.78,1.48,1.05.42.21.87.36,1.33.46v1.92s.02.07.02.11h-1.35v-.65c0-.42-.34-.75-.77-.75s-.77.34-.77.75v.65h-1.76v-.65c0-.42-.34-.75-.77-.75s-.77.34-.77.75v.65h-1.76c-.42,0-.77.34-.77.75s.34.75.77.75h1.76v1.72h-1.76c-.42,0-.77.34-.77.75s.34.75.77.75h1.91c.14.19.36.32.61.32s.47-.13.61-.32h2.07c.14.19.36.32.61.32s.47-.13.61-.32h2.07c.14.19.36.32.61.32s.47-.13.61-.32h2.07c.14.19.36.32.61.32s.47-.13.61-.32h2.07c.14.19.36.32.61.32s.47-.13.61-.32h1.91c.42,0,.77-.34.77-.75s-.34-.75-.77-.75h-1.76v-1.72h1.82Zm-6.59,0v1.72h-1.76v-1.72h1.76Zm-4.07-5.91c-.48-.24-.9-.59-1.23-1.01-.3-.4-.84-.54-1.3-.35-.39.16-.81.24-1.23.23h-.01c-.92,0-1.8-.36-2.46-1-.65-.64-1.02-1.5-1.02-2.41s.37-1.77,1.02-2.41c.65-.64,1.53-1,2.46-1,.54,0,1-.39,1.09-.91.15-.98.66-1.88,1.43-2.52.77-.65,1.75-1,2.76-1s1.99.36,2.76,1c.77.65,1.27,1.54,1.43,2.52.08.53.54.91,1.09.91h.12c.92,0,1.8.36,2.46,1,.65.64,1.02,1.5,1.02,2.41s-.37,1.77-1.02,2.41c-.65.64-1.53,1-2.46,1h-.01c-.42,0-.84-.07-1.23-.23-.46-.19-1-.04-1.3.35-.32.43-.74.77-1.23,1.01-.19.09-.39.15-.59.21v-2.06l1.96-1.92c.43-.42.43-1.1,0-1.52-.43-.42-1.12-.42-1.55,0l-1.51,1.48-1.51-1.48c-.43-.42-1.12-.42-1.55,0-.43.42-.43,1.1,0,1.52l1.96,1.92v1.98c-.11-.04-.23-.07-.34-.12h-.01Zm.77,5.91v1.72h-1.76v-1.72h1.76Zm-5.05,0h1.76v1.72h-1.76v-1.72Zm11.64,1.72h-1.76v-1.72h1.76v1.72Z"/>
</svg>
