<svg viewBox="0 0 24 24" xmlns="http://www.w3.org/2000/svg" data-title="LastFloor" fill="currentColor" stroke="none">
  <path fill-rule="evenodd" d="m15.89,4.5h.06c.08.02.16.05.21.11.07.07.11.16.11.26v4.74s.82,0,.82,0c.22,0,.39.17.39.38v9.13c0,.21-.17.38-.38.38h-.07c-.18-.04-.32-.19-.32-.38v-8.76s-9.44,0-9.44,0v8.76c0,.21-.17.38-.38.38h-.07c-.18-.04-.32-.19-.32-.38v-9.13c0-.1.03-.19.11-.27.07-.07.17-.11.28-.11h.83s0-4.73,0-4.73c0-.21.17-.38.39-.38h7.78Zm-5.3,12.64h.07c.18.04.32.19.32.37v1.61c0,.21-.17.38-.39.38s-.39-.17-.39-.37v-1.23s-.84,0-.84,0v1.23c0,.21-.17.38-.39.38h-.07c-.18-.04-.32-.19-.32-.37v-1.61c0-.1.04-.2.11-.27.07-.07.17-.11.28-.11h1.62Zm4.44,0h.07c.18.04.32.19.32.37v1.61c0,.21-.17.38-.39.38h-.07c-.18-.04-.32-.19-.32-.37v-1.23s-.84,0-.84,0v1.23c0,.21-.17.38-.39.38s-.39-.17-.39-.37v-1.61c0-.1.04-.2.11-.27.07-.07.17-.11.28-.11h1.62Zm-4.44-5.04c.1,0,.2.04.28.11.07.07.11.17.11.27v2.3c.21.01.37.17.37.37s-.17.38-.39.38h-2.36c-.22,0-.39-.17-.39-.37s.17-.36.37-.37v-2.3c0-.21.17-.38.39-.38h1.62s0,0,0,0Zm4.44,0c.1,0,.2.04.28.11.07.07.12.17.12.27v2.3c.21.01.37.17.37.37s-.18.38-.39.38h-2.36s-.07,0-.07,0c-.18-.03-.32-.18-.32-.37,0-.2.16-.36.37-.37v-2.3c0-.21.17-.38.39-.38h1.62s0,0,0,0Zm-4.83.75h-.84s0,1.92,0,1.92h.84v-1.92Zm4.44,0h-.84s0,1.92,0,1.92h.84v-1.92Zm.86-7.59h-7s0,4.36,0,4.36h7s0-4.36,0-4.36Zm-2.69.43c.1,0,.2.04.28.11.07.07.11.17.11.27v2.3c.21.01.37.17.37.37s-.17.38-.39.38h-2.36c-.22,0-.39-.17-.39-.37s.17-.36.37-.37v-2.3c0-.21.17-.38.39-.38h1.62s0,0,0,0Zm-.39.75h-.84s0,1.92,0,1.92h.84v-1.92Z"/>
</svg>
