<svg viewBox="0 0 24 24" xmlns="http://www.w3.org/2000/svg" data-title="Lift" fill="currentColor" stroke="none">
  <path fill-rule="evenodd" clip-rule="evenodd" d="M19.625 5.19995C19.832 5.19995 20 5.36795 20 5.57495V19.825C20 20.032 19.832 20.2 19.625 20.2H17.0233C16.8155 20.2 16.6483 20.032 16.6483 19.825V19.534H8.35175V19.825C8.35175 20.032 8.1845 20.2 7.97675 20.2H5.375C5.168 20.2 5 20.032 5 19.825V5.57495C5 5.36795 5.168 5.19995 5.375 5.19995H19.625ZM19.25 5.94995H5.75V19.45H7.60175V8.81195C7.60175 8.60495 7.76975 8.43695 7.97675 8.43695H17.0233C17.2303 8.43695 17.3983 8.60495 17.3983 8.81195V19.45H19.25V5.94995ZM16.6483 9.18695H12.875V18.784H16.6483V9.18695ZM12.125 9.18695H8.35175V18.784H12.125V9.18695ZM18.3088 12.9154C18.5158 12.9154 18.7296 13.1284 18.7296 13.3354C18.7296 13.5431 18.5158 13.7554 18.3088 13.7554C18.1018 13.7554 17.8881 13.5431 17.8881 13.3354C17.8881 13.1284 18.1018 12.9154 18.3088 12.9154ZM18.3088 11.6139C18.5158 11.6139 18.7296 11.8269 18.7296 12.0339C18.7296 12.2416 18.5158 12.4546 18.3088 12.4546C18.1018 12.4546 17.8881 12.2416 17.8881 12.0339C17.8881 11.8269 18.1018 11.6139 18.3088 11.6139ZM10.2737 6.5606C10.4147 6.40685 10.6817 6.40685 10.8234 6.5606L11.5802 7.37735C11.7212 7.52885 11.7122 7.7666 11.56 7.9076C11.4077 8.04785 11.1707 8.03885 11.0297 7.88735L10.5482 7.36685L10.0675 7.88735C9.99395 7.96685 9.8927 8.00735 9.7922 8.00735C9.7007 8.00735 9.6092 7.97435 9.5372 7.9076C9.3857 7.76735 9.37595 7.5296 9.51695 7.37735L10.2737 6.5606ZM14.9021 6.56045C15.0424 6.4082 15.2801 6.39995 15.4323 6.5402C15.5838 6.6812 15.5936 6.9182 15.4526 7.07045L14.6958 7.8872C14.6253 7.96445 14.5256 8.0072 14.4214 8.0072C14.3171 8.0072 14.2166 7.96445 14.1461 7.8872L13.3901 7.07045C13.2491 6.9182 13.2581 6.6812 13.4104 6.5402C13.5619 6.39995 13.7996 6.4082 13.9398 6.56045L14.4214 7.0802L14.9021 6.56045Z"/>
</svg>
