<svg viewBox="0 0 24 24" xmlns="http://www.w3.org/2000/svg" data-title="Light" fill="currentColor" stroke="none">
  <path fill-rule="evenodd" d="m12.02,16.77c.21,0,.38.17.38.38v1.98c0,.21-.17.38-.38.38s-.38-.17-.38-.38v-1.98c0-.21.17-.38.38-.38Zm-3.91-1.38c.15-.15.38-.15.53,0,.15.15.15.38,0,.53l-1.4,1.4c-.07.07-.17.11-.27.11s-.19-.04-.26-.11c-.15-.15-.15-.38,0-.53l1.4-1.4Zm7.27-.03c.15-.15.38-.15.53,0l1.4,1.4c.15.15.15.38,0,.53-.07.07-.17.11-.27.11s-.19-.04-.26-.11l-1.4-1.4c-.15-.15-.15-.38,0-.53Zm-3.39-7.32c2.18,0,3.96,1.77,3.96,3.96s-1.77,3.96-3.96,3.96-3.96-1.77-3.96-3.96,1.77-3.96,3.96-3.96Zm0,.75c-1.77,0-3.21,1.44-3.21,3.21s1.44,3.21,3.21,3.21,3.21-1.44,3.21-3.21-1.44-3.21-3.21-3.21Zm-5.14,2.85c.21,0,.38.17.38.38s-.17.38-.38.38h-1.98c-.21,0-.38-.17-.38-.38s.17-.38.38-.38h1.98Zm12.27-.04c.21,0,.38.17.38.38s-.17.38-.38.38h-1.98c-.21,0-.38-.17-.38-.38s.17-.38.38-.38h1.98ZM6.68,6.71c.15-.15.38-.15.53,0l1.4,1.4c.15.15.15.38,0,.53-.07.07-.17.11-.26.11s-.19-.04-.27-.11l-1.4-1.4c-.15-.15-.15-.38,0-.53Zm10.08-.03c.15-.15.38-.15.53,0,.15.15.15.38,0,.53l-1.4,1.4c-.07.07-.17.11-.27.11s-.19-.04-.27-.11c-.15-.15-.15-.38,0-.53l1.4-1.4Zm-4.78-2.18c.21,0,.38.17.38.38v1.98c0,.21-.17.38-.38.38s-.38-.17-.38-.38v-1.98c0-.21.17-.38.38-.38Z"/>
</svg>
