<svg viewBox="0 0 24 24" xmlns="http://www.w3.org/2000/svg" data-title="LikeOutline" fill="currentColor" stroke="none">
  <path d="M16.2833 3.20001C14.5667 3.20001 13.0417 4.02704 12 5.30676C10.9583 4.02704 9.43333 3.20001 7.71667 3.20001C4.50833 3.20001 2 6.04673 2 9.4419C2 12.2103 3.40833 14.1951 3.975 14.9525C5.84167 17.4249 8.35 19.0616 10.6417 20.5502H10.6583C10.9083 20.7243 11.15 20.881 11.3917 21.0377C11.7167 21.2466 12.1167 21.2554 12.45 21.0551C12.6583 20.9245 12.875 20.794 13.0833 20.6634H13.1C15.4917 19.1834 18.1167 17.5642 20.05 14.9786C20.6917 14.1168 22 12.1493 22 9.4419C22 6.04673 19.4917 3.20872 16.2833 3.20872V3.20001ZM7.71667 5.31546C9.175 5.31546 10.475 6.27308 11.0667 7.70949C11.225 8.09254 11.5917 8.345 11.9917 8.345C12.3917 8.345 12.7583 8.09254 12.9167 7.70949C13.5167 6.27308 14.8167 5.31546 16.275 5.31546C18.2667 5.31546 19.975 7.10881 19.9667 9.4419C19.9667 11.4442 18.9917 12.9415 18.4417 13.6815C16.7667 15.9363 14.4583 17.3553 12.0083 18.87L11.9333 18.9136L11.725 18.783C9.39167 17.2595 7.18333 15.8144 5.55 13.6467C5.04167 12.9764 4.00833 11.4703 4.00833 9.45061C4.00833 7.11752 5.70833 5.32417 7.70833 5.32417L7.71667 5.31546Z"/>
</svg>
