<svg viewBox="0 0 24 24" xmlns="http://www.w3.org/2000/svg" data-title="LinensType" fill="currentColor" stroke="none">
  <path fill-rule="evenodd" clip-rule="evenodd" d="M18.5 5.19995C19.3284 5.19995 20 5.85974 20 6.67364C20 7.11395 19.8034 7.50916 19.4918 7.7792C19.8034 8.04863 20 8.44385 20 8.88416C20 9.3244 19.8035 9.71956 19.492 9.98959C19.8031 10.2585 20 10.654 20 11.0947C20 11.535 19.8034 11.9302 19.4918 12.2003C19.8034 12.4697 20 12.8649 20 13.3052C20 13.7455 19.8035 14.1406 19.492 14.4106C19.8031 14.6796 20 15.0751 20 15.5157C20 15.9561 19.8034 16.3513 19.4918 16.6213C19.8034 16.8907 20 17.286 20 17.7263C20 18.5032 19.3881 19.1397 18.6119 19.1959L18.5 19.2H6.89704C5.84715 19.2 5 18.0406 5 16.6131C5 15.6715 5.36549 14.8533 5.91565 14.4055C5.3663 13.9535 5 13.1307 5 12.1921C5 11.2504 5.36549 10.4323 5.91565 9.98449C5.3663 9.5324 5 8.70968 5 7.77101C5 6.34352 5.83991 5.19995 6.8898 5.19995H18.5ZM18.5 14.7789H9.40229C8.76511 14.7789 8.22931 15.6194 8.22931 16.6131C8.22931 17.6068 8.76511 18.4631 9.40229 18.4631H18.5C18.9142 18.4631 19.25 18.1332 19.25 17.7263C19.25 17.3484 18.9605 17.0369 18.5875 16.9944L18.5 16.9894H11.375C11.1679 16.9894 11 16.8245 11 16.621C11 16.4401 11.1327 16.2897 11.3076 16.2585L11.375 16.2526H18.5C18.9142 16.2526 19.25 15.9227 19.25 15.5157C19.25 15.1379 18.9605 14.8264 18.5875 14.7839L18.5 14.7789ZM6.8898 14.7789C6.25262 14.7789 5.71682 15.6194 5.71682 16.6131C5.71682 17.6068 6.25262 18.4631 6.8898 18.4631L8.0863 18.4638C7.73284 17.9939 7.51249 17.3381 7.51249 16.6131C7.51249 15.8928 7.7282 15.2447 8.0759 14.7795L6.8898 14.7789ZM18.5 10.3578H9.40229C8.76511 10.3578 8.22931 11.1983 8.22931 12.1921C8.22931 13.1858 8.76511 14.0421 9.40229 14.0421H18.5C18.9142 14.0421 19.25 13.7122 19.25 13.3052C19.25 12.9273 18.9605 12.6159 18.5875 12.5733L18.5 12.5684H11.375C11.1679 12.5684 11 12.4034 11 12.2C11 12.0191 11.1327 11.8687 11.3076 11.8375L11.375 11.8315H18.5C18.9142 11.8315 19.25 11.5016 19.25 11.0947C19.25 10.7168 18.9605 10.4054 18.5875 10.3628L18.5 10.3578ZM8.0759 10.3584L6.8898 10.3578C6.25262 10.3578 5.71682 11.1983 5.71682 12.1921C5.71682 13.1858 6.25262 14.0421 6.8898 14.0421L8.0863 14.0427C7.73284 13.5728 7.51249 12.917 7.51249 12.1921C7.51249 11.4717 7.7282 10.8237 8.0759 10.3584ZM18.5 5.93679H9.40229C8.76511 5.93679 8.22931 6.77729 8.22931 7.77101C8.22931 8.76473 8.76511 9.621 9.40229 9.621H18.5C18.9142 9.621 19.25 9.29111 19.25 8.88416C19.25 8.50628 18.9605 8.19484 18.5875 8.15228L18.5 8.14732H11.375C11.1679 8.14732 11 7.98237 11 7.7789C11 7.59803 11.1327 7.44761 11.3076 7.41641L11.375 7.41048H18.5C18.9142 7.41048 19.25 7.08058 19.25 6.67364C19.25 6.29576 18.9605 5.98431 18.5875 5.94175L18.5 5.93679ZM8.07643 5.93666L6.8898 5.93679C6.25262 5.93679 5.71682 6.77729 5.71682 7.77101C5.71682 8.76473 6.25262 9.621 6.8898 9.621L8.0863 9.62165C7.73284 9.15175 7.51249 8.49596 7.51249 7.77101C7.51249 7.05031 7.72842 6.40199 8.07643 5.93666Z"/>
</svg>
