<svg viewBox="0 0 24 24" xmlns="http://www.w3.org/2000/svg" data-title="LinensType" fill="currentColor" stroke="none">
  <path fill-rule="evenodd" d="m18,5c.83,0,1.5.66,1.5,1.47,0,.44-.2.84-.51,1.11.31.27.51.66.51,1.1s-.2.84-.51,1.11c.31.27.51.66.51,1.11s-.2.84-.51,1.11c.31.27.51.66.51,1.1s-.2.84-.51,1.11c.31.27.51.66.51,1.11s-.2.84-.51,1.11c.31.27.51.66.51,1.1,0,.78-.61,1.41-1.39,1.47h-.11s-11.6,0-11.6,0c-1.05,0-1.9-1.16-1.9-2.59,0-.94.37-1.76.92-2.21-.55-.45-.92-1.27-.92-2.21s.37-1.76.92-2.21c-.55-.45-.92-1.27-.92-2.21,0-1.43.84-2.57,1.89-2.57h11.61Zm0,9.58h-9.1c-.64,0-1.17.84-1.17,1.83s.54,1.85,1.17,1.85h9.1c.41,0,.75-.33.75-.74,0-.38-.29-.69-.66-.73h-.09s-7.12,0-7.12,0c-.21,0-.38-.16-.38-.37,0-.18.13-.33.31-.36h.07s7.12,0,7.12,0c.41,0,.75-.33.75-.74,0-.38-.29-.69-.66-.73h-.09Zm-11.61,0c-.64,0-1.17.84-1.17,1.83s.54,1.85,1.17,1.85h1.2c-.35-.47-.57-1.12-.57-1.85s.22-1.37.56-1.83h-1.19Zm11.61-4.42h-9.1c-.64,0-1.17.84-1.17,1.83s.54,1.85,1.17,1.85h9.1c.41,0,.75-.33.75-.74,0-.38-.29-.69-.66-.73h-.09s-7.12,0-7.12,0c-.21,0-.38-.16-.38-.37,0-.18.13-.33.31-.36h.07s7.12,0,7.12,0c.41,0,.75-.33.75-.74,0-.38-.29-.69-.66-.73h-.09Zm-10.42,0h-1.19c-.64,0-1.17.84-1.17,1.83s.54,1.85,1.17,1.85h1.2c-.35-.47-.57-1.13-.57-1.85s.22-1.37.56-1.83Zm10.42-4.42h-9.1c-.64,0-1.17.84-1.17,1.83s.54,1.85,1.17,1.85h9.1c.41,0,.75-.33.75-.74,0-.38-.29-.69-.66-.73h-.09s-7.12,0-7.12,0c-.21,0-.38-.16-.38-.37,0-.18.13-.33.31-.36h.07s7.12,0,7.12,0c.41,0,.75-.33.75-.74,0-.38-.29-.69-.66-.73h-.09Zm-10.42,0h-1.19c-.64,0-1.17.84-1.17,1.83s.54,1.85,1.17,1.85h1.2c-.35-.47-.57-1.13-.57-1.85s.22-1.37.56-1.83Z"/>
</svg>
