<svg viewBox="0 0 24 24" xmlns="http://www.w3.org/2000/svg" data-title="Link" fill="currentColor" stroke="none">
  <path fill-rule="evenodd" clip-rule="evenodd" d="M8.17596 10.1C8.58439 10.5126 8.58054 11.1778 8.16736 11.5858 7.71084 12.0365 6.26528 13.477 4.91088 14.8279 3.83435 15.9016 3.83493 17.6442 4.91249 18.7181 5.97838 19.7803 7.68823 19.7829 8.74638 18.7278 9.60596 17.8707 10.6931 16.7826 12.0345 15.4332 12.4438 15.0214 13.1099 15.019 13.5222 15.4278 13.9344 15.8366 13.9369 16.5019 13.5275 16.9136 12.1841 18.2651 11.0948 19.3553 10.2328 20.2148 8.34607 22.0961 5.30626 22.0789 3.42643 20.2055 1.52591 18.3115 1.52387 15.2364 3.42422 13.341 4.77631 11.9925 6.22692 10.5469 6.6883 10.0914 7.10148 9.68348 7.76753 9.68733 8.17596 10.1ZM13.7208 3.04253C15.6171 1.13244 18.6966 1.15157 20.5863 3.0509 22.4715 4.94573 22.4748 8.00879 20.5749 9.89847 20.1493 10.3219 19.7241 10.7442 19.2992 11.1663 18.6395 11.8215 17.9806 12.476 17.3218 13.1326 16.9105 13.5424 16.2445 13.5417 15.8341 13.131 15.4237 12.7202 15.4245 12.055 15.8357 11.6452 16.4953 10.9879 17.1569 10.3306 17.8179 9.67409 18.2426 9.25226 18.667 8.83071 19.0903 8.40964 20.1627 7.34291 20.1655 5.60902 19.0939 4.53197 18.0188 3.45141 16.28 3.44904 15.2148 4.52201 14.7242 5.01618 14.2306 5.51486 13.7364 6.0142 13.148 6.60876 12.5586 7.20427 11.9721 7.79424 11.5628 8.20601 10.8967 8.20841 10.4844 7.79961 10.0721 7.3908 10.0697 6.72559 10.4791 6.31381 11.068 5.72132 11.6516 5.1317 12.2361 4.54111 12.7291 4.04303 13.2227 3.54427 13.7208 3.04253Z"/>
  <path fill-rule="evenodd" clip-rule="evenodd" d="M15.7983 7.83181C16.2086 8.24255 16.2079 8.90776 15.7967 9.31761L9.69617 15.3972C9.28492 15.807 8.61886 15.8063 8.20849 15.3956C7.79813 14.9848 7.79885 14.3196 8.21011 13.9098L14.3106 7.8302C14.7218 7.42035 15.3879 7.42107 15.7983 7.83181Z"/>
</svg>
