<svg viewBox="0 0 24 24" xmlns="http://www.w3.org/2000/svg" data-title="Link" fill="currentColor" stroke="none">
  <path fill-rule="evenodd" clip-rule="evenodd" d="M8.17596 10.1005C8.58439 10.5131 8.58054 11.1783 8.16736 11.5862 7.71084 12.037 6.26528 13.4775 4.91088 14.8284 3.83435 15.9021 3.83493 17.6447 4.91249 18.7186 5.97838 19.7808 7.68823 19.7833 8.74638 18.7283 9.60596 17.8712 10.6931 16.7831 12.0345 15.4337 12.4438 15.0219 13.1099 15.0195 13.5222 15.4283 13.9344 15.8371 13.9369 16.5023 13.5275 16.9141 12.1841 18.2656 11.0948 19.3558 10.2328 20.2153 8.34607 22.0966 5.30626 22.0794 3.42643 20.206 1.52591 18.312 1.52387 15.2369 3.42422 13.3415 4.77631 11.993 6.22692 10.5474 6.6883 10.0919 7.10148 9.68397 7.76753 9.68781 8.17596 10.1005ZM13.7208 3.04302C15.6171 1.13293 18.6966 1.15206 20.5863 3.05139 22.4715 4.94622 22.4748 8.00928 20.5749 9.89896 20.1493 10.3224 19.7241 10.7447 19.2992 11.1668 18.6395 11.822 17.9806 12.4765 17.3218 13.1331 16.9105 13.5429 16.2445 13.5422 15.8341 13.1314 15.4237 12.7207 15.4245 12.0555 15.8357 11.6456 16.4953 10.9883 17.1569 10.3311 17.8179 9.67457 18.2426 9.25274 18.667 8.8312 19.0903 8.41012 20.1627 7.3434 20.1655 5.6095 19.0939 4.53246 18.0188 3.4519 16.28 3.44953 15.2148 4.52249 14.7242 5.01667 14.2306 5.51534 13.7364 6.01468 13.148 6.60925 12.5586 7.20476 11.9721 7.79473 11.5628 8.2065 10.8967 8.2089 10.4844 7.80009 10.0721 7.39129 10.0697 6.72607 10.4791 6.3143 11.068 5.72181 11.6516 5.13219 12.2361 4.5416 12.7291 4.04352 13.2227 3.54476 13.7208 3.04302Z"/>
  <path fill-rule="evenodd" clip-rule="evenodd" d="M15.7983 7.8323C16.2086 8.24303 16.2079 8.90825 15.7967 9.3181L9.69617 15.3977C9.28492 15.8075 8.61886 15.8068 8.20849 15.3961C7.79813 14.9853 7.79885 14.3201 8.21011 13.9103L14.3106 7.83069C14.7218 7.42084 15.3879 7.42156 15.7983 7.8323Z"/>
</svg>
