<svg viewBox="0 0 24 24" xmlns="http://www.w3.org/2000/svg" data-title="Listing" fill="currentColor" stroke="none">
  <path fill-rule="evenodd" clip-rule="evenodd" d="M18.5 15.0571C19.3284 15.0571 20 15.7606 20 16.6285C20 17.4569 19.3881 18.1357 18.6119 18.1956L18.5 18.2H10.25C9.42157 18.2 8.75 17.4964 8.75 16.6285C8.75 15.8001 9.36191 15.1214 10.1381 15.0614L10.25 15.0571H18.5ZM5.75017 15.1895L6.50075 15.9748L7.24346 15.1931C7.35541 15.0758 7.51859 15.03 7.67152 15.0729C7.82446 15.1159 7.94391 15.2411 7.98489 15.4014C8.02587 15.5616 7.98214 15.7327 7.87019 15.85L7.124 16.6277L7.87355 17.4126C8.04215 17.5927 8.04215 17.8809 7.87355 18.061C7.80028 18.1392 7.70332 18.1883 7.59928 18.2C7.48259 18.1982 7.37129 18.1483 7.28962 18.061L6.5135 17.2657L5.75165 18.0611C5.67073 18.1492 5.55933 18.1992 5.4427 18.1999C5.32565 18.2014 5.21344 18.151 5.13375 18.0611C5.04841 17.9772 5 17.86 5 17.7373C5 17.6147 5.04841 17.4975 5.13375 17.4135L5.88575 16.6215L5.13085 15.8472C5.04711 15.7602 5 15.6418 5 15.5183C5 15.3948 5.04711 15.2765 5.13085 15.1895C5.30286 15.013 5.57816 15.013 5.75017 15.1895ZM18.5 15.8428H10.25C9.83579 15.8428 9.5 16.1946 9.5 16.6285C9.5 17.0315 9.78953 17.3636 10.1625 17.409L10.25 17.4142H18.5C18.9142 17.4142 19.25 17.0625 19.25 16.6285C19.25 16.1946 18.9142 15.8428 18.5 15.8428ZM18.5 11.1285C19.3284 11.1285 20 11.8321 20 12.7C20 13.5284 19.3881 14.2071 18.6119 14.2671L18.5 14.2714H10.25C9.42157 14.2714 8.75 13.5678 8.75 12.7C8.75 11.8715 9.36191 11.1928 10.1381 11.1328L10.25 11.1285H18.5ZM5.75017 11.2609L6.50075 12.0462L7.24346 11.2646C7.35541 11.1472 7.51859 11.1014 7.67152 11.1444C7.82446 11.1873 7.94391 11.3125 7.98489 11.4728C8.02587 11.6331 7.98214 11.8041 7.87019 11.9214L7.124 12.6992L7.87355 13.484C8.04215 13.6641 8.04215 13.9523 7.87355 14.1324C7.80028 14.2106 7.70332 14.2598 7.59928 14.2714C7.48259 14.2696 7.37129 14.2197 7.28962 14.1324L6.5135 13.3372L5.75165 14.1326C5.67073 14.2206 5.55933 14.2706 5.4427 14.2713C5.32565 14.2728 5.21344 14.2224 5.13375 14.1326C5.04841 14.0486 5 13.9314 5 13.8088C5 13.6861 5.04841 13.5689 5.13375 13.485L5.88575 12.6929L5.13085 11.9186C5.04711 11.8316 5 11.7132 5 11.5898C5 11.4663 5.04711 11.3479 5.13085 11.2609C5.30286 11.0844 5.57816 11.0844 5.75017 11.2609ZM18.5 11.9142H10.25C9.83579 11.9142 9.5 12.266 9.5 12.7C9.5 13.1029 9.78953 13.435 10.1625 13.4804L10.25 13.4857H18.5C18.9142 13.4857 19.25 13.1339 19.25 12.7C19.25 12.266 18.9142 11.9142 18.5 11.9142ZM18.5 7.19995C19.3284 7.19995 20 7.9035 20 8.77138C20 9.59981 19.3881 10.2785 18.6119 10.3385L18.5 10.3428H10.25C9.42157 10.3428 8.75 9.63926 8.75 8.77138C8.75 7.94295 9.36191 7.26425 10.1381 7.20426L10.25 7.19995H18.5ZM5.75017 7.33235L6.50075 8.11767L7.24346 7.336C7.35541 7.21867 7.51859 7.17284 7.67152 7.21579C7.82446 7.25874 7.94391 7.38393 7.98489 7.54422C8.02587 7.70451 7.98214 7.87553 7.87019 7.99287L7.124 8.77059L7.87355 9.55546C8.04215 9.73555 8.04215 10.0238 7.87355 10.2039C7.80028 10.2821 7.70332 10.3312 7.59928 10.3428C7.48259 10.3411 7.37129 10.2911 7.28962 10.2039L6.5135 9.40859L5.75165 10.204C5.67073 10.292 5.55933 10.3421 5.4427 10.3428C5.32565 10.3443 5.21344 10.2939 5.13375 10.204C5.04841 10.1201 5 10.0029 5 9.8802C5 9.75753 5.04841 9.64033 5.13375 9.55639L5.88575 8.76431L5.13085 7.99002C5.04711 7.90305 5 7.78467 5 7.66118C5 7.53769 5.04711 7.41931 5.13085 7.33235C5.30286 7.15582 5.57816 7.15582 5.75017 7.33235ZM18.5 7.98567H10.25C9.83579 7.98567 9.5 8.33744 9.5 8.77138C9.5 9.17432 9.78953 9.50642 10.1625 9.55181L10.25 9.55709H18.5C18.9142 9.55709 19.25 9.20532 19.25 8.77138C19.25 8.33744 18.9142 7.98567 18.5 7.98567Z"/>
</svg>
