<svg viewBox="0 0 24 24" xmlns="http://www.w3.org/2000/svg" data-title="Listing" fill="currentColor" stroke="none">
  <path fill-rule="evenodd" d="m18,14.36c.83,0,1.5.7,1.5,1.57s-.61,1.51-1.39,1.57h-.11s-8.25,0-8.25,0c-.83,0-1.5-.7-1.5-1.57s.61-1.51,1.39-1.57h.11s8.25,0,8.25,0Zm-12.75.13l.75.79.74-.78c.11-.12.28-.16.43-.12.15.04.27.17.31.33.04.16,0,.33-.11.45l-.75.78.75.78c.17.18.17.47,0,.65-.07.08-.17.13-.27.14-.12,0-.23-.05-.31-.14l-.78-.8-.76.8c-.08.09-.19.14-.31.14-.12,0-.23-.05-.31-.14-.09-.08-.13-.2-.13-.32s.05-.24.13-.32l.75-.79-.75-.77c-.08-.09-.13-.21-.13-.33s.05-.24.13-.33c.17-.18.45-.18.62,0Zm12.75.65h-8.25c-.41,0-.75.35-.75.79,0,.4.29.74.66.78h.09s8.25,0,8.25,0c.41,0,.75-.35.75-.79s-.34-.79-.75-.79Zm0-4.71c.83,0,1.5.7,1.5,1.57s-.61,1.51-1.39,1.57h-.11s-8.25,0-8.25,0c-.83,0-1.5-.7-1.5-1.57s.61-1.51,1.39-1.57h.11s8.25,0,8.25,0Zm-12.75.13l.75.79.74-.78c.11-.12.28-.16.43-.12.15.04.27.17.31.33.04.16,0,.33-.11.45l-.75.78.75.78c.17.18.17.47,0,.65-.07.08-.17.13-.27.14-.12,0-.23-.05-.31-.14l-.78-.8-.76.8c-.08.09-.19.14-.31.14-.12,0-.23-.05-.31-.14-.09-.08-.13-.2-.13-.32s.05-.24.13-.32l.75-.79-.75-.77c-.08-.09-.13-.21-.13-.33s.05-.24.13-.33c.17-.18.45-.18.62,0Zm12.75.65h-8.25c-.41,0-.75.35-.75.79,0,.4.29.74.66.78h.09s8.25,0,8.25,0c.41,0,.75-.35.75-.79s-.34-.79-.75-.79Zm0-4.71c.83,0,1.5.7,1.5,1.57s-.61,1.51-1.39,1.57h-.11s-8.25,0-8.25,0c-.83,0-1.5-.7-1.5-1.57s.61-1.51,1.39-1.57h.11s8.25,0,8.25,0Zm-12.75.13l.75.79.74-.78c.11-.12.28-.16.43-.12.15.04.27.17.31.33.04.16,0,.33-.11.45l-.75.78.75.78c.17.18.17.47,0,.65-.07.08-.17.13-.27.14-.12,0-.23-.05-.31-.14l-.78-.8-.76.8c-.08.09-.19.14-.31.14-.12,0-.23-.05-.31-.14-.09-.08-.13-.2-.13-.32s.05-.24.13-.32l.75-.79-.75-.77c-.08-.09-.13-.21-.13-.33s.05-.24.13-.33c.17-.18.45-.18.62,0Zm12.75.65h-8.25c-.41,0-.75.35-.75.79,0,.4.29.74.66.78h.09s8.25,0,8.25,0c.41,0,.75-.35.75-.79s-.34-.79-.75-.79Z"/>
</svg>
