<svg viewBox="0 0 24 24" xmlns="http://www.w3.org/2000/svg" data-title="Litter" fill="currentColor" stroke="none">
  <path fill-rule="evenodd" d="m16.06,6.88v.07s-.16,1.47-.16,1.47l1.07,1.36c.37-.16.78-.25,1.21-.25.55,0,1.07.14,1.52.4l1.16-1.33.05-.05c.23-.19.56-.02.58.28v.07s-.19,3-.19,3c.12.37.19.78.19,1.2h0s0,.02,0,.02v.16c-.08,1.9-1.53,3.42-3.31,3.42-.83,0-1.59-.33-2.17-.87.16-.2.31-.42.43-.65h0c.46.45,1.06.73,1.73.73,1.3,0,2.37-1.04,2.55-2.39h-1.06c-.2,0-.37-.18-.37-.4,0-.2.13-.36.3-.39h.07s1.06,0,1.06,0c-.18-1.35-1.25-2.39-2.55-2.39-.54,0-1.05.18-1.47.5v-.02s-.01,0-.01,0l-.91-1.35-.07.72c.42.73.66,1.6.66,2.53h1.1c.2,0,.37.18.37.4,0,.2-.13.36-.3.39h-.07s-1.16,0-1.16,0c-.35,2.26-2.15,3.99-4.32,3.99s-3.98-1.72-4.32-3.99h-1.16s-.07,0-.07,0c-.17-.03-.3-.2-.3-.39,0-.22.16-.4.37-.4h1.1c0-.96.26-1.85.7-2.6l-.07-.71-.95,1.4h0s0,0,0,0c-.42-.31-.92-.5-1.47-.5-1.3,0-2.37,1.04-2.55,2.39h1.06s.07,0,.07,0c.17.03.3.2.3.39,0,.22-.16.4-.37.4h-1.06c.18,1.35,1.25,2.39,2.55,2.39.66,0,1.27-.27,1.73-.72h0c.13.22.27.44.43.64-.58.55-1.34.87-2.17.87-1.78,0-3.23-1.52-3.31-3.42v-.16s0-.02,0-.02c0-.42.07-.82.19-1.2l-.19-3v-.07c.02-.31.36-.47.58-.28l.05.05,1.16,1.33c.46-.26.97-.4,1.52-.4.43,0,.83.09,1.21.25l1.11-1.41-.15-1.42c-.03-.32.27-.54.52-.41l.05.03,2.08,1.59c.43-.15.89-.23,1.36-.23s.95.09,1.39.25l2.1-1.6.05-.03c.23-.12.51.06.52.34Zm-4.06,1.85c-1.2,0-2.26.63-2.93,1.6h0s0,.01,0,.01c-.41.61-.67,1.35-.71,2.16v.22s2.55,0,2.55,0c.2,0,.37.18.37.4,0,.2-.13.36-.3.39h-.07s-2.48,0-2.48,0c.05.28.13.55.23.8h.06s1.46,0,1.46,0c.2,0,.37.18.37.4,0,.2-.13.36-.3.39h-.07s-1.1,0-1.1,0c.67.97,1.73,1.59,2.92,1.59s2.26-.63,2.92-1.59h-1.1c-.2,0-.37-.18-.37-.4,0-.2.13-.36.3-.39h.07s1.46,0,1.46,0h.06c.1-.25.18-.52.23-.8h-2.48c-.2,0-.37-.18-.37-.4,0-.2.13-.36.3-.39h.07s2.56,0,2.56,0c0-2.2-1.64-3.99-3.65-3.99Zm-8.77,1.08v1.06c.14-.18.29-.35.46-.5l-.46-.56Zm17.54,0l-.46.56c.17.15.32.32.46.5v-1.06Zm-5.53-2.07l-1.07.82c.33.21.64.46.91.75l.17-1.57Zm-6.44,0l.16,1.53c.27-.28.57-.53.89-.72l-1.05-.81Z"/>
</svg>
