<svg viewBox="0 0 24 24" xmlns="http://www.w3.org/2000/svg" data-title="Loader" fill="currentColor" stroke="none">
  <path d="m19.77,15.43l-2.4-2.4c-.15-.15-.36-.23-.57-.23-.04,0-.09,0-.13.01-.25.04-.47.2-.59.43-.04.09-.22.47-.34.96-.14-.19-.27-.39-.39-.58-.5-.8-1.01-1.63-2.56-1.63,0-.09-.01-.17-.04-.25l-1.52-4.55h.36c.22,0,.4-.18.4-.4s-.18-.4-.4-.4h-4.8c-.22,0-.4.18-.4.4s.18.4.4.4h.4v3.2h-.8v-1.6h-.8v1.6h-.8c-.44,0-.8.36-.8.8v4c0,.44.36.8.8.8h.04c.19.91.99,1.6,1.96,1.6s1.77-.69,1.96-1.6h1.68c.19.91.99,1.6,1.96,1.6,1.01,0,1.85-.76,1.97-1.74.46.28,1,.47,1.63.47.01,0,.02,0,.03,0,.06.08.13.16.21.24.39.39.92.59,1.54.59.87,0,1.69-.39,1.78-.44.23-.12.39-.33.43-.59.04-.25-.04-.51-.22-.69ZM8,7.2h2.4l1.6,4.8h-4v-4.8Zm-3.16,8h-.04v-4h2.4v2.44c-.13-.03-.26-.04-.4-.04-.97,0-1.77.69-1.96,1.6Zm1.96,1.6c-.66,0-1.2-.54-1.2-1.2s.54-1.2,1.2-1.2,1.2.54,1.2,1.2-.54,1.2-1.2,1.2Zm3.64-1.6h-1.68c-.1-.49-.38-.9-.76-1.19v-1.21h4v.84c-.78.16-1.4.78-1.56,1.56Zm1.96,1.6c-.66,0-1.2-.54-1.2-1.2s.54-1.2,1.2-1.2,1.2.54,1.2,1.2-.54,1.2-1.2,1.2Zm1.72-2.2c-.28-.48-.76-.84-1.32-.96v-.84c1.11,0,1.41.5,1.88,1.25.25.4.54.85.98,1.28,0,.06.02.11.03.17-.68-.09-1.21-.46-1.57-.89Zm3.66,1.76c-.36,0-.71-.09-.98-.36-.8-.8,0-2.4,0-2.4l2.4,2.4s-.71.36-1.42.36Z"/>
  <path d="M6.81 16.03c.2 0 .36-.16.36-.36s-.16-.36-.36-.36-.36.16-.36.36.16.36.36.36ZM12.36 16.03c.2 0 .36-.16.36-.36s-.16-.36-.36-.36-.36.16-.36.36.16.36.36.36Z"/>
</svg>
