<svg viewBox="0 0 24 24" xmlns="http://www.w3.org/2000/svg" data-title="Localisation" fill="currentColor" stroke="none">
  <path d="m14.55,9c0-1.41-1.14-2.55-2.55-2.55s-2.55,1.14-2.55,2.55,1.14,2.55,2.55,2.55c1.41,0,2.55-1.14,2.55-2.55Zm-4.38,0c0-1.01.82-1.83,1.82-1.83s1.82.82,1.82,1.83-.82,1.83-1.82,1.83-1.82-.82-1.82-1.83Z"/>
  <path d="m12,19.55c1.46,0,2.96-.2,4.11-.6.57-.2,1.06-.44,1.4-.74.34-.29.55-.64.55-1.04,0-.5-.35-.96-.95-1.32-.59-.36-1.44-.65-2.49-.83.57-.89,1.14-1.87,1.56-2.85.44-1,.73-2,.73-2.87,0-2.67-2.2-4.85-4.91-4.85s-4.91,2.18-4.91,4.85c0,.87.3,1.87.73,2.87.43.98,1,1.97,1.56,2.85-1.05.18-1.89.47-2.49.83-.6.37-.95.82-.95,1.32,0,.4.2.74.55,1.04.34.29.83.54,1.4.74,1.14.39,2.65.6,4.11.6h0Zm.27-1.33h0c.08-.1.95-1.14,1.92-2.56,1.04.16,1.83.41,2.36.69.27.14.47.29.6.43.13.14.19.28.19.4,0,.18-.12.38-.38.57-.25.2-.62.38-1.09.55-.94.33-2.29.55-3.87.55s-2.93-.23-3.87-.55c-.47-.16-.84-.35-1.09-.55-.25-.2-.38-.39-.38-.57,0-.12.06-.26.19-.4.13-.14.33-.29.6-.43.53-.28,1.32-.53,2.36-.69.96,1.42,1.84,2.46,1.92,2.56.07.08.17.13.27.13s.2-.05.27-.13Zm-.27-13.07c2.32,0,4.2,1.86,4.2,4.15,0,.67-.21,1.45-.53,2.25-.33.8-.77,1.64-1.24,2.42-.92,1.53-1.95,2.87-2.43,3.47-.48-.6-1.51-1.94-2.43-3.47-.47-.78-.92-1.62-1.24-2.42-.33-.81-.53-1.58-.53-2.25,0-2.29,1.88-4.15,4.2-4.15Z"/>
</svg>
