<svg viewBox="0 0 24 24" xmlns="http://www.w3.org/2000/svg" data-title="Localisation" fill="currentColor" stroke="none">
  <g clip-path="url(#clip0_1508_5089)">
    <path d="M14.55 9.69995C14.55 8.2939 13.406 7.14995 12 7.14995C10.594 7.14995 9.45 8.2939 9.45 9.69995C9.45 11.106 10.594 12.25 12 12.25C13.406 12.2501 14.55 11.1061 14.55 9.69995ZM10.175 9.69995C10.175 8.69365 10.9937 7.8749 12 7.8749C13.0063 7.8749 13.825 8.69365 13.825 9.69995C13.825 10.7064 13.0063 11.525 12 11.525C10.9937 11.525 10.175 10.7064 10.175 9.69995Z"/>
    <path d="M12.0002 20.25C13.4582 20.2499 14.964 20.0458 16.107 19.651C16.6784 19.4537 17.1622 19.2077 17.5041 18.9132C17.8465 18.6183 18.05 18.2715 18.05 17.875C18.05 17.3707 17.703 16.9194 17.0982 16.5514C16.5064 16.1913 15.6582 15.9045 14.6123 15.7202C15.1811 14.835 15.7485 13.8476 16.1771 12.8688C16.6157 11.8672 16.9108 10.8707 16.9108 9.99986C16.9108 7.32493 14.7072 5.14995 12.0001 5.14995C9.29299 5.14995 7.08936 7.32511 7.08936 9.99986C7.08936 10.8706 7.38448 11.8671 7.82301 12.8687C8.25161 13.8475 8.81893 14.835 9.3877 15.7202C8.34182 15.9045 7.49364 16.1913 6.90177 16.5514C6.297 16.9194 5.95 17.3707 5.95 17.875C5.95004 18.2715 6.15354 18.6183 6.49593 18.9132C6.83784 19.2077 7.32169 19.4537 7.89307 19.651C9.0361 20.0458 10.5418 20.2499 11.9998 20.25H12.0002ZM12.2717 18.924L12.2717 18.9239C12.3536 18.8266 13.2243 17.7845 14.1892 16.3617C15.229 16.5192 16.0194 16.7702 16.5497 17.0478C16.8176 17.1881 17.0172 17.3341 17.1492 17.4767C17.2815 17.6195 17.3424 17.7549 17.3424 17.875C17.3424 18.0557 17.219 18.2526 16.966 18.4493C16.7146 18.6447 16.344 18.8326 15.8714 18.9962C14.9269 19.3233 13.5845 19.55 11.9997 19.55C10.415 19.55 9.07253 19.3233 8.12798 18.9962C7.65545 18.8326 7.28485 18.6447 7.03344 18.4493C6.78045 18.2526 6.65707 18.0557 6.65707 17.875C6.65707 17.7549 6.7179 17.6195 6.8502 17.4766C6.98219 17.3341 7.18181 17.1881 7.4497 17.0478C7.98005 16.7702 8.77057 16.5191 9.8105 16.3617C10.7754 17.7845 11.6459 18.8265 11.728 18.924C11.7953 19.0039 11.8948 19.05 11.9998 19.05C12.1049 19.05 12.2044 19.0039 12.2717 18.924ZM11.9998 5.84986C14.3181 5.84986 16.203 7.71222 16.203 9.99982C16.203 10.6702 15.9973 11.4449 15.6717 12.2504C15.3463 13.0553 14.9024 13.8876 14.4292 14.672C13.5086 16.198 12.4789 17.5394 11.9998 18.1408C11.5205 17.5394 10.4908 16.1982 9.57024 14.6724C9.09704 13.888 8.65325 13.0558 8.32788 12.2509C8.00226 11.4453 7.79664 10.6704 7.79664 9.99982C7.79664 7.71222 9.68154 5.84986 11.9998 5.84986Z"/>
  </g>
  <defs>
    <clipPath id="clip0_1508_5089">
      <path transform="translate(0 0.199951)" d="M0 0 H24 V24 H0 V0 z"/>
    </clipPath>
  </defs>
</svg>
