<svg viewBox="0 0 24 24" xmlns="http://www.w3.org/2000/svg" data-title="Loggia" fill="currentColor" stroke="none">
  <path fill-rule="evenodd" d="m18.61,5c.21,0,.39.17.39.39v10.89c0,.21-.17.39-.39.39h-7.39v1.94c0,.19-.14.35-.32.38h-.07s-3.89,0-3.89,0c-.19,0-.35-.14-.38-.32v-.07s0-1.94,0-1.94h-1.17c-.19,0-.35-.14-.38-.32v-.07s0-10.89,0-10.89c0-.21.17-.39.39-.39h13.22Zm-8.17,10.89h-3.11v2.33h3.11v-2.33Zm1.17-10.11h-5.83v10.11h.78v-.39c0-.19.14-.35.32-.38h.07s1.56,0,1.56,0v-.99c-.3.25-.73.34-1.12.21l-.1-.04c-.65-.29-1.33-1.15-1.06-1.75.17-.38.66-.55,1.17-.55-.03-.12-.05-.25-.05-.38,0-.98.7-2.33,1.56-2.33s1.56,1.35,1.56,2.33c0,.72-.5,1.33-1.17,1.51v1.05s.5-.5.5-.5c.15-.15.4-.15.55,0,.14.14.15.34.05.5l-.05.05-.78.78c-.06.06-.13.09-.2.11h-.07s1.56,0,1.56,0c.19,0,.35.14.38.32v.07s0,.39,0,.39h.39V5.78Zm6.61,0h-5.83v4.67h.78c.21,0,.39.17.39.39,0,.19-.14.35-.32.38h-.07s-.78,0-.78,0v4.67h5.83V5.78Zm-11.3,7.08c-.04.09.36.59.67.72.2.09.43,0,.51-.2.09-.2,0-.43-.2-.51-.31-.14-.95-.1-.99-.01Zm1.97-2.8c-.28,0-.78.95-.78,1.56,0,.43.35.78.78.78s.78-.35.78-.78c0-.61-.49-1.56-.78-1.56Z"/>
</svg>
