<svg viewBox="0 0 24 24" xmlns="http://www.w3.org/2000/svg" data-title="Loof" fill="currentColor" stroke="none">
  <path fill-rule="evenodd" d="m12.36,8.15c1.14.07,2.18,1.21,2.38,1.45l1.39,1.03c.07.05.12.13.14.21.18.67.08,1.38-.28,1.98-.26.28-.64.44-1.03.42-.69-.06-1.37.21-1.81.72-.99,1.2-.36,3.61-.35,3.61.04.15-.02.31-.16.4-.07.03-.15.05-.23.04-.08,0-.17-.03-.23-.08l-3.21-2.5c-.08-.06-.13-.15-.14-.24-.01-.1.02-.19.08-.27.13-.15.37-.18.53-.05l2.43,1.89c-.22-1.14.02-2.31.66-3.29.6-.69,1.52-1.05,2.46-.96.16.01.32-.04.44-.15.19-.39.24-.82.14-1.24l-1.33-.96s-.05-.04-.07-.07c-.46-.59-1.11-1.02-1.85-1.21-.21,0-.37-.18-.36-.38.01-.2.19-.35.4-.34Zm-4.96-2.06c.08.06.12.15.13.25.02.27,0,.53-.08.79.04-.07.07-.14.09-.22.03-.14.13-.25.27-.28.14-.04.29,0,.38.11.09.11.12.25.06.38-.24.75-.87,1.31-1.66,1.48-.46.54-1.01,1.03-1.45,1.43-.6.54-.86,2.62-.9,3.92l3.61,2.8c-.21-1.14.02-2.31.66-3.29.6-.68,1.51-1.04,2.43-.96.16.01.32-.04.43-.15.2-.38.25-.82.15-1.24l-1.35-.96s-.05-.04-.06-.07c-.46-.59-1.12-1.02-1.86-1.21-.1,0-.19-.05-.26-.12-.07-.07-.1-.17-.09-.26,0-.1.05-.19.13-.25.07-.06.17-.1.27-.09,1.14.07,2.18,1.21,2.37,1.45l1.4,1.03c.07.05.12.13.14.21.19.67.1,1.38-.25,1.98-.26.28-.64.44-1.03.42-.7-.07-1.38.21-1.82.72-.99,1.2-.35,3.61-.35,3.61.04.15-.02.31-.16.4-.07.04-.15.05-.23.04-.08,0-.17-.03-.23-.08l-4.52-3.53c-.09-.07-.14-.18-.14-.29,0-.37.09-3.66,1.1-4.57.42-.37.94-.85,1.38-1.36.03-.09.09-.17.17-.21.4-.51.68-1.05.65-1.55-.01-.1.02-.19.08-.27.06-.07.16-.12.26-.13.1-.01.2.02.28.08Zm9.1,2.06c1.14.07,2.18,1.21,2.37,1.45l1.39,1.03c.07.05.12.13.14.21.19.67.09,1.38-.27,1.98-.26.29-.64.44-1.03.42-.69-.06-1.38.21-1.82.72-.99,1.2-.35,3.61-.35,3.61.04.15-.02.31-.16.4-.06.03-.13.05-.2.04-.09,0-.17-.03-.24-.08l-3.22-2.5c-.16-.13-.18-.35-.05-.51.06-.07.15-.12.25-.13.1,0,.2.02.27.08l2.44,1.89c-.22-1.14.02-2.31.66-3.29.6-.68,1.5-1.04,2.43-.96.16.02.33-.03.44-.15.19-.39.24-.82.14-1.24l-1.32-.96-.07-.07c-.46-.59-1.12-1.02-1.86-1.21-.21-.02-.36-.18-.35-.38,0-.1.05-.19.13-.25.08-.06.18-.1.28-.09Zm-4.93-1.81c.02.2.01.4-.02.59v-.03c.04-.09.1-.17.19-.22.09-.05.19-.06.29-.03.2.06.31.26.25.46-.25.77-.92,1.35-1.74,1.5-.05.02-.11.03-.17.02-.21.01-.39-.14-.4-.34-.01-.17.1-.32.27-.37.41-.4.62-.95.57-1.52-.02-.2.13-.38.34-.39s.39.13.41.33Zm2.57,1.95c0-.14.07-.27.19-.33l-.08.07c.48-.41.74-1.01.69-1.63-.01-.13.05-.25.16-.33.11-.07.25-.09.38-.03.12.05.21.17.22.3.02.27,0,.54-.06.8l-.02.07c.06-.1.11-.2.14-.31.03-.09.09-.17.18-.22.09-.05.19-.06.29-.03.2.06.31.26.25.46-.26.81-.99,1.41-1.87,1.52h-.07c-.21.01-.39-.14-.4-.34Z"/>
</svg>
