<svg viewBox="0 0 24 24" xmlns="http://www.w3.org/2000/svg" data-title="Luxe" fill="currentColor" stroke="none">
  <path fill-rule="evenodd" clip-rule="evenodd" d="M5.26702 11.281H8.85052L10.7345 17.2038L5.26702 11.281ZM6.75877 8.07776L8.40352 10.5025H5.12227L6.75877 8.07776ZM11.3143 7.77926L13.1518 10.5025H9.86752L10.991 8.84276C11.111 8.66501 11.0645 8.42201 10.889 8.30126C10.7128 8.18051 10.4728 8.22701 10.3535 8.40551L9.13252 10.2048L7.49077 7.77926H11.3143ZM16.0558 7.67351L17.8948 10.3975H14.6135L15.701 8.79251C15.83 8.62151 15.7978 8.37701 15.6283 8.24726C15.4603 8.11601 15.2188 8.14901 15.089 8.32001C15.0823 8.32901 15.0755 8.33876 15.0688 8.34851L13.8838 10.0998L12.2473 7.67351H16.0558ZM14.171 11.176H17.75L12.4115 16.9585L14.171 11.176ZM9.65977 11.176H13.3655L11.5528 17.1258L9.65977 11.176ZM18.9808 10.792C18.9823 10.6593 18.914 10.5475 18.815 10.4755L16.5725 7.16501C16.5005 7.06076 16.3805 6.99926 16.2538 7.00001H6.76252C6.74902 7.00001 6.73477 7.00001 6.71977 7.00001C6.60877 7.01201 6.50752 7.07201 6.44377 7.16501L4.06777 10.6728C3.96502 10.8235 3.98077 11.026 4.10377 11.1595L11.2258 18.8748C11.3705 19.0323 11.6135 19.0428 11.7695 18.8965C11.777 18.8898 11.7838 18.8823 11.7913 18.8748L18.9125 11.1595C19.007 11.0575 19.0168 10.9203 18.9808 10.792Z"/>
</svg>
