<svg viewBox="0 0 24 24" xmlns="http://www.w3.org/2000/svg" data-title="Luxe" fill="currentColor" stroke="none">
  <path fill-rule="evenodd" clip-rule="evenodd" d="M5.26702 11.481H8.85052L10.7345 17.4037L5.26702 11.481ZM6.75877 8.27772L8.40352 10.7025H5.12227L6.75877 8.27772ZM11.3143 7.97921L13.1518 10.7025H9.86752L10.991 9.04271C11.111 8.86496 11.0645 8.62196 10.889 8.50121C10.7128 8.38046 10.4728 8.42696 10.3535 8.60546L9.13252 10.4047L7.49077 7.97921H11.3143ZM16.0558 7.87346L17.8948 10.5975H14.6135L15.701 8.99246C15.83 8.82146 15.7978 8.57697 15.6283 8.44722C15.4603 8.31597 15.2188 8.34897 15.089 8.51997C15.0823 8.52897 15.0755 8.53872 15.0688 8.54847L13.8838 10.2997L12.2473 7.87346H16.0558ZM14.171 11.376H17.75L12.4115 17.1585L14.171 11.376ZM9.65977 11.376H13.3655L11.5528 17.3257L9.65977 11.376ZM18.9808 10.992C18.9823 10.8592 18.914 10.7475 18.815 10.6755L16.5725 7.36497C16.5005 7.26072 16.3805 7.19921 16.2538 7.19996H6.76252C6.74902 7.19996 6.73477 7.19996 6.71977 7.19996C6.60877 7.21196 6.50752 7.27197 6.44377 7.36497L4.06777 10.8727C3.96502 11.0235 3.98077 11.226 4.10377 11.3595L11.2258 19.0747C11.3705 19.2322 11.6135 19.2427 11.7695 19.0965C11.777 19.0897 11.7838 19.0822 11.7913 19.0747L18.9125 11.3595C19.007 11.2575 19.0168 11.1202 18.9808 10.992Z"/>
</svg>
