<svg viewBox="0 0 24 24" xmlns="http://www.w3.org/2000/svg" data-title="MailCloseFill" fill="currentColor" stroke="none">
  <path d="M7.74074 17.533V9.0886C7.74074 7.66637 6.53704 6.51082 5.14815 6.33304C5.05556 6.33304 4.96296 6.33304 4.96296 6.33304C3.2963 6.33304 2 7.57748 2 9.0886V17.533C2 17.7997 2.27778 18.0664 2.55556 18.0664H7.18519C7.55556 18.0664 7.74074 17.7997 7.74074 17.533ZM6.25926 10.1553H3.48148C3.11111 10.1553 2.83333 9.8886 2.83333 9.53304C2.83333 9.17748 3.11111 8.91082 3.48148 8.91082H6.25926C6.62963 8.91082 6.90741 9.17748 6.90741 9.53304C6.90741 9.8886 6.62963 10.1553 6.25926 10.1553Z"/>
  <path d="M16.4444 4.19971H5.33333C5.24074 4.19971 5.14815 4.19971 5.14815 4.19971C6.25926 4.2886 7.27778 4.64415 8.11111 5.26637C8.48148 5.53304 8.85185 5.8886 9.12963 6.33304C9.68518 7.13304 10.0556 8.11082 10.0556 9.0886V17.533C10.0556 17.7108 10.0556 17.8886 9.96296 18.0664C9.87037 18.4219 9.68518 18.7775 9.40741 19.133C8.94444 19.7553 8.11111 20.1997 7.18519 20.1997H19.2222C20.7963 20.1997 22 19.0442 22 17.533V9.53304C22 6.59971 19.5926 4.19971 16.4444 4.19971ZM12.7407 13.2664C12.0926 13.2664 11.6296 12.8219 11.6296 12.1997C11.6296 11.5775 12.0926 11.133 12.7407 11.133H18.0185V14.4219C18.0185 15.0442 17.5556 15.4886 16.9074 15.4886C16.2593 15.4886 15.7963 15.0442 15.7963 14.4219V13.2664H12.7407Z"/>
</svg>
