<svg viewBox="0 0 24 24" xmlns="http://www.w3.org/2000/svg" data-title="MailOpenOutline" fill="currentColor" stroke="none">
  <path fill-rule="evenodd" clip-rule="evenodd" d="M17 4.19971H7C6.93333 4.19971 6.85833 4.19971 6.79167 4.2086C6.725 4.2086 6.65 4.19971 6.58333 4.19971C4.05 4.19971 2 6.38637 2 9.0886V17.533C2 19.0086 3.11667 20.1997 4.5 20.1997H19.5C20.8833 20.1997 22 19.0086 22 17.533V9.53304C22 6.59082 19.7583 4.19971 17 4.19971ZM9.16667 17.533C9.16667 17.8264 8.94167 18.0664 8.66667 18.0664H4.5C4.225 18.0664 4 17.8264 4 17.533V9.53304C4 7.84415 5.23333 6.47526 6.79167 6.35971C8.11667 6.47526 9.16667 7.6486 9.16667 9.0886V17.533ZM20 17.533C20 17.8264 19.775 18.0664 19.5 18.0664H11.1167C11.15 17.8975 11.1667 17.7197 11.1667 17.533V9.0886C11.1667 8.06637 10.875 7.11526 10.3667 6.33304H17C18.6583 6.33304 20 7.76415 20 9.53304V17.533Z"/>
  <path fill-rule="evenodd" clip-rule="evenodd" d="M5.33333 8.46637C4.78333 8.46637 4.33333 8.94637 4.33333 9.53304 4.33333 10.1197 4.78333 10.5997 5.33333 10.5997H7.83333C8.38333 10.5997 8.83333 10.1197 8.83333 9.53304 8.83333 8.94637 8.38333 8.46637 7.83333 8.46637H5.33333ZM12.6667 12.1997C12.6667 12.7864 13.1167 13.2664 13.6667 13.2664H16.4167V14.4219C16.4167 15.0086 16.8667 15.4886 17.4167 15.4886 17.9667 15.4886 18.4167 15.0086 18.4167 14.4219V11.133H13.6667C13.1167 11.133 12.6667 11.613 12.6667 12.1997Z"/>
</svg>
