<svg viewBox="0 0 24 24" xmlns="http://www.w3.org/2000/svg" data-title="Material" fill="currentColor" stroke="none">
  <path fill-rule="evenodd" clip-rule="evenodd" d="M14.5039 5.19995C15.2529 5.20205 15.8626 5.83345 15.8647 6.60765L15.8626 9.26625L18.6234 9.26835C18.7235 9.26835 18.8187 9.30825 18.8901 9.38245C18.9615 9.45595 19.0007 9.55535 19 9.65825V18.8101C19 19.0229 18.8313 19.1979 18.6234 19.1993L7.3415 19.2C6.6982 19.1993 6.1109 18.9277 5.6867 18.4881C5.2632 18.0506 5.0021 17.4444 5 16.7766V7.62545C5 6.28915 6.0507 5.20205 7.3436 5.19995H14.5039ZM16.6788 10.0482H15.8647L15.8633 15.7574C15.8633 16.1326 15.7212 16.4896 15.4643 16.7549C15.2088 17.0202 14.8658 17.1651 14.5025 17.1651H7.3422C7.2421 17.1651 7.1462 17.1245 7.0755 17.051C7.0041 16.9768 6.9656 16.8781 6.9656 16.7745V15.1778C6.6856 15.2499 6.4294 15.3976 6.2201 15.6139C5.9198 15.9247 5.75599 16.3363 5.75599 16.7745C5.7539 17.6817 6.4672 18.4202 7.3436 18.4181H16.6767V18.0275C16.6788 17.8126 16.8482 17.6383 17.054 17.6383C17.264 17.6383 17.4327 17.8126 17.4327 18.0296V18.4195L18.2468 18.4202V10.0489H17.4327V10.4388C17.4327 10.6558 17.2619 10.8287 17.0554 10.8287C16.8461 10.8287 16.6774 10.6537 16.6788 10.4388V10.0482ZM17.0552 14.6885C17.2617 14.6885 17.4304 14.8635 17.4318 15.0791V16.3363C17.4304 16.5526 17.2617 16.7269 17.0552 16.7269C16.8452 16.7269 16.6765 16.5526 16.6786 16.337L16.6765 15.0805C16.6765 14.8635 16.8452 14.6885 17.0552 14.6885ZM14.5039 15.1323H7.7202L7.7188 16.3853H14.5025C14.6663 16.3853 14.8175 16.3209 14.9316 16.2026C15.0471 16.0836 15.1094 15.9261 15.1094 15.7574C15.1073 15.4137 14.8392 15.1323 14.5039 15.1323ZM14.5025 5.96015C14.3408 5.97594 14.0935 5.97945 13.7278 5.98023L7.3436 5.98045C6.4672 5.98255 5.7553 6.71825 5.7539 7.62545L5.7553 14.9979C6.1893 14.5828 6.7472 14.3504 7.3429 14.3518L7.78972 14.3513C7.82945 14.3513 7.87148 14.3513 7.91567 14.3513L11.3433 14.3513C11.4198 14.3513 11.496 14.3513 11.5719 14.3513L14.5039 14.3518C14.7216 14.3518 14.9253 14.4057 15.1087 14.4988V6.60625C15.1073 6.26185 14.8364 5.98255 14.5025 5.98255V5.96015ZM17.0539 11.7394C17.2639 11.7394 17.4326 11.9137 17.4326 12.1314L17.4312 13.3879C17.4326 13.6028 17.2639 13.7778 17.0539 13.7778C16.8481 13.7778 16.6787 13.6028 16.6766 13.3879V12.13C16.6787 11.9144 16.8474 11.7394 17.0539 11.7394Z"/>
</svg>
