<svg viewBox="0 0 24 24" xmlns="http://www.w3.org/2000/svg" data-title="Material" fill="currentColor" stroke="none">
  <path fill-rule="evenodd" d="m14.5,5c.75,0,1.36.63,1.36,1.41v2.66s2.76,0,2.76,0c.1,0,.2.04.27.11.07.07.11.17.11.28v9.15c0,.21-.17.39-.38.39H7.34c-.64,0-1.23-.27-1.65-.71-.42-.44-.68-1.04-.69-1.71V7.43c0-1.34,1.05-2.42,2.34-2.43h7.16Zm2.17,4.85h-.81v5.71c0,.38-.14.73-.4,1-.26.27-.6.41-.96.41h-7.16c-.1,0-.2-.04-.27-.11-.07-.07-.11-.17-.11-.28v-1.6c-.28.07-.54.22-.75.44-.3.31-.46.72-.46,1.16,0,.91.71,1.65,1.59,1.64h9.33v-.39c0-.21.17-.39.38-.39s.38.17.38.39v.39h.81s0-8.37,0-8.37h-.81v.39c0,.22-.17.39-.38.39s-.38-.18-.38-.39v-.39Zm.38,4.64c.21,0,.38.17.38.39v1.26c0,.22-.17.39-.38.39s-.38-.17-.38-.39v-1.26c0-.22.17-.39.38-.39Zm-2.55.44h-6.78v1.25s6.78,0,6.78,0c.16,0,.32-.06.43-.18.12-.12.18-.28.18-.45,0-.34-.27-.63-.61-.63Zm0-9.17c-.16.02-.41.02-.77.02h-6.38c-.88,0-1.59.74-1.59,1.65v7.37c.44-.42.99-.65,1.59-.65h.45s.08,0,.13,0h6.59c.22,0,.42.05.6.15v-7.89c0-.34-.27-.62-.61-.62v-.02Zm2.55,5.78c.21,0,.38.17.38.39v1.26c0,.21-.17.39-.38.39s-.38-.17-.38-.39v-1.26c0-.22.17-.39.38-.39Z"/>
</svg>
