<svg viewBox="0 0 24 24" xmlns="http://www.w3.org/2000/svg" data-title="MegaphoneMuteFill" fill="currentColor" stroke="none">
  <path fill-rule="evenodd" clip-rule="evenodd" d="M22 4.63371C21.9998 4.37339 21.9339 4.11715 21.8083 3.88801C21.6908 3.65543 21.5161 3.45547 21.3 3.30626C21.083 3.15889 20.8353 3.06088 20.575 3.01943C20.3123 2.97955 20.0437 3.00204 19.7916 3.085L3.5833 8.67343C3.12891 8.82991 2.73171 9.115 2.44164 9.49284C2.1564 9.88499 2.0021 10.3546 2 10.8367V12.3608C2.01608 12.828 2.17588 13.2795 2.45832 13.6555C2.74144 14.0332 3.13333 14.3187 3.5833 14.4749L5.46664 15.1222V16.6381C5.46977 17.5331 5.73207 18.4087 6.22282 19.1624C6.71357 19.9161 7.41246 20.5168 8.23774 20.8942C9.06303 21.2716 9.98056 21.41 10.883 21.2934C11.7853 21.1767 12.6353 20.8097 13.3333 20.2354C13.964 19.7174 14.4441 19.0446 14.725 18.2852L19.7833 20.0223C20.0354 20.1053 20.3039 20.1278 20.5666 20.0879C20.827 20.0464 21.0746 19.9485 21.2916 19.8011C21.5078 19.6519 21.6825 19.4519 21.8 19.2193C21.9256 18.9902 21.9915 18.734 21.9917 18.4737V4.64191L22 4.63371ZM12.0833 18.7522C11.6705 19.0941 11.1669 19.3129 10.6319 19.3829C10.097 19.4528 9.55276 19.3711 9.0634 19.1473C8.57403 18.9235 8.15985 18.5669 7.8696 18.1195C7.57934 17.6721 7.42508 17.1525 7.42496 16.6218V15.8024L12.8916 17.6788C12.7153 18.0961 12.4378 18.4646 12.0833 18.7522Z"/>
</svg>
