<svg viewBox="0 0 24 24" xmlns="http://www.w3.org/2000/svg" data-title="MegaphoneOutline" fill="currentColor" stroke="none">
  <path fill-rule="evenodd" clip-rule="evenodd" d="M20.5548 3.01784C20.29 2.9794 20.0197 3.00329 19.7661 3.08755L3.5977 8.62093C3.13237 8.78095 2.72888 9.0789 2.44277 9.47378C2.15665 9.86866 2.00196 10.3411 2 10.826V12.3146C2 12.3258 2.00019 12.337 2.00058 12.3482C2.01702 12.821 2.1784 13.2778 2.46353 13.6588C2.74865 14.0398 3.14432 14.327 3.59839 14.4829L5.46151 15.1221L5.4615 16.6187L5.46152 16.6226C5.46636 17.826 5.93731 18.9823 6.77847 19.856C7.61962 20.7297 8.76771 21.2551 9.9889 21.3253C11.2101 21.3954 12.4125 21.005 13.3514 20.2335C13.9818 19.7155 14.4615 19.0518 14.7532 18.3099L19.7568 20.0266L19.7661 20.0297C20.0197 20.1139 20.29 20.1378 20.5548 20.0994C20.8196 20.0609 21.0713 19.9612 21.2893 19.8085C21.5074 19.6558 21.6855 19.4543 21.809 19.2207C21.9325 18.9872 21.998 18.7281 22 18.4648L22 4.65971L21.9999 4.65242C21.998 4.38912 21.9325 4.13004 21.809 3.89646C21.6855 3.66287 21.5074 3.46144 21.2893 3.3087C21.0713 3.15597 20.8196 3.05628 20.5548 3.01784ZM12.8629 17.6614L7.46151 15.8083V16.6166C7.4648 17.3188 7.73978 17.9933 8.2306 18.5031C8.72183 19.0134 9.39231 19.3202 10.1055 19.3612C10.8187 19.4022 11.5209 19.1742 12.0692 18.7236C12.4199 18.4354 12.6908 18.0699 12.8629 17.6614ZM20 18.0263V5.09057L4.25711 10.4784C4.1823 10.5042 4.11743 10.5522 4.0714 10.6157C4.02552 10.679 4.00059 10.7547 4 10.8325V12.2925C4.00476 12.3646 4.03043 12.434 4.07408 12.4923C4.12007 12.5538 4.18387 12.6001 4.2571 12.6252L20 18.0263Z"/>
</svg>
