<svg viewBox="0 0 24 24" xmlns="http://www.w3.org/2000/svg" data-title="MegaphoneMuteOutline" fill="currentColor" stroke="none">
  <path fill-rule="evenodd" clip-rule="evenodd" d="M20.5548 3.01808C20.29 2.97964 20.0197 3.00353 19.7661 3.0878L3.5977 8.62118C3.13237 8.7812 2.72888 9.07915 2.44277 9.47402C2.15665 9.8689 2.00196 10.3413 2 10.8262V12.3148C2 12.326 2.00019 12.3372 2.00058 12.3484C2.01702 12.8212 2.1784 13.2781 2.46353 13.659C2.74865 14.04 3.14432 14.3273 3.59838 14.4831L5.46151 15.1223L5.4615 16.619L5.46152 16.6229C5.46636 17.8262 5.93731 18.9825 6.77847 19.8562C7.61962 20.7299 8.76771 21.2554 9.9889 21.3255C11.2101 21.3957 12.4125 21.0053 13.3514 20.2338C13.9818 19.7157 14.4615 19.052 14.7532 18.3101L19.7568 20.0268L19.7661 20.0299C20.0197 20.1142 20.29 20.1381 20.5548 20.0996C20.8196 20.0612 21.0713 19.9615 21.2893 19.8087C21.5074 19.656 21.6855 19.4546 21.809 19.221C21.9325 18.9874 21.998 18.7283 22 18.465L22 4.65995L21.9999 4.65267C21.998 4.38937 21.9325 4.13029 21.809 3.8967C21.6855 3.66311 21.5074 3.46168 21.2893 3.30895C21.0713 3.15621 20.8196 3.05653 20.5548 3.01808ZM12.8629 17.6616L7.46151 15.8085V16.6169C7.4648 17.319 7.73978 17.9935 8.2306 18.5034C8.72183 19.0136 9.39231 19.3205 10.1055 19.3614C10.8187 19.4024 11.5209 19.1744 12.0692 18.7239C12.4199 18.4356 12.6908 18.0702 12.8629 17.6616ZM20 18.0265V5.09082L4.25711 10.4786C4.1823 10.5045 4.11743 10.5524 4.0714 10.616C4.02552 10.6793 4.00059 10.755 4 10.8327V12.2928C4.00476 12.3649 4.03043 12.4342 4.07408 12.4926C4.12007 12.554 4.18387 12.6003 4.2571 12.6255L20 18.0265Z"/>
</svg>
