<svg viewBox="0 0 24 24" xmlns="http://www.w3.org/2000/svg" data-title="Memory" fill="currentColor" stroke="none">
  <path fill-rule="evenodd" clip-rule="evenodd" d="M17.6371 5.19995C17.8375 5.19995 18 5.36441 18 5.56728V19.8326C18 20.0355 17.8375 20.2 17.6371 20.2H6.36289C6.16247 20.2 6 20.0355 6 19.8326V8.55681C6 8.46911 6.031 8.38431 6.08739 8.31772L8.61944 5.32819C8.68839 5.2468 8.78902 5.19995 8.89494 5.19995H17.6371ZM17.2742 5.93462H9.06166L6.72578 8.69139V19.4653H17.2742V5.93462ZM16.1443 15.7C16.3407 15.7 16.5 15.8375 16.5 16.0071V18.3928C16.5 18.5624 16.3407 18.7 16.1443 18.7H7.85572C7.65926 18.7 7.5 18.5624 7.5 18.3928V16.0071C7.5 15.8375 7.65926 15.7 7.85572 15.7H16.1443ZM15.7886 16.3137H8.21143V18.085H15.7886V16.3137ZM10.875 6.69995C11.0591 6.69995 11.2122 6.82473 11.244 6.98929L11.25 7.05269V9.34721C11.25 9.54202 11.0821 9.69995 10.875 9.69995C10.6909 9.69995 10.5378 9.57517 10.506 9.41062L10.5 9.34721V7.05269C10.5 6.85788 10.6679 6.69995 10.875 6.69995ZM12.375 6.69995C12.5591 6.69995 12.7122 6.82473 12.744 6.98929L12.75 7.05269V9.34721C12.75 9.54202 12.5821 9.69995 12.375 9.69995C12.1909 9.69995 12.0378 9.57517 12.006 9.41062L12 9.34721V7.05269C12 6.85788 12.1679 6.69995 12.375 6.69995ZM13.875 6.69995C14.0591 6.69995 14.2122 6.82473 14.244 6.98929L14.25 7.05269V9.34721C14.25 9.54202 14.0821 9.69995 13.875 9.69995C13.6909 9.69995 13.5378 9.57517 13.506 9.41062L13.5 9.34721V7.05269C13.5 6.85788 13.6679 6.69995 13.875 6.69995ZM15.375 6.69995C15.5591 6.69995 15.7122 6.82473 15.744 6.98929L15.75 7.05269V9.34721C15.75 9.54202 15.5821 9.69995 15.375 9.69995C15.1909 9.69995 15.0378 9.57517 15.006 9.41062L15 9.34721V7.05269C15 6.85788 15.1679 6.69995 15.375 6.69995Z"/>
</svg>
