<svg viewBox="0 0 24 24" xmlns="http://www.w3.org/2000/svg" data-title="Metro" fill="currentColor" stroke="none">
  <path fill-rule="evenodd" clip-rule="evenodd" d="M11.9977 5.19995C15.3819 5.19995 17.9413 6.3467 17.9947 7.87445H17.9992L17.9996 7.91608L18 7.91945H17.9992V15.8185C17.9992 17.3162 16.7607 18.5342 15.2386 18.5342H14.9154L16.032 19.5497C16.186 19.69 16.1959 19.9277 16.0526 20.08C15.9779 20.1595 15.8758 20.2 15.7729 20.2C15.6806 20.2 15.5877 20.167 15.5145 20.1002L13.7927 18.5342H10.2073L8.48552 20.1002C8.41235 20.167 8.31936 20.2 8.22637 20.2C8.12424 20.2 8.0221 20.1595 7.94665 20.08C7.80412 19.9277 7.81326 19.69 7.96799 19.5497L9.08384 18.5342H8.76067C7.23857 18.5342 6 17.3162 6 15.8185V7.87445C6.05869 6.34595 8.61433 5.19995 11.9977 5.19995ZM17.237 12.3647H6.7622V15.8185C6.7622 16.903 7.6593 17.7842 8.76067 17.7842H15.2386C16.3399 17.7842 17.237 16.903 17.237 15.8185V12.3647ZM14.788 13.4983C15.5181 13.4983 16.1127 14.0833 16.1127 14.8018C16.1127 15.5203 15.5181 16.1053 14.788 16.1053C14.0578 16.1053 13.464 15.5203 13.464 14.8018C13.464 14.0833 14.0578 13.4983 14.788 13.4983ZM9.21143 13.4983C9.94162 13.4983 10.5361 14.0833 10.5361 14.8018C10.5361 15.5203 9.94162 16.1053 9.21143 16.1053C8.48125 16.1053 7.88674 15.5203 7.88674 14.8018C7.88674 14.0833 8.48125 13.4983 9.21143 13.4983ZM14.788 14.2483C14.4777 14.2483 14.2262 14.4966 14.2262 14.8018C14.2262 15.1071 14.4777 15.3553 14.788 15.3553C15.0982 15.3553 15.3505 15.1071 15.3505 14.8018C15.3505 14.4966 15.0982 14.2483 14.788 14.2483ZM9.21143 14.2483C8.90122 14.2483 8.64893 14.4966 8.64893 14.8018C8.64893 15.1071 8.90122 15.3553 9.21143 15.3553C9.52165 15.3553 9.77393 15.1071 9.77393 14.8018C9.77393 14.4966 9.52165 14.2483 9.21143 14.2483ZM17.237 8.62445H12.3811V11.614H17.237V8.62445ZM11.6181 8.62445H6.7622V11.614H11.6181V8.62445ZM11.9977 5.94995C8.9657 5.94995 6.84146 6.9542 6.76905 7.87445H17.2309C17.1593 6.95495 15.032 5.94995 11.9977 5.94995Z"/>
</svg>
