<svg viewBox="0 0 24 24" xmlns="http://www.w3.org/2000/svg" data-title="Mileage" fill="currentColor" stroke="none">
  <path fill-rule="evenodd" clip-rule="evenodd" d="M12.5 4.19995C17.1944 4.19995 21 8.00553 21 12.7C20.9988 13.935 20.7346 15.1084 20.2602 16.1671C20.2624 16.1772 20.2629 16.1885 20.2629 16.1998C20.2629 16.3284 20.1975 16.4423 20.097 16.5126C18.6982 19.29 15.822 21.1968 12.5 21.2C7.80558 21.2 4 17.3944 4 12.7C4 8.00553 7.80558 4.19995 12.5 4.19995ZM19.1479 16.5869H5.85205C7.18856 18.8678 9.6654 20.3996 12.5 20.3996C15.3346 20.3996 17.8114 18.8678 19.1479 16.5869ZM12.5 5.00033C8.24762 5.00033 4.80038 8.44757 4.80038 12.7C4.80038 13.8081 5.03447 14.8616 5.45591 15.8136L11.9035 15.8133L14.1468 12.8469C14.2756 12.6823 14.5072 12.6515 14.6722 12.7772C14.8365 12.9107 14.8666 13.1555 14.7397 13.327L12.8593 15.8133L19.5441 15.8136C19.9655 14.8616 20.1996 13.8081 20.1996 12.7C20.1952 8.4494 16.7506 5.00474 12.5 5.00033ZM8.25 9.99541C8.25 10.2088 8.07702 10.3818 7.86364 10.3818C7.67396 10.3818 7.51621 10.2451 7.4835 10.0649L7.47727 9.99541V8.44995C7.47727 8.23657 7.65025 8.06359 7.86364 8.06359C8.05331 8.06359 8.21106 8.20026 8.24378 8.3805L8.25 8.44995L8.24923 8.83554H12.1129L12.1136 8.44995C12.1136 8.23657 12.2866 8.06359 12.5 8.06359C12.6897 8.06359 12.8474 8.20026 12.8801 8.3805L12.8864 8.44995L12.8856 8.83554H16.7492L16.75 8.44995C16.75 8.23657 16.923 8.06359 17.1364 8.06359C17.326 8.06359 17.4838 8.20026 17.5165 8.3805L17.5227 8.44995V9.99541C17.5227 10.2088 17.3497 10.3818 17.1364 10.3818C16.9467 10.3818 16.7889 10.2451 16.7562 10.0649L16.75 9.99541L16.7492 9.60827H12.8856L12.8864 9.99541C12.8864 10.2088 12.7134 10.3818 12.5 10.3818C12.3103 10.3818 12.1526 10.2451 12.1199 10.0649L12.1136 9.99541L12.1129 9.60827H8.24923L8.25 9.99541Z"/>
</svg>
