<svg viewBox="0 0 24 24" xmlns="http://www.w3.org/2000/svg" data-title="MobileCheck" fill="currentColor" stroke="none">
  <path d="M9.89764 19.8585H6.66719C6.35243 19.8585 6.10393 19.6003 6.10393 19.2921V18.7257H9.88935C10.4692 18.7257 10.9413 18.2509 10.9413 17.6678C10.9413 17.0848 10.4692 16.61 9.88935 16.61H6.10393V7.35589H15.3066V14.4193C15.3066 15.0024 15.7787 15.4772 16.3585 15.4772C16.9384 15.4772 17.4105 15.0024 17.4105 14.4193V4.68211C17.4105 3.19945 16.2177 2 14.7433 2H6.66719C5.19278 2 4 3.19945 4 4.68211V19.2921C4 20.7748 5.19278 21.9742 6.66719 21.9742H9.89764C10.4775 21.9742 10.9496 21.4994 10.9496 20.9164C10.9496 20.3333 10.4775 19.8585 9.89764 19.8585ZM15.3066 5.24852H6.10393V4.68211C6.10393 4.36559 6.36071 4.1157 6.66719 4.1157H14.7433C15.0581 4.1157 15.3066 4.37392 15.3066 4.68211V5.24852Z"/>
  <path d="M19.5227 15.7354L19.3488 15.5605L19.3322 15.5855C18.9263 15.3356 18.3962 15.3856 18.04 15.7437L14.354 19.4504L13.1778 18.2676C12.7636 17.8511 12.101 17.8511 11.6951 18.2676C11.2892 18.684 11.2892 19.3504 11.6951 19.7586L13.6168 21.691C13.6665 21.741 13.7245 21.791 13.7825 21.8243C14.1883 22.0992 14.7433 22.0492 15.0995 21.691H15.1078V21.6827L19.5227 17.243C19.9369 16.8266 19.9369 16.1602 19.5227 15.7521V15.7354Z"/>
</svg>
