<svg viewBox="0 0 24 24" xmlns="http://www.w3.org/2000/svg" data-title="MoneyOutline" fill="currentColor" stroke="none">
  <path fill-rule="evenodd" clip-rule="evenodd" d="M9.20564 1.81197C11.2983 1.71058 13.3728 2.24481 15.156 3.34463C15.6263 3.63468 15.7722 4.25081 15.482 4.7208C15.1918 5.19079 14.5753 5.33666 14.105 5.04661C12.6599 4.15533 10.9778 3.72427 9.28183 3.81065C9.26487 3.81151 9.24789 3.81194 9.23091 3.81194C7.61418 3.81194 6.20135 4.10593 5.23013 4.53832C4.74324 4.75508 4.41117 4.98709 4.21437 5.19391C4.02225 5.39582 4.0012 5.52445 4.0012 5.5793C4.0012 5.63537 4.0246 5.78057 4.2602 6.01037C4.49891 6.2432 4.89443 6.49736 5.45936 6.73056C5.97012 6.9414 6.21315 7.52612 6.00219 8.03658C5.79122 8.54703 5.20614 8.78991 4.69538 8.57907C4.45517 8.47992 4.22254 8.37125 4.0012 8.25264V9.73027C4.0012 9.78634 4.0246 9.93154 4.2602 10.1613C4.49891 10.3942 4.89443 10.6483 5.45936 10.8815C5.97012 11.0924 6.21315 11.6771 6.00219 12.1875C5.79122 12.698 5.20614 12.9409 4.69538 12.73C4.45517 12.6309 4.22254 12.5222 4.0012 12.4036V13.8814C4.0012 13.9375 4.0246 14.0827 4.2602 14.3125C4.49891 14.5453 4.89443 14.7995 5.45936 15.0327C5.97012 15.2435 6.21315 15.8282 6.00219 16.3387C5.79122 16.8491 5.20614 17.092 4.69538 16.8812C3.98655 16.5886 3.34369 16.2132 2.86246 15.7438C2.37811 15.2714 2 14.6417 2 13.8814V5.5793C2 4.87312 2.32681 4.27533 2.76421 3.81567C3.19693 3.36092 3.77604 2.99622 4.4158 2.71139C5.69198 2.14324 7.38454 1.81498 9.20564 1.81197ZM9.7531 9.34257C9.56097 9.54434 9.53926 9.67366 9.53926 9.73037C9.53926 9.78708 9.56097 9.9164 9.7531 10.1182C9.95014 10.3251 10.2825 10.5569 10.7699 10.7734C11.7419 11.2052 13.155 11.4977 14.769 11.4977C16.3829 11.4977 17.796 11.2052 18.7681 10.7734C19.2554 10.5569 19.5878 10.3251 19.7848 10.1182C19.977 9.9164 19.9987 9.78708 19.9987 9.73037C19.9987 9.67366 19.977 9.54434 19.7848 9.34257C19.5878 9.13565 19.2554 8.90381 18.7681 8.68736C17.796 8.25558 16.3829 7.96301 14.769 7.96301C13.155 7.96301 11.7419 8.25558 10.7699 8.68736C10.2825 8.90381 9.95014 9.13565 9.7531 9.34257ZM21.9999 9.73037C21.9999 9.0229 21.6729 8.4242 21.2345 7.96381C20.801 7.50856 20.221 7.14409 19.5808 6.85974C18.298 6.28994 16.5959 5.96302 14.769 5.96302C12.942 5.96302 11.2399 6.28994 9.95709 6.85974C9.31694 7.14409 8.73694 7.50856 8.30344 7.96381C7.86503 8.4242 7.53806 9.0229 7.53806 9.73037L7.53813 18.0325C7.53813 18.7371 7.86267 19.3345 8.2992 19.7948C8.73089 20.2501 9.30895 20.6151 9.94821 20.9001C11.2292 21.4713 12.9319 21.7998 14.769 21.7998C16.6062 21.7998 18.3089 21.4713 19.5899 20.9001C20.2291 20.6151 20.8072 20.2501 21.2389 19.7948C21.6754 19.3345 21.9999 18.7371 21.9999 18.0324L21.9999 13.8938C21.9999 13.8897 21.9999 13.8856 21.9999 13.8814C21.9999 13.8787 21.9999 13.8759 21.9999 13.8732L21.9999 9.73037ZM19.9987 12.3989C19.863 12.4703 19.7234 12.5377 19.5808 12.601C18.298 13.1708 16.5959 13.4977 14.769 13.4977C12.942 13.4977 11.2399 13.1708 9.95709 12.601C9.81452 12.5377 9.67493 12.4704 9.53928 12.399L9.53929 13.8732C9.53932 13.8759 9.53933 13.8787 9.53933 13.8814C9.53933 13.9378 9.56091 14.0668 9.75173 14.2681C9.9474 14.4744 10.2779 14.7061 10.7636 14.9226C11.7324 15.3546 13.1449 15.6488 14.769 15.6488C16.3932 15.6488 17.8056 15.3546 18.7745 14.9226C19.2601 14.7061 19.5907 14.4744 19.7863 14.2681C19.9729 14.0713 19.9977 13.9436 19.9987 13.8853L19.9987 12.3989ZM19.9987 16.551C19.8659 16.6209 19.7294 16.6869 19.5899 16.7491C18.3089 17.3203 16.6062 17.6488 14.769 17.6488C12.9319 17.6488 11.2292 17.3203 9.94821 16.7491C9.8087 16.6869 9.67211 16.6209 9.53931 16.551L9.53933 18.0324C9.53933 18.0889 9.56091 18.2179 9.75173 18.4191C9.9474 18.6254 10.2779 18.8571 10.7636 19.0737C11.7324 19.5057 13.1449 19.7998 14.769 19.7998C16.3932 19.7998 17.8056 19.5057 18.7745 19.0737C19.2601 18.8571 19.5907 18.6254 19.7863 18.4191C19.9772 18.2179 19.9987 18.0889 19.9987 18.0325L19.9987 16.551Z"/>
</svg>
