<svg viewBox="0 0 24 24" xmlns="http://www.w3.org/2000/svg" data-title="MoneyFill" fill="currentColor" stroke="none">
  <path d="M21.0244 11.723C20.7805 11.9668 20.4553 12.2106 20.0488 12.3731 18.6667 13.1045 16.7155 13.5108 14.7643 13.5108 12.8131 13.5108 10.8619 13.1045 9.47976 12.3731 9.07326 12.2106 8.74806 11.9668 8.50415 11.723 7.93505 11.2354 7.52855 10.504 7.52855 9.77262V14.0797C7.77245 14.2422 8.09765 14.4047 8.50415 14.6485 8.82936 14.8111 9.15456 14.8923 9.47976 15.0549 10.9432 15.6237 12.8944 16.0301 14.7643 16.0301 16.6342 16.0301 18.5854 15.6237 20.0488 15.0549 20.374 14.8923 20.6992 14.8111 21.0244 14.6485 21.4309 14.486 21.7562 14.2422 22.0001 14.0797V9.69136C22.0001 10.504 21.5936 11.2354 21.0244 11.723ZM20.0488 17.0864C18.1789 17.6553 16.0651 17.9803 14.7643 17.9803 13.3009 17.9803 11.3497 17.6553 9.47976 17.0864 9.15456 16.9239 8.82936 16.8426 8.50415 16.6801 8.17895 16.5176 7.85375 16.4363 7.52855 16.2738V18.0616C7.52855 20.4996 11.1871 21.7998 14.7643 21.7998 18.3415 21.7998 22.0001 20.4996 22.0001 18.0616V16.355C21.6748 16.5176 21.3496 16.6801 21.0244 16.7614 20.6992 16.9239 20.374 17.0052 20.0488 17.0864Z"/>
  <path d="M9.47923 9.77248C9.47923 10.4226 11.5117 11.5603 14.7638 11.5603C18.0158 11.5603 20.0483 10.4226 20.0483 9.77248C20.0483 9.12236 18.0158 7.98464 14.7638 7.98464C11.5117 7.98464 9.47923 9.12236 9.47923 9.77248Z"/>
  <path d="M4.68292 8.5535C4.84552 8.63477 4.92682 8.63477 5.08942 8.63477C5.49592 8.63477 5.82113 8.39097 5.98373 8.06591C6.22763 7.57832 5.98373 7.00946 5.41462 6.76567C4.43902 6.35934 3.95121 5.87175 3.95121 5.62795C3.95121 4.97783 5.98373 3.84012 9.23575 3.84012C10.9431 3.75885 12.6504 4.16518 14.1138 5.05909C14.6016 5.30289 15.1707 5.22163 15.4959 4.73403C15.7398 4.24644 15.6585 3.67758 15.1707 3.35252C13.3821 2.21481 11.3496 1.72722 9.23575 1.80848C5.08942 1.80848 2 3.43379 2 5.54669V13.8357C2 14.5671 2.3252 15.8674 4.68292 16.8426C4.76422 16.9238 4.92682 16.9238 5.08942 16.9238C5.49592 16.9238 5.82113 16.68 5.98373 16.355C6.14633 15.8674 5.90243 15.2985 5.41462 15.0547C4.43902 14.6484 3.95121 14.1608 3.95121 13.8357V12.2917C4.19512 12.373 4.43902 12.5355 4.68292 12.6168C4.76422 12.698 4.92682 12.698 5.08942 12.698C5.49592 12.698 5.82113 12.4542 5.98373 12.1292C6.22763 11.6416 5.98373 11.0727 5.41462 10.8289C4.43902 10.4226 3.95121 9.93501 3.95121 9.60995V8.22844C4.19512 8.30971 4.43902 8.47224 4.68292 8.5535Z"/>
</svg>
