<svg viewBox="0 0 24 24" xmlns="http://www.w3.org/2000/svg" data-title="MoneyOutline" fill="currentColor" stroke="none">
  <path fill-rule="evenodd" d="m9.21,2.01c2.09-.1,4.17.43,5.95,1.53.47.29.62.91.33,1.38-.29.47-.91.62-1.38.33-1.45-.89-3.13-1.32-4.82-1.24-.02,0-.03,0-.05,0-1.62,0-3.03.29-4,.73-.49.22-.82.45-1.02.66-.19.2-.21.33-.21.39s.02.2.26.43c.24.23.63.49,1.2.72.51.21.75.8.54,1.31-.21.51-.8.75-1.31.54-.24-.1-.47-.21-.69-.33v1.48c0,.06.02.2.26.43.24.23.63.49,1.2.72.51.21.75.8.54,1.31-.21.51-.8.75-1.31.54-.24-.1-.47-.21-.69-.33v1.48c0,.06.02.2.26.43.24.23.63.49,1.2.72.51.21.75.8.54,1.31-.21.51-.8.75-1.31.54-.71-.29-1.35-.67-1.83-1.14-.48-.47-.86-1.1-.86-1.86V5.78c0-.71.33-1.3.76-1.76.43-.45,1.01-.82,1.65-1.1,1.28-.57,2.97-.9,4.79-.9Zm.55,7.53c-.19.2-.21.33-.21.39s.02.19.21.39c.2.21.53.44,1.02.66.97.43,2.39.72,4,.72s3.03-.29,4-.72c.49-.22.82-.45,1.02-.66.19-.2.21-.33.21-.39s-.02-.19-.21-.39c-.2-.21-.53-.44-1.02-.66-.97-.43-2.39-.72-4-.72s-3.03.29-4,.72c-.49.22-.82.45-1.02.66Zm12.25.39c0-.71-.33-1.31-.77-1.77-.43-.46-1.01-.82-1.65-1.1-1.28-.57-2.98-.9-4.81-.9s-3.53.33-4.81.9c-.64.28-1.22.65-1.65,1.1-.44.46-.77,1.06-.77,1.77v8.3c0,.7.32,1.3.76,1.76.43.46,1.01.82,1.65,1.11,1.28.57,2.98.9,4.82.9s3.54-.33,4.82-.9c.64-.28,1.22-.65,1.65-1.11.44-.46.76-1.06.76-1.76v-4.14h0v-4.16Zm-2,2.67c-.14.07-.28.14-.42.2-1.28.57-2.98.9-4.81.9s-3.53-.33-4.81-.9c-.14-.06-.28-.13-.42-.2v1.47s0,0,0,0c0,.06.02.19.21.39.2.21.53.44,1.01.65.97.43,2.38.73,4.01.73s3.04-.29,4.01-.73c.49-.22.82-.45,1.01-.65.19-.2.21-.32.21-.38v-1.49Zm0,4.15c-.13.07-.27.14-.41.2-1.28.57-2.98.9-4.82.9s-3.54-.33-4.82-.9c-.14-.06-.28-.13-.41-.2v1.48c0,.06.02.19.21.39.2.21.53.44,1.01.65.97.43,2.38.73,4.01.73s3.04-.29,4.01-.73c.49-.22.82-.45,1.01-.65.19-.2.21-.33.21-.39v-1.48Z"/>
</svg>
