<svg viewBox="0 0 24 24" xmlns="http://www.w3.org/2000/svg" data-title="MoveUp" fill="currentColor" stroke="none">
  <path fill-rule="evenodd" clip-rule="evenodd" d="M4.85005 5.37923C5.02729 5.19617 5.29234 5.19617 5.46957 5.37923L7.94766 7.85178C8.21352 8.21871 7.94766 8.67677 7.594 8.67677H6.00048V18.842C6.00048 19.3008 5.64681 19.7581 5.1151 19.7581C4.58419 19.7581 4.23053 19.3008 4.23053 18.842V8.67677H2.63701C2.28334 8.67677 2.10611 8.12677 2.37115 7.85178L4.85005 5.37923ZM11.3119 11.3323H9.54112C9.01021 11.3323 8.65655 10.875 8.65655 10.4162C8.65655 9.95893 9.01021 9.50087 9.54112 9.50087H11.3119C11.8428 9.50087 12.1973 9.95893 12.1973 10.4162C12.1973 10.875 11.8428 11.3323 11.3119 11.3323ZM16.6222 15.5456H9.36435C9.00987 15.5456 8.65621 15.1787 8.65621 14.6295C8.65621 14.0803 8.92207 13.7142 9.36435 13.7142H16.6222C17.0653 13.7142 17.3303 14.0803 17.3303 14.6295C17.3303 15.1787 17.0653 15.5456 16.6222 15.5456ZM21.048 17.9263H9.36403C8.92174 17.9263 8.65588 18.3844 8.65588 18.8424C8.65588 19.3916 9.01036 19.7577 9.36403 19.7577H20.9593C21.4024 19.7577 21.7561 19.3916 21.7561 18.8424C21.7561 18.3844 21.4024 17.9263 21.048 17.9263Z"/>
  <path fill-rule="evenodd" clip-rule="evenodd" d="M5.64389 5.21L8.13436 7.6949L8.14572 7.71058C8.51618 8.22187 8.16559 8.9187 7.594 8.9187H6.24438V18.842C6.24438 19.4085 5.80628 20 5.1151 20C4.42458 20 3.98662 19.4083 3.98662 18.842V8.9187H2.63701C2.31491 8.9187 2.11365 8.67043 2.03974 8.44106C1.96466 8.20807 1.98525 7.90206 2.19485 7.68459L2.19817 7.68115L4.67574 5.20999C4.94849 4.93 5.37115 4.93 5.64389 5.21ZM5.29365 5.54681C5.2124 5.46288 5.10722 5.46288 5.02597 5.54681L5.02302 5.54985L2.54616 8.02031C2.49164 8.07815 2.46898 8.18384 2.50439 8.29373C2.54125 8.40811 2.60544 8.43483 2.63701 8.43483H4.47444V18.842C4.47444 19.1933 4.74381 19.5161 5.1151 19.5161C5.48734 19.5161 5.75657 19.1932 5.75657 18.842V8.43483H7.594C7.72687 8.43483 7.90325 8.22469 7.75935 8.00704L5.29365 5.54681ZM8.41264 10.4162C8.41264 9.85143 8.8506 9.25894 9.54112 9.25894H11.3119C12.0021 9.25894 12.4412 9.85112 12.4412 10.4162C12.4412 10.9828 12.0021 11.5742 11.3119 11.5742H9.54112C8.8506 11.5742 8.41264 10.9825 8.41264 10.4162ZM9.54112 9.7428C9.16983 9.7428 8.90046 10.0664 8.90046 10.4162C8.90046 10.7676 9.16983 11.0904 9.54112 11.0904H11.3119C11.6834 11.0904 11.9533 10.7672 11.9533 10.4162C11.9533 10.0667 11.6834 9.7428 11.3119 9.7428H9.54112ZM8.64967 13.8203C8.81784 13.599 9.06722 13.4723 9.36435 13.4723H16.6222C16.9196 13.4723 17.1691 13.5989 17.3372 13.8203C17.4998 14.0345 17.5742 14.3197 17.5742 14.6295C17.5742 14.9393 17.4998 15.2247 17.3373 15.439C17.1693 15.6605 16.9198 15.7876 16.6222 15.7876H9.36435C8.83235 15.7876 8.4123 15.2655 8.4123 14.6295C8.4123 14.3195 8.48697 14.0343 8.64967 13.8203ZM9.03918 14.1116C8.95837 14.2179 8.90012 14.3903 8.90012 14.6295C8.90012 15.0919 9.1874 15.3037 9.36435 15.3037H16.6222C16.7677 15.3037 16.8723 15.2473 16.9475 15.1481C17.0283 15.0416 17.0864 14.8689 17.0864 14.6295C17.0864 14.3901 17.0283 14.2177 16.9476 14.1115C16.8725 14.0125 16.7678 13.9561 16.6222 13.9561H9.36435C9.2192 13.9561 9.11451 14.0125 9.03918 14.1116ZM9.04363 18.3517C8.95462 18.4773 8.89979 18.6561 8.89979 18.8424C8.89979 19.3044 9.18748 19.5158 9.36403 19.5158H20.9593C21.2419 19.5158 21.5122 19.2852 21.5122 18.8424C21.5122 18.6721 21.445 18.4939 21.3414 18.3598C21.2336 18.2203 21.1202 18.1683 21.048 18.1683H9.36403C9.23853 18.1683 9.12991 18.23 9.04363 18.3517ZM8.64457 18.0735C8.80178 17.8517 9.04723 17.6844 9.36403 17.6844H21.048C21.3302 17.6844 21.5708 17.8613 21.7285 18.0654C21.8904 18.2749 22 18.5548 22 18.8424C22 19.4981 21.563 19.9997 20.9593 19.9997H9.36403C8.83325 19.9997 8.41198 19.4789 8.41198 18.8424C8.41198 18.5707 8.49008 18.2914 8.64457 18.0735Z"/>
</svg>
