<svg viewBox="0 0 24 24" xmlns="http://www.w3.org/2000/svg" data-title="Multimedia" fill="currentColor" stroke="none">
  <path fill-rule="evenodd" d="m6.01,1.06C6.65.39,7.53,0,8.46,0h7.08C16.46,0,17.34.38,17.99,1.06c.65.7,1.02,1.61,1.01,2.57v16.73c0,.48-.09.95-.26,1.39-.17.44-.43.84-.75,1.18-.32.34-.7.6-1.12.79-.42.18-.87.28-1.32.28h-7.09c-.93,0-1.81-.39-2.44-1.06-.65-.7-1.02-1.61-1.01-2.57V3.63c0-.96.36-1.89,1.01-2.57Zm1.38,2.11c-.06.15-.09.3-.09.46v13h9.39V3.63c0-.16-.03-.32-.09-.46-.06-.15-.14-.28-.25-.39-.11-.11-.23-.2-.37-.26-.14-.06-.29-.09-.44-.09h-1.16c0,.33-.12.64-.34.87-.22.23-.51.36-.81.36h-2.45c-.31,0-.6-.13-.81-.36-.22-.23-.34-.54-.34-.86h0s-1.16,0-1.16,0c-.15,0-.3.03-.44.09s-.27.15-.38.26c-.11.11-.19.25-.25.39Zm-.09,17.2v-1.31h9.39v1.31c0,.32-.12.63-.34.86-.22.23-.51.35-.82.35h-7.08c-.15,0-.3-.03-.44-.09s-.27-.15-.38-.26c-.11-.11-.19-.25-.25-.39-.06-.15-.09-.3-.09-.46Zm5.22.41c.3-.28.32-.76.04-1.06s-.76-.32-1.06-.04c-.01.01-.03.02-.04.04-.28.3-.27.78.04,1.06.29.27.73.27,1.02,0Z"/>
</svg>
