<svg viewBox="0 0 24 24" xmlns="http://www.w3.org/2000/svg" data-title="MultimediaSystem" fill="currentColor" stroke="none">
  <path d="m17.91,18.54H6.09c-1.15,0-2.09-.93-2.09-2.09V7.54c0-1.16.93-2.09,2.09-2.09h11.83c1.15,0,2.09.93,2.09,2.09v8.92c0,1.15-.93,2.09-2.09,2.09ZM6.09,6.32c-.68,0-1.23.55-1.23,1.23v8.92c0,.68.55,1.23,1.23,1.23h11.83c.68,0,1.23-.55,1.23-1.23V7.54c0-.68-.55-1.23-1.23-1.23H6.09Z"/>
  <path d="m15.99,14.8v.67h-4.06c-.07-.19-.19-.36-.36-.48-.17-.12-.37-.18-.58-.18s-.41.06-.58.18c-.17.12-.3.29-.36.48h-2.06v-.67h-.67v2h.67v-.67h2.06c.07.19.19.36.36.48.17.12.37.18.58.18s.41-.06.58-.18c.17-.12.3-.29.36-.48h4.06v.67h.67v-2h-.67Zm-5-5.5v3l2.67-1.5-2.67-1.5Z"/>
  <path d="m11.99,14.13c-.66,0-1.3-.2-1.85-.56-.55-.37-.98-.89-1.23-1.5s-.32-1.28-.19-1.93c.13-.65.45-1.24.91-1.71.47-.47,1.06-.78,1.71-.91.65-.13,1.32-.06,1.93.19.61.25,1.13.68,1.5,1.23.37.55.56,1.19.56,1.85,0,.88-.35,1.73-.98,2.36s-1.47.98-2.36.98Zm0-6c-.53,0-1.04.16-1.48.45-.44.29-.78.71-.98,1.2-.2.49-.25,1.02-.15,1.54.1.52.36.99.73,1.37.37.37.85.63,1.37.73.52.1,1.05.05,1.54-.15.49-.2.9-.54,1.2-.98.29-.44.45-.95.45-1.48,0-.71-.28-1.38-.78-1.88-.5-.5-1.18-.78-1.88-.78Z"/>
</svg>
