<svg viewBox="0 0 24 24" xmlns="http://www.w3.org/2000/svg" data-title="NoPhoto" fill="currentColor" stroke="none">
  <path d="m3,9.97c.5,0,1-.41,1-1v-4.56c0-.25.17-.41.41-.41h5.81c.5,0,1-.41,1-1,0-.5-.41-1-1-1h-5.81c-1.33.08-2.41,1.16-2.41,2.41v4.56c0,.58.41,1,1,1ZM19.59,2.08h-5.89c-.5,0-1,.41-1,1,0,.5.41,1,1,1h5.89c.25,0,.41.17.41.41v4.56c0,.5.41,1,1,1,.5,0,1-.41,1-1v-4.65c-.08-1.24-1.16-2.32-2.41-2.32Zm1.33,9.46c-.5,0-1,.41-1,1v2.24c-.83-.17-1.66-.25-2.49-.25-1.41,0-2.82.25-4.15.75-.33-.33-.66-.66-1.08-1-2.07-1.66-4.81-2.66-8.3-1.74,0-.5-.41-1-1-1-.5,0-.91.41-.91,1v7.14c0,1.33,1.08,2.32,2.32,2.32h5.81c.5,0,1-.41,1-1,0-.5-.41-1-1-1h-5.81c-.25,0-.41-.17-.41-.42v-5.89c.33,0,.75-.08,1.08-.08.75,0,1.49.08,2.24.25,3.32.83,5.73,3.15,6.72,6.14h-.33c-.5,0-1,.41-1,1,0,.5.41,1,1,1h5.98c1.33,0,2.32-1.08,2.32-2.32v-7.14c0-.58-.41-1-1-1Zm-.91,8.13c0,.25-.17.41-.41.41h-3.49c-.33-1.16-.75-2.24-1.41-3.15.91-.25,1.91-.41,2.82-.41.83,0,1.66.08,2.49.33v2.82Z"/>
  <path d="m15.03,12.29c1.91,0,3.4-1.49,3.4-3.4s-1.49-3.4-3.4-3.4-3.4,1.49-3.4,3.4c.08,1.91,1.58,3.4,3.4,3.4Zm0-4.81c.83,0,1.41.66,1.41,1.49s-.66,1.41-1.41,1.41-1.41-.66-1.41-1.49.66-1.41,1.41-1.41Z"/>
</svg>
