<svg viewBox="0 0 24 24" xmlns="http://www.w3.org/2000/svg" data-title="NoPhoto" fill="currentColor" stroke="none">
  <path d="M2.99585 10.5667C3.49378 10.5667 3.9917 10.1517 3.9917 9.57081V5.00649C3.9917 4.75753 4.15768 4.59155 4.40664 4.59155H10.2158C10.7137 4.59155 11.2116 4.17662 11.2116 3.5957 11.2116 3.09778 10.7967 2.59985 10.2158 2.59985H4.40664C3.07884 2.68284 2 3.76168 2 5.00649V9.57081C2 10.1517 2.41494 10.5667 2.99585 10.5667ZM19.5934 2.68284H13.7012C13.2033 2.68284 12.7054 3.09778 12.7054 3.67869 12.7054 4.17662 13.1203 4.67454 13.7012 4.67454H19.5934C19.8423 4.67454 20.0083 4.84052 20.0083 5.08948V9.6538C20.0083 10.1517 20.4232 10.6496 21.0041 10.6496 21.5021 10.6496 22 10.2347 22 9.6538V5.00649C21.917 3.76168 20.8382 2.68284 19.5934 2.68284ZM20.9212 12.1434C20.4232 12.1434 19.9253 12.5584 19.9253 13.1393V15.3799C19.0954 15.214 18.2656 15.131 17.4357 15.131 16.0249 15.131 14.6141 15.3799 13.2863 15.8779 12.9544 15.5459 12.6224 15.214 12.2075 14.882 10.1328 13.2223 7.39419 12.2264 3.90871 13.1393 3.90871 12.6413 3.49378 12.1434 2.91286 12.1434 2.41494 12.1434 2 12.5584 2 13.1393V20.2762C2 21.604 3.07884 22.5999 4.32365 22.5999H10.1328C10.6307 22.5999 11.1286 22.1849 11.1286 21.604 11.1286 21.1061 10.7137 20.6082 10.1328 20.6082H4.32365C4.07469 20.6082 3.90871 20.4422 3.90871 20.1932V14.3011C4.24066 14.3011 4.6556 14.2181 4.98755 14.2181 5.73444 14.2181 6.48133 14.3011 7.22822 14.4671 10.5477 15.2969 12.9544 17.6206 13.9502 20.6082H13.6183C13.1203 20.6082 12.6224 21.0231 12.6224 21.604 12.6224 22.1019 13.0373 22.5999 13.6183 22.5999H19.5934C20.9212 22.5999 21.917 21.521 21.917 20.2762V13.1393C21.917 12.5584 21.5021 12.1434 20.9212 12.1434ZM20.0083 20.2762C20.0083 20.5252 19.8423 20.6911 19.5934 20.6911H16.1079C15.7759 19.5293 15.361 18.4505 14.6971 17.5376 15.61 17.2887 16.6058 17.1227 17.5187 17.1227 18.3485 17.1227 19.1784 17.2057 20.0083 17.4546V20.2762Z"/>
  <path d="M15.029 12.8903C16.9378 12.8903 18.4315 11.3965 18.4315 9.48782C18.4315 7.57911 16.9378 6.08533 15.029 6.08533C13.1203 6.08533 11.6266 7.57911 11.6266 9.48782C11.7095 11.3965 13.2033 12.8903 15.029 12.8903ZM15.029 8.07703C15.8589 8.07703 16.4398 8.74093 16.4398 9.57081C16.4398 10.4007 15.7759 10.9816 15.029 10.9816C14.2822 10.9816 13.6183 10.3177 13.6183 9.48782C13.6183 8.65795 14.2822 8.07703 15.029 8.07703Z"/>
</svg>
