<svg viewBox="0 0 24 24" xmlns="http://www.w3.org/2000/svg" data-title="OfferType" fill="currentColor" stroke="none">
  <path fill-rule="evenodd" d="m11.96,11.25c.79,0,1.19.39,1.67,1.36l.17.36c.22.46.37.71.56.91.17.18.37.32.7.49l.31.16s.04.02.06.03c1,.52,1.41.92,1.41,1.79,0,2.61-1.86,4.07-4.68,4.13h-.2c-2.92,0-4.88-1.46-4.88-4.13,0-.81.36-1.22,1.25-1.7l.39-.2c.41-.22.65-.37.84-.57.15-.16.27-.34.43-.63l.24-.49c.52-1.08.91-1.51,1.74-1.51Zm0,.77c-.46,0-.69.25-1.09,1.09l-.1.21c-.25.52-.44.83-.7,1.11-.23.24-.48.42-.86.62l-.41.22c-.76.4-.99.63-.99,1.09,0,2.12,1.5,3.3,3.95,3.36h.2c2.56,0,4.14-1.18,4.14-3.36,0-.44-.2-.67-.86-1.03l-.36-.19c-.49-.25-.78-.44-1.04-.72-.23-.24-.4-.51-.61-.94l-.18-.37c-.4-.84-.63-1.1-1.09-1.1Zm6.22-2.41c.61,0,1.01.27,1.19.78.11.29.13.56.14,1.14v.75c-.04,1.3-1.04,2.36-2.3,2.4-1.22,0-1.69-.93-1.69-2.57.16-1.42,1.3-2.49,2.67-2.49Zm-12.34,0c1.36,0,2.51,1.07,2.67,2.54,0,1.6-.47,2.53-1.7,2.53-1.3-.04-2.32-1.17-2.29-2.53v-.75c0-.49.04-.73.13-1,.18-.51.59-.78,1.19-.78Zm0,.77h-.1c-.24.02-.35.11-.41.28-.07.18-.09.4-.09.89v.73c.04.89.72,1.6,1.57,1.63.69,0,.96-.53.96-1.72-.12-1.03-.95-1.81-1.94-1.81Zm12.34,0h-.13c-.93.07-1.7.82-1.81,1.77,0,1.23.27,1.76.95,1.76.9-.03,1.6-.81,1.58-1.76v-.6c0-.49-.02-.7-.09-.89-.07-.2-.19-.28-.51-.28ZM9.59,3.5c1.29,0,2.26,1.53,2.26,3.37s-.97,3.37-2.26,3.37c-1.43,0-2.26-.75-2.26-2.44,0-1.58,1.5-4.29,2.26-4.29Zm4.82,0c.76,0,2.26,2.71,2.26,4.29,0,1.7-.83,2.44-2.26,2.44-1.29,0-2.26-1.53-2.26-3.37s.98-3.37,2.26-3.37Zm-4.82.77c-.25,0-1.52,2.31-1.52,3.52s.48,1.68,1.52,1.68c.81,0,1.53-1.13,1.53-2.6s-.73-2.6-1.53-2.6Zm4.82,0c-.81,0-1.53,1.14-1.53,2.6s.72,2.6,1.53,2.6c1.05,0,1.52-.43,1.52-1.68s-1.28-3.52-1.52-3.52Z"/>
</svg>
