<svg viewBox="0 0 24 24" xmlns="http://www.w3.org/2000/svg" data-title="Offer" fill="currentColor" stroke="none">
  <path fill-rule="evenodd" d="m11.2,14.35c.19.14.4.28.61.42,1.04.69,2.75.76,3.69.76h.31s.04-.01.04-.01c.05,0,.1,0,.15,0h-.05c.36,0,1.28-.9,1.91-1.72.07-.08.16-.13.26-.14.46-.05.91.16,1.19.56.24.31.24.76,0,1.08l-2.86,3.89c-.39.52-.98.82-1.6.82h-3.63c-.38,0-.75-.12-1.04-.37-1.64-1.39-5.31-1.53-5.35-1.53-.19,0-.34-.18-.34-.38v-3.51c0-.16.09-.31.24-.36.88-.29,1.78-.5,2.69-.64,1.73-.31,2.72.38,3.78,1.13Zm-3.65-.37c-.78.13-1.56.3-2.33.51v2.91c1,.06,3.9.36,5.43,1.65.17.14.38.21.59.2h3.63c.41,0,.79-.2,1.04-.54l2.86-3.89s.03-.08,0-.11c-.02-.02-.03-.05-.04-.08-.11-.12-.26-.19-.41-.2-.3.37-.97,1.16-1.62,1.58.22.3.3.69.2,1.08-.25.75-1.89.88-3.01.88h-1.93c-.07,0-.14-.02-.2-.05l-2.33-1.39c-.13-.06-.22-.19-.22-.34,0-.15.07-.28.2-.35.13-.07.28-.06.4.03l2.25,1.34h1.5c1.22,0,2.47-.16,2.64-.38.13-.18-.23-.44-.37-.53-.89.02-3.05.01-4.39-.87-.22-.14-.43-.29-.63-.43-1.01-.71-1.8-1.26-3.25-1.01ZM15.79,4.37v.06s-.37,3.34-.37,3.34c.21.48.33,1.01.33,1.56,0,2.1-1.68,3.81-3.75,3.81s-3.75-1.71-3.75-3.81c0-.59.13-1.14.36-1.64l-.36-3.26c-.03-.31.28-.52.53-.39l.05.03,2.19,1.58c.31-.08.63-.13.97-.13s.68.05,1,.14l2.2-1.59.05-.03c.24-.12.52.06.54.33Zm-3.79,1.92c-1.66,0-3,1.36-3,3.05h0,1.5c.21,0,.38.17.38.38,0,.19-.13.34-.31.37h-.07s-1.41,0-1.41,0c.07.27.17.53.31.76h.72c.21,0,.38.17.38.38,0,.19-.13.34-.31.37h-.07s-.11,0-.11,0c.53.47,1.22.76,1.98.76s1.45-.29,1.98-.76h-.11c-.21,0-.38-.17-.38-.38,0-.19.13-.34.31-.37h.07s.72,0,.72,0c.13-.24.24-.49.31-.76h-1.41c-.21,0-.38-.17-.38-.38,0-.19.13-.34.31-.37h.07s1.5,0,1.5,0h0c0-1.68-1.34-3.05-3-3.05Zm2.95-1.09l-1.12.81c.36.2.68.46.95.77l.18-1.58Zm-5.86,0l.17,1.53c.27-.29.58-.54.93-.74l-1.1-.8Z"/>
</svg>
