<svg viewBox="0 0 24 24" xmlns="http://www.w3.org/2000/svg" data-title="ParkingSensor" fill="currentColor" stroke="none">
  <path fill-rule="evenodd" d="m4.89,6h.06c3.41.4,4.75,1.76,5.83,2.86.19.19.38.38.57.55h2.07c1.04,0,1.71.88,1.71,2.26v3.52c0,.22-.18.41-.41.41h-2.6c-.2,1.36-1.36,2.41-2.78,2.41s-2.57-1.05-2.78-2.41h-1.65c-.22.01-.41-.17-.41-.4s.18-.41.41-.41h1.65s.02-.05.02-.08c.01-.08.03-.15.05-.22.03-.1.05-.19.09-.28.03-.07.06-.14.09-.21.04-.09.09-.17.14-.25.04-.06.08-.13.12-.19.06-.08.12-.15.18-.22.05-.06.1-.11.15-.16.07-.07.15-.13.23-.19.06-.04.11-.09.18-.13.09-.06.18-.1.27-.15.06-.03.12-.06.18-.09.11-.04.22-.07.34-.1.06-.01.11-.04.17-.05.17-.03.36-.05.54-.05s.37.02.54.05c.06.01.11.03.17.05.11.03.22.06.34.1.06.03.12.06.18.09.09.05.18.09.27.15.06.04.12.08.18.13.08.06.15.12.23.19.05.05.1.1.15.16.06.07.13.14.18.22.04.06.09.12.12.19.05.08.1.17.14.25.03.07.06.14.09.21.04.09.06.19.09.28.02.07.04.14.05.22,0,.03.02.05.02.08h2.18v-2.52h-1.63c-.22,0-.41-.18-.41-.41s.18-.41.41-.41h1.62c-.03-.43-.18-1.22-.88-1.22H4.91c-.22,0-.41-.18-.41-.41s.18-.41.41-.41h5.28c-1.04-1.06-2.22-2.25-5.33-2.6-.22-.03-.38-.23-.36-.46.03-.22.23-.38.46-.36h-.07Zm4.45,7.19c-1.11,0-2,.89-2,2s.9,2,2,2,2-.89,2-2-.9-2-2-2Z"/>
  <path d="m17.35,9.31c.92.86,1.43,1.97,1.47,3.22.04,1.25-.38,2.39-1.24,3.31-.13.14-.12.36.02.49.14.13.36.12.48-.02.98-1.05,1.47-2.36,1.42-3.8-.05-1.43-.63-2.71-1.68-3.69-.14-.13-.36-.12-.48.02-.12.14-.12.36.02.48h0Z"/>
  <path d="m16.9,10.17c-.14-.13-.36-.12-.48.02-.12.14-.12.36.02.48.51.48.79,1.07.82,1.79.03.71-.23,1.35-.69,1.84-.13.14-.12.36.02.49.14.13.36.12.48-.02.58-.63.89-1.48.86-2.33-.03-.86-.38-1.66-1.03-2.26Z"/>
</svg>
