<svg viewBox="0 0 24 24" xmlns="http://www.w3.org/2000/svg" data-title="ParkingEstate" fill="currentColor" stroke="none">
  <path fill-rule="evenodd" clip-rule="evenodd" d="M17.6333 5C17.8358 5 18 5.15919 18 5.35556V15.3111C18 15.5075 17.8358 15.6667 17.6333 15.6667H14.4643V20.619C14.4643 20.8061 14.3253 20.9616 14.142 20.9939L14.0714 21H10.9286C10.7116 21 10.5357 20.8294 10.5357 20.619V15.6667H7.36667C7.18666 15.6667 7.03695 15.5409 7.00591 15.375L7 15.3111V5.35556C7 5.15919 7.16416 5 7.36667 5H17.6333ZM13.6786 15.6667H11.3214V20.2381H13.6786V15.6667ZM17.2143 5.7619H7.78571V14.9048H17.2143V5.7619ZM8.96429 13.381C9.18125 13.381 9.35714 13.5515 9.35714 13.7619C9.35714 13.9723 9.18125 14.1429 8.96429 14.1429C8.74732 14.1429 8.57143 13.9723 8.57143 13.7619C8.57143 13.5515 8.74732 13.381 8.96429 13.381ZM16.0357 13.381C16.2527 13.381 16.4286 13.5515 16.4286 13.7619C16.4286 13.9723 16.2527 14.1429 16.0357 14.1429C15.8187 14.1429 15.6429 13.9723 15.6429 13.7619C15.6429 13.5515 15.8187 13.381 16.0357 13.381ZM13.154 7.28571C14.0452 7.28571 14.7837 8.05379 14.8528 9.0575L14.8571 9.19048C14.8571 10.2424 14.0946 11.0952 13.154 11.0952H11.7143V12.9927C11.7143 13.2071 11.5384 13.381 11.3214 13.381C11.1286 13.381 10.9682 13.2436 10.9349 13.0625L10.9286 12.9927V7.67395C10.9286 7.61876 10.9402 7.56626 10.9612 7.51873C11.0179 7.38113 11.1422 7.28571 11.2864 7.28571H13.154ZM13.154 8.08603L11.7143 8.08571V10.2945L13.154 10.2949C13.6674 10.2949 14.0892 9.85691 14.1373 9.30968L14.1418 9.20587L14.1386 9.10373C14.099 8.53154 13.6706 8.08603 13.154 8.08603ZM16.0357 6.52381C16.2527 6.52381 16.4286 6.69437 16.4286 6.90476C16.4286 7.11516 16.2527 7.28571 16.0357 7.28571C15.8187 7.28571 15.6429 7.11516 15.6429 6.90476C15.6429 6.69437 15.8187 6.52381 16.0357 6.52381ZM8.96429 6.52381C9.18125 6.52381 9.35714 6.69437 9.35714 6.90476C9.35714 7.11516 9.18125 7.28571 8.96429 7.28571C8.74732 7.28571 8.57143 7.11516 8.57143 6.90476C8.57143 6.69437 8.74732 6.52381 8.96429 6.52381Z"/>
</svg>
