<svg viewBox="0 0 24 24" xmlns="http://www.w3.org/2000/svg" data-title="PenOutline" fill="currentColor" stroke="none">
  <path fill-rule="evenodd" clip-rule="evenodd" d="M17.1622 4.15123C17.1072 4.15123 17.0528 4.16221 17.0021 4.18353C16.9514 4.20486 16.9055 4.23609 16.867 4.27539L16.8576 4.28485L5.59635 15.4875L4.3836 19.8173L8.71485 18.6049L19.926 7.34309C19.9647 7.30473 19.9954 7.25911 20.0163 7.20882C20.0373 7.15853 20.0481 7.10459 20.0481 7.05012C20.0481 6.99564 20.0373 6.9417 20.0163 6.89142C19.9954 6.84113 19.9647 6.79549 19.926 6.75713L19.9212 6.75237L17.4573 4.27541C17.4189 4.23611 17.373 4.20486 17.3223 4.18353C17.2716 4.16221 17.2172 4.15123 17.1622 4.15123ZM16.245 2.38506C16.5353 2.26293 16.8472 2.20001 17.1622 2.20001C17.4772 2.20001 17.789 2.26293 18.0794 2.38506C18.3683 2.50659 18.6301 2.6843 18.8496 2.90786L21.3005 5.37176L21.3032 5.37444C21.5236 5.59364 21.6986 5.85413 21.8181 6.14102C21.9382 6.42908 22 6.73805 22 7.05012C22 7.36218 21.9382 7.67115 21.8181 7.95921C21.6986 8.24615 21.5235 8.50668 21.3031 8.72591L21.3005 8.72847L9.91718 20.1633C9.79839 20.2827 9.65073 20.3692 9.48855 20.4146L3.23912 22.1639C2.89959 22.2589 2.53519 22.1635 2.28587 21.9142C2.03656 21.665 1.9411 21.3007 2.03617 20.9613L3.78601 14.7141C3.83142 14.552 3.91802 14.4044 4.03739 14.2856L15.4767 2.90588C15.6958 2.68325 15.957 2.50623 16.245 2.38506Z"/>
</svg>
