<svg viewBox="0 0 24 24" xmlns="http://www.w3.org/2000/svg" data-title="PercentageOutline" fill="currentColor" stroke="none">
  <path d="M9.14336 19.3907C8.98796 19.6656 8.79371 19.8412 8.56061 19.9175C8.34305 20.0092 8.11772 20.0244 7.88462 19.9634C7.66706 19.9175 7.48057 19.8107 7.32517 19.6427C7.16977 19.49 7.07653 19.2991 7.04545 19.0701C7.01437 18.8257 7.07653 18.5662 7.23193 18.2913L15.8333 3.63217C15.9887 3.35732 16.1752 3.17408 16.3928 3.08246C16.6259 2.99084 16.8512 2.97557 17.0688 3.03665C17.2863 3.08246 17.4728 3.18935 17.6282 3.35732C17.7836 3.52529 17.8768 3.73143 17.9079 3.97575C17.9545 4.2048 17.9002 4.44912 17.7448 4.7087L9.14336 19.3907ZM6.64918 13.069C5.34382 13.069 4.32595 12.6262 3.59557 11.7405C2.86519 10.8548 2.5 9.64852 2.5 8.12153C2.5 7.09845 2.66317 6.22043 2.98951 5.48747C3.31585 4.75451 3.78982 4.18953 4.41142 3.79251C5.03302 3.39549 5.77894 3.19698 6.64918 3.19698C7.95455 3.19698 8.97242 3.63981 9.7028 4.52547C10.4332 5.39585 10.7984 6.59454 10.7984 8.12153C10.7984 9.14461 10.6352 10.0303 10.3089 10.7785C9.98252 11.5115 9.50855 12.0764 8.88695 12.4735C8.26535 12.8705 7.51943 13.069 6.64918 13.069ZM6.64918 11.145C7.02214 11.145 7.34071 11.0381 7.6049 10.8243C7.86908 10.5953 8.0711 10.2593 8.21096 9.81649C8.35082 9.37366 8.42075 8.80868 8.42075 8.12153C8.42075 7.09845 8.26535 6.34258 7.95455 5.85395C7.64375 5.36531 7.20862 5.12099 6.64918 5.12099C6.27622 5.12099 5.95765 5.22788 5.69347 5.44166C5.42929 5.65544 5.22727 5.98374 5.08741 6.42657C4.94755 6.8694 4.87762 7.43438 4.87762 8.12153C4.87762 9.15988 5.03302 9.92338 5.34382 10.412C5.65462 10.9007 6.08974 11.145 6.64918 11.145ZM18.3508 19.803C17.0455 19.803 16.0276 19.3602 15.2972 18.4745C14.5668 17.5889 14.2016 16.3826 14.2016 14.8556C14.2016 13.8325 14.3648 12.9545 14.6911 12.2215C15.0175 11.4885 15.4915 10.9236 16.1131 10.5265C16.7347 10.1295 17.4806 9.93102 18.3508 9.93102C19.6562 9.93102 20.674 10.3738 21.4044 11.2595C22.1348 12.1299 22.5 13.3286 22.5 14.8556C22.5 15.8786 22.3368 16.7643 22.0105 17.5125C21.6841 18.2455 21.2102 18.8105 20.5886 19.2075C19.967 19.6045 19.2211 19.803 18.3508 19.803ZM18.3508 17.879C18.7238 17.879 19.0423 17.7721 19.3065 17.5583C19.5707 17.3446 19.7727 17.0163 19.9126 16.5734C20.0524 16.1153 20.1224 15.5427 20.1224 14.8556C20.1224 13.8325 19.967 13.0766 19.6562 12.588C19.3454 12.0993 18.9103 11.855 18.3508 11.855C17.9779 11.855 17.6593 11.9619 17.3951 12.1757C17.1309 12.3895 16.9289 12.7178 16.789 13.1606C16.6492 13.6034 16.5793 14.1684 16.5793 14.8556C16.5793 15.8939 16.7347 16.6574 17.0455 17.1461C17.3563 17.6347 17.7914 17.879 18.3508 17.879Z"/>
</svg>
