<svg viewBox="0 0 24 24" xmlns="http://www.w3.org/2000/svg" data-title="Percentage" fill="currentColor" stroke="none">
  <path d="M8.64,19.89c-0.16,0.27-0.35,0.45-0.58,0.53c-0.22,0.09-0.44,0.11-0.68,0.05c-0.22-0.05-0.4-0.15-0.56-0.32
	c-0.16-0.15-0.25-0.34-0.28-0.57c-0.03-0.24,0.03-0.5,0.19-0.78l8.6-14.66c0.16-0.27,0.34-0.46,0.56-0.55
	c0.23-0.09,0.46-0.11,0.68-0.05c0.22,0.05,0.4,0.15,0.56,0.32c0.16,0.17,0.25,0.37,0.28,0.62c0.05,0.23-0.01,0.47-0.16,0.73
	L8.64,19.89z M6.15,13.57c-1.31,0-2.32-0.44-3.05-1.33C2.37,11.35,2,10.15,2,8.62c0-1.02,0.16-1.9,0.49-2.63s0.8-1.3,1.42-1.69
	s1.37-0.6,2.24-0.6c1.31,0,2.32,0.44,3.05,1.33c0.73,0.87,1.1,2.07,1.1,3.6c0,1.02-0.16,1.91-0.49,2.66c-0.33,0.73-0.8,1.3-1.42,1.7
	C7.77,13.37,7.02,13.57,6.15,13.57z M6.15,11.64c0.37,0,0.69-0.11,0.96-0.32c0.26-0.23,0.47-0.56,0.61-1.01
	c0.14-0.44,0.21-1.01,0.21-1.69c0-1.02-0.16-1.78-0.47-2.27C7.14,5.87,6.71,5.62,6.15,5.62c-0.37,0-0.69,0.11-0.96,0.32
	S4.73,6.48,4.59,6.93S4.38,7.93,4.38,8.62c0,1.04,0.16,1.8,0.47,2.29C5.15,11.4,5.59,11.64,6.15,11.64z M17.85,20.3
	c-1.31,0-2.32-0.44-3.05-1.33c-0.73-0.89-1.1-2.09-1.1-3.62c0-1.02,0.16-1.9,0.49-2.63c0.33-0.73,0.8-1.3,1.42-1.7
	c0.62-0.4,1.37-0.6,2.24-0.6c1.31,0,2.32,0.44,3.05,1.33c0.73,0.87,1.1,2.07,1.1,3.6c0,1.02-0.16,1.91-0.49,2.66
	c-0.33,0.73-0.8,1.3-1.42,1.69C19.47,20.1,18.72,20.3,17.85,20.3z M17.85,18.38c0.37,0,0.69-0.11,0.96-0.32
	c0.26-0.21,0.47-0.54,0.61-0.98c0.14-0.46,0.21-1.03,0.21-1.72c0-1.02-0.16-1.78-0.47-2.27c-0.31-0.49-0.75-0.73-1.31-0.73
	c-0.37,0-0.69,0.11-0.96,0.32c-0.26,0.21-0.47,0.54-0.61,0.98c-0.14,0.44-0.21,1.01-0.21,1.7c0,1.04,0.16,1.8,0.47,2.29
	C16.86,18.13,17.29,18.38,17.85,18.38z"/>
</svg>
