<svg viewBox="0 0 24 24" xmlns="http://www.w3.org/2000/svg" data-title="PetAccessory" fill="currentColor" stroke="none">
  <path d="m12,7c-4.2,0-7.5,1.52-7.5,3.44v3.12c0,1.92,3.27,3.42,7.43,3.44h.07c4.2,0,7.5-1.52,7.5-3.44v-3.12c0-1.92-3.3-3.44-7.5-3.44Zm0,.62c3.7,0,6.83,1.28,6.83,2.81,0,.47-.32.88-.65,1.16-1.38-.92-3.67-1.47-6.18-1.47s-4.8.55-6.18,1.47c-.33-.28-.65-.69-.65-1.16,0-1.53,3.13-2.81,6.83-2.81Zm-5.63,4.38c1.28-.78,3.38-1.25,5.63-1.25s4.35.47,5.63,1.25c-1.28.78-3.38,1.25-5.63,1.25s-4.35-.47-5.63-1.25Zm-1.2,1.56v-1.69c.12.12.27.25.42.36,1.1.83,2.9,1.39,4.97,1.56-.35.34-.55.8-.55,1.28v.06c0,.42.15.83.42,1.14-2.97-.28-5.25-1.42-5.25-2.72Zm13.67,0c0,1.53-3.13,2.81-6.83,2.81h-.07c-.7,0-1.27-.55-1.27-1.22v-.06c0-.33.13-.62.38-.86s.58-.36.93-.36h.02c2.65,0,5.05-.61,6.42-1.62.15-.12.3-.23.42-.38v1.69Zm-6.6,1.34c.07.06.1.14.1.22,0,.05,0,.08-.03.12-.02.03-.03.08-.07.09-.03.03-.07.05-.1.06-.05.03-.08.03-.13.03s-.08,0-.13-.03c-.03-.02-.08-.03-.1-.06-.03-.03-.05-.06-.07-.09-.03-.05-.03-.08-.03-.12,0-.08.03-.16.1-.22.12-.12.35-.12.47,0Zm1.67-.16c.07.06.1.14.1.22s-.03.16-.1.22c-.02.02-.03.03-.05.03-.02.02-.03.02-.05.03-.02,0-.03.02-.07.02h-.07c-.05,0-.08,0-.13-.03-.03-.02-.08-.03-.1-.06-.07-.05-.1-.12-.1-.2s.03-.16.1-.22c.08-.08.2-.11.3-.08.02,0,.03.02.07.02.02.02.03.02.05.03.02,0,.03.02.05.03Zm1.67-.16c.07.06.1.14.1.22,0,.05,0,.08-.03.12-.02.03-.03.08-.07.09-.02.02-.03.03-.05.03-.02.02-.03.02-.05.03-.02,0-.03.02-.07.02h-.07c-.08,0-.17-.03-.23-.09-.03-.03-.05-.06-.07-.09-.03-.03-.03-.06-.03-.11,0-.08.03-.16.1-.22.08-.08.2-.11.3-.08.02,0,.03.02.07.02.02.02.03.02.05.03.02,0,.03.02.05.03Z"/>
</svg>
