<svg viewBox="0 0 24 24" xmlns="http://www.w3.org/2000/svg" data-title="Pets" fill="currentColor" stroke="none">
  <path d="m2.8,10.04c-.96,0-1.69.59-2.12,1.23-.44.67-.68,1.52-.68,2.4s.24,1.74.68,2.4c.44.66,1.16,1.23,2.12,1.23s1.69-.59,2.12-1.23c.44-.67.68-1.52.68-2.4s-.24-1.74-.68-2.4c-.44-.66-1.16-1.23-2.12-1.23Zm.24,4.79c-.13.19-.22.22-.24.23-.02,0-.12-.04-.24-.23-.16-.24-.3-.65-.3-1.15s.14-.9.3-1.15c.13-.19.22-.22.24-.23.02,0,.12.04.24.23.16.24.3.65.3,1.15s-.14.9-.3,1.15Zm4.78-5.04c.96,0,1.69-.59,2.12-1.23.44-.67.68-1.52.68-2.4s-.24-1.74-.68-2.4c-.44-.66-1.16-1.23-2.12-1.23s-1.69.59-2.12,1.23c-.44.67-.68,1.52-.68,2.4s.24,1.74.68,2.4c.44.66,1.16,1.23,2.12,1.23Zm-.24-4.79c.13-.19.22-.22.24-.23.02,0,.12.04.24.23.16.24.3.65.3,1.15s-.14.9-.3,1.15c-.13.19-.22.22-.24.23-.02,0-.12-.04-.24-.23-.16-.24-.3-.65-.3-1.15s.14-.9.3-1.15Zm4.42,5.04c-2.13,0-3.69,1.14-4.68,2.54-.97,1.37-1.46,3.07-1.46,4.45,0,1.69,1.02,2.84,2.22,3.52,1.18.67,2.63.95,3.93.95s2.76-.28,3.93-.95c1.2-.68,2.22-1.84,2.22-3.52,0-1.39-.49-3.09-1.46-4.45-.99-1.4-2.56-2.54-4.68-2.54h-.02Zm0,9.21c-1.01,0-2.06-.23-2.82-.66-.73-.41-1.07-.93-1.07-1.56,0-.92.35-2.15,1.05-3.14.68-.96,1.62-1.59,2.84-1.59s2.16.63,2.84,1.59c.7.98,1.05,2.22,1.05,3.14,0,.63-.34,1.14-1.07,1.56-.76.42-1.81.66-2.82.66Zm11.32-7.97c-.44-.66-1.16-1.23-2.12-1.23s-1.69.59-2.12,1.23c-.44.67-.68,1.52-.68,2.4s.24,1.74.68,2.4,1.16,1.23,2.12,1.23,1.69-.59,2.12-1.23c.44-.67.68-1.52.68-2.4s-.24-1.74-.68-2.4Zm-1.88,3.55c-.13.19-.22.22-.24.23-.02,0-.12-.04-.24-.23-.16-.24-.3-.65-.3-1.15s.14-.9.3-1.15c.13-.19.22-.22.24-.23.02,0,.12.04.24.23.16.24.3.65.3,1.15s-.14.9-.3,1.15Zm-3.14-11.09c-.44-.66-1.16-1.23-2.12-1.23s-1.69.59-2.12,1.23c-.44.67-.68,1.52-.68,2.4s.24,1.74.68,2.4c.44.66,1.16,1.23,2.12,1.23s1.69-.59,2.12-1.23c.44-.67.68-1.52.68-2.4s-.24-1.74-.68-2.4Zm-1.88,3.55c-.13.19-.22.22-.24.23-.02,0-.12-.04-.24-.23-.16-.24-.3-.65-.3-1.15s.14-.9.3-1.15c.13-.19.22-.22.24-.23.02,0,.12.04.24.23.16.24.3.65.3,1.15s-.14.9-.3,1.15Z"/>
</svg>
