<svg viewBox="0 0 24 24" xmlns="http://www.w3.org/2000/svg" data-title="PhoneFill" fill="currentColor" stroke="none">
  <path d="M5.96894 2.80005C5.31577 2.80005 4.68855 3.05606 4.22151 3.5133C4.21609 3.51861 4.21073 3.52397 4.20544 3.5294L3.60406 4.14529C2.72293 5.01901 2.16806 6.16931 2.03246 7.40379C1.89651 8.64143 2.19025 9.8882 2.8643 10.9345C2.86854 10.941 2.87285 10.9476 2.87724 10.954C5.80683 15.2775 9.53439 19.0006 13.8594 21.9231L13.8768 21.9346C14.9216 22.6095 16.1667 22.9037 17.4026 22.7675C18.6354 22.6318 19.7841 22.0761 20.6566 21.1938L21.2717 20.5916C21.2771 20.5863 21.2824 20.5809 21.2877 20.5755C21.7443 20.1078 22 19.4797 22 18.8256C22 18.1716 21.7443 17.5435 21.2877 17.0758L21.276 17.0639L18.6394 14.4514L18.637 14.449C18.1721 13.9915 17.5464 13.7351 16.8946 13.7351C16.2428 13.7351 15.6171 13.9915 15.1522 14.449L15.1541 14.4471C15.064 14.5353 14.9431 14.5847 14.8171 14.5847C14.6926 14.5847 14.5729 14.5364 14.4831 14.45L10.3472 10.3083L10.3419 10.3031C10.299 10.2608 10.265 10.2103 10.2417 10.1547C10.2185 10.0991 10.2065 10.0393 10.2065 9.97904C10.2065 9.91873 10.2185 9.85902 10.2417 9.80338C10.265 9.74774 10.299 9.69729 10.3419 9.65496L10.3533 9.64351C10.8102 9.17799 11.0662 8.5514 11.0662 7.89871C11.0662 7.24601 10.8102 6.61939 10.3534 6.15387L7.72451 3.52128L7.71636 3.5133C7.24932 3.05606 6.6221 2.80005 5.96894 2.80005Z"/>
</svg>
