<svg viewBox="0 0 24 24" xmlns="http://www.w3.org/2000/svg" data-title="Pieces" fill="currentColor" stroke="none">
  <path fill-rule="evenodd" clip-rule="evenodd" d="M5.36842 19.2C5.16495 19.2 5 19.035 5 18.8315V5.56837C5 5.3649 5.16495 5.19995 5.36842 5.19995H18.6316C18.8351 5.19995 19 5.3649 19 5.56837V18.8315C19 19.035 18.8351 19.2 18.6316 19.2H5.36842ZM18.2222 5.97773L9.66667 5.97695V9.08884H10.8333C11.0481 9.08884 11.2222 9.26295 11.2222 9.47773C11.2222 9.66864 11.0847 9.82742 10.9032 9.86035L10.8333 9.86662H9.66667V10.2555C9.66667 10.4703 9.49256 10.6444 9.27778 10.6444C9.08686 10.6444 8.92808 10.5068 8.89515 10.3254L8.88889 10.2555V5.97695L5.77778 5.97773L5.777 12.9777H10.8333C11.0481 12.9777 11.2222 13.1518 11.2222 13.3666C11.2222 13.5575 11.0847 13.7163 10.9032 13.7492L10.8333 13.7555H5.777L5.77778 18.4222L8.88889 18.4214V17.2555C8.88889 17.0407 9.063 16.8666 9.27778 16.8666C9.46869 16.8666 9.62747 17.0042 9.6604 17.1856L9.66667 17.2555V18.4214L18.2222 18.4222L18.2214 13.7555H13.1667C12.9519 13.7555 12.7778 13.5814 12.7778 13.3666C12.7778 13.1757 12.9153 13.0169 13.0968 12.984L13.1667 12.9777H18.2214V10.6444H13.1667C12.9519 10.6444 12.7778 10.4703 12.7778 10.2555C12.7778 10.0646 12.9153 9.90581 13.0968 9.87288L13.1667 9.86662H18.2214L18.2222 5.97773Z"/>
</svg>
