<svg viewBox="0 0 24 24" xmlns="http://www.w3.org/2000/svg" data-title="PiggyBankOutline" fill="currentColor" stroke="none">
  <path d="M17.0688 13.7028C17.6401 13.7028 18.1033 13.2206 18.1033 12.6256C18.1033 12.0307 17.6401 11.5484 17.0688 11.5484C16.4974 11.5484 16.0343 12.0307 16.0343 12.6256C16.0343 13.2206 16.4974 13.7028 17.0688 13.7028Z"/>
  <path d="M20.1034 9.92368C19.8534 9.51076 19.5603 9.13374 19.2414 8.78365L19.6638 6.35995V5.04936H18.6207C18.5431 5.04936 16.7241 5.09424 15.1121 6.28814C14.8017 6.19837 14.5 6.12656 14.1897 6.06372C14.1983 5.94702 14.2069 5.8393 14.2069 5.72261C14.2069 3.55923 12.5172 1.7998 10.4397 1.7998C8.36207 1.7998 6.67241 3.55923 6.67241 5.72261C6.67241 6.30609 6.80172 6.86264 7.05172 7.40124C5.86207 8.17323 4.93966 9.16964 4.33621 10.3097L3.14655 8.56821L2.93966 8.72081C2.35345 9.15169 2 9.85187 2 10.588C2 11.6113 2.66379 12.491 3.60345 12.7783C3.57759 12.9847 3.56034 13.2002 3.56034 13.4336C3.56034 15.3276 4.44828 17.1589 6.06896 18.6041C5.88793 19.5556 6.10345 20.3994 6.68103 21.0009C7.17241 21.5126 7.83621 21.7998 8.5431 21.7998C9.25 21.7998 9.91379 21.5126 10.4052 21.0009L10.6034 20.7944C11.2155 20.9111 11.7759 21.0009 12.3966 21.0009C13.0172 21.0009 13.5776 20.9111 14.181 20.7944L14.3793 21.0009C14.8707 21.5126 15.5345 21.7998 16.2414 21.7998C16.9483 21.7998 17.6121 21.5126 18.1034 21.0009C18.6638 20.4174 18.8793 19.5915 18.7155 18.658C19.2845 18.1553 19.7672 17.5808 20.1552 16.9434H22V9.91471H20.1034V9.92368ZM17.0259 9.48383L17.4741 9.88778C17.9914 10.3635 18.3966 10.8932 18.681 11.4766L18.9741 12.0781H19.9224V14.789H18.9741L18.681 15.3905C18.3276 16.1176 17.7672 16.7729 17.0086 17.3474L16.2672 17.9129L16.7241 18.7836C16.8534 19.017 16.8276 19.2774 16.6466 19.4748C16.4224 19.7082 16.0948 19.7082 15.8707 19.4748L14.8879 18.4784L14.3448 18.6131C13.1207 18.9093 11.6983 18.9093 10.4655 18.6131L9.91379 18.4784L8.93103 19.4748C8.71552 19.6993 8.37069 19.6993 8.15517 19.4748C7.97414 19.2863 7.93965 19.017 8.07759 18.7747L8.52586 17.9129L7.78448 17.3384C6.40517 16.2971 5.65517 14.9057 5.65517 13.4246C5.65517 10.4443 8.68965 8.01165 12.4138 8.01165C13.3362 8.01165 14.2241 8.15528 15.0345 8.42458L15.5862 8.63104L16.0431 8.21812C16.4655 7.83212 16.9569 7.58975 17.3793 7.44613L17.0517 9.46587L17.0259 9.48383ZM8.75 5.73158C8.75 4.74415 9.49138 3.97216 10.4397 3.97216C11.3879 3.97216 12.1293 4.74415 12.1293 5.73158C12.1293 5.77647 12.1293 5.82135 12.1207 5.87521C11.0431 5.90214 9.96552 6.1086 8.92241 6.4946C8.81034 6.26121 8.75 6.00088 8.75 5.73158ZM4.12931 10.4892L4.31034 10.3546C4.25 10.4713 4.18966 10.5969 4.13793 10.7136C4.09483 10.6957 4.06897 10.6508 4.06897 10.588C4.06897 10.57 4.06897 10.5251 4.12931 10.4802V10.4892Z"/>
</svg>
