<svg viewBox="0 0 24 24" xmlns="http://www.w3.org/2000/svg" data-title="PiggyBankOutline" fill="currentColor" stroke="none">
  <path d="m17.07,13.9c.57,0,1.03-.48,1.03-1.08s-.46-1.08-1.03-1.08-1.03.48-1.03,1.08.46,1.08,1.03,1.08Z"/>
  <path d="m20.1,10.12c-.25-.41-.54-.79-.86-1.14l.42-2.42v-1.31h-1.04c-.08,0-1.9.04-3.51,1.24-.31-.09-.61-.16-.92-.22,0-.12.02-.22.02-.34,0-2.16-1.69-3.92-3.77-3.92s-3.77,1.76-3.77,3.92c0,.58.13,1.14.38,1.68-1.19.77-2.11,1.77-2.72,2.91l-1.19-1.74-.21.15c-.59.43-.94,1.13-.94,1.87,0,1.02.66,1.9,1.6,2.19-.03.21-.04.42-.04.66,0,1.89.89,3.73,2.51,5.17-.18.95.03,1.8.61,2.4.49.51,1.16.8,1.86.8s1.37-.29,1.86-.8l.2-.21c.61.12,1.17.21,1.79.21s1.18-.09,1.78-.21l.2.21c.49.51,1.16.8,1.86.8s1.37-.29,1.86-.8c.56-.58.78-1.41.61-2.34.57-.5,1.05-1.08,1.44-1.71h1.84v-7.03h-1.9Zm-3.08-.44l.45.4c.52.48.92,1.01,1.21,1.59l.29.6h.95v2.71h-.95l-.29.6c-.35.73-.91,1.38-1.67,1.96l-.74.57.46.87c.13.23.1.49-.08.69-.22.23-.55.23-.78,0l-.98-1-.54.13c-1.22.3-2.65.3-3.88,0l-.55-.13-.98,1c-.22.22-.56.22-.78,0-.18-.19-.22-.46-.08-.7l.45-.86-.74-.57c-1.38-1.04-2.13-2.43-2.13-3.91,0-2.98,3.03-5.41,6.76-5.41.92,0,1.81.14,2.62.41l.55.21.46-.41c.42-.39.91-.63,1.34-.77l-.33,2.02-.03.02Zm-8.28-3.75c0-.99.74-1.76,1.69-1.76s1.69.77,1.69,1.76c0,.04,0,.09,0,.14-1.08.03-2.16.23-3.2.62-.11-.23-.17-.49-.17-.76Zm-4.62,4.76l.18-.13c-.06.12-.12.24-.17.36-.04-.02-.07-.06-.07-.13,0-.02,0-.06.06-.11h0Z"/>
</svg>
