<svg viewBox="0 0 24 24" xmlns="http://www.w3.org/2000/svg" data-title="PiggyBankFill" fill="currentColor" stroke="none">
  <path fill-rule="evenodd" d="m19.24,8.98c.32.35.61.73.86,1.14h0s1.9,0,1.9,0v7.03h-1.84c-.39.64-.87,1.21-1.44,1.71.16.93-.05,1.76-.61,2.34-.49.51-1.16.8-1.86.8s-1.37-.29-1.86-.8l-.2-.21c-.6.12-1.16.21-1.78.21s-1.18-.09-1.79-.21l-.2.21c-.49.51-1.16.8-1.86.8s-1.37-.29-1.86-.8c-.58-.6-.79-1.45-.61-2.4-1.62-1.45-2.51-3.28-2.51-5.17,0-.23.02-.45.04-.66-.94-.29-1.6-1.17-1.6-2.19,0-.74.35-1.44.94-1.87l.21-.15,1.19,1.74c.6-1.14,1.53-2.14,2.72-2.91-.25-.54-.38-1.1-.38-1.68,0-2.16,1.69-3.92,3.77-3.92s3.77,1.76,3.77,3.92c0,.11,0,.21-.02.32,0,0,0,.02,0,.02.31.06.61.13.92.22,1.61-1.19,3.43-1.24,3.51-1.24h1.04v1.31l-.42,2.42Zm-8.8-4.81c-.95,0-1.69.77-1.69,1.76,0,.27.06.53.17.76,1.04-.39,2.12-.59,3.2-.62,0-.05,0-.1,0-.14,0-.99-.74-1.76-1.69-1.76Zm-6.13,6.38l-.18.13h0c-.06.04-.06.08-.06.1,0,.06.03.11.07.13.05-.12.11-.24.17-.36Zm13.79,2.27c0,.6-.46,1.08-1.03,1.08s-1.03-.48-1.03-1.08.46-1.08,1.03-1.08,1.03.48,1.03,1.08Z"/>
</svg>
