<svg viewBox="0 0 24 24" xmlns="http://www.w3.org/2000/svg" data-title="PiggyBankFill" fill="currentColor" stroke="none">
  <path fill-rule="evenodd" clip-rule="evenodd" d="M19.2414 8.78365C19.5604 9.13374 19.8535 9.51076 20.1035 9.92369V9.9147H22V16.9434H20.1552C19.7673 17.5808 19.2845 18.1553 18.7155 18.658C18.8793 19.5915 18.6638 20.4174 18.1035 21.0009C17.6121 21.5126 16.9483 21.7998 16.2414 21.7998C15.5345 21.7998 14.8707 21.5126 14.3793 21.0009L14.181 20.7944C13.5776 20.9111 13.0172 21.0009 12.3966 21.0009C11.7759 21.0009 11.2155 20.9111 10.6034 20.7944L10.4052 21.0009C9.9138 21.5126 9.25 21.7998 8.54311 21.7998C7.83621 21.7998 7.17241 21.5126 6.68103 21.0009C6.10345 20.3994 5.88793 19.5556 6.06897 18.6041C4.44828 17.1589 3.56034 15.3276 3.56034 13.4336C3.56034 13.2002 3.57757 12.9847 3.60344 12.7783C2.66378 12.491 2 11.6113 2 10.588C2 9.85186 2.35345 9.15168 2.93965 8.7208L3.14654 8.5682L4.3362 10.3097C4.93965 9.16964 5.86206 8.17324 7.05172 7.40125C6.80171 6.86265 6.6724 6.30609 6.6724 5.7226C6.6724 3.55923 8.36208 1.7998 10.4397 1.7998C12.5173 1.7998 14.2069 3.55923 14.2069 5.7226C14.2069 5.83133 14.1994 5.93226 14.1914 6.03992C14.1908 6.04781 14.1902 6.05575 14.1897 6.06372C14.5 6.12656 14.8017 6.19837 15.1121 6.28814C16.7241 5.09424 18.5431 5.04935 18.6207 5.04935H19.6638V6.35995L19.2414 8.78365ZM10.4397 3.97216C9.49139 3.97216 8.74999 4.74415 8.74999 5.73159C8.74999 6.00089 8.81035 6.2612 8.92242 6.4946C9.96552 6.1086 11.0431 5.90213 12.1207 5.8752C12.1293 5.82134 12.1293 5.77647 12.1293 5.73159C12.1293 4.74415 11.3879 3.97216 10.4397 3.97216ZM4.31034 10.3546L4.12931 10.4892V10.4802C4.06897 10.5251 4.06896 10.57 4.06896 10.588C4.06896 10.6508 4.09481 10.6957 4.13792 10.7136C4.18964 10.5969 4.25 10.4713 4.31034 10.3546ZM18.1033 12.6256C18.1033 13.2206 17.6401 13.7028 17.0688 13.7028C16.4975 13.7028 16.0343 13.2206 16.0343 12.6256C16.0343 12.0307 16.4975 11.5484 17.0688 11.5484C17.6401 11.5484 18.1033 12.0307 18.1033 12.6256Z"/>
</svg>
