<svg viewBox="0 0 24 24" xmlns="http://www.w3.org/2000/svg" data-title="PinOutline" fill="currentColor" stroke="none">
  <path fill-rule="evenodd" clip-rule="evenodd" d="M16.0083 8.2771C16.0083 10.4443 14.2139 12.2011 12.0004 12.2011C9.78684 12.2011 7.99242 10.4443 7.99242 8.2771C7.99242 6.10995 9.78684 4.35313 12.0004 4.35313C14.2139 4.35313 16.0083 6.10995 16.0083 8.2771ZM13.549 8.2771C13.549 9.11445 12.8556 9.79325 12.0004 9.79325C11.1451 9.79325 10.4518 9.11445 10.4518 8.2771C10.4518 7.43976 11.1451 6.76095 12.0004 6.76095C12.8556 6.76095 13.549 7.43976 13.549 8.2771Z"/>
  <path fill-rule="evenodd" clip-rule="evenodd" d="M12 0C6.7533 0 2.5 4.16417 2.5 9.30094C2.5 10.6638 2.99049 12.2459 3.65732 13.7701C4.336 15.3214 5.24972 16.9291 6.20764 18.3793C7.16456 19.8279 8.18688 21.1515 9.09663 22.1278C9.54888 22.6131 9.99816 23.0395 10.4178 23.3547C10.6274 23.5123 10.8544 23.6609 11.091 23.7745C11.314 23.8816 11.6317 24 12 24C12.3683 24 12.686 23.8816 12.909 23.7745C13.1456 23.6609 13.3726 23.5123 13.5822 23.3547C14.0018 23.0395 14.4511 22.6131 14.9034 22.1278C15.8131 21.1515 16.8354 19.8279 17.7924 18.3793C18.7503 16.9291 19.664 15.3214 20.3427 13.7701C21.0095 12.2459 21.5 10.6638 21.5 9.30094C21.5 4.16417 17.2467 0 12 0ZM4.95936 9.30094C4.95936 5.49397 8.11156 2.40782 12 2.40782C15.8884 2.40782 19.0406 5.49397 19.0406 9.30094C19.0406 10.174 18.7056 11.3967 18.082 12.8221C17.4702 14.2204 16.6287 15.707 15.7272 17.0717C14.8248 18.4378 13.8836 19.6495 13.0865 20.5049C12.6854 20.9354 12.3454 21.2489 12.085 21.4446C12.0542 21.4677 12.0258 21.4881 12 21.5061C11.9742 21.4881 11.9458 21.4677 11.915 21.4446C11.6546 21.2489 11.3146 20.9354 10.9135 20.5049C10.1164 19.6495 9.1752 18.4378 8.27275 17.0717C7.37131 15.707 6.52977 14.2204 5.91803 12.8221C5.29444 11.3967 4.95936 10.174 4.95936 9.30094Z"/>
</svg>
