<svg viewBox="0 0 24 24" xmlns="http://www.w3.org/2000/svg" data-title="PinOutline" fill="currentColor" stroke="none">
  <path fill-rule="evenodd" clip-rule="evenodd" d="M15.3754 9.422C15.3754 11.228 13.8643 12.692 12.0003 12.692C10.1363 12.692 8.6252 11.228 8.6252 9.422C8.6252 7.61604 10.1363 6.15202 12.0003 6.15202C13.8643 6.15202 15.3754 7.61604 15.3754 9.422ZM13.3044 9.422C13.3044 10.1198 12.7205 10.6855 12.0003 10.6855C11.2801 10.6855 10.6962 10.1198 10.6962 9.422C10.6962 8.72421 11.2801 8.15854 12.0003 8.15854C12.7205 8.15854 13.3044 8.72421 13.3044 9.422Z"/>
  <path fill-rule="evenodd" clip-rule="evenodd" d="M12 2.52441C7.58172 2.52441 4 5.99456 4 10.2752C4 11.411 4.41304 12.7293 4.97459 13.9995C5.5461 15.2923 6.31556 16.632 7.12222 17.8405C7.92805 19.0477 8.78895 20.1507 9.55506 20.9642C9.9359 21.3686 10.3142 21.724 10.6676 21.9867C10.8442 22.118 11.0353 22.2418 11.2346 22.3365C11.4223 22.4257 11.6899 22.5244 12 22.5244C12.3101 22.5244 12.5777 22.4257 12.7654 22.3365C12.9647 22.2418 13.1558 22.118 13.3324 21.9867C13.6858 21.724 14.0641 21.3686 14.4449 20.9642C15.211 20.1507 16.0719 19.0477 16.8778 17.8405C17.6844 16.632 18.4539 15.2923 19.0254 13.9995C19.587 12.7293 20 11.411 20 10.2752C20 5.99456 16.4183 2.52441 12 2.52441ZM6.07104 10.2752C6.07104 7.10273 8.72552 4.53093 12 4.53093C15.2745 4.53093 17.929 7.10273 17.929 10.2752C17.929 11.0027 17.6468 12.0217 17.1217 13.2095C16.6065 14.3747 15.8978 15.6136 15.1387 16.7508C14.3788 17.8893 13.5862 18.899 12.915 19.6118C12.5772 19.9706 12.2909 20.2318 12.0715 20.3949C12.0456 20.4142 12.0218 20.4312 12 20.4462C11.9782 20.4312 11.9544 20.4142 11.9285 20.3949C11.7091 20.2318 11.4228 19.9706 11.085 19.6118C10.4138 18.899 9.62122 17.8893 8.86127 16.7508C8.10215 15.6136 7.39349 14.3747 6.87834 13.2095C6.35322 12.0217 6.07104 11.0027 6.07104 10.2752Z"/>
</svg>
