<svg viewBox="0 0 24 24" xmlns="http://www.w3.org/2000/svg" data-title="Pinterest" fill="currentColor" stroke="none">
  <path fill-rule="evenodd" clip-rule="evenodd" d="M2 12.3998C2 16.4945 4.46233 20.0122 7.98584 21.5588C7.95771 20.8606 7.98084 20.0223 8.1599 19.2626C8.35216 18.4508 9.44661 13.8137 9.44661 13.8137C9.44661 13.8137 9.12716 13.1752 9.12716 12.2315C9.12716 10.7496 9.98606 9.64283 11.0557 9.64283C11.9654 9.64283 12.4048 10.326 12.4048 11.1441C12.4048 12.0585 11.8216 13.4262 11.5217 14.6929C11.2711 15.7537 12.0536 16.6189 13.1 16.6189C14.9947 16.6189 16.2708 14.1854 16.2708 11.3022C16.2708 9.11058 14.7946 7.47015 12.1097 7.47015C9.0763 7.47015 7.18654 9.73228 7.18654 12.2591C7.18654 13.1303 7.44342 13.7447 7.84576 14.2204C8.03076 14.4389 8.05646 14.5268 7.98951 14.7778C7.94154 14.9617 7.83138 15.4047 7.78576 15.5802C7.7192 15.8335 7.51396 15.9241 7.28506 15.8306C5.88788 15.2602 5.23717 13.7301 5.23717 12.0102C5.23717 9.16956 7.63295 5.7634 12.3842 5.7634C16.2021 5.7634 18.715 8.52614 18.715 11.4918C18.715 15.4145 16.5341 18.3452 13.3193 18.3452C12.2396 18.3452 11.2241 17.7616 10.8762 17.0987C10.8762 17.0987 10.2957 19.4027 10.1727 19.8476C9.96067 20.6186 9.54567 21.3892 9.16622 21.9898C10.0656 22.2553 11.0157 22.3999 12.0004 22.3999C17.5225 22.3999 22 17.9228 22 12.3998C22 6.87705 17.5225 2.3999 12.0004 2.3999C6.47764 2.3999 2 6.87705 2 12.3998Z"/>
</svg>
