<svg viewBox="0 0 24 24" xmlns="http://www.w3.org/2000/svg" data-title="Pool" fill="currentColor" stroke="none">
  <path fill-rule="evenodd" clip-rule="evenodd" d="M17.0189 17.1166C17.2079 17.1166 17.3803 17.1751 17.5221 17.2798C17.7576 17.4662 18.0883 17.5709 18.4183 17.5709C18.6538 17.5709 18.8428 17.711 18.9996 17.8858C18.9996 18.0606 18.8113 18.2 18.5758 18.2C18.0568 18.2 17.5536 18.0606 17.1606 17.7926C16.7676 18.0483 16.2644 18.2 15.7454 18.2C15.2264 18.2 14.7232 18.0606 14.3302 17.7926C13.9372 18.0483 13.434 18.2 12.915 18.2C12.3967 18.2 11.8935 18.0606 11.4998 17.7926C11.1075 18.0483 10.6043 18.2 10.0853 18.2C9.56633 18.2 9.0631 18.0606 8.67011 17.7926C8.27712 18.0483 7.77389 18.2 7.2549 18.2C6.73592 18.2 6.23268 18.0483 5.84044 17.7811C5.44671 18.0483 4.94422 18.2 4.42524 18.2C4.18899 18.2 4 18.0606 4 17.8858C4 17.711 4.18899 17.5709 4.42524 17.5709C4.75523 17.5709 5.06947 17.4662 5.32146 17.2798C5.44671 17.1751 5.6357 17.1166 5.8247 17.1166C6.01294 17.1166 6.18543 17.1751 6.32718 17.2798C6.56342 17.4662 6.89341 17.5709 7.2234 17.5709C7.55414 17.5709 7.86838 17.4662 8.11963 17.2798C8.26137 17.1751 8.43387 17.1166 8.62286 17.1166C8.81186 17.1166 8.98435 17.1751 9.1261 17.2798C9.36159 17.4662 9.69233 17.5709 10.0223 17.5709C10.3523 17.5709 10.6673 17.4662 10.9185 17.2798C11.0595 17.1751 11.2328 17.1166 11.4218 17.1166C11.61 17.1166 11.7833 17.1751 11.925 17.2798C12.1605 17.4662 12.4912 17.5709 12.8205 17.5709C13.1512 17.5709 13.4655 17.4662 13.7167 17.2798C13.8585 17.1751 14.0309 17.1166 14.2199 17.1166C14.4089 17.1166 14.5822 17.1751 14.7232 17.2798C14.9594 17.4662 15.2894 17.5709 15.6202 17.5709C15.9501 17.5709 16.2644 17.4662 16.5156 17.2798C16.6574 17.1751 16.8306 17.1166 17.0189 17.1166ZM9.0628 5.19995C10.2019 5.19995 11.1252 6.09646 11.1252 7.20235C11.1252 7.4049 10.9561 7.56909 10.7475 7.56909C10.5389 7.56909 10.3698 7.4049 10.3698 7.20235C10.3698 6.50155 9.78462 5.93343 9.0628 5.93343C8.37897 5.93343 7.8178 6.44332 7.76063 7.09287L7.75583 7.20235L7.75514 8.81112H12.6247L12.6252 7.20235C12.6252 6.48696 13.0183 5.82592 13.6564 5.46822C14.2945 5.11053 15.0807 5.11053 15.7188 5.46822C16.357 5.82592 16.7501 6.48696 16.7501 7.20235C16.7501 7.4049 16.5809 7.56909 16.3723 7.56909C16.1637 7.56909 15.9946 7.4049 15.9946 7.20235C15.9946 6.74901 15.7455 6.33011 15.3411 6.10344C14.9367 5.87676 14.4385 5.87676 14.0341 6.10344C13.6635 6.31122 13.4233 6.68053 13.3858 7.08983L13.3807 7.20235V15.6667C13.3807 15.8693 13.2115 16.0335 13.0029 16.0335C12.8175 16.0335 12.6633 15.9037 12.6313 15.7326L12.6252 15.6667L12.6247 13.8668H7.75514L7.75583 15.6667C7.75583 15.8693 7.58671 16.0335 7.3781 16.0335C7.19266 16.0335 7.03843 15.9037 7.00645 15.7326L7.00036 15.6667V7.20235C7.00036 6.09646 7.92375 5.19995 9.0628 5.19995ZM18.7115 13.8668C18.8709 13.8668 19 14.0284 19 14.2279C19 14.4052 18.898 14.5526 18.7634 14.5832L18.7115 14.589H14.7886C14.6293 14.589 14.5001 14.4273 14.5001 14.2279C14.5001 14.0506 14.6022 13.9032 14.7367 13.8726L14.7886 13.8668H18.7115ZM5.96558 13.8668C6.12287 13.8668 6.25038 14.0284 6.25038 14.2279C6.25038 14.4052 6.14963 14.5526 6.01677 14.5832L5.96558 14.589H4.28525C4.12796 14.589 4.00045 14.4273 4.00045 14.2279C4.00045 14.0506 4.1012 13.9032 4.23406 13.8726L4.28525 13.8668H5.96558ZM12.6247 11.7001H7.75514V13.1445H12.6247V11.7001ZM12.6247 9.53336H7.75514V10.9778H12.6247V9.53336Z"/>
</svg>
