<svg viewBox="0 0 24 24" xmlns="http://www.w3.org/2000/svg" data-title="Pool" fill="currentColor" stroke="none">
  <path fill-rule="evenodd" d="m17.52,17.42c.19,0,.36.06.5.16.24.19.57.29.9.29.24,0,.42.14.58.31,0,.17-.19.31-.42.31-.52,0-1.02-.14-1.42-.41-.39.26-.9.41-1.42.41s-1.02-.14-1.42-.41c-.39.26-.9.41-1.42.41s-1.02-.14-1.42-.41c-.39.26-.9.41-1.41.41s-1.02-.14-1.42-.41c-.39.26-.9.41-1.42.41s-1.02-.15-1.41-.42c-.39.27-.9.42-1.42.42-.24,0-.43-.14-.43-.31s.19-.31.43-.31c.33,0,.64-.1.9-.29.13-.1.31-.16.5-.16s.36.06.5.16c.24.19.57.29.9.29s.64-.1.9-.29c.14-.1.31-.16.5-.16s.36.06.5.16c.24.19.57.29.9.29s.65-.1.9-.29c.14-.1.31-.16.5-.16s.36.06.5.16c.24.19.57.29.9.29s.64-.1.9-.29c.14-.1.31-.16.5-.16s.36.06.5.16c.24.19.57.29.9.29s.64-.1.9-.29c.14-.1.32-.16.5-.16Zm-7.96-11.92c1.14,0,2.06.9,2.06,2,0,.2-.17.37-.38.37s-.38-.16-.38-.37c0-.7-.59-1.27-1.31-1.27-.68,0-1.25.51-1.3,1.16v.11s0,1.61,0,1.61h4.87v-1.61c0-.72.39-1.38,1.03-1.73.64-.36,1.42-.36,2.06,0,.64.36,1.03,1.02,1.03,1.73,0,.2-.17.37-.38.37s-.38-.16-.38-.37c0-.45-.25-.87-.65-1.1-.4-.23-.9-.23-1.31,0-.37.21-.61.58-.65.99v.11s0,8.46,0,8.46c0,.2-.17.37-.38.37-.19,0-.34-.13-.37-.3v-.07s0-1.8,0-1.8h-4.87v1.8c0,.2-.17.37-.38.37-.19,0-.34-.13-.37-.3v-.07s0-8.46,0-8.46c0-1.11.92-2,2.06-2Zm9.65,8.67c.16,0,.29.16.29.36,0,.18-.1.32-.24.36h-.05s-3.92,0-3.92,0c-.16,0-.29-.16-.29-.36,0-.18.1-.32.24-.36h.05s3.92,0,3.92,0Zm-12.75,0c.16,0,.28.16.28.36,0,.18-.1.32-.23.36h-.05s-1.68,0-1.68,0c-.16,0-.28-.16-.28-.36,0-.18.1-.32.23-.36h.05s1.68,0,1.68,0Zm6.66-2.17h-4.87v1.44h4.87v-1.44Zm0-2.17h-4.87v1.44h4.87v-1.44Z"/>
</svg>
