<svg viewBox="0 0 24 24" xmlns="http://www.w3.org/2000/svg" data-title="Power" fill="currentColor" stroke="none">
  <path fill-rule="evenodd" d="m13.29,6c.5,0,.91.45.96,1.02v.11s0,.75,0,.75c0,.18-.11.34-.26.37h-.06s-.43,0-.43,0v.75h2.31c.58,0,1.06.48,1.06,1.06v2.33s.07,0,.07,0c.55,0,1,.42,1.05.96v.1s0,.79,0,.79h.75v-.38c0-.18.13-.34.31-.37h.07s.75,0,.75,0c.58,0,1.07.45,1.12,1.02v.11s0,2.25,0,2.25c0,.58-.45,1.07-1.02,1.12h-.11s-.75,0-.75,0c-.18,0-.34-.13-.37-.31v-.07s0-.38,0-.38h-.75v-.31c0,.59-.47,1.06-1.06,1.06h-7.06c-.09,0-.17-.03-.23-.09l-1.74-1.52h-1.55c-.17,0-.32-.12-.35-.29v-.06s0-1.04,0-1.04h-.75v.38s0,.07,0,.07c-.03.17-.18.31-.37.31h-.86c-.57-.06-1.02-.54-1.02-1.12v-2.36c.06-.57.54-1.02,1.12-1.02h.82c.17.04.31.19.31.38v.38h.75v-.71c0-.11.05-.22.15-.29l2.69-1.94c.06-.04.13-.07.21-.07h1.45v-.75h-.43c-.16,0-.29-.13-.32-.31v-.07s0-.75,0-.75c0-.58.38-1.07.87-1.12h.09s2.57,0,2.57,0Zm2.53,3.71h-6.65l-2.45,1.76v4.21h1.33c.06,0,.13.02.18.05l.05.04,1.74,1.52h6.93c.17,0,.32-.13.35-.29v-.06s0-3.48,0-3.48c0-.2-.16-.35-.35-.35h-.42c-.19,0-.35-.16-.35-.35v-2.69c0-.2-.16-.35-.35-.35Zm4.06,4.54h-.38v2.25s0,0,0,0v.75h.38c.16,0,.3-.1.35-.24l.02-.06v-.07s0-2.25,0-2.25c0-.18-.13-.34-.31-.37h-.07Zm-1.12.75h-.75v1.5h.75v-1.5Zm-4.88-3c.18,0,.34.13.37.31v.07s0,3,0,3c0,.21-.17.38-.38.38-.18,0-.34-.13-.37-.31v-.07s0-3,0-3c0-.21.17-.38.38-.38Zm-9.38,0h-.44c-.17.04-.31.19-.31.38v2.32s.02.06.02.06c.05.14.19.24.35.24h.38v-.75h0v-2.25Zm6.38-.75c.18,0,.34.13.37.31v.07s0,3,0,3c0,.21-.17.38-.38.38-.18,0-.34-.13-.37-.31v-.07s0-3,0-3c0-.21.17-.38.38-.38Zm-4.88,1.5h-.75v1.5h.75v-1.5Zm3.38-.75c.18,0,.34.13.37.31v.07s0,1.5,0,1.5c0,.21-.17.38-.38.38-.18,0-.34-.13-.37-.31v-.07s0-1.5,0-1.5c0-.21.17-.38.38-.38Zm3,0c.18,0,.34.13.37.31v.07s0,1.5,0,1.5c0,.21-.17.38-.38.38-.18,0-.34-.13-.37-.31v-.07s0-1.5,0-1.5c0-.21.17-.38.38-.38Zm.38-3.75h-1.5v.75h1.5v-.75Zm.45-1.5h-2.4c-.15,0-.27.13-.3.31v.07s0,.38,0,.38h3v-.38c0-.16-.08-.3-.2-.35l-.05-.02h-.05Z"/>
</svg>
