<svg viewBox="0 0 24 24" xmlns="http://www.w3.org/2000/svg" data-title="PrintFill" fill="currentColor" stroke="none">
  <path d="M21.6149 9.03335C21.3437 8.78335 20.8918 8.61668 20.5302 8.61668H3.53665C3.0847 8.61668 2.72313 8.78335 2.45196 9.03335 2.18078 9.28335 2 9.70001 2 10.0333V16.45C2 16.8667 2.18078 17.2 2.45196 17.45 2.72313 17.7 3.17509 17.8667 3.53665 17.8667H5.79644V20.7C5.79644 21.1167 5.97722 21.45 6.24839 21.7 6.60996 22.0333 6.97152 22.2 7.42348 22.2H16.6434C17.0954 22.2 17.4569 22.0333 17.7281 21.7833 17.9993 21.5333 18.18 21.1167 18.18 20.7833V17.95H20.4398C20.8918 17.95 21.2534 17.7833 21.5245 17.5333 21.7957 17.2833 21.9765 16.8667 21.9765 16.5333V10.0333C22.0669 9.70001 21.8861 9.36668 21.6149 9.03335ZM16.6434 20.7H7.42348V17.8667H16.6434V20.7ZM18.18 12.95H16.6434C16.1914 12.95 15.8299 12.6167 15.8299 12.2 15.8299 11.7833 16.1914 11.45 16.6434 11.45H18.18C18.632 11.45 18.9936 11.7833 18.9936 12.2 18.9936 12.6167 18.632 12.95 18.18 12.95ZM18.2704 2.78335C18.2704 2.61668 18.1801 2.45001 17.9993 2.36668 17.8185 2.28335 17.6377 2.20001 17.3665 2.20001H6.70035C6.42918 2.20001 6.24839 2.28335 6.06761 2.36668 5.88683 2.53335 5.79644 2.61668 5.79644 2.78335V7.11668H18.2704V2.78335Z"/>
</svg>
