<svg viewBox="0 0 24 24" xmlns="http://www.w3.org/2000/svg" data-title="QuestionOutline" fill="currentColor" stroke="none">
  <path d="M12 22.7998C6.48333 22.7998 2 18.3165 2 12.7998C2 7.28314 6.48333 2.7998 12 2.7998C17.5167 2.7998 22 7.28314 22 12.7998C22 18.3165 17.5167 22.7998 12 22.7998ZM12 4.7998C7.59167 4.7998 4 8.39147 4 12.7998C4 17.2081 7.59167 20.7998 12 20.7998C16.4083 20.7998 20 17.2081 20 12.7998C20 8.39147 16.4083 4.7998 12 4.7998Z"/>
  <path d="M12 15.1831C11.45 15.1831 11 14.7331 11 14.1831V12.7998C11 12.2498 11.45 11.7998 12 11.7998 12.2167 11.7998 12.4167 11.7331 12.6 11.6165 12.775 11.4998 12.9167 11.3331 13 11.1331 13.0833 10.9331 13.1 10.7165 13.0583 10.5081 13.0167 10.2998 12.9167 10.1081 12.7667 9.95814 12.6167 9.80814 12.425 9.70814 12.2167 9.66647 12.0083 9.6248 11.7917 9.64981 11.5917 9.7248 11.3917 9.80814 11.225 9.94147 11.1083 10.1248 10.9917 10.2998 10.925 10.5081 10.925 10.7248 10.925 11.2748 10.475 11.7248 9.925 11.7248 9.375 11.7248 8.925 11.2748 8.925 10.7248 8.925 10.1165 9.10833 9.5248 9.44167 9.01647 9.78333 8.50814 10.2583 8.11647 10.825 7.88314 11.3917 7.6498 12 7.59147 12.6 7.70814 13.2 7.8248 13.7417 8.11647 14.175 8.5498 14.6083 8.98314 14.9 9.5248 15.0167 10.1248 15.1333 10.7248 15.075 11.3415 14.8417 11.8998 14.6083 12.4665 14.2167 12.9415 13.7083 13.2831 13.4833 13.4331 13.25 13.5498 13 13.6331V14.1831C13 14.7331 12.55 15.1831 12 15.1831ZM12 16.2581C11.7917 16.2581 11.5833 16.3165 11.4083 16.4331 11.2333 16.5498 11.1 16.7165 11.0167 16.9081 10.9333 17.0998 10.9167 17.3165 10.9583 17.5248 11 17.7331 11.1 17.9165 11.25 18.0665 11.4 18.2165 11.5917 18.3165 11.7917 18.3581 12 18.3998 12.2083 18.3748 12.4083 18.2998 12.6 18.2165 12.7667 18.0831 12.8833 17.9081 13 17.7331 13.0583 17.5248 13.0583 17.3165 13.0583 17.0331 12.9417 16.7665 12.7417 16.5665 12.5417 16.3665 12.275 16.2581 11.9917 16.2498L12 16.2581Z"/>
</svg>
