<svg viewBox="0 0 24 24" xmlns="http://www.w3.org/2000/svg" data-title="RainSensor" fill="currentColor" stroke="none">
  <path d="m16.9,10.58h.1c.22-.02.42-.12.58-.29.15-.15.25-.36.27-.58v-.1h.88v.12c-.02.45-.21.87-.52,1.19-.31.32-.74.5-1.19.52h-.12v-.87h0Z"/>
  <path d="m17.02,12.71c-.79,0-1.57-.32-2.11-.88-.56-.56-.88-1.31-.88-2.11,0-.58.19-1.15.5-1.65l2.1-3.38c.05-.06.1-.11.16-.14.06-.04.14-.05.2-.05s.14.01.2.05c.06.04.11.07.16.14l2.13,3.38c.31.5.49,1.08.5,1.66,0,.8-.31,1.55-.88,2.11s-1.33.88-2.11.88h.01Zm-1.75-4.19c-.22.36-.36.78-.37,1.2,0,.56.22,1.1.62,1.5.4.4.94.62,1.5.62s1.1-.22,1.5-.62c.4-.4.62-.94.62-1.5,0-.42-.15-.85-.37-1.21l-1.75-2.77-1.75,2.79h0Z"/>
  <path fill-rule="evenodd" d="m11.75,19.5c-.09,0-.19-.02-.3-.06-.16-.05-.31-.16-.43-.31-.11-.14-.17-.31-.17-.5s.05-.37.15-.52l.09-.14-.33-1.35-.3.04c-.57.06-1.18.16-1.79.3-.46.1-1,.23-1.51.4-.08.02-.13.03-.15.03-.08,0-.16-.02-.22-.04-.1-.05-.18-.14-.24-.27l-2.51-6.66c-.03-.1-.04-.2-.01-.3.03-.11.09-.19.16-.25.54-.43,1.25-.7,1.86-.91,1.12-.39,3.05-.86,5.96-.86.58,0,1.11.02,1.62.06h.04v.03c-.14.27-.24.58-.31.9v.02h-.04c-.41-.02-.84-.05-1.3-.05-2.72,0-4.56.44-5.63.81-.35.12-.69.25-1.02.41l-.28.14,2.21,5.88.3-.09c.83-.21,1.67-.38,2.51-.51l.38-.05-.91-3.38c-.02-.06-.02-.11-.01-.18,0-.07.04-.13.06-.18.04-.06.08-.11.13-.15.05-.04.1-.06.17-.08h.18c.07,0,.13.02.19.05s.11.08.15.13c.04.05.06.11.08.18l.96,3.55h.51c1.1,0,2.29.14,3.54.42.29.06.57.14.86.21l.31.09,1.05-2.77c.41-.09.8-.26,1.16-.47l.06-.04-1.53,4.05c-.04.12-.14.22-.25.27-.06.03-.12.04-.21.04-.05,0-.1,0-.13,0-.56-.18-1.06-.31-1.54-.41-.61-.14-1.83-.37-3.14-.4h-.46l.3,1.26h.08c.2.07.34.19.42.35.09.15.12.33.1.52-.02.19-.09.35-.21.49-.11.14-.27.23-.45.28-.03,0-.06.02-.09.02h-.14l.03.02Z"/>
</svg>
