<svg viewBox="0 0 24 24" xmlns="http://www.w3.org/2000/svg" data-title="Rating" fill="currentColor" stroke="none">
  <path fill-rule="evenodd" clip-rule="evenodd" d="M19.6429 5.19995C19.8182 5.19995 19.964 5.33028 19.9942 5.50215L20 5.56837V7.04206C20 7.22292 19.8737 7.37335 19.7071 7.40454L19.6429 7.41048H17.75V8.16058L19.625 8.16072C19.8003 8.16072 19.9603 8.29105 19.9936 8.46292L20 8.52914V16.621C20 17.9978 18.9541 19.1227 17.6372 19.1961L17.5 19.2H7.5C6.16531 19.2 5.07491 18.121 5.0037 16.7625L5 16.621V8.52914C5 8.34828 5.14045 8.19785 5.31019 8.16666L5.375 8.16072L7.25 8.16058V7.41048H5.35714C5.18181 7.41048 5.03599 7.28015 5.00575 7.10828L5 7.04206V5.56837C5 5.38751 5.12634 5.23708 5.29295 5.20589L5.35714 5.19995H19.6429ZM7.25 8.88121L5.75 8.88182L5.71429 16.621C5.71429 17.5552 6.38842 18.327 7.26224 18.4469L7.38259 18.4592L7.5 18.4631H17.5C18.4468 18.4631 19.2215 17.703 19.2819 16.7421L19.2857 16.621L19.25 8.88182L17.75 8.88121V8.88416H17V8.88121H8V8.88416H7.25V8.88121ZM16.0137 13.5403C16.1503 13.5403 16.2769 13.6104 16.3475 13.7252L16.85 14.7789L17.975 14.9336C18.1152 14.9547 18.2313 15.0516 18.275 15.1842C18.3174 15.3185 18.283 15.4648 18.185 15.5673L17.3675 16.341L17.5625 17.4389C17.5886 17.5777 17.53 17.7188 17.4125 17.8C17.3444 17.83 17.2689 17.8403 17.195 17.8294C17.1332 17.8278 17.0723 17.8153 17.015 17.7926L16.0175 17.2694L15.0125 17.7926C14.8895 17.8623 14.738 17.8623 14.615 17.7926C14.5004 17.7091 14.4426 17.5699 14.465 17.4315L14.66 16.3336L13.85 15.5157C13.7463 15.4164 13.7086 15.2681 13.7525 15.1326C13.7977 15.001 13.9131 14.9047 14.0525 14.8821L15.1775 14.7273L15.68 13.7252C15.7506 13.6104 15.8772 13.5403 16.0137 13.5403ZM8.9825 13.5705C9.1259 13.5702 9.25691 13.6503 9.32 13.7768L9.8225 14.7789L10.9475 14.9336C11.0869 14.9563 11.2023 15.0526 11.2475 15.1842C11.2914 15.3197 11.2537 15.468 11.15 15.5673L10.34 16.3042L10.535 17.4021C10.5574 17.5405 10.4996 17.6797 10.385 17.7631C10.3185 17.807 10.2401 17.8301 10.16 17.8294C10.1006 17.8287 10.0419 17.8161 9.9875 17.7926L8.9825 17.2694L8 17.7926C7.87304 17.8602 7.71786 17.8502 7.601 17.7668C7.48415 17.6835 7.42639 17.5416 7.4525 17.4021L7.6475 16.3042L6.815 15.5157C6.71696 15.4133 6.68259 15.2669 6.725 15.1326C6.76875 15.0001 6.88483 14.9031 7.025 14.8821L8.15 14.7789L8.6525 13.7768C8.70293 13.6723 8.80041 13.5992 8.91323 13.5773L8.9825 13.5705ZM16.0175 14.7494L15.7625 15.2505C15.7076 15.3609 15.6011 15.4379 15.4775 15.4568L14.915 15.5378L15.3275 15.9284C15.4131 16.0138 15.4522 16.1342 15.4325 16.2526L15.335 16.8052L15.8375 16.5473C15.8918 16.5137 15.9535 16.4935 16.0175 16.4884C16.0779 16.488 16.1374 16.5033 16.19 16.5326L16.6925 16.7905L16.595 16.2526C16.5773 16.133 16.6191 16.0124 16.7075 15.9284L17.1125 15.5378L16.55 15.4568C16.4278 15.4346 16.3228 15.3586 16.265 15.2505L16.0175 14.7494ZM8.96 14.7347L8.75 15.2357C8.69224 15.3438 8.58718 15.4199 8.465 15.4421L7.8875 15.5157L8.2925 15.9063C8.38087 15.9903 8.42273 16.1109 8.405 16.2305L8.3075 16.7831L8.81 16.5252C8.91983 16.4662 9.05267 16.4662 9.1625 16.5252L9.665 16.7831L9.5675 16.2526C9.54785 16.1342 9.58686 16.0138 9.6725 15.9284L10.085 15.5157L9.5 15.4421C9.37637 15.4232 9.26994 15.3462 9.215 15.2357L8.96 14.7347ZM12.515 9.621C12.6542 9.621 12.7828 9.69385 12.8525 9.81216L13.355 10.8069L14.4725 10.969C14.6148 10.9891 14.7336 11.0859 14.78 11.2195C14.8209 11.3529 14.7834 11.4975 14.6825 11.5953L13.8725 12.3764L14.06 13.4743C14.0903 13.6135 14.0308 13.7567 13.91 13.8353C13.8421 13.8821 13.7603 13.9054 13.6775 13.9016C13.6171 13.902 13.5576 13.8868 13.505 13.8574L12.5 13.3711L11.495 13.8869C11.3768 13.964 11.2232 13.964 11.105 13.8869C10.9842 13.8083 10.9247 13.665 10.955 13.5258L11.1425 12.4279L10.3325 11.5953C10.2369 11.4944 10.2053 11.3502 10.25 11.2195C10.2964 11.0859 10.4152 10.9891 10.5575 10.969L11.675 10.8069L12.1775 9.81216C12.2472 9.69385 12.3758 9.621 12.515 9.621ZM12.5 10.8069L12.245 11.3079C12.1915 11.4165 12.0883 11.4932 11.9675 11.5143L11.3975 11.5879L11.81 11.9858C11.8991 12.0692 11.9387 12.1915 11.915 12.3101L11.8175 12.8627L12.3275 12.5974C12.3819 12.5739 12.4406 12.5614 12.5 12.5606C12.5569 12.5495 12.6156 12.5495 12.6725 12.5606L13.1825 12.8258L13.085 12.2732C13.0613 12.1546 13.1009 12.0323 13.19 11.949L13.6025 11.5511L13.0325 11.4774C12.9117 11.4564 12.8085 11.3796 12.755 11.2711L12.5 10.8069ZM17 7.41048H8V8.16058H17V7.41048ZM19.2857 5.93679H5.71429V6.67364H19.2857V5.93679Z"/>
</svg>
