<svg viewBox="0 0 24 24" xmlns="http://www.w3.org/2000/svg" data-title="Rating" fill="currentColor" stroke="none">
  <path fill-rule="evenodd" d="m19.14,5c.18,0,.32.13.35.3v.07s0,1.47,0,1.47c0,.18-.13.33-.29.36h-.06s-1.89,0-1.89,0v.75h1.88c.18,0,.34.13.37.3v.07s0,8.09,0,8.09c0,1.38-1.05,2.5-2.36,2.58h-.14s-10,0-10,0c-1.33,0-2.43-1.08-2.5-2.44v-.14s0-8.09,0-8.09c0-.18.14-.33.31-.36h.06s1.88,0,1.88,0v-.75h-1.89c-.18,0-.32-.13-.35-.3v-.07s0-1.47,0-1.47c0-.18.13-.33.29-.36h.06s14.29,0,14.29,0Zm-12.39,3.68h-1.5s-.04,7.74-.04,7.74c0,.93.67,1.71,1.55,1.83h.12s.12.02.12.02h10c.95,0,1.72-.76,1.78-1.72v-.12s-.03-7.74-.03-7.74h-1.5s0,0,0,0h-.75s-9,0-9,0h0s-.75,0-.75,0h0Zm8.76,4.66c.14,0,.26.07.33.18l.5,1.05,1.12.15c.14.02.26.12.3.25.04.13,0,.28-.09.38l-.82.77.19,1.1c.03.14-.03.28-.15.36-.07.03-.14.04-.22.03-.06,0-.12-.01-.18-.04l-1-.52-1.01.52c-.12.07-.27.07-.4,0-.11-.08-.17-.22-.15-.36l.19-1.1-.81-.82c-.1-.1-.14-.25-.1-.38.05-.13.16-.23.3-.25l1.12-.15.5-1c.07-.11.2-.18.33-.18Zm-7.03.03c.14,0,.27.08.34.21l.5,1,1.12.15c.14.02.25.12.3.25.04.14,0,.28-.1.38l-.81.74.19,1.1c.02.14-.04.28-.15.36-.07.04-.14.07-.23.07-.06,0-.12-.01-.17-.04l-1.01-.52-.98.52c-.13.07-.28.06-.4-.03-.12-.08-.17-.23-.15-.36l.2-1.1-.83-.79c-.1-.1-.13-.25-.09-.38.04-.13.16-.23.3-.25l1.12-.1.5-1c.05-.1.15-.18.26-.2h.07Zm7.03,1.18l-.26.5c-.05.11-.16.19-.28.21l-.56.08.41.39c.09.09.12.21.1.32l-.1.55.5-.26c.05-.03.12-.05.18-.06.06,0,.12.01.17.04l.5.26-.1-.54c-.02-.12.02-.24.11-.32l.4-.39-.56-.08c-.12-.02-.23-.1-.28-.21l-.25-.5Zm-7.06-.01l-.21.5c-.06.11-.16.18-.28.21l-.58.07.4.39c.09.08.13.2.11.32l-.1.55.5-.26c.11-.06.24-.06.35,0l.5.26-.1-.53c-.02-.12.02-.24.1-.32l.41-.41-.59-.07c-.12-.02-.23-.1-.28-.21l-.26-.5Zm3.56-5.11c.14,0,.27.07.34.19l.5.99,1.12.16c.14.02.26.12.31.25.04.13,0,.28-.1.38l-.81.78.19,1.1c.03.14-.03.28-.15.36-.07.05-.15.07-.23.07-.06,0-.12-.01-.17-.04l-1.01-.49-1.01.52c-.12.08-.27.08-.39,0-.12-.08-.18-.22-.15-.36l.19-1.1-.81-.83c-.1-.1-.13-.25-.08-.38.05-.13.17-.23.31-.25l1.12-.16.5-.99c.07-.12.2-.19.34-.19Zm-.02,1.19l-.26.5c-.05.11-.16.19-.28.21l-.57.07.41.4c.09.08.13.21.1.32l-.1.55.51-.27c.05-.02.11-.04.17-.04.06-.01.12-.01.17,0l.51.27-.1-.55c-.02-.12.02-.24.1-.32l.41-.4-.57-.07c-.12-.02-.22-.1-.28-.21l-.26-.46Zm4.5-3.4H7.5v.75h9v-.75Zm2.29-1.47H5.21v.74h13.57v-.74Z"/>
</svg>
