<svg viewBox="0 0 24 24" xmlns="http://www.w3.org/2000/svg" data-title="RearviewMirror" fill="currentColor" stroke="none">
  <path fill-rule="evenodd" d="m11.47,6.8c4,0,8.28,1.84,8.52,4.92.08,1.07-.29,2.09-1.08,2.95-1.5,1.63-4.32,2.53-7.94,2.53h-6.57c-.22,0-.4-.18-.4-.4v-2.83c0-.22.18-.4.4-.4h2.09c-.41-1.58-.1-3.41.84-4.74.93-1.32,2.4-2.04,4.14-2.04Zm0,.8c-1.89,0-2.94.93-3.49,1.71-.88,1.25-1.11,3.02-.59,4.51,0,.03.02.09.03.12.01.11-.02.23-.1.32-.08.09-.19.14-.3.14h-.95v2.03h4.9c3.34,0,6.02-.83,7.35-2.27.64-.69.94-1.5.87-2.35-.18-2.31-3.65-4.19-7.73-4.19Zm-6.19,6.78h-.47v2.03h.47v-2.03Zm6.48-6.45c3.34,0,6.92,1.44,7.13,3.85.07.8-.21,1.57-.81,2.22-1.23,1.34-3.63,2.07-6.76,2.07-2.12,0-3.3-1.6-3.62-2.44-.5-1.29-.32-2.81.46-3.95.78-1.13,2.06-1.76,3.6-1.76Zm0,.8c-1.63,0-2.5.77-2.94,1.41-.63.91-.77,2.17-.38,3.21,0,.02.77,1.93,2.88,1.93,2.86,0,5.11-.66,6.17-1.82.45-.49.65-1.03.6-1.61-.15-1.72-2.99-3.12-6.33-3.12Zm3.28,3.2c.2-.09.44-.02.54.18.1.2.01.44-.18.54l-3.09,1.51c-.06.03-.12.04-.18.04-.15,0-.29-.08-.36-.22-.1-.2-.01-.44.18-.54l3.09-1.51Zm.54-1.55c.2-.1.44-.02.54.18.1.2.01.44-.18.54l-5.18,2.53c-.06.03-.12.04-.18.04-.15,0-.29-.08-.36-.22-.1-.2-.02-.44.18-.54l5.18-2.53Zm-1.55-.53c.2-.1.44-.02.54.18.1.2.01.44-.18.54l-3.09,1.51c-.06.03-.12.04-.18.04-.15,0-.29-.08-.36-.22-.1-.2-.02-.44.18-.54l3.09-1.51Z"/>
</svg>
