<svg viewBox="0 0 24 24" xmlns="http://www.w3.org/2000/svg" data-title="RearviewCamera" fill="currentColor" stroke="none">
  <path d="M5.98 7.95c-.24 0-.44-.19-.44-.43s.19-.43.44-.43h2.4c.24 0 .44.19.44.43s-.19.43-.44.43h-2.4ZM5.98 9.07c-.24 0-.44-.19-.44-.43s.19-.43.44-.43h2.4c.24 0 .44.19.44.43s-.19.43-.44.43h-2.4ZM13.9 14.59h-4.47c-.24 0-.44-.19-.44-.43s.19-.43.44-.43h4.47c.24 0 .44.19.44.43s-.19.43-.44.43ZM12.47 11.55h-1.15c-.24 0-.44-.19-.44-.43s.19-.43.44-.43h1.15c.24 0 .44.19.44.43s-.19.43-.44.43ZM15.24 11.55h-1.4c-.24 0-.44-.19-.44-.43s.19-.43.44-.43h1.4c.24 0 .44.19.44.43s-.19.43-.44.43Z"/>
  <path d="m17.91,18.4H6.09c-1.15,0-2.09-.91-2.09-2.04V7.64c0-1.13.93-2.04,2.09-2.04h11.83c1.15,0,2.09.91,2.09,2.04v8.73c0,1.12-.93,2.04-2.09,2.04ZM6.09,6.44c-.68,0-1.23.54-1.23,1.2v8.73c0,.66.55,1.2,1.23,1.2h11.83c.68,0,1.23-.54,1.23-1.2V7.64c0-.66-.55-1.2-1.23-1.2H6.09Z"/>
  <path d="M5.98 16.71c-.24 0-.44-.19-.44-.43s.18-.42.42-.42.44.19.44.42-.19.43-.44.43h.01ZM18.06 7.95c-.24 0-.44-.19-.44-.43s.18-.43.42-.43.44.19.44.43-.19.43-.44.43h.01ZM7.22 18.4c-.24 0-.44-.19-.44-.43 0-4.85 3.55-8.15 3.7-8.29.17-.16.45-.15.61.02.16.17.15.44-.02.59-.03.03-3.43 3.19-3.43 7.67 0 .23-.19.43-.44.43h.01ZM14.61 18.4c-.24 0-.44-.19-.44-.43 0-4.83 2.74-8.11 2.85-8.25.15-.18.42-.2.61-.06.18.15.21.41.06.59-.02.03-2.66 3.2-2.66 7.72 0 .23-.19.43-.44.43h.01ZM5.98 15.59c-.24 0-.44-.19-.44-.43s.18-.43.42-.43.44.19.44.43-.19.43-.44.43h.01ZM5.98 14.47c-.24 0-.44-.19-.44-.43s.18-.42.42-.42.44.19.44.42-.19.43-.44.43h.01Z"/>
</svg>
