<svg viewBox="0 0 24 24" xmlns="http://www.w3.org/2000/svg" data-title="Refresh" fill="currentColor" stroke="none">
  <path fill-rule="evenodd" clip-rule="evenodd" d="M21.9446 16.9104 21.2536 14.1784C21.2536 14.1784 21.2203 14.12 21.212 14.0951 21.187 14.0368 21.162 13.9784 21.1287 13.9201 21.0954 13.8702 21.0621 13.8202 21.0205 13.7785 20.9789 13.7369 20.9372 13.6952 20.8873 13.6619 20.8373 13.6203 20.779 13.587 20.7208 13.562 20.6875 13.5453 20.6708 13.5287 20.6375 13.512 20.6125 13.5037 20.5792 13.512 20.5543 13.5037 20.4877 13.487 20.4294 13.4787 20.3628 13.4787 20.2962 13.4787 20.2296 13.4787 20.163 13.487 20.138 13.487 20.1047 13.487 20.0797 13.487L17.3074 14.17C16.7829 14.295 16.4665 14.8197 16.5997 15.3362 16.7329 15.8526 17.2574 16.1608 17.7819 16.0358L18.4979 15.8609C17.9651 16.6689 17.3074 17.3852 16.5248 17.9683 15.2011 18.9429 13.6193 19.5176 11.9792 19.6092 10.4806 19.6092 9.01538 19.1511 7.79155 18.3015 6.55941 17.4519 5.61865 16.2441 5.10248 14.8447 4.91932 14.3449 4.36153 14.0867 3.85368 14.27 3.34584 14.4532 3.08775 15.003 3.27091 15.5028 3.92028 17.2686 5.1108 18.8013 6.67596 19.8758 8.24112 20.9586 10.106 21.5333 12.0125 21.5333 12.0291 21.5333 12.0458 21.5333 12.0624 21.5333 14.1021 21.4251 16.0669 20.7171 17.6987 19.5093 18.6061 18.8429 19.3804 18.0349 20.0131 17.127L20.0797 17.3936C20.2129 17.91 20.7374 18.2182 21.2619 18.0932 21.7864 17.9683 22.1028 17.4435 21.9696 16.9271L21.9446 16.9104ZM3.08775 11.0631C3.1377 11.1048 3.19598 11.1381 3.25426 11.1631 3.27923 11.1797 3.30421 11.1964 3.32919 11.213 3.36249 11.2214 3.38746 11.213 3.42076 11.2297 3.48737 11.2464 3.54564 11.2547 3.61225 11.2547 3.67885 11.2547 3.74545 11.2547 3.81205 11.2464 3.84536 11.2464 3.87033 11.2464 3.90363 11.2464L6.67596 10.5633C7.20046 10.4384 7.51682 9.91363 7.38361 9.3972 7.25041 8.88076 6.72591 8.57257 6.20142 8.69751L5.55204 8.85577C6.08487 8.10612 6.75089 7.40643 7.52514 6.81504 8.8905 5.76551 10.4723 5.12414 11.9875 5.12414 13.5027 5.12414 14.9763 5.59892 16.2168 6.45687 17.4572 7.32314 18.3897 8.53925 18.8975 9.94695 19.0807 10.4467 19.6302 10.7133 20.138 10.53 20.6458 10.3551 20.9122 9.80534 20.7291 9.30557 20.088 7.52305 18.9058 5.98208 17.3407 4.88258 15.7755 3.79141 13.9107 3.20001 11.9875 3.20001 9.92283 3.20001 7.93308 4.05796 6.31797 5.29906 5.43549 5.98208 4.64459 6.79838 4.00354 7.68131L3.92028 7.3398C3.78708 6.82337 3.26258 6.51517 2.73809 6.64012 2.21359 6.76506 1.89723 7.28982 2.03044 7.80625L2.72144 10.5383C2.72144 10.5383 2.74641 10.5883 2.76306 10.6216 2.78804 10.6883 2.81302 10.7383 2.84632 10.7966 2.87962 10.8465 2.91292 10.8965 2.95455 10.9382 2.99617 10.9798 3.0378 11.0215 3.08775 11.0631Z"/>
</svg>
