<svg viewBox="0 0 24 24" xmlns="http://www.w3.org/2000/svg" data-title="Refund" fill="currentColor" stroke="none">
  <path d="M19.9375 6.34777C21.0158 7.73987 21.7624 9.45953 21.9283 11.2611C22.1771 13.0626 21.7624 14.8642 20.9329 16.5838C20.0205 18.1397 18.6933 19.4499 17.1173 20.2688C15.7901 21.0058 14.2971 21.3333 12.804 21.3333C12.6381 21.3333 12.4929 21.3129 12.3478 21.2924C12.2026 21.2719 12.0575 21.2514 11.8916 21.2514C10.1496 21.0877 8.40774 20.3507 6.99762 19.2042C6.58288 18.8767 6.49993 18.2216 6.83173 17.8121C7.16352 17.4027 7.8271 17.3208 8.24184 17.6484C9.32017 18.5491 10.6473 19.0405 11.9745 19.2042C13.4676 19.368 14.8777 19.0405 16.1219 18.3854C17.3661 17.7303 18.4445 16.6657 19.108 15.4374C19.7716 14.2091 20.1034 12.8169 19.9375 11.4248C19.8546 10.0327 19.2739 8.64065 18.3615 7.5761C17.4491 6.51155 16.2049 5.69267 14.8777 5.28323C13.5505 4.87378 12.1404 4.87378 10.7303 5.28323C9.32017 5.69267 8.1589 6.51155 7.24647 7.5761C6.08519 8.9682 5.42161 10.6879 5.42161 12.4894L5.9193 11.9981C6.16814 11.7524 6.66583 11.7524 6.91467 11.9981C7.16352 12.2437 7.16352 12.7351 6.91467 12.9807L5.00687 14.7823C4.84097 14.8642 4.67508 14.946 4.50918 14.946C4.34328 14.946 4.17739 14.8642 4.01149 14.7823L2.18663 12.8988C1.93779 12.6532 1.93779 12.1618 2.18663 11.9162C2.43548 11.6705 2.93317 11.6705 3.18201 11.9162L3.43085 12.1618C3.5138 10.0327 4.34328 7.98554 5.67045 6.34777C6.83173 4.95567 8.40774 3.97301 10.2326 3.39979C11.9745 2.82658 13.7994 2.90846 15.5413 3.39979C17.2832 3.97301 18.7762 4.95567 19.9375 6.34777Z"/>
  <path d="M9.32002 13.5539C8.90528 13.5539 8.57349 13.2264 8.57349 12.8169C8.57349 12.4075 8.90528 12.0799 9.32002 11.998H9.81771V11.7524H9.32002C8.90528 11.7524 8.57349 11.4248 8.57349 11.0154C8.57349 10.6059 8.90528 10.2784 9.32002 10.2784H10.0666C10.2324 9.78706 10.5642 9.21384 10.979 8.8044C11.8085 7.98552 12.8868 7.49419 14.131 7.4123C14.6287 7.4123 15.0434 7.49419 15.4582 7.65796C15.9559 7.82174 16.2047 8.39496 15.9559 8.8044C15.79 9.29573 15.2093 9.54139 14.7116 9.37762C14.4628 9.29573 14.2969 9.29573 14.0481 9.29573C13.4674 9.37762 12.8038 9.62328 12.3891 10.1146C12.3891 10.1494 12.3891 10.1694 12.3827 10.1872C12.3741 10.2113 12.3538 10.2313 12.3062 10.2784H12.8868C13.3015 10.2784 13.6333 10.6059 13.6333 11.0154C13.6333 11.4248 13.3015 11.7524 12.8868 11.7524H11.8085V11.998H12.8868C13.3015 11.998 13.6333 12.3256 13.6333 12.735C13.6333 13.1445 13.3015 13.472 12.8868 13.472H12.3062C12.3062 13.5539 12.3061 13.5539 12.3891 13.6358C12.8868 14.1271 13.4674 14.4547 14.131 14.4547C14.3799 14.4547 14.6287 14.3728 14.8775 14.2909C15.3752 14.0453 15.9559 14.2909 16.2047 14.7822C16.4536 15.2736 16.2047 15.8468 15.707 16.0925C15.2093 16.3381 14.7116 16.42 14.131 16.42C12.8868 16.42 11.8085 15.9287 10.979 15.0279C10.5642 14.6185 10.2324 14.1271 10.0666 13.5539H9.32002Z"/>
</svg>
