<svg viewBox="0 0 24 24" xmlns="http://www.w3.org/2000/svg" data-title="Refund" fill="currentColor" stroke="none">
  <path d="m19.94,6.18c1.08,1.39,1.82,3.11,1.99,4.91.25,1.8-.17,3.6-1,5.32-.91,1.56-2.24,2.87-3.82,3.69-1.33.74-2.82,1.06-4.31,1.06-.17,0-.31-.02-.46-.04-.15-.02-.29-.04-.46-.04-1.74-.16-3.48-.9-4.89-2.05-.41-.33-.5-.98-.17-1.39.33-.41,1-.49,1.41-.16,1.08.9,2.41,1.39,3.73,1.56,1.49.16,2.9-.16,4.15-.82,1.24-.66,2.32-1.72,2.99-2.95.66-1.23,1-2.62.83-4.01-.08-1.39-.66-2.78-1.58-3.85s-2.16-1.88-3.48-2.29c-1.33-.41-2.74-.41-4.15,0-1.41.41-2.57,1.23-3.48,2.29-1.16,1.39-1.82,3.11-1.82,4.91l.5-.49c.25-.25.75-.25,1,0,.25.25.25.74,0,.98l-1.91,1.8c-.17.08-.33.16-.5.16s-.33-.08-.5-.16l-1.82-1.88c-.25-.25-.25-.74,0-.98.25-.25.75-.25,1,0l.25.25c.08-2.13.91-4.18,2.24-5.81,1.16-1.39,2.74-2.37,4.56-2.95,1.74-.57,3.57-.49,5.31,0,1.74.57,3.23,1.56,4.4,2.95Z"/>
  <path d="m9.32,13.39c-.41,0-.75-.33-.75-.74s.33-.74.75-.82h.5v-.25h-.5c-.41,0-.75-.33-.75-.74s.33-.74.75-.74h.75c.17-.49.5-1.06.91-1.47.83-.82,1.91-1.31,3.15-1.39.5,0,.91.08,1.33.25.5.16.75.74.5,1.15-.17.49-.75.74-1.24.57-.25-.08-.41-.08-.66-.08-.58.08-1.24.33-1.66.82,0,.03,0,.05,0,.07,0,.02-.03.04-.08.09h.58c.41,0,.75.33.75.74s-.33.74-.75.74h-1.08v.25h1.08c.41,0,.75.33.75.74s-.33.74-.75.74h-.58q0,.08.08.16c.5.49,1.08.82,1.74.82.25,0,.5-.08.75-.16.5-.25,1.08,0,1.33.49.25.49,0,1.06-.5,1.31-.5.25-1,.33-1.58.33-1.24,0-2.32-.49-3.15-1.39-.41-.41-.75-.9-.91-1.47h-.75Z"/>
</svg>
