<svg viewBox="0 0 24 24" xmlns="http://www.w3.org/2000/svg" data-title="Renovation" fill="currentColor" stroke="none">
  <path fill-rule="evenodd" d="m9.35,5c.2.01.38.17.38.38,0,.7.22,1.28.59,1.69l.02.02,1.43-1.15c.12-.09.27-.11.4-.04l.06.04,2.97,2.38v-.42c0-.22.17-.39.38-.39h2.07c.21,0,.38.17.38.39v2.69l.76.61c.13.1.17.27.13.42v6.6h.22c.21,0,.38.17.38.39s-.17.39-.38.39H4.88c-.21,0-.38-.17-.38-.39s.17-.39.38-.39h.22v-6.6c-.04-.15,0-.32.13-.42l2.77-2.23-.06-.04c-.3-.17-.66-.28-1.06-.3h-.17s-.03,0-.05,0c-.2,0-.37-.17-.38-.38,0-.22.17-.39.37-.39,1.43-.02,2.34-.99,2.32-2.46,0-.22.16-.39.37-.39Zm3.74,8.22h-2.19v5.01h2.19v-5.01Zm-1.09-6.47l-1.02.82c.32.15.7.24,1.13.22.18,0,.38.17.38.38,0,.22-.16.39-.37.39-1.43.02-2.34.98-2.32,2.46,0,.22-.16.39-.37.39-.21,0-.38-.17-.38-.38,0-.62-.18-1.13-.48-1.53l-2.72,2.19v6.53h4.31v-5.4c0-.21.17-.39.38-.39h2.94c.21,0,.38.17.38.39v5.4h4.31v-6.53l-6.15-4.94Zm5.06,5.69c.21,0,.38.17.38.39v3.31c.17.03.31.18.31.37,0,.22-.17.39-.38.39h-2.68c-.21,0-.38-.17-.38-.39,0-.19.13-.34.31-.37v-3.31c0-.21.17-.39.38-.39h2.07Zm-7.98,0c.21,0,.38.17.38.39v3.31c.17.03.31.18.31.37,0,.22-.17.39-.38.39h-2.68c-.21,0-.38-.17-.38-.39,0-.19.13-.34.31-.37v-3.31c0-.21.17-.39.38-.39h2.07Zm7.6.78h-1.32v2.9h1.32v-2.9Zm-7.98,0h-1.32v2.9h1.32v-2.9Zm8.56-4.92h-1.32v.64l1.32,1.06v-1.7Zm-7.89-1.26c-.13.25-.28.48-.47.68s-.41.37-.64.51c.24.13.46.29.66.49.19.2.36.42.49.67.13-.25.28-.48.47-.68.19-.2.4-.37.64-.51-.24-.13-.46-.29-.65-.49-.2-.2-.36-.42-.49-.67Z"/>
</svg>
