<svg viewBox="0 0 24 24" xmlns="http://www.w3.org/2000/svg" data-title="Renovation" fill="currentColor" stroke="none">
  <path fill-rule="evenodd" clip-rule="evenodd" d="M9.85175 5.19995C10.052 5.21083 10.2275 5.36854 10.2305 5.58375C10.2389 6.28048 10.4503 6.85938 10.8203 7.27508L10.8395 7.29451L12.2697 6.14546C12.3861 6.05289 12.5416 6.03967 12.6686 6.10579L12.7295 6.14546L15.6965 8.52981V8.10717C15.6965 7.89196 15.8645 7.71871 16.0715 7.71871H18.1385C18.3462 7.71871 18.5135 7.89196 18.5135 8.10717V10.793L19.2748 11.4044C19.4008 11.5069 19.445 11.6748 19.4015 11.8239V18.423H19.625C19.832 18.423 20 18.5971 20 18.8115C20 19.0267 19.832 19.2 19.625 19.2H5.375C5.16725 19.2 5 19.0267 5 18.8115C5 18.5971 5.16725 18.423 5.375 18.423H5.5985V11.8239C5.555 11.6748 5.59925 11.5069 5.72525 11.4044L8.49875 9.1762L8.44055 9.13978C8.13935 8.96582 7.78511 8.86007 7.38518 8.83635L7.211 8.83125C7.196 8.83125 7.181 8.8297 7.166 8.83125C6.96125 8.83125 6.794 8.65955 6.791 8.44745C6.791 8.22992 6.95675 8.05589 7.16225 8.05434C8.588 8.03569 9.49775 7.06921 9.4805 5.59307C9.4805 5.37631 9.6455 5.20151 9.85175 5.19995ZM13.5935 13.4158H11.4065V18.423H13.5935V13.4158ZM12.5 6.9449L11.4807 7.76377C11.8055 7.91449 12.179 7.99917 12.6058 7.98597C12.7888 7.99218 12.983 8.15456 12.9852 8.36976C12.9852 8.58652 12.8202 8.75977 12.6147 8.76288C11.1897 8.7792 10.2793 9.74645 10.2965 11.2226C10.2965 11.4394 10.1315 11.6142 9.926 11.6157C9.71675 11.6157 9.54875 11.4456 9.5465 11.2319C9.539 10.6158 9.365 10.1007 9.07025 9.70139L6.3485 11.8884V18.423H10.6565V13.0266C10.6565 12.8129 10.8237 12.6381 11.0315 12.6381H13.9685C14.1755 12.6381 14.3435 12.8129 14.3435 13.0266V18.423H18.6515V11.8884L12.5 6.9449ZM17.558 12.6381C17.765 12.6381 17.933 12.8129 17.933 13.0266V16.3339C18.107 16.3673 18.2413 16.518 18.2413 16.7076C18.2413 16.9236 18.0733 17.0961 17.8663 17.0961H15.1835C14.9765 17.0961 14.8085 16.9236 14.8085 16.7076C14.8085 16.518 14.9428 16.3673 15.1168 16.3339V13.0266C15.1168 12.8129 15.2848 12.6381 15.4918 12.6381H17.558ZM9.581 12.6381C9.78875 12.6381 9.956 12.8129 9.956 13.0266V16.3339C10.1307 16.3673 10.2643 16.518 10.2643 16.7076C10.2643 16.9236 10.097 17.0961 9.88925 17.0961H7.20575C6.99875 17.0961 6.83075 16.9236 6.83075 16.7076C6.83075 16.518 6.965 16.3673 7.139 16.3339V13.0266C7.139 12.8129 7.307 12.6381 7.514 12.6381H9.581ZM17.183 13.415H15.8668V16.3192H17.183V13.415ZM9.206 13.415H7.889V16.3192H9.206V13.415ZM17.7635 8.49562H16.4465V9.13269L17.7635 10.1908V8.49562ZM9.875 7.23624C9.749 7.48641 9.59075 7.71249 9.401 7.91449C9.21125 8.11649 8.99525 8.28663 8.7575 8.42259C8.999 8.55156 9.218 8.71704 9.413 8.91283C9.6065 9.11016 9.77075 9.33314 9.902 9.57942C10.028 9.33003 10.187 9.10239 10.3767 8.90117C10.5665 8.69917 10.7817 8.53058 11.0187 8.39385C10.7787 8.26333 10.559 8.0994 10.3647 7.90206C10.1697 7.7055 10.007 7.48175 9.875 7.23624Z"/>
</svg>
