<svg viewBox="0 0 24 24" xmlns="http://www.w3.org/2000/svg" data-title="Rental" fill="currentColor" stroke="none">
  <path d="m23.91,11.53c-.06-.15-.15-.29-.27-.4L12.87.36c-.11-.12-.25-.21-.4-.27-.15-.06-.31-.09-.47-.09s-.32.03-.47.09c-.15.06-.29.15-.4.27L.36,11.13c-.12.11-.21.25-.27.4-.06.15-.09.31-.09.47s.03.32.09.47c.06.15.15.29.27.4.11.11.25.21.4.27.15.06.31.09.47.09s.32-.03.47-.09c.15-.06.29-.15.4-.27l.38-.38v10.28c0,.33.13.64.36.87.23.23.54.36.87.36h16.57c.33,0,.64-.13.87-.36.23-.23.36-.54.36-.87v-10.28l.38.38c.11.12.25.21.4.27.15.06.31.09.47.09s.32-.03.47-.09c.15-.06.29-.15.4-.27.11-.11.21-.25.27-.4.06-.15.09-.31.09-.47s-.03-.32-.09-.47h.01ZM4.95,21.54v-11.52l7.05-7.05,7.05,7.05v11.51H4.95Z"/>
  <path d="m13.66,8.22c-.5-.44-1.13-.68-1.8-.68s-1.3.24-1.8.68c-.5.44-.82,1.04-.9,1.7s.08,1.32.45,1.87c.31.46.75.81,1.27,1.01v6.15c0,.26.1.51.29.69.18.18.43.29.69.29s.51-.1.69-.29c.08-.08.15-.18.2-.29h.26c.26,0,.51-.1.69-.29.18-.18.29-.43.29-.69s-.1-.51-.29-.69c-.18-.18-.43-.29-.69-.29h-.18v-.35h.18c.26,0,.51-.1.69-.29.18-.18.29-.43.29-.69s-.1-.51-.29-.69c-.18-.18-.43-.29-.69-.29h-.18v-2.28c.51-.2.96-.55,1.27-1.01.37-.55.53-1.21.45-1.87s-.4-1.26-.9-1.7h.01Zm-2.42,1.63c.08-.12.2-.22.34-.28.14-.06.29-.07.44-.04.15.03.28.1.39.21s.18.24.21.39c.03.15.01.3-.04.44-.06.14-.15.26-.28.34-.12.08-.27.13-.42.13-.2,0-.39-.08-.53-.22-.14-.14-.22-.33-.22-.53,0-.15.02-.31.11-.44Z"/>
</svg>
