<svg viewBox="0 0 24 24" xmlns="http://www.w3.org/2000/svg" data-title="RocketOutline" fill="currentColor" stroke="none">
  <path fill-rule="evenodd" clip-rule="evenodd" d="M19.6406 1.63667C21.0242 1.37138 22.2338 2.60969 21.9614 4.01253L21.7842 4.92508C21.2178 7.84183 19.8245 10.512 17.7944 12.6171L17.8319 16.1406C17.844 17.2789 17.2177 18.3253 16.2171 18.8385L14.3018 19.8207C13.0703 20.4523 11.5678 19.9553 10.9388 18.7083L9.8709 16.5911 7.19422 13.8729 5.11028 12.7888C3.88241 12.1501 3.39301 10.6242 4.0149 9.37364L4.98211 7.42864C5.48745 6.41241 6.51781 5.77638 7.63879 5.78869L11.1206 5.82691C13.2143 3.76564 15.8669 2.36026 18.7592 1.80567L19.6406 1.63667ZM6.69875 11.2467 9.32317 7.91526 7.61635 7.89653C7.28665 7.89291 6.9836 8.07997 6.83497 8.37886L5.86776 10.3239C5.8447 10.3703 5.8305 10.4188 5.82453 10.4676 5.80274 10.6456 5.89046 10.8263 6.05662 10.9127L6.69875 11.2467ZM11.2706 15.0315 8.73069 12.4521 13.285 6.68336C14.9601 5.26566 16.9739 4.29321 19.1444 3.87703L19.9001 3.73212 19.7477 4.51728C19.3274 6.68192 18.3782 8.68885 17.005 10.3626L11.2706 15.0315ZM12.4575 17.0954 12.7863 17.7473C12.8714 17.916 13.0493 18.0051 13.2246 17.983 13.2726 17.9769 13.3204 17.9625 13.3661 17.9391L15.2814 16.9569C15.5757 16.8059 15.7599 16.4982 15.7563 16.1633L15.7379 14.4304 12.4575 17.0954ZM8.40015 18.3508C8.40015 16.556 6.96743 15.101 5.20008 15.101 3.43272 15.101 2 16.556 2 18.3508V21.6006H5.20008C6.96743 21.6006 8.40015 20.1456 8.40015 18.3508ZM5.20008 17.209C5.82104 17.209 6.32443 17.7202 6.32443 18.3508 6.32443 18.9814 5.82104 19.4926 5.20008 19.4926H4.07572V18.3508C4.07572 17.7202 4.57911 17.209 5.20008 17.209Z"/>
</svg>
