<svg viewBox="0 0 24 24" xmlns="http://www.w3.org/2000/svg" data-title="Rooms" fill="currentColor" stroke="none">
  <path fill-rule="evenodd" clip-rule="evenodd" d="M19.0454 6.19995C19.2714 6.19995 19.4545 6.36784 19.4545 6.57495L19.4551 11.4816C20.3446 11.6481 21.0019 12.391 21 13.2673V17.825C21 18.0321 20.8188 18.2 20.5952 18.2H19.1337C18.9102 18.2 18.7289 18.0321 18.7289 17.825L18.7285 16.0865H6.27073L6.27107 17.825C6.27107 18.009 6.12789 18.1622 5.93907 18.1939L5.86631 18.2H4.40478C4.18123 18.2 4.00001 18.0321 4.00001 17.825V13.2683C3.99745 12.3993 4.64259 11.6605 5.54538 11.4843L5.54546 6.57495C5.54546 6.36784 5.72862 6.19995 5.95455 6.19995H19.0454ZM20.1902 13.7H4.80904L4.80873 17.45H5.46121L5.46155 15.712C5.46155 15.5279 5.60474 15.3748 5.79356 15.343L5.86631 15.337H19.1337C19.3572 15.337 19.5385 15.5049 19.5385 15.712L19.538 17.45H20.1897L20.1902 13.7ZM5.93798 12.1996L5.83693 12.1988C5.37194 12.2321 4.98941 12.5387 4.85822 12.9502L20.1417 12.9503C20.0195 12.5681 19.68 12.2766 19.2598 12.2108L19.1656 12.2H5.95455C5.949 12.2 5.94348 12.1999 5.93798 12.1996ZM18.6818 6.94995H6.31819V11.45L7.3059 11.4508C7.16918 11.2299 7.09091 10.9735 7.09091 10.7C7.09091 9.87152 7.80873 9.19995 8.6942 9.19995H10.124C11.0095 9.19995 11.7273 9.87152 11.7273 10.7C11.7273 10.9735 11.649 11.2299 11.5123 11.4508H13.4877C13.351 11.2299 13.2727 10.9735 13.2727 10.7C13.2727 9.87152 13.9905 9.19995 14.876 9.19995H16.3058C17.1913 9.19995 17.9091 9.87152 17.9091 10.7C17.9091 10.9735 17.8308 11.2299 17.6941 11.4508L18.6818 11.45V6.94995ZM10.124 9.8493H8.6942C8.19205 9.8493 7.78498 10.2302 7.78498 10.7C7.78498 11.0253 7.98025 11.308 8.26713 11.4511H10.5511C10.8379 11.308 11.0332 11.0253 11.0332 10.7C11.0332 10.2302 10.6261 9.8493 10.124 9.8493ZM16.3058 9.8493H14.876C14.3739 9.8493 13.9668 10.2302 13.9668 10.7C13.9668 11.0253 14.1621 11.308 14.4489 11.4511H16.7329C17.0197 11.308 17.215 11.0253 17.215 10.7C17.215 10.2302 16.8079 9.8493 16.3058 9.8493Z"/>
</svg>
