<svg viewBox="0 0 24 24" xmlns="http://www.w3.org/2000/svg" data-title="Rooms" fill="currentColor" stroke="none">
  <path fill-rule="evenodd" d="m18.55,6c.23,0,.41.17.41.38v4.91c.89.17,1.55.91,1.55,1.79v4.56c0,.21-.18.38-.4.38h-1.46c-.22,0-.4-.17-.4-.38v-1.74H5.77v1.74c0,.18-.14.34-.33.37h-.07s-1.46,0-1.46,0c-.22,0-.4-.17-.4-.38v-4.56c0-.87.64-1.61,1.55-1.78v-4.91c0-.21.18-.38.41-.38h13.09Zm1.14,7.5H4.31v3.75s.65,0,.65,0v-1.74c0-.18.14-.34.33-.37h.07s13.27,0,13.27,0c.22,0,.4.17.4.38v1.74s.65,0,.65,0v-3.75Zm-14.25-1.5h-.1c-.46.03-.85.34-.98.75h15.28c-.12-.38-.46-.67-.88-.74h-.09s-13.21-.01-13.21-.01c0,0-.01,0-.02,0Zm12.74-5.25H5.82v4.5h.99c-.14-.22-.21-.48-.21-.75,0-.83.72-1.5,1.6-1.5h1.43c.89,0,1.6.67,1.6,1.5,0,.27-.08.53-.22.75h1.98c-.14-.22-.22-.48-.22-.75,0-.83.72-1.5,1.6-1.5h1.43c.89,0,1.6.67,1.6,1.5,0,.27-.08.53-.22.75h.99v-4.5Zm-8.56,2.9h-1.43c-.5,0-.91.38-.91.85,0,.33.2.61.48.75h2.28c.29-.14.48-.43.48-.75,0-.47-.41-.85-.91-.85Zm6.18,0h-1.43c-.5,0-.91.38-.91.85,0,.33.2.61.48.75h2.28c.29-.14.48-.43.48-.75,0-.47-.41-.85-.91-.85Z"/>
</svg>
