<svg viewBox="0 0 24 24" xmlns="http://www.w3.org/2000/svg" data-title="RotateImage" fill="currentColor" stroke="none">
  <path d="M3.00175 13.5901C3.26485 13.5864 3.51667 13.4825 3.7061 13.2997 3.89017 13.111 3.99415 12.8583 3.99616 12.5945 3.99458 10.9627 4.49212 9.36952 5.42191 8.02925 6.35169 6.68898 7.66911 5.6659 9.197 5.09759 10.7249 4.52927 12.3899 4.44298 13.9683 4.85033 15.5466 5.25767 16.9625 6.13914 18.0255 7.37614L16.7576 7.11896C16.6274 7.08604 16.4918 7.08012 16.3592 7.10154 16.2266 7.12295 16.0998 7.17123 15.9865 7.24347 15.8733 7.31572 15.7759 7.41041 15.7005 7.52167 15.625 7.63293 15.5731 7.75843 15.5478 7.89051 15.5217 8.02265 15.5226 8.15871 15.5505 8.29049 15.5784 8.42227 15.6328 8.54701 15.7102 8.65715 15.7877 8.76729 15.8867 8.86053 16.0012 8.93125 16.1157 9.00197 16.2434 9.04869 16.3765 9.06857L20.0475 9.82352C20.1924 9.85159 20.3416 9.8476 20.4848 9.81177 20.6279 9.77594 20.7615 9.70913 20.8762 9.61611 21.0527 9.46953 21.1752 9.26807 21.2242 9.04371L21.97 5.3767C22.0029 5.24631 22.0088 5.11059 21.9874 4.97783 21.966 4.84507 21.9178 4.7181 21.8456 4.60469 21.7734 4.49127 21.6789 4.39382 21.5678 4.31829 21.4566 4.24275 21.3313 4.19075 21.1994 4.16546 21.067 4.13689 20.9301 4.1361 20.7975 4.16324 20.6648 4.19037 20.5393 4.24483 20.4287 4.3231 20.3202 4.39808 20.2277 4.4939 20.1566 4.60499 20.0855 4.71608 20.0371 4.84021 20.0144 4.97018L19.7492 6.28932C18.7845 5.1017 17.5602 4.15171 16.1708 3.51265 14.7814 2.8736 13.264 2.56254 11.7355 2.60342 10.207 2.6443 8.70838 3.03606 7.35505 3.74847 6.00171 4.46088 4.82986 5.4749 3.92985 6.71239 2.68958 8.42215 2.02234 10.4814 2.02392 12.5945 2.02594 12.8583 2.12986 13.111 2.31394 13.2997 2.49733 13.4815 2.7437 13.5855 3.00175 13.5901ZM21.6716 11.8893C21.4829 11.7058 21.2302 11.6032 20.9672 11.6032 20.7042 11.6032 20.4515 11.7058 20.2628 11.8893 20.1694 11.9812 20.0956 12.091 20.0458 12.2122 19.9959 12.3334 19.9711 12.4634 19.9728 12.5945 19.9773 14.2277 19.4811 15.823 18.5514 17.1651 17.6216 18.5071 16.303 19.5312 14.7735 20.0992 13.244 20.6672 11.5772 20.7518 9.99819 20.3415 8.41917 19.9311 7.00389 19.0457 5.94341 17.8046L7.203 18.0618C7.33317 18.0948 7.46869 18.1011 7.60135 18.0803 7.73402 18.0595 7.86109 18.012 7.97492 17.9407 8.08875 17.8693 8.18698 17.7757 8.26367 17.6653 8.34036 17.5549 8.39391 17.4301 8.42112 17.2985 8.44966 17.166 8.45045 17.029 8.42335 16.8962 8.39624 16.7634 8.34184 16.6376 8.26367 16.5269 8.18982 16.4174 8.09441 16.3241 7.98327 16.2527 7.87212 16.1814 7.74761 16.1336 7.61734 16.1121L3.94633 15.3655C3.81847 15.3388 3.6866 15.3375 3.55825 15.3618 3.4299 15.3861 3.30756 15.4355 3.19829 15.5072 3.08901 15.5788 2.99493 15.6713 2.92137 15.7794 2.84781 15.8875 2.79622 16.009 2.76959 16.137L2.02381 19.8123C1.99476 19.9411 1.99226 20.0745 2.01648 20.2043 2.0407 20.3341 2.09113 20.4576 2.16467 20.5672 2.31312 20.7872 2.54256 20.9393 2.80277 20.9904 2.94757 21.0208 3.09738 21.018 3.24092 20.9821 3.38446 20.9461 3.51798 20.878 3.63144 20.783 3.81335 20.6411 3.93713 20.4375 3.97946 20.2105L4.24464 18.8997C5.18198 20.0522 6.36326 20.982 7.70317 21.6219 9.04307 22.2618 10.5082 22.5958 11.9927 22.5999 13.5698 22.5903 15.1227 22.2099 16.526 21.4894 17.9294 20.7689 19.1441 19.7283 20.0722 18.4517 21.3125 16.7419 21.9798 14.6827 21.9782 12.5696 21.9697 12.3112 21.8595 12.0666 21.6716 11.8893Z"/>
  <path d="M13.8821 8.59564H10.0868C9.53072 8.59564 8.99749 8.81679 8.60432 9.21042C8.21114 9.60406 7.99025 10.138 7.99025 10.6946V14.4943C7.99243 15.0503 8.21399 15.5829 8.60669 15.9761C8.9994 16.3693 9.53139 16.5911 10.0868 16.5933H13.8821C14.4374 16.5911 14.9694 16.3693 15.3621 15.9761C15.7548 15.5829 15.9764 15.0503 15.9786 14.4943V10.6946C15.9786 10.138 15.7577 9.60406 15.3646 9.21042C14.9714 8.81679 14.4381 8.59564 13.8821 8.59564ZM13.9815 10.6946V14.4943C13.9781 14.5195 13.9666 14.5429 13.9486 14.5609C13.9306 14.5789 13.9073 14.5905 13.8821 14.5939H10.0868C10.0604 14.5939 10.0351 14.5834 10.0165 14.5648C9.99781 14.5461 9.98732 14.5207 9.98732 14.4943V10.6946C9.98019 10.6703 9.98019 10.6443 9.98732 10.6199H13.8572C13.8703 10.6162 13.884 10.6153 13.8975 10.6171C13.9109 10.6189 13.9238 10.6234 13.9355 10.6304C13.9471 10.6374 13.9572 10.6467 13.9651 10.6577C13.973 10.6688 13.9786 10.6813 13.9815 10.6946Z"/>
</svg>
