<svg viewBox="0 0 24 24" xmlns="http://www.w3.org/2000/svg" data-title="Scan" fill="currentColor" stroke="none">
  <path fill-rule="evenodd" clip-rule="evenodd" d="M2.69239 2.89241C3.13572 2.44907 3.73701 2.20001 4.36398 2.20001H6.44653C6.98534 2.20001 7.42214 2.63681 7.42214 3.17562 7.42214 3.71444 6.98534 4.15123 6.44653 4.15123H4.36398C4.25451 4.15123 4.14952 4.19472 4.07211 4.27213 3.99471 4.34953 3.95122 4.45452 3.95122 4.56399V6.64654C3.95122 7.18536 3.51442 7.62215 2.97561 7.62215 2.4368 7.62215 2 7.18536 2 6.64654V4.56399C2 3.93702 2.24906 3.33574 2.69239 2.89241ZM16.5779 3.17562C16.5779 2.63681 17.0147 2.20001 17.5535 2.20001H19.636C20.263 2.20001 20.8643 2.44907 21.3076 2.89241 21.7509 3.33574 22 3.93702 22 4.56399V6.64654C22 7.18536 21.5632 7.62215 21.0244 7.62215 20.4856 7.62215 20.0488 7.18536 20.0488 6.64654V4.56399C20.0488 4.45452 20.0053 4.34953 19.9279 4.27213 19.8505 4.19472 19.7455 4.15123 19.636 4.15123H17.5535C17.0147 4.15123 16.5779 3.71444 16.5779 3.17562ZM2.97561 16.7779C3.51442 16.7779 3.95122 17.2147 3.95122 17.7535V19.836C3.95122 19.9455 3.99471 20.0505 4.07211 20.1279 4.14952 20.2053 4.25451 20.2488 4.36398 20.2488H6.44653C6.98534 20.2488 7.42214 20.6856 7.42214 21.2244 7.42214 21.7632 6.98534 22.2 6.44653 22.2H4.36398C3.73701 22.2 3.13572 21.951 2.69239 21.5076 2.24906 21.0643 2 20.463 2 19.836V17.7535C2 17.2147 2.4368 16.7779 2.97561 16.7779ZM21.0244 16.7779C21.5632 16.7779 22 17.2147 22 17.7535V19.836C22 20.463 21.7509 21.0643 21.3076 21.5076 20.8643 21.951 20.263 22.2 19.636 22.2H17.5535C17.0147 22.2 16.5779 21.7632 16.5779 21.2244 16.5779 20.6856 17.0147 20.2488 17.5535 20.2488H19.636C19.7455 20.2488 19.8505 20.2053 19.9279 20.1279 20.0053 20.0505 20.0488 19.9455 20.0488 19.836V17.7535C20.0488 17.2147 20.4856 16.7779 21.0244 16.7779ZM6.331 6.36528C6.86982 6.36528 7.30661 6.80208 7.30661 7.34089V14.6298C7.30661 15.1686 6.86982 15.6054 6.331 15.6054 5.79219 15.6054 5.35539 15.1686 5.35539 14.6298V7.34089C5.35539 6.80208 5.79219 6.36528 6.331 6.36528ZM8.76064 6.36528C9.29946 6.36528 9.73625 6.80208 9.73625 7.34089V14.6298C9.73625 15.1686 9.29946 15.6054 8.76064 15.6054 8.22183 15.6054 7.78504 15.1686 7.78504 14.6298V7.34089C7.78504 6.80208 8.22183 6.36528 8.76064 6.36528ZM12.0002 6.36528C12.539 6.36528 12.9758 6.80208 12.9758 7.34089V14.6298C12.9758 15.1686 12.539 15.6054 12.0002 15.6054 11.4614 15.6054 11.0246 15.1686 11.0246 14.6298V7.34089C11.0246 6.80208 11.4614 6.36528 12.0002 6.36528ZM15.2397 6.36528C15.7785 6.36528 16.2153 6.80208 16.2153 7.34089V14.6298C16.2153 15.1686 15.7785 15.6054 15.2397 15.6054 14.7009 15.6054 14.2641 15.1686 14.2641 14.6298V7.34089C14.2641 6.80208 14.7009 6.36528 15.2397 6.36528ZM17.6693 6.36528C18.2082 6.36528 18.6449 6.80208 18.6449 7.34089V14.6298C18.6449 15.1686 18.2082 15.6054 17.6693 15.6054 17.1305 15.6054 16.6937 15.1686 16.6937 14.6298V7.34089C16.6937 6.80208 17.1305 6.36528 17.6693 6.36528ZM5.35539 17.0595C5.35539 16.5207 5.79219 16.0839 6.331 16.0839H17.6693C18.2082 16.0839 18.6449 16.5207 18.6449 17.0595 18.6449 17.5983 18.2082 18.0351 17.6693 18.0351H6.331C5.79219 18.0351 5.35539 17.5983 5.35539 17.0595Z"/>
</svg>
