<svg viewBox="0 0 24 24" xmlns="http://www.w3.org/2000/svg" data-title="Seats" fill="currentColor" stroke="none">
  <path fill-rule="evenodd" d="m5.37,19.5c-.18,0-.33-.13-.36-.31v-.07s0-8.25,0-8.25c0-.99.76-1.81,1.72-1.87h.12s.74,0,.74,0v-.75h-1.11c-.18,0-.33-.13-.36-.31v-.07s0-1.5,0-1.5c0-.99.76-1.81,1.72-1.87h.12s1.47,0,1.47,0c.98,0,1.78.77,1.84,1.75v.12s0,1.5,0,1.5c0,.18-.13.34-.3.37h-.07s-1.11,0-1.11,0v.75h.74c.6,0,1.14.29,1.47.75.31-.42.79-.7,1.34-.75h.14s.74,0,.74,0v-.75h-1.11c-.18,0-.33-.13-.36-.31v-.07s0-1.5,0-1.5c0-.99.76-1.81,1.72-1.87h.12s1.47,0,1.47,0c.98,0,1.78.77,1.84,1.75v.12s0,1.5,0,1.5c0,.18-.13.34-.3.37h-.07s-1.11,0-1.11,0v.75h.74c.98,0,1.78.77,1.84,1.75v.12s0,8.25,0,8.25c0,.18-.13.34-.3.37h-.07s-13.26,0-13.26,0Zm5.16-3h-3.68c-.61,0-1.11.5-1.11,1.12v1.12h5.89v-1.23c-.06-.53-.47-.96-1-1.01h-.11Zm6.63,0h-3.68c-.61,0-1.11.5-1.11,1.12v1.12h5.89v-1.12c0-.58-.44-1.07-1-1.12h-.11Zm-6.63-6.75h-3.68c-.57,0-1.05.45-1.1,1.02v.11s0,5.25,0,5.25c.31-.24.69-.37,1.11-.37h3.68c.41,0,.8.14,1.11.38v-5.25c0-.55-.39-1-.9-1.1l-.1-.02h-.11Zm6.63,0h-3.68c-.57,0-1.05.45-1.1,1.02v.11s0,5.25,0,5.25c.31-.24.69-.37,1.11-.37h3.68c.42,0,.8.14,1.11.38v-5.25c0-.55-.39-1-.9-1.1l-.1-.02h-.11Zm-10.82,2.16c.2,0,.36.15.36.34,0,.52.45.95,1,.95h1.72c.2,0,.36.16.36.34,0,.19-.16.34-.36.34h-1.72c-.95,0-1.72-.73-1.73-1.63,0-.19.16-.34.36-.34Zm6.76,0c.2,0,.36.15.36.34,0,.52.45.95,1,.95h1.72c.2,0,.36.16.36.34,0,.19-.16.34-.36.34h-1.72c-.95,0-1.72-.73-1.73-1.63,0-.19.16-.34.36-.34Zm2.58-3.66h-.74v.75h.74v-.75Zm-6.63,0h-.74v.75h.74v-.75Zm.37-3h-1.47c-.57,0-1.05.45-1.1,1.02v.11s0,1.12,0,1.12h3.68v-1.12c0-.55-.39-1-.9-1.1l-.1-.02h-.11Zm6.63,0h-1.47c-.57,0-1.05.45-1.1,1.02v.11s0,1.12,0,1.12h3.68v-1.12c0-.55-.39-1-.9-1.1l-.1-.02h-.11Z"/>
</svg>
