<svg viewBox="0 0 24 24" xmlns="http://www.w3.org/2000/svg" data-title="Seat" fill="currentColor" stroke="none">
  <path fill-rule="evenodd" d="m9.84,19.5c-.52,0-1.73,0-2.25-1.92-.42-1.58-1.54-8.46-1.59-8.75-.93-2.33-.38-3.4.03-3.84.3-.32.7-.5,1.12-.5.17,0,.35.03.52.08.78.25,1.34.99,1.46,1.95l.02.21c.07.79.09.93.03,1.25.74.97,2.44,3.92,1.71,6.79l-.04.14.14-.02c.91-.1,3.88-.45,4.27-.53.13-.03.32-.05.54-.05.41,0,1.19.07,1.82.56.51.4.8.98.84,1.71.04.79.06,1.43.04,1.92-.08.39-.29.99-.49.99h-8.16Zm-1.39-10.8c-.39.1-.96.23-1.39.33l-.09.02.02.09c.26,1.59,1.15,6.9,1.5,8.2.33,1.24.86,1.24,1.36,1.24h7.73v-.1c.01-.32.02-.89-.04-1.85-.02-.46-.18-.81-.49-1.03-.43-.33-1.03-.36-1.27-.36-.14,0-.26.01-.35.03-.55.11-5.04.62-5.23.64h-.01c-.2,0-.32-.07-.41-.18-.1-.13-.12-.31-.05-.46,1.15-2.55-.51-5.65-1.18-6.53l-.04-.05-.06.02h0Zm-1.29-3.29c-.17,0-.33.07-.46.2-.38.41-.38,1.33,0,2.47l.03.09.09-.02c.49-.11,1.04-.24,1.38-.32l.07-.02v-.07c.03-.19,0-.39-.04-.91l-.02-.19c-.09-.71-.49-1.07-.83-1.17-.05-.02-.13-.04-.23-.04h0Z"/>
</svg>
