<svg viewBox="0 0 24 24" xmlns="http://www.w3.org/2000/svg" data-title="Sector" fill="currentColor" stroke="none">
  <path fill-rule="evenodd" clip-rule="evenodd" d="M12.2861 13.486C12.3913 13.4854 12.4925 13.5259 12.5682 13.5988L17.88 18.6957C17.966 18.7733 18.0107 18.8865 18.0009 19.0017C18.001 19.118 17.9475 19.2279 17.8559 19.2997C16.3523 20.5278 14.4701 21.1991 12.5279 21.2C8.32096 21.1751 4.75317 18.1055 4.10479 13.9531C4.08614 13.8366 4.12176 13.718 4.20151 13.631C4.27662 13.5391 4.38909 13.4859 4.50781 13.486H12.2861ZM12.1249 14.2912H4.99143C5.76732 17.835 8.89672 20.3694 12.5279 20.3948C14.1265 20.3982 15.6858 19.8996 16.9853 18.9695L12.1249 14.2912ZM13.076 4.23417C16.2792 4.45573 19.0849 6.45905 20.3318 9.4148C21.5787 12.3706 21.0545 15.7757 18.9763 18.2207C18.9052 18.3032 18.8031 18.3528 18.6941 18.3576V18.3656C18.593 18.3656 18.4954 18.3283 18.4201 18.2609L12.7778 13.1559C12.6957 13.0785 12.649 12.9708 12.6488 12.858V4.62872C12.6503 4.51854 12.6969 4.41377 12.7778 4.33885C12.8553 4.25918 12.9657 4.22043 13.076 4.23417ZM13.4549 5.03133V12.6808L18.6458 17.3752C20.339 15.1813 20.7215 12.2477 19.6475 9.69368C18.5735 7.13964 16.2085 5.35909 13.4549 5.03133ZM12.1088 4.30664C12.1909 4.38404 12.2375 4.49178 12.2377 4.60457V12.6808C12.2377 12.9032 12.0573 13.0834 11.8347 13.0834H4.40302C4.18044 13.0834 4 12.9032 4 12.6808C4.02389 8.2678 7.40251 4.59629 11.8025 4.20196C11.915 4.19046 12.0269 4.2287 12.1088 4.30664ZM11.4317 5.03133C7.78702 5.57559 5.02633 8.60249 4.82216 12.2782H11.4317V5.03133Z"/>
</svg>
