<svg viewBox="0 0 24 24" xmlns="http://www.w3.org/2000/svg" data-title="SecurityOutline" fill="currentColor" stroke="none">
  <path d="M19.1054 4.23499L13.2885 2.18799C12.5655 1.93734 11.7844 1.93734 11.0615 2.18799L5.24453 4.23499C3.89833 4.70287 2.96762 5.98956 3.00086 7.4517C3.06734 10.5849 3.42467 13.4674 5.26946 16.4585C6.75693 18.8731 8.88426 20.753 11.3689 21.8308C11.8841 22.0564 12.4575 22.0564 12.9727 21.8308C15.4657 20.753 17.5847 18.8731 19.0722 16.4501C20.917 13.459 21.266 10.5849 21.3325 7.4517C21.3657 5.98956 20.435 4.70287 19.0888 4.23499H19.1054ZM12.7068 3.85901L18.5237 5.906C19.1802 6.13995 19.604 6.74987 19.5874 7.41828C19.5209 10.4261 19.1885 12.9326 17.5847 15.5227C16.2718 17.6533 14.427 19.2742 12.283 20.2099C12.2082 20.2433 12.1251 20.2433 12.0503 20.2099C9.91469 19.2825 8.06158 17.6533 6.74862 15.5311C5.15312 12.941 4.81242 10.4261 4.74594 7.41828C4.72932 6.74987 5.16143 6.13995 5.8096 5.906L11.6265 3.85901C11.9755 3.73368 12.3495 3.73368 12.6902 3.85901H12.7068Z"/>
  <path d="M8.0782 12.2559C7.92863 12.3979 7.85384 12.5817 7.85384 12.7906C7.85384 12.9995 7.92863 13.1916 8.0782 13.3337C8.22778 13.4757 8.4106 13.5426 8.61835 13.5426H9.2499C9.38286 14.1107 9.58229 14.612 9.84821 15.0548C10.1972 15.6146 10.646 16.0407 11.1861 16.3332C11.7262 16.6256 12.3329 16.7676 13.006 16.7676C13.4381 16.7676 13.8702 16.7008 14.3023 16.5587C14.751 16.4084 15.1333 16.1828 15.4574 15.882C15.5987 15.7483 15.6984 15.5979 15.7316 15.4225C15.7732 15.2554 15.7732 15.0966 15.7316 14.9546C15.6901 14.8042 15.607 14.6705 15.4823 14.5702C15.366 14.4533 15.2164 14.3948 15.0419 14.3948C14.8591 14.3864 14.6846 14.4533 14.5017 14.5702C14.2774 14.7206 14.053 14.8292 13.8286 14.8961C13.6126 14.9546 13.3799 14.9796 13.114 14.9796C12.7899 14.9796 12.5074 14.9128 12.2498 14.7875C12.0005 14.6538 11.7761 14.4449 11.5933 14.1525C11.4936 13.9854 11.4022 13.7849 11.3274 13.5509H12.5822C12.7899 13.5509 12.9727 13.4757 13.114 13.3253C13.2553 13.1833 13.3301 12.9995 13.3301 12.799C13.3301 12.5984 13.2553 12.4146 13.114 12.2726C12.9727 12.1222 12.7899 12.047 12.5822 12.047H11.0781C11.0781 11.9384 11.0781 11.8298 11.0781 11.7211C11.0781 11.6376 11.0781 11.554 11.0781 11.4705H12.5822C12.7899 11.4705 12.9727 11.3953 13.114 11.2449C13.2553 11.1029 13.3301 10.9191 13.3301 10.7185C13.3301 10.518 13.2553 10.3342 13.114 10.1922C12.9727 10.0418 12.7899 9.96658 12.5822 9.96658H11.3274C11.4022 9.74099 11.4936 9.54047 11.5933 9.38172C11.7761 9.08929 11.9922 8.88877 12.2415 8.76345C12.4991 8.62141 12.7899 8.55457 13.1057 8.55457C13.355 8.55457 13.6043 8.58799 13.8453 8.65483C14.0863 8.72167 14.2857 8.82193 14.4685 8.96397C14.6347 9.08929 14.8092 9.17285 14.992 9.17285H15.0003C15.1748 9.16449 15.3244 9.106 15.4491 8.99739C15.5737 8.88877 15.6485 8.74674 15.6984 8.58799C15.7482 8.42089 15.7565 8.25379 15.715 8.08668C15.6734 7.90287 15.5654 7.74412 15.4075 7.61044C15.0585 7.30966 14.6763 7.09243 14.2441 6.95875C13.8286 6.82507 13.4132 6.76658 12.9893 6.76658C12.3162 6.76658 11.7096 6.90862 11.1695 7.20104C10.6293 7.49347 10.1806 7.91958 9.83159 8.47937C9.56567 8.91384 9.36624 9.40679 9.23328 9.98329H8.60173C8.39398 9.98329 8.21116 10.0585 8.06158 10.2005C7.91201 10.3426 7.83722 10.5264 7.83722 10.7352C7.83722 10.9441 7.91201 11.1363 8.06158 11.2783C8.21116 11.4204 8.39398 11.4872 8.60173 11.4872H9.04215C9.04215 11.5708 9.04215 11.6627 9.04215 11.7462C9.04215 11.8465 9.04215 11.9551 9.04215 12.0637H8.60173C8.39398 12.0637 8.21116 12.1389 8.06158 12.2809L8.0782 12.2559Z"/>
</svg>
