<svg viewBox="0 0 24 24" xmlns="http://www.w3.org/2000/svg" data-title="SecurityProfileOutline" fill="currentColor" stroke="none">
  <path fill-rule="evenodd" d="m11.79,6.98c-1.33,0-2.41,1.08-2.41,2.42s1.08,2.42,2.41,2.42,2.41-1.08,2.41-2.42-1.08-2.42-2.41-2.42Zm-3.93,2.42c0-2.18,1.76-3.95,3.93-3.95s3.93,1.77,3.93,3.95-1.76,3.95-3.93,3.95-3.93-1.77-3.93-3.95Z"/>
  <path fill-rule="evenodd" d="m17.63,18.18c-1.35,1.6-3.01,2.86-4.88,3.66h0c-.48.21-1.02.21-1.5,0h0c-2.5-1.08-4.63-2.97-6.13-5.4-1.85-3-2.21-5.9-2.28-9.07-.03-1.41.87-2.65,2.17-3.11l5.92-2.08c.7-.25,1.46-.25,2.16,0l5.92,2.08c1.3.46,2.2,1.7,2.17,3.11-.07,3.17-.43,6.07-2.28,9.07-.35.57-.73,1.1-1.15,1.61-.02.03-.05.07-.08.1-.01.01-.02.02-.03.03ZM11.4,3.56c.39-.14.81-.14,1.2,0l5.92,2.08c.73.26,1.21.95,1.2,1.7-.07,3.07-.41,5.66-2.06,8.33-.2.32-.41.63-.63.93-.48-.37-1.01-.69-1.56-.94-1.03-.47-2.15-.71-3.28-.71s-2.25.24-3.28.71c-.65.29-1.25.67-1.79,1.12-.27-.35-.52-.72-.76-1.1-1.65-2.67-2-5.26-2.06-8.34-.02-.76.47-1.44,1.2-1.7l5.92-2.08Zm-3.34,14.33c1.09,1.12,2.36,2.01,3.76,2.62.12.05.25.05.37,0,1.46-.63,2.79-1.58,3.91-2.78-.38-.29-.79-.53-1.23-.73-.84-.38-1.76-.58-2.68-.58s-1.84.2-2.68.58c-.52.23-1,.54-1.44.89Z"/>
  <path fill-rule="evenodd" d="m11.79,6.98c-1.33,0-2.41,1.08-2.41,2.42s1.08,2.42,2.41,2.42,2.41-1.08,2.41-2.42-1.08-2.42-2.41-2.42Zm-3.93,2.42c0-2.18,1.76-3.95,3.93-3.95s3.93,1.77,3.93,3.95-1.76,3.95-3.93,3.95-3.93-1.77-3.93-3.95Z"/>
  <path fill-rule="evenodd" d="m17.63,18.18c-1.35,1.6-3.01,2.86-4.88,3.66h0c-.48.21-1.02.21-1.5,0h0c-2.5-1.08-4.63-2.97-6.13-5.4-1.85-3-2.21-5.9-2.28-9.07-.03-1.41.87-2.65,2.17-3.11l5.92-2.08c.7-.25,1.46-.25,2.16,0l5.92,2.08c1.3.46,2.2,1.7,2.17,3.11-.07,3.17-.43,6.07-2.28,9.07-.35.57-.73,1.1-1.15,1.61-.02.03-.05.07-.08.1-.01.01-.02.02-.03.03ZM11.4,3.56c.39-.14.81-.14,1.2,0l5.92,2.08c.73.26,1.21.95,1.2,1.7-.07,3.07-.41,5.66-2.06,8.33-.2.32-.41.63-.63.93-.48-.37-1.01-.69-1.56-.94-1.03-.47-2.15-.71-3.28-.71s-2.25.24-3.28.71c-.65.29-1.25.67-1.79,1.12-.27-.35-.52-.72-.76-1.1-1.65-2.67-2-5.26-2.06-8.34-.02-.76.47-1.44,1.2-1.7l5.92-2.08Zm-3.34,14.33c1.09,1.12,2.36,2.01,3.76,2.62.12.05.25.05.37,0,1.46-.63,2.79-1.58,3.91-2.78-.38-.29-.79-.53-1.23-.73-.84-.38-1.76-.58-2.68-.58s-1.84.2-2.68.58c-.52.23-1,.54-1.44.89Z"/>
</svg>
