<svg viewBox="0 0 24 24" xmlns="http://www.w3.org/2000/svg" data-title="SecurityOutline" fill="currentColor" stroke="none">
  <path d="m18.94,4.23l-5.82-2.05c-.72-.25-1.5-.25-2.23,0l-5.82,2.05c-1.35.47-2.28,1.75-2.24,3.22.07,3.13.42,6.02,2.27,9.01,1.49,2.41,3.61,4.29,6.1,5.37.52.23,1.09.23,1.6,0,2.49-1.08,4.61-2.96,6.1-5.38,1.84-2.99,2.19-5.87,2.26-9,.03-1.46-.9-2.75-2.24-3.22h.02Zm-6.4-.38l5.82,2.05c.66.23,1.08.84,1.06,1.51-.07,3.01-.4,5.51-2,8.1-1.31,2.13-3.16,3.75-5.3,4.69-.07.03-.16.03-.23,0-2.14-.93-3.99-2.56-5.3-4.68-1.6-2.59-1.94-5.11-2-8.11-.02-.67.42-1.28,1.06-1.51l5.82-2.05c.35-.13.72-.13,1.06,0h.02Z"/>
  <path d="m7.91,12.26c-.15.14-.22.33-.22.53s.07.4.22.54c.15.14.33.21.54.21h.63c.13.57.33,1.07.6,1.51.35.56.8.99,1.34,1.28.54.29,1.15.43,1.82.43.43,0,.86-.07,1.3-.21.45-.15.83-.38,1.16-.68.14-.13.24-.28.27-.46.04-.17.04-.33,0-.47-.04-.15-.12-.28-.25-.38-.12-.12-.27-.18-.44-.18-.18,0-.36.06-.54.18-.22.15-.45.26-.67.33-.22.06-.45.08-.71.08-.32,0-.61-.07-.86-.19-.25-.13-.47-.34-.66-.64-.1-.17-.19-.37-.27-.6h1.25c.21,0,.39-.08.53-.23.14-.14.22-.33.22-.53s-.07-.38-.22-.53c-.14-.15-.32-.23-.53-.23h-1.5v-.58h1.5c.21,0,.39-.08.53-.23.14-.14.22-.33.22-.53s-.07-.38-.22-.53c-.14-.15-.32-.23-.53-.23h-1.25c.07-.23.17-.43.27-.58.18-.29.4-.49.65-.62.26-.14.55-.21.86-.21.25,0,.5.03.74.1s.44.17.62.31c.17.13.34.21.52.21h0c.17,0,.32-.07.45-.18.12-.11.2-.25.25-.41.05-.17.06-.33.02-.5-.04-.18-.15-.34-.31-.48-.35-.3-.73-.52-1.16-.65-.42-.13-.83-.19-1.25-.19-.67,0-1.28.14-1.82.43-.54.29-.99.72-1.34,1.28-.27.43-.47.93-.6,1.5h-.63c-.21,0-.39.08-.54.22-.15.14-.22.33-.22.53s.07.4.22.54c.15.14.33.21.54.21h.44v.58h-.44c-.21,0-.39.08-.54.22l.02-.02Z"/>
</svg>
