<svg viewBox="0 0 24 24" xmlns="http://www.w3.org/2000/svg" data-title="SecurityFill" fill="currentColor" stroke="none">
  <path fill-rule="evenodd" clip-rule="evenodd" d="M13.2442 2.18401C12.5465 1.93866 11.7867 1.93866 11.0891 2.18402L5.16923 4.26603C3.86633 4.72426 2.97006 5.96575 3.00077 7.37527C3.06992 10.5501 3.43134 13.4491 5.2821 16.4484C6.78059 18.8768 8.91345 20.7612 11.4111 21.844L11.415 21.8456C11.8974 22.0514 12.4358 22.0515 12.9183 21.8456L12.9221 21.844C15.422 20.7603 17.5563 18.8735 19.055 16.4422C20.9052 13.4405 21.2639 10.5486 21.3326 7.37544C21.3631 5.96594 20.4669 4.72425 19.1638 4.26595L13.2442 2.18401ZM11.24 16.2614C11.7632 16.5424 12.354 16.6829 13.0125 16.6829C13.4364 16.6829 13.8604 16.6149 14.2844 16.4789C14.7173 16.3339 15.0872 16.1164 15.3939 15.8263C15.5202 15.7085 15.5968 15.5816 15.6239 15.4456C15.66 15.3006 15.66 15.1692 15.6239 15.0513C15.5878 14.9244 15.5202 14.8202 15.4209 14.7386C15.3307 14.648 15.218 14.6027 15.0827 14.6027C14.9474 14.5936 14.7985 14.6434 14.6362 14.7522C14.3926 14.9154 14.1491 15.0332 13.9055 15.1057C13.671 15.1692 13.4139 15.2009 13.1343 15.2009C12.7825 15.2009 12.4622 15.1284 12.1736 14.9834C11.8849 14.8293 11.6414 14.5936 11.4429 14.2763C11.2993 14.0358 11.1816 13.7457 11.0898 13.4062H12.593C12.7644 13.4062 12.9042 13.3473 13.0125 13.2294C13.1298 13.1116 13.1884 12.9711 13.1884 12.8079C13.1884 12.6448 13.1298 12.5043 13.0125 12.3865C12.9042 12.2686 12.7644 12.2097 12.593 12.2097H10.9C10.8921 12.048 10.8882 11.8803 10.8882 11.7066C10.8882 11.5565 10.8909 11.416 10.8964 11.2852H12.593C12.7644 11.2852 12.9042 11.2262 13.0125 11.1084C13.1298 10.9906 13.1884 10.8501 13.1884 10.6869C13.1884 10.5238 13.1298 10.3833 13.0125 10.2654C12.9042 10.1476 12.7644 10.0887 12.593 10.0887H11.0901C11.1818 9.75114 11.2994 9.46562 11.4429 9.23213C11.6414 8.91488 11.8849 8.68374 12.1736 8.53872C12.4622 8.38462 12.7825 8.30758 13.1343 8.30758C13.4049 8.30758 13.671 8.34384 13.9326 8.41635C14.1942 8.48886 14.4242 8.60216 14.6226 8.75626C14.776 8.87409 14.9203 8.93301 15.0556 8.93301C15.1999 8.92394 15.3172 8.87862 15.4074 8.79704C15.5066 8.7064 15.5743 8.5931 15.6104 8.45714C15.6555 8.32117 15.66 8.18068 15.6239 8.03565C15.5878 7.89063 15.5021 7.7592 15.3668 7.64136C15.0331 7.35131 14.6587 7.14283 14.2438 7.01593C13.8379 6.88903 13.4274 6.82558 13.0125 6.82558C12.354 6.82558 11.7632 6.96608 11.24 7.24707C10.7168 7.52806 10.2838 7.94048 9.94105 8.48433C9.66444 8.93507 9.45908 9.46985 9.32498 10.0887H8.5474C8.37602 10.0887 8.23169 10.1476 8.11442 10.2654C7.99716 10.3742 7.93853 10.5147 7.93853 10.6869C7.93853 10.8591 7.99716 11.0042 8.11442 11.122C8.23169 11.2308 8.37602 11.2852 8.5474 11.2852H9.16913C9.16056 11.4273 9.15628 11.5723 9.15628 11.7202C9.15628 11.8801 9.15961 12.0432 9.16628 12.2097H8.5474C8.37602 12.2097 8.23169 12.2686 8.11442 12.3865C7.99716 12.4952 7.93853 12.6357 7.93853 12.8079C7.93853 12.9802 7.99716 13.1252 8.11442 13.243C8.23169 13.3518 8.37602 13.4062 8.5474 13.4062H9.32286C9.45692 14.0242 9.66298 14.5635 9.94105 15.0241C10.2838 15.568 10.7168 15.9804 11.24 16.2614Z"/>
</svg>
