<svg viewBox="0 0 24 24" xmlns="http://www.w3.org/2000/svg" data-title="SecurityProfileOutline" fill="currentColor" stroke="none">
  <path fill-rule="evenodd" clip-rule="evenodd" d="M11.9551 6.98342C10.624 6.98342 9.54495 8.06771 9.54495 9.40526C9.54495 10.7428 10.624 11.8271 11.9551 11.8271C13.2862 11.8271 14.3652 10.7428 14.3652 9.40526C14.3652 8.06771 13.2862 6.98342 11.9551 6.98342ZM8.02276 9.40526C8.02276 7.22295 9.78332 5.45384 11.9551 5.45384C14.1268 5.45384 15.8874 7.22295 15.8874 9.40526C15.8874 11.5876 14.1268 13.3567 11.9551 13.3567C9.78332 13.3567 8.02276 11.5876 8.02276 9.40526Z"/>
  <path fill-rule="evenodd" clip-rule="evenodd" d="M17.7993 18.1794C16.4525 19.7771 14.7893 21.0345 12.9221 21.844L12.9183 21.8456C12.4358 22.0515 11.8974 22.0514 11.415 21.8456L11.4111 21.844C8.91345 20.7612 6.78059 18.8768 5.2821 16.4484C3.43134 13.4491 3.06992 10.5501 3.00077 7.37527C2.97006 5.96575 3.86633 4.72426 5.16923 4.26603L11.0891 2.18402C11.7867 1.93866 12.5465 1.93866 13.2442 2.18401L19.1638 4.26595C20.4669 4.72425 21.3631 5.96594 21.3326 7.37544C21.2639 10.5486 20.9052 13.4405 19.055 16.4422C18.7063 17.0078 18.3233 17.544 17.9092 18.0474C17.8865 18.0823 17.8605 18.1158 17.8311 18.1473C17.8208 18.1584 17.8101 18.1691 17.7993 18.1794ZM11.568 3.55898C11.9555 3.42267 12.3777 3.42267 12.7652 3.55897L18.6849 5.64091C19.4169 5.89835 19.8996 6.58717 19.8832 7.34378C19.8167 10.416 19.4719 12.9992 17.8225 15.6751C17.6247 15.996 17.4149 16.306 17.1939 16.6043C16.7111 16.233 16.1862 15.9174 15.6289 15.6646C14.5979 15.1969 13.4796 14.955 12.3484 14.955C11.2172 14.955 10.0989 15.1969 9.06785 15.6646C8.42206 15.9575 7.81975 16.3348 7.27594 16.7854C7.00575 16.4337 6.75136 16.0651 6.51417 15.6807C4.86454 13.0074 4.51708 10.4172 4.45012 7.34339C4.43365 6.58708 4.9162 5.89842 5.64814 5.64099L11.568 3.55898ZM8.22618 17.8863C9.31591 19.0107 10.5897 19.901 11.9831 20.5054C12.1025 20.5559 12.2307 20.5559 12.3502 20.5054C13.8104 19.872 15.1393 18.9246 16.2626 17.7229C15.8815 17.4356 15.4691 17.1904 15.0325 16.9923C14.1889 16.6097 13.2739 16.4118 12.3484 16.4118C11.4228 16.4118 10.5079 16.6097 9.66432 16.9923C9.14699 17.227 8.66376 17.5278 8.22618 17.8863Z"/>
  <path fill-rule="evenodd" clip-rule="evenodd" d="M11.9551 6.98342C10.624 6.98342 9.54495 8.06771 9.54495 9.40526C9.54495 10.7428 10.624 11.8271 11.9551 11.8271C13.2862 11.8271 14.3652 10.7428 14.3652 9.40526C14.3652 8.06771 13.2862 6.98342 11.9551 6.98342ZM8.02276 9.40526C8.02276 7.22295 9.78332 5.45384 11.9551 5.45384C14.1268 5.45384 15.8874 7.22295 15.8874 9.40526C15.8874 11.5876 14.1268 13.3567 11.9551 13.3567C9.78332 13.3567 8.02276 11.5876 8.02276 9.40526Z" stroke-linecap="round" stroke-linejoin="round"/>
  <path fill-rule="evenodd" clip-rule="evenodd" d="M17.7993 18.1794C16.4525 19.7771 14.7893 21.0345 12.9221 21.844L12.9183 21.8456C12.4358 22.0515 11.8974 22.0514 11.415 21.8456L11.4111 21.844C8.91345 20.7612 6.78059 18.8768 5.2821 16.4484C3.43134 13.4491 3.06992 10.5501 3.00077 7.37527C2.97006 5.96575 3.86633 4.72426 5.16923 4.26603L11.0891 2.18402C11.7867 1.93866 12.5465 1.93866 13.2442 2.18401L19.1638 4.26595C20.4669 4.72425 21.3631 5.96594 21.3326 7.37544C21.2639 10.5486 20.9052 13.4405 19.055 16.4422C18.7063 17.0078 18.3233 17.544 17.9092 18.0474C17.8865 18.0823 17.8605 18.1158 17.8311 18.1473C17.8208 18.1584 17.8101 18.1691 17.7993 18.1794ZM11.568 3.55898C11.9555 3.42267 12.3777 3.42267 12.7652 3.55897L18.6849 5.64091C19.4169 5.89835 19.8996 6.58717 19.8832 7.34378C19.8167 10.416 19.4719 12.9992 17.8225 15.6751C17.6247 15.996 17.4149 16.306 17.1939 16.6043C16.7111 16.233 16.1862 15.9174 15.6289 15.6646C14.5979 15.1969 13.4796 14.955 12.3484 14.955C11.2172 14.955 10.0989 15.1969 9.06785 15.6646C8.42206 15.9575 7.81975 16.3348 7.27594 16.7854C7.00575 16.4337 6.75136 16.0651 6.51417 15.6807C4.86454 13.0074 4.51708 10.4172 4.45012 7.34339C4.43365 6.58708 4.9162 5.89842 5.64814 5.64099L11.568 3.55898ZM8.22618 17.8863C9.31591 19.0107 10.5897 19.901 11.9831 20.5054C12.1025 20.5559 12.2307 20.5559 12.3502 20.5054C13.8104 19.872 15.1393 18.9246 16.2626 17.7229C15.8815 17.4356 15.4691 17.1904 15.0325 16.9923C14.1889 16.6097 13.2739 16.4118 12.3484 16.4118C11.4228 16.4118 10.5079 16.6097 9.66432 16.9923C9.14699 17.227 8.66376 17.5278 8.22618 17.8863Z" stroke-linecap="round" stroke-linejoin="round"/>
</svg>
