<svg viewBox="0 0 24 24" xmlns="http://www.w3.org/2000/svg" data-title="SecurityProfileAccountOutline" fill="currentColor" stroke="none">
  <path fill-rule="evenodd" d="m5.12,6.12c0-2.27,1.84-4.12,4.12-4.12s4.12,1.84,4.12,4.12-1.84,4.12-4.12,4.12-4.12-1.84-4.12-4.12Zm4.12-2.12c-1.17,0-2.12.95-2.12,2.12s.95,2.12,2.12,2.12,2.12-.95,2.12-2.12-.95-2.12-2.12-2.12Z"/>
  <path d="m7.62,11.15c.53-.12,1.07-.18,1.6-.18.55,0,1,.45,1,1,0,.55-.45,1-1,1-.39,0-.78.04-1.16.13-.77.17-1.48.52-2.1,1.01-.61.49-1.11,1.11-1.45,1.82-.34.71-.51,1.49-.51,2.27h0s0,1.08,0,1.08h6.61c.55,0,1,.45,1,1s-.45,1-1,1H3c-.55,0-1-.45-1-1v-2.08c0-1.09.24-2.16.71-3.14.47-.98,1.16-1.84,2.01-2.52.85-.68,1.84-1.16,2.9-1.4Z"/>
  <path fill-rule="evenodd" d="m16.61,10.19c-.32,0-.7.1-1.02.19-.36.11-.76.26-1.17.43-.77.33-1.7.81-2.25,1.36-.17.17-.3.37-.38.59-.08.21-.11.43-.1.65v1.79c0,1.44.44,2.85,1.25,4.04.81,1.19,1.96,2.11,3.3,2.65,0,0,.02,0,.03.01.37.13.78.13,1.15,0,0,0,.02,0,.03-.01,1.34-.53,2.49-1.45,3.3-2.65.81-1.19,1.25-2.6,1.25-4.04v-1.79c0-.22-.03-.44-.1-.65-.08-.22-.21-.42-.38-.59-.32-.32-.76-.59-1.18-.81-.43-.22-.91-.42-1.37-.59-.46-.17-.92-.31-1.31-.41-.35-.09-.75-.18-1.05-.18Zm-2.92,5.01v-1.7c.3-.25.86-.56,1.51-.84.35-.15.68-.27.96-.35.28-.08.42-.1.44-.11h0s0,0,0,0c.01,0,.06,0,.15.02.11.02.24.05.4.09.32.08.72.2,1.12.35.41.15.8.32,1.14.49.26.14.45.26.58.35v1.7c0,1.04-.32,2.06-.9,2.92-.56.82-1.34,1.47-2.25,1.86-.91-.39-1.69-1.03-2.25-1.86-.59-.86-.9-1.88-.9-2.92Z"/>
</svg>
