<svg viewBox="0 0 24 24" xmlns="http://www.w3.org/2000/svg" data-title="SecurityFill" fill="currentColor" stroke="none">
  <path fill-rule="evenodd" d="m13.08,2.18c-.7-.25-1.46-.25-2.16,0l-5.92,2.08c-1.3.46-2.2,1.7-2.17,3.11.07,3.17.43,6.07,2.28,9.07,1.5,2.43,3.63,4.31,6.13,5.4h0c.48.21,1.02.21,1.5,0h0c2.5-1.09,4.63-2.97,6.13-5.4,1.85-3,2.21-5.89,2.28-9.07.03-1.41-.87-2.65-2.17-3.11l-5.92-2.08Zm-2,14.08c.52.28,1.11.42,1.77.42.42,0,.85-.07,1.27-.2.43-.15.8-.36,1.11-.65.13-.12.2-.24.23-.38.04-.14.04-.28,0-.39-.04-.13-.1-.23-.2-.31-.09-.09-.2-.14-.34-.14-.14,0-.28.04-.45.15-.24.16-.49.28-.73.35-.23.06-.49.1-.77.1-.35,0-.67-.07-.96-.22-.29-.15-.53-.39-.73-.71-.14-.24-.26-.53-.35-.87h1.5c.17,0,.31-.06.42-.18.12-.12.18-.26.18-.42s-.06-.3-.18-.42c-.11-.12-.25-.18-.42-.18h-1.69c0-.16-.01-.33-.01-.5,0-.15,0-.29,0-.42h1.7c.17,0,.31-.06.42-.18.12-.12.18-.26.18-.42s-.06-.3-.18-.42c-.11-.12-.25-.18-.42-.18h-1.5c.09-.34.21-.62.35-.86.2-.32.44-.55.73-.69.29-.15.61-.23.96-.23.27,0,.54.04.8.11.26.07.49.19.69.34.15.12.3.18.43.18.14,0,.26-.05.35-.14.1-.09.17-.2.2-.34.05-.14.05-.28.01-.42-.04-.15-.12-.28-.26-.39-.33-.29-.71-.5-1.12-.63-.41-.13-.82-.19-1.23-.19-.66,0-1.25.14-1.77.42-.52.28-.96.69-1.3,1.24-.28.45-.48.99-.62,1.6h-.78c-.17,0-.32.06-.43.18-.12.11-.18.25-.18.42s.06.32.18.44c.12.11.26.16.43.16h.62c0,.14-.01.29-.01.43,0,.16,0,.32.01.49h-.62c-.17,0-.32.06-.43.18-.12.11-.18.25-.18.42s.06.32.18.44c.12.11.26.16.43.16h.78c.13.62.34,1.16.62,1.62.34.54.78.96,1.3,1.24Z"/>
</svg>
