<svg viewBox="0 0 24 24" xmlns="http://www.w3.org/2000/svg" data-title="Seller" fill="currentColor" stroke="none">
  <path d="m17.51,14.42c-.5-.56-1.32-.59-1.31-.56-1.71-.02-1.99-1.77-2.02-1.95.45-.5.73-1.15.73-1.88v-.15c.53-.16.92-.65.92-1.23v-1.28c0-1.84-1.49-3.33-3.32-3.33h-1.05c-1.84,0-3.33,1.49-3.33,3.33v1.28c0,.59.4,1.09.94,1.24v.14c0,.72.28,1.38.73,1.88-.02.16-.29,1.93-2.01,1.96-.05,0-.82,0-1.32.56-.32.36-.43.84-.35,1.47l.76,3.78c.04.17.19.3.37.3h9.5c.18,0,.33-.13.37-.3l.77-3.81c.08-.6-.05-1.08-.36-1.44h-.01Zm-3.53-1.01c-1.25.55-2.74.56-3.99.02.22-.32.37-.67.45-.98.43.26.92.42,1.46.42h.17c.54,0,1.04-.16,1.46-.42.09.31.23.65.44.96Zm.18-3.38c0,1.15-.94,2.09-2.09,2.09h-.17c-1.15,0-2.09-.94-2.09-2.09v-1.68c1.14.17,2.12-.11,3.01-.71.37.42.83.74,1.34.95v1.44h0Zm-4.95-2.43c-.09.07-.14.19-.14.3v1.15c-.11-.1-.2-.24-.2-.4v-1.28c0-1.42,1.16-2.58,2.58-2.58h1.05c1.42,0,2.58,1.16,2.58,2.58v1.28c0,.16-.07.29-.17.39v-.72c0-.16-.1-.31-.26-.36-.59-.19-1.1-.56-1.45-1.07-.06-.08-.15-.14-.26-.16-.1-.02-.21.01-.29.08-.65.54-1.43.82-2.25.82-.27,0-.54-.04-.86-.12-.11-.02-.23,0-.32.07Zm7.22,11.63H7.54l-.7-3.46c-.05-.38,0-.65.17-.85.27-.31.76-.32.76-.32.72,0,1.28-.26,1.69-.6.77.38,1.63.59,2.5.59s1.74-.21,2.52-.6c.41.35.98.6,1.71.61,0,0,.49.02.76.31.17.19.23.47.18.83l-.7,3.48h0Z"/>
</svg>
