<svg viewBox="0 0 24 24" xmlns="http://www.w3.org/2000/svg" data-title="Seller" fill="currentColor" stroke="none">
  <path d="M17.5145 14.1725C17.012 13.61 16.1945 13.5875 16.202 13.61C14.492 13.5875 14.207 11.84 14.1845 11.66C14.6345 11.1575 14.912 10.505 14.912 9.77748V9.62748C15.4445 9.46998 15.8345 8.97498 15.8345 8.39748V7.12248C15.842 5.28498 14.3495 3.79248 12.512 3.79248H11.462C9.62445 3.79248 8.13195 5.28498 8.13195 7.12248V8.39748C8.13195 8.98998 8.52945 9.48498 9.07695 9.63498V9.77748C9.07695 10.4975 9.35445 11.1575 9.80445 11.6525C9.78195 11.8175 9.51195 13.5875 7.79445 13.61C7.74195 13.61 6.96945 13.6175 6.47445 14.1725C6.15945 14.5325 6.03945 15.0125 6.12195 15.6425L6.88695 19.4225C6.92445 19.595 7.07445 19.7225 7.25445 19.7225H16.7495C16.9295 19.7225 17.0795 19.595 17.117 19.4225L17.8895 15.6125C17.9645 15.0125 17.8445 14.5325 17.5295 14.1725H17.5145ZM13.982 13.16C12.7295 13.7075 11.2445 13.715 9.99195 13.175C10.2095 12.8525 10.3595 12.5075 10.442 12.2C10.8695 12.4625 11.3645 12.62 11.9045 12.62H12.077C12.617 12.62 13.112 12.4625 13.5395 12.2C13.6295 12.5075 13.772 12.845 13.982 13.16ZM14.162 9.77748C14.162 10.925 13.2245 11.8625 12.077 11.8625H11.9045C10.757 11.8625 9.81945 10.925 9.81945 9.77748V8.09748C10.9595 8.26998 11.942 7.99248 12.827 7.38498C13.1945 7.80498 13.652 8.12748 14.1695 8.33748V9.77748H14.162ZM9.21195 7.34748C9.12195 7.41498 9.06945 7.53498 9.06945 7.64748V8.80248C8.95695 8.70498 8.87445 8.56248 8.87445 8.39748V7.12248C8.87445 5.69748 10.0295 4.54248 11.4545 4.54248H12.5045C13.9295 4.54248 15.0845 5.69748 15.0845 7.12248V8.39748C15.0845 8.55498 15.017 8.68998 14.912 8.78748V8.06748C14.912 7.90248 14.807 7.75998 14.6495 7.70748C14.0645 7.51998 13.547 7.14498 13.1945 6.64248C13.1345 6.55998 13.0445 6.49998 12.9395 6.48498C12.8345 6.46998 12.7295 6.49998 12.647 6.56748C11.9945 7.10748 11.2145 7.39248 10.397 7.39248C10.127 7.39248 9.85695 7.35498 9.53445 7.27248C9.42195 7.24998 9.30195 7.27248 9.21195 7.34748ZM16.427 18.98H7.54695L6.84195 15.5225C6.79695 15.1475 6.84945 14.87 7.01445 14.675C7.28445 14.3675 7.77195 14.36 7.77945 14.36C8.49945 14.3525 9.05445 14.105 9.46695 13.76C10.2395 14.135 11.0945 14.345 11.9645 14.345C12.8345 14.345 13.7045 14.135 14.4845 13.745C14.897 14.0975 15.4595 14.345 16.1945 14.3525C16.1945 14.3525 16.682 14.3675 16.952 14.6675C17.117 14.855 17.177 15.14 17.132 15.4925L16.427 18.9725V18.98Z"/>
</svg>
