<svg viewBox="0 0 24 24" xmlns="http://www.w3.org/2000/svg" data-title="Send" fill="currentColor" stroke="none">
  <path fill-rule="evenodd" clip-rule="evenodd" d="M21.6371 0.881814C21.0827 0.751179 20.503 0.777491 19.9627 0.95779L2.09357 6.9127L2.09078 6.91363C1.59634 7.07975 1.15243 7.36917 0.800982 7.75453C0.449532 8.1399 0.202151 8.6085 0.0822116 9.11604C-0.0377282 9.62359 -0.0262665 10.1533 0.115514 10.6552C0.257294 11.1571 0.524711 11.6146 0.8925 11.9844L0.894425 11.9863L5.08491 16.1807L4.9442 21.4225C4.93279 21.8473 5.147 22.2465 5.50734 22.4719C5.86768 22.6974 6.3204 22.7154 6.69755 22.5194L9.80799 20.9026L12.8121 23.9022C13.1818 24.2715 13.6396 24.5404 14.1423 24.6832C14.6453 24.8261 15.1765 24.8381 15.6854 24.7181C16.1943 24.5981 16.6641 24.35 17.0501 23.9974C17.4362 23.6448 17.726 23.1987 17.8915 22.7028L23.8421 4.83719C24.0225 4.29691 24.0489 3.71704 23.9182 3.16261C23.7875 2.60806 23.5048 2.1009 23.1019 1.69803C22.6989 1.29516 22.1917 1.01252 21.6371 0.881814ZM18.48 3.98172L2.85536 9.18863L2.85432 9.18898C2.74714 9.22518 2.65092 9.28803 2.57468 9.37162C2.4982 9.45548 2.44436 9.55746 2.41826 9.66791C2.39216 9.77836 2.39466 9.89364 2.42551 10.0029C2.45628 10.1118 2.51422 10.2111 2.5939 10.2914L6.37236 14.0734L18.48 3.98172ZM7.4837 16.2717L7.39838 19.4502L9.48059 18.3679C9.94487 18.1265 10.512 18.2138 10.8823 18.5835L14.5083 22.2039C14.5887 22.2844 14.689 22.3435 14.7985 22.3746C14.9079 22.4057 15.0235 22.4083 15.1343 22.3822C15.245 22.3561 15.3473 22.3021 15.4313 22.2254C15.5152 22.1488 15.5781 22.052 15.6141 21.9443L21.3543 4.71054L7.4837 16.2717Z"/>
</svg>
