<svg viewBox="0 0 24 24" xmlns="http://www.w3.org/2000/svg" data-title="ShareOutline" fill="currentColor" stroke="none">
  <path fill-rule="evenodd" clip-rule="evenodd" d="M14.4613 6.16913L14.4615 6.20097L7.5446 9.07413C7.01557 8.79113 6.41114 8.63067 5.76923 8.63067C3.68754 8.63067 2 10.3182 2 12.3999C2 14.4816 3.68754 16.1691 5.76923 16.1691C6.41112 16.1691 7.01554 16.0087 7.54456 15.7257L14.4615 18.5989C14.4614 18.6095 14.4613 18.6201 14.4613 18.6307C14.4613 20.7124 16.1489 22.3999 18.2306 22.3999C20.3123 22.3999 21.9998 20.7124 21.9998 18.6307C21.9998 16.549 20.3123 14.8614 18.2306 14.8614C16.8699 14.8614 15.6777 15.5824 15.015 16.6631L9.08232 14.1988C9.3732 13.6642 9.53846 13.0513 9.53846 12.3999C9.53846 11.7485 9.3732 11.1357 9.08233 10.6011L15.015 8.13671C15.6777 9.21743 16.87 9.93836 18.2306 9.93836C20.3123 9.93836 21.9998 8.25082 21.9998 6.16913C21.9998 4.08744 20.3123 2.3999 18.2306 2.3999C16.1489 2.3999 14.4613 4.08744 14.4613 6.16913ZM18.2306 4.3999C17.2534 4.3999 16.4613 5.19201 16.4613 6.16913C16.4613 6.29455 16.4744 6.41692 16.4992 6.53496C16.5118 6.57489 16.5217 6.61511 16.529 6.65544C16.7403 7.39609 17.4221 7.93836 18.2306 7.93836C19.2077 7.93836 19.9998 7.14625 19.9998 6.16913C19.9998 5.19201 19.2077 4.3999 18.2306 4.3999ZM6.8872 13.7712C7.28467 13.4468 7.53846 12.953 7.53846 12.3999C7.53846 11.8469 7.28478 11.3532 6.88745 11.0288C6.85405 11.0064 6.82192 10.982 6.79127 10.9556C6.50263 10.7509 6.14997 10.6307 5.76923 10.6307C4.79211 10.6307 4 11.4228 4 12.3999C4 13.377 4.79211 14.1691 5.76923 14.1691C6.15008 14.1691 6.50282 14.0488 6.79151 13.8441C6.82201 13.8178 6.85398 13.7935 6.8872 13.7712ZM16.4992 18.265C16.5118 18.225 16.5217 18.1847 16.529 18.1443C16.7403 17.4037 17.4221 16.8614 18.2306 16.8614C19.2077 16.8614 19.9998 17.6536 19.9998 18.6307C19.9998 19.6078 19.2077 20.3999 18.2306 20.3999C17.2534 20.3999 16.4613 19.6078 16.4613 18.6307C16.4613 18.5053 16.4744 18.383 16.4992 18.265Z"/>
</svg>
