<svg viewBox="0 0 24 24" xmlns="http://www.w3.org/2000/svg" data-title="ShareExpand" fill="currentColor" stroke="none">
  <path fill-rule="evenodd" clip-rule="evenodd" d="M21 12.7916C20.45 12.7916 20 13.2416 20 13.7916V20.0249C20 20.1249 19.9583 20.2249 19.8833 20.2999C19.8083 20.3749 19.7167 20.4166 19.6083 20.4166H4.38333C4.28333 20.4166 4.18333 20.3749 4.10833 20.2999C4.03333 20.2249 3.99167 20.1332 3.99167 20.0249V4.79157C3.99167 4.69157 4.03333 4.59157 4.10833 4.51657C4.18333 4.44157 4.275 4.3999 4.38333 4.3999H10.6167C11.1667 4.3999 11.6167 3.9499 11.6167 3.3999C11.6167 2.8499 11.1667 2.3999 10.6167 2.3999H4.38333C3.75 2.3999 3.14167 2.6499 2.7 3.0999C2.25 3.5499 2 4.1499 2 4.78324V20.0166C2 20.6499 2.25 21.2582 2.7 21.6999C3.15 22.1499 3.75 22.3999 4.38333 22.3999H19.6167C20.25 22.3999 20.8583 22.1499 21.3 21.6999C21.75 21.2499 22 20.6499 22 20.0166V13.7832C22 13.2332 21.55 12.7832 21 12.7832V12.7916Z"/>
  <path fill-rule="evenodd" clip-rule="evenodd" d="M21.925 3.0249C21.825 2.78324 21.625 2.58324 21.3833 2.48324C21.2583 2.43324 21.1333 2.40824 21 2.40824H16.15C15.6 2.40824 15.15 2.85824 15.15 3.40824C15.15 3.95824 15.6 4.40824 16.15 4.40824H18.5833L11.2917 11.6999C10.9 12.0916 10.9 12.7249 11.2917 13.1166C11.6833 13.5082 12.3167 13.5082 12.7083 13.1166L20 5.8249V8.25824C20 8.80824 20.45 9.25824 21 9.25824C21.55 9.25824 22 8.80824 22 8.25824V3.40824C22 3.2749 21.975 3.1499 21.925 3.0249Z"/>
</svg>
