<svg viewBox="0 0 24 24" xmlns="http://www.w3.org/2000/svg" data-title="ShareiOS" fill="currentColor" stroke="none">
  <path d="M11.1462 5.41448V12.6923C11.1462 13.2446 11.6031 13.6923 12.1667 13.6923C12.7303 13.6923 13.1872 13.2446 13.1872 12.6923V5.41394L14.2714 6.47634C14.6699 6.86686 15.316 6.86686 15.7146 6.47634C16.1131 6.08581 16.1131 5.45265 15.7146 5.06212L12.8886 2.29289C12.7618 2.16862 12.6099 2.08389 12.4488 2.03871C12.3592 2.0135 12.2646 2 12.1667 2C11.8777 2 11.6168 2.11771 11.4311 2.30688L8.61939 5.06212C8.22086 5.45265 8.22086 6.08581 8.61939 6.47634C9.01792 6.86686 9.66406 6.86686 10.0626 6.47634L11.1462 5.41448Z"/>
  <path d="M5.041 9.90016H6.46435C7.02795 9.90016 7.48485 9.45245 7.48485 8.90016C7.48485 8.34788 7.02795 7.90017 6.46435 7.90017H4.83511C4.38379 7.90017 3.9307 8.05577 3.57994 8.36224C3.22535 8.67206 3 9.11851 3 9.61192V20.2882C3 20.7817 3.22535 21.2281 3.57994 21.5379C3.93071 21.8444 4.38379 22 4.83511 22H19.4982C19.9495 22 20.4026 21.8444 20.7534 21.5379C21.108 21.2281 21.3333 20.7817 21.3333 20.2882V9.61192C21.3333 9.11851 21.108 8.67206 20.7534 8.36224C20.4026 8.05577 19.9495 7.90017 19.4982 7.90017H17.869C17.3054 7.90017 16.8485 8.34788 16.8485 8.90016C16.8485 9.45245 17.3054 9.90016 17.869 9.90016H19.2923V20H5.041V9.90016Z"/>
</svg>
