<svg viewBox="0 0 24 24" xmlns="http://www.w3.org/2000/svg" data-title="ShareiOS" fill="currentColor" stroke="none">
  <path d="M11.1462 5.81438V13.0922C11.1462 13.6445 11.6031 14.0922 12.1667 14.0922C12.7303 14.0922 13.1872 13.6445 13.1872 13.0922V5.81385L14.2714 6.87624C14.6699 7.26676 15.316 7.26676 15.7146 6.87624C16.1131 6.48571 16.1131 5.85255 15.7146 5.46203L12.8886 2.6928C12.7618 2.56852 12.6099 2.48379 12.4488 2.43861C12.3592 2.4134 12.2646 2.3999 12.1667 2.3999C11.8777 2.3999 11.6168 2.51761 11.4311 2.70678L8.61939 5.46203C8.22086 5.85255 8.22086 6.48571 8.61939 6.87624C9.01792 7.26676 9.66406 7.26676 10.0626 6.87624L11.1462 5.81438Z"/>
  <path d="M5.041 10.3001H6.46435C7.02795 10.3001 7.48485 9.85235 7.48485 9.30007C7.48485 8.74778 7.02795 8.30007 6.46435 8.30007H4.83511C4.38379 8.30007 3.9307 8.45568 3.57994 8.76215C3.22535 9.07196 3 9.51841 3 10.0118V20.6881C3 21.1816 3.22535 21.628 3.57994 21.9378C3.93071 22.2443 4.38379 22.3999 4.83511 22.3999H19.4982C19.9495 22.3999 20.4026 22.2443 20.7534 21.9378C21.108 21.628 21.3333 21.1816 21.3333 20.6881V10.0118C21.3333 9.51841 21.108 9.07196 20.7534 8.76215C20.4026 8.45567 19.9495 8.30007 19.4982 8.30007H17.869C17.3054 8.30007 16.8485 8.74778 16.8485 9.30007C16.8485 9.85235 17.3054 10.3001 17.869 10.3001H19.2923V20.3999H5.041V10.3001Z"/>
</svg>
