<svg viewBox="0 0 24 24" xmlns="http://www.w3.org/2000/svg" data-title="Shoes" fill="currentColor" stroke="none">
  <path fill-rule="evenodd" d="m9.96,13.55l4.95,1.17c2.76.64,4.09,1.66,4.09,3.11v.73s0,.01,0,.01v1.55c0,.19-.14.35-.32.38h-.07s-13.22,0-13.22,0c-.19,0-.35-.14-.38-.32v-.07s0-5.29,0-5.29c0-.17.12-.33.29-.37.17-.04.35.03.45.18.36.61,1.02.99,1.73.99,1.02,0,1.87-.75,2.01-1.74.01-.11.07-.2.16-.26.09-.06.21-.08.32-.06Zm8.26,5.4H5.78v.77h12.44v-.77Zm-8.05-4.55c-.26.87-.94,1.56-1.81,1.85-.87.29-1.83.13-2.57-.41v2.33h12.43v-.33c0-1.03-1.17-1.83-3.48-2.37l-1.66-.39-.39.99c-.05.15-.2.25-.36.25-.05,0-.09,0-.14,0-.1-.04-.18-.11-.22-.2-.04-.09-.05-.2,0-.3l.35-.91-.66-.15-.28.7c-.07.14-.21.22-.37.22-.05,0-.09,0-.14,0-.1-.04-.17-.11-.21-.21-.04-.09-.04-.2,0-.3l.24-.6-.72-.17Zm7.02-10.9c.14.03.24.13.28.27l.69,2.26c.14.49.03,1.01-.3,1.39l-.31,4.98c-.02.2-.18.36-.38.37h-1.02c-.21,0-.38-.18-.38-.39v-2.98s-3.17,2.96-3.17,2.96c-.25.23-.57.36-.9.39h-.14s-5.38-.09-5.38-.09c-.21,0-.37-.18-.38-.39-.07-.85.38-1.65,1.13-2.03l2.31-1c.09-.04.2-.04.29,0,.38.13.78.24,1.18.31.32.08.67,0,.93-.2l5.19-5.74c.09-.1.23-.15.37-.12Zm-.13,4.69l-.52.49v3.31h.28l.24-3.79Zm-.12-3.57l-4.77,5.28c-.43.39-1.03.55-1.6.42-.4-.07-.79-.17-1.17-.3l-2.19.93c-.34.19-.57.53-.62.93l4.95.09c.19,0,.38-.07.52-.2l3.83-3.57s0,0,0,0l1.35-1.26c.18-.18.25-.45.18-.69l-.49-1.61Z"/>
</svg>
