<svg viewBox="0 0 24 24" xmlns="http://www.w3.org/2000/svg" data-title="ShovelRake" fill="currentColor" stroke="none">
  <path d="M9.74328 13.2836H9.02765V5.5597C9.02765 5.33582 8.86251 5.16791 8.64231 5.16791 8.36707 5.16791 8.20193 5.33582 8.20193 5.5597V13.2836H7.43125C6.66058 13.2836 6 13.9552 6 14.7388V19.6082C6 19.8321 6.16514 20 6.38534 20H10.7341C10.9543 20 11.1195 19.8321 11.1195 19.6082V14.7388C11.1745 13.9552 10.514 13.2836 9.74328 13.2836ZM10.4039 19.1045V19.2164H6.77067V14.7948C6.77067 14.403 7.04592 14.1231 7.43125 14.1231H8.14688V16.0821C8.14688 16.306 8.31203 16.4739 8.53222 16.4739 8.75241 16.4739 8.91756 16.306 8.91756 16.0821V14.1231H9.63318C10.0185 14.1231 10.2938 14.403 10.2938 14.7948V19.1045H10.4039ZM18.6611 5C18.4409 5 18.2758 5.16791 18.2758 5.39179V6.06343C18.2758 6.45522 17.9455 6.79104 17.5601 6.79104H17.3399V5.39179C17.3399 5.16791 17.1748 5 16.9546 5 16.7344 5 16.5693 5.16791 16.5693 5.39179V6.79104H15.5233V5.39179C15.5233 5.27985 15.4683 5.16791 15.4132 5.11194 15.3582 5.05597 15.2481 5 15.138 5 14.9178 5 14.7527 5.16791 14.7527 5.39179V6.79104H13.8168V5.39179C13.8168 5.16791 13.6517 5 13.4315 5 13.2113 5 13.0462 5.16791 13.0462 5.39179V6.79104H12.7709C12.3856 6.79104 12.0553 6.45522 12.0553 6.06343V5.39179C12.0553 5.22388 11.8351 5 11.67 5 11.5048 5 11.2846 5.16791 11.2846 5.39179V6.06343C11.2846 6.90299 11.9452 7.57463 12.7709 7.57463H14.7527V19.6082C14.7527 19.8321 14.9178 20 15.138 20 15.3582 20 15.5233 19.8321 15.5233 19.6082V7.57463H17.5051C18.3308 7.57463 18.9914 6.90299 18.9914 6.06343V5.39179C19.0464 5.22388 18.8262 5 18.6611 5Z"/>
</svg>
