<svg viewBox="0 0 24 24" xmlns="http://www.w3.org/2000/svg" data-title="Smoking" fill="currentColor" stroke="none">
  <path d="M19.6311 10.6457 19.6674 10.7276 19.9455 11.4547C20.0963 11.8503 19.9236 12.2894 19.5576 12.4791L19.4762 12.5158 7.38355 17.145C6.99157 17.2971 6.55654 17.1229 6.3689 16.7542L6.33258 16.6723 6.05449 15.9452C5.90373 15.5496 6.07638 15.1105 6.44182 14.9211L6.5238 14.8841 18.6165 10.2549C19.0084 10.1028 19.4435 10.277 19.6311 10.6457ZM7.15421 15.5009 6.80086 15.6406 6.79133 15.65 6.79052 15.6632 7.06913 16.3917 7.07834 16.4014 7.09087 16.4024 7.44423 16.2627 7.15421 15.5009ZM15.1652 12.4384 7.90342 15.219 8.19272 15.9815 15.4552 13.2003 15.1652 12.4384ZM18.917 10.9973 18.9077 10.9981 15.9151 12.1457 16.2044 12.9076 19.1992 11.7593C19.2034 11.7577 19.2068 11.7541 19.2087 11.7499L19.2095 11.7367 18.9315 11.0098 18.9256 11.0015 18.917 10.9973ZM5.82064 10.5506C6.00536 10.5055 6.18641 10.6494 6.22699 10.85 6.26393 11.0325 6.16143 11.2118 6.01035 11.2776L5.95832 11.2951C5.83817 11.3281 5.7436 11.4274 5.70343 11.5597 5.67483 11.6539 5.70167 11.7631 5.79145 11.8819L5.84162 11.942C6.2315 12.3621 6.39517 12.9499 6.42524 13.5591L6.43003 13.7117 6.42956 13.8231C6.42956 13.9815 6.34333 14.115 6.20668 14.1735L6.14513 14.1939 6.08637 14.2H6.07532C5.89795 14.2 5.76186 14.0591 5.73643 13.872L5.73215 13.808 5.7326 13.7795C5.73632 13.3065 5.63564 12.7929 5.35949 12.4896 5.0137 12.1214 4.93933 11.6983 5.04351 11.3322 5.1597 10.9352 5.45725 10.6361 5.82064 10.5506ZM6.71952 6.31362C6.85754 6.16206 7.07745 6.16206 7.21546 6.31362 7.33815 6.44834 7.35178 6.65411 7.25636 6.80462L7.21546 6.85823 7.1056 6.9082C7.15484 6.8884 7.16599 6.89401 7.16777 6.9011L7.16761 6.90941 7.14417 6.94071C7.11028 6.98507 7.07561 7.03516 7.04195 7.08941L6.99241 7.17372C6.8591 7.41374 6.78164 7.66587 6.7858 7.90877 6.7952 8.21845 6.92558 8.50204 7.15574 8.71117 7.7634 9.32712 8.06131 10.07 7.98948 10.8061 7.94099 11.3652 7.65143 11.8638 7.20315 12.1645 7.03342 12.268 6.83109 12.2092 6.73078 12.0329 6.62978 11.8555 6.68562 11.617 6.84604 11.5069 7.10456 11.3282 7.26505 11.0473 7.29373 10.7221 7.34327 10.2434 7.12865 9.72544 6.67893 9.27646 6.29984 8.88619 6.10083 8.43231 6.08846 7.9291 6.07934 7.24824 6.39126 6.67409 6.71952 6.31362Z"/>
</svg>
