<svg viewBox="0 0 24 24" xmlns="http://www.w3.org/2000/svg" data-title="Sort" fill="currentColor" stroke="none">
  <path d="M8.25538 5.70752C8.25539 5.50041 8.08749 5.33252 7.88038 5.33252C7.67328 5.33252 7.50538 5.50041 7.50538 5.70752L7.50538 18.8646L5.75906 17.1183C5.61262 16.9718 5.37518 16.9718 5.22873 17.1183C5.08228 17.2647 5.08228 17.5022 5.22873 17.6486L7.61522 20.0351C7.76166 20.1816 7.9991 20.1816 8.14555 20.0351L10.532 17.6486C10.6785 17.5022 10.6785 17.2647 10.532 17.1183C10.3856 16.9718 10.1481 16.9718 10.0017 17.1183L8.25538 18.8646L8.25538 5.70752Z"/>
  <path fill-rule="evenodd" clip-rule="evenodd" d="M18.4788 7.96585C18.4788 8.17296 18.3109 8.34085 18.1038 8.34085H10.5282C10.3211 8.34085 10.1532 8.17296 10.1532 7.96585V5.71585C10.1532 5.50874 10.3211 5.34085 10.5282 5.34085H18.1038C18.3109 5.34085 18.4788 5.50874 18.4788 5.71585V7.96585ZM10.9032 7.59085H17.7288V6.09085H10.9032V7.59085ZM16.9788 11.7159C16.9788 11.923 16.8109 12.0909 16.6038 12.0909H10.5282C10.3211 12.0909 10.1532 11.923 10.1532 11.7159V9.46585C10.1532 9.25874 10.3211 9.09085 10.5282 9.09085H16.6038C16.8109 9.09085 16.9788 9.25874 16.9788 9.46585V11.7159ZM10.9032 11.3409H16.2288V9.84085H10.9032V11.3409ZM15.4788 15.4659C15.4788 15.673 15.3109 15.8409 15.1038 15.8409H10.5282C10.3211 15.8409 10.1532 15.673 10.1532 15.4659V13.2159C10.1532 13.0087 10.3211 12.8409 10.5282 12.8409H15.1038C15.3109 12.8409 15.4788 13.0087 15.4788 13.2159V15.4659ZM10.9032 15.0909H14.7288V13.5909H10.9032V15.0909Z"/>
</svg>
