<svg viewBox="0 0 24 24" xmlns="http://www.w3.org/2000/svg" data-title="Spa" fill="currentColor" stroke="none">
  <path fill-rule="evenodd" d="m15.9,17.41c-1.06.5-2.15.4-2.87.23,0,0,0,0,0,0,.08-.03.18-.07.29-.12.01,0,.03-.01.04-.02.11-.05.24-.11.37-.18,0,0,0,0,.01,0,.86-.45,2.06-1.3,2.77-2.72,0-.02.02-.03.03-.04.82-.06,1.59.04,2.06.13-.41.7-1.36,2.11-2.69,2.74Zm-7.81,0c-1.34-.62-2.29-2.04-2.69-2.74.46-.08,1.23-.19,2.05-.13.01.02.03.04.04.07.11.21.22.42.35.6,0,.01.01.02.02.03.13.19.26.36.4.52.02.02.03.04.05.06.14.16.29.3.44.44.03.02.05.05.08.07.15.13.3.25.44.36.02.02.04.03.07.05.31.23.61.41.88.55.01,0,.03.02.04.02.13.07.25.13.36.18.02,0,.03.01.05.02.11.05.2.09.28.12,0,0,0,0,0,0-.72.16-1.81.26-2.87-.23Zm-.4-8.07c.38.22.99.61,1.6,1.14-.07.3-.13.6-.17.92,0,.06-.02.12-.02.18-.03.29-.06.58-.06.88,0,.21,0,.41.03.61.01.13.03.26.05.39,0,.06.01.13.02.19.03.18.07.35.11.52,0,0,0,.01,0,.02.22.88.57,1.65.95,2.28-.07-.04-.15-.09-.22-.14-.07-.05-.14-.09-.22-.15-.11-.08-.22-.17-.33-.27-.06-.05-.13-.11-.19-.17-.11-.11-.23-.22-.34-.34-.06-.07-.12-.14-.18-.21-.1-.12-.2-.25-.3-.39-.09-.13-.16-.28-.24-.42-.05-.1-.11-.19-.16-.29-.76-1.7-.5-3.82-.33-4.74Zm4.3-2.88c.49.68,1.49,2.23,1.97,4.04.08.29.13.57.18.85,0,.04.02.09.03.13.05.33.07.65.07.97s-.03.59-.07.87c-.01.09-.03.18-.05.28-.03.19-.07.37-.12.54-.03.1-.06.19-.09.29-.05.17-.11.33-.17.49-.03.08-.06.16-.1.24-.08.19-.17.36-.26.53-.02.04-.04.07-.05.11-.48.88-1.03,1.52-1.34,1.84-.31-.32-.86-.97-1.34-1.85-.02-.03-.03-.06-.05-.1-.09-.17-.18-.36-.26-.55-.03-.07-.06-.15-.09-.23-.06-.16-.12-.33-.18-.5-.03-.09-.06-.19-.08-.28-.05-.18-.09-.36-.12-.55-.02-.09-.04-.18-.05-.27-.04-.28-.07-.57-.07-.87s.02-.63.07-.97c0-.06.02-.11.03-.17.04-.26.1-.53.17-.81.48-1.81,1.49-3.36,1.97-4.04Zm4.31,2.88c.17.92.43,3.06-.35,4.77-.12.27-.27.51-.43.74-.05.07-.11.14-.16.21-.11.14-.23.28-.35.41-.06.07-.13.13-.2.2-.12.11-.24.22-.36.32-.06.05-.13.1-.19.15-.14.1-.27.19-.4.27-.03.02-.06.04-.09.06.38-.64.74-1.41.96-2.29,0,0,0,0,0,0,.04-.17.08-.35.11-.53.01-.06.02-.12.02-.18.02-.13.04-.26.05-.4.02-.2.03-.41.03-.61,0-.3-.02-.59-.06-.88,0-.06-.01-.12-.02-.17-.04-.31-.1-.62-.17-.92.61-.53,1.22-.91,1.6-1.14Zm3.16,4.93c-.04-.1-.13-.17-.23-.2-.05-.01-1.11-.3-2.4-.26.76-2.34.09-4.99.06-5.11-.03-.1-.1-.19-.2-.24-.1-.05-.21-.05-.3,0-.04.02-.93.46-1.91,1.26-.75-2.27-2.13-3.99-2.21-4.09-.14-.17-.41-.17-.55,0-.08.1-1.46,1.82-2.21,4.09-.98-.8-1.87-1.24-1.91-1.26-.1-.05-.21-.05-.3,0-.1.05-.17.13-.19.24-.03.12-.7,2.77.06,5.11-1.29-.04-2.35.25-2.4.26-.1.03-.19.1-.23.2s-.04.21,0,.31c.05.1,1.21,2.54,3.26,3.49.69.32,1.39.43,2.02.43.73,0,1.35-.15,1.76-.27.1.1.17.17.19.18.07.06.15.09.23.09s.17-.03.23-.09c.02-.01.09-.08.19-.18.41.13,1.03.27,1.76.27.63,0,1.33-.11,2.02-.43,2.05-.96,3.21-3.39,3.26-3.49.05-.1.05-.21,0-.31Z"/>
</svg>
