<svg viewBox="0 0 24 24" xmlns="http://www.w3.org/2000/svg" data-title="StoreFill" fill="currentColor" stroke="none">
  <path fill-rule="evenodd" d="m4.86,2c-.14,0-.27.04-.38.12-.11.08-.21.18-.26.31l-2.14,4.74c-.05.12-.07.25-.06.37h0v1.4c0,.77.32,1.51.9,2.06.57.55,1.36.85,2.17.85h.43c.8,0,1.58-.3,2.17-.85.23-.22.42-.47.57-.75.18-.25.48-.25.65-.02.15.28.34.54.58.77.58.55,1.36.85,2.17.85h.77c.8,0,1.58-.3,2.17-.85.22-.21.41-.45.55-.72.19-.3.51-.3.69-.01.14.27.33.51.56.73.58.55,1.36.85,2.17.85h.38c.8,0,1.58-.3,2.17-.85.58-.55.9-1.29.9-2.06v-1.4h0c.01-.13-.01-.26-.06-.37l-2.14-4.74c-.06-.13-.15-.24-.26-.31-.11-.08-.25-.12-.38-.12H4.86Zm-.56,18.52v-6.89c.26.04.51.06.78.06h.43c1.11,0,2.2-.37,3.07-1.07.88.7,1.96,1.07,3.07,1.07h.77c1.11,0,2.19-.37,3.07-1.07.88.7,1.96,1.07,3.07,1.07h.38c.26,0,.52-.02.78-.06v6.89c0,.39-.15.77-.42,1.04s-.63.43-1.01.43h-6.01v-4.77c0-.2-.08-.38-.21-.52-.13-.14-.32-.22-.51-.22h-3.54c-.19,0-.37.08-.51.22-.13.14-.21.33-.21.52v4.77h-1.57c-.38,0-.74-.16-1.01-.43-.27-.28-.42-.65-.42-1.04Zm13.14-1.73c0,.2-.08.38-.21.52-.13.14-.32.22-.51.22h-1.43c-.19,0-.37-.08-.51-.22-.13-.14-.21-.33-.21-.52s.08-.38.21-.52c.13-.14.32-.22.51-.22h1.43c.19,0,.37.08.51.22.13.14.21.33.21.52h0Z"/>
</svg>
