<svg viewBox="0 0 24 24" xmlns="http://www.w3.org/2000/svg" data-title="StoreOutline" fill="currentColor" stroke="none">
  <path d="m21.93,7.42l-2.08-4.83c-.08-.18-.21-.33-.37-.43-.16-.11-.35-.16-.55-.16H5.07c-.19,0-.38.06-.54.16-.16.11-.29.26-.36.43l-2.09,4.83c-.05.13-.07.26-.07.39v1.38c0,.99.4,1.94,1.1,2.64.7.7,1.66,1.1,2.65,1.1h.39c.49,0,.98-.1,1.44-.28s.87-.47,1.22-.81l.12-.11s.07.07.11.11c.35.35.76.63,1.22.81.46.19.94.29,1.44.28h.69c.49,0,.98-.1,1.44-.28.46-.19.87-.47,1.22-.81l.12-.11.11.11c.35.35.76.63,1.22.81s.94.29,1.44.28h.35c1,0,1.95-.4,2.65-1.1.7-.7,1.1-1.65,1.1-2.64v-1.38c0-.13-.03-.27-.07-.39Zm-9.56,3.55h-.69c-.23,0-.46-.05-.68-.14-.22-.09-.41-.22-.58-.38-.16-.16-.3-.36-.38-.58-.09-.22-.13-.45-.13-.68v-.39h4.25v.39c0,.47-.19.92-.52,1.25-.33.33-.79.52-1.26.52Zm5.88,0h-.35c-.23,0-.46-.05-.68-.14-.22-.09-.41-.22-.58-.38-.16-.16-.3-.36-.38-.58-.09-.22-.13-.45-.13-.68v-.39h3.89v.39c0,.23-.04.46-.13.68-.09.21-.22.41-.38.58-.16.16-.36.3-.58.38-.22.09-.45.14-.68.14Zm1.26-4.1H4.49l1.23-2.86h12.56l1.23,2.86Zm-13.37,4.1h-.39c-.47,0-.92-.19-1.25-.52-.33-.34-.52-.79-.52-1.26v-.39h3.94v.39c0,.47-.19.92-.52,1.25-.33.33-.79.52-1.26.52Zm10.64,6.94c.26,0,.51-.1.7-.29s.29-.44.29-.7-.1-.51-.29-.7-.44-.29-.7-.29h-1.42c-.26,0-.51.1-.7.29-.19.18-.29.44-.29.7s.1.51.29.7c.19.18.44.29.7.29h1.42Z"/>
  <path d="m19.62,13.04c-.26,0-.51.1-.7.29s-.29.44-.29.7v5.58c0,.06,0,.11-.03.16-.02.05-.05.1-.09.14-.04.04-.09.07-.14.09-.05.02-.11.03-.16.03h-4.95v-4.2c0-.45-.18-.88-.5-1.2-.32-.32-.75-.5-1.2-.5h-3.51c-.45,0-.88.18-1.2.5-.32.32-.5.75-.5,1.2v4.2h-.57c-.06,0-.11-.01-.16-.03-.05-.02-.1-.05-.14-.09-.04-.04-.07-.09-.09-.14-.02-.05-.03-.11-.03-.16v-5.58c0-.26-.1-.51-.29-.7-.19-.18-.44-.29-.7-.29s-.51.1-.7.29c-.19.18-.29.44-.29.7v5.58c0,.31.06.63.18.92.12.29.3.55.52.78.22.22.49.4.78.52.29.12.6.18.92.18h12.43c.32,0,.63-.06.92-.18.29-.12.56-.3.78-.52.22-.22.4-.49.52-.78.12-.29.18-.6.18-.92v-5.58c0-.13-.03-.26-.08-.38-.05-.12-.12-.23-.22-.32s-.2-.16-.32-.21-.25-.07-.38-.07Zm-8.35,3.07v3.92h-2.94v-3.92h2.94Z"/>
</svg>
