<svg viewBox="0 0 24 24" xmlns="http://www.w3.org/2000/svg" data-title="Sun" fill="currentColor" stroke="none">
  <path d="m12,2c-.57,0-1.03.46-1.03,1.03v1.38c0,.57.46,1.03,1.03,1.03s1.03-.46,1.03-1.03v-1.38c0-.57-.46-1.03-1.03-1.03Zm-5.62,2.92c-.4-.4-1.05-.4-1.45,0-.4.4-.4,1.05,0,1.45l.98.98c.4.4,1.05.4,1.45,0,.4-.4.4-1.05,0-1.45l-.98-.98Zm12.7,0c-.4-.4-1.05-.4-1.45,0l-.98.98c-.4.4-.4,1.05,0,1.45.4.4,1.05.4,1.45,0l.98-.98c.4-.4.4-1.05,0-1.45Z"/>
  <path fill-rule="evenodd" d="m12,6.49c-3.04,0-5.51,2.47-5.51,5.51s2.47,5.51,5.51,5.51,5.51-2.47,5.51-5.51-2.47-5.51-5.51-5.51Zm-3.46,5.51c0-1.91,1.55-3.46,3.46-3.46s3.46,1.55,3.46,3.46-1.55,3.46-3.46,3.46-3.46-1.55-3.46-3.46Z"/>
  <path d="m19.59,10.97c-.57,0-1.03.46-1.03,1.03s.46,1.03,1.03,1.03h1.38c.57,0,1.03-.46,1.03-1.03s-.46-1.03-1.03-1.03h-1.38Zm-16.57,0c-.57,0-1.03.46-1.03,1.03s.46,1.03,1.03,1.03h1.38c.57,0,1.03-.46,1.03-1.03s-.46-1.03-1.03-1.03h-1.38Zm4.33,5.67c-.4-.4-1.05-.4-1.45,0l-.98.98c-.4.4-.4,1.05,0,1.45.4.4,1.05.4,1.45,0l.98-.98c.4-.4.4-1.05,0-1.45Zm10.74,0c-.4-.4-1.05-.4-1.45,0s-.4,1.05,0,1.45l.98.98c.4.4,1.05.4,1.45,0,.4-.4.4-1.05,0-1.45l-.98-.98Zm-6.1,1.92c-.57,0-1.03.46-1.03,1.03v1.38c0,.57.46,1.03,1.03,1.03s1.03-.46,1.03-1.03v-1.38c0-.57-.46-1.03-1.03-1.03Z"/>
</svg>
