<svg viewBox="0 0 24 24" xmlns="http://www.w3.org/2000/svg" data-title="SunOrientation" fill="currentColor" stroke="none">
  <path fill-rule="evenodd" clip-rule="evenodd" d="M12.5 4.19995C17.1944 4.19995 21 8.00553 21 12.7C21 17.3944 17.1944 21.2 12.5 21.2C7.80558 21.2 4 17.3944 4 12.7C4 8.00553 7.80558 4.19995 12.5 4.19995ZM12.1136 4.98217C10.3092 5.07103 8.66758 5.7788 7.39654 6.89763L8.13733 7.6387C8.28756 7.78893 8.28756 8.0325 8.13733 8.18273C8.00379 8.31627 7.7965 8.33111 7.64657 8.22724L7.59329 8.18273L6.84497 7.43385C5.64116 8.726 4.87492 10.4312 4.78222 12.3135L5.93182 12.3136C6.1452 12.3136 6.31818 12.4866 6.31818 12.7C6.31818 12.8896 6.18151 13.0474 6.00127 13.0801L5.93182 13.0863L4.78226 13.0871C4.87129 14.8912 5.57901 16.5326 6.69768 17.8034L7.43875 17.0626L7.49202 17.0181C7.64195 16.9142 7.84924 16.9291 7.98278 17.0626C8.13301 17.2129 8.13301 17.4564 7.98278 17.6067L7.2339 18.355C8.52605 19.5588 10.2313 20.325 12.1136 20.4177L12.1136 19.2681C12.1136 19.0547 12.2866 18.8818 12.5 18.8818C12.6897 18.8818 12.8474 19.0184 12.8801 19.1987L12.8864 19.2681L12.8872 20.4177C14.8856 20.3191 16.6843 19.4613 18.001 18.1267L17.249 17.3748C17.0988 17.2246 17.0988 16.981 17.249 16.8308C17.3826 16.6973 17.5899 16.6824 17.7398 16.7863L17.7931 16.8308L18.5145 17.5518C19.5101 16.3192 20.1345 14.7743 20.2177 13.0871L19.0682 13.0863C18.8548 13.0863 18.6818 12.9133 18.6818 12.7C18.6818 12.5103 18.8185 12.3525 18.9987 12.3198L19.0682 12.3136L20.2178 12.3135C20.1251 10.4312 19.3588 8.726 18.155 7.43385L17.4067 8.18273L17.3534 8.22724C17.2035 8.33111 16.9962 8.31627 16.8627 8.18273C16.7124 8.0325 16.7124 7.78893 16.8627 7.6387L17.6035 6.89763C16.3326 5.77896 14.6913 5.07124 12.8872 4.98221L12.8864 6.13177C12.8864 6.34515 12.7134 6.51813 12.5 6.51813C12.3103 6.51813 12.1526 6.38146 12.1199 6.20122L12.1136 6.13177L12.1136 4.98217ZM14.0453 7.66656L14.0412 7.73931L13.3671 12.6823L13.3662 12.6887C13.3656 12.6944 13.3646 12.7 13.3634 12.7057C13.3599 12.723 13.3555 12.7395 13.3503 12.7554L13.3369 12.788L13.3361 12.7904C13.3314 12.8024 13.3286 12.808 13.3257 12.8136L13.3192 12.8252L10.8881 17.1405C10.691 17.4903 10.1916 17.3353 10.182 16.9606L10.1861 16.8879L10.8601 11.9449L10.8611 11.9385C10.8617 11.9328 10.8627 11.9271 10.8638 11.9215C10.8674 11.9042 10.8717 11.8877 10.877 11.8718L10.8906 11.8367L10.8932 11.8306L10.8974 11.8214L10.9016 11.8135L10.908 11.802L13.3392 7.48669C13.5362 7.13691 14.0357 7.29189 14.0453 7.66656ZM11.5456 12.5254L11.2056 15.0197L12.432 12.8421L11.8123 12.6204L11.5456 12.5254ZM13.021 9.60671L11.794 11.7848L11.898 11.8214L12.6809 12.101L13.021 9.60671Z"/>
</svg>
