<svg viewBox="0 0 24 24" xmlns="http://www.w3.org/2000/svg" data-title="SunOrientation" fill="currentColor" stroke="none">
  <path fill-rule="evenodd" d="m12,3.5c4.69,0,8.5,3.81,8.5,8.5s-3.81,8.5-8.5,8.5S3.5,16.69,3.5,12,7.31,3.5,12,3.5Zm-.39.78c-1.8.09-3.45.8-4.72,1.92l.74.74c.15.15.15.39,0,.54-.13.13-.34.15-.49.04l-.05-.04-.75-.75c-1.2,1.29-1.97,3-2.06,4.88h1.15c.21,0,.39.17.39.39,0,.19-.14.35-.32.38h-.07s-1.15,0-1.15,0c.09,1.8.8,3.45,1.92,4.72l.74-.74.05-.04c.15-.1.36-.09.49.04.15.15.15.39,0,.54l-.75.75c1.29,1.2,3,1.97,4.88,2.06v-1.15c0-.21.17-.39.39-.39.19,0,.35.14.38.32v.07s0,1.15,0,1.15c2-.1,3.8-.96,5.11-2.29l-.75-.75c-.15-.15-.15-.39,0-.54.13-.13.34-.15.49-.04l.05.04.72.72c1-1.23,1.62-2.78,1.7-4.46h-1.15c-.21,0-.39-.17-.39-.39,0-.19.14-.35.32-.38h.07s1.15,0,1.15,0c-.09-1.88-.86-3.59-2.06-4.88l-.75.75-.05.04c-.15.1-.36.09-.49-.04-.15-.15-.15-.39,0-.54l.74-.74c-1.27-1.12-2.91-1.83-4.72-1.92v1.15c0,.21-.17.39-.39.39-.19,0-.35-.14-.38-.32v-.07s0-1.15,0-1.15Zm1.93,2.68v.07s-.68,4.94-.68,4.94h0s0,.02,0,.02c0,.02,0,.03-.01.05v.03s-.01,0-.01,0c0,.01,0,.02-.01.02h0s-2.43,4.33-2.43,4.33c-.2.35-.7.19-.71-.18v-.07s.68-4.94.68-4.94h0s0-.02,0-.02c0-.02,0-.03.01-.05v-.04s.02,0,.02,0h0s0-.02,0-.02h0s2.43-4.33,2.43-4.33c.2-.35.7-.19.71.18Zm-2.5,4.86l-.34,2.49,1.23-2.18-.62-.22-.27-.1Zm1.48-2.92l-1.23,2.18.1.04.78.28.34-2.49Z"/>
</svg>
