<svg viewBox="0 0 24 24" xmlns="http://www.w3.org/2000/svg" data-title="Sunroof" fill="currentColor" stroke="none">
  <path d="m15.27,8.16c.01-.08,0-.16-.05-.23-.06-.1-.15-.16-.25-.19-2.93-.71-5.57-.03-5.69,0-.1.03-.2.1-.24.18-.05.08-.06.16-.05.24v8.54c0,.22.18.38.4.38h5.63c.09,0,.18-.04.24-.1,0,0,.02-.02.03-.03.07-.06.1-.15.1-.25l-.13-8.5v-.05h-.01Zm-.93.22c-.18.52-.33,1.02-.42,1.33h-3.61l-.42-1.33c.76-.14,2.52-.39,4.43,0h.01Zm-4.4,7.96l.5-1.46h3.62l.4,1.46h-4.52Zm4.43-2.21h-4.24c-.14,0-.27.06-.35.17v-3.91c.07.04.14.06.22.06h4.24c.09,0,.18-.03.25-.09l.06,3.79s-.12-.04-.18-.04h0Z"/>
  <path d="m17.94,9.63l-.99-1.28s-.03-.01-.05-.03v-1.89c-.14-1.18-1.12-2.43-2.64-2.43h-4.24c-1.36.01-2.53,1.37-2.53,2.48v2.01s-.07,0-.09.02l-1.25.93c-.17.13-.21.37-.06.53.08.1.2.14.31.14.09,0,.17-.03.25-.09l.83-.63v8.36c0,1.27,1.08,2.24,2.52,2.24h4.35c1.38,0,2.52-1,2.52-2.24v-8.19l.39.51c.08.1.2.15.32.15.08,0,.16-.02.24-.08.18-.12.22-.36.09-.53h.01Zm-1.85-3.15c-.58-.19-1.71-.85-1.98-1.72h.15c1.02,0,1.73.9,1.83,1.72Zm-5.81-1.72c-.28.86-1.41,1.52-1.99,1.73,0-.77.83-1.73,1.71-1.73h.28Zm-.05,14.48h-.22c-.74,0-1.33-.35-1.58-.87.45.14,1.08.29,1.8.35v.54h0Zm4.13,0h-.47v-.65c.93-.05,1.69-.28,2.11-.44-.21.63-.88,1.09-1.65,1.09h.01Zm1.67-1.93s-1.06.54-2.54.54c-.22,0-.4.17-.4.38v1.01h-2.05v-.91c0-.2-.18-.38-.4-.38-1.02,0-1.93-.29-2.33-.45V7.28c.81-.2,2.52-1.12,2.79-2.51h2.18c.28,1.39,1.99,2.31,2.79,2.51v10.02s-.02.01-.05.02h.01Z"/>
  <path d="M13.87 10.87h-3.36c-.22 0-.4.17-.4.38s.18.38.4.38h3.36c.22 0 .4-.17.4-.38s-.18-.38-.4-.38ZM13.87 11.92h-3.36c-.22 0-.4.17-.4.38s.18.38.4.38h3.36c.22 0 .4-.17.4-.38s-.18-.38-.4-.38ZM13.87 12.97h-3.36c-.22 0-.4.17-.4.38s.18.38.4.38h3.36c.22 0 .4-.17.4-.38s-.18-.38-.4-.38Z"/>
</svg>
