<svg viewBox="0 0 24 24" xmlns="http://www.w3.org/2000/svg" data-title="SupportSmileFill" fill="currentColor" stroke="none">
  <path d="M10.2738 5.10946C10.8174 4.89519 11.398 4.79028 11.9822 4.80076C11.9941 4.80097 12.0061 4.80097 12.018 4.80076C12.6023 4.79028 13.1828 4.89519 13.7264 5.10946C14.27 5.32372 14.766 5.64315 15.1859 6.04942C15.6059 6.4557 15.9415 6.94084 16.1736 7.47705C16.4048 8.01107 16.5288 8.58529 16.5385 9.16707V11.3999L16.5384 11.416V14.1592C16.5382 14.1678 16.5381 14.1764 16.5381 14.1851V17.3003C16.5381 17.7695 16.3517 18.2194 16.0199 18.5512C15.8707 18.7005 15.6975 18.8203 15.5094 18.9069C15.3764 18.6242 15.1946 18.3637 14.9694 18.1385C14.4573 17.6264 13.7627 17.3387 13.0384 17.3387H10.9615C10.2373 17.3387 9.54268 17.6264 9.03055 18.1385C8.51843 18.6506 8.23072 19.3451 8.23072 20.0694C8.23072 20.7936 8.51843 21.4881 9.03055 22.0003C9.54268 22.5124 10.2373 22.8 10.9615 22.8H13.0384C13.7627 22.8 14.4573 22.5124 14.9694 22.0003C15.2618 21.7079 15.481 21.356 15.6153 20.9731C16.2986 20.8156 16.9304 20.4692 17.4342 19.9654C18.141 19.2586 18.5382 18.2999 18.5382 17.3003V17.2619H19.6154C20.2478 17.2619 20.8543 17.0107 21.3016 16.5635C21.7488 16.1163 22 15.5098 22 14.8773V12.1083C22 11.4758 21.7488 10.8693 21.3016 10.4221C20.8543 9.97494 20.2478 9.72371 19.6154 9.72371H18.5386V9.15911L18.5385 9.144C18.5256 8.29669 18.3458 7.46024 18.0091 6.68256C17.6725 5.90488 17.1857 5.20127 16.5767 4.61205C15.9676 4.02282 15.2483 3.55955 14.4599 3.24879C13.677 2.94023 12.8414 2.78805 12.0001 2.80079C11.1589 2.78805 10.3232 2.94023 9.54035 3.24879C8.75194 3.55955 8.03261 4.02282 7.42356 4.61205C6.81451 5.20127 6.32772 5.90488 5.99108 6.68256C5.65444 7.46024 5.47456 8.29669 5.46176 9.144L5.46165 9.15911V9.72366H4.38465C3.7522 9.72366 3.14565 9.97489 2.69845 10.4221C2.25124 10.8693 2 11.4758 2 12.1082V14.8773C2 15.5097 2.25124 16.1162 2.69845 16.5634C3.14565 17.0106 3.7522 17.2618 4.38465 17.2618H5.76925C6.21808 17.2618 6.64854 17.0835 6.96592 16.7662C7.28329 16.4488 7.46159 16.0184 7.46159 15.5696V12.8172L7.46173 12.8005V9.16704C7.47146 8.58528 7.59542 8.01106 7.82658 7.47705C8.0587 6.94084 8.39434 6.4557 8.81428 6.04942C9.23422 5.64315 9.7302 5.32372 10.2738 5.10946Z"/>
  <path d="M9.64101 12.7033C10.0889 12.5839 10.5488 12.8502 10.6682 13.2981C10.7804 13.7189 11.3132 14.1317 12.0459 14.1718C12.3877 14.1905 12.676 14.1234 12.8922 13.9843C13.1062 13.8467 13.2588 13.6327 13.3228 13.3369C13.4207 12.8838 13.8675 12.596 14.3205 12.694C14.7736 12.792 15.0615 13.2387 14.9635 13.6917C14.6111 15.321 13.1762 15.9147 11.9543 15.8478C10.7847 15.7839 9.41064 15.0973 9.04624 13.7305C8.92682 13.2826 9.19311 12.8227 9.64101 12.7033Z"/>
</svg>
