<svg viewBox="0 0 24 24" xmlns="http://www.w3.org/2000/svg" data-title="SupportFill" fill="currentColor" stroke="none">
  <path fill-rule="evenodd" clip-rule="evenodd" d="M11.9818 4.80076C11.3976 4.79028 10.817 4.89519 10.2735 5.10946C9.72987 5.32372 9.23391 5.64315 8.81399 6.04942C8.39406 6.4557 8.05844 6.94084 7.82633 7.47705C7.59518 8.01106 7.47122 8.58528 7.46149 9.16704V12.8005L7.46136 12.8172V15.5696C7.46136 16.0184 7.28307 16.4488 6.9657 16.7662C6.64834 17.0835 6.2179 17.2618 5.76909 17.2618H4.38454C3.75212 17.2618 3.1456 17.0106 2.69842 16.5634C2.25123 16.1162 2 15.5097 2 14.8773V12.1082C2 11.4758 2.25123 10.8693 2.69842 10.4221C3.1456 9.97489 3.75212 9.72366 4.38454 9.72366H5.4615V9.15911L5.46161 9.144C5.47441 8.29669 5.65428 7.46024 5.99091 6.68256C6.32753 5.90488 6.8143 5.20127 7.42333 4.61205C8.03235 4.02282 8.75165 3.55955 9.54002 3.24879C10.3228 2.94023 11.1585 2.78805 11.9997 2.80079C12.8409 2.78805 13.6765 2.94023 14.4593 3.24879C15.2477 3.55955 15.967 4.02282 16.576 4.61205C17.185 5.20127 17.6718 5.90488 18.0084 6.68256C18.3451 7.46024 18.5249 8.29669 18.5377 9.144L18.5379 9.15911V9.72371H19.6146C20.247 9.72371 20.8535 9.97494 21.3007 10.4221C21.7479 10.8693 21.9991 11.4758 21.9991 12.1083V14.8773C21.9991 15.5098 21.7479 16.1163 21.3007 16.5635C20.8535 17.0107 20.247 17.2619 19.6146 17.2619H18.5375V17.3003C18.5375 18.2999 18.1404 19.2586 17.4335 19.9654C16.9297 20.4692 16.298 20.8156 15.6147 20.9731C15.4804 21.356 15.2612 21.7079 14.9688 22.0003C14.4567 22.5124 13.7622 22.8 13.038 22.8H10.9611C10.2369 22.8 9.54235 22.5124 9.03025 22.0003C8.51815 21.4881 8.23045 20.7936 8.23045 20.0694C8.23045 19.3451 8.51815 18.6506 9.03025 18.1385C9.54235 17.6264 10.2369 17.3387 10.9611 17.3387H13.038C13.7622 17.3387 14.4567 17.6264 14.9688 18.1385C15.194 18.3637 15.3758 18.6242 15.5089 18.9069C15.6969 18.8203 15.8701 18.7005 16.0193 18.5512C16.3511 18.2194 16.5375 17.7695 16.5375 17.3003V14.1851C16.5375 14.1764 16.5376 14.1678 16.5378 14.1592V11.416L16.5379 11.3999V9.16707C16.5281 8.58529 16.4042 8.01107 16.173 7.47705C15.9409 6.94084 15.6053 6.4557 15.1854 6.04942C14.7654 5.64315 14.2695 5.32372 13.7259 5.10946C13.1823 4.89519 12.6018 4.79028 12.0176 4.80076C12.0057 4.80097 11.9937 4.80097 11.9818 4.80076Z"/>
</svg>
