<svg viewBox="0 0 24 24" xmlns="http://www.w3.org/2000/svg" data-title="Surface" fill="currentColor" stroke="none">
  <path fill-rule="evenodd" d="m18.63,5c.2,0,.37.16.37.37v13.26c0,.2-.16.37-.37.37H5.37c-.2,0-.37-.17-.37-.37V5.37c0-.2.16-.37.37-.37h13.26Zm-.41.78H5.78v12.44h12.44V5.78Zm-10.03,10.74l.03.04s-.04-.05-.06-.08v-.02s-.02-.03-.03-.04c0,0,0-.01,0-.02,0-.02,0-.03,0-.05,0,0,0-.01,0-.02v-.02s0-.04,0-.04h0s0-.03,0-.03c0-.02,0-.03,0-.05v-.02s.02-.03.02-.04v-.02s.02-.02.03-.03c0,0,0,0,0,0v-.02s.03-.01.03-.02h0s0-.02,0-.02l1.13-1.07c.16-.15.4-.14.55.02.13.14.14.35.03.5l-.05.05-.41.39h6.4v-6.41l-.4.42c-.15.16-.39.16-.55.02-.14-.13-.16-.34-.06-.49l.04-.06,1.07-1.13.02-.02.02-.02h-.01s0,0,0,0l.02-.02s0,0,0,0h0s.04-.02.04-.02c0,0,.01,0,.02-.01.01,0,.03-.01.04-.02h.02s.03-.01.05-.02c0,0,.01,0,.02,0,.01,0,.02,0,.04,0h.02s.01,0,.01,0c0,0,.01,0,.02,0,.02,0,.03,0,.05,0h.02s.03.02.04.02c0,0,.01,0,.02.01.01,0,.02.01.03.02,0,0,0,0,0,0h.02s.01.03.02.03h0s0,.02,0,.02l1.07,1.13c.15.16.14.4-.02.55-.14.13-.35.14-.5.03l-.05-.05-.4-.42v6.8c0,.19-.14.35-.32.38h-.07s-6.81,0-6.81,0l.43.4c.16.15.16.39.02.55-.13.14-.34.16-.49.06l-.06-.04-1.13-1.07-.02-.02-.03-.04h0s.02.02.02.02v-.02Z"/>
</svg>
