<svg viewBox="0 0 24 24" xmlns="http://www.w3.org/2000/svg" data-title="TableArtProduct" fill="currentColor" stroke="none">
  <path fill-rule="evenodd" d="m19.12,6c.19,0,.35.13.38.31v.07s0,11.25,0,11.25c0,.21-.17.38-.38.38-.19,0-.35-.13-.38-.31v-.07s0-4.24,0-4.24h-1.35c-.19,0-.35-.13-.39-.3-.04-.18-.94-4.38,1.75-6.98.09-.09.22-.13.34-.11h.04Zm-10.39.75c.22,0,.39.16.39.36v3.57c-.04,1.02-.85,1.86-1.92,2.04v4.53s1.15,0,1.15,0c.21,0,.38.17.38.38,0,.18-.14.34-.32.37h-.07s-3.08,0-3.08,0c-.21,0-.38-.17-.38-.38,0-.18.14-.34.32-.37h.07s1.15,0,1.15,0v-4.53c-1.1-.18-1.92-1.06-1.92-2.11v-3.5c0-.2.18-.36.39-.36s.39.16.39.36v2.12c.42.14.88.14,1.31,0,.56-.22,1.16-.28,1.74-.17v-1.95c0-.2.17-.36.39-.36Zm6.16-.38c.21,0,.38.17.38.39v1.84c0,.61-.25,1.2-.68,1.62-.34.34-.78.56-1.25.62v6.81c0,.19-.17.34-.39.34-.19,0-.35-.12-.38-.28v-.06s0-6.81,0-6.81c-1.09-.15-1.92-1.1-1.92-2.25v-1.84c0-.21.17-.39.38-.39s.38.17.38.39v1.84c0,.39.15.75.39,1.02v-2.56c0-.17.17-.31.38-.31.19,0,.35.11.38.26v.06s0,3,0,3c.1.02.2.03.3.03h.11c.12,0,.24,0,.36-.03v-3c0-.17.17-.31.38-.31.19,0,.35.11.38.26v.06s0,2.56,0,2.56l.03-.04c.23-.27.36-.62.36-.98v-1.84c0-.21.17-.39.38-.39Zm3.84.93c-1.37,1.91-1.15,4.47-1.03,5.34h1.03v-5.34Zm-11.73,2.63c-.3.14-.64.2-.97.19-.25,0-.51-.04-.75-.1v.66c0,.77.68,1.39,1.53,1.39s1.53-.62,1.53-1.39v-.82c-.44-.11-.9-.08-1.33.08Z"/>
</svg>
