<svg viewBox="0 0 24 24" xmlns="http://www.w3.org/2000/svg" data-title="TableArtMaterial" fill="currentColor" stroke="none">
  <path fill-rule="evenodd" d="m9.15,5c.05,0,.1.01.15.04h1.6c.2,0,.36.18.36.39v13.19c0,.21-.16.39-.36.39h-1.52s0,0,0,0h0s-4,0-4,0c-.2,0-.36-.17-.36-.39V5.43c0-.21.16-.38.36-.39h1.25s.09-.03.14-.03c.05,0,.09.01.13.03h2.11s.1-.04.15-.04Zm8.65.04c.2,0,.36.17.36.39v7.05c0,.21-.16.39-.36.39s-.36-.17-.36-.39v-6.69h-4.8v12.41h4.8v-2.85c0-.21.16-.39.36-.39s.36.17.36.39v3.27c0,.21-.16.39-.36.39h-5.53c-.2,0-.36-.17-.36-.39V5.43c0-.21.16-.39.36-.39h5.53Zm-11.41.78h-.68v12.41h.68s0-4.29,0-4.29c0-.21.16-.39.36-.39s.36.17.36.39v4.29s1.89,0,1.89,0v-3.49c0-.21.16-.39.36-.39s.36.17.36.39v3.49s.8,0,.8,0V5.81h-1.02s0,3.45,0,3.45c0,.21-.16.38-.36.39-.2,0-.36-.17-.36-.39v-3.45h-1.67v1.47c0,.21-.16.38-.36.39-.2,0-.36-.17-.36-.39v-1.47Zm1.49,4.9c.2,0,.36.17.36.39v4.41c0,.21-.16.39-.36.39s-.36-.17-.36-.39v-4.41c0-.21.16-.39.36-.39Zm1.85,0c.2,0,.36.17.36.39v1.82c0,.21-.16.39-.36.39s-.36-.17-.36-.39v-1.82c0-.21.16-.39.36-.39Zm5.4-4.21l1.77,1.55c.07.06.12.16.13.26,0,.1-.02.2-.08.28-.07.09-.17.14-.28.14-.08,0-.16-.03-.23-.09l-1.77-1.55c-.15-.14-.17-.38-.05-.55.13-.16.36-.18.51-.05Zm1.18-.36l.68.6c.12.1.17.28.11.43-.05.16-.19.26-.34.26h-.01c-.08,0-.16-.04-.22-.09l-.72-.6c-.14-.15-.14-.4,0-.55.06-.08.15-.13.24-.14.1,0,.19.02.26.09Zm2.41,6.57c.12.04.22.14.25.27.03.13,0,.27-.09.37l-.41.44c-.07.08-.16.12-.25.12-.1,0-.19-.04-.25-.12-.07-.07-.11-.17-.11-.27s.04-.2.11-.27l.41-.44c.09-.1.22-.13.34-.1Zm-1.1,1.45c.14.15.14.4,0,.55l-.41.44c-.07.07-.16.12-.26.12-.1,0-.19-.04-.25-.12-.07-.07-.11-.17-.11-.28s.04-.2.11-.28l.41-.44c.14-.15.37-.15.51,0Zm.85,0l.41.44c.07.07.11.17.11.28s-.04.2-.11.28c-.07.08-.16.12-.26.12-.1,0-.19-.04-.25-.12l-.4-.44c-.07-.07-.11-.17-.11-.28s.04-.2.11-.28c.14-.15.36-.15.5,0Zm-1.52-1.43c.1,0,.19.04.26.11l.41.44c.14.15.14.39,0,.54-.07.06-.17.09-.26.09-.1,0-.19-.04-.25-.12l-.41-.41c-.07-.07-.11-.17-.11-.27s.04-.2.11-.27c.07-.07.16-.11.26-.11Z"/>
</svg>
