<svg viewBox="0 0 24 24" xmlns="http://www.w3.org/2000/svg" data-title="TableArtProduct" fill="currentColor" stroke="none">
  <path fill-rule="evenodd" clip-rule="evenodd" d="M19.6154 6.19995C19.8042 6.19995 19.9612 6.33261 19.9938 6.50754L20 6.57495V17.825C20 18.0321 19.8278 18.2 19.6154 18.2C19.4266 18.2 19.2695 18.0673 19.237 17.8924L19.2308 17.825V13.5897L17.8766 13.5898C17.686 13.5898 17.5217 13.4643 17.4836 13.2895C17.4435 13.1093 16.5451 8.90455 19.2322 6.31415C19.3238 6.22594 19.4503 6.18868 19.5714 6.2029L19.6154 6.19995ZM9.22425 6.94995C9.44027 6.94995 9.61538 7.10985 9.61538 7.30709V10.8785C9.5782 11.9005 8.761 12.7378 7.69287 12.9154L7.69231 17.4492L8.84615 17.45C9.05857 17.45 9.23077 17.6178 9.23077 17.825C9.23077 18.009 9.09471 18.1622 8.91529 18.1939L8.84615 18.2H5.76923C5.55681 18.2 5.38462 18.0321 5.38462 17.825C5.38462 17.6409 5.52067 17.4877 5.7001 17.456L5.76923 17.45L6.92308 17.4492L6.92326 12.9154C5.82743 12.733 4.99984 11.8571 5 10.8071V7.30709C5 7.10985 5.17512 6.94995 5.39113 6.94995C5.60715 6.94995 5.78227 7.10985 5.78227 7.30709L5.78167 9.42434C6.20554 9.56022 6.66492 9.56044 7.09267 9.4207C7.64821 9.19985 8.25295 9.1446 8.83344 9.25545L8.83312 7.30709C8.83312 7.10985 9.00823 6.94995 9.22425 6.94995ZM15.3884 6.57495C15.5987 6.57495 15.7692 6.74891 15.7692 6.9635V8.8052C15.7674 9.41726 15.524 10.0028 15.0942 10.4297C14.7517 10.7698 14.3138 10.9864 13.8467 11.053L13.8462 17.859C13.8462 18.0473 13.674 18.2 13.4615 18.2C13.2727 18.2 13.1157 18.0794 13.0831 17.9203L13.0769 17.859L13.0773 11.0538C11.9904 10.904 11.1538 9.9537 11.1538 8.8052V6.9635C11.1538 6.74891 11.3243 6.57495 11.5347 6.57495C11.745 6.57495 11.9155 6.74891 11.9155 6.9635V8.8052C11.9155 9.19835 12.0645 9.55598 12.3081 9.8225L12.3077 7.26245C12.3077 7.08986 12.4799 6.94995 12.6923 6.94995C12.8811 6.94995 13.0382 7.0605 13.0707 7.20628L13.0769 7.26245L13.0767 10.2656C13.1739 10.2863 13.2746 10.2972 13.3778 10.2972H13.4844C13.6071 10.3024 13.7288 10.2918 13.8468 10.2664L13.8462 7.26245C13.8462 7.08986 14.0184 6.94995 14.2308 6.94995C14.4196 6.94995 14.5766 7.0605 14.6092 7.20628L14.6154 7.26245V9.8202L14.6492 9.78506C14.8796 9.51444 15.0079 9.16672 15.0076 8.8052V6.9635C15.0076 6.74891 15.1781 6.57495 15.3884 6.57495ZM19.2308 7.50954C17.8607 9.42134 18.084 11.977 18.2055 12.8465L19.2308 12.8465L19.2308 7.50954ZM7.50219 10.1354C7.20015 10.2763 6.86712 10.3404 6.53351 10.3218C6.27945 10.3157 6.02748 10.2821 5.782 10.2221L5.78227 10.8785C5.78227 11.6478 6.46522 12.2714 7.30769 12.2714C8.15016 12.2714 8.83312 11.6478 8.83312 10.8785L8.83375 10.06C8.39448 9.95097 7.92971 9.97608 7.50219 10.1354Z"/>
</svg>
