<svg viewBox="0 0 24 24" xmlns="http://www.w3.org/2000/svg" data-title="TableArtMaterial" fill="currentColor" stroke="none">
  <path fill-rule="evenodd" clip-rule="evenodd" d="M9.1478 5.19995C9.20124 5.20107 9.25187 5.21441 9.29739 5.23748L10.8935 5.23873C11.0911 5.24286 11.2503 5.41409 11.2542 5.62654V18.8121C11.2542 19.0263 11.0927 19.2 10.8935 19.2L9.37173 19.1999C9.36923 19.1999 9.36672 19.2 9.3642 19.2L9.35621 19.1992L5.36068 19.2C5.16148 19.2 5 19.0263 5 18.8121V5.62654C5.00384 5.41409 5.16309 5.24286 5.36068 5.23873L6.61419 5.23742C6.65689 5.21828 6.70374 5.20771 6.75289 5.20771C6.80031 5.2087 6.84553 5.21931 6.88691 5.23781L8.99392 5.23691C9.04059 5.21321 9.09275 5.19995 9.1478 5.19995ZM17.7969 5.23873C17.996 5.23873 18.1575 5.41236 18.1575 5.62654V12.677C18.1575 12.8911 17.996 13.0648 17.7969 13.0648C17.5977 13.0648 17.4362 12.8911 17.4362 12.677V5.98333H12.6319V18.3933H17.4362V15.5468C17.4362 15.3326 17.5977 15.159 17.7969 15.159C17.996 15.159 18.1575 15.3326 18.1575 15.5468V18.8121C18.1575 19.0263 17.996 19.2 17.7969 19.2H12.2713C12.0721 19.2 11.9106 19.0263 11.9106 18.8121V5.62654C11.9106 5.41236 12.0721 5.23873 12.2713 5.23873H17.7969ZM6.39189 6.01428L5.71414 6.01436V18.4243L6.39189 18.4237L6.39222 14.1351C6.39222 13.9209 6.5537 13.7473 6.75289 13.7473C6.95209 13.7473 7.11357 13.9209 7.11357 14.1351L7.11326 18.4237H9.00326L9.00352 14.934C9.00352 14.7198 9.16501 14.5462 9.3642 14.5462C9.5634 14.5462 9.72488 14.7198 9.72488 14.934L9.72463 18.4237L10.5256 18.4243V6.01436L9.508 6.01428L9.50847 9.46588C9.50464 9.67833 9.34538 9.84956 9.1478 9.85369C8.9486 9.85369 8.78712 9.68006 8.78712 9.46588L8.78663 6.01428H7.11326L7.11357 7.48028C7.10973 7.69273 6.95048 7.86397 6.75289 7.86809C6.5537 7.86809 6.39222 7.69447 6.39222 7.48028L6.39189 6.01428ZM7.87821 10.9163C8.07741 10.9163 8.23889 11.0899 8.23889 11.3041V15.7096C8.23889 15.9238 8.07741 16.0975 7.87821 16.0975C7.67901 16.0975 7.51753 15.9238 7.51753 15.7096V11.3041C7.51753 11.0899 7.67901 10.9163 7.87821 10.9163ZM9.73209 10.9163C9.93129 10.9163 10.0928 11.0899 10.0928 11.3041V13.1268C10.0928 13.341 9.93129 13.5146 9.73209 13.5146C9.5329 13.5146 9.37142 13.341 9.37142 13.1268V11.3041C9.37142 11.0899 9.5329 10.9163 9.73209 10.9163ZM15.135 6.70466L16.9024 8.25591C16.9773 8.31979 17.025 8.41358 17.0345 8.51589C17.044 8.61819 17.0145 8.72027 16.9529 8.79884C16.8834 8.88853 16.7801 8.93981 16.6715 8.93846C16.5883 8.93629 16.5076 8.90649 16.4407 8.85314L14.6734 7.30189C14.5236 7.16164 14.5015 6.92019 14.6229 6.7512C14.7536 6.58877 14.9809 6.56811 15.135 6.70466ZM16.3181 6.34787L16.9961 6.95286C17.1163 7.05649 17.162 7.23074 17.1099 7.38661C17.0578 7.54247 16.9193 7.64554 16.7653 7.64316H16.7509C16.6713 7.63818 16.5953 7.60551 16.5345 7.55009L15.8131 6.9451C15.6748 6.79167 15.6748 6.54784 15.8131 6.39441C15.8736 6.31499 15.9613 6.26524 16.0565 6.25647C16.1516 6.24771 16.2459 6.28067 16.3181 6.34787ZM18.726 12.9189C18.8493 12.9544 18.9455 13.0579 18.9785 13.1903C19.0115 13.3228 18.9763 13.4642 18.8861 13.5612L18.4749 14.0033C18.4098 14.0786 18.3181 14.1209 18.2225 14.1196C18.1268 14.1209 18.0351 14.0786 17.97 14.0033C17.9002 13.9329 17.8607 13.8346 17.8607 13.7318C17.8607 13.629 17.9002 13.5307 17.97 13.4603L18.3811 13.0182C18.4713 12.9212 18.6028 12.8834 18.726 12.9189ZM17.6309 14.3678C17.7724 14.5199 17.7724 14.7664 17.6309 14.9185L17.2198 15.3606C17.151 15.4349 17.0576 15.4767 16.9601 15.477C16.8648 15.4764 16.7737 15.4344 16.7076 15.3606C16.6393 15.2878 16.6009 15.1887 16.6009 15.0853C16.6009 14.9819 16.6393 14.8827 16.7076 14.8099L17.1188 14.3678C17.2602 14.2157 17.4895 14.2157 17.6309 14.3678ZM18.4821 14.3678L18.8933 14.8099C18.9616 14.8827 19 14.9819 19 15.0853C19 15.1887 18.9616 15.2878 18.8933 15.3606C18.8265 15.438 18.7318 15.4804 18.6336 15.477C18.538 15.4782 18.4463 15.436 18.3811 15.3606L17.9772 14.9185C17.9089 14.8457 17.8705 14.7466 17.8705 14.6432C17.8705 14.5398 17.9089 14.4406 17.9772 14.3678C18.1174 14.22 18.3419 14.22 18.4821 14.3678ZM16.9637 12.9345C17.0599 12.9345 17.152 12.9758 17.2198 13.0493L17.6309 13.4914C17.7684 13.6422 17.7684 13.8835 17.6309 14.0343C17.5577 14.0973 17.4648 14.1278 17.3713 14.1196C17.2759 14.119 17.1849 14.0771 17.1188 14.0033L16.7076 13.5922C16.6379 13.5218 16.5983 13.4236 16.5983 13.3207C16.5983 13.2179 16.6379 13.1196 16.7076 13.0493C16.7753 12.9758 16.8675 12.9345 16.9637 12.9345Z"/>
</svg>
