<svg viewBox="0 0 24 24" xmlns="http://www.w3.org/2000/svg" data-title="TargetFill" fill="currentColor" stroke="none">
  <path fill-rule="evenodd" d="m21,11h-1.84c-.22-1.56-.94-3-2.05-4.11-1.11-1.11-2.55-1.83-4.11-2.05v-1.84c0-.27-.11-.52-.29-.71-.19-.19-.44-.29-.71-.29s-.52.11-.71.29c-.19.19-.29.44-.29.71v1.84c-1.56.22-3,.94-4.11,2.05s-1.83,2.55-2.05,4.11h-1.83c-.27,0-.52.11-.71.29-.19.19-.29.44-.29.71s.11.52.29.71c.19.19.44.29.71.29h1.83c.22,1.56.94,3,2.05,4.11s2.56,1.83,4.11,2.05v1.83c0,.27.11.52.29.71.19.19.44.29.71.29s.52-.11.71-.29c.19-.19.29-.44.29-.71v-1.83c1.56-.22,3-.94,4.11-2.05,1.11-1.11,1.83-2.56,2.05-4.11h1.84c.27,0,.52-.11.71-.29s.29-.44.29-.71-.11-.52-.29-.71c-.19-.19-.44-.29-.71-.29Zm-9,3.03c-.4,0-.78-.12-1.11-.34-.33-.22-.59-.53-.74-.9-.15-.37-.19-.77-.11-1.16.08-.39.27-.74.55-1.02.28-.28.64-.47,1.02-.55.39-.08.79-.04,1.16.11.37.15.68.41.9.74.22.33.34.72.34,1.11,0,.26-.05.53-.15.77-.1.25-.25.47-.43.66-.19.19-.41.34-.65.44-.24.1-.51.15-.77.15v-.02Z"/>
</svg>
