<svg viewBox="0 0 24 24" xmlns="http://www.w3.org/2000/svg" data-title="Tattoo" fill="currentColor" stroke="none">
  <path fill-rule="evenodd" clip-rule="evenodd" d="M18.2143 5.19995C19.2005 5.19995 20 5.99944 20 6.98567V18.4142C20 19.4005 19.2005 20.2 18.2143 20.2H6.78571C5.79949 20.2 5 19.4005 5 18.4142V6.98567C5 5.99944 5.79949 5.19995 6.78571 5.19995H18.2143ZM18.1842 5.94995H6.81579C6.22717 5.94995 5.75 6.42712 5.75 7.01574V18.3842C5.75 18.9728 6.22717 19.45 6.81579 19.45H18.1842C18.7728 19.45 19.25 18.9728 19.25 18.3842V7.01574C19.25 6.42712 18.7728 5.94995 18.1842 5.94995ZM15.875 6.69995C16.0591 6.69995 16.2122 6.83261 16.244 7.00754L16.25 7.07495V7.44995H17.3462C17.5469 7.44995 17.7134 7.59641 17.7447 7.78829L17.75 7.8538V8.94995H18.125C18.3321 8.94995 18.5 9.11784 18.5 9.32495C18.5 9.50905 18.3673 9.66216 18.1924 9.69391L18.125 9.69995H17.75V11.2H18.125C18.3321 11.2 18.5 11.3678 18.5 11.575C18.5 11.759 18.3673 11.9122 18.1924 11.9439L18.125 11.95H17.75V13.45H18.125C18.3321 13.45 18.5 13.6178 18.5 13.825C18.5 14.009 18.3673 14.1622 18.1924 14.1939L18.125 14.2H17.75V15.7H18.125C18.3321 15.7 18.5 15.8678 18.5 16.075C18.5 16.259 18.3673 16.4122 18.1924 16.4439L18.125 16.45H17.75V17.5461C17.75 17.7468 17.6035 17.9134 17.4117 17.9447L17.3462 17.95H16.25V18.325C16.25 18.5321 16.0821 18.7 15.875 18.7C15.6909 18.7 15.5378 18.5673 15.506 18.3924L15.5 18.325V17.95H14V18.325C14 18.5321 13.8321 18.7 13.625 18.7C13.4409 18.7 13.2878 18.5673 13.256 18.3924L13.25 18.325V17.95H11.75V18.325C11.75 18.5321 11.5821 18.7 11.375 18.7C11.1909 18.7 11.0378 18.5673 11.006 18.3924L11 18.325V17.95H9.5V18.325C9.5 18.5321 9.33211 18.7 9.125 18.7C8.94091 18.7 8.78779 18.5673 8.75604 18.3924L8.75 18.325V17.95H7.65385C7.45311 17.95 7.28658 17.8035 7.25529 17.6116L7.25 17.5461V16.45H6.875C6.66789 16.45 6.5 16.2821 6.5 16.075C6.5 15.8909 6.63266 15.7377 6.80759 15.706L6.875 15.7H7.25V14.2H6.875C6.66789 14.2 6.5 14.0321 6.5 13.825C6.5 13.6409 6.63266 13.4877 6.80759 13.456L6.875 13.45H7.25V11.95H6.875C6.66789 11.95 6.5 11.7821 6.5 11.575C6.5 11.3909 6.63266 11.2377 6.80759 11.206L6.875 11.2H7.25V9.69995H6.875C6.66789 9.69995 6.5 9.53206 6.5 9.32495C6.5 9.14086 6.63266 8.98774 6.80759 8.95599L6.875 8.94995H7.25V7.8538C7.25 7.65306 7.39645 7.48654 7.58834 7.45524L7.65385 7.44995H8.75V7.07495C8.75 6.86784 8.91789 6.69995 9.125 6.69995C9.30909 6.69995 9.46221 6.83261 9.49396 7.00754L9.5 7.07495V7.44995H11V7.07495C11 6.86784 11.1679 6.69995 11.375 6.69995C11.5591 6.69995 11.7122 6.83261 11.744 7.00754L11.75 7.07495V7.44995H13.25V7.07495C13.25 6.86784 13.4179 6.69995 13.625 6.69995C13.8091 6.69995 13.9622 6.83261 13.994 7.00754L14 7.07495V7.44995H15.5V7.07495C15.5 6.86784 15.6679 6.69995 15.875 6.69995ZM9.1175 8.1992L8 8.19995L7.99992 9.3173C7.99997 9.31984 8 9.32239 8 9.32495L7.99925 9.33245L7.99992 11.5673C7.99997 11.5698 8 11.5724 8 11.575L7.99925 11.5825L7.99992 13.8173C7.99997 13.8198 8 13.8224 8 13.825L7.99925 13.8325L7.99992 16.0673C7.99997 16.0698 8 16.0724 8 16.075L7.99925 16.0825L8 17.2H17V8.19995L15.8827 8.19987C15.8802 8.19993 15.8776 8.19995 15.875 8.19995L15.8675 8.1992L13.6327 8.19987C13.6302 8.19993 13.6276 8.19995 13.625 8.19995L13.6175 8.1992L11.3827 8.19987C11.3802 8.19993 11.3776 8.19995 11.375 8.19995L11.3675 8.1992L9.13274 8.19987C9.13017 8.19993 9.12759 8.19995 9.125 8.19995L9.1175 8.1992Z"/>
</svg>
