<svg viewBox="0 0 24 24" xmlns="http://www.w3.org/2000/svg" data-title="Tattoo" fill="currentColor" stroke="none">
  <path fill-rule="evenodd" d="m17.71,4.5c.99,0,1.79.8,1.79,1.79v11.43c0,.99-.8,1.79-1.79,1.79H6.29c-.99,0-1.79-.8-1.79-1.79V6.29c0-.99.8-1.79,1.79-1.79h11.43Zm-.03.75H6.32c-.59,0-1.07.48-1.07,1.07v11.37c0,.59.48,1.07,1.07,1.07h11.37c.59,0,1.07-.48,1.07-1.07V6.32c0-.59-.48-1.07-1.07-1.07Zm-2.31.75c.18,0,.34.13.37.31v.07s0,.38,0,.38h1.1c.2,0,.37.15.4.34v.07s0,1.1,0,1.1h.38c.21,0,.38.17.38.38,0,.18-.13.34-.31.37h-.07s-.38,0-.38,0v1.5h.38c.21,0,.38.17.38.38,0,.18-.13.34-.31.37h-.07s-.38,0-.38,0v1.5h.38c.21,0,.38.17.38.38,0,.18-.13.34-.31.37h-.07s-.38,0-.38,0v1.5h.38c.21,0,.38.17.38.38,0,.18-.13.34-.31.37h-.07s-.38,0-.38,0v1.1c0,.2-.15.37-.34.4h-.07s-1.1,0-1.1,0v.38c0,.21-.17.38-.38.38-.18,0-.34-.13-.37-.31v-.07s0-.38,0-.38h-1.5v.38c0,.21-.17.38-.38.38-.18,0-.34-.13-.37-.31v-.07s0-.38,0-.38h-1.5v.38c0,.21-.17.38-.38.38-.18,0-.34-.13-.37-.31v-.07s0-.38,0-.38h-1.5v.38c0,.21-.17.38-.38.38-.18,0-.34-.13-.37-.31v-.07s0-.38,0-.38h-1.1c-.2,0-.37-.15-.4-.34v-.07s0-1.1,0-1.1h-.38c-.21,0-.38-.17-.38-.38,0-.18.13-.34.31-.37h.07s.38,0,.38,0v-1.5h-.38c-.21,0-.38-.17-.38-.38,0-.18.13-.34.31-.37h.07s.38,0,.38,0v-1.5h-.38c-.21,0-.38-.17-.38-.38,0-.18.13-.34.31-.37h.07s.38,0,.38,0v-1.5h-.38c-.21,0-.38-.17-.38-.38,0-.18.13-.34.31-.37h.07s.38,0,.38,0v-1.1c0-.2.15-.37.34-.4h.07s1.1,0,1.1,0v-.38c0-.21.17-.38.38-.38.18,0,.34.13.37.31v.07s0,.38,0,.38h1.5v-.38c0-.21.17-.38.38-.38.18,0,.34.13.37.31v.07s0,.38,0,.38h1.5v-.38c0-.21.17-.38.38-.38.18,0,.34.13.37.31v.07s0,.38,0,.38h1.5v-.38c0-.21.17-.38.38-.38Zm-6.76,1.5h-1.12s0,1.12,0,1.12c0,0,0,0,0,0h0s0,2.24,0,2.24c0,0,0,0,0,0h0s0,2.24,0,2.24c0,0,0,0,0,0h0s0,2.24,0,2.24c0,0,0,0,0,0h0s0,1.12,0,1.12h9V7.5h-1.12s0,0,0,0h0s-2.23,0-2.23,0c0,0,0,0,0,0h0s-2.23,0-2.23,0c0,0,0,0,0,0h0s-2.23,0-2.23,0c0,0,0,0,0,0h0Z"/>
</svg>
