<svg viewBox="0 0 24 24" xmlns="http://www.w3.org/2000/svg" data-title="Terrace" fill="currentColor" stroke="none">
  <path fill-rule="evenodd" d="m12.39,8.57v5.33h3.48c.21,0,.39.17.39.38,0,.19-.14.34-.32.37h-.07s-.77,0-.77,0v4.95c0,.21-.17.38-.39.38-.19,0-.35-.13-.38-.31v-.07s0-4.95,0-4.95h-1.93v4.57h.77c.21,0,.39.17.39.38,0,.19-.14.34-.32.37h-.07s-2.32,0-2.32,0c-.21,0-.39-.17-.39-.38,0-.19.14-.34.32-.37h.07s.77,0,.77,0v-4.57h-1.93v4.95c0,.21-.17.38-.39.38-.19,0-.35-.13-.38-.31v-.07s0-4.95,0-4.95h-.77c-.21,0-.39-.17-.39-.38,0-.19.14-.34.32-.37h.07s3.48,0,3.48,0v-5.33h-5.38c-.38,0-.55-.41-.3-.64l.06-.04,5.77-3.81c.14-.1.34-.1.48,0l5.77,3.81c.33.22.16.69-.24.69h-5.38ZM3.89,13.9c.19,0,.35.13.38.31v.07s0,1.9,0,1.9h2.7c.2,0,.36.15.38.33v.05s.76,2.96.76,2.96c.05.2-.07.41-.28.46-.18.05-.37-.05-.45-.21l-.02-.06-.7-2.76h-2.4v2.67c0,.21-.17.38-.39.38-.19,0-.35-.13-.38-.31v-.07s0-5.33,0-5.33c0-.21.17-.38.39-.38Zm16.23,0c.21,0,.39.17.39.38v5.4c-.04.18-.2.31-.39.31-.21,0-.39-.17-.39-.38v-2.67h-2.4l-.7,2.76-.02.06c-.08.16-.26.26-.45.21-.21-.05-.33-.26-.28-.46l.75-2.96v-.05c.04-.19.2-.33.4-.33h2.7v-1.97c.04-.18.2-.31.39-.31ZM12,4.85l-4.48,2.96h8.97l-4.48-2.96Z"/>
</svg>
