<svg viewBox="0 0 24 24" xmlns="http://www.w3.org/2000/svg" data-title="Terrace" fill="currentColor" stroke="none">
  <path fill-rule="evenodd" clip-rule="evenodd" d="M12.8863 7.77135V13.1047H16.3636C16.577 13.1047 16.7499 13.2752 16.7499 13.4856C16.7499 13.6726 16.6133 13.8282 16.433 13.8604L16.3636 13.8666H15.5908V18.8189C15.5908 19.0293 15.4179 19.1999 15.2045 19.1999C15.0148 19.1999 14.8571 19.0651 14.8243 18.8874L14.8181 18.8189V13.8666H12.8863V18.438H13.659C13.8724 18.438 14.0454 18.6085 14.0454 18.8189C14.0454 19.0059 13.9087 19.1615 13.7285 19.1937L13.659 19.1999H11.3409C11.1275 19.1999 10.9545 19.0293 10.9545 18.8189C10.9545 18.6319 11.0912 18.4764 11.2714 18.4441L11.3409 18.438H12.1136V13.8666H10.1818V18.8189C10.1818 19.0293 10.0088 19.1999 9.79542 19.1999C9.60575 19.1999 9.448 19.0651 9.41529 18.8874L9.40906 18.8189V13.8666H8.63634C8.42296 13.8666 8.24998 13.696 8.24998 13.4856C8.24998 13.2986 8.38665 13.1431 8.56689 13.1108L8.63634 13.1047H12.1136V7.77135H6.73266C6.35637 7.77135 6.18676 7.35752 6.43516 7.12849L6.49048 7.08532L12.2578 3.27165C12.4024 3.17605 12.5976 3.17605 12.7421 3.27165L18.5094 7.08532C18.8348 7.30051 18.6686 7.77135 18.2672 7.77135H12.8863ZM4.38636 13.1047C4.57603 13.1047 4.73378 13.2394 4.7665 13.4171L4.77272 13.4856V15.3904H7.47725C7.6743 15.3904 7.8369 15.5358 7.86063 15.7238L7.87515 15.7699L8.6248 18.7265C8.67656 18.9306 8.55069 19.1375 8.34368 19.1885C8.15967 19.2338 7.97349 19.1408 7.89803 18.9762L7.87515 18.9113L7.17512 16.1523H4.77272V18.8189C4.77272 19.0293 4.59974 19.1999 4.38636 19.1999C4.19669 19.1999 4.03894 19.0651 4.00622 18.8874L4 18.8189V13.4856C4 13.2752 4.17298 13.1047 4.38636 13.1047ZM20.6136 13.1047C20.827 13.1047 21 13.2752 21 13.4856V18.8189L20.9938 18.8874C20.9611 19.0651 20.8033 19.1999 20.6136 19.1999C20.4003 19.1999 20.2273 19.0293 20.2273 18.8189V16.1523H17.8249L17.1248 18.9113L17.102 18.9762C17.0265 19.1408 16.8403 19.2338 16.6563 19.1885C16.4493 19.1375 16.3234 18.9306 16.3752 18.7265L17.1248 15.7699L17.1394 15.7238C17.1631 15.5358 17.3257 15.3904 17.5227 15.3904H20.2273V13.4856L20.2335 13.4171C20.2662 13.2394 20.424 13.1047 20.6136 13.1047ZM12.4999 4.04556L8.01661 7.00945H16.9817L12.4999 4.04556Z"/>
</svg>
