<svg viewBox="0 0 24 24" xmlns="http://www.w3.org/2000/svg" data-title="ThreeSixty" fill="currentColor" stroke="none">
  <path d="m19.76 12.4-1.68 1.41c.7.29 1.21.61 1.54.92.33.32.4.55.4.69s-.07.37-.4.69c-.33.32-.87.65-1.61.95-1.48.6-3.6.99-5.99.99-.55 0-1 .45-1 1s.45 1 1 1c2.58 0 4.97-.42 6.74-1.14.89-.36 1.67-.81 2.25-1.36.58-.55 1.02-1.28 1.02-2.14s-.44-1.58-1.02-2.14c-.34-.33-.76-.62-1.23-.88ZM3.01 13.28c.34-.33.76-.62 1.23-.88l1.69 1.41c-.71.29-1.22.61-1.54.92-.33.32-.4.55-.4.69s.07.39.44.73c.33.3.83.6 1.5.88l.27-1.11c.03-.14.22-.18.31-.07l2.39 2.92c.08.09.04.23-.07.28l-3.48 1.48c-.13.06-.28-.06-.24-.21l.33-1.34c-.93-.35-1.75-.81-2.36-1.36-.62-.56-1.1-1.31-1.1-2.21s.44-1.58 1.02-2.14ZM7.95 13.14c-.78 0-1.42-.11-1.91-.34-.49-.24-.85-.56-1.07-.97-.21-.42-.3-.89-.27-1.43 0-.11.07-.17.19-.17h1.53c.12 0 .19.05.19.16 0 .39.12.67.36.83.24.15.59.23 1.07.23s.82-.1 1.07-.29c.26-.19.39-.47.39-.83v-.26c0-.35-.12-.61-.36-.78-.24-.18-.59-.27-1.06-.27h-1.11c-.12 0-.19-.06-.19-.19v-1.23c0-.12.06-.19.19-.19h.93c.48 0 .84-.09 1.06-.26.22-.18.33-.45.33-.81v-.27c0-.32-.11-.56-.33-.71-.21-.16-.54-.24-.98-.24s-.81.09-1.03.26c-.21.16-.31.41-.31.74 0 .12-.06.19-.19.19h-1.53s-.09-.01-.13-.04c-.03-.04-.04-.09-.04-.14 0-.87.28-1.53.84-1.98s1.4-.68 2.51-.68 1.91.21 2.41.63c.51.41.77 1.01.77 1.81 0 .57-.12 1.04-.36 1.41-.23.37-.56.64-1 .8v.03c.51.14.9.4 1.17.78.27.37.4.84.4 1.41 0 .91-.3 1.61-.91 2.1-.6.48-1.47.71-2.61.71ZM12.45 12.97c-.12 0-.19-.06-.19-.19V3.81c0-.12.06-.19.19-.19h3.11c1.49 0 2.6.35 3.32 1.04.72.68 1.08 1.7 1.08 3.05v.96c0 1.43-.36 2.5-1.08 3.22s-1.82 1.07-3.32 1.07h-3.11Zm1.85-1.74h1.13c.87 0 1.5-.22 1.9-.66.41-.44.61-1.08.61-1.94v-.87c0-.79-.2-1.38-.61-1.78-.4-.41-1.03-.61-1.9-.61h-1.13v5.86Z"/>
</svg>
