<svg viewBox="0 0 24 24" xmlns="http://www.w3.org/2000/svg" data-title="ThreeSixty" fill="currentColor" stroke="none">
  <path fill-rule="evenodd" clip-rule="evenodd" d="M3.77,10.68l0.56,0.97c-0.76,0.39-1.21,0.83-1.21,1.2c0,0.41,0.53,0.89,1.41,1.31
	l0.17,0.04l0.02-0.07l0.22-0.84c0.07-0.25,0.44-0.28,0.59-0.05l1.37,2.01c0.1,0.14,0.05,0.31-0.1,0.39L4.62,16.7
	c-0.24,0.12-0.56-0.09-0.49-0.34l0.28-1.06c-0.11-0.03-0.23-0.07-0.35-0.11C2.37,14.39,2,13.48,2,12.85
	C2,11.98,2.68,11.25,3.77,10.68z M20.08,10.6c1.18,0.58,1.92,1.34,1.92,2.25c0,2.41-5.15,3.71-10,3.71c-0.58,0-1.17-0.02-1.74-0.05
	l-0.01,0l-0.07-0.01C10,16.48,9.59,16.36,9.63,15.9c0.05-0.58,0.65-0.52,0.7-0.51c0.55,0.03,1.11,0.05,1.67,0.05
	c2.46,0,4.77-0.32,6.5-0.89c1.44-0.48,2.38-1.14,2.38-1.69c0-0.4-0.5-0.86-1.35-1.27L20.08,10.6z M6.97,7.27
	c0.54,0,0.96,0.11,1.27,0.32C8.55,7.8,8.71,8.1,8.71,8.47c0,0.32-0.1,0.6-0.3,0.83c-0.17,0.2-0.4,0.35-0.7,0.46L7.55,9.81v0.02
	c0.87,0.11,1.31,0.52,1.31,1.24c0,0.49-0.19,0.87-0.58,1.15c-0.38,0.28-0.92,0.42-1.6,0.42c-0.28,0-0.54-0.02-0.78-0.06
	c-0.18-0.03-0.37-0.08-0.57-0.15l-0.21-0.07v-1.17c0.23,0.12,0.46,0.2,0.7,0.26c0.24,0.06,0.46,0.08,0.66,0.08
	c0.31,0,0.54-0.04,0.68-0.13c0.14-0.09,0.21-0.22,0.21-0.41c0-0.14-0.04-0.25-0.11-0.33c-0.07-0.08-0.19-0.14-0.36-0.17
	c-0.13-0.03-0.29-0.05-0.49-0.06l-0.15,0H5.94V9.36h0.33c0.72,0,1.07-0.18,1.07-0.55c0-0.14-0.05-0.24-0.16-0.31
	C7.07,8.43,6.93,8.4,6.75,8.4c-0.29,0-0.58,0.08-0.88,0.25L5.72,8.74L5.13,7.79C5.41,7.6,5.69,7.47,5.98,7.39
	C6.27,7.31,6.6,7.27,6.97,7.27z M12.15,7.27c0.16,0,0.34,0.01,0.54,0.03l0.21,0.03v1.1c-0.24-0.05-0.5-0.07-0.77-0.07
	c-0.47,0-0.82,0.1-1.05,0.31c-0.21,0.18-0.33,0.47-0.37,0.86l-0.01,0.15h0.04c0.21-0.4,0.56-0.61,1.03-0.61
	c0.46,0,0.82,0.15,1.08,0.45c0.26,0.3,0.38,0.71,0.38,1.25c0,0.57-0.16,1.03-0.49,1.36s-0.78,0.5-1.36,0.5c-0.62,0-1.1-0.2-1.45-0.6
	s-0.52-0.96-0.52-1.68c0-0.73,0.1-1.32,0.31-1.77c0.21-0.45,0.52-0.78,0.92-1C11.05,7.37,11.55,7.27,12.15,7.27z M15.59,7.27
	c0.62,0,1.09,0.23,1.41,0.68c0.32,0.45,0.48,1.12,0.48,2.02c0,0.92-0.15,1.6-0.46,2.03c-0.31,0.43-0.78,0.64-1.42,0.64
	c-0.62,0-1.09-0.22-1.41-0.67c-0.32-0.45-0.47-1.12-0.47-2c0-0.93,0.15-1.61,0.46-2.04C14.48,7.48,14.95,7.27,15.59,7.27z
	 M11.36,10.17c-0.16,0-0.29,0.05-0.39,0.16c-0.1,0.11-0.15,0.24-0.15,0.4c0,0.23,0.05,0.42,0.15,0.56c0.1,0.15,0.23,0.22,0.39,0.22
	c0.15,0,0.27-0.06,0.37-0.17c0.09-0.11,0.14-0.29,0.14-0.54C11.85,10.38,11.69,10.17,11.36,10.17z M15.59,8.39
	c-0.17,0-0.3,0.11-0.37,0.34c-0.07,0.22-0.11,0.63-0.11,1.23c0,0.59,0.04,1,0.11,1.22c0.07,0.22,0.2,0.33,0.37,0.33
	c0.18,0,0.3-0.11,0.37-0.34c0.07-0.23,0.11-0.63,0.11-1.21c0-0.58-0.04-0.98-0.11-1.22S15.76,8.39,15.59,8.39z M19.27,7.27
	c0.24,0,0.46,0.06,0.66,0.18c0.2,0.12,0.37,0.28,0.48,0.48c0.12,0.2,0.17,0.42,0.17,0.65c0,0.23-0.06,0.45-0.17,0.65
	c-0.12,0.2-0.27,0.36-0.48,0.48c-0.2,0.12-0.43,0.18-0.67,0.18c-0.24,0-0.46-0.06-0.66-0.17c-0.2-0.12-0.37-0.27-0.48-0.47
	c-0.12-0.2-0.18-0.42-0.18-0.65c0-0.23,0.06-0.45,0.18-0.65c0.12-0.2,0.28-0.37,0.48-0.49C18.82,7.33,19.04,7.27,19.27,7.27z
	 M19.27,8.11c-0.13,0-0.24,0.05-0.33,0.14c-0.09,0.1-0.13,0.21-0.13,0.33c0,0.12,0.05,0.22,0.14,0.32c0.09,0.09,0.2,0.14,0.33,0.14
	c0.13,0,0.24-0.05,0.33-0.14c0.09-0.09,0.14-0.2,0.14-0.31c0-0.12-0.04-0.23-0.13-0.33S19.41,8.11,19.27,8.11z"/>
</svg>
