<svg viewBox="0 0 24 24" xmlns="http://www.w3.org/2000/svg" data-title="ThreeSixty" fill="currentColor" stroke="none">
  <path fill-rule="evenodd" d="m3.77,10.68l.56.97c-.76.39-1.21.83-1.21,1.2,0,.41.53.89,1.41,1.31l.17.04.02-.07.22-.84c.07-.25.44-.28.59-.05l1.37,2.01c.1.14.05.31-.1.39l-2.18,1.06c-.24.12-.56-.09-.49-.34l.28-1.06c-.11-.03-.23-.07-.35-.11-1.69-.8-2.06-1.71-2.06-2.34,0-.87.68-1.6,1.77-2.17Zm16.31-.08c1.18.58,1.92,1.34,1.92,2.25,0,2.41-5.15,3.71-10,3.71-.58,0-1.17-.02-1.74-.05h-.08c-.18-.03-.59-.15-.55-.61.05-.58.65-.52.7-.51.55.03,1.11.05,1.67.05,2.46,0,4.77-.32,6.5-.89,1.44-.48,2.38-1.14,2.38-1.69,0-.4-.5-.86-1.35-1.27l.55-.99Zm-13.11-3.33c.54,0,.96.11,1.27.32.31.21.47.51.47.88,0,.32-.1.6-.3.83-.17.2-.4.35-.7.46l-.16.05v.02c.87.11,1.31.52,1.31,1.24,0,.49-.19.87-.58,1.15-.38.28-.92.42-1.6.42-.28,0-.54-.02-.78-.06-.18-.03-.37-.08-.57-.15l-.21-.07v-1.17c.23.12.46.2.7.26s.46.08.66.08c.31,0,.54-.04.68-.13s.21-.22.21-.41c0-.14-.04-.25-.11-.33s-.19-.14-.36-.17c-.13-.03-.29-.05-.49-.06h-.47v-1.07h.33c.72,0,1.07-.18,1.07-.55,0-.14-.05-.24-.16-.31-.11-.07-.25-.1-.43-.1-.29,0-.58.08-.88.25l-.15.09-.59-.95c.28-.19.56-.32.85-.4s.62-.12.99-.12Zm5.18,0c.16,0,.34.01.54.03l.21.03v1.1c-.24-.05-.5-.07-.77-.07-.47,0-.82.1-1.05.31-.21.18-.33.47-.37.86v.15s.03,0,.03,0c.21-.4.56-.61,1.03-.61s.82.15,1.08.45.38.71.38,1.25c0,.57-.16,1.03-.49,1.36s-.78.5-1.36.5c-.62,0-1.1-.2-1.45-.6s-.52-.96-.52-1.68.1-1.32.31-1.77.52-.78.92-1c.41-.21.91-.31,1.51-.31Zm3.44,0c.62,0,1.09.23,1.41.68s.48,1.12.48,2.02-.15,1.6-.46,2.03c-.31.43-.78.64-1.42.64s-1.09-.22-1.41-.67-.47-1.12-.47-2c0-.93.15-1.61.46-2.04.3-.45.77-.66,1.41-.66Zm-4.23,2.9c-.16,0-.29.05-.39.16s-.15.24-.15.4c0,.23.05.42.15.56.1.15.23.22.39.22.15,0,.27-.06.37-.17.09-.11.14-.29.14-.54-.02-.42-.18-.63-.51-.63Zm4.23-1.78c-.17,0-.3.11-.37.34-.07.22-.11.63-.11,1.23s.04,1,.11,1.22.2.33.37.33c.18,0,.3-.11.37-.34.07-.23.11-.63.11-1.21s-.04-.98-.11-1.22-.2-.35-.37-.35Zm3.68-1.12c.24,0,.46.06.66.18s.37.28.48.48c.12.2.17.42.17.65s-.06.45-.17.65c-.12.2-.27.36-.48.48-.2.12-.43.18-.67.18s-.46-.06-.66-.17c-.2-.12-.37-.27-.48-.47-.12-.2-.18-.42-.18-.65s.06-.45.18-.65c.12-.2.28-.37.48-.49.22-.13.44-.19.67-.19Zm0,.84c-.13,0-.24.05-.33.14-.09.1-.13.21-.13.33s.05.22.14.32c.09.09.2.14.33.14s.24-.05.33-.14.14-.2.14-.31c0-.12-.04-.23-.13-.33s-.21-.15-.35-.15Z"/>
</svg>
