<svg viewBox="0 0 24 24" xmlns="http://www.w3.org/2000/svg" data-title="ThreeSixty" fill="currentColor" stroke="none">
  <path d="M19 7.34186C17.0833 6.47344 14.75 5.99976 12 5.99976C9.25 5.99976 6.83333 6.47344 5 7.34186C3 8.28923 2 9.39449 2 10.7366C2 11.8419 2.75 12.8682 4.25 13.6577C5.58333 14.3682 7.25 14.9208 9.16667 15.2366L8 16.3419C7.83333 16.4998 7.66667 16.7366 7.66667 17.0524C7.66667 17.2892 7.75 17.5261 8 17.7629C8.16667 17.9208 8.41667 17.9998 8.75 17.9998C9.08333 17.9998 9.25 17.9208 9.5 17.7629L12.0833 15.2366C12.1667 15.1577 12.25 14.9998 12.3333 14.8419C12.4167 14.684 12.4167 14.605 12.4167 14.3682C12.4167 14.2103 12.4167 14.0524 12.3333 13.9734C12.25 13.8155 12.1667 13.7366 12.0833 13.5787L9.5 11.0524C9.08333 10.7366 8.41667 10.7366 8.08333 11.0524C7.91667 11.2103 7.75 11.4471 7.75 11.7629C7.75 11.9998 7.83333 12.2366 8.08333 12.4734L8.66667 13.0261C7.41667 12.7892 6.33333 12.3945 5.5 11.9208C4.33333 11.2103 4.08333 10.8155 4.08333 10.5787C4.08333 10.3419 4.33333 9.78923 6.16667 8.84186C7.5 8.36818 9.5 7.97344 12 7.97344C14.5 7.97344 16.5 8.36818 17.9167 8.99976C19.6667 9.86818 20 10.4208 20 10.7366C20 10.8945 19.8333 11.2892 19.1667 11.7629C18.5833 12.2366 17.75 12.5524 16.5833 12.9471C16.4167 13.0261 16.1667 13.105 16.0833 13.3419C15.9167 13.4998 15.8333 13.7366 15.8333 13.8945C15.8333 14.2892 16 14.5261 16.25 14.684C16.5 14.8419 16.8333 14.9208 17.1667 14.8419C18.5833 14.4471 19.75 13.8155 20.6667 13.184C21.5833 12.4734 22 11.684 22 10.8155C22 9.39449 21 8.28923 19 7.34186Z"/>
</svg>
