<svg viewBox="0 0 24 24" xmlns="http://www.w3.org/2000/svg" data-title="ThreeSixty" fill="currentColor" stroke="none">
  <path fill-rule="evenodd" clip-rule="evenodd" d="M3.7724 10.412L4.337 11.3852C3.57776 11.777 3.12735 12.2119 3.12735 12.5894C3.12735 12.9958 3.65253 13.4785 4.54089 13.8961L4.71 13.9333L4.72952 13.8635L4.95352 13.0275C5.01983 12.78 5.39631 12.7512 5.54815 12.9747L6.91466 14.9854C7.01262 15.1295 6.96693 15.3 6.81003 15.3759L4.62122 16.434C4.37654 16.5571 4.0649 16.3439 4.13122 16.0964L4.41608 15.0354C4.30597 15.0023 4.19071 14.9654 4.0703 14.9246C2.36832 14.1261 2 13.2192 2 12.5894C2 11.7145 2.67754 10.9856 3.7724 10.412ZM20.082 10.3379C21.2621 10.9224 22 11.6763 22 12.5894C22 15.0018 16.8477 16.3036 11.9999 16.3036C11.416 16.3036 10.8304 16.2859 10.2596 16.2513L10.2472 16.2503L10.1808 16.2418C10.0021 16.2123 9.58669 16.0942 9.62873 15.6339C9.68128 15.0585 10.2796 15.1175 10.3279 15.1193C10.8764 15.1527 11.439 15.1697 11.9999 15.1697C14.4617 15.1697 16.7683 14.8525 18.4951 14.2766C19.9394 13.7949 20.8726 13.1327 20.8726 12.5894C20.8726 12.1875 20.3727 11.7289 19.5186 11.3176L20.082 10.3379ZM6.97491 7C7.51535 7 7.93914 7.10714 8.24627 7.32141C8.5534 7.53569 8.70696 7.83091 8.70696 8.20708C8.70696 8.53087 8.60816 8.80884 8.41055 9.04097C8.24117 9.23994 8.00707 9.39212 7.70825 9.4975L7.55345 9.5463V9.56773C8.42483 9.67724 8.86052 10.0891 8.86052 10.8034C8.86052 11.2891 8.66827 11.6712 8.28377 11.9497C7.89926 12.2283 7.36536 12.3676 6.68206 12.3676C6.40112 12.3676 6.14102 12.3473 5.90175 12.3069C5.72229 12.2765 5.53179 12.2274 5.33024 12.1596L5.125 12.0855V10.9141C5.35356 11.0307 5.58629 11.1171 5.82318 11.173C6.06007 11.229 6.27851 11.2569 6.4785 11.2569C6.78801 11.2569 7.01359 11.2135 7.15525 11.1266C7.29691 11.0397 7.36774 10.9034 7.36774 10.7177C7.36774 10.5748 7.33084 10.4647 7.25703 10.3873C7.18323 10.3099 7.06419 10.2516 6.89991 10.2123C6.76849 10.1809 6.60507 10.1621 6.40965 10.1558L6.25708 10.1534H5.93567V9.09275H6.26423C6.98086 9.09275 7.33917 8.90943 7.33917 8.54278C7.33917 8.40469 7.2862 8.30231 7.18025 8.23565C7.07431 8.16899 6.93205 8.13566 6.75349 8.13566C6.46779 8.13566 6.17334 8.21787 5.87015 8.38229L5.71783 8.47135L5.13214 7.52854C5.40832 7.33808 5.69104 7.20237 5.98031 7.12142C6.26958 7.04047 6.60111 7 6.97491 7ZM12.1461 7C12.305 7 12.484 7.01138 12.6831 7.03415L12.8889 7.06071V8.16423C12.6508 8.11899 12.3925 8.09637 12.1139 8.09637C11.6425 8.09637 11.2914 8.19994 11.0604 8.40707C10.8551 8.59119 10.7326 8.87877 10.6929 9.26981L10.6819 9.4213H10.7247C10.939 9.01656 11.283 8.81419 11.7568 8.81419C12.2211 8.81419 12.5812 8.96359 12.8371 9.26238C13.093 9.56118 13.221 9.97723 13.221 10.5105C13.221 11.0843 13.0591 11.5373 12.7353 11.8694C12.4115 12.2015 11.9592 12.3676 11.3783 12.3676C10.7616 12.3676 10.2795 12.1676 9.9319 11.7676C9.5843 11.3676 9.4105 10.8081 9.4105 10.0891C9.4105 9.36059 9.51466 8.77074 9.72298 8.31958C9.9313 7.86841 10.2384 7.53569 10.6444 7.32141C11.0503 7.10714 11.5509 7 12.1461 7ZM15.5888 7C16.2101 7 16.6798 7.22558 16.9976 7.67675C17.3154 8.12792 17.4744 8.79991 17.4744 9.69272C17.4744 10.6165 17.3196 11.2932 17.0101 11.723C16.7006 12.1527 16.2268 12.3676 15.5888 12.3676C14.965 12.3676 14.4948 12.1432 14.1781 11.6944C13.8615 11.2456 13.7031 10.5784 13.7031 9.69272C13.7031 8.7642 13.8579 8.08328 14.1674 7.64997C14.4769 7.21666 14.9507 7 15.5888 7ZM11.3604 9.90342C11.1985 9.90342 11.067 9.95818 10.9658 10.0677C10.8646 10.1772 10.814 10.3105 10.814 10.4677C10.814 10.6962 10.8628 10.8837 10.9604 11.0302C11.058 11.1766 11.1866 11.2498 11.3461 11.2498C11.4961 11.2498 11.6181 11.1932 11.7122 11.0801C11.8062 10.9671 11.8532 10.7867 11.8532 10.5391C11.8532 10.1153 11.689 9.90342 11.3604 9.90342ZM15.5888 8.12851C15.415 8.12851 15.2911 8.24041 15.2173 8.46421C15.1435 8.68801 15.1066 9.09751 15.1066 9.69272C15.1066 10.2832 15.1435 10.6891 15.2173 10.9105C15.2911 11.1319 15.415 11.2426 15.5888 11.2426C15.7649 11.2426 15.8893 11.1284 15.9619 10.8998C16.0346 10.6712 16.0709 10.2689 16.0709 9.69272C16.0709 9.11418 16.034 8.70884 15.9602 8.47671C15.8864 8.24458 15.7626 8.12851 15.5888 8.12851ZM19.2743 7C19.51 7 19.7302 7.06012 19.935 7.18035C20.1397 7.30058 20.3004 7.46188 20.4171 7.66425C20.5337 7.86662 20.5921 8.08447 20.5921 8.31779C20.5921 8.54873 20.5343 8.7642 20.4189 8.96419C20.3034 9.16418 20.1439 9.3231 19.9403 9.44095C19.7368 9.5588 19.5147 9.61772 19.2743 9.61772C19.0386 9.61772 18.8183 9.55939 18.6136 9.44273C18.4088 9.32607 18.2481 9.16775 18.1315 8.96776C18.0148 8.76777 17.9565 8.55111 17.9565 8.31779C17.9565 8.08685 18.0148 7.8696 18.1315 7.66604C18.2481 7.46248 18.4088 7.30058 18.6136 7.18035C18.8183 7.06012 19.0386 7 19.2743 7ZM19.2743 7.84281C19.141 7.84281 19.0296 7.89103 18.9404 7.98745C18.8511 8.08387 18.8064 8.19399 18.8064 8.31779C18.8064 8.43683 18.8523 8.54218 18.9439 8.63385C19.0356 8.72551 19.1457 8.77134 19.2743 8.77134C19.4028 8.77134 19.513 8.72491 19.6046 8.63206C19.6963 8.53921 19.7421 8.43445 19.7421 8.31779C19.7421 8.19399 19.6975 8.08387 19.6082 7.98745C19.5189 7.89103 19.4076 7.84281 19.2743 7.84281Z"/>
</svg>
