<svg viewBox="0 0 24 24" xmlns="http://www.w3.org/2000/svg" data-title="Time" fill="currentColor" stroke="none">
  <path fill-rule="evenodd" clip-rule="evenodd" d="M18.2143 5.19995C19.2005 5.19995 20 5.99944 20 6.98567V18.4142C20 19.4005 19.2005 20.2 18.2143 20.2H6.78571C5.79949 20.2 5 19.4005 5 18.4142V6.98567C5 5.99944 5.79949 5.19995 6.78571 5.19995H18.2143ZM18.1842 5.94995H6.81579C6.22717 5.94995 5.75 6.42712 5.75 7.01574V18.3842C5.75 18.9728 6.22717 19.45 6.81579 19.45H18.1842C18.7728 19.45 19.25 18.9728 19.25 18.3842V7.01574C19.25 6.42712 18.7728 5.94995 18.1842 5.94995ZM12.5 6.69995C15.8137 6.69995 18.5 9.38624 18.5 12.7C18.5 16.0137 15.8137 18.7 12.5 18.7C9.18629 18.7 6.5 16.0137 6.5 12.7C6.5 9.38624 9.18629 6.69995 12.5 6.69995ZM12.8753 7.46316L12.875 8.57495C12.875 8.78206 12.7071 8.94995 12.5 8.94995C12.3159 8.94995 12.1628 8.81729 12.131 8.64236L12.125 8.57495L12.1255 7.46311C9.52448 7.64644 7.44649 9.72443 7.26315 12.3254L8.375 12.325C8.58211 12.325 8.75 12.4928 8.75 12.7C8.75 12.884 8.61734 13.0372 8.44241 13.0689L8.375 13.075L7.26321 13.0752C7.44689 15.6759 9.52473 17.7535 12.1255 17.9368L12.125 16.825C12.125 16.6178 12.2929 16.45 12.5 16.45C12.6841 16.45 12.8372 16.5826 12.869 16.7575L12.875 16.825L12.8753 17.9367C15.4757 17.7531 17.5531 15.6756 17.7368 13.0752L16.625 13.075C16.4179 13.075 16.25 12.9071 16.25 12.7C16.25 12.5159 16.3827 12.3627 16.5576 12.331L16.625 12.325L17.7368 12.3254C17.5535 9.72468 15.4759 7.64684 12.8753 7.46316ZM12.5 9.69995C12.6841 9.69995 12.8372 9.83261 12.869 10.0075L12.875 10.075V12.1735L15.7265 14.2784C15.8819 14.3931 15.9217 14.622 15.8154 14.7897C15.721 14.9388 15.5428 14.9893 15.3953 14.9181L15.3416 14.8857L12.292 12.6371C12.2091 12.5817 12.1495 12.4942 12.131 12.3924L12.125 12.325V10.075C12.125 9.86784 12.2929 9.69995 12.5 9.69995Z"/>
</svg>
