<svg viewBox="0 0 24 24" xmlns="http://www.w3.org/2000/svg" data-title="Time" fill="currentColor" stroke="none">
  <path fill-rule="evenodd" d="m17.71,4.5c.99,0,1.79.8,1.79,1.79v11.43c0,.99-.8,1.79-1.79,1.79H6.29c-.99,0-1.79-.8-1.79-1.79V6.29c0-.99.8-1.79,1.79-1.79h11.43Zm-.03.75H6.32c-.59,0-1.07.48-1.07,1.07v11.37c0,.59.48,1.07,1.07,1.07h11.37c.59,0,1.07-.48,1.07-1.07V6.32c0-.59-.48-1.07-1.07-1.07Zm-5.68.75c3.31,0,6,2.69,6,6s-2.69,6-6,6-6-2.69-6-6,2.69-6,6-6Zm.38.76v1.11c0,.21-.17.38-.38.38-.18,0-.34-.13-.37-.31v-.07s0-1.11,0-1.11c-2.6.18-4.68,2.26-4.86,4.86h1.11c.21,0,.38.17.38.37,0,.18-.13.34-.31.37h-.07s-1.11,0-1.11,0c.18,2.6,2.26,4.68,4.86,4.86v-1.11c0-.21.17-.38.37-.38.18,0,.34.13.37.31v.07s0,1.11,0,1.11c2.6-.18,4.68-2.26,4.86-4.86h-1.11c-.21,0-.38-.17-.38-.38,0-.18.13-.34.31-.37h.07s1.11,0,1.11,0c-.18-2.6-2.26-4.68-4.86-4.86Zm-.38,2.24c.18,0,.34.13.37.31v.07s0,2.1,0,2.1l2.85,2.1c.16.11.2.34.09.51-.09.15-.27.2-.42.13l-.05-.03-3.05-2.25c-.08-.06-.14-.14-.16-.24v-.07s0-2.25,0-2.25c0-.21.17-.38.38-.38Z"/>
</svg>
