<svg viewBox="0 0 24 24" xmlns="http://www.w3.org/2000/svg" data-title="Tools" fill="currentColor" stroke="none">
  <path d="M9.74328 13.4835H9.02765V5.75965C9.02765 5.53577 8.86251 5.36786 8.64231 5.36786 8.36707 5.36786 8.20193 5.53577 8.20193 5.75965V13.4835H7.43125C6.66058 13.4835 6 14.1552 6 14.9388V19.8082C6 20.032 6.16514 20.2 6.38534 20.2H10.7341C10.9543 20.2 11.1195 20.032 11.1195 19.8082V14.9388C11.1745 14.1552 10.514 13.4835 9.74328 13.4835ZM10.4039 19.3044V19.4164H6.77067V14.9947C6.77067 14.6029 7.04592 14.3231 7.43125 14.3231H8.14688V16.282C8.14688 16.5059 8.31203 16.6738 8.53222 16.6738 8.75241 16.6738 8.91756 16.5059 8.91756 16.282V14.3231H9.63318C10.0185 14.3231 10.2938 14.6029 10.2938 14.9947V19.3044H10.4039ZM18.6611 5.19995C18.4409 5.19995 18.2758 5.36786 18.2758 5.59174V6.26338C18.2758 6.65518 17.9455 6.991 17.5601 6.991H17.3399V5.59174C17.3399 5.36786 17.1748 5.19995 16.9546 5.19995 16.7344 5.19995 16.5693 5.36786 16.5693 5.59174V6.991H15.5233V5.59174C15.5233 5.4798 15.4683 5.36786 15.4132 5.31189 15.3582 5.25592 15.2481 5.19995 15.138 5.19995 14.9178 5.19995 14.7527 5.36786 14.7527 5.59174V6.991H13.8168V5.59174C13.8168 5.36786 13.6517 5.19995 13.4315 5.19995 13.2113 5.19995 13.0462 5.36786 13.0462 5.59174V6.991H12.7709C12.3856 6.991 12.0553 6.65518 12.0553 6.26338V5.59174C12.0553 5.42383 11.8351 5.19995 11.67 5.19995 11.5048 5.19995 11.2846 5.36786 11.2846 5.59174V6.26338C11.2846 7.10294 11.9452 7.77458 12.7709 7.77458H14.7527V19.8082C14.7527 20.032 14.9178 20.2 15.138 20.2 15.3582 20.2 15.5233 20.032 15.5233 19.8082V7.77458H17.5051C18.3308 7.77458 18.9914 7.10294 18.9914 6.26338V5.59174C19.0464 5.42383 18.8262 5.19995 18.6611 5.19995Z"/>
</svg>
