<svg viewBox="0 0 24 24" xmlns="http://www.w3.org/2000/svg" data-title="Toy" fill="currentColor" stroke="none">
  <path fill-rule="evenodd" d="m13.57,8.62c.31,0,.56-.26.56-.58s-.25-.58-.56-.58-.56.26-.56.58.25.58.56.58Zm-3.16,0c.31,0,.56-.26.56-.58s-.25-.58-.56-.58-.56.26-.56.58.25.58.56.58Z"/>
  <path fill-rule="evenodd" d="m18.17,14.75c-.2.52-.74.79-1.24.66-.06-.03-.12-.04-.18-.06l-.44-.18s-.01-.04-.02-.06c-.05-.24-.11-.48-.19-.71,0-.01-.01-.03-.01-.04-.08-.23-.17-.44-.28-.65-.01-.02-.02-.05-.04-.07-.22-.43-.5-.82-.83-1.16-.02-.02-.03-.04-.05-.05.24-.08.5-.07.75.03l1.96.81c.26.11.47.32.58.59.11.27.12.57,0,.9Zm-2.12,4.39c-.41,0-.78-.17-1.06-.45-.04-.04-.08-.09-.11-.13-.03-.04-.06-.07-.08-.11-.02-.04-.04-.08-.06-.12-.03-.05-.06-.1-.08-.16,0-.02-.01-.05-.02-.07-.06-.17-.1-.35-.1-.55,0-.11.01-.21.03-.31.1-.5.42-.91.86-1.12,0,0,.01,0,.02-.01.06-.03.13-.05.2-.07.03,0,.06-.02.09-.03.05-.01.11-.02.17-.02.05,0,.1-.02.15-.02.14,0,.28.03.41.07l.07.03s.09.02.13.04c.54.24.92.8.92,1.45,0,.87-.68,1.58-1.52,1.58Zm-4.05.09c-.88,0-1.61-.12-2.18-.37.07-.11.13-.23.18-.35.02-.04.03-.09.05-.13.03-.09.06-.18.08-.27.01-.04.02-.09.03-.13.02-.14.04-.28.04-.42,0-.15-.02-.3-.04-.44-.01-.06-.03-.12-.05-.18-.02-.08-.04-.16-.07-.23-.03-.07-.06-.14-.09-.2-.03-.06-.05-.11-.09-.16-.04-.07-.09-.14-.13-.2-.03-.04-.06-.08-.1-.13-.05-.06-.11-.13-.17-.18-.04-.04-.08-.07-.12-.1-.06-.05-.13-.1-.2-.15-.05-.03-.1-.06-.15-.09-.07-.04-.13-.08-.2-.1-.12-.05-.24-.09-.36-.12.03-.13.06-.26.09-.38.03-.1.05-.19.08-.29.07-.2.16-.38.25-.57.03-.05.05-.11.08-.16.12-.22.26-.42.42-.61.01-.02.02-.03.04-.05.17-.2.36-.39.56-.55,0,0,0,0,0,0,.6.18,1.28.27,2.03.27s1.45-.1,2.05-.28c0,0,0,0,.01,0,.2.16.39.35.56.55.02.03.04.06.06.09.14.18.28.36.39.57.03.06.05.12.08.18.09.18.18.36.25.56.03.09.06.19.08.29.04.13.07.25.09.38-.13.03-.25.07-.36.12-.07.03-.13.07-.2.1-.05.03-.11.06-.16.09-.07.05-.13.1-.19.15-.04.03-.08.07-.12.1-.06.06-.12.12-.17.18-.04.04-.07.08-.1.13-.05.06-.09.13-.13.2-.03.05-.06.11-.09.16-.03.07-.07.13-.09.2-.03.07-.05.15-.07.23-.02.06-.04.11-.05.17-.03.14-.04.29-.04.44,0,.14.02.28.04.42,0,.05.02.09.03.14.02.09.05.18.08.27.02.04.03.09.05.13.05.12.11.24.18.35-.56.25-1.29.37-2.18.37Zm-5.57-1.67c0-.65.38-1.2.92-1.45.04-.01.09-.02.13-.04l.06-.03c.13-.04.27-.07.41-.07.05,0,.1.01.15.02.06,0,.12,0,.17.02.03,0,.06.02.09.03.07.02.14.04.2.07,0,0,.01,0,.02,0,.44.21.76.62.86,1.12.02.1.03.21.03.31,0,.2-.04.4-.11.58,0,.01,0,.03-.01.04-.02.06-.06.11-.09.17-.02.03-.03.07-.06.1-.03.04-.06.08-.09.12-.03.04-.07.09-.11.13-.27.28-.65.45-1.06.45-.84,0-1.52-.71-1.52-1.58Zm-.63-2.87c-.1-.27-.1-.57.01-.84.11-.27.32-.48.58-.59l1.96-.81c.13-.05.27-.08.41-.08.11,0,.23.02.33.05-.02.02-.03.04-.05.05-.33.34-.61.73-.84,1.16-.01.02-.02.04-.03.06-.11.21-.2.43-.28.66,0,.01,0,.02-.01.04-.08.23-.14.47-.19.71,0,.02-.01.04-.01.05l-.44.18s-.05.01-.08.02c-.25.1-.53.09-.78-.02-.26-.12-.46-.33-.59-.67Zm2.21-5.2c0-.67.25-1.39.67-2.03.01-.02.03-.04.05-.06.13-.19.27-.36.42-.53.02-.02.04-.04.06-.06.14-.15.3-.29.47-.42.04-.03.08-.06.12-.09.08-.06.17-.12.25-.17.11-.07.22-.13.34-.19.49-.25,1.03-.4,1.6-.4s1.11.15,1.6.4c.12.06.23.12.34.19.09.05.17.11.25.17.04.03.08.06.12.09.17.13.32.27.47.43.02.02.04.04.05.06.16.17.3.35.42.53.01.02.03.04.04.06.42.64.67,1.36.67,2.03,0,1.28-.84,2.03-1.95,2.4h0c-.15.05-.3.09-.46.13,0,0,0,0,0,0-.32.07-.65.12-1,.15h-.02c-.06,0-.11,0-.16,0v-1.76l.53-.55c.21-.22.06-.6-.24-.6h-1.31c-.3,0-.45.38-.24.6l.53.55v1.76s-.09,0-.14,0c0,0-.01,0-.02,0-.35-.02-.68-.07-1-.15h0c-.16-.04-.31-.08-.46-.13h0c-1.12-.37-1.98-1.12-1.98-2.41Zm.13-2.58c-.27-.22-.44-.57-.44-.94,0-.66.52-1.2,1.15-1.2.41,0,.78.23.99.58-.02.01-.04.03-.07.04-.09.05-.17.11-.25.16-.3.2-.59.44-.84.71-.02.02-.04.04-.06.06-.09.1-.18.2-.26.31-.02.02-.03.04-.05.06-.06.07-.12.14-.17.21Zm5.97-1.57c.21-.35.58-.58.99-.58.64,0,1.16.54,1.16,1.2,0,.37-.17.72-.44.94-.05-.07-.11-.14-.17-.21-.02-.02-.03-.04-.05-.06-.08-.11-.17-.21-.26-.31-.02-.02-.05-.05-.07-.07-.25-.27-.53-.5-.83-.7-.08-.06-.17-.11-.26-.17-.02-.01-.04-.03-.07-.04Zm4.73,8.21c-.19-.46-.54-.81-.98-.99l-1.96-.81c-.05-.02-.1-.02-.16-.04.6-.58.93-1.33.93-2.22,0-.64-.18-1.3-.49-1.93.49-.36.8-.95.8-1.59,0-1.08-.85-1.96-1.89-1.96-.7,0-1.33.41-1.65,1.03-.46-.17-.95-.27-1.47-.27s-1.01.1-1.46.27c-.33-.62-.96-1.03-1.65-1.03-1.04,0-1.89.88-1.89,1.96,0,.64.31,1.23.8,1.59-.31.63-.49,1.29-.49,1.93,0,.89.34,1.65.94,2.23-.04.01-.09.02-.13.03l-1.96.81c-.44.18-.79.54-.98.99-.19.46-.2.96,0,1.49.18.46.51.82.96,1.02.04.02.07.02.11.04-.32.4-.52.91-.52,1.47,0,1.29,1.01,2.34,2.25,2.34.5,0,.96-.18,1.34-.47.7.37,1.58.56,2.71.56s2.01-.19,2.71-.56c.37.29.84.47,1.34.47,1.24,0,2.25-1.05,2.25-2.34,0-.56-.2-1.07-.52-1.48.47-.18.88-.56,1.09-1.11.18-.46.17-.97-.02-1.42Z"/>
</svg>
