<svg viewBox="0 0 24 24" xmlns="http://www.w3.org/2000/svg" data-title="ToysProduct" fill="currentColor" stroke="none">
  <path fill-rule="evenodd" clip-rule="evenodd" d="M20.2381 17.4587H12.4347V14.0497C12.4347 12.7585 13.288 11.594 14.5322 11.1611C14.6808 11.2545 14.837 11.3323 14.9985 11.4005C15.0587 11.4264 15.1227 11.4442 15.1851 11.4665C15.2933 11.505 15.4023 11.5391 15.5143 11.5658C15.6103 11.5902 15.7063 11.6103 15.8053 11.6258C15.8891 11.6384 15.9737 11.6444 16.059 11.651C16.152 11.6584 16.2411 11.6785 16.3364 11.6785C16.4316 11.6785 16.5208 11.6584 16.6137 11.651C16.6983 11.6444 16.7829 11.6384 16.8674 11.6258C16.9665 11.6103 17.0625 11.5902 17.1585 11.5658C17.2705 11.5391 17.3794 11.505 17.4876 11.4672C17.5501 11.4442 17.6141 11.4264 17.675 11.4005C17.8358 11.3323 17.992 11.2545 18.1406 11.1611C19.384 11.594 20.2381 12.7585 20.2381 14.0497V17.4587ZM5.77105 17.4587C5.84648 16.5692 6.37371 15.7642 7.17219 15.3224C7.2819 15.3914 7.39848 15.4492 7.51886 15.4988C7.5661 15.5196 7.61638 15.5329 7.66514 15.55C7.74362 15.5774 7.82133 15.6026 7.9021 15.6219C7.98133 15.6419 8.06133 15.6582 8.14286 15.6708C8.18857 15.6775 8.23352 15.6797 8.27848 15.6842C8.36305 15.6923 8.44457 15.7086 8.53067 15.7086C8.62667 15.7086 8.7181 15.6916 8.81105 15.6812C8.84686 15.6775 8.88267 15.676 8.91771 15.6708C9.0061 15.6575 9.09143 15.6389 9.176 15.6174C9.24305 15.6004 9.30781 15.5796 9.37257 15.5581C9.43429 15.5366 9.49676 15.5181 9.55543 15.4922C9.67657 15.441 9.79391 15.3825 9.90438 15.3121C10.7128 15.7531 11.2461 16.5618 11.3215 17.4587H5.77105ZM8.53067 11.5421C9.50133 11.5421 10.2914 12.3107 10.2914 13.2551C10.2914 13.8229 10.0019 14.324 9.56305 14.6353C9.52571 14.6612 9.48914 14.6857 9.45029 14.7087C9.40381 14.7368 9.35505 14.7606 9.30629 14.785C9.25143 14.8102 9.19733 14.8354 9.14019 14.8554C9.11276 14.8651 9.08381 14.8725 9.05638 14.8806C8.71886 14.9807 8.35543 14.9822 8.01714 14.8844C7.98743 14.8755 7.95771 14.868 7.92876 14.8577C7.87162 14.8377 7.81524 14.8132 7.76038 14.7872C7.71162 14.7643 7.66362 14.7391 7.6179 14.7116C7.57829 14.6887 7.53943 14.6642 7.50133 14.6375C7.06019 14.3255 6.77067 13.8244 6.77067 13.2551C6.77067 12.3107 7.56 11.5421 8.53067 11.5421ZM16.805 5.98716C16.8537 5.99605 16.9002 6.00939 16.9474 6.02051C17.0488 6.04497 17.1486 6.07462 17.2453 6.11094C17.2987 6.13096 17.3512 6.15097 17.403 6.17395C17.4876 6.21175 17.5676 6.25697 17.6469 6.30293C17.6994 6.33406 17.755 6.36149 17.8053 6.39633C17.8495 6.42672 17.8884 6.46378 17.931 6.49713C18.0781 6.61351 18.2145 6.74175 18.3326 6.88777C18.3448 6.9026 18.357 6.91594 18.3684 6.93002C18.4423 7.02564 18.5093 7.12571 18.5695 7.23097C18.5718 7.23542 18.5741 7.24061 18.5771 7.24505C18.6381 7.35476 18.6922 7.46891 18.7371 7.58825C17.3185 6.68615 15.3482 6.68986 13.931 7.59196C13.9394 7.56898 13.9448 7.54452 13.9539 7.52154C13.9722 7.47706 13.9935 7.43407 14.0141 7.39034C14.059 7.29694 14.1093 7.20651 14.1657 7.11978C14.1909 7.07976 14.2168 7.03899 14.245 7.00044C14.3158 6.9026 14.3943 6.81068 14.4789 6.72396C14.4979 6.70468 14.5131 6.68319 14.533 6.66466C14.6389 6.56236 14.7554 6.47045 14.8781 6.38743C14.9109 6.36519 14.9474 6.3474 14.981 6.32665C15.0754 6.26883 15.173 6.2162 15.2743 6.17099C15.3208 6.15097 15.368 6.13244 15.416 6.11391C15.5166 6.07685 15.6194 6.04571 15.7261 6.02051C15.7726 6.00939 15.8175 5.99605 15.8648 5.98716C16.0179 5.95973 16.1749 5.9412 16.3364 5.9412C16.4964 5.9412 16.6526 5.95973 16.805 5.98716ZM17.6758 10.5599C17.5935 10.6096 17.509 10.6541 17.4213 10.6948C17.352 10.726 17.2811 10.7541 17.2088 10.7786C17.1524 10.7986 17.0945 10.8142 17.0366 10.8305C16.9398 10.8564 16.8423 10.8816 16.7432 10.8964C16.7326 10.8987 16.7219 10.8987 16.7112 10.9001C16.4629 10.9342 16.2099 10.9342 15.9615 10.9001C15.9509 10.8987 15.9394 10.8987 15.9295 10.8964C15.8305 10.8816 15.733 10.8564 15.6362 10.8305C15.5783 10.8142 15.5204 10.7986 15.4632 10.7786C15.3916 10.7541 15.3208 10.726 15.2514 10.6948C15.1638 10.6541 15.0792 10.6096 14.997 10.5599C14.955 10.5355 14.9124 10.5125 14.8712 10.485C14.2678 10.0751 13.8632 9.41765 13.7924 8.66602C14.469 8.01373 15.381 7.63198 16.3364 7.63198C17.291 7.63198 18.2038 8.01373 18.8804 8.66602C18.8095 9.41765 18.405 10.0751 17.8015 10.485C17.7604 10.5125 17.717 10.5355 17.6758 10.5599ZM18.7806 10.6207C19.2971 10.0737 19.6202 9.35761 19.6522 8.56522C19.6537 8.55261 19.6644 8.54298 19.6644 8.53038L19.6659 8.4392C19.6659 6.6528 18.1718 5.19995 16.3364 5.19995C14.501 5.19995 13.0069 6.6528 13.0069 8.4392L13.0084 8.53038C13.0084 8.54298 13.0183 8.55261 13.0198 8.56522C13.0518 9.35761 13.3756 10.0737 13.8914 10.6207C12.5596 11.2485 11.6728 12.5828 11.6728 14.0497V16.0696C11.3939 15.5581 10.9909 15.1112 10.4842 14.7887C10.8347 14.367 11.0533 13.8377 11.0533 13.2551C11.0533 11.9016 9.9219 10.8008 8.53067 10.8008C7.14019 10.8008 6.00876 11.9016 6.00876 13.2551C6.00876 13.8444 6.232 14.3788 6.58933 14.8021C5.61029 15.4351 5 16.5158 5 17.6781L5.00381 17.8449C5.01295 18.0435 5.18057 18.2 5.38476 18.2H11.7086C11.7749 18.2 11.8343 18.1785 11.8891 18.1495C11.9432 18.1785 12.0027 18.2 12.0697 18.2H20.603C20.7989 18.2 20.9627 18.0554 20.9817 17.8649C20.9939 17.7456 21 17.6247 21 17.5024V14.0497C21 12.5828 20.1131 11.2485 18.7806 10.6207Z"/>
</svg>
