<svg viewBox="0 0 24 24" xmlns="http://www.w3.org/2000/svg" data-title="ToysProduct" fill="currentColor" stroke="none">
  <path fill-rule="evenodd" d="m19.24,17.76h-7.8v-3.41c0-1.29.85-2.46,2.1-2.89.15.09.3.17.47.24.06.03.12.04.19.07.11.04.22.07.33.1.1.02.19.04.29.06.08.01.17.02.25.03.09,0,.18.03.28.03s.18-.02.28-.03c.08,0,.17-.01.25-.03.1-.02.2-.04.29-.06.11-.03.22-.06.33-.1.06-.02.13-.04.19-.07.16-.07.32-.15.47-.24,1.24.43,2.1,1.6,2.1,2.89v3.41Zm-14.47,0c.08-.89.6-1.69,1.4-2.14.11.07.23.13.35.18.05.02.1.03.15.05.08.03.16.05.24.07.08.02.16.04.24.05.05,0,.09,0,.14.01.08,0,.17.02.25.02.1,0,.19-.02.28-.03.04,0,.07,0,.11-.01.09-.01.17-.03.26-.05.07-.02.13-.04.2-.06.06-.02.12-.04.18-.07.12-.05.24-.11.35-.18.81.44,1.34,1.25,1.42,2.15h-5.55Zm2.76-5.92c.97,0,1.76.77,1.76,1.71,0,.57-.29,1.07-.73,1.38-.04.03-.07.05-.11.07-.05.03-.1.05-.14.08-.05.03-.11.05-.17.07-.03,0-.06.02-.08.03-.34.1-.7.1-1.04,0-.03,0-.06-.02-.09-.03-.06-.02-.11-.04-.17-.07-.05-.02-.1-.05-.14-.08-.04-.02-.08-.05-.12-.07-.44-.31-.73-.81-.73-1.38,0-.94.79-1.71,1.76-1.71Zm8.27-5.55s.1.02.14.03c.1.02.2.05.3.09.05.02.11.04.16.06.08.04.16.08.24.13.05.03.11.06.16.09.04.03.08.07.13.1.15.12.28.24.4.39.01.01.02.03.04.04.07.1.14.2.2.3,0,0,0,0,0,.01.06.11.12.22.16.34-1.42-.9-3.39-.9-4.81,0,0-.02.01-.05.02-.07.02-.04.04-.09.06-.13.04-.09.1-.18.15-.27.03-.04.05-.08.08-.12.07-.1.15-.19.23-.28.02-.02.03-.04.05-.06.11-.1.22-.19.35-.28.03-.02.07-.04.1-.06.09-.06.19-.11.29-.16.05-.02.09-.04.14-.06.1-.04.2-.07.31-.09.05-.01.09-.02.14-.03.15-.03.31-.05.47-.05s.32.02.47.05Zm.87,4.57c-.08.05-.17.09-.25.13-.07.03-.14.06-.21.08-.06.02-.11.04-.17.05-.1.03-.19.05-.29.07-.01,0-.02,0-.03,0-.25.03-.5.03-.75,0-.01,0-.02,0-.03,0-.1-.01-.2-.04-.29-.07-.06-.02-.12-.03-.17-.05-.07-.02-.14-.05-.21-.08-.09-.04-.17-.09-.25-.13-.04-.02-.08-.05-.13-.07-.6-.41-1.01-1.07-1.08-1.82.68-.65,1.59-1.03,2.54-1.03s1.87.38,2.54,1.03c-.07.75-.48,1.41-1.08,1.82-.04.03-.08.05-.13.07Zm1.1.06c.52-.55.84-1.26.87-2.06,0-.01.01-.02.01-.03v-.09c0-1.79-1.49-3.24-3.33-3.24s-3.33,1.45-3.33,3.24v.09s.01.02.01.03c.03.79.36,1.51.87,2.06-1.33.63-2.22,1.96-2.22,3.43v2.02c-.28-.51-.68-.96-1.19-1.28.35-.42.57-.95.57-1.53,0-1.35-1.13-2.45-2.52-2.45s-2.52,1.1-2.52,2.45c0,.59.22,1.12.58,1.55-.98.63-1.59,1.71-1.59,2.88v.17c.01.2.18.36.38.36h6.32c.07,0,.13-.02.18-.05.05.03.11.05.18.05h8.53c.2,0,.36-.14.38-.34.01-.12.02-.24.02-.36v-3.45c0-1.47-.89-2.8-2.22-3.43Z"/>
</svg>
