<svg viewBox="0 0 24 24" xmlns="http://www.w3.org/2000/svg" data-title="Tractor" fill="currentColor" stroke="none">
  <path d="m16.37,17.91c-1.15,0-2.08-.93-2.08-2.08,0-.36.1-.71.29-1.04l.1-.16h-2.58c-.03-1.01-.43-1.96-1.15-2.68-.74-.74-1.73-1.15-2.79-1.15-.87,0-1.69.27-2.37.79l-.55-.68c.54-.41,1.16-.69,1.85-.85l.09-.02v-3.63c0-.17.14-.31.31-.31h3.98c.16,0,.31.1.37.26v.03s1.54,4.09,1.54,4.09h2v-1.75c0-.54.29-1.05.77-1.32.07-.04.14-.06.22-.06.21,0,.44.17.44.44,0,.16-.08.3-.22.38-.2.12-.33.33-.33.57v1.75h2.35c.21,0,.38.17.38.38v.62s0,.1-.02.14c0,0,0,.02,0,.03l-1.11,2.76.05.05c.36.4.55.88.55,1.38,0,1.15-.93,2.08-2.08,2.08h0Zm0-3.28c-.67,0-1.2.53-1.2,1.2s.53,1.2,1.2,1.2,1.2-.53,1.2-1.2-.53-1.2-1.2-1.2Zm-8.31-4.7h.11c1.11,0,2.15.37,3.01,1.07.84.68,1.43,1.63,1.67,2.67l.02.08h4.3l.96-2.41h-5.33l-.11-.29-1.53-4.09h-3.09v2.95h0Zm.11,7.98c-.84,0-1.64-.33-2.24-.93-.6-.6-.93-1.4-.93-2.24s.33-1.64.93-2.24c.6-.6,1.4-.93,2.24-.93s1.64.33,2.24.93c.6.6.93,1.4.93,2.24s-.33,1.64-.93,2.24c-.6.6-1.4.93-2.24.93Zm0-5.47c-.62,0-1.19.24-1.63.67-.43.43-.67,1.01-.67,1.63s.24,1.19.67,1.63c.43.43,1.01.67,1.63.67s1.19-.24,1.63-.67c.43-.43.67-1.01.67-1.63s-.24-1.19-.67-1.63c-.43-.43-1.01-.67-1.63-.67Zm0,3.28c-.54,0-.98-.44-.98-.98s.44-.98.98-.98.98.44.98.98-.44.98-.98.98Z"/>
  <path d="m16.36,16.18c.2,0,.36-.16.36-.36s-.16-.36-.36-.36-.36.16-.36.36.16.36.36.36Z"/>
</svg>
