<svg viewBox="0 0 24 24" xmlns="http://www.w3.org/2000/svg" data-title="Tractor" fill="currentColor" stroke="none">
  <path d="M16.3746 17.656C15.2289 17.656 14.2966 16.7237 14.2966 15.5779C14.2966 15.2205 14.395 14.8712 14.5893 14.5396L14.6857 14.3748H12.1078C12.0807 13.3607 11.6749 12.4138 10.9588 11.6974C10.2168 10.9554 9.22721 10.5468 8.17199 10.5468C7.30205 10.5468 6.48352 10.8209 5.79754 11.3408L5.25046 10.657C5.78551 10.2491 6.40805 9.96273 7.10256 9.80567L7.18787 9.78642V6.15568C7.18787 5.98375 7.32786 5.84375 7.4998 5.84375H11.4785C11.6432 5.84375 11.7933 5.94722 11.8519 6.10121L11.8637 6.13228L13.394 10.2187H15.3907V8.4687C15.3907 7.92752 15.6852 7.41981 16.159 7.14397C16.2272 7.10416 16.3005 7.08404 16.3768 7.08404C16.5864 7.08404 16.8126 7.2505 16.8126 7.51956C16.8126 7.67553 16.7277 7.82056 16.5912 7.89799C16.3873 8.01371 16.2657 8.22699 16.2657 8.46848V10.2184H18.6194C18.8294 10.2184 19 10.3893 19 10.5991V11.2144C19 11.263 18.9921 11.3111 18.9768 11.3572C18.974 11.3658 18.9707 11.3745 18.9674 11.383L17.8544 14.148L17.9004 14.1987C18.262 14.5975 18.4531 15.0744 18.4531 15.5779C18.4531 16.7237 17.5209 17.656 16.3751 17.656H16.3746ZM16.3746 14.3748C15.7 14.3748 15.1716 14.9033 15.1716 15.5779C15.1716 16.2525 15.7 16.781 16.3746 16.781C17.0492 16.781 17.5777 16.2525 17.5777 15.5779C17.5777 14.9033 17.0492 14.3748 16.3746 14.3748ZM8.0624 9.6718H8.17178C9.27993 9.6718 10.3211 10.0419 11.1826 10.7419C12.0179 11.4205 12.6101 12.3698 12.85 13.415L12.8695 13.4999H17.1663L18.125 11.0936H12.7927L12.6829 10.8051L11.1526 6.71873H8.06219V9.6718H8.0624ZM8.17178 17.656C7.32808 17.656 6.53251 17.3251 5.93163 16.7244C5.33096 16.1235 5 15.3279 5 14.4842C5 13.6405 5.33096 12.8449 5.93163 12.244C6.5323 11.6431 7.32786 11.3124 8.17178 11.3124C9.01569 11.3124 9.81104 11.6434 10.4119 12.244C11.0128 12.8447 11.3436 13.6403 11.3436 14.4842C11.3436 15.3281 11.0126 16.1235 10.4119 16.7244C9.81126 17.3251 9.01569 17.656 8.17178 17.656ZM8.17178 12.1874C7.5547 12.1874 6.977 12.4254 6.54498 12.8574C6.11297 13.2894 5.87497 13.8671 5.87497 14.4842C5.87497 15.1013 6.11297 15.679 6.54498 16.111C6.977 16.543 7.5547 16.781 8.17178 16.781C8.78885 16.781 9.36655 16.543 9.79857 16.111C10.2306 15.679 10.4686 15.1013 10.4686 14.4842C10.4686 13.8671 10.2306 13.2894 9.79857 12.8574C9.36655 12.4254 8.78885 12.1874 8.17178 12.1874ZM8.17178 15.4686C7.62907 15.4686 7.18743 15.0269 7.18743 14.4842C7.18743 13.9415 7.62907 13.4999 8.17178 13.4999C8.71448 13.4999 9.15612 13.9415 9.15612 14.4842C9.15612 15.0269 8.71448 15.4686 8.17178 15.4686Z"/>
  <path d="M16.3636 15.9272C16.5644 15.9272 16.7273 15.7644 16.7273 15.5636C16.7273 15.3628 16.5644 15.2 16.3636 15.2C16.1628 15.2 16 15.3628 16 15.5636C16 15.7644 16.1628 15.9272 16.3636 15.9272Z"/>
</svg>
