<svg viewBox="0 0 24 24" xmlns="http://www.w3.org/2000/svg" data-title="TrainFill" fill="currentColor" stroke="none">
  <path fill-rule="evenodd" d="m11.97,2h-.01c-1,0-1.94,0-2.95.08h0c-.95.08-1.82.33-2.53.58-.74.26-1.3.69-1.78,1.1l-.02.02-.02.03c-.41.61-.66,1.31-.66,2.18v10.25c0,1.04.33,1.92,1,2.62.54.57,1.19.91,1.95,1.01l-.48.5c-.21.22-.32.56-.21.91.1.31.3.53.6.64.08.04.18.08.28.08.1,0,.18-.03.26-.07.07-.01.14-.04.19-.07.07-.04.15-.09.22-.16l1.78-1.88h4.75l1.81,1.91.03.02s.06.03.09.05h0s.06.04.09.06c.08.04.18.08.3.08h0c.07,0,.15,0,.22-.01.08-.01.16-.04.25-.09.29-.11.5-.33.6-.64.11-.35,0-.69-.21-.91l-.48-.5c.75-.11,1.41-.44,1.95-1.01.67-.7,1-1.58,1-2.62V6.07c0-.94-.25-1.65-.67-2.19h0s0-.02,0-.02c-.48-.51-1.05-.94-1.78-1.2-.73-.34-1.6-.5-2.54-.59-.94-.08-1.95-.08-3.03-.08Zm-5.95,8.7v-3.57h4.93v3.57h-4.93Zm6.95,0v-3.57h4.93v3.57h-4.93Zm-5.79,4.48c0-.41.12-.67.31-.87.28-.22.54-.35.85-.35.39,0,.64.13.82.32.21.3.33.57.33.89,0,.41-.12.67-.31.87-.28.22-.54.35-.85.35-.34,0-.58-.07-.82-.32-.21-.3-.33-.57-.33-.89Zm7.26,0c0-.41.12-.67.31-.87.15-.12.26-.2.38-.25.12-.06.26-.09.46-.09.39,0,.64.13.82.32.21.3.33.57.33.89,0,.41-.12.67-.31.87-.28.22-.54.35-.85.35-.37,0-.65-.08-.81-.31-.22-.3-.34-.58-.34-.91Z"/>
</svg>
