<svg viewBox="0 0 24 24" xmlns="http://www.w3.org/2000/svg" data-title="TrashCloseFill" fill="currentColor" stroke="none">
  <path d="M19.9043 6.34635H16.1478C16.0696 5.28944 15.6783 4.23253 14.8957 3.50083C14.113 2.68782 13.0174 2.20001 11.8435 2.20001C10.6696 2.20001 9.65217 2.68782 8.7913 3.50083C8.16522 4.31383 7.69565 5.28944 7.69565 6.34635H3.93913C3.3913 6.34635 3 6.83416 3 7.32196C3 7.80977 3.3913 8.29757 3.93913 8.29757H5.03478V19.8423C5.03478 20.4927 5.26957 21.0618 5.73913 21.5496C6.05217 21.9561 6.6 22.2 7.22609 22.2H16.6174C17.2435 22.2 17.7913 21.9561 18.2609 21.4683C18.6522 21.0618 18.9652 20.4114 18.9652 19.761V8.29757H20.0609C20.6087 8.29757 21 7.89107 21 7.32196C21 6.75286 20.4522 6.34635 19.9043 6.34635ZM10.1999 4.88296C11.1391 3.90735 12.7043 3.90733 13.5652 4.88294C13.9565 5.28944 14.1913 5.77725 14.2696 6.34635L9.57384 6.34637C9.57384 5.77727 9.80862 5.28946 10.1999 4.88296ZM14.9739 16.4277C15.3652 16.8342 15.3652 17.4033 14.9739 17.8098C14.8174 17.9724 14.5826 18.135 14.3478 18.135C14.113 18.135 13.8783 18.0537 13.7217 17.8098L12 16.0211L10.2783 17.8098C10.1217 17.9724 9.88696 18.135 9.65217 18.135C9.41739 18.135 9.18261 18.0537 9.02609 17.8098C8.63478 17.4033 8.63478 16.8342 9.02609 16.4277L10.7478 14.639L9.02609 12.8504C8.63478 12.4439 8.63478 11.8748 9.02609 11.4683C9.41739 11.0618 9.96522 11.0618 10.3565 11.4683L12.0783 13.2569L13.8 11.4683C14.1913 11.0618 14.7391 11.0618 15.1304 11.4683C15.5217 11.8748 15.5217 12.4439 15.1304 12.8504L13.2522 14.639L14.9739 16.4277Z"/>
</svg>
