<svg viewBox="0 0 24 24" xmlns="http://www.w3.org/2000/svg" data-title="Truck" fill="currentColor" stroke="none">
  <path d="M8.46 15.46C8.2 15.46 8 15.67 8 15.92 8 16.17 8.21 16.38 8.46 16.38 8.71 16.38 8.92 16.17 8.92 15.92 8.92 15.67 8.71 15.46 8.46 15.46ZM16.83 15.46C16.57 15.46 16.37 15.67 16.37 15.92 16.37 16.17 16.58 16.38 16.83 16.38 17.08 16.38 17.29 16.17 17.29 15.92 17.29 15.67 17.08 15.46 16.83 15.46Z"/>
  <path d="M19.72 12.06L18.66 11.31L17.61 8.15C17.56 7.96 17.38 7.82 17.19 7.82H14.38V6.46C14.38 6.19 14.19 6 13.92 6H5.19C4.51 6 4 6.51 4 7.19V15.19C4 15.87 4.51 16.38 5.19 16.38H6.6C6.82 17.24 7.58 17.83 8.46 17.83C9.34 17.83 10.1 17.24 10.32 16.38H14.97C15.17 17.22 15.91 17.83 16.83 17.83C17.75 17.83 18.47 17.24 18.69 16.38H19.01C19.69 16.38 20.2 15.87 20.2 15.19V13.01C20.2 12.63 20.03 12.28 19.72 12.06ZM14.38 8.75H16.86L17.63 11.1H17.2L17.24 11.02C17.33 10.79 17.24 10.52 17.04 10.42C16.98 10.4 16.92 10.38 16.85 10.38C16.67 10.38 16.51 10.47 16.44 10.61L16.18 11.1H14.38V8.75ZM8.46 16.91C7.9 16.91 7.47 16.48 7.47 15.92C7.47 15.36 7.9 14.93 8.46 14.93C9.02 14.93 9.45 15.36 9.45 15.92C9.45 16.48 9.02 16.91 8.46 16.91ZM10.32 15.45C10.1 14.59 9.34 14 8.46 14C7.58 14 6.82 14.59 6.6 15.45H5.19C5.03 15.45 4.93 15.35 4.93 15.19V7.19C4.93 7.03 5.03 6.93 5.19 6.93H13.45V15.46H10.32V15.45ZM16.82 16.91C16.26 16.91 15.83 16.48 15.83 15.92C15.83 15.36 16.26 14.93 16.82 14.93C17.38 14.93 17.81 15.36 17.81 15.92C17.81 16.48 17.38 16.91 16.82 16.91ZM19.27 15.19C19.27 15.35 19.17 15.45 19.01 15.45H18.69C18.47 14.59 17.71 14 16.83 14C15.95 14 15.17 14.61 14.97 15.45H14.38V12.01L18.11 11.99L19.17 12.79C19.24 12.83 19.27 12.9 19.27 13V15.18V15.19Z"/>
  <path d="M12.46 12.55H5.92002C5.65002 12.55 5.46002 12.74 5.46002 13.01C5.46002 13.28 5.65002 13.47 5.92002 13.47H12.47C12.74 13.47 12.93 13.28 12.93 13.01C12.93 12.74 12.74 12.55 12.47 12.55H12.46Z"/>
</svg>
