<svg viewBox="0 0 24 24" xmlns="http://www.w3.org/2000/svg" data-title="Trunk" fill="currentColor" stroke="none">
  <path d="m19.13,5c.09,0,.18.03.25.09.07.06.11.14.12.23,0,.09-.02.18-.07.25-.06.07-.14.12-.23.14h-.07s-3.78,0-3.78,0c-.24,0-.47.08-.66.22l-.09.08-3.34,3.07c-.3.28-.69.45-1.1.48h-.15s-2.86,0-2.86,0c-.58,0-1.05.43-1.1.98v.1s0,4.03,0,4.03c0,.56.44,1.03,1,1.08h.11s1.41,0,1.41,0v-.03c0-.86.35-1.69.97-2.3.62-.61,1.46-.95,2.34-.95s1.72.34,2.34.95c.62.61.97,1.44.97,2.3v.03s3.95,0,3.95,0c.09,0,.18.03.25.09.07.06.11.14.12.23,0,.09-.02.18-.07.25-.06.07-.14.12-.23.14h-.07s-4.04,0-4.04,0c-.17.71-.59,1.35-1.17,1.8-.59.45-1.31.7-2.05.7s-1.47-.25-2.05-.7c-.59-.45-1-1.09-1.17-1.8h-1.5c-.98,0-1.78-.75-1.84-1.69v-.12s0-4.03,0-4.03c0-.96.76-1.74,1.72-1.8h.12s2.72,0,2.72,0l-2.39-2.5c-.18-.19-.43-.31-.69-.34h-.11s-1.8,0-1.8,0c-.09,0-.18-.03-.25-.09-.07-.06-.11-.14-.12-.23,0-.09.02-.18.07-.25.06-.07.14-.12.23-.14h.07s1.8,0,1.8,0c.46,0,.91.17,1.24.47l.1.1,2.65,2.77.09-.07,3.34-3.07c.3-.28.69-.45,1.1-.48h.15s3.78,0,3.78,0h0Zm-7.27,8.22c-.34,0-.68.05-1,.18-.32.12-.61.31-.85.54-.24.24-.44.52-.57.83-.13.31-.2.64-.2.98s.07.67.2.98c.13.31.33.59.57.83.24.24.53.42.85.54.32.12.66.18,1,.18.67-.01,1.32-.29,1.79-.76.47-.47.74-1.11.74-1.77s-.26-1.3-.74-1.77c-.47-.47-1.12-.75-1.79-.76Zm0,.72c.49,0,.96.19,1.3.53.35.34.54.8.54,1.28s-.19.94-.54,1.28c-.35.34-.81.53-1.3.53s-.96-.19-1.3-.53c-.35-.34-.54-.8-.54-1.28s.19-.94.54-1.28c.35-.34.81-.53,1.3-.53h0Zm0,.72c-.29,0-.57.11-.78.32-.21.2-.32.48-.32.77s.12.56.32.77c.21.2.49.32.78.32s.57-.11.78-.32c.21-.2.32-.48.32-.77s-.12-.56-.32-.77c-.21-.2-.49-.32-.78-.32h0Z"/>
</svg>
