<svg viewBox="0 0 24 24" xmlns="http://www.w3.org/2000/svg" data-title="TwitterFill" fill="currentColor" stroke="none">
  <path d="M14.0075 3.56305C15.9095 3.06925 18.1811 3.72125 19.6105 5.1824H21C21.3441 5.1824 21.664 5.36068 21.847 5.65438C22.0299 5.94808 22.0502 6.31593 21.9006 6.6282L20.4481 9.65999C20.8498 13.3495 19.4057 16.8836 16.5054 18.983C13.5117 21.1498 9.14446 21.6679 4.02745 19.5563C3.70808 19.4341 3.43226 19.2181 3.23598 18.9359C3.03495 18.6468 2.9271 18.3024 2.9271 17.9494C2.9271 17.5965 3.03495 17.2521 3.23598 16.963C3.43702 16.674 3.72149 16.4543 4.05075 16.3339C4.07687 16.3243 4.10338 16.3159 4.1302 16.3085C4.72419 16.1462 5.29753 15.9202 5.84072 15.6353C4.62146 14.7983 3.62258 13.6595 2.94759 12.3159C2.01204 10.4537 1.75955 8.31901 2.2333 6.28856C2.27109 5.99707 2.38254 5.71961 2.5577 5.48314C2.75269 5.21989 3.01847 5.01847 3.32355 4.90272C3.62864 4.78698 3.96025 4.76178 4.27911 4.83009C4.59762 4.89832 4.89008 5.057 5.12193 5.28738C7.08109 7.22783 8.78127 8.01783 9.93752 8.3377C10.2268 8.41774 10.4847 8.46908 10.707 8.5014C10.6723 7.35676 10.8937 6.37288 11.3506 5.56783C11.9658 4.48389 12.9436 3.83925 14.0075 3.56305Z"/>
</svg>
