<svg viewBox="0 0 24 24" xmlns="http://www.w3.org/2000/svg" data-title="TwitterOutline" fill="currentColor" stroke="none">
  <path fill-rule="evenodd" clip-rule="evenodd" d="M19.6105 5.1824C18.1811 3.72125 15.9095 3.06925 14.0075 3.56305C12.9436 3.83925 11.9658 4.48389 11.3506 5.56783C10.8937 6.37288 10.6723 7.35676 10.707 8.5014C10.4847 8.46908 10.2268 8.41774 9.93752 8.3377C8.78127 8.01783 7.08109 7.22783 5.12193 5.28738C4.89008 5.057 4.59762 4.89832 4.27911 4.83008C3.96025 4.76178 3.62864 4.78698 3.32355 4.90272C3.01847 5.01847 2.75269 5.21989 2.5577 5.48314C2.38254 5.71961 2.27109 5.99707 2.2333 6.28856C1.75955 8.31901 2.01204 10.4537 2.94759 12.3159C3.62258 13.6595 4.62146 14.7983 5.84072 15.6353C5.29753 15.9202 4.72419 16.1462 4.1302 16.3085C4.10338 16.3159 4.07687 16.3243 4.05075 16.3339C3.72149 16.4543 3.43702 16.674 3.23598 16.963C3.03495 17.2521 2.9271 17.5965 2.9271 17.9494C2.9271 18.3024 3.03495 18.6468 3.23598 18.9359C3.43226 19.2181 3.70808 19.4341 4.02745 19.5563C9.14446 21.6679 13.5117 21.1498 16.5054 18.983C19.4057 16.8836 20.8498 13.3495 20.4481 9.65999L21.9005 6.6282C22.0501 6.31593 22.0299 5.94808 21.847 5.65438C21.664 5.36068 21.3441 5.1824 21 5.1824H19.6105ZM11.8141 9.53163C11.9895 10.5237 11.9888 10.5238 11.9881 10.524L11.9866 10.5242L11.9834 10.5248L11.976 10.526L11.9576 10.529C11.9437 10.5312 11.9266 10.5337 11.9063 10.5364C11.8657 10.5417 11.8125 10.5477 11.7473 10.5531C11.6169 10.5637 11.4383 10.5716 11.2165 10.5659C10.7722 10.5544 10.1563 10.4882 9.40804 10.2812C7.99418 9.89006 6.14426 9.00622 4.10825 7.09885C3.84599 8.56087 4.06272 10.0735 4.73196 11.4056C5.46252 12.8598 6.68428 14.0034 8.17726 14.6304C8.5048 14.768 8.73547 15.0702 8.78339 15.4245C8.83132 15.7788 8.68932 16.1322 8.41025 16.3531C7.53577 17.0452 6.55974 17.5926 5.51905 17.9764C9.80141 19.538 13.1518 18.9289 15.3386 17.346C17.6666 15.661 18.8556 12.7511 18.429 9.62632C18.4021 9.42975 18.4335 9.22957 18.5191 9.05087L19.4068 7.19781H19.1656C18.8648 7.19781 18.58 7.06137 18.3901 6.8263C17.4931 5.71596 15.8048 5.17767 14.5064 5.51474C13.8929 5.674 13.3988 6.01849 13.0867 6.56842C12.7685 7.12911 12.5762 8.01673 12.8003 9.36521C12.8909 9.91004 12.5292 10.4268 11.9895 10.5237L11.8141 9.53163Z"/>
</svg>
