<svg viewBox="0 0 24 24" xmlns="http://www.w3.org/2000/svg" data-title="Type" fill="currentColor" stroke="none">
  <path fill-rule="evenodd" d="m12,5.5c.19,0,.35.12.38.27v.06s0,1.99,0,1.99c.96.13,1.72.73,1.89,1.5h1.98c2.32-.02,4.21,1.78,4.24,4.03,0,2.42-1.99,5.15-4.17,5.15-.75,0-1.18-.4-1.9-1.48l-.2-.31-.19-.28c-.42-.6-.68-.85-.95-.89h-.06s-2.03,0-2.03,0c-.34,0-.64.28-1.17,1.1l-.13.21c-.79,1.22-1.2,1.65-1.99,1.65-2.21,0-4.21-2.73-4.21-5.16.03-2.16,1.79-3.91,4-4.02h.17s2.05,0,2.05,0c.17-.77.93-1.37,1.89-1.5v-1.99c0-.18.17-.33.39-.33Zm4.26,4.56H7.67c-1.87.02-3.38,1.48-3.41,3.29,0,2.06,1.72,4.41,3.44,4.41.37,0,.68-.29,1.24-1.16l.13-.21c.72-1.12,1.12-1.55,1.81-1.59h.11s2.03,0,2.03,0c.68,0,1.08.38,1.73,1.35l.2.31c.63.97.96,1.31,1.36,1.31,1.69,0,3.4-2.36,3.4-4.41-.02-1.78-1.49-3.22-3.31-3.29h-.16Zm.56,3.47h.07c.29.04.51.27.52.57,0,.15-.06.3-.17.41-.11.11-.26.17-.42.17-.32,0-.57-.26-.57-.58,0-.29.22-.53.51-.57h.07Zm-9.08-1.91c.19,0,.35.14.38.31v.07s0,.76,0,.76h.77c.21,0,.39.17.39.38,0,.19-.14.34-.32.38h-.07s-.77,0-.77,0v.76c0,.21-.17.38-.39.38-.19,0-.35-.14-.38-.31v-.07s0-.76,0-.76h-.77c-.21,0-.39-.17-.39-.38,0-.19.14-.34.32-.38h.07s.77,0,.77,0v-.76c0-.21.17-.38.39-.38Zm7.92.76c.32,0,.58.26.58.58,0,.31-.27.56-.58.56s-.58-.26-.58-.57c0-.29.22-.53.5-.57h.07Zm2.33,0c.32,0,.57.26.57.58,0,.15-.06.3-.17.4-.11.11-.25.17-.41.17-.32,0-.58-.25-.58-.57,0-.15.06-.3.17-.41.09-.09.21-.15.34-.16h.08Zm-1.17-1.15h.07c.29.04.51.27.52.57,0,.15-.06.3-.17.41-.11.11-.26.17-.42.17-.32,0-.57-.26-.57-.58,0-.29.22-.53.51-.57h.07Zm-4.83-2.67c-.46,0-1.04.18-1.31.76h2.55c-.22-.48-.63-.73-1.24-.76Z"/>
</svg>
