<svg viewBox="0 0 24 24" xmlns="http://www.w3.org/2000/svg" data-title="TypingOutline" fill="currentColor" stroke="none">
  <path d="M16.684 9.72591C17.434 9.72591 18.1006 10.3898 18.1006 11.1367 18.1006 11.8836 17.434 12.5475 16.684 12.5475 15.934 12.5475 15.2674 11.8836 15.2674 11.1367 15.2674 10.3898 15.934 9.72591 16.684 9.72591ZM12.0505 12.5475C12.8005 12.5475 13.4671 11.8836 13.4671 11.1367 13.4671 10.3068 12.8005 9.72591 12.0505 9.72591 11.3006 9.72591 10.6339 10.3898 10.6339 11.1367 10.6339 11.8836 11.3006 12.5475 12.0505 12.5475ZM7.47957 12.5475C8.22954 12.5475 8.89619 11.8836 8.89619 11.1367 8.89619 10.3068 8.22954 9.72591 7.47957 9.72591 6.72959 9.72591 6.06295 10.3898 6.06295 11.1367 6.06295 11.8836 6.72959 12.5475 7.47957 12.5475Z"/>
  <path fill-rule="evenodd" clip-rule="evenodd" d="M2.00226 6.92602C2.00858 4.61876 3.88709 2.80005 6.18248 2.80005H17.7517C20.0971 2.80005 22 4.69109 22 7.02858V21.8C22 22.1788 21.7851 22.5251 21.4449 22.6945C21.1047 22.8639 20.6977 22.8273 20.3934 22.6L16.7219 19.8577H6.26238C3.92748 19.8577 2.02715 17.9834 2.01721 15.6536C2.00635 13.1082 1.99508 9.55189 2.00226 6.92602ZM6.18248 4.80005C4.97261 4.80005 4.01377 5.74792 4.01053 6.93147C4.00336 9.54977 4.0146 13.1 4.02546 15.6451C4.03068 16.8691 5.02871 17.8577 6.26238 17.8577H17.0566C17.2738 17.8577 17.4852 17.9279 17.6591 18.0577L19.9917 19.8V7.02858C19.9917 5.79746 18.9898 4.80005 17.7517 4.80005H6.18248Z"/>
</svg>
