<svg viewBox="0 0 24 24" xmlns="http://www.w3.org/2000/svg" data-title="Vaccine" fill="currentColor" stroke="none">
  <path fill-rule="evenodd" d="m6.9,4.88c.42-.42,1.12-.4,1.56.05.45.45.47,1.15.05,1.56l-.25.25,1.07,1.07.25-.25c.12-.12.32-.14.46-.04l.05.04,8.09,8.09c.12.12.14.32.04.46l-.04.05-.76.76,1.88,1.88c.15.15.16.38.02.52-.12.12-.32.13-.47.03l-.05-.04-1.88-1.88-.76.76c-.12.12-.32.14-.46.04l-.05-.04L7.56,10.09c-.12-.12-.14-.32-.04-.46l.04-.05.25-.25-1.07-1.07-.25.25c-.39.39-1.04.4-1.48.03l-.08-.07c-.45-.45-.47-1.15-.05-1.56l2.02-2.02Zm9.96,10.46l-1.52,1.52.54.54,1.52-1.52-.54-.54Zm-6.99-6.99l-1.52,1.52,1.61,1.61.76-.76c.14-.14.37-.13.52.02.13.13.15.33.06.47l-.04.05-.76.76,1.07,1.07.76-.76c.14-.14.37-.13.52.02.13.13.15.33.06.47l-.04.05-.76.76,1.07,1.07.76-.76c.14-.14.37-.13.52.02.13.13.15.33.06.47l-.04.05-.76.76,1.07,1.07,1.52-1.52-6.45-6.45Zm-2.12-1.11l-.51.51,1.07,1.07.51-.51-1.07-1.07Zm-.32-1.83l-2.02,2.02c-.14.14-.13.37.02.52.15.15.38.16.52.02l2.02-2.02c.14-.14.13-.37-.02-.52-.15-.15-.38-.16-.52-.02Z"/>
</svg>
