<svg viewBox="0 0 24 24" xmlns="http://www.w3.org/2000/svg" data-title="Vehicles" fill="currentColor" stroke="none">
  <path d="m17.6,14.43h2.5c.64,0,1.15-.52,1.15-1.16s-.52-1.16-1.15-1.16h-2.5c-.64,0-1.15.52-1.15,1.16s.52,1.16,1.15,1.16Zm-11.12-2.33h-2.5c-.64,0-1.15.52-1.15,1.16s.52,1.16,1.15,1.16h2.5c.64,0,1.15-.52,1.15-1.16s-.52-1.16-1.15-1.16Z"/>
  <path d="m22.85,9.37c.64,0,1.15-.52,1.15-1.16s-.52-1.16-1.15-1.16h-2.11l-1.01-2.33s-.02-.04-.03-.06c-.75-1.51-2.29-2.66-4.12-2.66h-7.26c-1.82,0-3.39,1.14-4.06,2.72l-1,2.33H1.15c-.64,0-1.15.52-1.15,1.16s.52,1.16,1.15,1.16h.03c-.73.81-1.18,1.88-1.18,3.05v3.37c0,.79.32,1.5.83,2.02v1.35c0,1.56,1.27,2.84,2.82,2.84h1.67c1.55,0,2.82-1.28,2.82-2.84v-.52h7.71v.52c0,1.56,1.27,2.84,2.82,2.84h1.67c1.55,0,2.82-1.28,2.82-2.84v-1.35c.52-.51.83-1.23.83-2.02v-3.37c0-1.17-.45-2.24-1.18-3.05h.04ZM5.84,19.16c0,.28-.24.52-.52.52h-1.67c-.28,0-.52-.24-.52-.52v-.52h2.71v.52Zm3.82-2.84l.37-.78s.01-.03.02-.05c.04-.09.16-.22.44-.22h2.92c.28,0,.4.13.44.22,0,.03.02.05.04.08l.38.75h-4.62.01Zm3.76-3.37h-2.92c-1.04,0-2.08.53-2.55,1.6l-.84,1.76H2.82c-.28,0-.52-.24-.52-.52v-3.37c0-1.21.99-2.21,2.19-2.21h15.02c1.2,0,2.19,1,2.19,2.21v3.37c0,.28-.24.52-.52.52h-4.31l-.91-1.79c-.47-1.06-1.51-1.58-2.54-1.58Zm-7.04-7.3c.33-.78,1.1-1.32,1.95-1.32h7.26c.83,0,1.63.52,2.05,1.35l.96,2.22H5.41l.97-2.25Zm14.49,13.51c0,.28-.24.52-.52.52h-1.67c-.28,0-.52-.24-.52-.52v-.52h2.71v.52Z"/>
</svg>
