<svg viewBox="0 0 24 24" xmlns="http://www.w3.org/2000/svg" data-title="VehicleWeight" fill="currentColor" stroke="none">
  <path fill-rule="evenodd" d="m12,20c4.42,0,8-3.58,8-8s-3.58-8-8-8S4,7.58,4,12s3.58,8,8,8Zm0-1c3.87,0,7-3.13,7-7s-3.13-7-7-7-7,3.13-7,7,3.13,7,7,7Z"/>
  <path d="m16.57,15.93H7.43c-.14,0-.21-.07-.29-.14-.07-.07-.07-.21-.07-.36l1.93-5.86c.14-.07.21-.21.43-.21h.79c-.14-.29-.21-.57-.21-.93,0-1.14.93-2,2-2s2,.93,2,2c0,.36-.07.64-.21.93h.79c.14,0,.29.07.36.21l1.93,5.86c.07.14,0,.21-.07.36,0,.07-.14.14-.21.14Zm-8.64-.71h8.14l-1.71-5.14h-1.29c-.21,0-.29-.07-.36-.21-.07-.14,0-.29.07-.43.36-.21.5-.57.5-1,0-.71-.57-1.29-1.29-1.29s-1.29.57-1.29,1.29c0,.43.21.79.5,1,.07.14.14.29.07.43-.07.14-.14.21-.36.21h-1.29l-1.71,5.14Zm4.07-7.43c.36,0,.71.29.71.71,0,.36-.29.71-.71.71s-.71-.36-.71-.79c0-.36.36-.64.71-.64Z"/>
  <path d="m9.86,13.96v-2.25h.57v.98h0l1.08-.98h.69l-1.21,1.07,1.27,1.17h-.7l-1.13-1.03h0v1.03h-.57Z"/>
  <path d="m13.17,14.57c-.18,0-.34-.02-.49-.05-.15-.03-.28-.08-.4-.15l.15-.33c.1.05.21.09.33.12.13.03.24.04.36.04.32,0,.47-.13.47-.38v-.18c-.05.08-.13.15-.23.19-.11.05-.22.07-.35.07-.16,0-.3-.03-.43-.1-.12-.07-.21-.16-.28-.27-.07-.12-.1-.25-.1-.41s.03-.29.1-.41c.07-.12.16-.21.28-.27.12-.07.26-.1.43-.1.13,0,.25.02.35.07.1.05.18.11.23.19v-.24h.54v1.38c0,.26-.08.46-.25.59-.17.13-.41.2-.72.2Zm.01-1.01c.12,0,.22-.04.3-.11.08-.07.11-.18.11-.31s-.04-.23-.11-.31c-.07-.07-.17-.11-.3-.11s-.23.04-.3.11c-.07.07-.11.17-.11.31s.04.23.11.31c.07.07.17.11.3.11Z"/>
</svg>
