<svg viewBox="0 0 24 24" xmlns="http://www.w3.org/2000/svg" data-title="VerifiedOutline" fill="currentColor" stroke="none">
  <path fill-rule="evenodd" clip-rule="evenodd" d="M12.6471 4.09697C12.336 3.98729 11.9972 3.98729 11.6862 4.09697L5.9592 6.11634C5.36873 6.32454 4.98714 6.87829 5.00014 7.47693C5.06447 10.4374 5.39773 12.8858 6.95217 15.4114C8.22845 17.485 10.0284 19.0687 12.1058 19.9725C12.1466 19.9895 12.1866 19.9895 12.2274 19.9725C14.3066 19.0679 16.1079 17.4823 17.3843 15.4061C18.9386 12.878 19.2693 10.4363 19.3332 7.47735C19.3461 6.87837 18.9644 6.32446 18.3739 6.11626L12.6471 4.09697ZM11.0255 2.19537C11.7643 1.93488 12.5689 1.93488 13.3077 2.19537L19.0345 4.21466C20.4128 4.70065 21.3649 6.01918 21.3325 7.52114C21.2657 10.6197 20.9157 13.4883 19.0845 16.4669C17.6043 18.8744 15.4935 20.7472 13.0158 21.824L13.0105 21.8264C12.4692 22.0579 11.8641 22.0579 11.3228 21.8263L11.3174 21.8241C8.84191 20.7481 6.73255 18.8777 5.25258 16.4731C3.42069 13.4968 3.06817 10.6212 3.00081 7.52102C2.96818 6.01898 3.92047 4.70066 5.29856 4.21474L11.0255 2.19537ZM16.4829 8.26372C16.9093 8.6173 16.9704 9.25215 16.6194 9.68168L12.4356 14.8022C12.2838 14.9858 12.0933 15.133 11.878 15.2331C11.6627 15.3332 11.4279 15.3837 11.1908 15.3809L11.1899 15.3809C10.9489 15.3779 10.7117 15.3199 10.4962 15.2113C10.2815 15.1032 10.0939 14.9477 9.94713 14.7564L8.32155 12.6509C7.98251 12.2117 8.06104 11.5788 8.49694 11.2372C8.93285 10.8957 9.56106 10.9748 9.9001 11.4139L11.2185 13.1216L15.0754 8.40126C15.4264 7.97172 16.0565 7.91014 16.4829 8.26372ZM11.5275 13.5219L11.53 13.5251Z"/>
</svg>
