<svg viewBox="0 0 24 24" xmlns="http://www.w3.org/2000/svg" data-title="VerifiedFill" fill="currentColor" stroke="none">
  <path fill-rule="evenodd" clip-rule="evenodd" d="M13.3077 2.19537C12.5689 1.93488 11.7643 1.93488 11.0255 2.19537L5.29856 4.21474C3.92047 4.70066 2.96818 6.01898 3.00081 7.52102C3.06817 10.6212 3.42069 13.4968 5.25258 16.4731C6.73255 18.8777 8.84191 20.7482 11.3174 21.8241L11.3228 21.8263C11.8641 22.0579 12.4692 22.0579 13.0105 21.8264L13.0158 21.8241C15.4935 20.7472 17.6043 18.8745 19.0845 16.4669C20.9157 13.4883 21.2657 10.6197 21.3325 7.52114C21.3649 6.01918 20.4128 4.70065 19.0345 4.21466L13.3077 2.19537ZM16.6197 9.68156C16.9706 9.25202 16.9095 8.61718 16.4831 8.2636C16.0568 7.91002 15.4266 7.9716 15.0757 8.40113L11.2187 13.1215L9.90034 11.4138C9.5613 10.9747 8.93309 10.8956 8.49718 11.2371C8.06128 11.5787 7.98275 12.2116 8.32179 12.6507L9.94739 14.7563C10.0941 14.9476 10.2818 15.1031 10.4964 15.2112C10.712 15.3198 10.9492 15.3778 11.1902 15.3808C11.4273 15.3836 11.6629 15.3331 11.8783 15.233C12.0936 15.1329 12.284 14.9857 12.4358 14.8021L12.4394 14.7976L16.6197 9.68156Z"/>
</svg>
