<svg viewBox="0 0 24 24" xmlns="http://www.w3.org/2000/svg" data-title="VoiceOffOutline" fill="currentColor" stroke="none">
  <path d="M18.9784 11.8001C18.3979 11.8001 17.9833 12.2167 17.9833 12.8001 17.9833 13.4667 17.8175 14.1334 17.5687 14.8001 17.3199 15.4667 16.9053 16.0501 16.4078 16.4667 15.9102 16.9667 15.3298 17.3001 14.7493 17.6334 14.086 17.8834 13.4226 17.9667 12.7592 18.0501H11.3495C11.1008 18.0501 10.9349 18.0501 10.6862 18.0501 10.1057 18.0501 9.69111 18.4667 9.60819 18.9667 9.60819 19.5501 10.0228 19.9667 10.5203 20.0501 10.6862 20.0501 10.852 20.0501 11.0179 20.0501V21.8001C11.0179 22.3834 11.4325 22.8 12.0129 22.8 12.5934 22.8 13.008 22.3834 13.008 21.8001V20.0501C13.8372 20.0501 14.6664 19.8001 15.4956 19.5501 16.4078 19.2167 17.1541 18.6334 17.8175 17.9667 18.4808 17.3001 18.9784 16.4667 19.393 15.6334 19.7247 14.7167 19.9734 13.8001 19.9734 12.8834 19.9734 12.3001 19.4759 11.8001 18.9784 11.8001ZM21.7147 3.13338C21.3001 2.71672 20.7196 2.71672 20.305 3.13338L16.4906 6.96671C16.4077 5.88338 15.9931 4.88338 15.1638 4.13338 14.3346 3.30005 13.1737 2.80005 12.0128 2.80005 10.8519 2.80005 9.77392 3.30005 8.94471 4.13338 8.11549 4.96671 7.61796 6.13338 7.61796 7.30004V12.1334C7.61796 12.8 7.7838 13.55 8.11549 14.1334 8.28133 14.3834 8.44718 14.6334 8.61302 14.8834L7.36919 16.1334C7.12042 15.8 6.87166 15.3834 6.62289 14.9667 6.29121 14.3 6.12536 13.55 6.12536 12.8 6.12536 12.2167 5.71075 11.8 5.1303 11.8 4.54985 11.8 4.13524 12.2167 4.13524 12.8 4.13524 13.8 4.384 14.8834 4.79861 15.8 5.04738 16.3834 5.46199 16.9667 5.8766 17.4667L2.31096 21.05C1.89635 21.4667 1.89635 22.05 2.31096 22.4667 2.4768 22.6333 2.72557 22.8 2.97433 22.8 3.2231 22.8 3.47186 22.7167 3.63771 22.4667L15.9101 10.1334C15.9101 10.1334 15.9101 10.1334 15.9931 10.05L21.4659 4.55005C22.1293 4.13338 22.1293 3.55005 21.7147 3.13338ZM14.5005 8.9667 10.0227 13.4667C9.93977 13.3834 9.93977 13.3 9.85685 13.2167 9.691 12.8834 9.60808 12.4667 9.60808 12.1334V7.30004C9.60808 6.63338 9.85685 6.05004 10.3544 5.55004 10.8519 5.05004 11.4324 4.80005 12.0957 4.80005 12.7591 4.80005 13.3396 5.05004 13.8371 5.55004 14.3346 6.05004 14.5834 6.63338 14.5834 7.30004V8.9667H14.5005Z"/>
  <path d="M13.4226 16.3C13.5884 16.3 13.6713 16.3 13.8372 16.2166C14.8322 15.8 15.6615 14.9667 16.0761 13.9667C16.3248 13.4667 16.0761 12.8833 15.5785 12.6333C15.081 12.3833 14.5005 12.6333 14.2518 13.1333C14.003 13.7167 13.5884 14.1333 13.008 14.3833C12.5104 14.6333 12.2617 15.2166 12.5104 15.7166C12.6763 16.05 13.0909 16.3 13.4226 16.3Z"/>
</svg>
