<svg viewBox="0 0 24 24" xmlns="http://www.w3.org/2000/svg" data-title="VoiceFill" fill="currentColor" stroke="none">
  <path d="M11.9999 2.80005C10.8076 2.80005 9.66418 3.26887 8.82111 4.10339C7.97803 4.9379 7.50439 6.06974 7.50439 7.24992V12.1063C7.50439 13.2865 7.97803 14.4183 8.82111 15.2528C9.66418 16.0873 10.8076 16.5561 11.9999 16.5561C13.1922 16.5561 14.3357 16.0873 15.1788 15.2528C16.0218 14.4183 16.4955 13.2865 16.4955 12.1063V7.24992C16.4955 6.06974 16.0218 4.9379 15.1788 4.10339C14.3357 3.26887 13.1922 2.80005 11.9999 2.80005Z"/>
  <path d="M5.98224 12.8022C5.98346 12.2604 5.54071 11.8202 4.99334 11.819C4.44596 11.8178 4.00124 12.256 4.00002 12.7978C3.99788 13.7475 4.18527 14.6882 4.55144 15.566C4.91761 16.4438 5.45534 17.2414 6.13375 17.9129C6.81217 18.5844 7.6179 19.1167 8.5047 19.4791C9.30127 19.8047 10.1491 19.9875 11.0088 20.0198V21.819C11.0088 22.3608 11.4525 22.8 11.9999 22.8C12.5473 22.8 12.991 22.3608 12.991 21.819V20.0198C13.8507 19.9875 14.6987 19.8047 15.4953 19.4791C16.3821 19.1167 17.1878 18.5844 17.8662 17.9129C18.5447 17.2414 19.0824 16.4438 19.4486 15.566C19.8147 14.6882 20.0021 13.7475 20 12.7978C19.9988 12.256 19.554 11.8178 19.0067 11.819C18.4593 11.8202 18.0165 12.2604 18.0178 12.8022C18.0193 13.4935 17.8829 14.1782 17.6164 14.8172C17.3498 15.4561 16.9584 16.0367 16.4646 16.5255C15.9708 17.0143 15.3843 17.4017 14.7388 17.6656C14.0933 17.9294 13.4015 18.0644 12.7031 18.0629L12.7009 18.0629L11.2991 18.0629L11.2969 18.0629C10.5985 18.0644 9.90674 17.9294 9.26123 17.6656C8.61572 17.4017 8.02922 17.0143 7.53539 16.5255C7.04157 16.0367 6.65016 15.4561 6.38362 14.8172C6.11708 14.1782 5.98068 13.4935 5.98224 12.8022Z"/>
</svg>
