<svg viewBox="0 0 24 24" xmlns="http://www.w3.org/2000/svg" data-title="WalkerOutline" fill="currentColor" stroke="none">
  <path d="M12.9534 7.43916H13.0114C14.4697 7.43916 15.6877 6.24799 15.7209 4.78193 15.7374 4.05723 15.4723 3.36585 14.9669 2.84107 14.4697 2.31629 13.7903 2.01642 13.0114 1.99976 11.5531 1.99976 10.3351 3.19093 10.302 4.66531 10.2688 6.16469 11.4537 7.41417 12.9451 7.44749L12.9534 7.43916ZM13.0363 3.61575C13.3263 3.61575 13.5997 3.7407 13.8069 3.95727 14.0057 4.17385 14.1217 4.44874 14.1134 4.74028 14.0969 5.3317 13.608 5.81483 12.9949 5.81483 12.39 5.79817 11.9094 5.29838 11.926 4.6903 11.9426 4.09888 12.4314 3.61575 13.0197 3.61575H13.0446 13.0363ZM16.8892 10.971 15.0911 10.3713 13.1689 8.43874C13.0694 8.33878 12.97 8.26381 12.9203 8.23049 12.8789 8.19717 12.8291 8.16385 12.7794 8.13053 12.5971 8.02225 12.3983 7.93895 12.1994 7.88897 12.1414 7.87231 12.0751 7.85565 12.0171 7.84732 11.9426 7.83899 11.8763 7.814 11.81 7.83066 11.636 7.814 11.462 7.83066 11.3128 7.85565 11.2631 7.85565 11.2217 7.87231 11.172 7.88064L8.12283 8.64699C7.60911 8.78026 7.16168 9.08847 6.87168 9.53828L5.35538 11.8207C5.04052 12.2955 4.93281 12.8619 5.04052 13.4283 5.14824 13.9864 5.47138 14.4696 5.94367 14.7861 6.29167 15.0193 6.69768 15.1443 7.12025 15.1443 7.78311 15.1443 8.39626 14.8444 8.79397 14.328 8.76911 14.6112 8.80226 14.8944 8.8934 15.1776 8.71111 15.2692 8.5454 15.4108 8.42111 15.5774L6.17567 18.5845C5.83596 19.0427 5.6951 19.6008 5.76967 20.1672 5.85253 20.7336 6.14253 21.2334 6.59825 21.5749 6.97111 21.8581 7.41025 21.9998 7.87425 21.9998 8.5454 21.9998 9.17512 21.6832 9.57283 21.1418L11.6028 18.4262 12.796 20.8169C13.1606 21.5416 13.8897 21.9998 14.7017 21.9998 15.0249 21.9998 15.3563 21.9248 15.6463 21.7748 16.16 21.5166 16.5329 21.0835 16.7152 20.5337 16.8974 19.9923 16.856 19.4092 16.5992 18.901L15.0829 15.8523C14.9834 15.6441 14.8426 15.4608 14.6851 15.2942L13.8483 14.4529 15.5386 15.0193C15.754 15.0943 15.986 15.1276 16.2097 15.1276 17.1294 15.1276 17.9332 14.5362 18.2232 13.6616 18.596 12.5454 17.9912 11.3292 16.8809 10.9627L16.8892 10.971ZM11.462 14.3446 13.55 16.4437C13.55 16.4437 13.6246 16.527 13.6494 16.577L15.1657 19.6257C15.29 19.884 15.1906 20.1922 14.9337 20.3171 14.6769 20.4421 14.362 20.3338 14.2377 20.0839L12.7794 17.1434 10.5506 14.8777C10.4346 14.7611 10.3766 14.5945 10.4097 14.4279L11.0394 10.6378 8.96797 11.1626 7.55939 13.2784C7.41025 13.5116 7.07053 13.5783 6.84682 13.42 6.60653 13.2617 6.54853 12.9369 6.70596 12.7036L8.22225 10.4212C8.29683 10.313 8.40454 10.238 8.52883 10.2047L11.578 9.43832C11.578 9.43832 11.636 9.42999 11.6691 9.42999 11.694 9.42999 11.7188 9.42999 11.7106 9.42999H11.7768C11.8431 9.45498 11.8928 9.47164 11.9343 9.49663L11.984 9.53828C11.984 9.53828 12.0254 9.56327 12.042 9.57993L14.188 11.7374 16.3837 12.5037C16.6489 12.5953 16.798 12.8869 16.7069 13.1618 16.6157 13.4283 16.3257 13.5783 16.0523 13.4866L13.782 12.7286C13.7074 12.7036 13.6329 12.662 13.5831 12.6037L12.0171 11.0293 11.4703 14.3446H11.462ZM10.2771 17.5016 8.28854 20.1672C8.12283 20.3921 7.7914 20.4337 7.56768 20.2671 7.45996 20.1838 7.38539 20.0672 7.36882 19.9256 7.35225 19.7923 7.38539 19.6507 7.46825 19.5424L9.54798 16.7603 10.2854 17.5016H10.2771Z"/>
</svg>
