<svg viewBox="0 0 24 24" xmlns="http://www.w3.org/2000/svg" data-title="WalkerFill" fill="currentColor" stroke="none">
  <path d="m17.99,10.67l-2.42-.83-2.42-2.42c-.06-.06-.13-.11-.2-.16l-.04-.03s-.06-.04-.09-.06c-.14-.08-.31-.15-.5-.19l-.13-.02s-.1,0-.16,0h-.07c-.09,0-.2,0-.31.03l-3.69.91c-.4.1-.73.34-.96.67l-1.82,2.72c-.5.75-.29,1.75.45,2.24.26.17.57.27.89.27.55,0,1.05-.27,1.35-.72l1.47-2.21.65-.16-.51,3.03c-.09.52.08,1.03.45,1.4l2.57,2.58,1.68,3.36c.27.54.84.88,1.45.88.25,0,.5-.06.72-.17.8-.4,1.12-1.37.73-2.17l-1.82-3.64c-.08-.16-.18-.3-.3-.42l-2.14-2.14.26-1.55.52.52c.18.18.39.31.63.39l2.74.91c.17.05.34.08.5.08.7,0,1.32-.44,1.54-1.1.28-.84-.18-1.76-1.03-2.04v.02Z"/>
  <path d="m9.76,16.56c-.19-.19-.44-.29-.71-.29h-.07c-.29.02-.56.17-.73.4l-2.08,2.75c-.26.35-.37.77-.31,1.19.06.43.29.81.63,1.06.28.21.61.32.97.32.52,0,1-.24,1.29-.65l1.97-2.6c.3-.4.26-.94-.09-1.3l-.89-.88h0Zm3.81-9.94c1.28,0,2.34-1.01,2.36-2.26,0-.62-.22-1.2-.65-1.65-.42-.45-.99-.71-1.6-.72h-.05c-1.24,0-2.29,1.01-2.31,2.26-.03,1.27.99,2.34,2.26,2.36h0Z"/>
</svg>
