<svg viewBox="0 0 24 24" xmlns="http://www.w3.org/2000/svg" data-title="WalkerOutline" fill="currentColor" stroke="none">
  <path d="m13.29,7.44h.06c1.46,0,2.68-1.19,2.71-2.66.02-.72-.25-1.42-.75-1.94-.5-.52-1.18-.82-1.96-.84-1.46,0-2.68,1.19-2.71,2.67-.03,1.5,1.15,2.75,2.64,2.78h0Zm.08-3.82c.29,0,.56.12.77.34.2.22.31.49.31.78-.02.59-.51,1.07-1.12,1.07-.6-.02-1.09-.52-1.07-1.12.02-.59.51-1.07,1.09-1.07h.02,0Zm3.85,7.36l-1.8-.6-1.92-1.93c-.1-.1-.2-.17-.25-.21-.04-.03-.09-.07-.14-.1-.18-.11-.38-.19-.58-.24-.06-.02-.12-.03-.18-.04-.07,0-.14-.03-.21-.02-.17-.02-.35,0-.5.02-.05,0-.09.02-.14.02l-3.05.77c-.51.13-.96.44-1.25.89l-1.52,2.28c-.31.47-.42,1.04-.31,1.61.11.56.43,1.04.9,1.36.35.23.75.36,1.18.36.66,0,1.28-.3,1.67-.82-.02.28,0,.57.1.85-.18.09-.35.23-.47.4l-2.25,3.01c-.34.46-.48,1.02-.41,1.58.08.57.37,1.07.83,1.41.37.28.81.42,1.28.42.67,0,1.3-.32,1.7-.86l2.03-2.72,1.19,2.39c.36.72,1.09,1.18,1.91,1.18.32,0,.65-.07.94-.23.51-.26.89-.69,1.07-1.24.18-.54.14-1.12-.12-1.63l-1.52-3.05c-.1-.21-.24-.39-.4-.56l-.84-.84,1.69.57c.22.07.45.11.67.11.92,0,1.72-.59,2.01-1.47.37-1.12-.23-2.33-1.34-2.7h0Zm-5.43,3.37l2.09,2.1s.07.08.1.13l1.52,3.05c.12.26.02.57-.23.69-.26.12-.57.02-.7-.23l-1.46-2.94-2.23-2.27c-.12-.12-.17-.28-.14-.45l.63-3.79-2.07.52-1.41,2.12c-.15.23-.49.3-.71.14-.24-.16-.3-.48-.14-.72l1.52-2.28c.07-.11.18-.18.31-.22l3.05-.77s.06,0,.09,0c.02,0,.05,0,.04,0h.07c.07.02.12.04.16.07l.05.04s.04.02.06.04l2.15,2.16,2.2.77c.27.09.41.38.32.66-.09.27-.38.42-.65.32l-2.27-.76c-.07-.02-.15-.07-.2-.12l-1.57-1.57-.55,3.32h0Zm-1.18,3.16l-1.99,2.67c-.17.22-.5.27-.72.1-.11-.08-.18-.2-.2-.34-.02-.13.02-.27.1-.38l2.08-2.78.74.74h0Z"/>
</svg>
