<svg viewBox="0 0 24 24" xmlns="http://www.w3.org/2000/svg" data-title="Wallet" fill="currentColor" stroke="none">
  <path d="m8.89,13.81c0,.08,0,.17.01.25,0,.08.02.16.02.24h2.93c.08,0,.15.02.22.05.07.03.13.08.18.14.05.06.08.13.09.21.01.07,0,.15-.01.22-.03.1-.09.19-.18.25-.09.06-.19.1-.3.1h-2.65c.23.5.6.93,1.07,1.24.47.3,1.02.46,1.59.45.43,0,.86-.09,1.25-.27.26-.12.5-.28.72-.47.11-.09.24-.13.38-.12.14,0,.27.07.36.17.05.05.09.11.12.18.03.07.04.14.03.21,0,.07-.02.14-.05.2-.03.06-.08.12-.13.17-.31.26-.66.48-1.04.64-.52.22-1.07.33-1.64.33-.87.01-1.72-.25-2.43-.74-.71-.49-1.23-1.19-1.49-1.99h-.82c-.13,0-.26-.05-.35-.14-.09-.09-.15-.22-.15-.35s.05-.25.15-.35c.09-.09.22-.14.35-.14h.6c0-.12-.01-.22-.02-.29,0-.07,0-.14,0-.2v-.2c0-.07.01-.17.02-.29h-.6c-.13,0-.26-.05-.35-.14-.09-.09-.15-.22-.15-.35s.05-.25.15-.35c.09-.09.22-.14.35-.14h.82c.26-.8.79-1.5,1.49-2,.71-.5,1.56-.76,2.43-.75.55,0,1.09.1,1.6.32.34.14.66.33.95.55.06.05.1.1.14.16.03.06.05.13.06.2,0,.07,0,.14-.03.21-.02.07-.06.13-.11.18-.09.1-.22.16-.35.17-.14,0-.27-.03-.38-.11-.21-.16-.44-.29-.68-.4-.37-.16-.78-.25-1.19-.25-.56,0-1.11.15-1.58.45-.47.31-.85.74-1.07,1.25h3.23c.08,0,.15.02.22.05.07.03.13.08.18.14.05.06.08.13.09.21.01.07,0,.15-.01.22-.03.1-.09.19-.18.25-.09.06-.19.1-.3.1h-3.51c0,.08-.02.16-.02.24,0,.08-.02.17-.02.25Zm12.22.2h-.45c-.13,0-.26-.05-.35-.14-.09-.09-.15-.22-.15-.34s.05-.25.15-.34c.09-.09.22-.14.35-.14h.45c.13,0,.26.05.35.14.09.09.15.22.15.34s-.05.25-.15.34c-.09.09-.22.14-.35.14Z"/>
  <path d="m21.9,11.18v-5.85c0-1.05-.86-1.95-1.93-1.95h-5l-.36-.76c-.06-.13-.15-.24-.25-.34-.11-.1-.23-.17-.37-.22-.14-.05-.28-.07-.42-.07-.14,0-.29.04-.42.1l-2.87,1.29H2c-.53.01-1.03.22-1.4.58-.37.36-.59.85-.6,1.37v14.78c0,1.05.93,1.88,2,1.88h17.96c.25,0,.51-.05.74-.14s.45-.23.63-.41c.18-.18.32-.38.42-.61.1-.23.15-.47.14-.72v-4.25c.58-.08,1.12-.36,1.5-.79.39-.43.6-.98.6-1.56s-.21-1.12-.6-1.56c-.39-.43-.92-.71-1.5-.79ZM13.56,2.99s.03,0,.04,0,.03,0,.04,0c.01,0,.02.01.03.02,0,0,.02.02.02.03l1.56,3.31H6.04l7.52-3.36ZM1.83,4.39l6.26-.02-3.46,1.55-1,.43H1.04v-1.19c0-.2.09-.4.23-.54.15-.14.35-.22.55-.23Zm19.02,15.83c0,.2-.09.4-.23.54s-.35.22-.55.23H1.83c-.21,0-.41-.08-.55-.23-.15-.14-.23-.34-.23-.54V7.33h17.64c.13,0,.26-.05.35-.14.09-.09.15-.22.15-.34s-.05-.25-.15-.34c-.09-.09-.22-.14-.35-.14h-2.32l-.93-1.97h4.5c.43,0,.85.53.85.95v1.27l.05,4.56h-1.35c-.39,0-.76.15-1.03.42-.27.27-.43.63-.43,1v1.89c0,.38.15.74.43,1,.27.27.64.42,1.03.42h1.37v4.33Zm.73-5.31h-2.1c-.12,0-.24-.05-.32-.13-.09-.08-.13-.2-.13-.31v-1.89c0-.12.05-.23.13-.31.09-.08.2-.13.32-.13h2.1c.19,0,.38.03.56.09.18.07.34.17.48.3.14.13.25.28.32.46.07.17.11.35.11.54s-.04.37-.11.54c-.07.17-.18.33-.32.46s-.3.23-.48.3c-.18.07-.37.1-.56.09h0Z"/>
</svg>
