<svg viewBox="0 0 24 24" xmlns="http://www.w3.org/2000/svg" data-title="WarningSecurityOutline" fill="currentColor" stroke="none">
  <path fill-rule="evenodd" d="m11.52,4.1c.31-.11.65-.11.96,0l5.73,2.02c.59.21.97.76.96,1.36-.06,2.96-.39,5.4-1.95,7.93-1.28,2.08-3.08,3.66-5.16,4.57-.04.02-.08.02-.12,0-2.08-.9-3.88-2.49-5.15-4.56-1.55-2.53-1.89-4.97-1.95-7.93-.01-.6.37-1.15.96-1.36l5.73-2.02Zm1.62-1.9c-.74-.26-1.54-.26-2.28,0l-5.73,2.02c-1.38.49-2.33,1.8-2.3,3.31.07,3.1.42,5.98,2.25,8.95,1.48,2.4,3.59,4.27,6.06,5.35h0c.54.23,1.15.23,1.69,0h0c2.48-1.08,4.59-2.95,6.07-5.36,1.83-2.98,2.18-5.85,2.25-8.95.03-1.5-.92-2.82-2.3-3.31l-5.73-2.02Zm-2.23,10.32c0,.56.45,1.01,1,1.01s1-.45,1-1.01v-5.04c0-.56-.45-1.01-1-1.01s-1,.45-1,1.01v5.04Zm.99,4.53c.55,0,1-.45,1-1.01s-.45-1.01-1-1.01-1,.45-1,1.01.45,1.01,1,1.01Z"/>
</svg>
