<svg viewBox="0 0 24 24" xmlns="http://www.w3.org/2000/svg" data-title="WarningSecurityOutline" fill="currentColor" stroke="none">
  <path fill-rule="evenodd" clip-rule="evenodd" d="M11.6862 4.09697C11.9972 3.98729 12.336 3.98729 12.6471 4.09697L18.3739 6.11626C18.9644 6.32447 19.3461 6.87837 19.3332 7.47735C19.2693 10.4363 18.9386 12.878 17.3843 15.4061C16.1079 17.4823 14.3066 19.0679 12.2274 19.9725C12.1866 19.9895 12.1466 19.9895 12.1058 19.9725C10.0284 19.0687 8.22845 17.485 6.95217 15.4114C5.39773 12.8859 5.06447 10.4374 5.00014 7.47693C4.98714 6.8783 5.36873 6.32454 5.9592 6.11634L11.6862 4.09697ZM13.3077 2.19537C12.5689 1.93488 11.7643 1.93488 11.0255 2.19537L5.29856 4.21474C3.92047 4.70066 2.96818 6.01898 3.00081 7.52102C3.06817 10.6212 3.42069 13.4968 5.25258 16.4731C6.73255 18.8777 8.84192 20.7481 11.3174 21.8241L11.3174 21.8241L11.3228 21.8264C11.8641 22.0579 12.4692 22.0579 13.0105 21.8264L13.0105 21.8264L13.0158 21.8241C15.4935 20.7472 17.6043 18.8745 19.0845 16.4669C20.9157 13.4883 21.2657 10.6197 21.3325 7.52114C21.3649 6.01918 20.4128 4.70066 19.0345 4.21466L13.3077 2.19537ZM11.075 12.514C11.075 13.0704 11.5227 13.5214 12.0749 13.5214C12.6271 13.5214 13.0748 13.0704 13.0748 12.514L13.0748 7.47728C13.0748 6.92093 12.6271 6.46993 12.0749 6.46993C11.5227 6.46993 11.075 6.92093 11.075 7.47728V12.514ZM12.0682 17.0471C12.6205 17.0471 13.0681 16.5961 13.0681 16.0398C13.0681 15.4834 12.6205 15.0324 12.0682 15.0324C11.516 15.0324 11.0683 15.4834 11.0683 16.0398C11.0683 16.5961 11.516 17.0471 12.0682 17.0471Z"/>
</svg>
