<svg viewBox="0 0 24 24" xmlns="http://www.w3.org/2000/svg" data-title="Weight" fill="currentColor" stroke="none">
  <path d="M18.4 17.9001H5.59998C5.39998 17.9001 5.29998 17.8001 5.19998 17.7001C5.09998 17.6001 5.09998 17.4001 5.09998 17.2001L7.79998 9.0001C7.99998 8.9001 8.09998 8.7001 8.39998 8.7001H9.49998C9.29998 8.3001 9.19998 7.9001 9.19998 7.4001C9.19998 5.8001 10.5 4.6001 12 4.6001C13.5 4.6001 14.8 5.9001 14.8 7.4001C14.8 7.9001 14.7 8.3001 14.5 8.7001H15.6C15.8 8.7001 16 8.8001 16.1 9.0001L18.8 17.2001C18.9 17.4001 18.8 17.5001 18.7 17.7001C18.7 17.8001 18.5 17.9001 18.4 17.9001ZM6.29998 16.9001H17.7L15.3 9.7001H13.5C13.2 9.7001 13.1 9.6001 13 9.4001C12.9 9.2001 13 9.0001 13.1 8.8001C13.6 8.5001 13.8 8.0001 13.8 7.4001C13.8 6.4001 13 5.6001 12 5.6001C11 5.6001 10.2 6.4001 10.2 7.4001C10.2 8.0001 10.5 8.5001 10.9 8.8001C11 9.0001 11.1 9.2001 11 9.4001C10.9 9.6001 10.8 9.7001 10.5 9.7001H8.69998L6.29998 16.9001ZM12 6.5001C12.5 6.5001 13 6.9001 13 7.5001C13 8.0001 12.6 8.5001 12 8.5001C11.4 8.5001 11 8.0001 11 7.4001C11 6.9001 11.5 6.5001 12 6.5001Z"/>
  <path d="M9 15.1473V12H9.80321V13.3705H9.81358L11.3319 12H12.2958L10.5961 13.5045L12.3683 15.1473H11.3941L9.81358 13.7098H9.80321V15.1473H9Z"/>
  <path d="M13.6423 16C13.397 16 13.1673 15.9777 12.9531 15.933C12.7424 15.8884 12.5575 15.8185 12.3986 15.7232L12.6111 15.2634C12.7493 15.3378 12.9047 15.3943 13.0775 15.433C13.2537 15.4747 13.4195 15.4955 13.5749 15.4955C14.0171 15.4955 14.2382 15.3199 14.2382 14.9687V14.7188C14.1692 14.8318 14.0603 14.9226 13.9118 14.9911C13.7632 15.0595 13.6009 15.0937 13.4247 15.0937C13.1967 15.0937 12.998 15.0491 12.8287 14.9598C12.6595 14.8676 12.5282 14.7396 12.4349 14.5759C12.3416 14.4122 12.295 14.2202 12.295 14C12.295 13.7827 12.3416 13.5923 12.4349 13.4286C12.5282 13.2649 12.6595 13.1384 12.8287 13.0491C12.998 12.9568 13.1967 12.9107 13.4247 12.9107C13.6078 12.9107 13.7719 12.9449 13.917 13.0134C14.0621 13.0818 14.1692 13.1726 14.2382 13.2857V12.9554H15V14.8929C15 15.2619 14.8843 15.5387 14.6528 15.7232C14.4213 15.9077 14.0845 16 13.6423 16ZM13.6579 14.5893C13.8306 14.5893 13.9688 14.5372 14.0724 14.433C14.1795 14.3289 14.2331 14.1845 14.2331 14C14.2331 13.8155 14.1795 13.6726 14.0724 13.5714C13.9688 13.4673 13.8306 13.4152 13.6579 13.4152C13.4817 13.4152 13.3418 13.4673 13.2381 13.5714C13.1345 13.6726 13.0827 13.8155 13.0827 14C13.0827 14.1845 13.1345 14.3289 13.2381 14.433C13.3418 14.5372 13.4817 14.5893 13.6579 14.5893Z"/>
</svg>
