<svg viewBox="0 0 24 24" xmlns="http://www.w3.org/2000/svg" data-title="Weight" fill="currentColor" stroke="none">
  <path d="m18.43,18.65H5.63c-.2,0-.3-.1-.4-.2-.1-.1-.1-.3-.1-.5l2.7-8.2c.2-.1.3-.3.6-.3h1.1c-.2-.4-.3-.8-.3-1.3,0-1.6,1.3-2.8,2.8-2.8s2.8,1.3,2.8,2.8c0,.5-.1.9-.3,1.3h1.1c.2,0,.4.1.5.3l2.7,8.2c.1.2,0,.3-.1.5,0,.1-.2.2-.3.2Zm-12.1-1h11.4l-2.4-7.2h-1.8c-.3,0-.4-.1-.5-.3s0-.4.1-.6c.5-.3.7-.8.7-1.4,0-1-.8-1.8-1.8-1.8s-1.8.8-1.8,1.8c0,.6.3,1.1.7,1.4.1.2.2.4.1.6s-.2.3-.5.3h-1.8l-2.4,7.2Zm5.7-10.4c.5,0,1,.4,1,1,0,.5-.4,1-1,1s-1-.5-1-1.1c0-.5.5-.9,1-.9Z"/>
  <path d="m9.03,15.9v-3.15h.8v1.37h.01l1.52-1.37h.96l-1.7,1.5,1.77,1.64h-.97l-1.58-1.44h-.01v1.44h-.8Z"/>
  <path d="m13.67,16.75c-.25,0-.47-.02-.69-.07-.21-.04-.4-.11-.55-.21l.21-.46c.14.07.29.13.47.17.18.04.34.06.5.06.44,0,.66-.18.66-.53v-.25c-.07.11-.18.2-.33.27-.15.07-.31.1-.49.1-.23,0-.43-.04-.6-.13-.17-.09-.3-.22-.39-.38s-.14-.36-.14-.58.05-.41.14-.57.22-.29.39-.38c.17-.09.37-.14.6-.14.18,0,.35.03.49.1.15.07.25.16.32.27v-.33h.76v1.94c0,.37-.12.65-.35.83-.23.18-.57.28-1.01.28Zm.02-1.41c.17,0,.31-.05.41-.16.11-.1.16-.25.16-.43s-.05-.33-.16-.43c-.1-.1-.24-.16-.41-.16s-.32.05-.42.16c-.1.1-.16.24-.16.43s.05.33.16.43c.1.1.24.16.42.16Z"/>
</svg>
