<svg viewBox="0 0 24 24" xmlns="http://www.w3.org/2000/svg" data-title="Welcome" fill="currentColor" stroke="none">
  <g>
    <path fill-rule="evenodd" clip-rule="evenodd" d="M17.2591 19.4312H5.74122V19.0299C5.74122 18.6701 6.02363 18.3772 6.37052 18.3772H16.6305C16.9774 18.3772 17.2591 18.6701 17.2591 19.0299V19.4312ZM7.79811 17.6084H15.2022V17.0726H7.79811V17.6084ZM7.05763 14.9607C7.05763 12.4199 9.05078 10.3527 11.5005 10.3527C13.9503 10.3527 15.9434 12.4199 15.9434 14.9607V16.3038H7.05763V14.9607ZM11.5005 7.96873C11.8808 7.96873 12.2084 8.20705 12.3514 8.54685H10.6489C10.7927 8.20705 11.1203 7.96873 11.5005 7.96873ZM16.6305 17.6084H15.9434V17.0726H16.314C16.5186 17.0726 16.6846 16.9004 16.6846 16.6882V14.9607C16.6846 12.1255 14.5566 9.80226 11.8711 9.60314V9.31562H12.7991C13.0045 9.31562 13.1698 9.14419 13.1698 8.93123C13.1698 7.97641 12.4211 7.19995 11.5005 7.19995C10.5799 7.19995 9.83055 7.97641 9.83055 8.93123C9.83055 9.14419 9.99658 9.31562 10.2012 9.31562H11.1299V9.60314C8.44446 9.80226 6.31641 12.1255 6.31641 14.9607V16.6882C6.31641 16.9004 6.4817 17.0726 6.68702 17.0726H7.05689V17.6084H6.37052C5.61521 17.6084 5 18.2457 5 19.0299V19.8156C5 20.0277 5.16603 20.2 5.37061 20.2H17.6297C17.8343 20.2 18.0003 20.0277 18.0003 19.8156V19.0299C18.0003 18.2457 17.3858 17.6084 16.6305 17.6084Z"/>
  </g>
  <path fill-rule="evenodd" clip-rule="evenodd" d="M11.5 6.19995C11.776 6.19995 12 6.03452 12 5.83067V4.56923C12 4.36539 11.776 4.19995 11.5 4.19995 11.224 4.19995 11 4.36539 11 4.56923V5.83067C11 6.03452 11.224 6.19995 11.5 6.19995ZM13.4532 7.19995C13.5692 7.19995 13.6852 7.15557 13.774 7.06772L14.8675 5.97364C15.0442 5.79612 15.0442 5.50993 14.8675 5.33241 14.6908 5.1558 14.4036 5.1558 14.227 5.33241L13.1325 6.42649C12.9558 6.604 12.9558 6.8902 13.1325 7.06772 13.2213 7.15557 13.3373 7.19995 13.4532 7.19995ZM9.22695 7.06766C9.31574 7.15646 9.43171 7.19995 9.54768 7.19995 9.66274 7.19995 9.77871 7.15646 9.8675 7.06766 10.0442 6.89097 10.0442 6.60373 9.8675 6.42704L8.77395 5.33247C8.59638 5.15578 8.31008 5.15578 8.1325 5.33247 7.95583 5.50916 7.95583 5.79639 8.1325 5.97309L9.22695 7.06766Z"/>
</svg>
