<svg viewBox="0 0 24 24" xmlns="http://www.w3.org/2000/svg" data-title="Whatsapp" fill="currentColor" stroke="none">
  <path fill-rule="evenodd" clip-rule="evenodd" d="M12.0402 2.3999C6.55276 2.3999 2.0804 6.8499 2.0804 12.3099C2.0804 14.0599 2.54271 15.7599 3.40704 17.2599L2 22.3999L7.27638 21.0199C8.73367 21.8099 10.3719 22.2299 12.0402 22.2299C17.5276 22.2299 22 17.7799 22 12.3199C22 9.6699 20.9648 7.1799 19.0854 5.3099C17.206 3.4299 14.7035 2.3999 12.0402 2.3999ZM12.0101 4.06657C14.235 4.06657 16.3184 4.93631 17.896 6.51398C19.4636 8.09165 20.3333 10.1851 20.3333 12.41C20.3333 17.0014 16.5914 20.7332 12 20.7332C10.5032 20.7332 9.03681 20.3388 7.76254 19.5702L7.45914 19.3983L4.3038 20.2276L5.1432 17.1531L4.94094 16.8295C4.11165 15.5249 3.66667 13.9776 3.66667 12.3999C3.67678 7.80848 7.40858 4.06657 12.0101 4.06657ZM8.51868 8.23324C8.35987 8.23324 8.09186 8.29209 7.86356 8.5373C7.64519 8.78251 7 9.38083 7 10.5677C7 11.7643 7.88342 12.9119 7.9926 13.0786C8.13157 13.2454 9.73958 15.6975 12.2112 16.7372C12.7968 17.002 13.2534 17.1491 13.6107 17.257C14.1964 17.4434 14.7324 17.414 15.1592 17.3551C15.6356 17.2865 16.6084 16.7666 16.8168 16.1977C17.0253 15.6288 17.0253 15.1482 16.9657 15.0403C16.8963 14.9422 16.7374 14.8834 16.4893 14.7755C16.2411 14.6382 15.0302 14.0497 14.8118 13.9712C14.5835 13.8927 14.4445 13.8535 14.2559 14.0889C14.0971 14.3341 13.6207 14.8834 13.4817 15.0403C13.3328 15.2071 13.1938 15.2267 12.9556 15.109C12.6975 14.9815 11.9035 14.7264 10.9704 13.9025C10.2359 13.2552 9.74951 12.4607 9.60062 12.2155C9.48151 11.9801 9.59069 11.8329 9.70981 11.7251C9.81899 11.6172 9.97781 11.4406 10.0771 11.2935C10.2061 11.1562 10.2458 11.0483 10.3252 10.8913C10.4046 10.7246 10.3649 10.5873 10.3054 10.4696C10.2458 10.3617 9.74951 9.14542 9.54106 8.66481C9.34254 8.194 9.14402 8.25285 8.98521 8.24304C8.84624 8.24304 8.68743 8.23324 8.51868 8.23324Z"/>
</svg>
