<svg viewBox="0 0 24 24" xmlns="http://www.w3.org/2000/svg" data-title="Whatsapp" fill="currentColor" stroke="none">
  <path fill-rule="evenodd" d="m12.04,2C6.55,2,2.08,6.45,2.08,11.91c0,1.75.46,3.45,1.33,4.95l-1.41,5.14,5.28-1.38c1.46.79,3.1,1.21,4.76,1.21,5.49,0,9.96-4.45,9.96-9.91,0-2.65-1.04-5.14-2.91-7.01-1.88-1.88-4.38-2.91-7.05-2.91Zm-.03,1.67c2.22,0,4.31.87,5.89,2.45,1.57,1.58,2.44,3.67,2.44,5.9,0,4.59-3.74,8.32-8.33,8.32-1.5,0-2.96-.39-4.24-1.16l-.3-.17-3.16.83.84-3.07-.2-.32c-.83-1.3-1.27-2.85-1.27-4.43.01-4.59,3.74-8.33,8.34-8.33Zm-3.49,4.17c-.16,0-.43.06-.66.3-.22.25-.86.84-.86,2.03s.88,2.34.99,2.51c.14.17,1.75,2.62,4.22,3.66.59.26,1.04.41,1.4.52.59.19,1.12.16,1.55.1.48-.07,1.45-.59,1.66-1.16.21-.57.21-1.05.15-1.16-.07-.1-.23-.16-.48-.26-.25-.14-1.46-.73-1.68-.8-.23-.08-.37-.12-.56.12-.16.25-.64.79-.77.95-.15.17-.29.19-.53.07-.26-.13-1.05-.38-1.99-1.21-.73-.65-1.22-1.44-1.37-1.69-.12-.24,0-.38.11-.49.11-.11.27-.28.37-.43.13-.14.17-.25.25-.4.08-.17.04-.3-.02-.42-.06-.11-.56-1.32-.76-1.8-.2-.47-.4-.41-.56-.42-.14,0-.3,0-.47,0Z"/>
</svg>
