<svg viewBox="0 0 24 24" xmlns="http://www.w3.org/2000/svg" data-title="WheelRim" fill="currentColor" stroke="none">
  <path d="m12,12.42c-.23,0-.42-.19-.42-.42s.19-.42.42-.42.42.19.42.42-.19.42-.42.42Z"/>
  <path d="m12,18.99c-.22,0-.45,0-.68-.04-1.86-.18-3.54-1.08-4.73-2.52-1.18-1.44-1.74-3.26-1.56-5.11.35-3.61,3.34-6.32,6.96-6.32.22,0,.45,0,.68.04,1.86.18,3.54,1.08,4.73,2.52,1.19,1.44,1.74,3.26,1.56,5.12-.35,3.61-3.35,6.32-6.96,6.32h0Zm0-13.16c-3.19,0-5.82,2.39-6.13,5.57-.16,1.63.33,3.24,1.37,4.51,1.05,1.27,2.52,2.06,4.16,2.22.2.02.4.03.6.03,3.19,0,5.82-2.39,6.13-5.56.16-1.63-.33-3.24-1.37-4.5-1.05-1.27-2.52-2.06-4.16-2.22-.2-.02-.4-.03-.6-.03v-.02Z"/>
  <path d="M14.71 10.74c-1.38 0-2.5-1.13-2.5-2.52 0-.4.1-.8.29-1.17.07-.14.22-.22.38-.22 1.6.29 2.94 1.26 3.71 2.65.09.16.06.36-.06.49-.48.49-1.11.77-1.8.77h0Zm-1.63-2.81c-.02.1-.03.19-.03.29 0 .92.74 1.68 1.66 1.68.28 0 .55-.07.79-.2l.18-.1-.12-.16c-.55-.78-1.36-1.36-2.25-1.65l-.2-.06-.04.21ZM9.28 10.74c-.27 0-.54-.04-.8-.13-.39-.13-.73-.34-1.01-.64-.11-.12-.14-.28-.1-.42.78-1.43 2.12-2.39 3.68-2.67h.03c.22 0 .35.08.42.22.32.61.38 1.3.16 1.95-.34 1.02-1.29 1.7-2.38 1.7Zm-.8-1.04c.08.04.17.08.27.12.17.05.35.09.54.09.72 0 1.36-.46 1.59-1.13.09-.26.11-.54.05-.81l-.04-.2-.19.06c-.92.28-1.72.85-2.28 1.61l-.12.17.18.1v-.02ZM8.42 15.65c-.09 0-.18-.03-.25-.09-1.09-1.2-1.57-2.79-1.32-4.36.03-.18.17-.32.35-.35.13-.02.26-.03.39-.03.55 0 1.07.18 1.51.51.53.4.86 1 .95 1.66.08.66-.1 1.33-.5 1.86-.25.32-.57.57-.93.74-.05.03-.12.04-.18.04v.02Zm-.8-3.79c-.04.95.24 1.9.78 2.68l.12.17.15-.14c.07-.06.13-.13.2-.22.57-.74.43-1.78-.3-2.34-.22-.17-.48-.28-.74-.32l-.2-.03v.2h0ZM15.35 15.84c-.07 0-.13-.02-.2-.05-.6-.32-1.04-.87-1.22-1.52-.18-.65-.09-1.32.24-1.9.33-.58.87-1 1.52-1.18.22-.06.45-.09.67-.09.17 0 .35.02.52.05.15.04.28.14.31.3.15 1.61-.42 3.17-1.56 4.28-.08.07-.18.12-.29.12h0Zm.85-3.9c-.1 0-.19.03-.29.05-.43.12-.79.39-1.01.79-.22.39-.28.83-.16 1.26.07.27.22.51.4.71l.14.14.13-.15c.6-.74.95-1.67.99-2.61v-.21l-.2.02h0ZM12.01 17.22c-.81 0-1.59-.19-2.32-.55-.16-.08-.25-.26-.22-.44.11-.68.47-1.26 1.03-1.66.42-.3.92-.45 1.43-.45.83 0 1.6.4 2.06 1.08.23.33.38.71.43 1.11.02.15-.04.3-.18.39-.73.34-1.47.5-2.23.5h0Zm-1.46-1.09c.48.17.98.26 1.48.26.45 0 .89-.07 1.31-.2l.2-.06-.09-.19c-.04-.09-.09-.17-.14-.25-.31-.45-.83-.72-1.38-.72-.34 0-.66.1-.94.3-.22.16-.41.37-.53.62l-.09.18.19.07h0Z"/>
</svg>
