<svg viewBox="0 0 24 24" xmlns="http://www.w3.org/2000/svg" data-title="Wifi" fill="currentColor" stroke="none">
  <path fill-rule="evenodd" d="M12.37 16.56c-.37 0-.67.2-.67.44 0 .24.3.44.67.44s.67-.2.67-.44C13.04 16.76 12.74 16.56 12.37 16.56zM12.37 18c-.83 0-1.5-.45-1.5-1 0-.55.67-1 1.5-1s1.5.45 1.5 1C13.87 17.55 13.2 18 12.37 18zM15.03 14c-.08 0-.17-.03-.24-.11-.66-.71-1.52-1.1-2.43-1.1-.9 0-1.75.38-2.41 1.08-.14.15-.36.14-.49-.02-.13-.16-.12-.41.02-.56C10.27 12.46 11.3 12 12.37 12c1.08 0 2.11.47 2.9 1.31.14.15.15.4.02.56C15.21 13.96 15.12 14 15.03 14z"/>
  <path fill-rule="evenodd" d="M17.51,12c-0.09,0-0.19-0.04-0.26-0.11c-1.29-1.38-3.03-2.13-4.88-2.13c-1.85,0-3.58,0.75-4.87,2.12
		c-0.14,0.15-0.37,0.15-0.51,0.01c-0.14-0.15-0.15-0.38-0.01-0.53C8.41,9.83,10.32,9,12.37,9c2.05,0,3.97,0.84,5.41,2.36
		c0.14,0.15,0.14,0.39-0.01,0.53C17.69,11.96,17.6,12,17.51,12z"/>
  <path fill-rule="evenodd" d="M19.52,10c-0.11,0-0.22-0.05-0.29-0.13c-1.64-2.03-4.14-3.2-6.86-3.2c-2.72,0-5.21,1.16-6.85,3.18
			C5.4,10,5.17,10.03,5.02,9.92C4.86,9.8,4.83,9.6,4.95,9.45C6.72,7.26,9.43,6,12.37,6c2.95,0,5.66,1.26,7.43,3.47
			c0.12,0.15,0.09,0.36-0.07,0.47C19.67,9.98,19.59,10,19.52,10z"/>
</svg>
