<svg viewBox="0 0 24 24" xmlns="http://www.w3.org/2000/svg" data-title="LikeOutline" fill="currentColor" stroke="none">
  <path d="m16.28,3c-1.72,0-3.24.83-4.28,2.11-1.04-1.28-2.57-2.11-4.28-2.11-3.21,0-5.72,2.85-5.72,6.24,0,2.77,1.41,4.75,1.97,5.51,1.87,2.47,4.38,4.11,6.67,5.6h.02c.25.17.49.33.73.49.32.21.73.22,1.06.02.21-.13.43-.26.63-.39h.02c2.39-1.48,5.02-3.1,6.95-5.68.64-.86,1.95-2.83,1.95-5.54,0-3.4-2.51-6.23-5.72-6.23h0Zm-8.57,2.12c1.46,0,2.76.96,3.35,2.39.16.38.52.64.93.64s.77-.25.93-.64c.6-1.44,1.9-2.39,3.36-2.39,1.99,0,3.7,1.79,3.69,4.13,0,2-.98,3.5-1.52,4.24-1.67,2.25-3.98,3.67-6.43,5.19l-.07.04-.21-.13c-2.33-1.52-4.54-2.97-6.18-5.14-.51-.67-1.54-2.18-1.54-4.2,0-2.33,1.7-4.13,3.7-4.13h0Z"/>
</svg>
