<svg width="24" height="25" viewBox="0 0 24 25" fill="none" xmlns="http://www.w3.org/2000/svg">
<path fill-rule="evenodd" clip-rule="evenodd" d="M10.8317 5.73873C10.1934 5.73873 9.67414 6.20673 9.67414 6.78306C9.67414 7.35867 10.1934 7.82667 10.8317 7.82667C11.47 7.82667 11.9892 7.35867 11.9892 6.78306C11.9892 6.20673 11.47 5.73873 10.8317 5.73873ZM10.8317 5.19995C11.7991 5.19995 12.5865 5.9099 12.5865 6.78306C12.5865 7.65551 11.7991 8.36545 10.8317 8.36545C9.86423 8.36545 9.07682 7.65551 9.07682 6.78306C9.07682 5.9099 9.86423 5.19995 10.8317 5.19995ZM17.0622 6.92101C15.9278 6.92101 15.0067 7.72123 14.9658 8.74317C14.9611 8.84862 14.8885 8.94251 14.7803 8.98223C14.1359 9.22128 13.7201 9.78101 13.7201 10.4086C13.7201 11.2587 14.4859 11.9506 15.4286 11.9506C15.9471 11.9506 16.4394 11.7353 16.7631 11.3706L16.7624 10.9431L15.7965 10.4996C15.6489 10.4325 15.5901 10.27 15.6651 10.1371C15.7408 10.0049 15.9201 9.95145 16.0669 10.0193L16.7624 10.3386L16.7631 8.84067C16.7631 8.6919 16.8968 8.57128 17.0622 8.57128C17.226 8.57128 17.3597 8.6919 17.3597 8.84067V9.4199L18.0567 9.10067C18.2027 9.03278 18.3828 9.08551 18.4577 9.2184C18.5327 9.35056 18.474 9.51306 18.3264 9.58095L17.3597 10.0244V11.3706L17.3666 11.3786C17.6904 11.7382 18.1795 11.9506 18.6942 11.9506C19.6369 11.9506 20.4027 11.2587 20.4027 10.4086C20.4027 9.78101 19.987 9.22128 19.3425 8.98223C19.2343 8.94251 19.1617 8.84862 19.157 8.74317C19.1161 7.72123 18.195 6.92101 17.0622 6.92101ZM7.34823 9.65678C6.41091 9.65678 5.64823 10.3451 5.64823 11.1908C5.64823 11.2507 5.65286 11.3114 5.66136 11.3771C5.67682 11.4905 5.61036 11.601 5.496 11.6516C4.94118 11.895 4.59732 12.3911 4.59732 12.9465C4.59732 13.6023 5.08723 14.175 5.78886 14.3397C5.88005 14.3613 5.95423 14.4206 5.98977 14.4993C6.17832 14.9146 6.57705 15.2078 7.04995 15.2952L7.04918 14.6394L6.06395 13.8775C5.93877 13.7807 5.92409 13.6102 6.0315 13.4968C6.13891 13.3842 6.32745 13.3712 6.45264 13.468L7.04918 13.9295V11.8227C7.04918 11.674 7.18364 11.5533 7.34823 11.5533C7.51359 11.5533 7.6465 11.674 7.6465 11.8227V12.935L8.3775 12.3882C8.50423 12.2929 8.69277 12.3095 8.79786 12.4236C8.90295 12.5377 8.88595 12.7075 8.75845 12.8028L7.6465 13.6348L7.64727 15.2952C8.12018 15.2078 8.51891 14.9146 8.70668 14.4993C8.74223 14.4206 8.81641 14.3613 8.90759 14.3397C9.60923 14.175 10.0991 13.6023 10.0991 12.9465C10.0991 12.3911 9.7545 11.895 9.20123 11.6516C9.08609 11.601 9.01964 11.4905 9.03509 11.3771C9.04436 11.3114 9.04823 11.2507 9.04823 11.1908C9.04823 10.3451 8.28555 9.65678 7.34823 9.65678ZM16.6975 15.5545C16.2987 15.5545 15.9742 15.8462 15.9742 16.2059L15.975 16.2211C15.9765 16.3041 15.9355 16.3836 15.8645 16.4363C15.7926 16.4883 15.6983 16.5078 15.6087 16.489C15.567 16.4803 15.5245 16.4753 15.4835 16.4753C15.1852 16.4753 14.9418 16.6941 14.9403 16.9628V16.9686C14.9418 17.0466 14.9047 17.1217 14.8406 17.173C14.7757 17.225 14.6899 17.2495 14.6041 17.2394C14.5794 17.2365 14.5562 17.2351 14.5338 17.2351C14.2587 17.2351 14.0308 17.4207 13.996 17.6612H19.3989C19.3649 17.4207 19.1362 17.2351 18.8611 17.2351C18.8379 17.2351 18.8155 17.2365 18.7908 17.2394C18.705 17.2495 18.6192 17.2249 18.5543 17.1737C18.4902 17.1224 18.4531 17.0473 18.4539 16.97V16.9621C18.4523 16.6941 18.2097 16.4753 17.9114 16.4753C17.8697 16.4753 17.828 16.4803 17.787 16.489C17.6974 16.5078 17.6023 16.4883 17.5305 16.4363C17.4586 16.3836 17.4176 16.3041 17.42 16.2211V16.2052C17.42 15.8462 17.0954 15.5545 16.6975 15.5545ZM13.3276 14.4531C12.6947 14.4531 12.1801 14.9182 12.1801 15.4895L12.1809 15.5118C12.1832 15.5949 12.1422 15.6751 12.0704 15.7271C11.9985 15.7798 11.9042 15.7993 11.8138 15.7798C11.7466 15.7661 11.6778 15.7588 11.609 15.7588C11.1176 15.7588 10.7181 16.1185 10.7165 16.5612L10.7173 16.5699C10.7181 16.6479 10.681 16.723 10.6169 16.7743C10.552 16.827 10.4654 16.8501 10.3804 16.84C10.3402 16.8357 10.3016 16.8335 10.2653 16.8335C9.77227 16.8335 9.372 17.1946 9.372 17.6388C9.372 17.646 9.372 17.6532 9.37277 17.6612H13.3956L13.3964 17.654C13.4335 17.1657 13.8492 16.77 14.3808 16.7057C14.5021 16.2846 14.914 15.9676 15.4109 15.9387C15.4194 15.9055 15.4286 15.873 15.441 15.8405C15.3205 15.7863 15.1868 15.7588 15.0469 15.7588C14.9789 15.7588 14.9094 15.7661 14.8421 15.7798C14.7525 15.7993 14.6575 15.7791 14.5856 15.7271C14.5145 15.6751 14.4735 15.5949 14.4759 15.5118L14.4766 15.4895C14.4766 14.9182 13.9612 14.4531 13.3276 14.4531ZM17.0622 6.38223C17.7638 6.38223 18.4284 6.6249 18.9337 7.06473C19.392 7.46484 19.6748 7.98845 19.7412 8.55467C20.5116 8.90856 21 9.61851 21 10.4086C21 11.5562 19.9653 12.4893 18.6942 12.4893C18.2112 12.4893 17.7453 12.3507 17.3597 12.1037L17.3605 15.176C17.6711 15.34 17.9014 15.6144 17.984 15.9387C18.4809 15.9676 18.8928 16.2846 19.0149 16.7057C19.548 16.77 19.9653 17.1693 19.9985 17.6612H20.5526C20.7172 17.6612 20.8509 17.7818 20.8509 17.9306C20.8509 18.0793 20.7172 18.2 20.5526 18.2H4.69468C4.52932 18.2 4.39564 18.0793 4.39564 17.9306C4.39564 17.7818 4.52932 17.6612 4.69468 17.6612H7.04918V15.8426C6.37923 15.7552 5.79968 15.3782 5.49755 14.8236C4.60891 14.5563 4 13.8023 4 12.9465C4 12.2467 4.39873 11.614 5.05245 11.2565C5.05168 11.2341 5.05168 11.2125 5.05168 11.1908C5.05168 10.0482 6.08173 9.11801 7.34823 9.11801C8.61473 9.11801 9.64555 10.0482 9.64555 11.1908C9.64555 11.2125 9.64477 11.2341 9.644 11.2565C10.2985 11.614 10.6965 12.2467 10.6965 12.9465C10.6965 13.8023 10.0883 14.5563 9.19891 14.8236C8.89755 15.3782 8.31723 15.7552 7.64727 15.8426L7.6465 17.6612H8.77468V17.6388C8.77468 16.9332 9.38127 16.3518 10.1486 16.2983C10.2854 15.6845 10.8881 15.2201 11.6083 15.2201C11.7505 14.4798 12.4675 13.9143 13.3276 13.9143C14.1892 13.9143 14.9055 14.4798 15.0477 15.2201C15.2926 15.2201 15.5345 15.275 15.7485 15.3782C15.9896 15.1543 16.325 15.0157 16.6975 15.0157L16.7624 15.0171L16.7631 12.1044C16.3775 12.3507 15.9116 12.4893 15.4286 12.4893C14.1575 12.4893 13.1228 11.5562 13.1228 10.4086C13.1228 9.61851 13.6112 8.90856 14.3824 8.55467C14.4488 7.98845 14.7309 7.46484 15.1899 7.06473C15.6945 6.6249 16.359 6.38223 17.0622 6.38223Z" fill="#4A4950"/>
</svg>
