<svg width="24" height="25" viewBox="0 0 24 25" fill="none" xmlns="http://www.w3.org/2000/svg">
<path fill-rule="evenodd" clip-rule="evenodd" d="M15.2114 6.19997C15.7108 6.19743 16.1665 6.47538 16.3992 6.916L16.4489 7.02051L17.5382 9.6211L18.2793 8.92731C18.3303 8.87953 18.3933 8.84766 18.4608 8.83472L18.5294 8.82819H19.6324C19.8354 8.82819 20 8.99439 20 9.1994C20 9.38164 19.8699 9.5332 19.6984 9.56463L19.6324 9.57061H18.6735L18.1802 10.0312C18.3635 10.0818 18.5592 10.153 18.7563 10.2498C19.523 10.6264 20 11.2749 20 12.2162V15.5382C20 15.7322 19.8426 15.8894 19.6485 15.8894L19.25 15.8892V16.8898C19.25 17.5789 18.6409 18.1438 17.8672 18.196L17.75 18.2C16.9216 18.2 16.25 17.6134 16.25 16.8898V15.8892H8.75V16.8898C8.75 17.5789 8.14086 18.1438 7.36722 18.196L7.25 18.2C6.42157 18.2 5.75 17.6134 5.75 16.8898V15.8892L5.35145 15.8894C5.17892 15.8894 5.03542 15.7652 5.00566 15.6014L5 15.5382V12.2162C5 11.2742 5.48017 10.6258 6.25159 10.2494C6.44612 10.1544 6.63925 10.0843 6.82226 10.0338L6.32574 9.57061H5.36765C5.18716 9.57061 5.03705 9.43929 5.00592 9.26612L5 9.1994C5 9.01716 5.13006 8.86559 5.30156 8.83416L5.36765 8.82818H6.47059C6.54016 8.82818 6.60781 8.8481 6.66597 8.88494L6.72069 8.92731L7.46103 9.6211L8.55179 7.01891C8.74851 6.55544 9.18264 6.2442 9.67275 6.20431L9.78676 6.19997H15.2114ZM18.4843 15.8892H17.015L17.0153 16.8898C17.0153 17.1914 17.2536 17.4445 17.5748 17.5131L17.6643 17.5272L17.75 17.5315C18.1558 17.5315 18.4847 17.2442 18.4847 16.8898L18.4843 15.8892ZM7.98425 15.8892H6.515L6.51531 16.8898C6.51531 17.1914 6.75363 17.4445 7.07479 17.5131L7.16432 17.5272L7.25 17.5315C7.65576 17.5315 7.98469 17.2442 7.98469 16.8898L7.98425 15.8892ZM17.5339 10.6284H7.48005C7.44987 10.6301 7.40211 10.635 7.34047 10.6444L7.19979 10.6692C6.98025 10.7132 6.7612 10.7823 6.56003 10.8805C6.01351 11.1471 5.70291 11.5666 5.70291 12.2162V15.1871H19.2971V12.2162C19.2971 11.6093 19.0283 11.2034 18.5515 10.9354L18.4462 10.88C18.2466 10.782 18.0294 10.7131 17.8116 10.6691C17.7338 10.6534 17.6673 10.6429 17.6158 10.6364L17.5339 10.6284ZM13.7302 13.6534C13.8792 13.6534 14 13.8213 14 14.0284C14 14.2125 13.9046 14.3656 13.7787 14.3973L13.7302 14.4034H11.2698C11.1208 14.4034 11 14.2355 11 14.0284C11 13.8443 11.0954 13.6912 11.2213 13.6594L11.2698 13.6534H13.7302ZM7.7 11.79C8.36274 11.79 8.9 12.3239 8.9 12.9826C8.9 13.6412 8.36274 14.1751 7.7 14.1751C7.03726 14.1751 6.5 13.6412 6.5 12.9826C6.5 12.3239 7.03726 11.79 7.7 11.79ZM17.075 11.79C17.7377 11.79 18.275 12.3239 18.275 12.9826C18.275 13.6412 17.7377 14.1751 17.075 14.1751C16.4123 14.1751 15.875 13.6412 15.875 12.9826C15.875 12.3239 16.4123 11.79 17.075 11.79ZM7.7 12.5354C7.45147 12.5354 7.25 12.7356 7.25 12.9826C7.25 13.2296 7.45147 13.4298 7.7 13.4298C7.94853 13.4298 8.15 13.2296 8.15 12.9826C8.15 12.7356 7.94853 12.5354 7.7 12.5354ZM17.075 12.5354C16.8265 12.5354 16.625 12.7356 16.625 12.9826C16.625 13.2296 16.8265 13.4298 17.075 13.4298C17.3235 13.4298 17.525 13.2296 17.525 12.9826C17.525 12.7356 17.3235 12.5354 17.075 12.5354ZM13.7302 12.1627C13.8792 12.1627 14 12.3306 14 12.5377C14 12.7218 13.9046 12.8749 13.7787 12.9067L13.7302 12.9127H11.2698C11.1208 12.9127 11 12.7448 11 12.5377C11 12.3536 11.0954 12.2005 11.2213 12.1687L11.2698 12.1627H13.7302ZM15.2132 6.94241L9.7849 6.94239C9.56951 6.94129 9.37214 7.056 9.26437 7.23833L9.2283 7.30978L8.13125 9.92595L16.868 9.9267L15.7724 7.31138C15.6875 7.11149 15.5047 6.97444 15.2936 6.94733L15.2132 6.94241Z" fill="#4A4950"/>
</svg>
