<svg width="601" height="158" viewBox="0 0 601 158" fill="none" xmlns="http://www.w3.org/2000/svg">
<path d="M36.8452 78.5742L36.8452 21.8275C36.8452 7.31399 51.7764 -2.61642 65.5165 2.75879L147.209 34.7173L121.942 44.7579L61.2602 22.3216C57.8394 21.0568 54.1852 23.5373 54.1852 27.1241L54.1852 71.6835L36.8452 78.5742Z" fill="#F51592"/>
<path d="M156 50.3063C156 54.4887 153.414 58.2527 149.462 59.8213L119.152 71.8536V71.8996L30.9369 109.138L26.2862 110.898L94.737 136.207C98.1578 137.472 101.812 134.991 101.812 131.404V86.9705L119.152 80.0798V136.73C119.152 151.236 104.236 161.166 90.4981 155.805L6.59545 123.067C2.6135 121.513 2.79411e-06 117.734 2.6068e-06 113.529L0 108.222C0 104.04 2.58628 100.276 6.53771 98.7069L154.552 39.9033C155.481 41.4491 156 43.2388 156 45.1129V50.3063Z" fill="url(#paint0_radial_1072_2450)"/>
<path d="M547.265 38.8549V81.3777L585.442 58.8701C585.888 58.6071 586.464 58.7075 586.756 59.1353C587.674 60.4806 588.3 62.0389 588.551 63.7185L589.373 69.2322C590.034 73.6724 587.936 78.0702 584.068 80.3492L549.304 101.083C548.04 101.837 547.265 103.201 547.265 104.673V129.946C547.265 132.146 545.482 133.93 543.281 133.93H530.801C528.601 133.93 526.817 132.146 526.817 129.946V38.8549C526.817 36.6547 528.601 34.871 530.801 34.871H543.281C545.482 34.871 547.265 36.6547 547.265 38.8549Z" fill="#080632"/>
<path d="M198.044 109.179C197.688 106.956 199.521 105.078 201.773 105.078H214.206C216.167 105.078 217.775 106.543 218.548 108.346C221.326 114.832 229.052 118.594 238.972 118.594C250.246 118.594 257.949 113.132 257.949 105.709C257.949 99.0559 253.187 95.2743 240.512 92.6833L229.868 90.5824C209.7 86.5908 199.826 76.9269 199.826 61.8708C199.826 43.3834 215.932 31.1284 238.411 31.1284C260.25 31.1284 274.592 41.6823 276.889 57.9625C277.2 60.1703 275.377 62.0109 273.147 62.0109H260.922C258.847 62.0109 257.187 60.3826 256.505 58.4226C254.265 51.979 247.483 48.2153 238.411 48.2153C227.977 48.2153 220.974 53.1173 220.974 60.5403C220.974 66.7728 225.876 70.6244 237.781 73.0053L248.495 75.1762C269.854 79.4479 279.168 88.0614 279.168 103.398C279.168 123.146 263.692 135.681 238.411 135.681C216.103 135.681 200.701 125.772 198.044 109.179Z" fill="#080632"/>
<path fill-rule="evenodd" clip-rule="evenodd" d="M316.767 71.8056C320.853 63.0698 329.154 57.6691 339.947 57.6691C358.995 57.6691 370.689 72.165 370.689 96.3948C370.689 120.555 359.065 135.12 340.297 135.12C329.436 135.12 321.067 129.86 317.048 121.473C317.005 121.383 316.914 121.325 316.814 121.325C316.672 121.325 316.557 121.44 316.557 121.582V150.472C316.557 152.672 314.774 154.456 312.574 154.456H300.093C297.893 154.456 296.109 152.672 296.109 150.472V62.8435C296.109 60.6432 297.893 58.8596 300.093 58.8596H312.293C314.494 58.8596 316.277 60.6432 316.277 62.8435V71.6988C316.277 71.8402 316.392 71.9549 316.533 71.9549C316.633 71.9549 316.724 71.8962 316.767 71.8056ZM316.487 96.3948C316.487 109.98 323.07 118.664 333.084 118.664C343.308 118.664 349.751 110.05 349.751 96.3948C349.751 82.8093 343.308 74.0558 333.084 74.0558C323.07 74.0558 316.487 82.9494 316.487 96.3948Z" fill="#080632"/>
<path fill-rule="evenodd" clip-rule="evenodd" d="M409.269 135.12C418.598 135.12 427.858 130.483 432.094 122.585C432.14 122.499 432.229 122.445 432.327 122.445C432.471 122.445 432.589 122.563 432.589 122.707V129.946C432.589 132.146 434.372 133.93 436.573 133.93H448.353C450.553 133.93 452.337 132.146 452.337 129.946V82.3191C452.337 67.193 439.802 57.249 420.544 57.249C402.611 57.249 390.771 65.3907 388.051 77.6698C387.557 79.8987 389.408 81.8289 391.691 81.8289H402.848C404.78 81.8289 406.355 80.3867 407.26 78.6794C409.256 74.9114 413.557 72.5151 419.633 72.5151C427.337 72.5151 432.239 76.5768 432.239 83.5796V84.7969C432.239 86.9056 430.595 88.649 428.49 88.7737L413.331 89.6721C394.633 90.7925 384.129 98.7057 384.129 112.361C384.129 125.877 394.983 135.12 409.269 135.12ZM415.992 120.344C409.059 120.344 404.437 116.843 404.437 111.241C404.437 105.919 408.779 102.487 416.412 101.927L430.123 101.078C431.27 101.007 432.239 101.917 432.239 103.066V106.409C432.239 114.532 424.886 120.344 415.992 120.344Z" fill="#080632"/>
<path d="M475.293 133.93C473.092 133.93 471.309 132.146 471.309 129.946V62.8435C471.309 60.6432 473.092 58.8596 475.293 58.8596H487.073C489.273 58.8596 491.057 60.6432 491.057 62.8435V72.1362C491.057 72.2681 491.164 72.3751 491.296 72.3751C491.403 72.3751 491.497 72.3023 491.527 72.1992C494.217 62.7875 500.565 57.6691 509.334 57.6691C510.38 57.6691 511.358 57.7367 512.245 57.8481C513.991 58.0673 515.146 59.6443 515.146 61.4035V70.461C515.146 73.3038 512.144 75.4607 509.306 75.2931C508.787 75.2624 508.258 75.2462 507.723 75.2462C497.639 75.2462 491.757 81.4087 491.757 91.983V129.946C491.757 132.146 489.973 133.93 487.773 133.93H475.293Z" fill="#080632"/>
<path d="M557.123 109.839C556.423 108.845 556.715 107.466 557.758 106.842L572.459 98.0429L593.22 127.659C595.071 130.299 593.182 133.93 589.958 133.93H576.153C574.857 133.93 573.642 133.299 572.896 132.24L557.123 109.839Z" fill="#080632"/>
<defs>
<radialGradient id="paint0_radial_1072_2450" cx="0" cy="0" r="1" gradientUnits="userSpaceOnUse" gradientTransform="translate(213.171 247.91) rotate(-134.657) scale(269.837 233.019)">
<stop offset="0.580974" stop-color="#7E49DD"/>
<stop offset="1" stop-color="#4183D7"/>
</radialGradient>
</defs>
</svg>
