<svg width="24" height="24" viewBox="0 0 24 24" fill="none" xmlns="http://www.w3.org/2000/svg">
<path fill-rule="evenodd" clip-rule="evenodd" d="M11.5089 5.19995C12.9388 5.19995 14.2068 6.05071 14.6846 7.31235L14.7362 7.45972L15.5015 9.83469L15.8929 9.45029C15.8812 9.38614 15.875 9.32007 15.875 9.25258C15.875 8.67807 16.3212 8.20594 16.8917 8.15238L17 8.14732H17.75C18.3713 8.14732 18.875 8.64216 18.875 9.25258C18.875 9.8271 18.4288 10.2992 17.8583 10.3528L17.75 10.3578H17C16.7291 10.3578 16.4805 10.2637 16.2863 10.107L15.7565 10.6268L16.145 11.8322C18.2273 11.8717 19.9138 13.5825 19.9968 15.719L20 15.8842V18.8315C20 19.0124 19.8737 19.1628 19.7071 19.194L19.6429 19.2H5.35714C5.18181 19.2 5.03599 19.0696 5.00575 18.8978L5 18.8315V5.55409C5 5.38024 5.13259 5.23564 5.30744 5.20566L5.37481 5.19995H11.5089ZM8 16.9894H5.75V18.4631H8V16.9894ZM16.0526 12.5684H5.75L5.74925 14.0421H6.875C6.91381 14.0421 6.95227 14.048 6.98902 14.0595L7.04271 14.081L8.54271 14.8178C8.64858 14.8698 8.72195 14.9671 8.74347 15.0788L8.75 15.1473V18.4631H19.25V15.8842C19.25 14.1591 17.9798 12.7418 16.3563 12.5831L16.2031 12.572L16.0526 12.5684ZM16.625 14.0421C17.2098 14.0421 17.6903 14.4804 17.7449 15.0409L17.75 15.1473V15.8842C17.75 16.4587 17.3038 16.9308 16.7333 16.9844L16.625 16.9894H14.375C13.7902 16.9894 13.3097 16.5511 13.2551 15.9906L13.25 15.8842V15.1473C13.25 14.5728 13.6962 14.1007 14.2667 14.0471L14.375 14.0421H16.625ZM6.7865 14.7789H5.75V16.2526H8V15.375L6.7865 14.7789ZM16.625 14.7789H14.375C14.1909 14.7789 14.0378 14.9092 14.006 15.0811L14 15.1473V15.8842C14 16.065 14.1327 16.2155 14.3076 16.2466L14.375 16.2526H16.625C16.8091 16.2526 16.9622 16.1223 16.994 15.9504L17 15.8842V15.1473C17 14.9438 16.8321 14.7789 16.625 14.7789ZM11.4974 5.93727L5.74962 5.93679V11.8315H6.875V11.0927C6.875 10.9512 6.95719 10.8241 7.08313 10.7627L7.13967 10.7406L11.673 9.36945C11.8709 9.30959 12.0808 9.4187 12.1417 9.61317C12.1959 9.78603 12.1142 9.96814 11.9563 10.0485L11.8937 10.0737L7.625 11.3644V11.8315H15.3496L14.0026 7.67785C13.6957 6.73206 12.8185 6.0601 11.7889 5.95243L11.6408 5.94092L11.4974 5.93727ZM17.75 8.88416H17C16.7929 8.88416 16.625 9.04911 16.625 9.25258C16.625 9.43345 16.7577 9.58387 16.9326 9.61507L17 9.621H17.75C17.9571 9.621 18.125 9.45606 18.125 9.25258C18.125 9.04911 17.9571 8.88416 17.75 8.88416Z" fill="#4A4950"/>
</svg>
