<svg width="24" height="25" viewBox="0 0 24 25" fill="none" xmlns="http://www.w3.org/2000/svg">
<path fill-rule="evenodd" clip-rule="evenodd" d="M19.2335 17.6282L19.2339 17.6304L19.2296 17.6539C19.2271 17.6653 19.224 17.6768 19.2204 17.6882L19.2093 17.7182C19.2051 17.7284 19.2002 17.7387 19.1948 17.7488C19.1899 17.758 19.1847 17.7667 19.1793 17.7752C19.1766 17.7795 19.1736 17.7839 19.1706 17.7882L19.1607 17.8016C19.1528 17.8118 19.1444 17.8216 19.1356 17.8309L18.4754 18.4802L18.4762 19.075C18.4762 19.6963 17.9645 20.2 17.3333 20.2C16.7393 20.2 16.2511 19.7538 16.1957 19.1833L16.1905 19.075L16.1897 18.4795L15.5311 17.8309C15.5222 17.8216 15.5138 17.8118 15.506 17.8016L15.4961 17.7882C15.493 17.7839 15.4901 17.7795 15.4872 17.7751C15.4819 17.7667 15.4768 17.758 15.472 17.749C15.4665 17.7387 15.4616 17.7284 15.4572 17.7179C15.4533 17.7085 15.4496 17.6985 15.4463 17.6884C15.4426 17.6768 15.4395 17.6653 15.437 17.6537C15.4362 17.6501 15.4354 17.6462 15.4347 17.6424L15.4325 17.6289C15.4306 17.6161 15.4294 17.6033 15.4289 17.5904L15.4286 15.0225L15.4295 14.9975C15.4289 14.9817 15.4286 14.9659 15.4286 14.95C15.4286 14.2019 16.0955 13.6154 16.9529 13.4797L16.9524 12.7H15.8095L15.7577 12.6955L15.7746 12.6984L15.7905 12.6992L15.7688 12.6978L15.757 12.6955H15.7554L15.7293 12.6916C15.7177 12.6892 15.706 12.6861 15.6945 12.6825L15.664 12.6716C15.6537 12.6674 15.6432 12.6626 15.6329 12.6573C15.6236 12.6525 15.6147 12.6474 15.6061 12.6421L15.5793 12.6238L15.5756 12.6212L15.5749 12.6205L15.5641 12.6118L15.5558 12.6047L15.5497 12.5987L14.7782 11.8401L14.7342 11.7882C14.6313 11.642 14.646 11.44 14.7782 11.3098C14.9105 11.1796 15.1158 11.1651 15.2642 11.2664L15.317 11.3098L15.9672 11.95H18.6987L19.3497 11.3098C19.4984 11.1633 19.7397 11.1633 19.8884 11.3098C20.0207 11.44 20.0354 11.642 19.9325 11.7882L19.8884 11.8401L19.1172 12.599L19.1026 12.6118L19.0941 12.6182L19.1265 12.5901L19.0903 12.6205L19.0604 12.6422C19.0519 12.6474 19.0431 12.6525 19.034 12.6572C19.0234 12.6626 19.013 12.6674 19.0024 12.6717C18.9928 12.6756 18.9827 12.6793 18.9723 12.6825C18.9606 12.6861 18.9489 12.6892 18.9371 12.6916C18.9334 12.6924 18.9295 12.6932 18.9256 12.6939L18.9119 12.6961C18.8989 12.6979 18.8859 12.6991 18.8728 12.6996L18.8571 12.7H17.7143L17.7146 13.4798C18.5715 13.6157 19.2381 14.2021 19.2381 14.95L19.2358 15.0047L19.2381 15.0225V17.575L19.2373 17.5825L19.2335 17.6282ZM14.2857 5.19995C15.2956 5.19995 16.1219 5.9736 16.1864 6.95167L16.1905 7.07495V10.825C16.1905 11.0321 16.0199 11.2 15.8095 11.2C15.6225 11.2 15.467 11.0673 15.4347 10.8924L15.4286 10.825V9.69995H5.52381V15.7H14.3043C14.5044 15.7 14.6667 15.8678 14.6667 16.075C14.6667 16.259 14.5385 16.4122 14.3695 16.4439L14.3043 16.45L5.14993 16.4499C5.14758 16.4499 5.14522 16.45 5.14286 16.45L5.13524 16.4492L4.72459 16.4497V17.1997L14.3043 17.1999C14.4822 17.1999 14.6302 17.3326 14.6608 17.5075L14.6636 17.5427L14.6667 17.575V19.825C14.6667 20.009 14.5319 20.1622 14.3542 20.1939L14.2857 20.2H12.7619C12.5749 20.2 12.4193 20.0673 12.3871 19.8924L12.381 19.825V17.9492H7.80952V19.825C7.80952 20.009 7.67476 20.1622 7.49705 20.1939L7.42857 20.2H5.90476C5.71774 20.2 5.5622 20.0673 5.52995 19.8924L5.52381 19.825V17.9492L4.36233 17.9499C4.18445 17.9499 4.03652 17.8173 4.00584 17.6423L4 17.5749V16.075C4 15.8909 4.12817 15.7377 4.2972 15.706L4.36233 15.7H4.7619V7.07495C4.7619 6.08084 5.54784 5.26742 6.54143 5.20394L6.66667 5.19995H14.2857ZM17.3333 17.2C17.1463 17.2 16.9908 17.3326 16.9585 17.5075L16.9524 17.575V19.075C16.9524 19.2821 17.1229 19.45 17.3333 19.45C17.5204 19.45 17.6759 19.3173 17.7081 19.1424L17.7143 19.075V17.575C17.7143 17.3678 17.5437 17.2 17.3333 17.2ZM7.04762 17.95H6.28571V19.45H7.04762V17.95ZM13.9048 17.95H13.1429V19.45H13.9048V17.95ZM18.4761 16.1532C18.1552 16.341 17.7577 16.45 17.3333 16.45C17.9145 16.45 18.3943 16.8769 18.4667 17.4296L18.4754 17.4197L18.4761 16.1532ZM16.1898 16.1528L16.1897 17.419L16.1999 17.4296C16.2723 16.8769 16.7522 16.45 17.3333 16.45C16.9086 16.45 16.5109 16.3408 16.1898 16.1528ZM17.3333 14.2C16.6822 14.2 16.1905 14.563 16.1905 14.95C16.1905 15.3369 16.6822 15.7 17.3333 15.7C17.9844 15.7 18.4762 15.3369 18.4762 14.95C18.4762 14.563 17.9844 14.2 17.3333 14.2ZM7.80952 11.2C8.6511 11.2 9.33333 11.8715 9.33333 12.7C9.33333 13.5284 8.6511 14.2 7.80952 14.2C6.96795 14.2 6.28571 13.5284 6.28571 12.7C6.28571 11.8715 6.96795 11.2 7.80952 11.2ZM13.1429 11.2C13.9844 11.2 14.6667 11.8715 14.6667 12.7C14.6667 13.5284 13.9844 14.2 13.1429 14.2C12.3013 14.2 11.619 13.5284 11.619 12.7C11.619 11.8715 12.3013 11.2 13.1429 11.2ZM7.80952 11.95C7.38874 11.95 7.04762 12.2857 7.04762 12.7C7.04762 13.1142 7.38874 13.45 7.80952 13.45C8.23031 13.45 8.57143 13.1142 8.57143 12.7C8.57143 12.2857 8.23031 11.95 7.80952 11.95ZM13.1429 11.95C12.7221 11.95 12.381 12.2857 12.381 12.7C12.381 13.1142 12.7221 13.45 13.1429 13.45C13.5636 13.45 13.9048 13.1142 13.9048 12.7C13.9048 12.2857 13.5636 11.95 13.1429 11.95ZM14.2857 5.94995H6.66667C6.07261 5.94995 5.58442 6.39612 5.52904 6.96661L5.52381 7.07495V8.94995H9.58552L9.60271 8.93111L11.219 7.34012C11.3677 7.19367 11.6089 7.19367 11.7577 7.34012C11.8899 7.47029 11.9046 7.67236 11.8018 7.81851L11.7577 7.87045L10.6598 8.94995H11.1093L11.1265 8.93111L12.7428 7.34012C12.8915 7.19367 13.1327 7.19367 13.2815 7.34012C13.4137 7.47029 13.4284 7.67236 13.3256 7.81851L13.2815 7.87045L12.1836 8.94995H15.4286V7.07495C15.4286 6.49018 14.9753 6.00961 14.3958 5.9551L14.2857 5.94995Z" fill="#4A4950"/>
</svg>
