<svg width="24" height="24" viewBox="0 0 24 24" fill="none" xmlns="http://www.w3.org/2000/svg">
<path d="M9.80073 7.00465H20.922C21.5198 7.00465 22 6.52351 22 5.92455C22 5.32558 21.5198 4.84444 20.922 4.84444H9.80073C9.20294 4.84444 8.72274 5.32558 8.72274 5.92455C8.72274 6.52351 9.20294 7.00465 9.80073 7.00465Z" fill="#7B7986"/>
<path d="M3.92078 17.1509C2.86239 17.1509 2 18.015 2 19.0755C2 20.1359 2.86239 21 3.92078 21C4.97918 21 5.84157 20.1359 5.84157 19.0755C5.84157 18.015 4.97918 17.1509 3.92078 17.1509ZM3.92078 19.0264C3.92078 19.0264 3.95998 19.046 3.95998 19.0656C3.95998 19.0853 3.94038 19.1049 3.92078 19.1049C3.90118 19.1049 3.88158 19.0853 3.88158 19.0656C3.88158 19.046 3.90118 19.0264 3.92078 19.0264Z" fill="#7B7986"/>
<path d="M20.922 11.415H9.80073C9.20294 11.415 8.72274 11.8961 8.72274 12.4951C8.72274 13.0941 9.20294 13.5752 9.80073 13.5752H20.922C21.5198 13.5752 22 13.0941 22 12.4951C22 11.8961 21.5198 11.415 20.922 11.415Z" fill="#7B7986"/>
<path d="M20.922 17.9953H9.80073C9.20294 17.9953 8.72274 18.4765 8.72274 19.0755C8.72274 19.6744 9.20294 20.1556 9.80073 20.1556H20.922C21.5198 20.1556 22 19.6744 22 19.0755C22 18.4765 21.5198 17.9953 20.922 17.9953Z" fill="#7B7986"/>
<path d="M3.92078 4C2.86239 4 2 4.86408 2 5.92455C2 6.98501 2.86239 7.8491 3.92078 7.8491C4.97918 7.8491 5.84157 6.98501 5.84157 5.92455C5.84157 4.86408 4.97918 4 3.92078 4ZM3.92078 5.87545C3.92078 5.87545 3.95998 5.89509 3.95998 5.91473C3.95998 5.93437 3.94038 5.95401 3.92078 5.95401C3.90118 5.95401 3.88158 5.93437 3.88158 5.91473C3.88158 5.89509 3.90118 5.87545 3.92078 5.87545Z" fill="#7B7986"/>
<path d="M3.92078 10.5705C2.86239 10.5705 2 11.4346 2 12.4951C2 13.5556 2.86239 14.4196 3.92078 14.4196C4.97918 14.4196 5.84157 13.5556 5.84157 12.4951C5.84157 11.4346 4.97918 10.5705 3.92078 10.5705ZM3.92078 12.446C3.92078 12.446 3.95998 12.4656 3.95998 12.4853C3.95998 12.5049 3.94038 12.5245 3.92078 12.5245C3.90118 12.5245 3.88158 12.5049 3.88158 12.4853C3.88158 12.4656 3.90118 12.446 3.92078 12.446Z" fill="#7B7986"/>
</svg>
